<svg xmlns="http://www.w3.org/2000/svg" viewBox="0 0 469.95 628.09"><defs><style>.cls-1{fill:none;stroke:#909090;stroke-miterlimit:10;stroke-width:2px;}.cls-2{fill:#707071;}</style></defs><g id="Layer_2" data-name="Layer 2"><g id="Layer_1-2" data-name="Layer 1"><rect class="cls-1" x="1" y="25.81" width="467.95" height="601.28" rx="6.5"/><rect class="cls-1" x="13.79" y="40.51" width="442.38" height="112.65" rx="7.06"/><rect class="cls-1" x="13.79" y="559.62" width="442.38" height="52.59" rx="7.06"/><rect class="cls-1" x="13.79" y="175.09" width="286.32" height="361.43" rx="7.06"/><rect class="cls-1" x="27.31" y="234.56" width="258.78" height="178.04" rx="7.06"/><rect class="cls-1" x="27.31" y="432.94" width="258.78" height="77.84" rx="7.06"/><rect class="cls-1" x="42.39" y="290.31" width="229.54" height="97.76" rx="7.06"/><rect class="cls-1" x="317.83" y="175.09" width="138.33" height="361.43" rx="7.06"/><rect class="cls-1" x="26.11" y="87.83" width="417.73" height="49.32" rx="7.02"/><path class="cls-2" d="M2.28,11.15V9.77l9-3.54V7.74L6.86,9.37,4.05,10.42v.08l2.81,1.05,4.43,1.63v1.51Z" transform="translate(0 -2.47)"/><path class="cls-2" d="M15.33,16.38h-.06l-.16,1.05H13.73v-15h1.73V6.56L15.4,8.39A5.18,5.18,0,0,1,18.61,7c2.63,0,4.05,2.05,4.05,5.19,0,3.49-2.09,5.52-4.42,5.52A4.58,4.58,0,0,1,15.33,16.38Zm5.54-4.19c0-2.25-.76-3.76-2.69-3.76a4.11,4.11,0,0,0-2.72,1.39v5.35a4,4,0,0,0,2.48,1.06C19.63,16.23,20.87,14.71,20.87,12.19Z" transform="translate(0 -2.47)"/><path class="cls-2" d="M24.58,12.34C24.58,8.93,26.81,7,29.31,7S34,8.93,34,12.34s-2.23,5.34-4.73,5.34S24.58,15.72,24.58,12.34Zm7.68,0c0-2.34-1.19-3.93-2.95-3.93S26.37,10,26.37,12.34s1.19,3.9,2.94,3.9S32.26,14.68,32.26,12.34Z" transform="translate(0 -2.47)"/><path class="cls-2" d="M36,12.34C36,9,38.08,7,40.41,7a4.19,4.19,0,0,1,2.86,1.18L43.2,6.4V2.47h1.73v15H43.5l-.15-1.2H43.3a4.54,4.54,0,0,1-3.1,1.45C37.65,17.68,36,15.74,36,12.34Zm7.2,2.5V9.49a3.58,3.58,0,0,0-2.49-1.06c-1.63,0-2.93,1.57-2.93,3.89s1,3.91,2.8,3.91A3.53,3.53,0,0,0,43.2,14.84Z" transform="translate(0 -2.47)"/><path class="cls-2" d="M47.36,21.62l.33-1.38a2.7,2.7,0,0,0,.78.16c1.15,0,1.88-.93,2.3-2.2l.23-.75L46.91,7.22h1.78l2.08,5.65c.32.89.66,1.94,1,2.88h.08c.29-.93.58-2,.86-2.88l1.82-5.65h1.69L52.37,18.27c-.72,2-1.77,3.56-3.82,3.56A3.38,3.38,0,0,1,47.36,21.62Z" transform="translate(0 -2.47)"/><path class="cls-2" d="M57.18,13.18l4.43-1.63,2.81-1.05v-.08L61.61,9.37,57.18,7.74V6.23l9,3.54v1.38l-9,3.54Z" transform="translate(0 -2.47)"/><path class="cls-2" d="M29.21,60.86V59.49l9-3.54v1.51l-4.43,1.63-2.8,1v.08l2.8,1.05,4.43,1.63v1.51Z" transform="translate(0 -2.47)"/><path class="cls-2" d="M39.92,62.06c0-3.31,2.09-5.37,4.42-5.37a4.19,4.19,0,0,1,2.86,1.18l-.07-1.75V52.19h1.73v15H47.43l-.15-1.21h-.05a4.52,4.52,0,0,1-3.1,1.46C41.58,67.4,39.92,65.46,39.92,62.06Zm7.21,2.49V59.21a3.6,3.6,0,0,0-2.49-1.07c-1.63,0-2.93,1.58-2.93,3.9s1,3.91,2.8,3.91A3.53,3.53,0,0,0,47.13,64.55Z" transform="translate(0 -2.47)"/><path class="cls-2" d="M52,53.73a1.2,1.2,0,0,1,2.39,0,1.2,1.2,0,0,1-2.39,0Zm.32,3.21H54V67.15H52.31Z" transform="translate(0 -2.47)"/><path class="cls-2" d="M56,56.94h1.78l1.93,5.8.94,3h.09c.3-1,.64-2,.94-3l1.93-5.8H65.3L61.69,67.15h-2Z" transform="translate(0 -2.47)"/><path class="cls-2" d="M71.16,53.73a1.2,1.2,0,1,1,1.2,1.11A1.11,1.11,0,0,1,71.16,53.73Zm.32,3.21h1.73V67.15H71.48Z" transform="translate(0 -2.47)"/><path class="cls-2" d="M75.92,62.06c0-3.31,2.09-5.37,4.41-5.37a4.19,4.19,0,0,1,2.86,1.18l-.07-1.75V52.19h1.73v15H83.42l-.14-1.21h-.06a4.5,4.5,0,0,1-3.1,1.46C77.57,67.4,75.92,65.46,75.92,62.06Zm7.2,2.49V59.21a3.58,3.58,0,0,0-2.49-1.07c-1.63,0-2.93,1.58-2.93,3.9s1,3.91,2.8,3.91A3.5,3.5,0,0,0,83.12,64.55Z" transform="translate(0 -2.47)"/><path class="cls-2" d="M87.29,57.32h9v1.29h-9Zm0,4.5h9v1.3h-9Z" transform="translate(0 -2.47)"/><path class="cls-2" d="M98.33,57.29a2.91,2.91,0,0,0,1.59-2.63l-.25-1.39.88,1.07a1.07,1.07,0,0,1-.81.36,1,1,0,0,1-1.12-1.06,1.08,1.08,0,0,1,1.12-1.16c.83,0,1.32.68,1.32,1.9a4.07,4.07,0,0,1-2.24,3.73Zm3.71,0a2.91,2.91,0,0,0,1.59-2.63l-.25-1.39.87,1.07a1.1,1.1,0,0,1-1.92-.7,1.07,1.07,0,0,1,1.11-1.16c.84,0,1.33.68,1.33,1.9a4.09,4.09,0,0,1-2.24,3.73Z" transform="translate(0 -2.47)"/><path class="cls-2" d="M107.68,52.19h1.73v4.09l-.06,2.1a4.86,4.86,0,0,1,3.39-1.69c2.15,0,3.11,1.39,3.11,4v6.47h-1.72V60.9c0-1.9-.58-2.71-1.93-2.71-1,0-1.77.53-2.79,1.57v7.39h-1.73Z" transform="translate(0 -2.47)"/><path class="cls-2" d="M118.35,62.06c0-3.32,2.24-5.37,4.59-5.37,2.6,0,4.07,1.87,4.07,4.79a5.46,5.46,0,0,1-.08,1h-6.87c.12,2.16,1.44,3.56,3.39,3.56a4.46,4.46,0,0,0,2.54-.81l.62,1.13a6,6,0,0,1-3.38,1.06C120.51,67.4,118.35,65.41,118.35,62.06Zm7.13-.84c0-2-.92-3.15-2.51-3.15-1.44,0-2.72,1.15-2.93,3.15Z" transform="translate(0 -2.47)"/><path class="cls-2" d="M128.64,64.5c0-2.22,1.92-3.34,6.27-3.81,0-1.31-.44-2.58-2.11-2.58a5.58,5.58,0,0,0-3,1.1L129.08,58a7.54,7.54,0,0,1,4-1.33c2.49,0,3.54,1.66,3.54,4.2v6.26h-1.42l-.15-1.22H135a5.39,5.39,0,0,1-3.37,1.47A2.77,2.77,0,0,1,128.64,64.5Zm6.27.16V61.82c-3.42.41-4.58,1.25-4.58,2.56s.79,1.63,1.79,1.63A4.22,4.22,0,0,0,134.91,64.66Z" transform="translate(0 -2.47)"/><path class="cls-2" d="M139.13,62.06c0-3.31,2.09-5.37,4.41-5.37a4.19,4.19,0,0,1,2.86,1.18l-.07-1.75V52.19h1.73v15h-1.43l-.15-1.21h0a4.5,4.5,0,0,1-3.1,1.46C140.78,67.4,139.13,65.46,139.13,62.06Zm7.2,2.49V59.21a3.6,3.6,0,0,0-2.49-1.07c-1.63,0-2.93,1.58-2.93,3.9s1,3.91,2.8,3.91A3.51,3.51,0,0,0,146.33,64.55Z" transform="translate(0 -2.47)"/><path class="cls-2" d="M150.75,62.06c0-3.32,2.24-5.37,4.59-5.37,2.6,0,4.07,1.87,4.07,4.79a5.46,5.46,0,0,1-.08,1h-6.87c.12,2.16,1.44,3.56,3.39,3.56a4.46,4.46,0,0,0,2.54-.81l.62,1.13a6,6,0,0,1-3.37,1.06C152.92,67.4,150.75,65.41,150.75,62.06Zm7.14-.84c0-2-.92-3.15-2.52-3.15-1.43,0-2.72,1.15-2.93,3.15Z" transform="translate(0 -2.47)"/><path class="cls-2" d="M161.93,56.94h1.42l.15,1.86h.06a3.52,3.52,0,0,1,2.9-2.11,2.41,2.41,0,0,1,1.09.21l-.33,1.52a2.64,2.64,0,0,0-1-.17c-.86,0-1.89.62-2.58,2.34v6.56h-1.72Z" transform="translate(0 -2.47)"/><path class="cls-2" d="M168.89,57.29a2.91,2.91,0,0,0,1.59-2.63l-.25-1.39.88,1.07a1.07,1.07,0,0,1-.81.36,1,1,0,0,1-1.12-1.06,1.07,1.07,0,0,1,1.12-1.16c.83,0,1.32.68,1.32,1.9a4.07,4.07,0,0,1-2.24,3.73Zm3.71,0a2.91,2.91,0,0,0,1.59-2.63l-.25-1.39.87,1.07a1.1,1.1,0,0,1-1.92-.7A1.07,1.07,0,0,1,174,52.48c.84,0,1.33.68,1.33,1.9a4.09,4.09,0,0,1-2.24,3.73Z" transform="translate(0 -2.47)"/><path class="cls-2" d="M177.23,62.9l4.44-1.63,2.8-1.05v-.08l-2.8-1-4.44-1.63V56l9,3.54v1.37l-9,3.55Z" transform="translate(0 -2.47)"/><path class="cls-2" d="M40.1,108.15v-1.37l9-3.54v1.5l-4.43,1.64-2.81,1v.09l2.81,1,4.43,1.63v1.51Z" transform="translate(0 -2.47)"/><path class="cls-2" d="M50.82,109.34c0-3.31,2.09-5.36,4.42-5.36a4.18,4.18,0,0,1,2.86,1.18L58,103.41V99.48h1.73v15H58.33l-.15-1.2h-.06A4.52,4.52,0,0,1,55,114.69C52.48,114.69,50.82,112.75,50.82,109.34Zm7.2,2.5v-5.35a3.56,3.56,0,0,0-2.48-1.06c-1.64,0-2.93,1.57-2.93,3.9s1,3.9,2.8,3.9A3.51,3.51,0,0,0,58,111.84Z" transform="translate(0 -2.47)"/><path class="cls-2" d="M62.89,101a1.19,1.19,0,0,1,2.38,0,1.19,1.19,0,0,1-2.38,0Zm.31,3.22h1.73v10.2H63.2Z" transform="translate(0 -2.47)"/><path class="cls-2" d="M66.9,104.23h1.78l1.93,5.8c.3,1,.64,2,.94,3h.09c.3-1,.63-2,.94-3l1.93-5.8H76.2l-3.61,10.2h-2Z" transform="translate(0 -2.47)"/><path class="cls-2" d="M82.06,101a1.2,1.2,0,0,1,2.39,0,1.2,1.2,0,0,1-2.39,0Zm.32,3.22H84.1v10.2H82.38Z" transform="translate(0 -2.47)"/><path class="cls-2" d="M86.81,109.34c0-3.31,2.09-5.36,4.42-5.36a4.15,4.15,0,0,1,2.86,1.18L94,103.41V99.48h1.73v15H94.32l-.15-1.2h0a4.57,4.57,0,0,1-3.1,1.46C88.47,114.69,86.81,112.75,86.81,109.34Zm7.21,2.5v-5.35a3.58,3.58,0,0,0-2.49-1.06c-1.63,0-2.93,1.57-2.93,3.9s1,3.9,2.8,3.9A3.55,3.55,0,0,0,94,111.84Z" transform="translate(0 -2.47)"/><path class="cls-2" d="M98.19,104.6h9v1.3h-9Zm0,4.51h9v1.3h-9Z" transform="translate(0 -2.47)"/><path class="cls-2" d="M109.23,104.58a2.92,2.92,0,0,0,1.59-2.63l-.25-1.39.87,1.06a1,1,0,0,1-.81.37,1,1,0,0,1-1.11-1.06,1.07,1.07,0,0,1,1.11-1.16c.84,0,1.33.68,1.33,1.9a4.08,4.08,0,0,1-2.24,3.72Zm3.7,0a2.91,2.91,0,0,0,1.59-2.63l-.24-1.39.87,1.06a1.1,1.1,0,0,1-1.92-.69,1.07,1.07,0,0,1,1.11-1.16c.83,0,1.32.68,1.32,1.9a4.06,4.06,0,0,1-2.24,3.72Z" transform="translate(0 -2.47)"/><path class="cls-2" d="M118.41,104.23h1.43l.14,1.47H120a4.85,4.85,0,0,1,3.43-1.72c2.15,0,3.11,1.38,3.11,4v6.46h-1.73v-6.24c0-1.9-.57-2.71-1.92-2.71-1,0-1.77.53-2.79,1.56v7.39h-1.73Z" transform="translate(0 -2.47)"/><path class="cls-2" d="M129.27,111.78c0-2.22,1.92-3.33,6.26-3.8,0-1.32-.43-2.58-2.1-2.58a5.69,5.69,0,0,0-3.05,1.09l-.67-1.18a7.46,7.46,0,0,1,4-1.33c2.49,0,3.54,1.65,3.54,4.19v6.26h-1.42l-.15-1.22h-.06a5.42,5.42,0,0,1-3.37,1.48A2.78,2.78,0,0,1,129.27,111.78Zm6.26.16v-2.83c-3.42.41-4.57,1.25-4.57,2.55s.79,1.63,1.79,1.63A4.18,4.18,0,0,0,135.53,111.94Z" transform="translate(0 -2.47)"/><path class="cls-2" d="M139,104.23h1.78l1.93,5.8c.31,1,.64,2,.94,3h.09c.3-1,.64-2,.94-3l1.93-5.8h1.69l-3.61,10.2h-2Z" transform="translate(0 -2.47)"/><path class="cls-2" d="M150,101a1.2,1.2,0,1,1,1.2,1.12A1.13,1.13,0,0,1,150,101Zm.32,3.22H152v10.2h-1.73Z" transform="translate(0 -2.47)"/><path class="cls-2" d="M154.68,116.39a2.86,2.86,0,0,1,1.5-2.3V114a1.88,1.88,0,0,1-.91-1.67,2.42,2.42,0,0,1,1.12-1.89v-.09a3.53,3.53,0,0,1-1.32-2.74A3.62,3.62,0,0,1,158.9,104a4.18,4.18,0,0,1,1.44.25h3.56v1.33h-2.1a3,3,0,0,1,.83,2.1,3.49,3.49,0,0,1-3.73,3.54,3.67,3.67,0,0,1-1.52-.35,1.5,1.5,0,0,0-.65,1.21c0,.64.42,1.1,1.78,1.1h2c2.37,0,3.56.75,3.56,2.44,0,1.9-2,3.53-5.15,3.53C156.41,119.13,154.68,118.15,154.68,116.39Zm7.69-.53c0-.94-.71-1.27-2.05-1.27h-1.76a5.83,5.83,0,0,1-1.33-.15,2.13,2.13,0,0,0-1,1.71c0,1.1,1.1,1.79,3,1.79S162.37,116.93,162.37,115.86Zm-1.31-8.25a2.17,2.17,0,1,0-4.33,0,2.18,2.18,0,1,0,4.33,0Z" transform="translate(0 -2.47)"/><path class="cls-2" d="M165,111.78c0-2.22,1.92-3.33,6.27-3.8,0-1.32-.44-2.58-2.11-2.58a5.65,5.65,0,0,0-3,1.09l-.68-1.18a7.46,7.46,0,0,1,4-1.33c2.49,0,3.54,1.65,3.54,4.19v6.26H171.6l-.15-1.22h-.06a5.4,5.4,0,0,1-3.37,1.48A2.78,2.78,0,0,1,165,111.78Zm6.27.16v-2.83c-3.42.41-4.58,1.25-4.58,2.55s.79,1.63,1.79,1.63A4.2,4.2,0,0,0,171.3,111.94Z" transform="translate(0 -2.47)"/><path class="cls-2" d="M176.21,111.28v-5.65h-1.52v-1.3l1.6-.1.21-2.86h1.44v2.86h2.76v1.4h-2.76v5.68c0,1.25.4,2,1.58,2a3.34,3.34,0,0,0,1.16-.28l.33,1.31a6.23,6.23,0,0,1-1.89.38C177,114.69,176.21,113.31,176.21,111.28Z" transform="translate(0 -2.47)"/><path class="cls-2" d="M182.69,101a1.2,1.2,0,0,1,2.39,0,1.2,1.2,0,0,1-2.39,0Zm.32,3.22h1.72v10.2H183Z" transform="translate(0 -2.47)"/><path class="cls-2" d="M187.42,109.34c0-3.4,2.22-5.36,4.72-5.36s4.73,2,4.73,5.36-2.22,5.35-4.73,5.35S187.42,112.72,187.42,109.34Zm7.67,0c0-2.33-1.19-3.93-3-3.93s-2.94,1.6-2.94,3.93,1.19,3.91,2.94,3.91S195.09,111.68,195.09,109.34Z" transform="translate(0 -2.47)"/><path class="cls-2" d="M199.56,104.23H201l.15,1.47h.06a4.85,4.85,0,0,1,3.42-1.72c2.15,0,3.11,1.38,3.11,4v6.46H206v-6.24c0-1.9-.58-2.71-1.93-2.71-1,0-1.76.53-2.79,1.56v7.39h-1.72Z" transform="translate(0 -2.47)"/><path class="cls-2" d="M210.22,104.58a2.92,2.92,0,0,0,1.59-2.63l-.25-1.39.87,1.06a1,1,0,0,1-.81.37,1,1,0,0,1-1.11-1.06,1.07,1.07,0,0,1,1.11-1.16c.84,0,1.33.68,1.33,1.9a4.08,4.08,0,0,1-2.24,3.72Zm3.7,0a2.92,2.92,0,0,0,1.59-2.63l-.24-1.39.87,1.06a1,1,0,0,1-.81.37,1.06,1.06,0,0,1-1.12-1.06,1.08,1.08,0,0,1,1.12-1.16c.83,0,1.32.68,1.32,1.9a4.06,4.06,0,0,1-2.24,3.72Z" transform="translate(0 -2.47)"/><path class="cls-2" d="M218.56,110.18l4.44-1.63,2.8-1v-.09l-2.8-1-4.44-1.64v-1.5l9,3.54v1.37l-9,3.54Z" transform="translate(0 -2.47)"/><path class="cls-2" d="M29.21,195.48v-1.37l9-3.54v1.5l-4.43,1.64-2.8,1v.09l2.8,1,4.43,1.64V199Z" transform="translate(0 -2.47)"/><path class="cls-2" d="M39.92,196.68c0-3.32,2.09-5.37,4.42-5.37a4.15,4.15,0,0,1,2.86,1.18l-.07-1.75v-3.93h1.73v15H47.43l-.15-1.21h-.05a4.57,4.57,0,0,1-3.1,1.46C41.58,202,39.92,200.08,39.92,196.68Zm7.21,2.49v-5.35a3.62,3.62,0,0,0-2.49-1.06c-1.63,0-2.93,1.57-2.93,3.9s1,3.9,2.8,3.9A3.55,3.55,0,0,0,47.13,199.17Z" transform="translate(0 -2.47)"/><path class="cls-2" d="M52,188.35a1.2,1.2,0,0,1,2.39,0,1.2,1.2,0,0,1-2.39,0Zm.32,3.21H54v10.21H52.31Z" transform="translate(0 -2.47)"/><path class="cls-2" d="M56,191.56h1.78l1.93,5.8c.31,1,.64,2,.94,3h.09c.3-1,.64-2,.94-3l1.93-5.8H65.3l-3.61,10.21h-2Z" transform="translate(0 -2.47)"/><path class="cls-2" d="M71.16,188.35a1.2,1.2,0,1,1,1.2,1.11A1.11,1.11,0,0,1,71.16,188.35Zm.32,3.21h1.73v10.21H71.48Z" transform="translate(0 -2.47)"/><path class="cls-2" d="M75.92,196.68c0-3.32,2.09-5.37,4.41-5.37a4.15,4.15,0,0,1,2.86,1.18l-.07-1.75v-3.93h1.73v15H83.42l-.14-1.21h-.06a4.55,4.55,0,0,1-3.1,1.46C77.57,202,75.92,200.08,75.92,196.68Zm7.2,2.49v-5.35a3.61,3.61,0,0,0-2.49-1.06c-1.63,0-2.93,1.57-2.93,3.9s1,3.9,2.8,3.9A3.52,3.52,0,0,0,83.12,199.17Z" transform="translate(0 -2.47)"/><path class="cls-2" d="M87.29,191.93h9v1.3h-9Zm0,4.51h9v1.3h-9Z" transform="translate(0 -2.47)"/><path class="cls-2" d="M98.33,191.91a2.92,2.92,0,0,0,1.59-2.63l-.25-1.39.88,1.07a1.07,1.07,0,0,1-.81.36,1,1,0,0,1-1.12-1.06,1.08,1.08,0,0,1,1.12-1.16c.83,0,1.32.68,1.32,1.9a4.06,4.06,0,0,1-2.24,3.72Zm3.71,0a2.92,2.92,0,0,0,1.59-2.63l-.25-1.39.87,1.07a1.1,1.1,0,0,1-1.92-.7,1.07,1.07,0,0,1,1.11-1.16c.84,0,1.33.68,1.33,1.9a4.08,4.08,0,0,1-2.24,3.72Z" transform="translate(0 -2.47)"/><path class="cls-2" d="M107.52,191.56h1.42l.15,1.48h.06a4.51,4.51,0,0,1,3.17-1.73,2.69,2.69,0,0,1,2.82,1.94c1.06-1.15,2.12-1.94,3.36-1.94,2.1,0,3.11,1.38,3.11,4v6.47h-1.73v-6.25c0-1.9-.6-2.71-1.9-2.71a3.7,3.7,0,0,0-2.55,1.56v7.4H113.7v-6.25c0-1.9-.6-2.71-1.9-2.71a3.8,3.8,0,0,0-2.56,1.56v7.4h-1.72Z" transform="translate(0 -2.47)"/><path class="cls-2" d="M124.29,199.12c0-2.23,1.92-3.34,6.27-3.81,0-1.32-.44-2.58-2.11-2.58a5.65,5.65,0,0,0-3,1.09l-.68-1.18a7.46,7.46,0,0,1,4-1.33c2.49,0,3.55,1.65,3.55,4.19v6.27h-1.43l-.15-1.23h-.05a5.45,5.45,0,0,1-3.38,1.48A2.77,2.77,0,0,1,124.29,199.12Zm6.27.15v-2.83c-3.42.41-4.58,1.25-4.58,2.55a1.57,1.57,0,0,0,1.79,1.64A4.18,4.18,0,0,0,130.56,199.27Z" transform="translate(0 -2.47)"/><path class="cls-2" d="M135.19,188.35a1.2,1.2,0,0,1,2.39,0,1.2,1.2,0,0,1-2.39,0Zm.32,3.21h1.72v10.21h-1.72Z" transform="translate(0 -2.47)"/><path class="cls-2" d="M140.67,191.56h1.43l.15,1.47h.05a4.89,4.89,0,0,1,3.43-1.72c2.15,0,3.11,1.38,3.11,4v6.47h-1.72v-6.25c0-1.9-.58-2.71-1.93-2.71-1,0-1.77.53-2.79,1.56v7.4h-1.73Z" transform="translate(0 -2.47)"/><path class="cls-2" d="M151.33,191.91a2.91,2.91,0,0,0,1.59-2.63l-.24-1.39.87,1.07a1.07,1.07,0,0,1-.81.36,1,1,0,0,1-1.11-1.06,1.07,1.07,0,0,1,1.11-1.16c.83,0,1.32.68,1.32,1.9a4.06,4.06,0,0,1-2.24,3.72Zm3.71,0a2.92,2.92,0,0,0,1.59-2.63l-.24-1.39.87,1.07a1.07,1.07,0,0,1-.81.36,1.06,1.06,0,0,1-1.12-1.06,1.08,1.08,0,0,1,1.12-1.16c.83,0,1.32.68,1.32,1.9a4.06,4.06,0,0,1-2.24,3.72Z" transform="translate(0 -2.47)"/><path class="cls-2" d="M159.68,197.52l4.43-1.64,2.81-1v-.09l-2.81-1-4.43-1.64v-1.5l9,3.54v1.37l-9,3.54Z" transform="translate(0 -2.47)"/><path class="cls-2" d="M53.6,309.42v-1.37l9-3.55V306l-4.44,1.64-2.8,1v.08l2.8,1.05,4.44,1.63V313Z" transform="translate(0 -2.47)"/><path class="cls-2" d="M64.32,310.61c0-3.31,2.09-5.36,4.41-5.36a4.19,4.19,0,0,1,2.87,1.18l-.08-1.75v-3.94h1.73v15H71.82l-.14-1.2h-.06a4.53,4.53,0,0,1-3.1,1.46C66,316,64.32,314,64.32,310.61Zm7.2,2.5v-5.35A3.56,3.56,0,0,0,69,306.7c-1.63,0-2.93,1.57-2.93,3.9s1,3.9,2.8,3.9A3.52,3.52,0,0,0,71.52,313.11Z" transform="translate(0 -2.47)"/><path class="cls-2" d="M76.38,302.28a1.2,1.2,0,1,1,1.2,1.12A1.13,1.13,0,0,1,76.38,302.28Zm.32,3.22h1.73v10.2H76.7Z" transform="translate(0 -2.47)"/><path class="cls-2" d="M80.4,305.5h1.78l1.93,5.79c.3,1,.63,2,.94,3h.08c.31-1,.64-2,.94-3L88,305.5h1.7l-3.61,10.2h-2Z" transform="translate(0 -2.47)"/><path class="cls-2" d="M95.56,302.28a1.19,1.19,0,0,1,2.38,0,1.19,1.19,0,0,1-2.38,0Zm.31,3.22H97.6v10.2H95.87Z" transform="translate(0 -2.47)"/><path class="cls-2" d="M100.31,310.61c0-3.31,2.09-5.36,4.42-5.36a4.16,4.16,0,0,1,2.86,1.18l-.07-1.75v-3.94h1.72v15h-1.42l-.15-1.2h-.06a4.52,4.52,0,0,1-3.09,1.46C102,316,100.31,314,100.31,310.61Zm7.21,2.5v-5.35A3.6,3.6,0,0,0,105,306.7c-1.64,0-2.93,1.57-2.93,3.9s1,3.9,2.8,3.9A3.55,3.55,0,0,0,107.52,313.11Z" transform="translate(0 -2.47)"/><path class="cls-2" d="M111.69,305.87h9v1.3h-9Zm0,4.51h9v1.3h-9Z" transform="translate(0 -2.47)"/><path class="cls-2" d="M122.72,305.85a2.91,2.91,0,0,0,1.59-2.64l-.24-1.38.87,1.06a1.1,1.1,0,0,1-1.92-.69,1.06,1.06,0,0,1,1.11-1.16c.83,0,1.32.68,1.32,1.89a4.06,4.06,0,0,1-2.24,3.73Zm3.71,0a2.93,2.93,0,0,0,1.59-2.64l-.24-1.38.87,1.06a1,1,0,0,1-.81.37,1.06,1.06,0,0,1-1.12-1.06,1.07,1.07,0,0,1,1.12-1.16c.83,0,1.32.68,1.32,1.89a4.06,4.06,0,0,1-2.24,3.73Z" transform="translate(0 -2.47)"/><path class="cls-2" d="M130.27,313.05c0-2.22,1.92-3.33,6.27-3.8,0-1.32-.44-2.58-2.11-2.58a5.65,5.65,0,0,0-3,1.09l-.68-1.18a7.46,7.46,0,0,1,4-1.33c2.49,0,3.54,1.65,3.54,4.19v6.26h-1.42l-.15-1.22h-.06a5.4,5.4,0,0,1-3.37,1.48A2.78,2.78,0,0,1,130.27,313.05Zm6.27.16v-2.83c-3.42.41-4.58,1.25-4.58,2.55s.79,1.63,1.79,1.63A4.22,4.22,0,0,0,136.54,313.21Z" transform="translate(0 -2.47)"/><path class="cls-2" d="M141.48,305.5h1.43l.15,1.86h.05a3.52,3.52,0,0,1,2.91-2.11,2.29,2.29,0,0,1,1.09.21l-.33,1.51a2.86,2.86,0,0,0-1-.17c-.86,0-1.89.62-2.58,2.35v6.55h-1.73Z" transform="translate(0 -2.47)"/><path class="cls-2" d="M149.07,312.55V306.9h-1.51v-1.3l1.59-.1.21-2.87h1.44v2.87h2.77v1.4H150.8v5.68c0,1.25.4,2,1.58,2a3.34,3.34,0,0,0,1.16-.28l.34,1.31a6.35,6.35,0,0,1-1.9.38C149.81,316,149.07,314.58,149.07,312.55Z" transform="translate(0 -2.47)"/><path class="cls-2" d="M155.55,302.28a1.2,1.2,0,0,1,2.39,0,1.2,1.2,0,0,1-2.39,0Zm.32,3.22h1.73v10.2h-1.73Z" transform="translate(0 -2.47)"/><path class="cls-2" d="M160.28,310.61c0-3.4,2.3-5.36,4.91-5.36a4.29,4.29,0,0,1,3,1.19l-.88,1.14a3,3,0,0,0-2-.9c-1.84,0-3.2,1.59-3.2,3.93s1.28,3.91,3.16,3.91a3.67,3.67,0,0,0,2.39-1l.75,1.16a4.93,4.93,0,0,1-3.3,1.3C162.35,316,160.28,314,160.28,310.61Z" transform="translate(0 -2.47)"/><path class="cls-2" d="M170.61,313.65V300.74h1.73v13c0,.53.23.74.48.74a1.6,1.6,0,0,0,.38,0l.23,1.31a2.68,2.68,0,0,1-1,.17C171.14,316,170.61,315.13,170.61,313.65Z" transform="translate(0 -2.47)"/><path class="cls-2" d="M175.21,310.61c0-3.32,2.24-5.36,4.59-5.36,2.6,0,4.07,1.86,4.07,4.78a5.58,5.58,0,0,1-.08,1h-6.88c.13,2.16,1.45,3.56,3.4,3.56a4.5,4.5,0,0,0,2.54-.82l.61,1.14a6,6,0,0,1-3.37,1.06C177.37,316,175.21,314,175.21,310.61Zm7.13-.83c0-2-.92-3.16-2.51-3.16s-2.72,1.15-2.93,3.16Z" transform="translate(0 -2.47)"/><path class="cls-2" d="M185.76,305.85a2.92,2.92,0,0,0,1.6-2.64l-.25-1.38.87,1.06a1.1,1.1,0,0,1-1.92-.69,1.06,1.06,0,0,1,1.11-1.16c.83,0,1.33.68,1.33,1.89a4.07,4.07,0,0,1-2.25,3.73Zm3.71,0a2.93,2.93,0,0,0,1.59-2.64l-.24-1.38.87,1.06a1,1,0,0,1-.81.37,1.06,1.06,0,0,1-1.12-1.06,1.07,1.07,0,0,1,1.12-1.16c.83,0,1.32.68,1.32,1.89a4.06,4.06,0,0,1-2.24,3.73Z" transform="translate(0 -2.47)"/><path class="cls-2" d="M194.11,311.45l4.44-1.63,2.8-1.05v-.08l-2.8-1L194.11,306V304.5l9,3.55v1.37l-9,3.54Z" transform="translate(0 -2.47)"/><path class="cls-2" d="M39.9,252v-1.38l9-3.54v1.51l-4.43,1.63-2.8,1v.08l2.8,1L48.9,254v1.51Z" transform="translate(0 -2.47)"/><path class="cls-2" d="M50.61,253.18c0-3.31,2.09-5.37,4.42-5.37A4.19,4.19,0,0,1,57.89,249l-.07-1.75v-3.93h1.72v15H58.12L58,257.06h0a4.52,4.52,0,0,1-3.1,1.46C52.27,258.52,50.61,256.58,50.61,253.18Zm7.21,2.5v-5.35a3.6,3.6,0,0,0-2.49-1.07c-1.63,0-2.93,1.58-2.93,3.9s1,3.91,2.8,3.91A3.55,3.55,0,0,0,57.82,255.68Z" transform="translate(0 -2.47)"/><path class="cls-2" d="M62.68,244.85a1.2,1.2,0,0,1,2.39,0,1.2,1.2,0,0,1-2.39,0Zm.32,3.21h1.72v10.21H63Z" transform="translate(0 -2.47)"/><path class="cls-2" d="M66.69,248.06h1.78l1.93,5.8.94,3h.09l.94-3,1.93-5.8H76l-3.61,10.21h-2Z" transform="translate(0 -2.47)"/><path class="cls-2" d="M81.85,244.85a1.2,1.2,0,0,1,2.39,0,1.2,1.2,0,0,1-2.39,0Zm.32,3.21H83.9v10.21H82.17Z" transform="translate(0 -2.47)"/><path class="cls-2" d="M86.61,253.18c0-3.31,2.09-5.37,4.41-5.37A4.19,4.19,0,0,1,93.88,249l-.07-1.75v-3.93h1.73v15H94.11L94,257.06h-.06a4.5,4.5,0,0,1-3.1,1.46C88.26,258.52,86.61,256.58,86.61,253.18Zm7.2,2.5v-5.35a3.58,3.58,0,0,0-2.49-1.07c-1.63,0-2.93,1.58-2.93,3.9s1,3.91,2.8,3.91A3.52,3.52,0,0,0,93.81,255.68Z" transform="translate(0 -2.47)"/><path class="cls-2" d="M98,248.44h9v1.3H98ZM98,253h9v1.29H98Z" transform="translate(0 -2.47)"/><path class="cls-2" d="M109,248.42a2.94,2.94,0,0,0,1.59-2.64l-.25-1.39.88,1.07a1.07,1.07,0,0,1-.81.36,1,1,0,0,1-1.12-1,1.08,1.08,0,0,1,1.12-1.17c.83,0,1.32.69,1.32,1.9a4.06,4.06,0,0,1-2.24,3.73Zm3.71,0a2.94,2.94,0,0,0,1.59-2.64l-.25-1.39.87,1.07a1.11,1.11,0,0,1-1.92-.69,1.07,1.07,0,0,1,1.11-1.17c.84,0,1.33.69,1.33,1.9a4.08,4.08,0,0,1-2.24,3.73Z" transform="translate(0 -2.47)"/><path class="cls-2" d="M116.36,257.1l.85-1.13a4.63,4.63,0,0,0,3,1.21c1.34,0,2-.72,2-1.59,0-1.05-1.21-1.51-2.33-1.93-1.43-.53-3.05-1.23-3.05-2.95s1.31-2.9,3.52-2.9a5.2,5.2,0,0,1,3.18,1.15l-.83,1.1a3.87,3.87,0,0,0-2.33-.9c-1.28,0-1.88.68-1.88,1.46,0,1,1.11,1.34,2.27,1.77,1.47.56,3.11,1.15,3.11,3.1,0,1.65-1.31,3-3.72,3A6.09,6.09,0,0,1,116.36,257.1Z" transform="translate(0 -2.47)"/><path class="cls-2" d="M125.53,253.18c0-3.32,2.24-5.37,4.59-5.37,2.6,0,4.07,1.87,4.07,4.79a5.46,5.46,0,0,1-.08,1h-6.87c.12,2.16,1.44,3.57,3.39,3.57a4.47,4.47,0,0,0,2.54-.82l.62,1.13a6,6,0,0,1-3.37,1.06C127.7,258.52,125.53,256.53,125.53,253.18Zm7.14-.84c0-2-.92-3.15-2.52-3.15-1.43,0-2.72,1.15-2.93,3.15Z" transform="translate(0 -2.47)"/><path class="cls-2" d="M136,253.18c0-3.41,2.3-5.37,4.91-5.37a4.24,4.24,0,0,1,3,1.2l-.88,1.14a2.93,2.93,0,0,0-2-.9c-1.85,0-3.21,1.59-3.21,3.93s1.28,3.9,3.16,3.9a3.66,3.66,0,0,0,2.39-1l.75,1.15a4.93,4.93,0,0,1-3.3,1.3C138,258.52,136,256.56,136,253.18Z" transform="translate(0 -2.47)"/><path class="cls-2" d="M146.37,255.11v-5.64h-1.51v-1.31l1.59-.1.21-2.86h1.44v2.86h2.77v1.41H148.1v5.67c0,1.25.4,2,1.58,2a3.33,3.33,0,0,0,1.16-.27l.34,1.3a6.06,6.06,0,0,1-1.9.38C147.11,258.52,146.37,257.15,146.37,255.11Z" transform="translate(0 -2.47)"/><path class="cls-2" d="M152.85,244.85a1.2,1.2,0,0,1,2.39,0,1.2,1.2,0,0,1-2.39,0Zm.32,3.21h1.73v10.21h-1.73Z" transform="translate(0 -2.47)"/><path class="cls-2" d="M157.58,253.18c0-3.41,2.22-5.37,4.73-5.37s4.73,2,4.73,5.37-2.23,5.34-4.73,5.34S157.58,256.56,157.58,253.18Zm7.67,0c0-2.34-1.19-3.93-2.94-3.93s-2.95,1.59-2.95,3.93,1.19,3.9,2.95,3.9S165.25,255.52,165.25,253.18Z" transform="translate(0 -2.47)"/><path class="cls-2" d="M169.72,248.06h1.42l.15,1.48h.06a4.86,4.86,0,0,1,3.42-1.73c2.15,0,3.12,1.39,3.12,4v6.47h-1.73V252c0-1.91-.57-2.72-1.93-2.72-1,0-1.76.53-2.79,1.57v7.39h-1.72Z" transform="translate(0 -2.47)"/><path class="cls-2" d="M180.35,252.34h4.82v1.33h-4.82Z" transform="translate(0 -2.47)"/><path class="cls-2" d="M187.41,256.83h3.07V247H188v-1.11a8.1,8.1,0,0,0,2.85-1h1.32v11.95H195v1.44h-7.56Z" transform="translate(0 -2.47)"/><path class="cls-2" d="M197.51,248.42a2.94,2.94,0,0,0,1.59-2.64l-.24-1.39.87,1.07a1.07,1.07,0,0,1-.81.36,1.05,1.05,0,0,1-1.12-1,1.08,1.08,0,0,1,1.12-1.17c.83,0,1.32.69,1.32,1.9a4.06,4.06,0,0,1-2.24,3.73Zm3.71,0a2.94,2.94,0,0,0,1.59-2.64l-.25-1.39.88,1.07a1.07,1.07,0,0,1-.81.36,1,1,0,0,1-1.12-1,1.08,1.08,0,0,1,1.12-1.17c.83,0,1.32.69,1.32,1.9a4.06,4.06,0,0,1-2.24,3.73Z" transform="translate(0 -2.47)"/><path class="cls-2" d="M205.86,254l4.43-1.63,2.81-1v-.08l-2.81-1-4.43-1.63v-1.51l9,3.54V252l-9,3.54Z" transform="translate(0 -2.47)"/><path class="cls-2" d="M38.76,448.64v-1.38l9-3.54v1.51l-4.44,1.63-2.8,1.05V448l2.8,1.05,4.44,1.63v1.51Z" transform="translate(0 -2.47)"/><path class="cls-2" d="M49.48,449.83c0-3.31,2.09-5.37,4.42-5.37a4.19,4.19,0,0,1,2.86,1.19l-.08-1.75V440h1.73v15H57l-.14-1.2h-.06a4.52,4.52,0,0,1-3.1,1.45C51.13,455.17,49.48,453.23,49.48,449.83Zm7.2,2.5V447a3.56,3.56,0,0,0-2.49-1.06c-1.63,0-2.92,1.57-2.92,3.9s1,3.9,2.8,3.9A3.51,3.51,0,0,0,56.68,452.33Z" transform="translate(0 -2.47)"/><path class="cls-2" d="M61.55,441.5a1.19,1.19,0,0,1,2.38,0,1.19,1.19,0,0,1-2.38,0Zm.31,3.22h1.73v10.2H61.86Z" transform="translate(0 -2.47)"/><path class="cls-2" d="M65.56,444.72h1.78l1.93,5.79c.3,1,.63,2,.94,3h.08c.31-1,.64-2,.95-3l1.93-5.79h1.69l-3.61,10.2h-2Z" transform="translate(0 -2.47)"/><path class="cls-2" d="M80.72,441.5a1.19,1.19,0,0,1,2.38,0,1.19,1.19,0,0,1-2.38,0Zm.32,3.22h1.72v10.2H81Z" transform="translate(0 -2.47)"/><path class="cls-2" d="M85.47,449.83c0-3.31,2.09-5.37,4.42-5.37a4.17,4.17,0,0,1,2.86,1.19l-.07-1.75V440H94.4v15H93l-.15-1.2h-.06a4.51,4.51,0,0,1-3.09,1.45C87.13,455.17,85.47,453.23,85.47,449.83Zm7.21,2.5V447a3.58,3.58,0,0,0-2.49-1.06c-1.63,0-2.93,1.57-2.93,3.9s1,3.9,2.8,3.9A3.55,3.55,0,0,0,92.68,452.33Z" transform="translate(0 -2.47)"/><path class="cls-2" d="M96.85,445.09h9v1.3h-9Zm0,4.51h9v1.3h-9Z" transform="translate(0 -2.47)"/><path class="cls-2" d="M107.89,445.07a2.94,2.94,0,0,0,1.59-2.64l-.25-1.39.87,1.07a1.06,1.06,0,0,1-.81.37,1,1,0,0,1-1.11-1.06,1.06,1.06,0,0,1,1.11-1.16c.84,0,1.33.68,1.33,1.89a4.08,4.08,0,0,1-2.24,3.73Zm3.7,0a2.94,2.94,0,0,0,1.59-2.64l-.24-1.39.87,1.07a1.08,1.08,0,0,1-.81.37,1.06,1.06,0,0,1-1.12-1.06,1.07,1.07,0,0,1,1.12-1.16c.83,0,1.32.68,1.32,1.89a4.06,4.06,0,0,1-2.24,3.73Z" transform="translate(0 -2.47)"/><path class="cls-2" d="M115.23,453.76l.85-1.14a4.59,4.59,0,0,0,3,1.21c1.34,0,2-.72,2-1.59,0-1.05-1.21-1.51-2.34-1.93-1.43-.52-3-1.23-3-2.95s1.31-2.9,3.52-2.9a5.14,5.14,0,0,1,3.17,1.15l-.82,1.11a3.87,3.87,0,0,0-2.33-.91c-1.29,0-1.88.68-1.88,1.46,0,1,1.11,1.34,2.26,1.77,1.48.56,3.12,1.16,3.12,3.1,0,1.65-1.32,3-3.73,3A6.09,6.09,0,0,1,115.23,453.76Z" transform="translate(0 -2.47)"/><path class="cls-2" d="M124.4,449.83c0-3.32,2.24-5.37,4.59-5.37,2.6,0,4.07,1.87,4.07,4.79a5.38,5.38,0,0,1-.08,1H126.1c.13,2.17,1.45,3.57,3.4,3.57A4.5,4.5,0,0,0,132,453l.61,1.13a6,6,0,0,1-3.37,1.06C126.56,455.17,124.4,453.18,124.4,449.83Zm7.13-.83c0-2.05-.92-3.16-2.51-3.16S126.3,447,126.09,449Z" transform="translate(0 -2.47)"/><path class="cls-2" d="M134.81,449.83c0-3.4,2.3-5.37,4.91-5.37a4.33,4.33,0,0,1,3,1.2l-.88,1.14a3,3,0,0,0-2-.9c-1.85,0-3.2,1.59-3.2,3.93s1.28,3.91,3.15,3.91a3.7,3.7,0,0,0,2.4-1l.75,1.16a5,5,0,0,1-3.3,1.29C136.88,455.17,134.81,453.21,134.81,449.83Z" transform="translate(0 -2.47)"/><path class="cls-2" d="M145.24,451.77v-5.65h-1.52v-1.31l1.6-.09.2-2.87H147v2.87h2.76v1.4H147v5.68c0,1.24.4,2,1.58,2a3.34,3.34,0,0,0,1.16-.28l.33,1.31a6.22,6.22,0,0,1-1.89.37C146,455.17,145.24,453.8,145.24,451.77Z" transform="translate(0 -2.47)"/><path class="cls-2" d="M151.72,441.5a1.19,1.19,0,0,1,2.38,0,1.19,1.19,0,0,1-2.38,0Zm.32,3.22h1.72v10.2H152Z" transform="translate(0 -2.47)"/><path class="cls-2" d="M156.44,449.83c0-3.4,2.23-5.37,4.73-5.37s4.73,2,4.73,5.37-2.23,5.34-4.73,5.34S156.44,453.21,156.44,449.83Zm7.68,0c0-2.34-1.19-3.93-3-3.93s-2.94,1.59-2.94,3.93,1.19,3.91,2.94,3.91S164.12,452.17,164.12,449.83Z" transform="translate(0 -2.47)"/><path class="cls-2" d="M168.58,444.72H170l.15,1.47h.05a4.9,4.9,0,0,1,3.43-1.73c2.15,0,3.11,1.39,3.11,4v6.47H175v-6.24c0-1.9-.58-2.72-1.93-2.72-1,0-1.77.54-2.79,1.57v7.39h-1.73Z" transform="translate(0 -2.47)"/><path class="cls-2" d="M179.22,449H184v1.33h-4.81Z" transform="translate(0 -2.47)"/><path class="cls-2" d="M185.46,453.9c4-4,6.3-6.42,6.3-8.6a2.36,2.36,0,0,0-2.54-2.61,3.9,3.9,0,0,0-2.84,1.6l-1-1a5.26,5.26,0,0,1,4.07-2,3.72,3.72,0,0,1,4,3.94c0,2.51-2.31,5-5.47,8.33.72-.06,1.56-.11,2.25-.11h3.87v1.48h-8.65Z" transform="translate(0 -2.47)"/><path class="cls-2" d="M196.38,445.07a2.94,2.94,0,0,0,1.59-2.64l-.25-1.39.87,1.07a1.1,1.1,0,0,1-1.92-.69,1.07,1.07,0,0,1,1.12-1.16c.83,0,1.32.68,1.32,1.89a4.08,4.08,0,0,1-2.24,3.73Zm3.71,0a2.94,2.94,0,0,0,1.59-2.64l-.25-1.39.87,1.07a1.06,1.06,0,0,1-.81.37,1,1,0,0,1-1.11-1.06,1.06,1.06,0,0,1,1.11-1.16c.84,0,1.33.68,1.33,1.89a4.08,4.08,0,0,1-2.24,3.73Z" transform="translate(0 -2.47)"/><path class="cls-2" d="M204.72,450.67l4.44-1.63L212,448v-.08l-2.8-1.05-4.44-1.63v-1.51l9,3.54v1.38l-9,3.54Z" transform="translate(0 -2.47)"/><path class="cls-2" d="M334.27,407.42V406l9-3.54V404l-4.44,1.63-2.8,1.05v.08l2.8,1.05,4.44,1.63V411Z" transform="translate(0 -2.47)"/><path class="cls-2" d="M345.4,400.28a1.19,1.19,0,0,1,2.38,0,1.19,1.19,0,0,1-2.38,0Zm.32,3.21h1.72V413.7h-1.72Z" transform="translate(0 -2.47)"/><path class="cls-2" d="M350.88,403.49h1.43l.14,1.49h.06a4.52,4.52,0,0,1,3.18-1.74,2.68,2.68,0,0,1,2.81,1.95c1.06-1.15,2.13-1.95,3.37-1.95,2.1,0,3.11,1.39,3.11,4v6.47h-1.73v-6.24c0-1.9-.6-2.72-1.9-2.72a3.76,3.76,0,0,0-2.56,1.57v7.39h-1.73v-6.24c0-1.9-.6-2.72-1.89-2.72a3.78,3.78,0,0,0-2.56,1.57v7.39h-1.73Z" transform="translate(0 -2.47)"/><path class="cls-2" d="M367.52,415.66a2.87,2.87,0,0,1,1.49-2.31v-.08a1.89,1.89,0,0,1-.91-1.67,2.44,2.44,0,0,1,1.12-1.9v-.08a3.56,3.56,0,0,1-1.32-2.74,3.63,3.63,0,0,1,3.83-3.64,4.18,4.18,0,0,1,1.44.25h3.56v1.33h-2.09a3,3,0,0,1,.83,2.1,3.49,3.49,0,0,1-3.74,3.54,3.7,3.7,0,0,1-1.52-.34,1.48,1.48,0,0,0-.65,1.2c0,.65.42,1.11,1.79,1.11h2c2.38,0,3.57.75,3.57,2.44,0,1.89-2,3.53-5.16,3.53C369.24,418.4,367.52,417.42,367.52,415.66Zm7.69-.53c0-.95-.72-1.27-2.06-1.27h-1.76a5.89,5.89,0,0,1-1.33-.15,2.12,2.12,0,0,0-1,1.71c0,1.1,1.11,1.79,3,1.79S375.21,416.19,375.21,415.13Zm-1.31-8.25a2.18,2.18,0,1,0-4.34,0,2.18,2.18,0,1,0,4.34,0Z" transform="translate(0 -2.47)"/><path class="cls-2" d="M377.87,409.45l4.43-1.63,2.8-1.05v-.08l-2.8-1.05L377.87,404V402.5l9,3.54v1.38l-9,3.54Z" transform="translate(0 -2.47)"/><rect class="cls-1" x="329.77" y="384.06" width="117.07" height="136.91" rx="7.06"/><path class="cls-2" d="M20.4,576.09v-1.37l9-3.54v1.51L25,574.32l-2.8,1v.08l2.8,1,4.44,1.64v1.51Z" transform="translate(0 -2.47)"/><path class="cls-2" d="M31.12,577.29c0-3.31,2.09-5.37,4.41-5.37a4.19,4.19,0,0,1,2.86,1.18l-.07-1.75v-3.93h1.73v15H38.62l-.14-1.21h-.06a4.5,4.5,0,0,1-3.1,1.46C32.77,582.63,31.12,580.69,31.12,577.29Zm7.2,2.49v-5.34a3.58,3.58,0,0,0-2.49-1.07c-1.63,0-2.93,1.58-2.93,3.9s1,3.91,2.8,3.91A3.5,3.5,0,0,0,38.32,579.78Z" transform="translate(0 -2.47)"/><path class="cls-2" d="M43.18,569a1.2,1.2,0,1,1,1.2,1.11A1.12,1.12,0,0,1,43.18,569Zm.32,3.21h1.73v10.21H43.5Z" transform="translate(0 -2.47)"/><path class="cls-2" d="M47.2,572.17H49l1.93,5.8c.3,1,.63,2,.94,3h.08c.31-1,.64-2,.94-3l1.93-5.8h1.69l-3.6,10.21h-2Z" transform="translate(0 -2.47)"/><path class="cls-2" d="M62.36,569a1.19,1.19,0,1,1,1.19,1.11A1.11,1.11,0,0,1,62.36,569Zm.31,3.21H64.4v10.21H62.67Z" transform="translate(0 -2.47)"/><path class="cls-2" d="M67.11,577.29c0-3.31,2.09-5.37,4.42-5.37a4.23,4.23,0,0,1,2.86,1.18l-.08-1.75v-3.93H76v15H74.61l-.14-1.21h-.06a4.48,4.48,0,0,1-3.1,1.46C68.76,582.63,67.11,580.69,67.11,577.29Zm7.2,2.49v-5.34a3.58,3.58,0,0,0-2.49-1.07c-1.63,0-2.92,1.58-2.92,3.9s1,3.91,2.8,3.91A3.49,3.49,0,0,0,74.31,579.78Z" transform="translate(0 -2.47)"/><path class="cls-2" d="M78.48,572.55h9v1.29h-9Zm0,4.5h9v1.3h-9Z" transform="translate(0 -2.47)"/><path class="cls-2" d="M89.52,572.52a2.91,2.91,0,0,0,1.59-2.63l-.24-1.39.87,1.07a1.07,1.07,0,0,1-.81.36,1.06,1.06,0,0,1-1.12-1.06,1.08,1.08,0,0,1,1.12-1.16c.83,0,1.32.68,1.32,1.9A4.07,4.07,0,0,1,90,573.34Zm3.71,0a2.91,2.91,0,0,0,1.59-2.63l-.25-1.39.88,1.07a1.07,1.07,0,0,1-.81.36,1,1,0,0,1-1.12-1.06,1.08,1.08,0,0,1,1.12-1.16c.83,0,1.32.68,1.32,1.9a4.07,4.07,0,0,1-2.24,3.73Z" transform="translate(0 -2.47)"/><path class="cls-2" d="M97.48,572.27l1.46-.1h3.82v1.41H97.48Zm1.39-1.71c0-2.07.94-3.39,3-3.39a4.38,4.38,0,0,1,1.69.35l-.36,1.32a2.83,2.83,0,0,0-1.16-.27c-1,0-1.44.68-1.44,2v11.81H98.87Z" transform="translate(0 -2.47)"/><path class="cls-2" d="M103.75,577.29c0-3.41,2.22-5.37,4.73-5.37s4.72,2,4.72,5.37-2.22,5.34-4.72,5.34S103.75,580.67,103.75,577.29Zm7.67,0c0-2.34-1.19-3.93-2.94-3.93s-3,1.59-3,3.93,1.19,3.9,3,3.9S111.42,579.63,111.42,577.29Z" transform="translate(0 -2.47)"/><path class="cls-2" d="M115.13,577.29c0-3.41,2.23-5.37,4.73-5.37s4.73,2,4.73,5.37-2.23,5.34-4.73,5.34S115.13,580.67,115.13,577.29Zm7.67,0c0-2.34-1.19-3.93-2.94-3.93s-3,1.59-3,3.93,1.19,3.9,3,3.9S122.8,579.63,122.8,577.29Z" transform="translate(0 -2.47)"/><path class="cls-2" d="M127.11,579.22v-5.64h-1.52v-1.31l1.6-.1.2-2.86h1.45v2.86h2.76v1.41h-2.76v5.67c0,1.25.4,2,1.57,2a3.38,3.38,0,0,0,1.17-.27l.33,1.3a6,6,0,0,1-1.89.38C127.84,582.63,127.11,581.25,127.11,579.22Z" transform="translate(0 -2.47)"/><path class="cls-2" d="M132.81,577.29c0-3.32,2.24-5.37,4.59-5.37,2.6,0,4.07,1.87,4.07,4.79a5.46,5.46,0,0,1-.08,1h-6.87c.12,2.16,1.44,3.56,3.39,3.56a4.46,4.46,0,0,0,2.54-.81l.62,1.13a6,6,0,0,1-3.37,1.06C135,582.63,132.81,580.64,132.81,577.29Zm7.13-.84c0-2-.92-3.15-2.51-3.15-1.44,0-2.72,1.15-2.93,3.15Z" transform="translate(0 -2.47)"/><path class="cls-2" d="M144,572.17h1.43l.15,1.86h.05a3.53,3.53,0,0,1,2.91-2.11,2.44,2.44,0,0,1,1.09.21l-.33,1.52a2.64,2.64,0,0,0-1-.17c-.86,0-1.89.62-2.58,2.34v6.56H144Z" transform="translate(0 -2.47)"/><path class="cls-2" d="M151,572.52a2.91,2.91,0,0,0,1.59-2.63l-.25-1.39.87,1.07a1.1,1.1,0,0,1-1.92-.7,1.07,1.07,0,0,1,1.12-1.16c.83,0,1.32.68,1.32,1.9a4.09,4.09,0,0,1-2.24,3.73Zm3.7,0a2.91,2.91,0,0,0,1.6-2.63L156,568.5l.87,1.07a1.07,1.07,0,0,1-.81.36,1,1,0,0,1-1.11-1.06,1.07,1.07,0,0,1,1.11-1.16c.84,0,1.33.68,1.33,1.9a4.09,4.09,0,0,1-2.24,3.73Z" transform="translate(0 -2.47)"/><path class="cls-2" d="M159.29,578.13l4.44-1.64,2.8-1v-.08l-2.8-1-4.44-1.63v-1.51l9,3.54v1.37l-9,3.55Z" transform="translate(0 -2.47)"/><path class="cls-2" d="M329.51,197.48v-1.37l9-3.54v1.5l-4.43,1.64-2.81,1v.09l2.81,1,4.43,1.64V201Z" transform="translate(0 -2.47)"/><path class="cls-2" d="M340.22,198.68c0-3.31,2.09-5.37,4.42-5.37a4.15,4.15,0,0,1,2.86,1.18l-.07-1.75v-3.93h1.72v15h-1.42l-.15-1.21h-.06a4.48,4.48,0,0,1-3.09,1.46C341.88,204,340.22,202.08,340.22,198.68Zm7.21,2.49v-5.35a3.62,3.62,0,0,0-2.49-1.06c-1.63,0-2.93,1.58-2.93,3.9s1,3.91,2.8,3.91A3.53,3.53,0,0,0,347.43,201.17Z" transform="translate(0 -2.47)"/><path class="cls-2" d="M352.29,190.35a1.2,1.2,0,0,1,2.39,0,1.2,1.2,0,0,1-2.39,0Zm.32,3.21h1.72v10.21h-1.72Z" transform="translate(0 -2.47)"/><path class="cls-2" d="M356.3,193.56h1.78l1.93,5.8c.31,1,.64,2,.94,3H361c.3-1,.63-2,.94-3l1.93-5.8h1.69L362,203.77h-2Z" transform="translate(0 -2.47)"/><path class="cls-2" d="M371.46,190.35a1.2,1.2,0,0,1,2.39,0,1.2,1.2,0,0,1-2.39,0Zm.32,3.21h1.73v10.21h-1.73Z" transform="translate(0 -2.47)"/><path class="cls-2" d="M376.22,198.68c0-3.31,2.09-5.37,4.41-5.37a4.15,4.15,0,0,1,2.86,1.18l-.07-1.75v-3.93h1.73v15h-1.43l-.15-1.21h-.05a4.5,4.5,0,0,1-3.1,1.46C377.87,204,376.22,202.08,376.22,198.68Zm7.2,2.49v-5.35a3.62,3.62,0,0,0-2.49-1.06c-1.63,0-2.93,1.58-2.93,3.9s1,3.91,2.8,3.91A3.51,3.51,0,0,0,383.42,201.17Z" transform="translate(0 -2.47)"/><path class="cls-2" d="M387.59,193.93h9v1.3h-9Zm0,4.51h9v1.3h-9Z" transform="translate(0 -2.47)"/><path class="cls-2" d="M330.11,219.11a2.91,2.91,0,0,0,1.59-2.63l-.25-1.39.87,1.07a1.1,1.1,0,0,1-1.92-.7,1.07,1.07,0,0,1,1.12-1.16c.83,0,1.32.68,1.32,1.9a4.07,4.07,0,0,1-2.24,3.72Zm3.7,0a2.91,2.91,0,0,0,1.6-2.63l-.25-1.39.87,1.07a1.07,1.07,0,0,1-.81.36,1,1,0,0,1-1.11-1.06,1.07,1.07,0,0,1,1.11-1.16c.84,0,1.33.68,1.33,1.9a4.07,4.07,0,0,1-2.24,3.72Z" transform="translate(0 -2.47)"/><path class="cls-2" d="M337.45,227.8l.85-1.14a4.58,4.58,0,0,0,3,1.21c1.34,0,2-.71,2-1.58,0-1-1.21-1.52-2.34-1.94-1.43-.52-3-1.22-3-2.94s1.31-2.9,3.52-2.9a5.14,5.14,0,0,1,3.17,1.15l-.82,1.1a3.87,3.87,0,0,0-2.33-.91c-1.29,0-1.88.69-1.88,1.47,0,1,1.11,1.34,2.27,1.77,1.47.55,3.11,1.15,3.11,3.09,0,1.66-1.32,3-3.73,3A6.12,6.12,0,0,1,337.45,227.8Z" transform="translate(0 -2.47)"/><path class="cls-2" d="M347.06,215.55a1.2,1.2,0,0,1,2.39,0,1.2,1.2,0,0,1-2.39,0Zm.32,3.21h1.72V229h-1.72Z" transform="translate(0 -2.47)"/><path class="cls-2" d="M351.82,223.88c0-3.31,2.08-5.37,4.41-5.37a4.19,4.19,0,0,1,2.86,1.18l-.07-1.75V214h1.73v15h-1.43l-.15-1.21h-.05a4.52,4.52,0,0,1-3.1,1.46C353.47,229.22,351.82,227.28,351.82,223.88Zm7.2,2.49V221a3.62,3.62,0,0,0-2.49-1.06c-1.63,0-2.93,1.58-2.93,3.9s1,3.91,2.8,3.91A3.51,3.51,0,0,0,359,226.37Z" transform="translate(0 -2.47)"/><path class="cls-2" d="M363.44,223.88c0-3.32,2.24-5.37,4.59-5.37,2.6,0,4.07,1.87,4.07,4.79a5.46,5.46,0,0,1-.08,1h-6.87c.12,2.16,1.44,3.56,3.39,3.56a4.46,4.46,0,0,0,2.54-.81l.62,1.13a6,6,0,0,1-3.37,1.06C365.61,229.22,363.44,227.23,363.44,223.88Zm7.13-.84c0-2-.92-3.16-2.51-3.16s-2.72,1.16-2.93,3.16Z" transform="translate(0 -2.47)"/><path class="cls-2" d="M374,219.11a2.91,2.91,0,0,0,1.59-2.63l-.25-1.39.87,1.07a1.1,1.1,0,0,1-1.92-.7,1.07,1.07,0,0,1,1.11-1.16c.84,0,1.33.68,1.33,1.9a4.07,4.07,0,0,1-2.24,3.72Zm3.7,0a2.9,2.9,0,0,0,1.59-2.63l-.24-1.39.87,1.07a1.07,1.07,0,0,1-.81.36,1,1,0,0,1-1.11-1.06,1.07,1.07,0,0,1,1.11-1.16c.83,0,1.32.68,1.32,1.9a4,4,0,0,1-2.24,3.72Z" transform="translate(0 -2.47)"/><path class="cls-2" d="M382.34,224.72l4.44-1.64,2.8-1V222l-2.8-1-4.44-1.64v-1.5l9,3.54v1.37l-9,3.54Z" transform="translate(0 -2.47)"/></g></g></svg>