<svg xmlns="http://www.w3.org/2000/svg" viewBox="0 0 469.95 628.09"><defs><style>.cls-1,.cls-2,.cls-3,.cls-4{fill:none;stroke-miterlimit:10;stroke-width:2px;}.cls-1{stroke:#909090;}.cls-2{stroke:#83adb2;}.cls-3{stroke:#ad8288;}.cls-4{stroke:#505150;}.cls-5{fill:#707071;}.cls-6{fill:#83adb2;}.cls-7{fill:#ad8288;}.cls-8{fill:#505150;}</style></defs><g id="Layer_2" data-name="Layer 2"><g id="Layer_1-2" data-name="Layer 1"><rect class="cls-1" x="1" y="25.81" width="467.95" height="601.28" rx="6.5"/><rect class="cls-2" x="13.79" y="40.51" width="442.38" height="112.65" rx="7.06"/><rect class="cls-2" x="13.79" y="559.62" width="442.38" height="52.59" rx="7.06"/><rect class="cls-2" x="13.79" y="175.09" width="286.32" height="361.43" rx="7.06"/><rect class="cls-3" x="27.31" y="234.56" width="258.78" height="178.04" rx="7.06"/><rect class="cls-3" x="331.93" y="384.06" width="110.92" height="136.91" rx="7.06"/><rect class="cls-3" x="27.31" y="432.94" width="258.78" height="77.84" rx="7.06"/><rect class="cls-4" x="42.39" y="290.31" width="229.54" height="97.76" rx="7.06"/><rect class="cls-2" x="317.83" y="175.09" width="138.33" height="361.43" rx="7.06"/><rect class="cls-3" x="26.11" y="87.83" width="417.73" height="49.32" rx="7.02"/><path class="cls-5" d="M2.28,11.15V9.77l9-3.54V7.74L6.86,9.37,4.05,10.42v.08l2.81,1.05,4.43,1.63v1.51Z" transform="translate(0 -2.47)"/><path class="cls-5" d="M15.33,16.38h-.06l-.16,1.05H13.73v-15h1.73V6.56L15.4,8.39A5.18,5.18,0,0,1,18.6,7c2.64,0,4.06,2.05,4.06,5.19,0,3.49-2.09,5.52-4.42,5.52A4.58,4.58,0,0,1,15.33,16.38Zm5.55-4.19c0-2.25-.77-3.76-2.7-3.76a4.11,4.11,0,0,0-2.72,1.39v5.35a4,4,0,0,0,2.48,1.06C19.63,16.23,20.88,14.71,20.88,12.19Z" transform="translate(0 -2.47)"/><path class="cls-5" d="M24.58,12.34C24.58,8.93,26.81,7,29.31,7S34,8.93,34,12.34s-2.23,5.34-4.73,5.34S24.58,15.72,24.58,12.34Zm7.68,0c0-2.34-1.19-3.93-2.95-3.93S26.37,10,26.37,12.34s1.19,3.9,2.94,3.9S32.26,14.68,32.26,12.34Z" transform="translate(0 -2.47)"/><path class="cls-5" d="M36,12.34C36,9,38.08,7,40.41,7a4.19,4.19,0,0,1,2.86,1.18L43.2,6.4V2.47h1.73v15H43.5l-.15-1.2H43.3a4.54,4.54,0,0,1-3.1,1.45C37.65,17.68,36,15.74,36,12.34Zm7.2,2.5V9.49a3.58,3.58,0,0,0-2.49-1.06c-1.63,0-2.93,1.57-2.93,3.89s1,3.91,2.8,3.91A3.53,3.53,0,0,0,43.2,14.84Z" transform="translate(0 -2.47)"/><path class="cls-5" d="M47.35,21.62l.34-1.38a2.63,2.63,0,0,0,.78.16c1.15,0,1.88-.93,2.3-2.2l.23-.75L46.91,7.22h1.78l2.08,5.65c.32.89.66,1.94,1,2.88h.08c.29-.93.58-2,.86-2.88l1.82-5.65h1.69L52.37,18.27c-.72,2-1.77,3.56-3.82,3.56A3.48,3.48,0,0,1,47.35,21.62Z" transform="translate(0 -2.47)"/><path class="cls-5" d="M57.18,13.18l4.43-1.63,2.81-1.05v-.08L61.61,9.37,57.18,7.74V6.23l9,3.54v1.38l-9,3.54Z" transform="translate(0 -2.47)"/><path class="cls-6" d="M29.21,60.86V59.49l9-3.54v1.51l-4.44,1.63-2.8,1v.08l2.8,1.05,4.44,1.63v1.51Z" transform="translate(0 -2.47)"/><path class="cls-6" d="M40.65,52.19h1.73v4.09l-.06,2.1a4.86,4.86,0,0,1,3.39-1.69c2.15,0,3.11,1.39,3.11,4v6.47H47.1V60.9c0-1.9-.58-2.71-1.93-2.71-1,0-1.77.53-2.79,1.57v7.39H40.65Z" transform="translate(0 -2.47)"/><path class="cls-6" d="M51.32,62.06c0-3.32,2.24-5.37,4.59-5.37,2.6,0,4.07,1.87,4.07,4.79a5.46,5.46,0,0,1-.08,1H53c.13,2.16,1.45,3.56,3.4,3.56A4.49,4.49,0,0,0,59,65.21l.61,1.13A6,6,0,0,1,56.2,67.4C53.48,67.4,51.32,65.41,51.32,62.06Zm7.13-.84c0-2-.92-3.15-2.51-3.15-1.44,0-2.72,1.15-2.93,3.15Z" transform="translate(0 -2.47)"/><path class="cls-6" d="M61.57,64.5c0-2.22,1.91-3.34,6.26-3.81,0-1.31-.44-2.58-2.1-2.58a5.61,5.61,0,0,0-3.05,1.1L62,58a7.54,7.54,0,0,1,4-1.33c2.49,0,3.54,1.66,3.54,4.2v6.26H68.13L68,65.93h-.06a5.41,5.41,0,0,1-3.37,1.47A2.77,2.77,0,0,1,61.57,64.5Zm6.26.16V61.82c-3.42.41-4.57,1.25-4.57,2.56S64,66,65.05,66A4.18,4.18,0,0,0,67.83,64.66Z" transform="translate(0 -2.47)"/><path class="cls-6" d="M72.05,62.06c0-3.31,2.09-5.37,4.42-5.37a4.21,4.21,0,0,1,2.86,1.18l-.07-1.75V52.19H81v15H79.56l-.15-1.21h-.06a4.48,4.48,0,0,1-3.09,1.46C73.71,67.4,72.05,65.46,72.05,62.06Zm7.21,2.49V59.21a3.6,3.6,0,0,0-2.49-1.07c-1.63,0-2.93,1.58-2.93,3.9s1,3.91,2.8,3.91A3.53,3.53,0,0,0,79.26,64.55Z" transform="translate(0 -2.47)"/><path class="cls-6" d="M83.68,62.06c0-3.32,2.24-5.37,4.59-5.37,2.6,0,4.07,1.87,4.07,4.79a5.46,5.46,0,0,1-.08,1H85.39c.12,2.16,1.44,3.56,3.39,3.56a4.46,4.46,0,0,0,2.54-.81l.61,1.13a6,6,0,0,1-3.37,1.06C85.84,67.4,83.68,65.41,83.68,62.06Zm7.13-.84c0-2-.92-3.15-2.51-3.15-1.44,0-2.72,1.15-2.93,3.15Z" transform="translate(0 -2.47)"/><path class="cls-6" d="M94.85,56.94h1.43l.15,1.86h0a3.53,3.53,0,0,1,2.9-2.11,2.38,2.38,0,0,1,1.09.21l-.32,1.52a2.64,2.64,0,0,0-1-.17c-.86,0-1.89.62-2.58,2.34v6.56H94.85Z" transform="translate(0 -2.47)"/><path class="cls-6" d="M101.13,62.9l4.44-1.63,2.8-1.05v-.08l-2.8-1-4.44-1.63V56l9,3.54v1.37l-9,3.55Z" transform="translate(0 -2.47)"/><path class="cls-7" d="M40.1,108.15v-1.37l9-3.54v1.5l-4.43,1.64-2.81,1v.09l2.81,1,4.43,1.63v1.51Z" transform="translate(0 -2.47)"/><path class="cls-7" d="M51.55,104.23H53l.14,1.47h.06A4.85,4.85,0,0,1,56.6,104c2.15,0,3.12,1.38,3.12,4v6.46H58v-6.24c0-1.9-.57-2.71-1.92-2.71-1,0-1.77.53-2.79,1.56v7.39H51.55Z" transform="translate(0 -2.47)"/><path class="cls-7" d="M62.4,111.78c0-2.22,1.92-3.33,6.27-3.8,0-1.32-.44-2.58-2.1-2.58a5.69,5.69,0,0,0-3,1.09l-.67-1.18a7.42,7.42,0,0,1,4-1.33c2.5,0,3.55,1.65,3.55,4.19v6.26H69l-.14-1.22h-.06a5.42,5.42,0,0,1-3.38,1.48A2.78,2.78,0,0,1,62.4,111.78Zm6.27.16v-2.83c-3.42.41-4.57,1.25-4.57,2.55s.78,1.63,1.78,1.63A4.2,4.2,0,0,0,68.67,111.94Z" transform="translate(0 -2.47)"/><path class="cls-7" d="M72.15,104.23h1.78l1.93,5.8c.31,1,.64,2,.94,3h.09c.3-1,.63-2,.94-3l1.93-5.8h1.69l-3.61,10.2h-2Z" transform="translate(0 -2.47)"/><path class="cls-7" d="M82.42,110.18l4.43-1.63,2.81-1v-.09l-2.81-1-4.43-1.64v-1.5l9,3.54v1.37l-9,3.54Z" transform="translate(0 -2.47)"/><path class="cls-6" d="M29.21,195.48v-1.37l9-3.54v1.5l-4.44,1.64-2.8,1v.09l2.8,1,4.44,1.64V199Z" transform="translate(0 -2.47)"/><path class="cls-6" d="M40.65,191.56h1.43l.14,1.48h.06a4.53,4.53,0,0,1,3.18-1.73,2.7,2.7,0,0,1,2.82,1.94c1.06-1.15,2.12-1.94,3.36-1.94,2.1,0,3.11,1.38,3.11,4v6.47H53v-6.25c0-1.9-.6-2.71-1.9-2.71a3.74,3.74,0,0,0-2.56,1.56v7.4H46.84v-6.25c0-1.9-.61-2.71-1.9-2.71a3.76,3.76,0,0,0-2.56,1.56v7.4H40.65Z" transform="translate(0 -2.47)"/><path class="cls-6" d="M57.43,199.12c0-2.23,1.92-3.34,6.27-3.81,0-1.32-.44-2.58-2.11-2.58a5.65,5.65,0,0,0-3,1.09l-.68-1.18a7.46,7.46,0,0,1,4-1.33c2.49,0,3.54,1.65,3.54,4.19v6.27H64l-.15-1.23h-.06A5.4,5.4,0,0,1,60.42,202,2.77,2.77,0,0,1,57.43,199.12Zm6.27.15v-2.83c-3.42.41-4.58,1.25-4.58,2.55a1.57,1.57,0,0,0,1.79,1.64A4.2,4.2,0,0,0,63.7,199.27Z" transform="translate(0 -2.47)"/><path class="cls-6" d="M68.33,188.35a1.19,1.19,0,1,1,1.19,1.11A1.11,1.11,0,0,1,68.33,188.35Zm.31,3.21h1.73v10.21H68.64Z" transform="translate(0 -2.47)"/><path class="cls-6" d="M73.81,191.56h1.43l.14,1.47h.06a4.85,4.85,0,0,1,3.42-1.72c2.15,0,3.12,1.38,3.12,4v6.47H80.25v-6.25c0-1.9-.57-2.71-1.92-2.71-1,0-1.77.53-2.79,1.56v7.4H73.81Z" transform="translate(0 -2.47)"/><path class="cls-6" d="M84.29,197.52l4.44-1.64,2.8-1v-.09l-2.8-1-4.44-1.64v-1.5l9,3.54v1.37l-9,3.54Z" transform="translate(0 -2.47)"/><path class="cls-8" d="M53.6,309.42v-1.37l9-3.55V306l-4.44,1.64-2.8,1v.08l2.8,1.05,4.44,1.63V313Z" transform="translate(0 -2.47)"/><path class="cls-8" d="M64.41,313.05c0-2.22,1.92-3.33,6.27-3.8,0-1.32-.44-2.58-2.1-2.58a5.66,5.66,0,0,0-3,1.09l-.67-1.18a7.45,7.45,0,0,1,4-1.33c2.5,0,3.55,1.65,3.55,4.19v6.26H71l-.14-1.22h-.06A5.42,5.42,0,0,1,67.4,316,2.79,2.79,0,0,1,64.41,313.05Zm6.27.16v-2.83c-3.42.41-4.57,1.25-4.57,2.55s.78,1.63,1.78,1.63A4.2,4.2,0,0,0,70.68,313.21Z" transform="translate(0 -2.47)"/><path class="cls-8" d="M75.63,305.5h1.43l.14,1.86h.06a3.5,3.5,0,0,1,2.9-2.11,2.29,2.29,0,0,1,1.09.21L80.93,307a2.86,2.86,0,0,0-1-.17c-.86,0-1.89.62-2.58,2.35v6.55H75.63Z" transform="translate(0 -2.47)"/><path class="cls-8" d="M83.22,312.55V306.9H81.7v-1.3l1.6-.1.2-2.87H85v2.87h2.76v1.4H85v5.68c0,1.25.4,2,1.57,2a3.34,3.34,0,0,0,1.17-.28l.33,1.31a6.29,6.29,0,0,1-1.89.38C84,316,83.22,314.58,83.22,312.55Z" transform="translate(0 -2.47)"/><path class="cls-8" d="M89.7,302.28a1.19,1.19,0,0,1,2.38,0,1.19,1.19,0,0,1-2.38,0ZM90,305.5h1.73v10.2H90Z" transform="translate(0 -2.47)"/><path class="cls-8" d="M94.42,310.61c0-3.4,2.3-5.36,4.91-5.36a4.32,4.32,0,0,1,3,1.19l-.89,1.14a3,3,0,0,0-2-.9c-1.85,0-3.2,1.59-3.2,3.93s1.28,3.91,3.15,3.91a3.7,3.7,0,0,0,2.4-1l.75,1.16a5,5,0,0,1-3.3,1.3C96.49,316,94.42,314,94.42,310.61Z" transform="translate(0 -2.47)"/><path class="cls-8" d="M104.76,313.65V300.74h1.72v13c0,.53.23.74.49.74a1.53,1.53,0,0,0,.37,0l.24,1.31a2.74,2.74,0,0,1-1,.17C105.29,316,104.76,315.13,104.76,313.65Z" transform="translate(0 -2.47)"/><path class="cls-8" d="M109.35,310.61c0-3.32,2.24-5.36,4.59-5.36,2.6,0,4.07,1.86,4.07,4.78a5.58,5.58,0,0,1-.08,1h-6.87c.12,2.16,1.45,3.56,3.39,3.56a4.47,4.47,0,0,0,2.54-.82l.62,1.14a6,6,0,0,1-3.37,1.06C111.52,316,109.35,314,109.35,310.61Zm7.14-.83c0-2-.92-3.16-2.52-3.16-1.43,0-2.71,1.15-2.92,3.16Z" transform="translate(0 -2.47)"/><path class="cls-8" d="M119.52,311.45l4.44-1.63,2.8-1.05v-.08l-2.8-1L119.52,306V304.5l9,3.55v1.37l-9,3.54Z" transform="translate(0 -2.47)"/><rect class="cls-4" x="342.08" y="420.09" width="91.18" height="87.34" rx="7.06"/><path class="cls-8" d="M350.29,438.2v-1.37l9-3.54v1.5l-4.43,1.64-2.8,1v.09l2.8,1,4.43,1.64v1.5Z" transform="translate(0 -2.47)"/><path class="cls-8" d="M361.41,431.06a1.2,1.2,0,1,1,1.2,1.12A1.13,1.13,0,0,1,361.41,431.06Zm.32,3.22h1.73v10.2h-1.73Z" transform="translate(0 -2.47)"/><path class="cls-8" d="M366.9,434.28h1.42l.15,1.48h.06A4.51,4.51,0,0,1,371.7,434a2.69,2.69,0,0,1,2.82,1.94,4.8,4.8,0,0,1,3.37-1.94c2.09,0,3.1,1.38,3.1,4v6.46h-1.73v-6.24c0-1.9-.6-2.71-1.89-2.71a3.7,3.7,0,0,0-2.56,1.56v7.39h-1.73v-6.24c0-1.9-.6-2.71-1.9-2.71a3.8,3.8,0,0,0-2.56,1.56v7.39H366.9Z" transform="translate(0 -2.47)"/><path class="cls-8" d="M383.53,446.45a2.86,2.86,0,0,1,1.5-2.31v-.09a1.88,1.88,0,0,1-.91-1.67,2.42,2.42,0,0,1,1.12-1.89v-.09a3.53,3.53,0,0,1-1.32-2.74,3.62,3.62,0,0,1,3.83-3.63,4.18,4.18,0,0,1,1.44.25h3.56v1.33h-2.1a3,3,0,0,1,.83,2.1,3.68,3.68,0,0,1-5.25,3.19,1.5,1.5,0,0,0-.65,1.21c0,.65.42,1.11,1.78,1.11h2c2.37,0,3.57.74,3.57,2.43,0,1.9-2,3.53-5.16,3.53C385.26,449.18,383.53,448.2,383.53,446.45Zm7.69-.54c0-.94-.71-1.27-2.05-1.27h-1.76a5.83,5.83,0,0,1-1.33-.15,2.13,2.13,0,0,0-1,1.71c0,1.1,1.1,1.79,3,1.79S391.22,447,391.22,445.91Zm-1.3-8.25a2.18,2.18,0,1,0-4.34,0,2.18,2.18,0,1,0,4.34,0Z" transform="translate(0 -2.47)"/><path class="cls-8" d="M393.88,440.24l4.44-1.64,2.8-1v-.09l-2.8-1-4.44-1.64v-1.5l9,3.54v1.37l-9,3.54Z" transform="translate(0 -2.47)"/><path class="cls-7" d="M338.54,400.89v-1.38l9-3.54v1.51l-4.44,1.63-2.8,1.05v.08l2.8,1.05,4.44,1.63v1.51Z" transform="translate(0 -2.47)"/><path class="cls-7" d="M348.88,397.06l1.47-.1h3.81v1.41h-5.28Zm1.39-1.71c0-2.07.94-3.39,3-3.39a4.57,4.57,0,0,1,1.69.35l-.36,1.32a2.78,2.78,0,0,0-1.16-.26c-1,0-1.43.67-1.43,2v11.81h-1.73Z" transform="translate(0 -2.47)"/><path class="cls-7" d="M355.8,393.75a1.2,1.2,0,0,1,2.39,0,1.2,1.2,0,0,1-2.39,0Zm.32,3.21h1.72v10.21h-1.72Z" transform="translate(0 -2.47)"/><path class="cls-7" d="M360.51,409.13a2.88,2.88,0,0,1,1.5-2.31v-.08a1.9,1.9,0,0,1-.92-1.67,2.45,2.45,0,0,1,1.13-1.9v-.08a3.55,3.55,0,0,1-1.33-2.74,3.63,3.63,0,0,1,3.83-3.64,4.18,4.18,0,0,1,1.44.25h3.56v1.33h-2.09a3,3,0,0,1,.83,2.1,3.49,3.49,0,0,1-3.74,3.54,3.7,3.7,0,0,1-1.52-.34,1.48,1.48,0,0,0-.65,1.2c0,.65.42,1.11,1.79,1.11h2c2.37,0,3.56.75,3.56,2.44,0,1.89-2,3.53-5.16,3.53C362.23,411.87,360.51,410.89,360.51,409.13Zm7.69-.53c0-1-.72-1.27-2.06-1.27h-1.76a5.75,5.75,0,0,1-1.32-.15,2.12,2.12,0,0,0-1.05,1.71c0,1.09,1.11,1.79,3,1.79S368.2,409.66,368.2,408.6Zm-1.31-8.25a2.18,2.18,0,1,0-4.34,0,2.18,2.18,0,1,0,4.34,0Z" transform="translate(0 -2.47)"/><path class="cls-7" d="M371.73,403.43V397h1.73v6.25c0,1.9.57,2.71,1.92,2.71,1.05,0,1.77-.52,2.73-1.72V397h1.73v10.21h-1.43l-.14-1.6h-.06a4.3,4.3,0,0,1-3.36,1.85C372.7,407.42,371.73,406,371.73,403.43Z" transform="translate(0 -2.47)"/><path class="cls-7" d="M383.29,397h1.43l.14,1.86h.06a3.52,3.52,0,0,1,2.9-2.11,2.41,2.41,0,0,1,1.09.21l-.32,1.52a2.86,2.86,0,0,0-1-.17c-.86,0-1.89.62-2.58,2.35v6.55h-1.73Z" transform="translate(0 -2.47)"/><path class="cls-7" d="M389.61,402.08c0-3.32,2.24-5.37,4.59-5.37,2.6,0,4.07,1.87,4.07,4.79a5.38,5.38,0,0,1-.08,1h-6.87c.12,2.16,1.44,3.57,3.39,3.57a4.47,4.47,0,0,0,2.54-.82l.62,1.13a6,6,0,0,1-3.38,1.06C391.77,407.42,389.61,405.43,389.61,402.08Zm7.13-.83c0-2.05-.92-3.16-2.51-3.16s-2.72,1.15-2.93,3.16Z" transform="translate(0 -2.47)"/><path class="cls-7" d="M399.77,402.92l4.44-1.63,2.8-1.05v-.08l-2.8-1.05-4.44-1.63V396l9,3.54v1.38l-9,3.54Z" transform="translate(0 -2.47)"/><path class="cls-7" d="M38.76,448.64v-1.38l9-3.54v1.51l-4.44,1.63-2.8,1.05V448l2.8,1.05,4.44,1.63v1.51Z" transform="translate(0 -2.47)"/><path class="cls-7" d="M49.08,453.76l.85-1.14a4.61,4.61,0,0,0,3,1.21c1.34,0,2-.72,2-1.59,0-1.05-1.21-1.51-2.34-1.93-1.43-.52-3-1.23-3-2.95s1.31-2.9,3.52-2.9a5.14,5.14,0,0,1,3.17,1.15l-.82,1.11a3.87,3.87,0,0,0-2.33-.91c-1.29,0-1.88.68-1.88,1.46,0,1,1.11,1.34,2.27,1.77,1.47.56,3.11,1.16,3.11,3.1,0,1.65-1.32,3-3.73,3A6.12,6.12,0,0,1,49.08,453.76Z" transform="translate(0 -2.47)"/><path class="cls-7" d="M58.25,449.83c0-3.32,2.24-5.37,4.59-5.37,2.6,0,4.07,1.87,4.07,4.79a5.38,5.38,0,0,1-.08,1H60c.12,2.17,1.44,3.57,3.39,3.57a4.47,4.47,0,0,0,2.54-.82l.62,1.13a6,6,0,0,1-3.37,1.06C60.41,455.17,58.25,453.18,58.25,449.83Zm7.13-.83c0-2.05-.92-3.16-2.51-3.16S60.15,447,59.94,449Z" transform="translate(0 -2.47)"/><path class="cls-7" d="M68.66,449.83c0-3.4,2.3-5.37,4.91-5.37a4.33,4.33,0,0,1,3,1.2l-.88,1.14a3,3,0,0,0-2-.9c-1.85,0-3.2,1.59-3.2,3.93s1.28,3.91,3.16,3.91a3.7,3.7,0,0,0,2.39-1l.75,1.16a5,5,0,0,1-3.3,1.29C70.73,455.17,68.66,453.21,68.66,449.83Z" transform="translate(0 -2.47)"/><path class="cls-7" d="M79.09,451.77v-5.65H77.57v-1.31l1.6-.09.21-2.87h1.44v2.87h2.76v1.4H80.82v5.68c0,1.24.4,2,1.58,2a3.34,3.34,0,0,0,1.16-.28l.33,1.31a6.22,6.22,0,0,1-1.89.37C79.83,455.17,79.09,453.8,79.09,451.77Z" transform="translate(0 -2.47)"/><path class="cls-7" d="M85.57,441.5a1.2,1.2,0,0,1,2.39,0,1.2,1.2,0,0,1-2.39,0Zm.32,3.22h1.72v10.2H85.89Z" transform="translate(0 -2.47)"/><path class="cls-7" d="M90.29,449.83c0-3.4,2.23-5.37,4.73-5.37s4.73,2,4.73,5.37-2.23,5.34-4.73,5.34S90.29,453.21,90.29,449.83Zm7.68,0c0-2.34-1.19-3.93-3-3.93s-2.94,1.59-2.94,3.93,1.19,3.91,2.94,3.91S98,452.17,98,449.83Z" transform="translate(0 -2.47)"/><path class="cls-7" d="M102.43,444.72h1.43l.15,1.47h0a4.9,4.9,0,0,1,3.43-1.73c2.15,0,3.11,1.39,3.11,4v6.47h-1.72v-6.24c0-1.9-.58-2.72-1.93-2.72-1,0-1.77.54-2.79,1.57v7.39h-1.73Z" transform="translate(0 -2.47)"/><path class="cls-7" d="M117.8,441.5a1.2,1.2,0,0,1,2.39,0,1.2,1.2,0,0,1-2.39,0Zm.32,3.22h1.73v10.2h-1.73Z" transform="translate(0 -2.47)"/><path class="cls-7" d="M122.56,449.83c0-3.31,2.09-5.37,4.41-5.37a4.2,4.2,0,0,1,2.87,1.19l-.08-1.75V440h1.73v15h-1.43l-.14-1.2h-.06a4.52,4.52,0,0,1-3.1,1.45C124.21,455.17,122.56,453.23,122.56,449.83Zm7.2,2.5V447a3.56,3.56,0,0,0-2.49-1.06c-1.63,0-2.93,1.57-2.93,3.9s1,3.9,2.8,3.9A3.52,3.52,0,0,0,129.76,452.33Z" transform="translate(0 -2.47)"/><path class="cls-7" d="M133.93,445.09h9v1.3h-9Zm0,4.51h9v1.3h-9Z" transform="translate(0 -2.47)"/><path class="cls-7" d="M145,445.07a2.94,2.94,0,0,0,1.59-2.64l-.24-1.39.87,1.07a1.08,1.08,0,0,1-.81.37,1.06,1.06,0,0,1-1.12-1.06,1.07,1.07,0,0,1,1.12-1.16c.83,0,1.32.68,1.32,1.89a4.06,4.06,0,0,1-2.24,3.73Zm3.71,0a2.94,2.94,0,0,0,1.59-2.64L150,441l.87,1.07a1.1,1.1,0,0,1-1.92-.69,1.07,1.07,0,0,1,1.12-1.16c.83,0,1.32.68,1.32,1.89a4.06,4.06,0,0,1-2.24,3.73Z" transform="translate(0 -2.47)"/><path class="cls-7" d="M152.16,453.76l.86-1.14a4.59,4.59,0,0,0,3,1.21c1.34,0,2-.72,2-1.59,0-1.05-1.2-1.51-2.33-1.93-1.43-.52-3-1.23-3-2.95s1.3-2.9,3.52-2.9a5.14,5.14,0,0,1,3.17,1.15l-.83,1.11a3.82,3.82,0,0,0-2.32-.91c-1.29,0-1.88.68-1.88,1.46,0,1,1.11,1.34,2.26,1.77,1.48.56,3.11,1.16,3.11,3.1,0,1.65-1.31,3-3.72,3A6.14,6.14,0,0,1,152.16,453.76Z" transform="translate(0 -2.47)"/><path class="cls-7" d="M161.34,449.83c0-3.32,2.23-5.37,4.58-5.37,2.61,0,4.08,1.87,4.08,4.79a5.38,5.38,0,0,1-.08,1H163c.13,2.17,1.45,3.57,3.39,3.57A4.45,4.45,0,0,0,169,453l.62,1.13a6,6,0,0,1-3.37,1.06C163.5,455.17,161.34,453.18,161.34,449.83Zm7.13-.83c0-2.05-.92-3.16-2.52-3.16-1.43,0-2.71,1.15-2.92,3.16Z" transform="translate(0 -2.47)"/><path class="cls-7" d="M171.75,449.83c0-3.4,2.3-5.37,4.91-5.37a4.33,4.33,0,0,1,3,1.2l-.89,1.14a3,3,0,0,0-2-.9c-1.85,0-3.2,1.59-3.2,3.93s1.28,3.91,3.15,3.91a3.7,3.7,0,0,0,2.4-1l.75,1.16a5,5,0,0,1-3.3,1.29C173.82,455.17,171.75,453.21,171.75,449.83Z" transform="translate(0 -2.47)"/><path class="cls-7" d="M182.18,451.77v-5.65h-1.52v-1.31l1.6-.09.2-2.87h1.45v2.87h2.76v1.4h-2.76v5.68c0,1.24.4,2,1.57,2a3.4,3.4,0,0,0,1.17-.28l.33,1.31a6.28,6.28,0,0,1-1.89.37C182.91,455.17,182.18,453.8,182.18,451.77Z" transform="translate(0 -2.47)"/><path class="cls-7" d="M188.66,441.5a1.19,1.19,0,0,1,2.38,0,1.19,1.19,0,0,1-2.38,0Zm.31,3.22h1.73v10.2H189Z" transform="translate(0 -2.47)"/><path class="cls-7" d="M193.38,449.83c0-3.4,2.23-5.37,4.73-5.37s4.73,2,4.73,5.37-2.23,5.34-4.73,5.34S193.38,453.21,193.38,449.83Zm7.68,0c0-2.34-1.19-3.93-2.95-3.93s-2.94,1.59-2.94,3.93,1.18,3.91,2.94,3.91S201.06,452.17,201.06,449.83Z" transform="translate(0 -2.47)"/><path class="cls-7" d="M205.52,444.72H207l.14,1.47h.06a4.86,4.86,0,0,1,3.42-1.73c2.15,0,3.12,1.39,3.12,4v6.47H212v-6.24c0-1.9-.57-2.72-1.92-2.72-1,0-1.77.54-2.79,1.57v7.39h-1.73Z" transform="translate(0 -2.47)"/><path class="cls-7" d="M216.16,449H221v1.33h-4.81Z" transform="translate(0 -2.47)"/><path class="cls-7" d="M223.3,451.77v-5.65h-1.52v-1.31l1.59-.09.21-2.87H225v2.87h2.77v1.4H225v5.68c0,1.24.41,2,1.58,2a3.34,3.34,0,0,0,1.16-.28l.34,1.31a6.35,6.35,0,0,1-1.9.37C224,455.17,223.3,453.8,223.3,451.77Z" transform="translate(0 -2.47)"/><path class="cls-7" d="M228.87,444.72h1.77l1.51,5.89c.22,1,.41,1.89.61,2.85h.08c.22-1,.44-1.89.7-2.85l1.57-5.89h1.69l1.59,5.89c.25,1,.47,1.89.71,2.85h.08c.22-1,.41-1.88.63-2.85l1.49-5.89H243l-2.74,10.2h-2.1l-1.47-5.48c-.25-1-.45-1.91-.7-2.94h-.08c-.22,1-.43,2-.7,3l-1.43,5.46h-2Z" transform="translate(0 -2.47)"/><path class="cls-7" d="M244.33,449.83c0-3.4,2.22-5.37,4.73-5.37s4.73,2,4.73,5.37-2.23,5.34-4.73,5.34S244.33,453.21,244.33,449.83Zm7.67,0c0-2.34-1.19-3.93-2.94-3.93s-2.95,1.59-2.95,3.93,1.19,3.91,2.95,3.91S252,452.17,252,449.83Z" transform="translate(0 -2.47)"/><path class="cls-7" d="M255.51,445.07a2.92,2.92,0,0,0,1.59-2.64l-.24-1.39.87,1.07a1.08,1.08,0,0,1-.81.37,1,1,0,0,1-1.11-1.06,1.06,1.06,0,0,1,1.11-1.16c.83,0,1.32.68,1.32,1.89a4.06,4.06,0,0,1-2.24,3.73Zm3.71,0a2.94,2.94,0,0,0,1.59-2.64l-.24-1.39.87,1.07a1.08,1.08,0,0,1-.81.37,1.06,1.06,0,0,1-1.12-1.06,1.07,1.07,0,0,1,1.12-1.16c.83,0,1.32.68,1.32,1.89a4.06,4.06,0,0,1-2.24,3.73Z" transform="translate(0 -2.47)"/><path class="cls-7" d="M263.86,450.67,268.3,449l2.8-1.05v-.08l-2.8-1.05-4.44-1.63v-1.51l9,3.54v1.38l-9,3.54Z" transform="translate(0 -2.47)"/><path class="cls-7" d="M39.76,252.14v-1.38l9-3.54v1.51l-4.44,1.63-2.8,1v.08l2.8,1,4.44,1.63v1.51Z" transform="translate(0 -2.47)"/><path class="cls-7" d="M50.08,257.26l.85-1.14a4.63,4.63,0,0,0,3,1.21c1.34,0,2-.72,2-1.59,0-1.05-1.21-1.51-2.34-1.93-1.43-.52-3-1.23-3-2.95s1.31-2.9,3.52-2.9a5.14,5.14,0,0,1,3.17,1.15l-.82,1.11a3.87,3.87,0,0,0-2.33-.91c-1.29,0-1.88.68-1.88,1.46,0,1,1.11,1.34,2.27,1.77,1.47.56,3.11,1.16,3.11,3.1,0,1.65-1.32,3-3.73,3A6.12,6.12,0,0,1,50.08,257.26Z" transform="translate(0 -2.47)"/><path class="cls-7" d="M59.25,253.33c0-3.32,2.24-5.37,4.59-5.37,2.6,0,4.07,1.87,4.07,4.79a5.38,5.38,0,0,1-.08,1H61c.12,2.17,1.44,3.57,3.39,3.57a4.47,4.47,0,0,0,2.54-.82l.62,1.13a6,6,0,0,1-3.37,1.06C61.41,258.67,59.25,256.68,59.25,253.33Zm7.13-.83c0-2.05-.92-3.16-2.51-3.16s-2.72,1.15-2.93,3.16Z" transform="translate(0 -2.47)"/><path class="cls-7" d="M69.66,253.33c0-3.4,2.31-5.37,4.91-5.37a4.33,4.33,0,0,1,3,1.2l-.88,1.14a3,3,0,0,0-2-.9c-1.85,0-3.2,1.59-3.2,3.93s1.28,3.91,3.16,3.91a3.67,3.67,0,0,0,2.39-1l.75,1.16a5,5,0,0,1-3.3,1.29C71.74,258.67,69.66,256.71,69.66,253.33Z" transform="translate(0 -2.47)"/><path class="cls-7" d="M80.09,255.27v-5.65H78.57v-1.31l1.6-.09.21-2.87h1.44v2.87h2.76v1.4H81.82v5.68c0,1.24.4,2,1.58,2a3.34,3.34,0,0,0,1.16-.28l.33,1.31a6.22,6.22,0,0,1-1.89.37C80.83,258.67,80.09,257.3,80.09,255.27Z" transform="translate(0 -2.47)"/><path class="cls-7" d="M86.57,245A1.2,1.2,0,0,1,89,245a1.2,1.2,0,0,1-2.39,0Zm.32,3.22h1.72v10.2H86.89Z" transform="translate(0 -2.47)"/><path class="cls-7" d="M91.29,253.33c0-3.4,2.23-5.37,4.73-5.37s4.73,2,4.73,5.37-2.22,5.34-4.73,5.34S91.29,256.71,91.29,253.33Zm7.68,0c0-2.34-1.19-3.93-3-3.93s-2.94,1.59-2.94,3.93,1.19,3.91,2.94,3.91S99,255.67,99,253.33Z" transform="translate(0 -2.47)"/><path class="cls-7" d="M103.43,248.22h1.43l.15,1.47h0a4.9,4.9,0,0,1,3.43-1.73c2.15,0,3.11,1.39,3.11,4v6.47h-1.72v-6.24c0-1.9-.58-2.72-1.93-2.72-1,0-1.77.54-2.79,1.57v7.39h-1.73Z" transform="translate(0 -2.47)"/><path class="cls-7" d="M118.81,245a1.19,1.19,0,0,1,2.38,0,1.19,1.19,0,0,1-2.38,0Zm.31,3.22h1.73v10.2h-1.73Z" transform="translate(0 -2.47)"/><path class="cls-7" d="M123.56,253.33c0-3.31,2.09-5.37,4.42-5.37a4.19,4.19,0,0,1,2.86,1.19l-.08-1.75v-3.94h1.73v15h-1.43l-.14-1.2h-.06a4.52,4.52,0,0,1-3.1,1.45C125.21,258.67,123.56,256.73,123.56,253.33Zm7.2,2.5v-5.35a3.56,3.56,0,0,0-2.49-1.06c-1.63,0-2.93,1.57-2.93,3.9s1,3.9,2.8,3.9A3.52,3.52,0,0,0,130.76,255.83Z" transform="translate(0 -2.47)"/><path class="cls-7" d="M134.93,248.59h9v1.3h-9Zm0,4.51h9v1.3h-9Z" transform="translate(0 -2.47)"/><path class="cls-7" d="M146,248.57a2.94,2.94,0,0,0,1.59-2.64l-.24-1.39.87,1.07a1.08,1.08,0,0,1-.81.37,1.06,1.06,0,0,1-1.12-1.06,1.08,1.08,0,0,1,1.12-1.17c.83,0,1.32.69,1.32,1.9a4.06,4.06,0,0,1-2.24,3.73Zm3.71,0a2.94,2.94,0,0,0,1.59-2.64l-.25-1.39.87,1.07a1.1,1.1,0,0,1-1.92-.69,1.07,1.07,0,0,1,1.12-1.17c.83,0,1.32.69,1.32,1.9a4.06,4.06,0,0,1-2.24,3.73Z" transform="translate(0 -2.47)"/><path class="cls-7" d="M153.16,257.26l.86-1.14a4.59,4.59,0,0,0,3,1.21c1.34,0,2-.72,2-1.59,0-1.05-1.2-1.51-2.33-1.93-1.43-.52-3-1.23-3-2.95s1.31-2.9,3.52-2.9a5.14,5.14,0,0,1,3.17,1.15l-.83,1.11a3.82,3.82,0,0,0-2.32-.91c-1.29,0-1.88.68-1.88,1.46,0,1,1.11,1.34,2.26,1.77,1.48.56,3.12,1.16,3.12,3.1,0,1.65-1.32,3-3.73,3A6.14,6.14,0,0,1,153.16,257.26Z" transform="translate(0 -2.47)"/><path class="cls-7" d="M162.34,253.33c0-3.32,2.24-5.37,4.58-5.37,2.61,0,4.08,1.87,4.08,4.79a5.38,5.38,0,0,1-.08,1H164c.13,2.17,1.45,3.57,3.39,3.57a4.45,4.45,0,0,0,2.54-.82l.62,1.13a6,6,0,0,1-3.37,1.06C164.5,258.67,162.34,256.68,162.34,253.33Zm7.13-.83c0-2.05-.92-3.16-2.51-3.16-1.44,0-2.72,1.15-2.93,3.16Z" transform="translate(0 -2.47)"/><path class="cls-7" d="M172.75,253.33c0-3.4,2.3-5.37,4.91-5.37a4.33,4.33,0,0,1,3,1.2l-.89,1.14a3,3,0,0,0-2-.9c-1.85,0-3.2,1.59-3.2,3.93s1.28,3.91,3.15,3.91a3.7,3.7,0,0,0,2.4-1l.75,1.16a5,5,0,0,1-3.3,1.29C174.82,258.67,172.75,256.71,172.75,253.33Z" transform="translate(0 -2.47)"/><path class="cls-7" d="M183.18,255.27v-5.65h-1.52v-1.31l1.6-.09.2-2.87h1.45v2.87h2.76v1.4h-2.76v5.68c0,1.24.4,2,1.57,2a3.4,3.4,0,0,0,1.17-.28l.33,1.31a6.28,6.28,0,0,1-1.89.37C183.91,258.67,183.18,257.3,183.18,255.27Z" transform="translate(0 -2.47)"/><path class="cls-7" d="M189.66,245a1.19,1.19,0,0,1,2.38,0,1.19,1.19,0,0,1-2.38,0Zm.31,3.22h1.73v10.2H190Z" transform="translate(0 -2.47)"/><path class="cls-7" d="M194.38,253.33c0-3.4,2.23-5.37,4.73-5.37s4.73,2,4.73,5.37-2.23,5.34-4.73,5.34S194.38,256.71,194.38,253.33Zm7.68,0c0-2.34-1.19-3.93-2.95-3.93s-2.94,1.59-2.94,3.93,1.19,3.91,2.94,3.91S202.06,255.67,202.06,253.33Z" transform="translate(0 -2.47)"/><path class="cls-7" d="M206.52,248.22H208l.14,1.47h.06a4.86,4.86,0,0,1,3.42-1.73c2.15,0,3.12,1.39,3.12,4v6.47H213v-6.24c0-1.9-.57-2.72-1.92-2.72-1,0-1.77.54-2.79,1.57v7.39h-1.73Z" transform="translate(0 -2.47)"/><path class="cls-7" d="M217.16,252.49H222v1.33h-4.81Z" transform="translate(0 -2.47)"/><path class="cls-7" d="M223.78,253.33c0-3.4,2.23-5.37,4.73-5.37s4.73,2,4.73,5.37-2.23,5.34-4.73,5.34S223.78,256.71,223.78,253.33Zm7.68,0c0-2.34-1.19-3.93-3-3.93s-2.94,1.59-2.94,3.93,1.19,3.91,2.94,3.91S231.46,255.67,231.46,253.33Z" transform="translate(0 -2.47)"/><path class="cls-7" d="M235.92,248.22h1.43l.14,1.47h.06A4.86,4.86,0,0,1,241,248c2.16,0,3.12,1.39,3.12,4v6.47h-1.73v-6.24c0-1.9-.57-2.72-1.92-2.72-1.05,0-1.77.54-2.79,1.57v7.39h-1.73Z" transform="translate(0 -2.47)"/><path class="cls-7" d="M246.65,253.33c0-3.32,2.24-5.37,4.59-5.37,2.6,0,4.07,1.87,4.07,4.79a5.38,5.38,0,0,1-.08,1h-6.87c.12,2.17,1.44,3.57,3.39,3.57a4.47,4.47,0,0,0,2.54-.82l.62,1.13a6,6,0,0,1-3.37,1.06C248.82,258.67,246.65,256.68,246.65,253.33Zm7.13-.83c0-2.05-.92-3.16-2.51-3.16-1.44,0-2.72,1.15-2.93,3.16Z" transform="translate(0 -2.47)"/><path class="cls-7" d="M257.21,248.57a2.94,2.94,0,0,0,1.59-2.64l-.25-1.39.87,1.07a1.06,1.06,0,0,1-.81.37,1,1,0,0,1-1.11-1.06,1.07,1.07,0,0,1,1.11-1.17c.84,0,1.33.69,1.33,1.9a4.08,4.08,0,0,1-2.24,3.73Zm3.7,0a2.93,2.93,0,0,0,1.6-2.64l-.25-1.39.87,1.07a1.08,1.08,0,0,1-.81.37,1,1,0,0,1-1.11-1.06,1.07,1.07,0,0,1,1.11-1.17c.83,0,1.32.69,1.32,1.9a4.06,4.06,0,0,1-2.24,3.73Z" transform="translate(0 -2.47)"/><path class="cls-7" d="M265.55,254.17l4.44-1.63,2.8-1v-.08l-2.8-1-4.44-1.63v-1.51l9,3.54v1.38l-9,3.54Z" transform="translate(0 -2.47)"/><path class="cls-6" d="M20.4,576.09v-1.37l9-3.54v1.51L25,574.32l-2.8,1v.08l2.8,1,4.44,1.64v1.51Z" transform="translate(0 -2.47)"/><path class="cls-6" d="M30.74,572.27l1.47-.1H36v1.41H30.74Zm1.39-1.71c0-2.07.94-3.39,3-3.39a4.38,4.38,0,0,1,1.69.35l-.36,1.32a2.8,2.8,0,0,0-1.16-.27c-1,0-1.43.68-1.43,2v11.81H32.13Z" transform="translate(0 -2.47)"/><path class="cls-6" d="M37,577.29c0-3.41,2.23-5.37,4.73-5.37s4.73,2,4.73,5.37-2.23,5.34-4.73,5.34S37,580.67,37,577.29Zm7.67,0c0-2.34-1.19-3.93-2.94-3.93s-3,1.59-3,3.93,1.19,3.9,3,3.9S44.68,579.63,44.68,577.29Z" transform="translate(0 -2.47)"/><path class="cls-6" d="M48.39,577.29c0-3.41,2.23-5.37,4.73-5.37s4.73,2,4.73,5.37-2.23,5.34-4.73,5.34S48.39,580.67,48.39,577.29Zm7.67,0c0-2.34-1.18-3.93-2.94-3.93s-2.94,1.59-2.94,3.93,1.18,3.9,2.94,3.9S56.06,579.63,56.06,577.29Z" transform="translate(0 -2.47)"/><path class="cls-6" d="M60.48,579.22v-5.64H59v-1.31l1.59-.1.21-2.86H62.2v2.86H65v1.41H62.2v5.67c0,1.25.41,2,1.58,2a3.33,3.33,0,0,0,1.16-.27l.34,1.3a6,6,0,0,1-1.9.38C61.21,582.63,60.48,581.25,60.48,579.22Z" transform="translate(0 -2.47)"/><path class="cls-6" d="M66.22,577.29c0-3.32,2.24-5.37,4.59-5.37,2.6,0,4.07,1.87,4.07,4.79a5.46,5.46,0,0,1-.08,1H67.93c.12,2.16,1.44,3.56,3.39,3.56a4.46,4.46,0,0,0,2.54-.81l.62,1.13a6,6,0,0,1-3.37,1.06C68.39,582.63,66.22,580.64,66.22,577.29Zm7.13-.84c0-2-.92-3.15-2.51-3.15-1.44,0-2.72,1.15-2.93,3.15Z" transform="translate(0 -2.47)"/><path class="cls-6" d="M77.39,572.17h1.43L79,574h0a3.53,3.53,0,0,1,2.91-2.11,2.37,2.37,0,0,1,1.08.21l-.32,1.52a2.64,2.64,0,0,0-1-.17c-.86,0-1.89.62-2.58,2.34v6.56H77.39Z" transform="translate(0 -2.47)"/><path class="cls-6" d="M83.67,578.13l4.44-1.64,2.8-1v-.08l-2.8-1-4.44-1.63v-1.51l9,3.54v1.37l-9,3.55Z" transform="translate(0 -2.47)"/><path class="cls-6" d="M328.51,197.48v-1.37l9-3.54v1.5l-4.43,1.64-2.81,1v.09l2.81,1,4.43,1.64V201Z" transform="translate(0 -2.47)"/><path class="cls-6" d="M339.32,201.12c0-2.23,1.92-3.34,6.27-3.81,0-1.31-.44-2.58-2.11-2.58a5.58,5.58,0,0,0-3,1.1l-.68-1.19a7.46,7.46,0,0,1,4-1.33c2.49,0,3.54,1.65,3.54,4.19v6.27h-1.42l-.15-1.22h-.06a5.39,5.39,0,0,1-3.37,1.47A2.77,2.77,0,0,1,339.32,201.12Zm6.27.16v-2.84c-3.42.41-4.58,1.25-4.58,2.56,0,1.16.79,1.63,1.79,1.63A4.22,4.22,0,0,0,345.59,201.28Z" transform="translate(0 -2.47)"/><path class="cls-6" d="M349.4,202.6l.86-1.14a4.54,4.54,0,0,0,3,1.21c1.34,0,2-.71,2-1.58,0-1.05-1.2-1.52-2.33-1.94-1.43-.52-3-1.22-3-2.94s1.3-2.9,3.52-2.9a5.14,5.14,0,0,1,3.17,1.15l-.83,1.1a3.82,3.82,0,0,0-2.32-.91c-1.29,0-1.88.69-1.88,1.47,0,1,1.11,1.34,2.26,1.77,1.47.55,3.11,1.15,3.11,3.09,0,1.66-1.31,3-3.72,3A6.15,6.15,0,0,1,349.4,202.6Z" transform="translate(0 -2.47)"/><path class="cls-6" d="M359,190.35a1.19,1.19,0,1,1,1.19,1.11A1.11,1.11,0,0,1,359,190.35Zm.31,3.21h1.73v10.21h-1.73Z" transform="translate(0 -2.47)"/><path class="cls-6" d="M363.77,198.68c0-3.31,2.09-5.37,4.42-5.37a4.18,4.18,0,0,1,2.86,1.18l-.08-1.75v-3.93h1.73v15h-1.43l-.14-1.21h-.06A4.48,4.48,0,0,1,368,204C365.43,204,363.77,202.08,363.77,198.68Zm7.2,2.49v-5.35a3.6,3.6,0,0,0-2.48-1.06c-1.64,0-2.93,1.58-2.93,3.9s1,3.91,2.8,3.91A3.49,3.49,0,0,0,371,201.17Z" transform="translate(0 -2.47)"/><path class="cls-6" d="M375.4,198.68c0-3.33,2.23-5.37,4.58-5.37,2.61,0,4.08,1.87,4.08,4.79a5.46,5.46,0,0,1-.08,1H377.1c.13,2.16,1.45,3.56,3.39,3.56a4.44,4.44,0,0,0,2.54-.81l.62,1.13a6,6,0,0,1-3.37,1.06C377.56,204,375.4,202,375.4,198.68Zm7.13-.84c0-2-.92-3.16-2.52-3.16-1.43,0-2.71,1.16-2.92,3.16Z" transform="translate(0 -2.47)"/><path class="cls-6" d="M385.56,199.52l4.44-1.64,2.8-1v-.09l-2.8-1-4.44-1.64v-1.5l9,3.54v1.37l-9,3.54Z" transform="translate(0 -2.47)"/></g></g></svg>