<?xml version="1.0" ?><svg id="Layer_1" style="enable-background:new 0 0 32 32;" version="1.1" viewBox="0 0 32 32" xml:space="preserve" xmlns="http://www.w3.org/2000/svg" xmlns:xlink="http://www.w3.org/1999/xlink"><g><g><path d="M5,32c-0.5522461,0-1-0.4472656-1-1V1c0-0.5527344,0.4477539-1,1-1s1,0.4472656,1,1v30C6,31.5527344,5.5522461,32,5,32z"/></g><g><path d="M27,17H9c-0.5522461,0-1-0.4472656-1-1V3c0-0.5527344,0.4477539-1,1-1h18c0.5522461,0,1,0.4472656,1,1v13    C28,16.5527344,27.5522461,17,27,17z M10,15h16V4H10V15z"/></g></g></svg>