<?xml version="1.0" encoding="utf-8"?>
<!-- Generator: Adobe Illustrator 24.2.3, SVG Export Plug-In . SVG Version: 6.00 Build 0)  -->
<svg version="1.1" id="Livello_1" xmlns="http://www.w3.org/2000/svg" xmlns:xlink="http://www.w3.org/1999/xlink" x="0px" y="0px"
	 viewBox="0 0 128 128" style="enable-background:new 0 0 128 128;" xml:space="preserve">
<style type="text/css">
	.st0{fill:#707070;}
</style>
<path class="st0" d="M116.7,31.8c-1-1.3-2.9-1.6-4.2-0.6c0,0,0,0,0,0L64.1,67.3c-0.4,0.3-0.8,0.3-1.2,0L15.5,31.1
	c-1.3-1-3.2-0.8-4.2,0.6s-0.8,3.2,0.6,4.2l37.3,28.5L12.3,92.2c-1.3,1-1.6,2.9-0.6,4.2s2.9,1.6,4.2,0.6l0,0l38.2-28.9l5.2,4
	c2.5,1.9,5.9,1.9,8.4,0.1l5.4-4.1L111.8,97c1.3,1,3.2,0.7,4.2-0.6s0.7-3.2-0.6-4.2l0,0L78.2,64.3l38-28.3
	C117.4,35,117.7,33.2,116.7,31.8z"/>
<path class="st0" d="M113,19H15C6.7,19,0,25.7,0,34v60c0,8.3,6.7,15,15,15l0,0h98c8.3,0,15-6.7,15-15l0,0V34
	C128,25.7,121.3,19,113,19z M122,94c0,5-4,9-9,9H15c-5,0-9-4-9-9V34c0-5,4-9,9-9h98c5,0,9,4,9,9V94z"/>
</svg>
