<?xml version="1.0" encoding="utf-8"?>
<!-- Generator: Adobe Illustrator 24.2.3, SVG Export Plug-In . SVG Version: 6.00 Build 0)  -->
<svg version="1.1" id="Layer_1" xmlns="http://www.w3.org/2000/svg" xmlns:xlink="http://www.w3.org/1999/xlink" x="0px" y="0px"
	 viewBox="0 0 48 48" style="enable-background:new 0 0 48 48;" xml:space="preserve">
<style type="text/css">
	.st0{fill:#707070;}
</style>
<path class="st0" d="M40.6,28.3l-0.9-0.7c-0.5-0.4-0.7-1-0.8-1.6V18c0-7.2-5.1-13.3-12.1-14.7c-0.4-1.6-2-2.6-3.7-2.2
	c-1.1,0.3-1.9,1.1-2.2,2.2C14.1,4.7,9,10.8,9,18v8.1c0,0.6-0.3,1.2-0.8,1.6l-0.9,0.7C5.3,30,4,32.6,4,35.3V37c0,2.2,1.8,4,4,4h8.3
	c1.1,4.3,5.5,6.8,9.8,5.7c2.8-0.7,5-2.9,5.7-5.7H40c2.2,0,4-1.8,4-4v-1.6C44,32.6,42.8,30,40.6,28.3z M24,43c-1.4,0-2.7-0.8-3.4-2
	h6.9C26.7,42.2,25.4,43,24,43z M40,37H8v-1.6c0-1.5,0.7-3,1.9-3.9l0.9-0.7c1.4-1.1,2.2-2.9,2.2-4.7V18c0-6.1,4.9-11,11-11
	s11,4.9,11,11v8.1c0,1.8,0.8,3.5,2.2,4.7l0.9,0.7c1.2,0.9,1.9,2.4,1.9,3.9V37z"/>
</svg>
