<svg xmlns="http://www.w3.org/2000/svg" viewBox="0 0 274.09 273.1"><defs><style>.cls-1,.cls-10,.cls-4,.cls-5,.cls-6,.cls-8,.cls-9{fill:none;stroke-miterlimit:10;}.cls-1,.cls-10{stroke:#4274b9;}.cls-1{stroke-width:1.5px;}.cls-2{fill:#6db9c1;}.cls-3{fill:#abced4;}.cls-4,.cls-5,.cls-6,.cls-8,.cls-9{stroke:#465354;}.cls-5{stroke-dasharray:11.26 11.26;}.cls-6{stroke-dasharray:10 10;}.cls-7{font-size:49px;fill:#fff;}.cls-12,.cls-7{font-family:MyriadPro-Regular, Myriad Pro;}.cls-8{stroke-dasharray:12.43 12.43;}.cls-9{stroke-dasharray:12.69 12.69;}.cls-10{stroke-width:0.5px;}.cls-11{fill:#4274b9;}.cls-12{font-size:14px;fill:#465354;}</style></defs><g id="Layer_2" data-name="Layer 2"><g id="Layer_1-2" data-name="Layer 1"><rect class="cls-1" x="29.62" y="31.1" width="211.94" height="116.32" rx="1.18"/><rect class="cls-2" x="31.11" y="32.87" width="209.03" height="112.77" rx="11.69"/><rect class="cls-3" x="41.95" y="42.46" width="186.18" height="93.6" rx="8.57"/><polyline class="cls-4" points="214.23 104.97 214.23 110.97 208.23 110.97"/><line class="cls-5" x1="196.97" y1="110.97" x2="67.49" y2="110.97"/><polyline class="cls-4" points="61.86 110.97 55.86 110.97 55.86 104.97"/><line class="cls-6" x1="55.86" y1="94.97" x2="55.86" y2="79.97"/><polyline class="cls-4" points="55.86 74.97 55.86 68.97 61.86 68.97"/><line class="cls-5" x1="73.12" y1="68.97" x2="202.6" y2="68.97"/><polyline class="cls-4" points="208.23 68.97 214.23 68.97 214.23 74.97"/><line class="cls-6" x1="214.23" y1="84.97" x2="214.23" y2="99.97"/><text class="cls-7" transform="translate(55.42 103.64)">content</text><polyline class="cls-4" points="273.59 171.5 273.59 177.5 267.59 177.5"/><line class="cls-8" x1="255.16" y1="177.5" x2="12.72" y2="177.5"/><polyline class="cls-4" points="6.5 177.5 0.5 177.5 0.5 171.5"/><line class="cls-9" x1="0.5" y1="158.81" x2="0.5" y2="12.85"/><polyline class="cls-4" points="0.5 6.5 0.5 0.5 6.5 0.5"/><line class="cls-8" x1="18.93" y1="0.5" x2="261.37" y2="0.5"/><polyline class="cls-4" points="267.59 0.5 273.59 0.5 273.59 6.5"/><line class="cls-9" x1="273.59" y1="19.19" x2="273.59" y2="165.15"/><line class="cls-10" x1="62.91" y1="124.59" x2="62.91" y2="189.45"/><polygon class="cls-11" points="60.87 187.79 61.23 187.45 62.91 189.26 64.59 187.45 64.95 187.79 62.91 189.99 60.87 187.79"/><line class="cls-10" x1="94.56" y1="142.92" x2="94.56" y2="213.67"/><polygon class="cls-11" points="92.52 212.01 92.88 211.67 94.56 213.48 96.24 211.67 96.61 212.01 94.56 214.21 92.52 212.01"/><line class="cls-10" x1="124.75" y1="149.95" x2="124.75" y2="235.98"/><polygon class="cls-11" points="122.71 234.32 123.07 233.98 124.75 235.79 126.43 233.98 126.8 234.32 124.75 236.52 122.71 234.32"/><circle class="cls-10" cx="62.99" cy="122.36" r="2.32"/><circle class="cls-10" cx="94.56" cy="140.39" r="2.32"/><line class="cls-10" x1="158.66" y1="164.11" x2="158.66" y2="257.72"/><polygon class="cls-11" points="156.62 256.06 156.99 255.72 158.66 257.53 160.34 255.72 160.71 256.06 158.66 258.26 156.62 256.06"/><circle class="cls-10" cx="158.66" cy="161.59" r="2.32"/><circle class="cls-10" cx="124.75" cy="147.42" r="2.32"/><text class="cls-12" transform="translate(39.92 203.06)">padding</text><text class="cls-12" transform="translate(76.31 226.49)">border</text><text class="cls-12" transform="translate(106.57 249.3)">outline</text><text class="cls-12" transform="translate(138.74 269.6)">margin</text></g></g></svg>