<svg xmlns="http://www.w3.org/2000/svg" viewBox="0 0 471.66 217.55"><defs><style>.cls-1{fill:#be6328;}.cls-2{fill:#eb9d41;}.cls-3{fill:#fef07d;}.cls-4,.cls-5,.cls-6{fill:none;}.cls-4,.cls-5{stroke:#000;stroke-miterlimit:10;stroke-width:9px;}.cls-5{stroke-linecap:round;}</style></defs><g id="Layer_2" data-name="Layer 2"><g id="Layer_1-2" data-name="Layer 1"><path class="cls-1" d="M451.67,200.44A22.33,22.33,0,0,1,437,210H39.17s-26.46-2.9-18.28-43.26c7.73,9.87,29.58,19.88,84.27,22.82C203.44,194.8,384.54,201.93,451.67,200.44Z"/><path class="cls-2" d="M455.32,190.15a28.75,28.75,0,0,1-4.44,11.12c-67.13,1.49-248.23-5.64-346.51-10.93-54.69-2.94-76.54-13-84.27-22.82.65-3.18,1.51-6.6,2.62-10.26l.09-.32a180.2,180.2,0,0,1,7.47-19.81c.94-2.14,1.93-4.28,2.95-6.42l0,0C65.47,63.65,138.8,1.28,237.3,2.24c101.65-1,176.5,65.47,207,134.89C455.5,162.55,457.4,179.22,455.32,190.15Z"/><path class="cls-3" d="M454.33,189.51S434.14,82.76,318.91,39.77C213.59.48,78.3,40.51,32.26,130,64.48,63,137.81.64,236.31,1.6c101.65-1,176.5,65.47,207,134.89C454.51,161.91,456.41,178.58,454.33,189.51Z"/><path class="cls-4" d="M454.47,192.42c-3.59,18.93-19.11,20.63-19.11,20.63H37.53s-30.8-3.38-15.66-53.52l.09-.32a180.2,180.2,0,0,1,7.47-19.81c.94-2.14,1.93-4.28,3-6.42,0,0,0,0,0,0C64.62,65.92,138,3.55,236.45,4.51,338.1,3.52,413,70,443.47,139.4,454.65,164.82,456.55,181.49,454.47,192.42Z"/><line class="cls-5" x1="337.96" y1="136.35" x2="332.63" y2="141.65"/><line class="cls-5" x1="179.42" y1="175.94" x2="174.09" y2="181.24"/><line class="cls-5" x1="179.42" y1="175.94" x2="174.09" y2="181.24"/><line class="cls-5" x1="179.42" y1="175.94" x2="174.09" y2="181.24"/><line class="cls-5" x1="113.98" y1="146.93" x2="108.66" y2="152.23"/><line class="cls-5" x1="221.08" y1="99.32" x2="215.75" y2="104.62"/><line class="cls-5" x1="116.65" y1="76.52" x2="111.32" y2="81.82"/><line class="cls-5" x1="335.29" y1="76.96" x2="329.97" y2="82.26"/><line class="cls-5" x1="169.97" y1="101.97" x2="164.65" y2="107.27"/><line class="cls-5" x1="268.16" y1="144.28" x2="262.84" y2="149.58"/><line class="cls-5" x1="278" y1="46.96" x2="272.67" y2="52.26"/><line class="cls-5" x1="192.02" y1="44.31" x2="186.69" y2="49.61"/><line class="cls-5" x1="395.29" y1="149.68" x2="389.96" y2="154.98"/><rect class="cls-6" y="2.24" width="471.66" height="210.82"/></g></g></svg>