<svg xmlns="http://www.w3.org/2000/svg" viewBox="0 0 471.66 37.39"><defs><style>.cls-1{fill:#fec809;}.cls-2{fill:#f5eb12;}.cls-3,.cls-4{fill:none;}.cls-3{stroke:#000;stroke-miterlimit:10;stroke-width:9px;}</style></defs><g id="Layer_2" data-name="Layer 2"><g id="Layer_1-2" data-name="Layer 1"><path class="cls-1" d="M463,17.26a12.52,12.52,0,0,1-1.7,6.23A12.62,12.62,0,0,0,450.39,17L25,13.9a12.55,12.55,0,0,0-11,6.31A12.62,12.62,0,0,1,25.12,1.41L450.48,4.53A12.63,12.63,0,0,1,463,17.26Z"/><path class="cls-2" d="M461.32,23.49a12.55,12.55,0,0,1-11,6.31L24.93,26.68A12.63,12.63,0,0,1,14,20.21,12.55,12.55,0,0,1,25,13.9L450.39,17A12.62,12.62,0,0,1,461.32,23.49Z"/><rect class="cls-3" x="10.72" y="6.06" width="450.65" height="25.26" rx="12.63" transform="translate(0.14 -1.73) rotate(0.42)"/><rect class="cls-4" y="1.41" width="471.66" height="35.93"/></g></g></svg>