<svg xmlns="http://www.w3.org/2000/svg" viewBox="0 0 471.66 44.11"><defs><style>.cls-1{fill:#e41e25;}.cls-2{fill:#b72027;}.cls-3,.cls-4{fill:none;}.cls-3{stroke:#000;stroke-miterlimit:10;stroke-width:9px;}</style></defs><g id="Layer_2" data-name="Layer 2"><g id="Layer_1-2" data-name="Layer 1"><rect class="cls-1" x="43.81" y="1.4" width="387.76" height="35.11" rx="17.56"/><path class="cls-2" d="M237.7,19a17.47,17.47,0,0,1-2.93,9.71A17.58,17.58,0,0,0,218,16.27H59.21a17.5,17.5,0,0,0-12.42,5.14,17.3,17.3,0,0,0-2.2,2.7A17.56,17.56,0,0,1,61.37,1.4H220.14A17.56,17.56,0,0,1,237.7,19Z"/><path class="cls-1" d="M234.77,28.67a18,18,0,0,1-2.21,2.7,17.5,17.5,0,0,1-12.42,5.14H61.37a17.55,17.55,0,0,1-16.78-12.4,17.3,17.3,0,0,1,2.2-2.7,17.5,17.5,0,0,1,12.42-5.14H218A17.58,17.58,0,0,1,234.77,28.67Z"/><path class="cls-2" d="M428.79,19a17.47,17.47,0,0,1-2.93,9.71,17.55,17.55,0,0,0-16.78-12.4H254.36a17.5,17.5,0,0,0-14.63,7.85A17.56,17.56,0,0,1,256.52,1.4H411.24A17.56,17.56,0,0,1,428.79,19Z"/><path class="cls-1" d="M425.86,28.67a18,18,0,0,1-2.21,2.7,17.48,17.48,0,0,1-12.41,5.14H256.52a17.58,17.58,0,0,1-16.79-12.39,17.5,17.5,0,0,1,14.63-7.85H409.08A17.55,17.55,0,0,1,425.86,28.67Z"/><rect class="cls-3" x="42.18" y="4.5" width="387.76" height="35.11" rx="17.56"/><rect class="cls-3" x="43.3" y="4.5" width="193.88" height="35.11" rx="17.56"/><rect class="cls-3" x="237.32" y="4.5" width="189.83" height="35.11" rx="17.56"/><rect class="cls-4" y="4.5" width="471.66" height="35.11"/></g></g></svg>