<svg xmlns="http://www.w3.org/2000/svg" viewBox="0 0 471.66 47.44"><defs><style>.cls-1{fill:#eaf0b8;}.cls-2{fill:#4fb348;}.cls-3,.cls-4{fill:none;}.cls-3{stroke:#000;stroke-miterlimit:10;stroke-width:9px;}</style></defs><g id="Layer_2" data-name="Layer 2"><g id="Layer_1-2" data-name="Layer 1"><path class="cls-1" d="M455.34,29.82c-4.94,4.8-19.33-11.36-37.41-9.16-16.59,2-17.69,17.44-32.82,18.35C368,40,363.76,21.59,346.16,21.77S324.9,40.62,307.78,40.13c-16.55-.48-19.87-18.13-36.16-17.8-14.85.29-16.81,15-32.27,16.13-17.39,1.23-22.16-16.92-40-16.13-16,.7-18.18,15.4-33.94,15.57-16.63.18-19.87-16.15-36.16-16.13s-20.59,16.4-37.27,18.36c-17.3,2-21.4-20.34-39-20-16.72.3-27.36,19-33.26,14.88-3.16-2.2-2.29-9.14-1.76-12.35a4.94,4.94,0,0,0,1.76,2.66C25.62,29.38,36.26,10.71,53,10.41c17.55-.31,21.65,22.07,39,20,16.68-2,21-18.35,37.27-18.36s19.53,16.31,36.16,16.13c15.76-.17,18-14.87,33.94-15.57,17.89-.79,22.66,17.36,40,16.13,15.46-1.1,17.42-15.84,32.27-16.13,16.29-.33,19.61,17.32,36.16,17.8,17.12.49,20.72-18.18,38.38-18.36S368,30.35,385.11,29.32C400.24,28.41,401.34,13,417.93,11c18.08-2.2,32.47,14,37.41,9.16l0,0C456.56,23.71,457.34,27.88,455.34,29.82Z"/><path class="cls-2" d="M455.36,20.11l0,0C450.4,24.94,436,8.77,417.93,11c-16.59,2-17.69,17.44-32.82,18.35-17.08,1-21.35-17.42-38.95-17.24S324.9,30.93,307.78,30.44c-16.55-.48-19.87-18.13-36.16-17.8-14.85.29-16.81,15-32.27,16.13C222,30,217.19,11.85,199.3,12.64c-16,.7-18.18,15.4-33.94,15.57-16.63.18-19.87-16.15-36.16-16.13s-20.59,16.4-37.27,18.36c-17.3,2-21.4-20.34-39-20-16.72.3-27.36,19-33.26,14.88A4.94,4.94,0,0,1,18,22.63c.05-.33.1-.63.14-.87A24.33,24.33,0,0,1,24.79,8.88a25.07,25.07,0,0,1,17-7.06H431.88a25.48,25.48,0,0,1,17.05,7.06,24,24,0,0,1,5.9,9.72C455,19.09,455.19,19.59,455.36,20.11Z"/><path class="cls-3" d="M454.59,21.28c1.45,3.88,2.79,9,.51,11.22-5,4.8-19.33-11.36-37.41-9.16-16.6,2-17.69,17.44-32.82,18.35-17.08,1-21.35-17.42-38.95-17.24S324.66,43.3,307.54,42.81C291,42.33,287.67,24.68,271.38,25c-14.85.29-16.81,15-32.27,16.13C221.72,42.37,217,24.22,199.06,25c-16,.7-18.18,15.4-33.94,15.57-16.63.18-19.87-16.15-36.16-16.13s-20.59,16.4-37.27,18.36c-17.31,2-21.41-20.34-38.95-20-16.72.3-27.37,19-33.26,14.88C16,35.23,17.4,27,17.85,24.44a24.3,24.3,0,0,1,6.7-12.88,25,25,0,0,1,17-7.06H431.64a25.43,25.43,0,0,1,17,7.06A24,24,0,0,1,454.59,21.28Z"/><rect class="cls-4" y="1.82" width="471.66" height="41.12"/></g></g></svg>