<svg xmlns="http://www.w3.org/2000/svg" viewBox="0 0 471.66 79.08"><defs><style>.cls-1{fill:#aa5c40;}.cls-2{fill:#914733;}.cls-3,.cls-4{fill:none;}.cls-3{stroke:#000;stroke-miterlimit:10;stroke-width:9px;}</style></defs><g id="Layer_2" data-name="Layer 2"><g id="Layer_1-2" data-name="Layer 1"><path class="cls-1" d="M451.86,50.16A35.09,35.09,0,0,1,419.6,71.48H55.78A35,35,0,0,1,25.57,54.21C31.83,50.78,41,40,53.67,39.79c17.54-.32,21.64,22.06,39,20,16.68-2,21-18.35,37.27-18.36s19.53,16.31,36.16,16.13C181.81,57.42,184,42.72,200,42c17.89-.79,22.66,17.36,40,16.13,15.46-1.1,17.42-15.84,32.27-16.13,16.29-.33,19.61,17.32,36.16,17.8,17.12.49,20.72-18.18,38.38-18.36S368.72,59.73,385.8,58.7c15.13-.92,16.22-16.33,32.82-18.35C433,38.59,445,48.47,451.86,50.16Z"/><path class="cls-2" d="M454.64,36.44a35,35,0,0,1-2.78,13.72C445,48.47,433,38.59,418.62,40.35c-16.6,2-17.69,17.43-32.82,18.35-17.08,1-21.35-17.42-38.95-17.24s-21.26,18.85-38.38,18.36c-16.55-.48-19.87-18.13-36.16-17.8-14.85.29-16.81,15-32.27,16.13C222.65,59.38,217.88,41.23,200,42c-16,.7-18.18,15.4-33.94,15.57-16.63.18-19.87-16.15-36.16-16.13S109.3,57.86,92.62,59.82c-17.31,2-21.41-20.35-38.95-20C41,40,31.83,50.78,25.57,54.21a34.88,34.88,0,0,1-4.83-17.77c0-.32,0-.64,0-.95a35,35,0,0,1,35-34.09H419.6a35,35,0,0,1,35,34.55C454.64,36.11,454.64,36.28,454.64,36.44Z"/><rect class="cls-3" x="19.11" y="4.5" width="433.9" height="70.08" rx="35.04"/><rect class="cls-4" y="4.5" width="471.66" height="70.08"/></g></g></svg>