<svg xmlns="http://www.w3.org/2000/svg" viewBox="0 0 471.66 79.08"><defs><style>.cls-1{fill:#ca7d2e;}.cls-2{fill:#fbea78;}.cls-3{fill:#eb9d41;}.cls-4,.cls-5{fill:none;}.cls-4{stroke:#000;stroke-miterlimit:10;stroke-width:9px;}</style></defs><g id="Layer_2" data-name="Layer 2"><g id="Layer_1-2" data-name="Layer 1"><path class="cls-1" d="M466.6,43.44a35,35,0,0,1-35,35H43.84a35,35,0,0,1-35-35A34.66,34.66,0,0,1,11,31.26a35,35,0,0,0,34.29,27.8H433A35,35,0,0,0,465.85,36.2,35.28,35.28,0,0,1,466.6,43.44Z"/><path class="cls-2" d="M465.85,36.2a34.84,34.84,0,0,1-3.54,7A35,35,0,0,0,428.1,15.77H40.38A35,35,0,0,0,11.06,31.62c0-.12-.06-.24-.08-.36A35,35,0,0,1,43.84,8.4H431.56A35.06,35.06,0,0,1,465.85,36.2Z"/><path class="cls-3" d="M462.31,43.2A35,35,0,0,1,433,59.06H45.27A35,35,0,0,1,11.06,31.62,35,35,0,0,1,40.38,15.77H428.1A35,35,0,0,1,462.31,43.2Z"/><rect class="cls-4" x="7.15" y="4.5" width="457.8" height="70.08" rx="35.04"/><rect class="cls-5" y="0.05" width="471.66" height="78.43"/></g></g></svg>