<svg xmlns="http://www.w3.org/2000/svg" viewBox="0 0 852.53 511.76"><defs><style>.cls-1,.cls-21,.cls-8{fill:#d3abd0;}.cls-1{opacity:0.13;}.cls-2,.cls-3,.cls-6{fill:#abced4;}.cls-2{opacity:0.15;}.cls-4{fill:#99b8bc;}.cls-12,.cls-14,.cls-15,.cls-17,.cls-18,.cls-20,.cls-5,.cls-7{fill:none;stroke-miterlimit:10;}.cls-15,.cls-5{stroke:#abced4;}.cls-5{stroke-width:3.35px;}.cls-6{font-size:19px;}.cls-11,.cls-6,.cls-8{font-family:Co-ext-Bold, Co Text ;font-weight:700;}.cls-20,.cls-7{stroke:#d3abd0;}.cls-7{stroke-width:2.58px;}.cls-11,.cls-8{font-size:17px;}.cls-9{font-size:16px;}.cls-10,.cls-19,.cls-9{fill:#505150;}.cls-10,.cls-9{font-family:Co-Text-Light, Co Text ;font-weight:300;}.cls-10{font-size:14px;}.cls-11,.cls-13{fill:#7e989b;}.cls-12,.cls-14{stroke:#7e989b;}.cls-12,.cls-14,.cls-20{stroke-linecap:round;}.cls-12,.cls-20{stroke-width:3px;}.cls-14{stroke-width:2.03px;}.cls-15{stroke-width:3.35px;}.cls-16{fill:#c3dee0;}.cls-17,.cls-18{stroke:#505150;}.cls-18{stroke-dasharray:4.98 1.99;}</style></defs><g id="Layer_2" data-name="Layer 2"><g id="Layer_1-2" data-name="Layer 1"><rect class="cls-1" x="1.29" y="36.75" width="692.7" height="473.72" rx="5.74"/><rect class="cls-2" x="354.03" y="60.77" width="331.04" height="438.53" rx="6.42"/><rect class="cls-2" x="10.04" y="60.77" width="332.91" height="438.53" rx="10.03"/><rect class="cls-3" x="367.16" y="73.9" width="305.77" height="44.03" rx="6.33"/><rect class="cls-3" x="366.67" y="156.8" width="305.77" height="296.28" rx="16.43"/><rect class="cls-4" x="371.67" y="338.53" width="142.21" height="89.11" rx="6.15"/><rect class="cls-5" x="354.03" y="60.77" width="331.04" height="438.53" rx="6.42"/><text class="cls-6" transform="translate(152.52 56.26)">ASIDE</text><text class="cls-6" transform="translate(482.91 56.26)">MAIN</text><rect class="cls-7" x="1.29" y="36.75" width="692.7" height="473.72" rx="5.74"/><text class="cls-8" transform="translate(289.51 14.34)">flex-container</text><text class="cls-9" transform="translate(726.48 214.9)">flex-direction:<tspan x="0" y="19.2">column;</tspan></text><text class="cls-9" transform="translate(541.6 395.66)">flex-direction:<tspan x="0" y="19.2">column;</tspan></text><text class="cls-10" transform="translate(496 473.75)">600px</text><text class="cls-11" transform="translate(724.68 196.03)">flex-container</text><path class="cls-12" d="M666.81,195.92a180.16,180.16,0,0,1,46.8-4.41c2.95.11,5.82.29,8.64.54"/><polygon class="cls-13" points="679.1 205.93 680.64 203.35 667.95 195.76 676.46 183.65 674 181.93 663.64 196.67 679.1 205.93"/><text class="cls-11" transform="translate(541.6 379.36)">flex-container</text><path class="cls-14" d="M515.83,378.37a39.86,39.86,0,0,1,20.85-4.17,38.91,38.91,0,0,1,3.94.54"/><polygon class="cls-13" points="525.38 383.36 526.04 381.44 516.6 378.17 520.56 368.99 518.7 368.19 513.88 379.37 525.38 383.36"/><text class="cls-9" transform="translate(733.27 112.26)">flex-direction:<tspan x="0" y="19.2">column;</tspan></text><text class="cls-11" transform="translate(731.48 93.39)">flex-container</text><path class="cls-12" d="M673.6,93.28a180.28,180.28,0,0,1,46.81-4.41q4.41.16,8.63.54"/><polygon class="cls-13" points="685.9 103.29 687.44 100.71 674.75 93.12 683.25 81.01 680.79 79.29 670.44 94.03 685.9 103.29"/><rect class="cls-15" x="10.04" y="60.77" width="332.91" height="438.53" rx="10.03"/><rect class="cls-16" x="94.47" y="238.09" width="144.03" height="106.26" rx="16.08"/><line class="cls-17" x1="362.36" y1="478.46" x2="364.86" y2="478.46"/><line class="cls-18" x1="366.85" y1="478.46" x2="672.86" y2="478.46"/><line class="cls-17" x1="673.86" y1="478.46" x2="676.36" y2="478.46"/><polygon class="cls-19" points="365.67 482.55 366.35 481.81 362.74 478.46 366.35 475.1 365.67 474.37 361.27 478.46 365.67 482.55"/><polygon class="cls-19" points="673.04 482.55 672.36 481.81 675.98 478.46 672.36 475.1 673.04 474.37 677.44 478.46 673.04 482.55"/><text class="cls-10" transform="translate(153.14 475.1)">flex : 1;</text><line class="cls-17" x1="19.5" y1="478.46" x2="22" y2="478.46"/><line class="cls-18" x1="23.99" y1="478.46" x2="330" y2="478.46"/><line class="cls-17" x1="331" y1="478.46" x2="333.5" y2="478.46"/><polygon class="cls-19" points="22.81 482.55 23.5 481.81 19.88 478.46 23.5 475.1 22.81 474.37 18.41 478.46 22.81 482.55"/><polygon class="cls-19" points="330.19 482.55 329.5 481.81 333.12 478.46 329.5 475.1 330.19 474.37 334.58 478.46 330.19 482.55"/><rect class="cls-16" x="379.32" y="83.3" width="101.83" height="25.24" rx="2.77"/><rect class="cls-16" x="378.83" y="170.52" width="25.24" height="25.24" rx="1.38"/><rect class="cls-16" x="486.39" y="83.3" width="101.83" height="25.24" rx="2.77"/><rect class="cls-16" x="378.83" y="214.9" width="253.21" height="60.03" rx="6.73"/><rect class="cls-16" x="378.83" y="294.06" width="253.21" height="27.08" rx="4.52"/><rect class="cls-16" x="378.83" y="349.64" width="126.61" height="27.08" rx="3.2"/><rect class="cls-16" x="378.83" y="387.16" width="126.61" height="27.08" rx="3.2"/><rect class="cls-16" x="600.72" y="83.3" width="63.64" height="25.24" rx="2.19"/><path class="cls-20" d="M414.28,9.57c.75-.06,16.33-1,24.58,11.08a25.47,25.47,0,0,1,4.31,14.06"/><polygon class="cls-21" points="429.5 26.05 431.48 23.8 442.58 33.58 451.52 21.79 453.91 23.61 443.02 37.96 429.5 26.05"/></g></g></svg>