<svg xmlns="http://www.w3.org/2000/svg" viewBox="0 0 845.62 426.13"><defs><style>.cls-1,.cls-19,.cls-21{fill:#d3abd0;}.cls-1{opacity:0.13;}.cls-2,.cls-3,.cls-6{fill:#abced4;}.cls-2{opacity:0.15;}.cls-4{fill:#99b8bc;}.cls-11,.cls-13,.cls-14,.cls-16,.cls-17,.cls-20,.cls-5,.cls-7{fill:none;stroke-miterlimit:10;}.cls-14,.cls-5{stroke:#abced4;}.cls-5{stroke-width:3.03px;}.cls-6{font-size:19px;}.cls-10,.cls-19,.cls-6{font-family:Co-ext-Bold, Co Text ;font-weight:700;}.cls-20,.cls-7{stroke:#d3abd0;}.cls-7{stroke-width:2.34px;}.cls-8{font-size:16px;}.cls-18,.cls-8,.cls-9{fill:#505150;}.cls-8,.cls-9{font-family:Co-Text-Light, Co Text ;font-weight:300;}.cls-9{font-size:14px;}.cls-10,.cls-19{font-size:17px;}.cls-10,.cls-12{fill:#7e989b;}.cls-11,.cls-13{stroke:#7e989b;}.cls-11,.cls-13,.cls-20{stroke-linecap:round;}.cls-11,.cls-20{stroke-width:3px;}.cls-13{stroke-width:2.03px;}.cls-14{stroke-width:3.03px;}.cls-15{fill:#c3dee0;}.cls-16,.cls-17{stroke:#505150;}.cls-17{stroke-dasharray:4.98 1.99;}</style></defs><g id="Layer_2" data-name="Layer 2"><g id="Layer_1-2" data-name="Layer 1"><rect class="cls-1" x="1.17" y="36.61" width="692.7" height="388.35" rx="5.2"/><rect class="cls-2" x="353.91" y="59.2" width="331.04" height="356.67" rx="5.79"/><rect class="cls-2" x="9.92" y="59.2" width="332.91" height="356.67" rx="9.05"/><rect class="cls-3" x="366.54" y="71.29" width="305.77" height="296.28" rx="16.43"/><rect class="cls-4" x="371.55" y="253.02" width="142.21" height="89.11" rx="6.15"/><rect class="cls-5" x="353.91" y="59.2" width="331.04" height="356.67" rx="5.79"/><text class="cls-6" transform="translate(152.4 54.68)">ASIDE</text><text class="cls-6" transform="translate(482.79 54.68)">MAIN</text><rect class="cls-7" x="1.17" y="36.61" width="692.7" height="388.35" rx="5.2"/><text class="cls-8" transform="translate(726.36 129.39)">flex-direction:<tspan x="0" y="19.2">column;</tspan></text><text class="cls-8" transform="translate(541.48 310.15)">flex-direction:<tspan x="0" y="19.2">column;</tspan></text><text class="cls-9" transform="translate(495.87 388.24)">600px</text><text class="cls-10" transform="translate(724.56 110.52)">flex-container</text><path class="cls-11" d="M666.68,110.41A180.28,180.28,0,0,1,713.49,106q4.41.16,8.63.54"/><polygon class="cls-12" points="678.98 120.42 680.52 117.84 667.83 110.25 676.33 98.14 673.88 96.42 663.52 111.16 678.98 120.42"/><text class="cls-10" transform="translate(541.47 293.85)">flex-container</text><path class="cls-13" d="M515.71,292.86a39.84,39.84,0,0,1,20.84-4.17,38.14,38.14,0,0,1,3.94.54"/><polygon class="cls-12" points="525.25 297.85 525.92 295.93 516.48 292.66 520.44 283.48 518.57 282.68 513.76 293.86 525.25 297.85"/><rect class="cls-14" x="9.92" y="59.2" width="332.91" height="356.67" rx="9.05"/><rect class="cls-15" x="94.35" y="152.58" width="144.03" height="106.26" rx="16.08"/><line class="cls-16" x1="362.24" y1="392.95" x2="364.74" y2="392.95"/><line class="cls-17" x1="366.73" y1="392.95" x2="672.74" y2="392.95"/><line class="cls-16" x1="673.74" y1="392.95" x2="676.24" y2="392.95"/><polygon class="cls-18" points="365.55 397.04 366.23 396.3 362.62 392.95 366.23 389.59 365.55 388.86 361.15 392.95 365.55 397.04"/><polygon class="cls-18" points="672.92 397.04 672.24 396.3 675.85 392.95 672.24 389.59 672.92 388.86 677.32 392.95 672.92 397.04"/><text class="cls-9" transform="translate(153.02 389.59)">flex : 1;</text><line class="cls-16" x1="19.38" y1="392.95" x2="21.88" y2="392.95"/><line class="cls-17" x1="23.87" y1="392.95" x2="329.88" y2="392.95"/><line class="cls-16" x1="330.88" y1="392.95" x2="333.38" y2="392.95"/><polygon class="cls-18" points="22.69 397.04 23.37 396.3 19.76 392.95 23.37 389.59 22.69 388.86 18.29 392.95 22.69 397.04"/><polygon class="cls-18" points="330.06 397.04 329.38 396.3 333 392.95 329.38 389.59 330.06 388.86 334.46 392.95 330.06 397.04"/><rect class="cls-15" x="378.71" y="85.01" width="25.24" height="25.24" rx="1.38"/><rect class="cls-15" x="378.71" y="129.39" width="253.21" height="60.03" rx="6.73"/><rect class="cls-15" x="378.71" y="208.55" width="253.21" height="27.08" rx="4.52"/><rect class="cls-15" x="378.71" y="264.13" width="126.61" height="27.08" rx="3.2"/><rect class="cls-15" x="378.71" y="301.65" width="126.61" height="27.08" rx="3.2"/><text class="cls-19" transform="translate(307.47 14.34)">flex-container</text><path class="cls-20" d="M432.24,9.57c.75-.06,16.33-1,24.58,11.08a25.47,25.47,0,0,1,4.31,14.06"/><polygon class="cls-21" points="447.45 26.05 449.44 23.8 460.54 33.58 469.48 21.79 471.87 23.61 460.97 37.96 447.45 26.05"/></g></g></svg>