<svg xmlns="http://www.w3.org/2000/svg" viewBox="0 0 368.25 573.39"><defs><style>.cls-1,.cls-15,.cls-17{fill:#d3abd0;}.cls-1{opacity:0.13;}.cls-2,.cls-3,.cls-6{fill:#abced4;}.cls-2{opacity:0.15;}.cls-4{fill:#99b8bc;}.cls-10,.cls-12,.cls-13,.cls-16,.cls-18,.cls-19,.cls-22,.cls-23,.cls-5,.cls-7{fill:none;stroke-miterlimit:10;}.cls-13,.cls-5{stroke:#abced4;}.cls-5{stroke-width:2.24px;}.cls-6{font-size:19px;}.cls-15,.cls-6,.cls-9{font-family:Co-ext-Bold, Co Text ;font-weight:700;}.cls-16,.cls-7{stroke:#d3abd0;}.cls-7{stroke-width:1.61px;}.cls-8{font-size:16px;}.cls-20,.cls-21,.cls-8{fill:#505150;}.cls-21,.cls-8{font-family:Co-Text-Light, Co Text ;font-weight:300;}.cls-15,.cls-9{font-size:17px;}.cls-11,.cls-9{fill:#7e989b;}.cls-10,.cls-12{stroke:#7e989b;}.cls-10,.cls-12,.cls-16{stroke-linecap:round;}.cls-10{stroke-width:2.47px;}.cls-12{stroke-width:2.33px;}.cls-13{stroke-width:1.69px;}.cls-14{fill:#c3dee0;}.cls-16{stroke-width:3px;}.cls-18,.cls-19,.cls-22,.cls-23{stroke:#505150;}.cls-19{stroke-dasharray:4.92 1.97;}.cls-21{font-size:13px;}.cls-22,.cls-23{stroke-width:1.08px;}.cls-23{stroke-dasharray:5.32 2.13;}</style></defs><g id="Layer_2" data-name="Layer 2"><g id="Layer_1-2" data-name="Layer 1"><rect class="cls-1" x="4.45" y="36.61" width="231.22" height="535.97" rx="3.53"/><rect class="cls-2" x="11.75" y="59.2" width="218.06" height="296.59" rx="4.28"/><rect class="cls-2" x="10.42" y="388.87" width="219.29" height="168.76" rx="5.05"/><rect class="cls-3" x="20.07" y="71.29" width="201.41" height="275.2" rx="12.85"/><rect class="cls-4" x="27.86" y="246.26" width="185.45" height="94.81" rx="7.24"/><rect class="cls-5" x="11.75" y="59.2" width="218.06" height="296.59" rx="4.28"/><text class="cls-6" transform="translate(93.52 384.44)">ASIDE</text><text class="cls-6" transform="translate(93.52 54.68)">MAIN</text><rect class="cls-7" x="0.81" y="36.61" width="238.51" height="535.97" rx="3.58"/><text class="cls-8" transform="translate(247.19 288.46)">fex-direction:<tspan x="0" y="19.2">column;</tspan></text><text class="cls-8" transform="translate(268.66 145.27)">order : -1; </text><text class="cls-9" transform="translate(268.66 107.88)">fex-item<tspan x="0" y="20.4">(main)</tspan></text><path class="cls-10" d="M229.17,107.64a84.8,84.8,0,0,1,31.34-4.29q3,.18,5.86.55"/><polygon class="cls-11" points="239.98 115 241.06 112.78 230.11 107.46 236.22 96.92 234.08 95.68 226.64 108.52 239.98 115"/><text class="cls-9" transform="translate(247.19 272.16)">fex-container</text><path class="cls-12" d="M213.13,271.25A68.19,68.19,0,0,1,241,267c1.79.11,3.53.3,5.23.54"/><polygon class="cls-11" points="223.56 277.91 224.52 275.78 214.02 271.06 219.49 260.94 217.43 259.83 210.77 272.17 223.56 277.91"/><rect class="cls-13" x="10.42" y="388.87" width="219.29" height="168.76" rx="5.05"/><rect class="cls-14" x="77.09" y="440.94" width="102.28" height="64.61" rx="10.56"/><rect class="cls-14" x="32.72" y="103.19" width="25.24" height="25.24" rx="1.38"/><rect class="cls-14" x="32.72" y="139.07" width="175.96" height="57.79" rx="5.5"/><rect class="cls-14" x="32.72" y="207.5" width="175.96" height="28.13" rx="3.84"/><rect class="cls-14" x="32.72" y="253.33" width="175.96" height="35.8" rx="4.33"/><rect class="cls-14" x="32.72" y="297.26" width="175.96" height="35.8" rx="4.33"/><text class="cls-15" transform="translate(43.95 14.34)">fex-container</text><path class="cls-16" d="M168.72,9.57c.74-.06,16.33-1,24.58,11.08a25.53,25.53,0,0,1,4.3,14.06"/><polygon class="cls-17" points="183.93 26.05 185.91 23.8 197.01 33.58 205.95 21.79 208.34 23.61 197.45 37.96 183.93 26.05"/><line class="cls-18" x1="37.84" y1="275.6" x2="40.34" y2="275.6"/><line class="cls-19" x1="42.31" y1="275.6" x2="199.68" y2="275.6"/><line class="cls-18" x1="200.67" y1="275.6" x2="203.17" y2="275.6"/><polygon class="cls-20" points="41.15 279.69 41.84 278.96 38.22 275.6 41.84 272.24 41.15 271.51 36.76 275.6 41.15 279.69"/><polygon class="cls-20" points="199.85 279.69 199.17 278.96 202.78 275.6 199.17 272.24 199.85 271.51 204.25 275.6 199.85 279.69"/><text class="cls-21" transform="translate(99.02 272.16)">100%</text><line class="cls-22" x1="23.61" y1="90.23" x2="26.32" y2="90.23"/><line class="cls-23" x1="28.44" y1="90.23" x2="213.63" y2="90.23"/><line class="cls-22" x1="214.69" y1="90.23" x2="217.4" y2="90.23"/><polygon class="cls-20" points="27.2 94.66 27.93 93.87 24.03 90.23 27.93 86.6 27.2 85.81 22.44 90.23 27.2 94.66"/><polygon class="cls-20" points="213.81 94.66 213.07 93.87 216.98 90.23 213.07 86.6 213.81 85.81 218.57 90.23 213.81 94.66"/><text class="cls-21" transform="translate(99.02 86.8)">100%</text><line class="cls-18" x1="38.11" y1="324.16" x2="40.61" y2="324.16"/><line class="cls-19" x1="42.58" y1="324.16" x2="199.95" y2="324.16"/><line class="cls-18" x1="200.94" y1="324.16" x2="203.44" y2="324.16"/><polygon class="cls-20" points="41.43 328.25 42.11 327.52 38.5 324.16 42.11 320.8 41.43 320.07 37.03 324.16 41.43 328.25"/><polygon class="cls-20" points="200.13 328.25 199.44 327.52 203.05 324.16 199.44 320.8 200.13 320.07 204.52 324.16 200.13 328.25"/><text class="cls-21" transform="translate(99.3 320.72)">100%</text></g></g></svg>