<svg xmlns="http://www.w3.org/2000/svg" viewBox="0 0 480.58 573.56"><defs><style>.cls-1,.cls-15,.cls-17{fill:#d3abd0;}.cls-1{opacity:0.13;}.cls-2,.cls-3,.cls-6{fill:#abced4;}.cls-2{opacity:0.15;}.cls-4{fill:#99b8bc;}.cls-10,.cls-12,.cls-13,.cls-16,.cls-5,.cls-7{fill:none;stroke-miterlimit:10;}.cls-13,.cls-5{stroke:#abced4;}.cls-5{stroke-width:2.65px;}.cls-6{font-size:19px;}.cls-15,.cls-6,.cls-9{font-family:Co-ext-Bold, Co Text ;font-weight:700;}.cls-16,.cls-7{stroke:#d3abd0;}.cls-7{stroke-width:1.96px;}.cls-8{font-size:16px;fill:#505150;font-family:Co-Text-Light, Co Text ;font-weight:300;}.cls-15,.cls-9{font-size:17px;}.cls-11,.cls-9{fill:#7e989b;}.cls-10,.cls-12{stroke:#7e989b;}.cls-10,.cls-12,.cls-16{stroke-linecap:round;}.cls-10{stroke-width:2.47px;}.cls-12{stroke-width:2.89px;}.cls-13{stroke-width:2.26px;}.cls-14{fill:#c3dee0;}.cls-16{stroke-width:3px;}</style></defs><g id="Layer_2" data-name="Layer 2"><g id="Layer_1-2" data-name="Layer 1"><rect class="cls-1" x="0.98" y="36.61" width="351.03" height="535.97" rx="4.35"/><rect class="cls-2" x="12.05" y="59.2" width="331.04" height="274.02" rx="5.07"/><rect class="cls-2" x="10.04" y="357.99" width="332.91" height="199.64" rx="6.77"/><rect class="cls-3" x="40.02" y="71.29" width="275.21" height="249.26" rx="14.3"/><rect class="cls-4" x="47.7" y="253.02" width="260.37" height="48.66" rx="6.14"/><rect class="cls-5" x="12.05" y="59.2" width="331.04" height="274.02" rx="5.07"/><text class="cls-6" transform="translate(140.51 353.47)">ASIDE</text><text class="cls-6" transform="translate(140.94 54.68)">MAIN</text><rect class="cls-7" x="0.98" y="36.61" width="351.03" height="535.97" rx="4.35"/><text class="cls-8" transform="translate(359.52 288.46)">fex-direction:<tspan x="0" y="19.2">row;</tspan></text><text class="cls-8" transform="translate(385 145.27)">order : -1; </text><text class="cls-9" transform="translate(385 107.88)">fex-item<tspan x="0" y="20.4">(main)</tspan></text><path class="cls-10" d="M345.5,107.64a84.83,84.83,0,0,1,31.35-4.29q3,.18,5.86.55"/><polygon class="cls-11" points="356.32 115 357.4 112.78 346.44 107.46 352.55 96.92 350.41 95.68 342.98 108.52 356.32 115"/><text class="cls-9" transform="translate(359.52 272.16)">fex-container</text><path class="cls-12" d="M307.11,271.39A156.68,156.68,0,0,1,350.52,267c2.73.11,5.41.3,8,.54"/><polygon class="cls-11" points="319.11 280.86 320.56 278.35 308.21 271.22 316.23 259.42 313.84 257.8 304.08 272.17 319.11 280.86"/><rect class="cls-13" x="10.04" y="357.99" width="332.91" height="199.64" rx="6.77"/><rect class="cls-14" x="115.34" y="427.04" width="102.28" height="64.61" rx="10.56"/><rect class="cls-14" x="50.86" y="85.01" width="25.24" height="25.24" rx="1.38"/><rect class="cls-14" x="50.86" y="129.39" width="253.21" height="60.03" rx="6.73"/><rect class="cls-14" x="50.86" y="208.55" width="253.21" height="27.08" rx="4.52"/><rect class="cls-14" x="58.87" y="264.13" width="113.35" height="27.08" rx="3.02"/><rect class="cls-14" x="183.47" y="264.13" width="113.35" height="27.08" rx="3.02"/><text class="cls-15" transform="translate(77.19 14.34)">fex-container</text><path class="cls-16" d="M202,9.57c.74-.06,16.33-1,24.58,11.08a25.53,25.53,0,0,1,4.3,14.06"/><polygon class="cls-17" points="217.17 26.05 219.16 23.8 230.25 33.58 239.2 21.79 241.59 23.61 230.69 37.96 217.17 26.05"/></g></g></svg>