<?xml version="1.0" encoding="utf-8"?>
<!-- Generator: Adobe Illustrator 24.2.3, SVG Export Plug-In . SVG Version: 6.00 Build 0)  -->
<svg version="1.1" id="Icons" xmlns="http://www.w3.org/2000/svg" xmlns:xlink="http://www.w3.org/1999/xlink" x="0px" y="0px"
	 viewBox="0 0 32 32" style="enable-background:new 0 0 32 32;" xml:space="preserve">
<style type="text/css">
	.st0{fill:none;stroke:#505050;stroke-width:2;stroke-linecap:round;stroke-linejoin:round;stroke-miterlimit:10;}
</style>
<path class="st0" d="M22,3H7.5C5,3,3,5,3,7.5S5,12,7.5,12h10C20,12,22,10,22,7.5V7c0-2.2,1.8-4,4-4H22z"/>
<path class="st0" d="M23,6c2.2,0,4,2,4,4.5S25.2,15,23,15c-1.6,0-2.9-1-3.6-2.4"/>
<path class="st0" d="M7,12L7,12c0,1.7,1.3,3,3,3h13"/>
<path class="st0" d="M22,6.5c0-0.5,0.1-1,0.3-1.4C22.9,3.9,24.1,3,25.5,3l0,0C27.4,3,29,4.6,29,6.5l0,0c0,1.7-0.8,3.2-2,4.2"/>
<line class="st0" x1="12" y1="18" x2="18" y2="18"/>
<path class="st0" d="M15,18v4.6c0,1.9,1.5,3.4,3.4,3.4H22"/>
<path class="st0" d="M24,29h-2c-1.1,0-2-0.9-2-2v-2c0-1.1,0.9-2,2-2h2c1.1,0,2,0.9,2,2v2C26,28.1,25.1,29,24,29z"/>
<line class="st0" x1="7" y1="8" x2="16" y2="8"/>
</svg>
