<?xml version="1.0" encoding="utf-8"?>
<!-- Generator: Adobe Illustrator 24.2.3, SVG Export Plug-In . SVG Version: 6.00 Build 0)  -->
<svg version="1.1" id="Layer_1" xmlns="http://www.w3.org/2000/svg" xmlns:xlink="http://www.w3.org/1999/xlink" x="0px" y="0px"
	 viewBox="0 0 64 64" style="enable-background:new 0 0 64 64;" xml:space="preserve">
<style type="text/css">
	.st0{fill:#707070;}
</style>
<g>
	<g id="Icon-Search" transform="translate(30.000000, 230.000000)">
		<path id="Fill-1" class="st0" d="M-2.3-182.9c-10.7,0-19.5-8.7-19.5-19.5c0-10.7,8.7-19.5,19.5-19.5s19.5,8.7,19.5,19.5
			C17.1-191.6,8.4-182.9-2.3-182.9L-2.3-182.9z M-2.3-219c-9.2,0-16.7,7.5-16.7,16.7s7.5,16.7,16.7,16.7s16.7-7.5,16.7-16.7
			C14.3-211.5,6.8-219-2.3-219L-2.3-219z"/>
		<polyline id="Fill-2" class="st0" points="23.7,-174.2 10.1,-187.7 12.3,-189.9 25.8,-176.3 23.7,-174.2 		"/>
	</g>
</g>
</svg>
