<svg xmlns="http://www.w3.org/2000/svg" viewBox="0 0 956.93 768.21"><defs><style>.cls-1,.cls-2{fill:#abced4;}.cls-2{opacity:0.33;}.cls-3{fill:#7dadb2;opacity:0.33;}</style></defs><g id="Layer_2" data-name="Layer 2"><g id="Layer_1-2" data-name="Layer 1"><rect class="cls-1" x="31.07" y="26.2" width="128.69" height="38.21" rx="2.63"/><rect class="cls-2" x="24.79" y="134.55" width="128.69" height="38.21" rx="2.63"/><rect class="cls-2" x="24.79" y="185.61" width="128.69" height="38.21" rx="2.63"/><rect class="cls-2" x="24.79" y="236.67" width="128.69" height="38.21" rx="2.63"/><rect class="cls-2" x="24.79" y="287.73" width="128.69" height="38.21" rx="2.63"/><rect class="cls-1" x="847.15" y="27.52" width="85.45" height="38.21" rx="2.63"/><rect class="cls-1" x="803.22" y="131.46" width="130.08" height="97.32" rx="2.63"/><rect class="cls-2" x="219.23" y="306.84" width="156.43" height="121.87" rx="2.63"/><path class="cls-3" d="M221.27,448.58h2.18v15h7.19v1.83h-9.37Z"/><path class="cls-3" d="M243.59,459.28c0,4.47-3.09,6.42-6,6.42-3.27,0-5.8-2.4-5.8-6.22,0-4.05,2.65-6.43,6-6.43S243.59,455.58,243.59,459.28Zm-9.59.12c0,2.65,1.52,4.65,3.67,4.65s3.67-2,3.67-4.7c0-2.05-1-4.65-3.62-4.65S234,457.1,234,459.4Z"/><path class="cls-3" d="M246.37,457.1c0-1.42,0-2.65-.1-3.77h1.93l.07,2.37h.1a3.64,3.64,0,0,1,3.35-2.65,2.33,2.33,0,0,1,.62.08v2.07a3.24,3.24,0,0,0-.75-.07,3.08,3.08,0,0,0-2.94,2.82,6.2,6.2,0,0,0-.1,1v6.45h-2.18Z"/><path class="cls-3" d="M255.52,459.78a3.88,3.88,0,0,0,4.15,4.2,8,8,0,0,0,3.35-.63l.37,1.58a9.77,9.77,0,0,1-4,.75c-3.72,0-6-2.45-6-6.1s2.15-6.53,5.67-6.53c4,0,5,3.48,5,5.7a9.94,9.94,0,0,1-.07,1ZM262,458.2c0-1.4-.58-3.57-3.05-3.57-2.22,0-3.2,2.05-3.37,3.57Z"/><path class="cls-3" d="M266.82,456.6c0-1.25,0-2.27-.1-3.27h1.93l.1,1.95h.07a4.18,4.18,0,0,1,3.8-2.23,3.56,3.56,0,0,1,3.42,2.43h0a5.07,5.07,0,0,1,1.35-1.58,4.15,4.15,0,0,1,2.68-.85c1.6,0,4,1.05,4,5.25v7.13h-2.15v-6.85c0-2.33-.85-3.73-2.62-3.73a2.85,2.85,0,0,0-2.6,2,3.62,3.62,0,0,0-.18,1.1v7.48h-2.15v-7.25c0-1.93-.85-3.33-2.52-3.33a3,3,0,0,0-2.72,2.2,3,3,0,0,0-.18,1.08v7.3h-2.15Z"/><path class="cls-3" d="M294.27,449.93a1.29,1.29,0,0,1-1.4,1.35,1.31,1.31,0,0,1-1.32-1.35,1.34,1.34,0,0,1,1.37-1.37A1.3,1.3,0,0,1,294.27,449.93Zm-2.45,15.5v-12.1H294v12.1Z"/><path class="cls-3" d="M297.67,457.28c0-1.55-.05-2.8-.1-3.95h2l.1,2.07h.05a4.76,4.76,0,0,1,4.3-2.35c2.92,0,5.12,2.48,5.12,6.15,0,4.35-2.65,6.5-5.5,6.5a4.23,4.23,0,0,1-3.72-1.9h0v6.58h-2.18Zm2.18,3.22a4.85,4.85,0,0,0,.1.9,3.39,3.39,0,0,0,3.3,2.58c2.32,0,3.67-1.9,3.67-4.68,0-2.42-1.27-4.5-3.6-4.5a3.51,3.51,0,0,0-3.32,2.73,3.32,3.32,0,0,0-.15.9Z"/><path class="cls-3" d="M311.6,463.18a5.81,5.81,0,0,0,2.9.87c1.6,0,2.35-.8,2.35-1.8s-.63-1.62-2.25-2.22c-2.18-.78-3.2-2-3.2-3.43,0-2,1.57-3.55,4.17-3.55a6.06,6.06,0,0,1,3,.75l-.55,1.6a4.73,4.73,0,0,0-2.48-.7c-1.3,0-2,.75-2,1.65s.72,1.45,2.3,2c2.1.8,3.17,1.85,3.17,3.65,0,2.13-1.65,3.63-4.52,3.63a6.89,6.89,0,0,1-3.4-.83Z"/><path class="cls-3" d="M331.92,462.13c0,1.25,0,2.35.1,3.3h-1.95l-.12-2h-.05a4.55,4.55,0,0,1-4,2.25c-1.9,0-4.18-1.05-4.18-5.3v-7.07h2.2V460c0,2.3.7,3.85,2.7,3.85a3.1,3.1,0,0,0,3.1-3.13v-7.42h2.2Z"/><path class="cls-3" d="M335.57,456.6c0-1.25,0-2.27-.1-3.27h1.93l.1,1.95h.07a4.18,4.18,0,0,1,3.8-2.23,3.59,3.59,0,0,1,3.43,2.43h.05a4.94,4.94,0,0,1,1.35-1.58,4.11,4.11,0,0,1,2.67-.85c1.6,0,4,1.05,4,5.25v7.13H350.7v-6.85c0-2.33-.86-3.73-2.63-3.73a2.86,2.86,0,0,0-2.6,2,3.63,3.63,0,0,0-.17,1.1v7.48h-2.15v-7.25c0-1.93-.85-3.33-2.53-3.33a3,3,0,0,0-2.72,2.2,3,3,0,0,0-.18,1.08v7.3h-2.15Z"/><path class="cls-3" d="M371,447.68V462.3c0,1.08,0,2.3.1,3.13h-2l-.1-2.1H369a4.48,4.48,0,0,1-4.13,2.37c-2.92,0-5.17-2.47-5.17-6.15,0-4,2.48-6.5,5.42-6.5a4.06,4.06,0,0,1,3.65,1.85h.05v-7.22Zm-2.2,10.57a3.6,3.6,0,0,0-.1-.92,3.23,3.23,0,0,0-3.17-2.55c-2.27,0-3.62,2-3.62,4.67,0,2.45,1.2,4.48,3.57,4.48a3.31,3.31,0,0,0,3.22-2.63,3.6,3.6,0,0,0,.1-.95Z"/><path class="cls-3" d="M385.62,459.28c0,4.47-3.1,6.42-6,6.42-3.27,0-5.8-2.4-5.8-6.22,0-4.05,2.65-6.43,6-6.43S385.62,455.58,385.62,459.28Zm-9.59.12c0,2.65,1.52,4.65,3.67,4.65s3.67-2,3.67-4.7c0-2.05-1-4.65-3.62-4.65S376,457.1,376,459.4Z"/><path class="cls-3" d="M388.4,447.68h2.2v17.75h-2.2Z"/><path class="cls-3" d="M405.25,459.28c0,4.47-3.1,6.42-6,6.42-3.27,0-5.79-2.4-5.79-6.22,0-4.05,2.65-6.43,6-6.43S405.25,455.58,405.25,459.28Zm-9.6.12c0,2.65,1.53,4.65,3.68,4.65s3.67-2,3.67-4.7c0-2.05-1-4.65-3.63-4.65S395.65,457.1,395.65,459.4Z"/><path class="cls-3" d="M408,457.1c0-1.42,0-2.65-.1-3.77h1.92l.07,2.37H410a3.63,3.63,0,0,1,3.34-2.65,2.41,2.41,0,0,1,.63.08v2.07a3.36,3.36,0,0,0-.75-.07A3.08,3.08,0,0,0,410.3,458a6.2,6.2,0,0,0-.1,1v6.45H408Z"/><path class="cls-3" d="M420.05,463.18a5.81,5.81,0,0,0,2.9.87c1.6,0,2.35-.8,2.35-1.8s-.62-1.62-2.25-2.22c-2.17-.78-3.2-2-3.2-3.43,0-2,1.58-3.55,4.18-3.55a6,6,0,0,1,3,.75l-.55,1.6a4.69,4.69,0,0,0-2.47-.7c-1.3,0-2,.75-2,1.65s.73,1.45,2.3,2c2.1.8,3.18,1.85,3.18,3.65,0,2.13-1.65,3.63-4.53,3.63a6.91,6.91,0,0,1-3.4-.83Z"/><path class="cls-3" d="M432.7,449.93a1.29,1.29,0,0,1-1.4,1.35,1.31,1.31,0,0,1-1.32-1.35,1.34,1.34,0,0,1,1.37-1.37A1.3,1.3,0,0,1,432.7,449.93Zm-2.45,15.5v-12.1h2.2v12.1Z"/><path class="cls-3" d="M438.75,449.86v3.47h3.15V455h-3.15v6.53c0,1.5.43,2.35,1.65,2.35a5.17,5.17,0,0,0,1.28-.15l.1,1.65a5.52,5.52,0,0,1-1.95.3,3.06,3.06,0,0,1-2.38-.93,4.5,4.5,0,0,1-.85-3.15V455h-1.87v-1.67h1.87v-2.9Z"/><path class="cls-3" d="M455.23,465.43l-.18-1.53H455a4.52,4.52,0,0,1-3.7,1.8,3.44,3.44,0,0,1-3.7-3.47c0-2.93,2.6-4.53,7.27-4.5v-.25a2.49,2.49,0,0,0-2.75-2.8,6,6,0,0,0-3.14.9l-.5-1.45a7.51,7.51,0,0,1,4-1.08c3.7,0,4.6,2.53,4.6,4.95v4.53a17.07,17.07,0,0,0,.2,2.9Zm-.33-6.18c-2.4-.05-5.12.38-5.12,2.73a2,2,0,0,0,2.07,2.1,3,3,0,0,0,2.93-2,2.39,2.39,0,0,0,.12-.7Z"/><path class="cls-3" d="M460.58,456.6c0-1.25,0-2.27-.1-3.27h1.93l.09,1.95h.08a4.17,4.17,0,0,1,3.8-2.23,3.56,3.56,0,0,1,3.42,2.43h.05a5.07,5.07,0,0,1,1.35-1.58,4.15,4.15,0,0,1,2.68-.85c1.6,0,4,1.05,4,5.25v7.13H475.7v-6.85c0-2.33-.85-3.73-2.62-3.73a2.85,2.85,0,0,0-2.6,2,3.62,3.62,0,0,0-.18,1.1v7.48h-2.15v-7.25c0-1.93-.85-3.33-2.52-3.33a3,3,0,0,0-2.72,2.2,3,3,0,0,0-.18,1.08v7.3h-2.15Z"/><path class="cls-3" d="M482.66,459.78a3.88,3.88,0,0,0,4.14,4.2,7.91,7.91,0,0,0,3.35-.63l.38,1.58a9.83,9.83,0,0,1-4,.75c-3.72,0-5.94-2.45-5.94-6.1s2.15-6.53,5.67-6.53c3.95,0,5,3.48,5,5.7a7.4,7.4,0,0,1-.08,1Zm6.44-1.58c0-1.4-.57-3.57-3.05-3.57-2.22,0-3.19,2.05-3.37,3.57Z"/><path class="cls-3" d="M496.6,449.86v3.47h3.15V455H496.6v6.53c0,1.5.43,2.35,1.65,2.35a5.17,5.17,0,0,0,1.28-.15l.1,1.65a5.52,5.52,0,0,1-1.95.3,3.06,3.06,0,0,1-2.38-.93,4.5,4.5,0,0,1-.84-3.15V455h-1.88v-1.67h1.88v-2.9Z"/><path class="cls-3" d="M500.73,468.5a35.42,35.42,0,0,0,1.5-6l2.45-.25a30.14,30.14,0,0,1-2.37,6.07Z"/><path class="cls-3" d="M520.11,465a8.13,8.13,0,0,1-3.48.7c-3.65,0-6-2.48-6-6.18a6.15,6.15,0,0,1,6.5-6.42,7.37,7.37,0,0,1,3,.62l-.5,1.7a5.12,5.12,0,0,0-2.55-.57c-2.78,0-4.28,2.05-4.28,4.57,0,2.8,1.8,4.53,4.2,4.53a6.3,6.3,0,0,0,2.7-.6Z"/><path class="cls-3" d="M533.48,459.28c0,4.47-3.1,6.42-6,6.42-3.28,0-5.8-2.4-5.8-6.22,0-4.05,2.65-6.43,6-6.43S533.48,455.58,533.48,459.28Zm-9.6.12c0,2.65,1.53,4.65,3.68,4.65s3.67-2,3.67-4.7c0-2.05-1-4.65-3.62-4.65S523.88,457.1,523.88,459.4Z"/><path class="cls-3" d="M536.26,456.6c0-1.25,0-2.27-.1-3.27h2l.12,2h0a4.45,4.45,0,0,1,4-2.28c1.68,0,4.28,1,4.28,5.15v7.23h-2.2v-7c0-1.95-.73-3.57-2.8-3.57a3.23,3.23,0,0,0-3.1,3.27v7.28h-2.2Z"/><path class="cls-3" d="M549.83,463.18a5.81,5.81,0,0,0,2.9.87c1.6,0,2.35-.8,2.35-1.8s-.62-1.62-2.25-2.22c-2.17-.78-3.2-2-3.2-3.43,0-2,1.58-3.55,4.18-3.55a6,6,0,0,1,3,.75l-.55,1.6a4.69,4.69,0,0,0-2.47-.7c-1.3,0-2,.75-2,1.65s.73,1.45,2.3,2c2.1.8,3.18,1.85,3.18,3.65,0,2.13-1.65,3.63-4.53,3.63a6.91,6.91,0,0,1-3.4-.83Z"/><path class="cls-3" d="M561.26,459.78a3.88,3.88,0,0,0,4.15,4.2,8,8,0,0,0,3.35-.63l.37,1.58a9.77,9.77,0,0,1-4,.75c-3.73,0-6-2.45-6-6.1s2.15-6.53,5.67-6.53c3.95,0,5,3.48,5,5.7a7.4,7.4,0,0,1-.08,1Zm6.45-1.58c0-1.4-.58-3.57-3.05-3.57-2.23,0-3.2,2.05-3.38,3.57Z"/><path class="cls-3" d="M581.18,465a8.08,8.08,0,0,1-3.47.7c-3.65,0-6-2.48-6-6.18a6.15,6.15,0,0,1,6.5-6.42,7.37,7.37,0,0,1,3.05.62l-.5,1.7a5.09,5.09,0,0,0-2.55-.57c-2.77,0-4.27,2.05-4.27,4.57,0,2.8,1.8,4.53,4.2,4.53a6.34,6.34,0,0,0,2.7-.6Z"/><path class="cls-3" d="M586.73,449.86v3.47h3.15V455h-3.15v6.53c0,1.5.43,2.35,1.65,2.35a5.17,5.17,0,0,0,1.28-.15l.1,1.65a5.52,5.52,0,0,1-2,.3,3.06,3.06,0,0,1-2.38-.93,4.5,4.5,0,0,1-.85-3.15V455h-1.87v-1.67h1.87v-2.9Z"/><path class="cls-3" d="M593.43,459.78a3.88,3.88,0,0,0,4.15,4.2,7.91,7.91,0,0,0,3.35-.63l.37,1.58a9.73,9.73,0,0,1-4,.75c-3.72,0-5.95-2.45-5.95-6.1s2.15-6.53,5.68-6.53c4,0,5,3.48,5,5.7a7.73,7.73,0,0,1-.07,1Zm6.45-1.58c0-1.4-.57-3.57-3-3.57-2.22,0-3.2,2.05-3.37,3.57Z"/><path class="cls-3" d="M607.38,449.86v3.47h3.15V455h-3.15v6.53c0,1.5.43,2.35,1.65,2.35a5.17,5.17,0,0,0,1.28-.15l.1,1.65a5.52,5.52,0,0,1-1.95.3,3.06,3.06,0,0,1-2.38-.93,4.5,4.5,0,0,1-.85-3.15V455h-1.87v-1.67h1.87v-2.9Z"/><path class="cls-3" d="M623.13,462.13c0,1.25,0,2.35.1,3.3h-2l-.12-2h0a4.55,4.55,0,0,1-4,2.25c-1.9,0-4.18-1.05-4.18-5.3v-7.07h2.2V460c0,2.3.7,3.85,2.7,3.85a3.1,3.1,0,0,0,3.1-3.13v-7.42h2.2Z"/><path class="cls-3" d="M628,459.78a3.88,3.88,0,0,0,4.15,4.2,7.89,7.89,0,0,0,3.34-.63l.38,1.58a9.81,9.81,0,0,1-4,.75c-3.73,0-6-2.45-6-6.1s2.15-6.53,5.67-6.53c3.95,0,5,3.48,5,5.7a7.4,7.4,0,0,1-.08,1Zm6.45-1.58c0-1.4-.58-3.57-3.05-3.57-2.23,0-3.2,2.05-3.38,3.57Z"/><path class="cls-3" d="M639.31,457.1c0-1.42,0-2.65-.1-3.77h1.92l.08,2.37h.1a3.63,3.63,0,0,1,3.35-2.65,2.33,2.33,0,0,1,.62.08v2.07a3.3,3.3,0,0,0-.75-.07,3.08,3.08,0,0,0-2.95,2.82,6.2,6.2,0,0,0-.1,1v6.45h-2.17Z"/><path class="cls-3" d="M658.33,465.43l-.17-1.53h-.08a4.49,4.49,0,0,1-3.7,1.8,3.44,3.44,0,0,1-3.7-3.47c0-2.93,2.6-4.53,7.28-4.5v-.25a2.5,2.5,0,0,0-2.75-2.8,6,6,0,0,0-3.15.9l-.5-1.45a7.51,7.51,0,0,1,4-1.08c3.7,0,4.6,2.53,4.6,4.95v4.53a17.07,17.07,0,0,0,.2,2.9Zm-.32-6.18c-2.4-.05-5.13.38-5.13,2.73a2,2,0,0,0,2.08,2.1,3,3,0,0,0,2.92-2,2.11,2.11,0,0,0,.13-.7Z"/><path class="cls-3" d="M674.13,447.68V462.3c0,1.08,0,2.3.1,3.13h-2l-.1-2.1h0A4.48,4.48,0,0,1,668,465.7c-2.92,0-5.17-2.47-5.17-6.15,0-4,2.47-6.5,5.42-6.5a4.06,4.06,0,0,1,3.65,1.85h0v-7.22Zm-2.2,10.57a3.6,3.6,0,0,0-.1-.92,3.23,3.23,0,0,0-3.17-2.55c-2.28,0-3.63,2-3.63,4.67,0,2.45,1.2,4.48,3.58,4.48a3.31,3.31,0,0,0,3.22-2.63,3.6,3.6,0,0,0,.1-.95Z"/><path class="cls-3" d="M680.23,449.93a1.29,1.29,0,0,1-1.4,1.35,1.31,1.31,0,0,1-1.32-1.35,1.34,1.34,0,0,1,1.37-1.37A1.3,1.3,0,0,1,680.23,449.93Zm-2.45,15.5v-12.1H680v12.1Z"/><path class="cls-3" d="M683.63,457.28c0-1.55,0-2.8-.1-3.95h2l.1,2.07h0a4.76,4.76,0,0,1,4.3-2.35c2.92,0,5.12,2.48,5.12,6.15,0,4.35-2.65,6.5-5.5,6.5a4.23,4.23,0,0,1-3.72-1.9h-.05v6.58h-2.18Zm2.18,3.22a4.85,4.85,0,0,0,.1.9,3.39,3.39,0,0,0,3.3,2.58c2.32,0,3.67-1.9,3.67-4.68,0-2.42-1.27-4.5-3.6-4.5a3.51,3.51,0,0,0-3.32,2.73,3.32,3.32,0,0,0-.15.9Z"/><path class="cls-3" d="M700.31,449.93a1.37,1.37,0,0,1-2.73,0,1.34,1.34,0,0,1,1.38-1.37A1.31,1.31,0,0,1,700.31,449.93Zm-2.45,15.5v-12.1h2.2v12.1Z"/><path class="cls-3" d="M703.41,463.18a5.81,5.81,0,0,0,2.9.87c1.6,0,2.35-.8,2.35-1.8s-.63-1.62-2.25-2.22c-2.18-.78-3.2-2-3.2-3.43,0-2,1.57-3.55,4.17-3.55a6.06,6.06,0,0,1,3,.75l-.55,1.6a4.73,4.73,0,0,0-2.48-.7c-1.3,0-2,.75-2,1.65s.72,1.45,2.3,2c2.1.8,3.17,1.85,3.17,3.65,0,2.13-1.65,3.63-4.52,3.63a6.89,6.89,0,0,1-3.4-.83Z"/><path class="cls-3" d="M722.23,465a8.08,8.08,0,0,1-3.47.7c-3.65,0-6-2.48-6-6.18a6.15,6.15,0,0,1,6.5-6.42,7.37,7.37,0,0,1,3,.62l-.5,1.7a5.09,5.09,0,0,0-2.55-.57c-2.77,0-4.27,2.05-4.27,4.57,0,2.8,1.8,4.53,4.2,4.53a6.34,6.34,0,0,0,2.7-.6Z"/><path class="cls-3" d="M730,457.85v1.63h-6.17v-1.63Z"/><path class="cls-3" d="M223.5,479.93a1.29,1.29,0,0,1-1.4,1.35,1.31,1.31,0,0,1-1.32-1.35,1.34,1.34,0,0,1,1.37-1.37A1.3,1.3,0,0,1,223.5,479.93Zm-2.45,15.5v-12.1h2.2v12.1Z"/><path class="cls-3" d="M226.9,486.6c0-1.25,0-2.27-.1-3.27h1.95l.13,2h.05a4.45,4.45,0,0,1,4-2.28c1.67,0,4.27,1,4.27,5.15v7.23H235v-7c0-1.95-.72-3.57-2.8-3.57a3.23,3.23,0,0,0-3.1,3.27v7.28h-2.2Z"/><path class="cls-3" d="M251.2,483.33c0,.87-.1,1.85-.1,3.32v7c0,2.77-.55,4.47-1.72,5.52a6.43,6.43,0,0,1-4.4,1.45,7.84,7.84,0,0,1-4-1l.55-1.67a6.82,6.82,0,0,0,3.55.95c2.25,0,3.9-1.18,3.9-4.23v-1.35h0a4.3,4.3,0,0,1-3.85,2c-3,0-5.15-2.55-5.15-5.9,0-4.1,2.68-6.43,5.45-6.43a4,4,0,0,1,3.78,2.1h.05l.1-1.82Zm-2.27,4.77a3.23,3.23,0,0,0-3.2-3.32c-2.1,0-3.6,1.77-3.6,4.57,0,2.38,1.2,4.35,3.57,4.35a3.21,3.21,0,0,0,3.05-2.25,3.66,3.66,0,0,0,.18-1.17Z"/><path class="cls-3" d="M261.28,489.78a3.88,3.88,0,0,0,4.15,4.2,8,8,0,0,0,3.35-.63l.37,1.58a9.81,9.81,0,0,1-4,.75c-3.73,0-5.95-2.45-5.95-6.1s2.15-6.53,5.67-6.53c3.95,0,5,3.48,5,5.7a7.4,7.4,0,0,1-.08,1Zm6.45-1.58c0-1.4-.58-3.57-3.05-3.57-2.23,0-3.2,2.05-3.38,3.57Z"/><path class="cls-3" d="M272.58,477.68h2.2v17.75h-2.2Z"/><path class="cls-3" d="M280.93,479.93a1.37,1.37,0,0,1-2.73,0,1.34,1.34,0,0,1,1.38-1.37A1.31,1.31,0,0,1,280.93,479.93Zm-2.45,15.5v-12.1h2.2v12.1Z"/><path class="cls-3" d="M287,479.86v3.47h3.14V485H287v6.53c0,1.5.42,2.35,1.64,2.35a5.17,5.17,0,0,0,1.28-.15l.1,1.65a5.48,5.48,0,0,1-1.95.3,3,3,0,0,1-2.37-.93,4.45,4.45,0,0,1-.85-3.15V485H283v-1.67h1.88v-2.9Z"/><path class="cls-3" d="M291.1,498.5a35.42,35.42,0,0,0,1.5-6l2.45-.25a30.14,30.14,0,0,1-2.37,6.07Z"/><path class="cls-3" d="M302.7,493.18a5.81,5.81,0,0,0,2.9.87c1.6,0,2.35-.8,2.35-1.8s-.62-1.62-2.25-2.22c-2.17-.78-3.2-2-3.2-3.43,0-2,1.58-3.55,4.18-3.55a6,6,0,0,1,3,.75l-.55,1.6a4.73,4.73,0,0,0-2.48-.7c-1.29,0-2,.75-2,1.65s.73,1.45,2.3,2c2.1.8,3.17,1.85,3.17,3.65,0,2.13-1.65,3.63-4.52,3.63a6.91,6.91,0,0,1-3.4-.83Z"/><path class="cls-3" d="M314.12,489.78a3.89,3.89,0,0,0,4.15,4.2,7.91,7.91,0,0,0,3.35-.63l.38,1.58a9.83,9.83,0,0,1-4,.75c-3.72,0-5.94-2.45-5.94-6.1s2.15-6.53,5.67-6.53c3.95,0,5,3.48,5,5.7a7.4,7.4,0,0,1-.08,1Zm6.45-1.58c0-1.4-.57-3.57-3.05-3.57-2.22,0-3.19,2.05-3.37,3.57Z"/><path class="cls-3" d="M335.87,477.68V492.3c0,1.08,0,2.3.1,3.13h-2l-.1-2.1h0a4.48,4.48,0,0,1-4.13,2.37c-2.92,0-5.17-2.47-5.17-6.15,0-4,2.48-6.5,5.42-6.5a4.06,4.06,0,0,1,3.65,1.85h.05v-7.22Zm-2.2,10.57a3.6,3.6,0,0,0-.1-.92,3.23,3.23,0,0,0-3.17-2.55c-2.28,0-3.62,2-3.62,4.67,0,2.45,1.2,4.48,3.57,4.48a3.31,3.31,0,0,0,3.22-2.63,3.6,3.6,0,0,0,.1-.95Z"/><path class="cls-3" d="M355.27,477.68V492.3c0,1.08,0,2.3.1,3.13h-2l-.1-2.1h-.05a4.48,4.48,0,0,1-4.13,2.37c-2.92,0-5.17-2.47-5.17-6.15,0-4,2.47-6.5,5.42-6.5A4.06,4.06,0,0,1,353,484.9h.05v-7.22Zm-2.2,10.57a3.6,3.6,0,0,0-.1-.92,3.23,3.23,0,0,0-3.17-2.55c-2.28,0-3.63,2-3.63,4.67,0,2.45,1.2,4.48,3.58,4.48A3.31,3.31,0,0,0,353,491.3a3.6,3.6,0,0,0,.1-.95Z"/><path class="cls-3" d="M361.37,479.93a1.29,1.29,0,0,1-1.4,1.35,1.31,1.31,0,0,1-1.32-1.35,1.34,1.34,0,0,1,1.37-1.37A1.3,1.3,0,0,1,361.37,479.93Zm-2.45,15.5v-12.1h2.2v12.1Z"/><path class="cls-3" d="M371.47,495.43l-.17-1.53h-.08a4.49,4.49,0,0,1-3.7,1.8,3.43,3.43,0,0,1-3.69-3.47c0-2.93,2.59-4.53,7.27-4.5v-.25a2.5,2.5,0,0,0-2.75-2.8,6,6,0,0,0-3.15.9l-.5-1.45a7.51,7.51,0,0,1,4-1.08c3.7,0,4.6,2.53,4.6,4.95v4.53a17.07,17.07,0,0,0,.2,2.9Zm-.32-6.18c-2.4-.05-5.13.38-5.13,2.73a2,2,0,0,0,2.08,2.1,3,3,0,0,0,2.92-2,2.11,2.11,0,0,0,.13-.7Z"/><path class="cls-3" d="M376.83,486.6c0-1.25,0-2.27-.1-3.27h1.92l.1,1.95h.08a4.15,4.15,0,0,1,3.79-2.23,3.59,3.59,0,0,1,3.43,2.43h.05a4.94,4.94,0,0,1,1.35-1.58,4.11,4.11,0,0,1,2.67-.85c1.6,0,4,1.05,4,5.25v7.13H392v-6.85c0-2.33-.85-3.73-2.63-3.73a2.86,2.86,0,0,0-2.6,2,3.63,3.63,0,0,0-.17,1.1v7.48H384.4v-7.25c0-1.93-.85-3.33-2.53-3.33a3,3,0,0,0-2.72,2.2,3.18,3.18,0,0,0-.18,1.08v7.3h-2.14Z"/><path class="cls-3" d="M403,486.6c0-1.25,0-2.27-.1-3.27h1.95l.13,2H405a4.45,4.45,0,0,1,4-2.28c1.67,0,4.27,1,4.27,5.15v7.23h-2.2v-7c0-1.95-.72-3.57-2.8-3.57a3.23,3.23,0,0,0-3.1,3.27v7.28H403Z"/><path class="cls-3" d="M427.8,489.28c0,4.47-3.1,6.42-6,6.42-3.27,0-5.79-2.4-5.79-6.22,0-4.05,2.64-6.43,6-6.43S427.8,485.58,427.8,489.28Zm-9.6.12c0,2.65,1.52,4.65,3.67,4.65s3.68-2,3.68-4.7c0-2.05-1-4.65-3.63-4.65S418.2,487.1,418.2,489.4Z"/><path class="cls-3" d="M430.57,486.6c0-1.25,0-2.27-.1-3.27h1.95l.13,2h.05a4.45,4.45,0,0,1,4-2.28c1.67,0,4.27,1,4.27,5.15v7.23h-2.2v-7c0-1.95-.72-3.57-2.8-3.57a3.23,3.23,0,0,0-3.1,3.27v7.28h-2.2Z"/><path class="cls-3" d="M454.57,492.13c0,1.25,0,2.35.1,3.3h-1.95l-.12-2h-.05a4.55,4.55,0,0,1-4,2.25c-1.9,0-4.18-1.05-4.18-5.3v-7.07h2.2V490c0,2.3.7,3.85,2.7,3.85a3.1,3.1,0,0,0,3.1-3.13v-7.42h2.2Z"/><path class="cls-3" d="M458.22,486.6c0-1.25,0-2.27-.1-3.27h1.93l.1,1.95h.07a4.18,4.18,0,0,1,3.8-2.23,3.59,3.59,0,0,1,3.43,2.43h.05a4.94,4.94,0,0,1,1.35-1.58,4.11,4.11,0,0,1,2.67-.85c1.6,0,4,1.05,4,5.25v7.13h-2.15v-6.85c0-2.33-.85-3.73-2.63-3.73a2.86,2.86,0,0,0-2.6,2A3.63,3.63,0,0,0,468,488v7.48H465.8v-7.25c0-1.93-.85-3.33-2.53-3.33a3,3,0,0,0-2.72,2.2,3,3,0,0,0-.18,1.08v7.3h-2.15Z"/><path class="cls-3" d="M479.07,486.6c0-1.25,0-2.27-.1-3.27h1.93l.1,1.95h.07a4.18,4.18,0,0,1,3.8-2.23,3.59,3.59,0,0,1,3.43,2.43h.05a4.94,4.94,0,0,1,1.35-1.58,4.11,4.11,0,0,1,2.67-.85c1.6,0,4,1.05,4,5.25v7.13H494.2v-6.85c0-2.33-.85-3.73-2.63-3.73a2.86,2.86,0,0,0-2.6,2,3.63,3.63,0,0,0-.17,1.1v7.48h-2.15v-7.25c0-1.93-.85-3.33-2.53-3.33a3,3,0,0,0-2.72,2.2,3,3,0,0,0-.18,1.08v7.3h-2.15Z"/><path class="cls-3" d="M500.4,483.33l2.65,7.15c.27.8.57,1.75.77,2.47h.05c.23-.72.48-1.65.78-2.52l2.4-7.1h2.32l-3.3,8.62c-1.57,4.15-2.65,6.28-4.15,7.58a5.87,5.87,0,0,1-2.7,1.42l-.55-1.85A5.72,5.72,0,0,0,500.6,498a6.76,6.76,0,0,0,1.85-2.45,1.56,1.56,0,0,0,.17-.53,1.9,1.9,0,0,0-.15-.57L498,483.33Z"/><path class="cls-3" d="M516.67,486.6c0-1.25,0-2.27-.1-3.27h1.95l.13,2h.05a4.45,4.45,0,0,1,4-2.28c1.67,0,4.27,1,4.27,5.15v7.23h-2.2v-7c0-1.95-.72-3.57-2.8-3.57a3.23,3.23,0,0,0-3.1,3.27v7.28h-2.2Z"/><path class="cls-3" d="M533,479.93a1.37,1.37,0,0,1-2.73,0,1.34,1.34,0,0,1,1.38-1.37A1.31,1.31,0,0,1,533,479.93Zm-2.45,15.5v-12.1h2.2v12.1Z"/><path class="cls-3" d="M536.3,495.43c.05-.83.1-2.05.1-3.13V477.68h2.17v7.6h0a4.52,4.52,0,0,1,4.13-2.23c3,0,5.12,2.5,5.1,6.18,0,4.32-2.73,6.47-5.43,6.47a4.31,4.31,0,0,1-4-2.27h-.07l-.1,2Zm2.27-4.85a4.17,4.17,0,0,0,.1.8A3.4,3.4,0,0,0,542,494c2.3,0,3.68-1.87,3.68-4.65,0-2.42-1.25-4.5-3.6-4.5a3.51,3.51,0,0,0-3.35,2.7,4.31,4.31,0,0,0-.13.9Z"/><path class="cls-3" d="M550.62,477.68h2.2v7.55h0a4,4,0,0,1,1.58-1.55,4.47,4.47,0,0,1,2.25-.63c1.62,0,4.22,1,4.22,5.18v7.2h-2.2v-6.95c0-2-.72-3.6-2.8-3.6a3.17,3.17,0,0,0-2.95,2.2,2.74,2.74,0,0,0-.15,1.05v7.3h-2.2Z"/><path class="cls-3" d="M571,489.78a3.88,3.88,0,0,0,4.15,4.2,7.91,7.91,0,0,0,3.35-.63l.38,1.58a9.83,9.83,0,0,1-4,.75c-3.72,0-6-2.45-6-6.1s2.15-6.53,5.68-6.53c3.95,0,5,3.48,5,5.7a7.4,7.4,0,0,1-.08,1Zm6.45-1.58c0-1.4-.57-3.57-3.05-3.57-2.22,0-3.2,2.05-3.37,3.57Z"/><path class="cls-3" d="M592.45,492.13c0,1.25,0,2.35.09,3.3H590.6l-.13-2h-.05a4.54,4.54,0,0,1-4,2.25c-1.9,0-4.17-1.05-4.17-5.3v-7.07h2.2V490c0,2.3.7,3.85,2.7,3.85a3.19,3.19,0,0,0,2.9-2,3.39,3.39,0,0,0,.2-1.13v-7.42h2.2Z"/><path class="cls-3" d="M598.55,479.93a1.37,1.37,0,0,1-2.73,0,1.34,1.34,0,0,1,1.38-1.37A1.31,1.31,0,0,1,598.55,479.93Zm-2.45,15.5v-12.1h2.2v12.1Z"/><path class="cls-3" d="M601.65,493.18a5.81,5.81,0,0,0,2.9.87c1.6,0,2.35-.8,2.35-1.8s-.63-1.62-2.25-2.22c-2.18-.78-3.2-2-3.2-3.43,0-2,1.57-3.55,4.17-3.55a6.06,6.06,0,0,1,3,.75l-.55,1.6a4.73,4.73,0,0,0-2.48-.7c-1.3,0-2,.75-2,1.65s.72,1.45,2.3,2c2.1.8,3.17,1.85,3.17,3.65,0,2.13-1.65,3.63-4.52,3.63a6.89,6.89,0,0,1-3.4-.83Z"/><path class="cls-3" d="M611.85,486.6c0-1.25,0-2.27-.1-3.27h1.92l.1,1.95h.08a4.17,4.17,0,0,1,3.8-2.23,3.58,3.58,0,0,1,3.42,2.43h0a5.07,5.07,0,0,1,1.35-1.58,4.11,4.11,0,0,1,2.67-.85c1.6,0,4,1.05,4,5.25v7.13H627v-6.85c0-2.33-.85-3.73-2.63-3.73a2.86,2.86,0,0,0-2.6,2,3.63,3.63,0,0,0-.17,1.1v7.48h-2.15v-7.25c0-1.93-.85-3.33-2.52-3.33a3,3,0,0,0-2.73,2.2,3.18,3.18,0,0,0-.17,1.08v7.3h-2.15Z"/><path class="cls-3" d="M643.64,489.28c0,4.47-3.09,6.42-6,6.42-3.27,0-5.8-2.4-5.8-6.22,0-4.05,2.65-6.43,6-6.43S643.64,485.58,643.64,489.28Zm-9.59.12c0,2.65,1.52,4.65,3.67,4.65s3.68-2,3.68-4.7c0-2.05-1-4.65-3.63-4.65S634.05,487.1,634.05,489.4Z"/><path class="cls-3" d="M656.87,477.68V492.3c0,1.08,0,2.3.1,3.13h-2l-.1-2.1h-.06a4.45,4.45,0,0,1-4.12,2.37c-2.92,0-5.17-2.47-5.17-6.15,0-4,2.47-6.5,5.42-6.5a4.06,4.06,0,0,1,3.65,1.85h0v-7.22Zm-2.2,10.57a3.6,3.6,0,0,0-.1-.92,3.23,3.23,0,0,0-3.17-2.55c-2.28,0-3.63,2-3.63,4.67,0,2.45,1.2,4.48,3.58,4.48a3.31,3.31,0,0,0,3.22-2.63,3.6,3.6,0,0,0,.1-.95Z"/><path class="cls-3" d="M668.47,479.86v3.47h3.15V485h-3.15v6.53c0,1.5.43,2.35,1.65,2.35a5.17,5.17,0,0,0,1.28-.15l.1,1.65a5.52,5.52,0,0,1-2,.3,3.06,3.06,0,0,1-2.38-.93,4.5,4.5,0,0,1-.85-3.15V485h-1.87v-1.67h1.87v-2.9Z"/><path class="cls-3" d="M676.55,479.93a1.37,1.37,0,0,1-2.73,0,1.34,1.34,0,0,1,1.38-1.37A1.31,1.31,0,0,1,676.55,479.93Zm-2.45,15.5v-12.1h2.2v12.1Z"/><path class="cls-3" d="M680,486.6c0-1.25,0-2.27-.1-3.27h1.95l.12,2H682a4.45,4.45,0,0,1,4-2.28c1.67,0,4.27,1,4.27,5.15v7.23H688v-7c0-1.95-.72-3.57-2.79-3.57a3.23,3.23,0,0,0-3.1,3.27v7.28H680Z"/><path class="cls-3" d="M702.44,495a8.08,8.08,0,0,1-3.47.7c-3.65,0-6-2.48-6-6.18a6.15,6.15,0,0,1,6.5-6.42,7.31,7.31,0,0,1,3,.62l-.5,1.7a5.08,5.08,0,0,0-2.54-.57c-2.78,0-4.28,2.05-4.28,4.57,0,2.8,1.8,4.53,4.2,4.53a6.34,6.34,0,0,0,2.7-.6Z"/><path class="cls-3" d="M707.47,479.93a1.29,1.29,0,0,1-1.4,1.35,1.31,1.31,0,0,1-1.32-1.35,1.34,1.34,0,0,1,1.37-1.37A1.3,1.3,0,0,1,707.47,479.93ZM705,495.43v-12.1h2.2v12.1Z"/><path class="cls-3" d="M721.32,477.68V492.3c0,1.08,0,2.3.1,3.13h-2l-.1-2.1h-.05a4.46,4.46,0,0,1-4.12,2.37c-2.92,0-5.17-2.47-5.17-6.15,0-4,2.47-6.5,5.42-6.5a4.06,4.06,0,0,1,3.65,1.85h0v-7.22Zm-2.2,10.57a4.12,4.12,0,0,0-.1-.92,3.23,3.23,0,0,0-3.17-2.55c-2.28,0-3.63,2-3.63,4.67,0,2.45,1.2,4.48,3.57,4.48A3.31,3.31,0,0,0,719,491.3a4.07,4.07,0,0,0,.1-.95Z"/><path class="cls-3" d="M730.07,487.85v1.63H723.9v-1.63Z"/><path class="cls-3" d="M231.18,522.13c0,1.25,0,2.35.1,3.3h-1.95l-.13-2h0a4.54,4.54,0,0,1-4,2.25c-1.9,0-4.17-1.05-4.17-5.3v-7.07h2.2V520c0,2.3.7,3.85,2.7,3.85a3.19,3.19,0,0,0,2.9-2,3.39,3.39,0,0,0,.2-1.13v-7.42h2.2Z"/><path class="cls-3" d="M234.83,516.6c0-1.25,0-2.27-.1-3.27h2l.12,2h0a4.45,4.45,0,0,1,4-2.28c1.68,0,4.27,1,4.27,5.15v7.23h-2.19v-7c0-2-.73-3.57-2.8-3.57a3.23,3.23,0,0,0-3.1,3.27v7.28h-2.2Z"/><path class="cls-3" d="M251.25,509.86v3.47h3.15V515h-3.15v6.53c0,1.5.43,2.35,1.65,2.35a5.17,5.17,0,0,0,1.28-.15l.1,1.65a5.52,5.52,0,0,1-1.95.3,3.06,3.06,0,0,1-2.38-.93,4.5,4.5,0,0,1-.85-3.15V515h-1.87v-1.67h1.87v-2.9Z"/><path class="cls-3" d="M272.3,522.13c0,1.25,0,2.35.1,3.3h-1.95l-.12-2h-.05a4.55,4.55,0,0,1-4,2.25c-1.9,0-4.18-1.05-4.18-5.3v-7.07h2.2V520c0,2.3.7,3.85,2.7,3.85a3.1,3.1,0,0,0,3.1-3.13v-7.42h2.2Z"/><path class="cls-3" d="M278.6,509.86v3.47h3.15V515H278.6v6.53c0,1.5.43,2.35,1.65,2.35a5.17,5.17,0,0,0,1.28-.15l.1,1.65a5.52,5.52,0,0,1-1.95.3,3.06,3.06,0,0,1-2.38-.93,4.5,4.5,0,0,1-.85-3.15V515h-1.87v-1.67h1.87v-2.9Z"/><path class="cls-3" d="M289.53,507.68h2.2v17.75h-2.2Z"/><path class="cls-3" d="M302.12,525.43,302,523.9h-.07a4.52,4.52,0,0,1-3.7,1.8,3.44,3.44,0,0,1-3.7-3.47c0-2.93,2.6-4.53,7.27-4.5v-.25a2.49,2.49,0,0,0-2.75-2.8,6,6,0,0,0-3.15.9l-.5-1.45a7.52,7.52,0,0,1,4-1.08c3.7,0,4.59,2.53,4.59,5v4.53a17.07,17.07,0,0,0,.2,2.9Zm-.32-6.18c-2.4,0-5.12.38-5.12,2.73a2,2,0,0,0,2.07,2.1,3,3,0,0,0,2.93-2,2.39,2.39,0,0,0,.12-.7Z"/><path class="cls-3" d="M318.42,519.28c0,4.47-3.09,6.42-6,6.42-3.27,0-5.8-2.4-5.8-6.22,0-4.05,2.65-6.43,6-6.43S318.42,515.58,318.42,519.28Zm-9.59.12c0,2.65,1.52,4.65,3.67,4.65s3.67-2,3.67-4.7c0-2.05-1-4.65-3.62-4.65S308.83,517.1,308.83,519.4Z"/><path class="cls-3" d="M321.2,517.1c0-1.42,0-2.65-.1-3.77H323l.07,2.37h.1a3.64,3.64,0,0,1,3.35-2.65,2.33,2.33,0,0,1,.62.08v2.07a3.24,3.24,0,0,0-.75-.07,3.08,3.08,0,0,0-2.94,2.82,6.2,6.2,0,0,0-.1,1v6.45H321.2Z"/><path class="cls-3" d="M330.35,519.78a3.88,3.88,0,0,0,4.15,4.2,8,8,0,0,0,3.35-.63l.37,1.58a9.77,9.77,0,0,1-4,.75c-3.72,0-5.95-2.45-5.95-6.1s2.15-6.53,5.67-6.53c3.95,0,5,3.48,5,5.7a9.94,9.94,0,0,1-.07,1Zm6.45-1.58c0-1.4-.58-3.57-3.05-3.57-2.22,0-3.2,2-3.37,3.57Z"/><path class="cls-3" d="M342.88,519.78A3.88,3.88,0,0,0,347,524a7.89,7.89,0,0,0,3.34-.63l.38,1.58a9.81,9.81,0,0,1-4,.75c-3.73,0-6-2.45-6-6.1s2.15-6.53,5.67-6.53c3.95,0,5,3.48,5,5.7a7.4,7.4,0,0,1-.08,1Zm6.45-1.58c0-1.4-.58-3.57-3.05-3.57-2.23,0-3.2,2-3.38,3.57Z"/><path class="cls-3" d="M356.83,509.86v3.47H360V515h-3.14v6.53c0,1.5.42,2.35,1.64,2.35a5.17,5.17,0,0,0,1.28-.15l.1,1.65a5.52,5.52,0,0,1-2,.3,3,3,0,0,1-2.37-.93,4.45,4.45,0,0,1-.85-3.15V515H352.8v-1.67h1.88v-2.9Z"/><path class="cls-3" d="M378.2,507.68V522.3c0,1.08,0,2.3.1,3.13h-2l-.1-2.1h-.05a4.46,4.46,0,0,1-4.12,2.37c-2.93,0-5.17-2.47-5.17-6.15,0-4,2.47-6.5,5.42-6.5A4.06,4.06,0,0,1,376,514.9H376v-7.22ZM376,518.25a4.12,4.12,0,0,0-.1-.92,3.25,3.25,0,0,0-3.18-2.55c-2.27,0-3.62,2-3.62,4.67,0,2.45,1.2,4.48,3.57,4.48a3.31,3.31,0,0,0,3.23-2.63,4.07,4.07,0,0,0,.1-.95Z"/><path class="cls-3" d="M392.8,519.28c0,4.47-3.1,6.42-6,6.42-3.27,0-5.79-2.4-5.79-6.22,0-4.05,2.64-6.43,6-6.43S392.8,515.58,392.8,519.28Zm-9.6.12c0,2.65,1.53,4.65,3.67,4.65s3.68-2,3.68-4.7c0-2.05-1-4.65-3.63-4.65S383.2,517.1,383.2,519.4Z"/><path class="cls-3" d="M395.58,507.68h2.2v17.75h-2.2Z"/><path class="cls-3" d="M412.42,519.28c0,4.47-3.1,6.42-6,6.42-3.28,0-5.8-2.4-5.8-6.22,0-4.05,2.65-6.43,6-6.43S412.42,515.58,412.42,519.28Zm-9.6.12c0,2.65,1.53,4.65,3.68,4.65s3.67-2,3.67-4.7c0-2.05-1-4.65-3.62-4.65S402.82,517.1,402.82,519.4Z"/><path class="cls-3" d="M415.2,517.1c0-1.42,0-2.65-.1-3.77H417l.07,2.37h.1a3.63,3.63,0,0,1,3.35-2.65,2.33,2.33,0,0,1,.62.08v2.07a3.3,3.3,0,0,0-.75-.07,3.09,3.09,0,0,0-2.95,2.82,6.2,6.2,0,0,0-.1,1v6.45H415.2Z"/><path class="cls-3" d="M424.35,519.78a3.88,3.88,0,0,0,4.15,4.2,8,8,0,0,0,3.35-.63l.37,1.58a9.77,9.77,0,0,1-4,.75c-3.73,0-5.95-2.45-5.95-6.1s2.15-6.53,5.67-6.53c3.95,0,5,3.48,5,5.7a9.94,9.94,0,0,1-.07,1Zm6.45-1.58c0-1.4-.58-3.57-3.05-3.57-2.23,0-3.2,2-3.38,3.57Z"/><path class="cls-3" d="M441,516.6c0-1.25,0-2.27-.1-3.27h1.92l.1,1.95H443a4.17,4.17,0,0,1,3.8-2.23,3.56,3.56,0,0,1,3.42,2.43h.05a5.07,5.07,0,0,1,1.35-1.58,4.15,4.15,0,0,1,2.68-.85c1.6,0,4,1.05,4,5.25v7.13h-2.15v-6.85c0-2.33-.85-3.73-2.62-3.73a2.85,2.85,0,0,0-2.6,2,3.62,3.62,0,0,0-.18,1.1v7.48h-2.15v-7.25c0-1.93-.85-3.33-2.52-3.33a3,3,0,0,0-2.73,2.2,3.18,3.18,0,0,0-.17,1.08v7.3H441Z"/><path class="cls-3" d="M468.5,525.43l-.18-1.53h-.07a4.52,4.52,0,0,1-3.7,1.8,3.44,3.44,0,0,1-3.7-3.47c0-2.93,2.6-4.53,7.27-4.5v-.25a2.49,2.49,0,0,0-2.75-2.8,6.07,6.07,0,0,0-3.15.9l-.49-1.45a7.45,7.45,0,0,1,4-1.08c3.7,0,4.6,2.53,4.6,5v4.53a17.07,17.07,0,0,0,.2,2.9Zm-.33-6.18c-2.4,0-5.12.38-5.12,2.73a2,2,0,0,0,2.07,2.1,3,3,0,0,0,2.93-2,2.39,2.39,0,0,0,.12-.7Z"/><path class="cls-3" d="M484.27,513.33c0,.87-.1,1.85-.1,3.32v7c0,2.77-.55,4.47-1.72,5.52a6.43,6.43,0,0,1-4.4,1.45,7.78,7.78,0,0,1-4-1l.55-1.67a6.76,6.76,0,0,0,3.54.95c2.25,0,3.9-1.18,3.9-4.23v-1.35h0a4.3,4.3,0,0,1-3.85,2c-3,0-5.14-2.55-5.14-5.9,0-4.1,2.67-6.43,5.44-6.43a4,4,0,0,1,3.78,2.1h.05l.1-1.82ZM482,518.1a3.23,3.23,0,0,0-3.2-3.32c-2.1,0-3.6,1.77-3.6,4.57,0,2.38,1.2,4.35,3.57,4.35a3.21,3.21,0,0,0,3.05-2.25,3.66,3.66,0,0,0,.18-1.17Z"/><path class="cls-3" d="M487.67,516.6c0-1.25,0-2.27-.1-3.27h1.95l.13,2h.05a4.45,4.45,0,0,1,4-2.28c1.67,0,4.27,1,4.27,5.15v7.23h-2.2v-7c0-2-.72-3.57-2.8-3.57a3.23,3.23,0,0,0-3.1,3.27v7.28h-2.2Z"/><path class="cls-3" d="M508.25,525.43l-.18-1.53H508a4.52,4.52,0,0,1-3.7,1.8,3.44,3.44,0,0,1-3.7-3.47c0-2.93,2.6-4.53,7.27-4.5v-.25a2.49,2.49,0,0,0-2.75-2.8,6,6,0,0,0-3.15.9l-.5-1.45a7.52,7.52,0,0,1,4-1.08c3.7,0,4.6,2.53,4.6,5v4.53a17.07,17.07,0,0,0,.2,2.9Zm-.33-6.18c-2.4,0-5.12.38-5.12,2.73a2,2,0,0,0,2.07,2.1,3,3,0,0,0,2.93-2,2.39,2.39,0,0,0,.12-.7Z"/><path class="cls-3" d="M525.6,525.43l-.18-1.53h-.07a4.52,4.52,0,0,1-3.7,1.8,3.44,3.44,0,0,1-3.7-3.47c0-2.93,2.6-4.53,7.27-4.5v-.25a2.49,2.49,0,0,0-2.75-2.8,6,6,0,0,0-3.15.9l-.5-1.45a7.52,7.52,0,0,1,4-1.08c3.7,0,4.6,2.53,4.6,5v4.53a17.07,17.07,0,0,0,.2,2.9Zm-.33-6.18c-2.4,0-5.12.38-5.12,2.73a2,2,0,0,0,2.07,2.1,3,3,0,0,0,2.93-2,2.39,2.39,0,0,0,.12-.7Z"/><path class="cls-3" d="M531,507.68h2.2v17.75H531Z"/><path class="cls-3" d="M539.3,509.93a1.37,1.37,0,0,1-2.73,0,1.34,1.34,0,0,1,1.38-1.37A1.31,1.31,0,0,1,539.3,509.93Zm-2.45,15.5v-12.1h2.2v12.1Z"/><path class="cls-3" d="M551,523.55h-.05A4.31,4.31,0,0,1,547,525.7c-2.83,0-5.13-2.45-5.13-6.12,0-4.53,2.93-6.53,5.48-6.53a4,4,0,0,1,3.72,2.1h.05l.08-1.82h2.07c-.05,1-.07,2.07-.07,3.32v13.73H551Zm0-5.32a4.08,4.08,0,0,0-.1-.93,3.22,3.22,0,0,0-3.15-2.5c-2.28,0-3.65,1.93-3.65,4.65,0,2.4,1.15,4.5,3.57,4.5a3.27,3.27,0,0,0,3.15-2.4,3.67,3.67,0,0,0,.18-1Z"/><path class="cls-3" d="M566.9,522.13c0,1.25,0,2.35.1,3.3h-2l-.13-2h0a4.54,4.54,0,0,1-4,2.25c-1.9,0-4.17-1.05-4.17-5.3v-7.07h2.2V520c0,2.3.7,3.85,2.7,3.85a3.19,3.19,0,0,0,2.9-2,3.39,3.39,0,0,0,.2-1.13v-7.42h2.2Z"/><path class="cls-3" d="M577.25,525.43l-.18-1.53H577a4.52,4.52,0,0,1-3.7,1.8,3.44,3.44,0,0,1-3.7-3.47c0-2.93,2.6-4.53,7.27-4.5v-.25a2.49,2.49,0,0,0-2.75-2.8,6,6,0,0,0-3.15.9l-.5-1.45a7.52,7.52,0,0,1,4-1.08c3.7,0,4.6,2.53,4.6,5v4.53a17.07,17.07,0,0,0,.2,2.9Zm-.33-6.18c-2.4,0-5.12.38-5.12,2.73a2,2,0,0,0,2.07,2.1,3,3,0,0,0,2.93-2,2.39,2.39,0,0,0,.12-.7Z"/><path class="cls-3" d="M582.6,516.6c0-1.25,0-2.27-.1-3.27h1.92l.1,1.95h.08a4.17,4.17,0,0,1,3.8-2.23,3.56,3.56,0,0,1,3.42,2.43h0a5.07,5.07,0,0,1,1.35-1.58,4.14,4.14,0,0,1,2.67-.85c1.6,0,4,1.05,4,5.25v7.13h-2.15v-6.85c0-2.33-.85-3.73-2.63-3.73a2.85,2.85,0,0,0-2.59,2,3.62,3.62,0,0,0-.18,1.1v7.48h-2.15v-7.25c0-1.93-.85-3.33-2.52-3.33a3,3,0,0,0-2.73,2.2,3.18,3.18,0,0,0-.17,1.08v7.3H582.6Z"/><path class="cls-3" d="M610,519.78a3.88,3.88,0,0,0,4.15,4.2,7.91,7.91,0,0,0,3.35-.63l.37,1.58a9.73,9.73,0,0,1-4,.75c-3.72,0-6-2.45-6-6.1s2.15-6.53,5.68-6.53c4,0,5,3.48,5,5.7a7.73,7.73,0,0,1-.07,1Zm6.45-1.58c0-1.4-.57-3.57-3-3.57-2.22,0-3.2,2-3.37,3.57Z"/><path class="cls-3" d="M621.27,517.1c0-1.42,0-2.65-.1-3.77h1.93l.07,2.37h.1a3.64,3.64,0,0,1,3.35-2.65,2.41,2.41,0,0,1,.63.08v2.07a3.36,3.36,0,0,0-.75-.07,3.08,3.08,0,0,0-3,2.82,6.2,6.2,0,0,0-.1,1v6.45h-2.18Z"/><path class="cls-3" d="M636,525.43l-.17-1.53h-.08a4.49,4.49,0,0,1-3.7,1.8,3.44,3.44,0,0,1-3.7-3.47c0-2.93,2.6-4.53,7.28-4.5v-.25a2.5,2.5,0,0,0-2.75-2.8,6,6,0,0,0-3.15.9l-.5-1.45a7.51,7.51,0,0,1,4-1.08c3.7,0,4.6,2.53,4.6,5v4.53a17.07,17.07,0,0,0,.2,2.9Zm-.32-6.18c-2.4,0-5.13.38-5.13,2.73a2,2,0,0,0,2.08,2.1,3,3,0,0,0,2.92-2,2.11,2.11,0,0,0,.13-.7Z"/><path class="cls-3" d="M643.92,509.86v3.47h3.15V515h-3.15v6.53c0,1.5.43,2.35,1.65,2.35a5.17,5.17,0,0,0,1.28-.15l.1,1.65a5.52,5.52,0,0,1-2,.3,3.06,3.06,0,0,1-2.38-.93,4.5,4.5,0,0,1-.85-3.15V515H639.9v-1.67h1.87v-2.9Z"/><path class="cls-3" d="M655.7,513.33l2.37,6.8a31.2,31.2,0,0,1,1,3.1h.07c.28-1,.63-2,1-3.1l2.35-6.8h2.29l-4.74,12.1H658l-4.6-12.1Z"/><path class="cls-3" d="M677.57,519.28c0,4.47-3.1,6.42-6,6.42-3.27,0-5.79-2.4-5.79-6.22,0-4.05,2.65-6.43,6-6.43S677.57,515.58,677.57,519.28Zm-9.6.12c0,2.65,1.53,4.65,3.68,4.65s3.67-2,3.67-4.7c0-2.05-1-4.65-3.62-4.65S668,517.1,668,519.4Z"/><path class="cls-3" d="M680.35,507.68h2.2v17.75h-2.2Z"/><path class="cls-3" d="M696.37,522.13c0,1.25,0,2.35.1,3.3h-2l-.13-2h0a4.52,4.52,0,0,1-4,2.25c-1.9,0-4.18-1.05-4.18-5.3v-7.07h2.2V520c0,2.3.7,3.85,2.7,3.85a3.19,3.19,0,0,0,2.9-2,3.39,3.39,0,0,0,.2-1.13v-7.42h2.2Z"/><path class="cls-3" d="M702.67,509.86v3.47h3.15V515h-3.15v6.53c0,1.5.43,2.35,1.65,2.35a5.17,5.17,0,0,0,1.28-.15l.1,1.65a5.52,5.52,0,0,1-2,.3,3.06,3.06,0,0,1-2.38-.93,4.5,4.5,0,0,1-.85-3.15V515h-1.87v-1.67h1.87v-2.9Z"/><path class="cls-3" d="M713.27,517.85v1.63H707.1v-1.63Z"/><path class="cls-3" d="M221.05,547.28c0-1.55-.05-2.8-.1-3.95h2l.1,2.07h.05a4.76,4.76,0,0,1,4.3-2.35c2.92,0,5.12,2.48,5.12,6.15,0,4.35-2.65,6.5-5.5,6.5a4.23,4.23,0,0,1-3.72-1.9h-.05v6.58h-2.18Zm2.18,3.22a4.85,4.85,0,0,0,.1.9,3.39,3.39,0,0,0,3.3,2.58c2.32,0,3.67-1.9,3.67-4.68,0-2.42-1.27-4.5-3.6-4.5a3.51,3.51,0,0,0-3.32,2.73,3.32,3.32,0,0,0-.15.9Z"/><path class="cls-3" d="M242,555.43l-.18-1.53h-.07a4.52,4.52,0,0,1-3.7,1.8,3.44,3.44,0,0,1-3.7-3.47c0-2.93,2.6-4.53,7.27-4.5v-.25a2.49,2.49,0,0,0-2.75-2.8,6,6,0,0,0-3.15.9l-.5-1.45a7.52,7.52,0,0,1,4-1.08c3.7,0,4.6,2.53,4.6,5v4.53a17.07,17.07,0,0,0,.2,2.9Zm-.33-6.18c-2.4,0-5.12.38-5.12,2.73a2,2,0,0,0,2.07,2.1,3,3,0,0,0,2.93-2,2.39,2.39,0,0,0,.12-.7Z"/><path class="cls-3" d="M249.88,539.86v3.47H253V545h-3.15v6.53c0,1.5.42,2.35,1.65,2.35a5.08,5.08,0,0,0,1.27-.15l.1,1.65a5.48,5.48,0,0,1-2,.3,3,3,0,0,1-2.37-.93,4.45,4.45,0,0,1-.85-3.15V545h-1.88v-1.67h1.88v-2.9Z"/><path class="cls-3" d="M254.9,554.13a1.48,1.48,0,0,1,1.5-1.58,1.58,1.58,0,1,1-1.5,1.58Z"/><path class="cls-3" d="M268.15,538.58v10c0,3.78,1.68,5.38,3.93,5.38,2.49,0,4.09-1.65,4.09-5.38v-10h2.2v9.82c0,5.18-2.72,7.3-6.37,7.3-3.45,0-6.05-2-6.05-7.2v-9.92Z"/><path class="cls-3" d="M284.83,539.86v3.47H288V545h-3.15v6.53c0,1.5.42,2.35,1.65,2.35a5.08,5.08,0,0,0,1.27-.15l.1,1.65a5.48,5.48,0,0,1-2,.3,3,3,0,0,1-2.37-.93,4.45,4.45,0,0,1-.85-3.15V545H280.8v-1.67h1.88v-2.9Z"/><path class="cls-3" d="M296.63,543.33l1.6,6.15c.35,1.35.67,2.6.89,3.85h.08c.28-1.23.67-2.53,1.08-3.83l2-6.17h1.85l1.87,6c.45,1.45.8,2.72,1.08,4h.07a36.55,36.55,0,0,1,.93-3.93l1.72-6.07H312l-3.9,12.1h-2l-1.85-5.78a39.26,39.26,0,0,1-1.08-4h-.05a34.76,34.76,0,0,1-1.1,4L300,555.43h-2l-3.65-12.1Z"/><path class="cls-3" d="M316.6,539.93a1.36,1.36,0,0,1-2.72,0,1.34,1.34,0,0,1,1.37-1.37A1.3,1.3,0,0,1,316.6,539.93Zm-2.45,15.5v-12.1h2.2v12.1Z"/><path class="cls-3" d="M319.7,553.18a5.81,5.81,0,0,0,2.9.87c1.6,0,2.35-.8,2.35-1.8s-.62-1.62-2.25-2.22c-2.17-.78-3.2-2-3.2-3.43,0-2,1.58-3.55,4.18-3.55a6,6,0,0,1,3,.75l-.55,1.6a4.73,4.73,0,0,0-2.48-.7c-1.29,0-2,.75-2,1.65s.73,1.45,2.3,2c2.1.8,3.17,1.85,3.17,3.65,0,2.13-1.65,3.63-4.52,3.63a6.91,6.91,0,0,1-3.4-.83Z"/><path class="cls-3" d="M332.35,539.93a1.36,1.36,0,0,1-2.72,0,1.34,1.34,0,0,1,1.37-1.37A1.3,1.3,0,0,1,332.35,539.93Zm-2.45,15.5v-12.1h2.2v12.1Z"/><path class="cls-3" d="M342.27,549.78c.06,3,2,4.2,4.15,4.2a7.91,7.91,0,0,0,3.35-.63l.38,1.58a9.83,9.83,0,0,1-4,.75c-3.72,0-5.94-2.45-5.94-6.1s2.15-6.53,5.67-6.53c3.95,0,5,3.48,5,5.7a7.4,7.4,0,0,1-.08,1Zm6.45-1.58c0-1.4-.57-3.57-3.05-3.57-2.22,0-3.2,2-3.37,3.57Z"/><path class="cls-3" d="M353.58,546.6c0-1.25,0-2.27-.1-3.27h1.94l.13,2h.05a4.45,4.45,0,0,1,4-2.28c1.67,0,4.27,1,4.27,5.15v7.23h-2.2v-7c0-2-.72-3.57-2.8-3.57a3.12,3.12,0,0,0-2.95,2.25,3.44,3.44,0,0,0-.14,1v7.28h-2.2Z"/><path class="cls-3" d="M369.9,539.93a1.36,1.36,0,0,1-2.72,0,1.34,1.34,0,0,1,1.37-1.37A1.31,1.31,0,0,1,369.9,539.93Zm-2.45,15.5v-12.1h2.2v12.1Z"/><path class="cls-3" d="M373.3,546.6c0-1.25,0-2.27-.1-3.27h1.92l.1,1.95h.08a4.17,4.17,0,0,1,3.8-2.23,3.56,3.56,0,0,1,3.42,2.43h.05a5.07,5.07,0,0,1,1.35-1.58,4.15,4.15,0,0,1,2.68-.85c1.6,0,4,1.05,4,5.25v7.13h-2.15v-6.85c0-2.33-.85-3.73-2.62-3.73a2.85,2.85,0,0,0-2.6,2A3.62,3.62,0,0,0,383,548v7.48h-2.15v-7.25c0-1.93-.85-3.33-2.52-3.33a3,3,0,0,0-2.73,2.2,3.18,3.18,0,0,0-.17,1.08v7.3H373.3Z"/><path class="cls-3" d="M406.15,555.43,406,553.9h-.07a4.52,4.52,0,0,1-3.7,1.8,3.44,3.44,0,0,1-3.7-3.47c0-2.93,2.6-4.53,7.27-4.5v-.25a2.49,2.49,0,0,0-2.75-2.8,6,6,0,0,0-3.15.9l-.5-1.45a7.52,7.52,0,0,1,4-1.08c3.7,0,4.6,2.53,4.6,5v4.53a17.07,17.07,0,0,0,.2,2.9Zm-.33-6.18c-2.4,0-5.12.38-5.12,2.73a2,2,0,0,0,2.07,2.1,3,3,0,0,0,2.93-2,2.39,2.39,0,0,0,.12-.7Z"/><path class="cls-3" d="M422,537.68V552.3c0,1.08,0,2.3.1,3.13h-2l-.1-2.1h-.05a4.46,4.46,0,0,1-4.12,2.37c-2.93,0-5.18-2.47-5.18-6.15,0-4,2.48-6.5,5.43-6.5a4.06,4.06,0,0,1,3.65,1.85h.05v-7.22Zm-2.2,10.57a4.12,4.12,0,0,0-.1-.92,3.25,3.25,0,0,0-3.18-2.55c-2.27,0-3.62,2-3.62,4.67,0,2.45,1.2,4.48,3.57,4.48a3.31,3.31,0,0,0,3.23-2.63,4.07,4.07,0,0,0,.1-.95Z"/><path class="cls-3" d="M430.9,546.6c0-1.25,0-2.27-.1-3.27h1.92l.1,1.95h.08a4.17,4.17,0,0,1,3.8-2.23,3.56,3.56,0,0,1,3.42,2.43h.05a5.07,5.07,0,0,1,1.35-1.58,4.15,4.15,0,0,1,2.68-.85c1.59,0,4,1.05,4,5.25v7.13H446v-6.85c0-2.33-.85-3.73-2.62-3.73a2.85,2.85,0,0,0-2.6,2,3.62,3.62,0,0,0-.18,1.1v7.48h-2.15v-7.25c0-1.93-.85-3.33-2.52-3.33a3,3,0,0,0-2.73,2.2,3.18,3.18,0,0,0-.17,1.08v7.3H430.9Z"/><path class="cls-3" d="M454.2,539.93a1.37,1.37,0,0,1-2.73,0,1.34,1.34,0,0,1,1.38-1.37A1.31,1.31,0,0,1,454.2,539.93Zm-2.45,15.5v-12.1H454v12.1Z"/><path class="cls-3" d="M457.6,546.6c0-1.25,0-2.27-.1-3.27h1.95l.12,2h.05a4.45,4.45,0,0,1,4-2.28c1.68,0,4.28,1,4.28,5.15v7.23h-2.2v-7c0-2-.73-3.57-2.8-3.57a3.23,3.23,0,0,0-3.1,3.27v7.28h-2.2Z"/><path class="cls-3" d="M473.92,539.93a1.29,1.29,0,0,1-1.4,1.35,1.31,1.31,0,0,1-1.32-1.35,1.34,1.34,0,0,1,1.37-1.37A1.3,1.3,0,0,1,473.92,539.93Zm-2.45,15.5v-12.1h2.2v12.1Z"/><path class="cls-3" d="M477.32,546.6c0-1.25,0-2.27-.1-3.27h1.93l.1,1.95h.07a4.18,4.18,0,0,1,3.8-2.23,3.59,3.59,0,0,1,3.43,2.43h.05A4.94,4.94,0,0,1,488,543.9a4.11,4.11,0,0,1,2.67-.85c1.6,0,4,1.05,4,5.25v7.13h-2.14v-6.85c0-2.33-.86-3.73-2.63-3.73a2.86,2.86,0,0,0-2.6,2,3.63,3.63,0,0,0-.17,1.1v7.48H484.9v-7.25c0-1.93-.85-3.33-2.53-3.33a3,3,0,0,0-2.72,2.2,3,3,0,0,0-.18,1.08v7.3h-2.15Z"/><path class="cls-3" d="M504.32,543.33l2.38,6.8a31,31,0,0,1,1,3.1h.08c.27-1,.62-2,1-3.1l2.35-6.8h2.3l-4.75,12.1h-2.1l-4.6-12.1Z"/><path class="cls-3" d="M516.47,549.78a3.88,3.88,0,0,0,4.15,4.2,7.91,7.91,0,0,0,3.35-.63l.38,1.58a9.83,9.83,0,0,1-4,.75c-3.72,0-6-2.45-6-6.1s2.15-6.53,5.68-6.53c4,0,5,3.48,5,5.7a7.4,7.4,0,0,1-.08,1Zm6.45-1.58c0-1.4-.57-3.57-3-3.57-2.22,0-3.2,2-3.37,3.57Z"/><path class="cls-3" d="M527.77,546.6c0-1.25,0-2.27-.1-3.27h2l.13,2h0a4.45,4.45,0,0,1,4-2.28c1.67,0,4.27,1,4.27,5.15v7.23h-2.2v-7c0-2-.72-3.57-2.8-3.57a3.23,3.23,0,0,0-3.1,3.27v7.28h-2.2Z"/><path class="cls-3" d="M544.1,539.93a1.37,1.37,0,0,1-2.73,0,1.34,1.34,0,0,1,1.38-1.37A1.31,1.31,0,0,1,544.1,539.93Zm-2.45,15.5v-12.1h2.2v12.1Z"/><path class="cls-3" d="M554.2,555.43,554,553.9H554a4.52,4.52,0,0,1-3.7,1.8,3.44,3.44,0,0,1-3.7-3.47c0-2.93,2.6-4.53,7.27-4.5v-.25a2.49,2.49,0,0,0-2.75-2.8,6,6,0,0,0-3.15.9l-.5-1.45a7.52,7.52,0,0,1,4-1.08c3.7,0,4.6,2.53,4.6,5v4.53a16.1,16.1,0,0,0,.2,2.9Zm-.33-6.18c-2.4,0-5.12.38-5.12,2.73a2,2,0,0,0,2.07,2.1,3,3,0,0,0,2.93-2,2.39,2.39,0,0,0,.12-.7Z"/><path class="cls-3" d="M559.55,546.6c0-1.25,0-2.27-.1-3.27h1.92l.1,1.95h.08a4.17,4.17,0,0,1,3.8-2.23,3.56,3.56,0,0,1,3.42,2.43h.05a5.07,5.07,0,0,1,1.35-1.58,4.11,4.11,0,0,1,2.67-.85c1.6,0,4,1.05,4,5.25v7.13h-2.15v-6.85c0-2.33-.85-3.73-2.63-3.73a2.86,2.86,0,0,0-2.6,2,3.63,3.63,0,0,0-.17,1.1v7.48h-2.15v-7.25c0-1.93-.85-3.33-2.52-3.33a3,3,0,0,0-2.73,2.2,3.18,3.18,0,0,0-.17,1.08v7.3h-2.15Z"/><path class="cls-3" d="M579,558.5a35.42,35.42,0,0,0,1.5-6l2.45-.25a30.14,30.14,0,0,1-2.37,6.07Z"/><path class="cls-3" d="M599.12,553.55h0a4.31,4.31,0,0,1-4,2.15c-2.82,0-5.12-2.45-5.12-6.12,0-4.53,2.92-6.53,5.47-6.53a4,4,0,0,1,3.73,2.1h0l.07-1.82h2.07c0,1-.07,2.07-.07,3.32v13.73h-2.2Zm0-5.32a3.59,3.59,0,0,0-.1-.93,3.21,3.21,0,0,0-3.15-2.5c-2.27,0-3.65,1.93-3.65,4.65,0,2.4,1.15,4.5,3.58,4.5a3.28,3.28,0,0,0,3.15-2.4,4,4,0,0,0,.17-1Z"/><path class="cls-3" d="M615.07,552.13c0,1.25,0,2.35.1,3.3h-1.95l-.13-2H613a4.52,4.52,0,0,1-4,2.25c-1.9,0-4.18-1.05-4.18-5.3v-7.07h2.2V550c0,2.3.7,3.85,2.7,3.85a3.18,3.18,0,0,0,2.9-2,3.39,3.39,0,0,0,.2-1.13v-7.42h2.2Z"/><path class="cls-3" d="M621.17,539.93a1.29,1.29,0,0,1-1.4,1.35,1.31,1.31,0,0,1-1.32-1.35,1.34,1.34,0,0,1,1.37-1.37A1.3,1.3,0,0,1,621.17,539.93Zm-2.45,15.5v-12.1h2.2v12.1Z"/><path class="cls-3" d="M624.27,553.18a5.81,5.81,0,0,0,2.9.87c1.6,0,2.35-.8,2.35-1.8s-.62-1.62-2.25-2.22c-2.17-.78-3.2-2-3.2-3.43,0-2,1.58-3.55,4.18-3.55a6,6,0,0,1,3,.75l-.55,1.6a4.69,4.69,0,0,0-2.47-.7c-1.3,0-2,.75-2,1.65s.73,1.45,2.3,2c2.1.8,3.17,1.85,3.17,3.65,0,2.13-1.64,3.63-4.52,3.63a6.91,6.91,0,0,1-3.4-.83Z"/><path class="cls-3" d="M639.77,546.6c0-1.25,0-2.27-.1-3.27h2l.13,2h0a4.47,4.47,0,0,1,4-2.28c1.68,0,4.28,1,4.28,5.15v7.23h-2.2v-7c0-2-.73-3.57-2.8-3.57a3.23,3.23,0,0,0-3.1,3.27v7.28h-2.2Z"/><path class="cls-3" d="M664.59,549.28c0,4.47-3.1,6.42-6,6.42-3.27,0-5.8-2.4-5.8-6.22,0-4.05,2.65-6.43,6-6.43S664.59,545.58,664.59,549.28Zm-9.59.12c0,2.65,1.52,4.65,3.67,4.65s3.67-2,3.67-4.7c0-2.05-1-4.65-3.62-4.65S655,547.1,655,549.4Z"/><path class="cls-3" d="M667.07,553.18a5.81,5.81,0,0,0,2.9.87c1.6,0,2.35-.8,2.35-1.8s-.63-1.62-2.25-2.22c-2.17-.78-3.2-2-3.2-3.43,0-2,1.58-3.55,4.17-3.55a6.06,6.06,0,0,1,3,.75l-.55,1.6a4.73,4.73,0,0,0-2.48-.7c-1.29,0-2,.75-2,1.65s.73,1.45,2.3,2c2.1.8,3.17,1.85,3.17,3.65,0,2.13-1.65,3.63-4.52,3.63a6.89,6.89,0,0,1-3.4-.83Z"/><path class="cls-3" d="M679.92,539.86v3.47h3.15V545h-3.15v6.53c0,1.5.42,2.35,1.65,2.35a5.08,5.08,0,0,0,1.27-.15l.1,1.65a5.46,5.46,0,0,1-1.94.3,3.06,3.06,0,0,1-2.38-.93,4.5,4.5,0,0,1-.85-3.15V545H675.9v-1.67h1.87v-2.9Z"/><path class="cls-3" d="M685.54,547.1c0-1.42,0-2.65-.09-3.77h1.92l.07,2.37h.1a3.64,3.64,0,0,1,3.35-2.65,2.41,2.41,0,0,1,.63.08v2.07a3.36,3.36,0,0,0-.75-.07,3.08,3.08,0,0,0-2.95,2.82,6.2,6.2,0,0,0-.1,1v6.45h-2.18Z"/><path class="cls-3" d="M703.84,552.13c0,1.25,0,2.35.1,3.3h-2l-.12-2h0a4.55,4.55,0,0,1-4,2.25c-1.9,0-4.17-1.05-4.17-5.3v-7.07h2.19V550c0,2.3.7,3.85,2.7,3.85a3.1,3.1,0,0,0,3.1-3.13v-7.42h2.2Z"/><path class="cls-3" d="M717.94,537.68V552.3c0,1.08,0,2.3.1,3.13h-2l-.1-2.1h-.05a4.48,4.48,0,0,1-4.13,2.37c-2.92,0-5.17-2.47-5.17-6.15,0-4,2.47-6.5,5.42-6.5a4.06,4.06,0,0,1,3.65,1.85h0v-7.22Zm-2.2,10.57a3.6,3.6,0,0,0-.1-.92,3.23,3.23,0,0,0-3.17-2.55c-2.28,0-3.63,2-3.63,4.67,0,2.45,1.2,4.48,3.58,4.48a3.31,3.31,0,0,0,3.22-2.63,3.6,3.6,0,0,0,.1-.95Z"/><path class="cls-3" d="M222.28,579.78a3.88,3.88,0,0,0,4.15,4.2,8,8,0,0,0,3.35-.63l.37,1.58a9.77,9.77,0,0,1-4,.75c-3.73,0-5.95-2.45-5.95-6.1s2.15-6.53,5.67-6.53c4,0,5,3.48,5,5.7a9.94,9.94,0,0,1-.07,1Zm6.45-1.58c0-1.4-.58-3.57-3-3.57-2.23,0-3.2,2-3.38,3.57Z"/><path class="cls-3" d="M234.53,573.33l1.72,2.6c.45.67.83,1.3,1.23,2h.07c.4-.72.8-1.35,1.2-2l1.7-2.57h2.38l-4.13,5.85,4.25,6.25h-2.5l-1.77-2.73c-.48-.7-.88-1.37-1.3-2.1h0c-.4.73-.83,1.38-1.28,2.1l-1.75,2.73h-2.42l4.3-6.18-4.1-5.92Z"/><path class="cls-3" d="M245.93,579.78a3.88,3.88,0,0,0,4.15,4.2,8,8,0,0,0,3.35-.63l.37,1.58a9.77,9.77,0,0,1-4,.75c-3.73,0-5.95-2.45-5.95-6.1s2.15-6.53,5.67-6.53c3.95,0,5,3.48,5,5.7a9.94,9.94,0,0,1-.07,1Zm6.45-1.58c0-1.4-.58-3.57-3-3.57-2.23,0-3.2,2-3.38,3.57Z"/><path class="cls-3" d="M257.23,577.1c0-1.42,0-2.65-.1-3.77h1.92l.08,2.37h.1a3.63,3.63,0,0,1,3.35-2.65,2.33,2.33,0,0,1,.62.08v2.07a3.3,3.3,0,0,0-.75-.07A3.08,3.08,0,0,0,259.5,578a6.2,6.2,0,0,0-.1,1v6.45h-2.17Z"/><path class="cls-3" d="M273.78,585a8.13,8.13,0,0,1-3.48.7c-3.65,0-6-2.48-6-6.18a6.15,6.15,0,0,1,6.5-6.42,7.37,7.37,0,0,1,3.05.62l-.5,1.7a5.12,5.12,0,0,0-2.55-.57c-2.78,0-4.28,2-4.28,4.57,0,2.8,1.8,4.53,4.2,4.53a6.3,6.3,0,0,0,2.7-.6Z"/><path class="cls-3" d="M278.8,569.93a1.29,1.29,0,0,1-1.4,1.35,1.31,1.31,0,0,1-1.32-1.35,1.34,1.34,0,0,1,1.37-1.37A1.3,1.3,0,0,1,278.8,569.93Zm-2.45,15.5v-12.1h2.2v12.1Z"/><path class="cls-3" d="M290.15,569.86v3.47h3.15V575h-3.15v6.53c0,1.5.43,2.35,1.65,2.35a5.17,5.17,0,0,0,1.28-.15l.1,1.65a5.52,5.52,0,0,1-1.95.3,3.06,3.06,0,0,1-2.38-.93,4.5,4.5,0,0,1-.85-3.15V575h-1.87v-1.67H288v-2.9Z"/><path class="cls-3" d="M302.48,585.43l-.18-1.53h-.07a4.52,4.52,0,0,1-3.7,1.8,3.44,3.44,0,0,1-3.7-3.47c0-2.93,2.6-4.53,7.27-4.5v-.25a2.49,2.49,0,0,0-2.75-2.8,6,6,0,0,0-3.15.9l-.5-1.45a7.52,7.52,0,0,1,4-1.08c3.7,0,4.6,2.53,4.6,5v4.53a17.07,17.07,0,0,0,.2,2.9Zm-.33-6.18c-2.4,0-5.12.38-5.12,2.73a2,2,0,0,0,2.07,2.1,3,3,0,0,0,2.93-2,2.39,2.39,0,0,0,.12-.7Z"/><path class="cls-3" d="M310.38,569.86v3.47h3.15V575h-3.15v6.53c0,1.5.42,2.35,1.65,2.35a5.08,5.08,0,0,0,1.27-.15l.1,1.65a5.48,5.48,0,0,1-1.95.3,3,3,0,0,1-2.37-.93,4.45,4.45,0,0,1-.85-3.15V575h-1.88v-1.67h1.88v-2.9Z"/><path class="cls-3" d="M318.45,569.93a1.29,1.29,0,0,1-1.4,1.35,1.31,1.31,0,0,1-1.32-1.35,1.34,1.34,0,0,1,1.37-1.37A1.3,1.3,0,0,1,318.45,569.93ZM316,585.43v-12.1h2.2v12.1Z"/><path class="cls-3" d="M332.8,579.28c0,4.47-3.1,6.42-6,6.42-3.28,0-5.8-2.4-5.8-6.22,0-4.05,2.65-6.43,6-6.43S332.8,575.58,332.8,579.28Zm-9.6.12c0,2.65,1.53,4.65,3.68,4.65s3.67-2,3.67-4.7c0-2.05-1-4.65-3.62-4.65S323.2,577.1,323.2,579.4Z"/><path class="cls-3" d="M335.58,576.6c0-1.25,0-2.27-.1-3.27h1.95l.12,2h.05a4.45,4.45,0,0,1,4-2.28c1.67,0,4.27,1,4.27,5.15v7.23h-2.2v-7c0-2-.72-3.57-2.8-3.57a3.23,3.23,0,0,0-3.09,3.27v7.28h-2.2Z"/><path class="cls-3" d="M364.87,582.13c0,1.25,0,2.35.1,3.3h-2l-.12-2h0a4.55,4.55,0,0,1-4,2.25c-1.9,0-4.17-1.05-4.17-5.3v-7.07h2.2V580c0,2.3.7,3.85,2.7,3.85a3.1,3.1,0,0,0,3.09-3.13v-7.42h2.2Z"/><path class="cls-3" d="M368.53,567.68h2.2v17.75h-2.2Z"/><path class="cls-3" d="M374.43,567.68h2.2v17.75h-2.2Z"/><path class="cls-3" d="M387,585.43l-.17-1.53h-.08a4.49,4.49,0,0,1-3.69,1.8,3.44,3.44,0,0,1-3.7-3.47c0-2.93,2.6-4.53,7.27-4.5v-.25a2.5,2.5,0,0,0-2.75-2.8,6,6,0,0,0-3.15.9l-.5-1.45a7.51,7.51,0,0,1,4-1.08c3.7,0,4.6,2.53,4.6,5v4.53a17.07,17.07,0,0,0,.2,2.9Zm-.32-6.18c-2.4,0-5.12.38-5.12,2.73a2,2,0,0,0,2.07,2.1,3,3,0,0,0,2.92-2,2.11,2.11,0,0,0,.13-.7Z"/><path class="cls-3" d="M392.37,576.6c0-1.25,0-2.27-.09-3.27h1.92l.1,1.95h.07a4.18,4.18,0,0,1,3.8-2.23,3.59,3.59,0,0,1,3.43,2.43h0A4.94,4.94,0,0,1,403,573.9a4.11,4.11,0,0,1,2.67-.85c1.6,0,4,1.05,4,5.25v7.13H407.5v-6.85c0-2.33-.85-3.73-2.63-3.73a2.86,2.86,0,0,0-2.6,2,3.63,3.63,0,0,0-.17,1.1v7.48H400v-7.25c0-1.93-.85-3.33-2.53-3.33a3,3,0,0,0-2.72,2.2,3.18,3.18,0,0,0-.18,1.08v7.3h-2.15Z"/><path class="cls-3" d="M421.85,585a8.13,8.13,0,0,1-3.48.7c-3.64,0-6-2.48-6-6.18a6.15,6.15,0,0,1,6.5-6.42,7.37,7.37,0,0,1,3,.62l-.5,1.7a5.12,5.12,0,0,0-2.55-.57c-2.77,0-4.27,2-4.27,4.57,0,2.8,1.79,4.53,4.19,4.53a6.3,6.3,0,0,0,2.7-.6Z"/><path class="cls-3" d="M435.22,579.28c0,4.47-3.1,6.42-6,6.42-3.27,0-5.8-2.4-5.8-6.22,0-4.05,2.65-6.43,6-6.43S435.22,575.58,435.22,579.28Zm-9.6.12c0,2.65,1.53,4.65,3.68,4.65s3.67-2,3.67-4.7c0-2.05-1-4.65-3.62-4.65S425.62,577.1,425.62,579.4Z"/><path class="cls-3" d="M438,577.1c0-1.42,0-2.65-.1-3.77h1.93l.07,2.37h.1a3.63,3.63,0,0,1,3.35-2.65,2.33,2.33,0,0,1,.62.08v2.07a3.3,3.3,0,0,0-.75-.07,3.08,3.08,0,0,0-3,2.82,6.2,6.2,0,0,0-.1,1v6.45H438Z"/><path class="cls-3" d="M446.28,577.28c0-1.55,0-2.8-.1-3.95h2l.1,2.07h.05a4.76,4.76,0,0,1,4.3-2.35c2.92,0,5.12,2.48,5.12,6.15,0,4.35-2.65,6.5-5.5,6.5a4.23,4.23,0,0,1-3.72-1.9h-.05v6.58h-2.17Zm2.17,3.22a4.85,4.85,0,0,0,.1.9,3.39,3.39,0,0,0,3.3,2.58c2.32,0,3.67-1.9,3.67-4.68,0-2.42-1.27-4.5-3.6-4.5a3.51,3.51,0,0,0-3.32,2.73,3.76,3.76,0,0,0-.15.9Z"/><path class="cls-3" d="M461.72,579.78c.06,3,1.95,4.2,4.15,4.2a7.91,7.91,0,0,0,3.35-.63l.38,1.58a9.83,9.83,0,0,1-4,.75c-3.72,0-5.94-2.45-5.94-6.1s2.15-6.53,5.67-6.53c3.95,0,5,3.48,5,5.7a7.4,7.4,0,0,1-.08,1Zm6.45-1.58c0-1.4-.57-3.57-3.05-3.57-2.22,0-3.2,2-3.37,3.57Z"/><path class="cls-3" d="M473,577.1c0-1.42,0-2.65-.1-3.77h1.93l.07,2.37h.1a3.64,3.64,0,0,1,3.35-2.65,2.41,2.41,0,0,1,.63.08v2.07a3.36,3.36,0,0,0-.75-.07A3.08,3.08,0,0,0,475.3,578a6.2,6.2,0,0,0-.1,1v6.45H473Z"/><path class="cls-3" d="M486.2,583.18a5.81,5.81,0,0,0,2.9.87c1.6,0,2.35-.8,2.35-1.8s-.63-1.62-2.25-2.22c-2.18-.78-3.2-2-3.2-3.43,0-2,1.57-3.55,4.17-3.55a6.06,6.06,0,0,1,3,.75l-.55,1.6a4.73,4.73,0,0,0-2.48-.7c-1.3,0-2,.75-2,1.65s.72,1.45,2.3,2c2.1.8,3.17,1.85,3.17,3.65,0,2.13-1.65,3.63-4.52,3.63a6.89,6.89,0,0,1-3.4-.83Z"/><path class="cls-3" d="M506.52,582.13c0,1.25,0,2.35.1,3.3h-1.95l-.12-2h-.05a4.55,4.55,0,0,1-4,2.25c-1.9,0-4.17-1.05-4.17-5.3v-7.07h2.19V580c0,2.3.7,3.85,2.7,3.85a3.1,3.1,0,0,0,3.1-3.13v-7.42h2.2Z"/><path class="cls-3" d="M509.87,583.18a5.81,5.81,0,0,0,2.9.87c1.6,0,2.35-.8,2.35-1.8s-.62-1.62-2.25-2.22c-2.17-.78-3.2-2-3.2-3.43,0-2,1.58-3.55,4.18-3.55a6,6,0,0,1,3,.75l-.55,1.6a4.69,4.69,0,0,0-2.47-.7c-1.3,0-2,.75-2,1.65s.73,1.45,2.3,2c2.1.8,3.18,1.85,3.18,3.65,0,2.13-1.65,3.63-4.53,3.63a6.91,6.91,0,0,1-3.4-.83Z"/><path class="cls-3" d="M528.7,585a8.13,8.13,0,0,1-3.48.7c-3.65,0-6-2.48-6-6.18a6.15,6.15,0,0,1,6.5-6.42,7.37,7.37,0,0,1,3,.62l-.5,1.7a5.12,5.12,0,0,0-2.55-.57c-2.78,0-4.28,2-4.28,4.57,0,2.8,1.8,4.53,4.2,4.53a6.3,6.3,0,0,0,2.7-.6Z"/><path class="cls-3" d="M533.72,569.93a1.29,1.29,0,0,1-1.4,1.35,1.31,1.31,0,0,1-1.32-1.35,1.34,1.34,0,0,1,1.37-1.37A1.3,1.3,0,0,1,533.72,569.93Zm-2.45,15.5v-12.1h2.2v12.1Z"/><path class="cls-3" d="M537.12,577.28c0-1.55,0-2.8-.1-3.95h2l.1,2.07h0a4.76,4.76,0,0,1,4.3-2.35c2.92,0,5.12,2.48,5.12,6.15,0,4.35-2.65,6.5-5.5,6.5a4.23,4.23,0,0,1-3.72-1.9h-.05v6.58h-2.18Zm2.18,3.22a4.85,4.85,0,0,0,.1.9,3.39,3.39,0,0,0,3.3,2.58c2.32,0,3.67-1.9,3.67-4.68,0-2.42-1.27-4.5-3.6-4.5a3.51,3.51,0,0,0-3.32,2.73,3.32,3.32,0,0,0-.15.9Z"/><path class="cls-3" d="M553.8,569.93a1.37,1.37,0,0,1-2.73,0,1.34,1.34,0,0,1,1.38-1.37A1.31,1.31,0,0,1,553.8,569.93Zm-2.45,15.5v-12.1h2.2v12.1Z"/><path class="cls-3" d="M559.85,569.86v3.47H563V575h-3.15v6.53c0,1.5.42,2.35,1.65,2.35a5.08,5.08,0,0,0,1.27-.15l.1,1.65a5.48,5.48,0,0,1-2,.3,3,3,0,0,1-2.37-.93,4.45,4.45,0,0,1-.85-3.15V575h-1.88v-1.67h1.88v-2.9Z"/><path class="cls-3" d="M570.77,567.68H573v17.75h-2.2Z"/><path class="cls-3" d="M587.62,579.28c0,4.47-3.1,6.42-6,6.42-3.28,0-5.8-2.4-5.8-6.22,0-4.05,2.65-6.43,6-6.43S587.62,575.58,587.62,579.28Zm-9.6.12c0,2.65,1.53,4.65,3.68,4.65s3.67-2,3.67-4.7c0-2.05-1-4.65-3.62-4.65S578,577.1,578,579.4Z"/><path class="cls-3" d="M590.3,585.43c.05-.83.1-2,.1-3.13V567.68h2.17v7.6h0a4.52,4.52,0,0,1,4.13-2.23c3,0,5.12,2.5,5.09,6.18,0,4.32-2.72,6.47-5.42,6.47a4.31,4.31,0,0,1-4-2.27h-.07l-.1,2Zm2.27-4.85a4.17,4.17,0,0,0,.1.8A3.4,3.4,0,0,0,596,584c2.3,0,3.68-1.87,3.68-4.65,0-2.42-1.25-4.5-3.6-4.5a3.51,3.51,0,0,0-3.35,2.7,4.31,4.31,0,0,0-.13.9Z"/><path class="cls-3" d="M615.57,579.28c0,4.47-3.1,6.42-6,6.42-3.28,0-5.8-2.4-5.8-6.22,0-4.05,2.65-6.43,6-6.43S615.57,575.58,615.57,579.28Zm-9.6.12c0,2.65,1.53,4.65,3.68,4.65s3.67-2,3.67-4.7c0-2.05-1-4.65-3.62-4.65S606,577.1,606,579.4Z"/><path class="cls-3" d="M618.35,577.1c0-1.42,0-2.65-.1-3.77h1.92l.08,2.37h.1a3.63,3.63,0,0,1,3.35-2.65,2.33,2.33,0,0,1,.62.08v2.07a3.3,3.3,0,0,0-.75-.07,3.08,3.08,0,0,0-3,2.82,6.2,6.2,0,0,0-.1,1v6.45h-2.17Z"/><path class="cls-3" d="M629.77,569.86v3.47h3.15V575h-3.15v6.53c0,1.5.43,2.35,1.65,2.35a5.17,5.17,0,0,0,1.28-.15l.09,1.65a5.41,5.41,0,0,1-1.94.3,3.06,3.06,0,0,1-2.38-.93,4.5,4.5,0,0,1-.85-3.15V575h-1.87v-1.67h1.87v-2.9Z"/><path class="cls-3" d="M637.85,569.93a1.37,1.37,0,0,1-2.73,0,1.34,1.34,0,0,1,1.38-1.37A1.31,1.31,0,0,1,637.85,569.93Zm-2.45,15.5v-12.1h2.2v12.1Z"/><path class="cls-3" d="M641,583.18a5.81,5.81,0,0,0,2.9.87c1.6,0,2.35-.8,2.35-1.8s-.63-1.62-2.25-2.22c-2.18-.78-3.2-2-3.2-3.43,0-2,1.57-3.55,4.17-3.55a6,6,0,0,1,3,.75l-.55,1.6a4.66,4.66,0,0,0-2.47-.7c-1.3,0-2,.75-2,1.65s.72,1.45,2.3,2c2.1.8,3.17,1.85,3.17,3.65,0,2.13-1.65,3.63-4.52,3.63a6.89,6.89,0,0,1-3.4-.83Z"/><path class="cls-3" d="M656.45,576.6c0-1.25,0-2.27-.1-3.27h1.94l.13,2h.05a4.45,4.45,0,0,1,4-2.28c1.67,0,4.27,1,4.27,5.15v7.23h-2.2v-7c0-2-.72-3.57-2.8-3.57a3.12,3.12,0,0,0-3,2.25,3.44,3.44,0,0,0-.14,1v7.28h-2.2Z"/><path class="cls-3" d="M672.77,569.93a1.36,1.36,0,0,1-2.72,0,1.34,1.34,0,0,1,1.37-1.37A1.3,1.3,0,0,1,672.77,569.93Zm-2.45,15.5v-12.1h2.2v12.1Z"/><path class="cls-3" d="M675.87,583.18a5.81,5.81,0,0,0,2.9.87c1.6,0,2.35-.8,2.35-1.8s-.62-1.62-2.25-2.22c-2.17-.78-3.2-2-3.2-3.43,0-2,1.58-3.55,4.18-3.55a6,6,0,0,1,3,.75l-.55,1.6a4.73,4.73,0,0,0-2.48-.7c-1.29,0-2,.75-2,1.65s.73,1.45,2.3,2c2.1.8,3.17,1.85,3.17,3.65,0,2.13-1.65,3.63-4.52,3.63a6.91,6.91,0,0,1-3.4-.83Z"/><path class="cls-3" d="M686.07,567.68h2.2v17.75h-2.2Z"/><path class="cls-3" d="M707.39,582.13c0,1.25,0,2.35.1,3.3h-2l-.12-2h0a4.55,4.55,0,0,1-4,2.25c-1.9,0-4.17-1.05-4.17-5.3v-7.07h2.19V580c0,2.3.7,3.85,2.7,3.85a3.1,3.1,0,0,0,3.1-3.13v-7.42h2.2Z"/><path class="cls-3" d="M713.69,569.86v3.47h3.15V575h-3.15v6.53c0,1.5.43,2.35,1.65,2.35a5.17,5.17,0,0,0,1.28-.15l.1,1.65a5.52,5.52,0,0,1-2,.3,3.06,3.06,0,0,1-2.38-.93,4.5,4.5,0,0,1-.85-3.15V575h-1.87v-1.67h1.87v-2.9Z"/><path class="cls-3" d="M227.75,615.43l-.17-1.53h-.08a4.49,4.49,0,0,1-3.7,1.8,3.44,3.44,0,0,1-3.7-3.47c0-2.93,2.6-4.53,7.28-4.5v-.25a2.5,2.5,0,0,0-2.75-2.8,6,6,0,0,0-3.15.9l-.5-1.45a7.51,7.51,0,0,1,4-1.08c3.7,0,4.6,2.53,4.6,5v4.53a17.07,17.07,0,0,0,.2,2.9Zm-.32-6.18c-2.4,0-5.13.38-5.13,2.73a2,2,0,0,0,2.08,2.1,3,3,0,0,0,2.92-2,2.11,2.11,0,0,0,.13-.7Z"/><path class="cls-3" d="M233.1,597.68h2.2v17.75h-2.2Z"/><path class="cls-3" d="M241.45,599.93a1.29,1.29,0,0,1-1.4,1.35,1.31,1.31,0,0,1-1.32-1.35,1.34,1.34,0,0,1,1.37-1.37A1.3,1.3,0,0,1,241.45,599.93ZM239,615.43v-12.1h2.2v12.1Z"/><path class="cls-3" d="M253.1,613.55h0a4.31,4.31,0,0,1-4,2.15c-2.82,0-5.12-2.45-5.12-6.12,0-4.53,2.92-6.53,5.47-6.53a4,4,0,0,1,3.73,2.1h0l.07-1.82h2.07c0,1-.07,2.07-.07,3.32v13.73h-2.2Zm0-5.32a3.59,3.59,0,0,0-.1-.93,3.21,3.21,0,0,0-3.15-2.5c-2.27,0-3.65,1.93-3.65,4.65,0,2.4,1.15,4.5,3.58,4.5a3.28,3.28,0,0,0,3.15-2.4,3.66,3.66,0,0,0,.17-1Z"/><path class="cls-3" d="M269.05,612.13c0,1.25,0,2.35.1,3.3H267.2l-.12-2H267a4.55,4.55,0,0,1-4,2.25c-1.9,0-4.18-1.05-4.18-5.3v-7.07h2.2V610c0,2.3.7,3.85,2.7,3.85a3.1,3.1,0,0,0,3.1-3.13v-7.42h2.2Z"/><path class="cls-3" d="M275.15,599.93a1.29,1.29,0,0,1-1.4,1.35,1.31,1.31,0,0,1-1.32-1.35,1.34,1.34,0,0,1,1.37-1.37A1.3,1.3,0,0,1,275.15,599.93Zm-2.45,15.5v-12.1h2.2v12.1Z"/><path class="cls-3" d="M278.55,607.28c0-1.55-.05-2.8-.1-3.95h2l.1,2.07h.05a4.76,4.76,0,0,1,4.3-2.35c2.92,0,5.12,2.48,5.12,6.15,0,4.35-2.65,6.5-5.5,6.5a4.23,4.23,0,0,1-3.72-1.9h0v6.58h-2.18Zm2.18,3.22a4.85,4.85,0,0,0,.1.9,3.39,3.39,0,0,0,3.3,2.58c2.32,0,3.67-1.9,3.67-4.68,0-2.42-1.27-4.5-3.6-4.5a3.51,3.51,0,0,0-3.32,2.73,3.32,3.32,0,0,0-.15.9Z"/><path class="cls-3" d="M299.3,609.78a3.88,3.88,0,0,0,4.15,4.2,8,8,0,0,0,3.35-.63l.37,1.58a9.73,9.73,0,0,1-4,.75c-3.72,0-5.95-2.45-5.95-6.1s2.15-6.53,5.67-6.53c3.95,0,5,3.48,5,5.7a9.94,9.94,0,0,1-.07,1Zm6.45-1.58c0-1.4-.58-3.57-3.05-3.57-2.22,0-3.2,2-3.37,3.57Z"/><path class="cls-3" d="M311.55,603.33l1.73,2.6c.45.67.82,1.3,1.22,2h.08c.4-.72.8-1.35,1.2-2l1.69-2.57h2.38l-4.12,5.85,4.24,6.25h-2.5l-1.77-2.73c-.47-.7-.87-1.37-1.3-2.1h0c-.4.73-.82,1.38-1.27,2.1l-1.75,2.73H308.9l4.3-6.18-4.1-5.92Z"/><path class="cls-3" d="M328.62,609.78a3.89,3.89,0,0,0,4.15,4.2,7.91,7.91,0,0,0,3.35-.63l.38,1.58a9.83,9.83,0,0,1-4,.75c-3.72,0-5.94-2.45-5.94-6.1s2.15-6.53,5.67-6.53c3.95,0,5,3.48,5,5.7a7.4,7.4,0,0,1-.08,1Zm6.45-1.58c0-1.4-.57-3.57-3.05-3.57-2.22,0-3.19,2-3.37,3.57Z"/><path class="cls-3" d="M346.62,615.43l-.17-1.53h-.08a4.49,4.49,0,0,1-3.69,1.8,3.44,3.44,0,0,1-3.7-3.47c0-2.93,2.6-4.53,7.27-4.5v-.25a2.5,2.5,0,0,0-2.75-2.8,6,6,0,0,0-3.15.9l-.5-1.45a7.52,7.52,0,0,1,4-1.08c3.69,0,4.59,2.53,4.59,5v4.53a17.07,17.07,0,0,0,.2,2.9Zm-.32-6.18c-2.4,0-5.12.38-5.12,2.73a2,2,0,0,0,2.07,2.1,3,3,0,0,0,2.92-2,2.11,2.11,0,0,0,.13-.7Z"/><path class="cls-3" d="M365.9,615a8.13,8.13,0,0,1-3.48.7c-3.64,0-6-2.48-6-6.18a6.15,6.15,0,0,1,6.5-6.42,7.37,7.37,0,0,1,3.05.62l-.5,1.7a5.12,5.12,0,0,0-2.55-.57c-2.78,0-4.28,2-4.28,4.57,0,2.8,1.8,4.53,4.2,4.53a6.3,6.3,0,0,0,2.7-.6Z"/><path class="cls-3" d="M379.27,609.28c0,4.47-3.1,6.42-6,6.42-3.27,0-5.8-2.4-5.8-6.22,0-4.05,2.65-6.43,6-6.43S379.27,605.58,379.27,609.28Zm-9.6.12c0,2.65,1.53,4.65,3.68,4.65s3.67-2,3.67-4.7c0-2.05-1-4.65-3.62-4.65S369.67,607.1,369.67,609.4Z"/><path class="cls-3" d="M382.05,606.6c0-1.25,0-2.27-.1-3.27h1.92l.1,1.95h.08a4.17,4.17,0,0,1,3.8-2.23,3.56,3.56,0,0,1,3.42,2.43h.05a5.07,5.07,0,0,1,1.35-1.58,4.15,4.15,0,0,1,2.68-.85c1.6,0,4,1.05,4,5.25v7.13h-2.15v-6.85c0-2.33-.85-3.73-2.62-3.73a2.85,2.85,0,0,0-2.6,2,3.62,3.62,0,0,0-.18,1.1v7.48h-2.15v-7.25c0-1.93-.85-3.33-2.52-3.33a3,3,0,0,0-2.73,2.2,3.18,3.18,0,0,0-.17,1.08v7.3h-2.15Z"/><path class="cls-3" d="M402.9,606.6c0-1.25,0-2.27-.1-3.27h1.93l.1,1.95h.07a4.18,4.18,0,0,1,3.8-2.23,3.56,3.56,0,0,1,3.42,2.43h.05a5.07,5.07,0,0,1,1.35-1.58,4.15,4.15,0,0,1,2.68-.85c1.6,0,4,1.05,4,5.25v7.13H418v-6.85c0-2.33-.85-3.73-2.62-3.73a2.85,2.85,0,0,0-2.6,2,3.62,3.62,0,0,0-.18,1.1v7.48h-2.15v-7.25c0-1.93-.85-3.33-2.52-3.33a3,3,0,0,0-2.72,2.2,3,3,0,0,0-.18,1.08v7.3H402.9Z"/><path class="cls-3" d="M434.7,609.28c0,4.47-3.1,6.42-6,6.42-3.27,0-5.79-2.4-5.79-6.22,0-4.05,2.65-6.43,6-6.43S434.7,605.58,434.7,609.28Zm-9.6.12c0,2.65,1.52,4.65,3.67,4.65s3.68-2,3.68-4.7c0-2.05-1-4.65-3.63-4.65S425.1,607.1,425.1,609.4Z"/><path class="cls-3" d="M447.92,597.68V612.3c0,1.08,0,2.3.1,3.13h-2l-.1-2.1h-.05a4.48,4.48,0,0,1-4.13,2.37c-2.92,0-5.17-2.47-5.17-6.15,0-4,2.47-6.5,5.42-6.5a4.06,4.06,0,0,1,3.65,1.85h.05v-7.22Zm-2.2,10.57a3.6,3.6,0,0,0-.1-.92,3.23,3.23,0,0,0-3.17-2.55c-2.28,0-3.63,2-3.63,4.67,0,2.45,1.2,4.48,3.58,4.48a3.31,3.31,0,0,0,3.22-2.63,3.6,3.6,0,0,0,.1-.95Z"/><path class="cls-3" d="M462.52,609.28c0,4.47-3.1,6.42-6,6.42-3.27,0-5.8-2.4-5.8-6.22,0-4.05,2.65-6.43,6-6.43S462.52,605.58,462.52,609.28Zm-9.6.12c0,2.65,1.53,4.65,3.68,4.65s3.67-2,3.67-4.7c0-2.05-1-4.65-3.62-4.65S452.92,607.1,452.92,609.4Z"/><path class="cls-3" d="M479.22,615a8.08,8.08,0,0,1-3.47.7c-3.65,0-6-2.48-6-6.18a6.14,6.14,0,0,1,6.49-6.42,7.37,7.37,0,0,1,3,.62l-.5,1.7a5.09,5.09,0,0,0-2.55-.57c-2.77,0-4.27,2-4.27,4.57,0,2.8,1.8,4.53,4.2,4.53a6.34,6.34,0,0,0,2.7-.6Z"/><path class="cls-3" d="M492.6,609.28c0,4.47-3.1,6.42-6,6.42-3.27,0-5.79-2.4-5.79-6.22,0-4.05,2.64-6.43,6-6.43S492.6,605.58,492.6,609.28Zm-9.6.12c0,2.65,1.52,4.65,3.67,4.65s3.68-2,3.68-4.7c0-2.05-1-4.65-3.63-4.65S483,607.1,483,609.4Z"/><path class="cls-3" d="M495.37,606.6c0-1.25,0-2.27-.1-3.27h2l.13,2h0a4.45,4.45,0,0,1,4-2.28c1.67,0,4.27,1,4.27,5.15v7.23h-2.2v-7c0-2-.72-3.57-2.8-3.57a3.23,3.23,0,0,0-3.1,3.27v7.28h-2.2Z"/><path class="cls-3" d="M509,613.18a5.81,5.81,0,0,0,2.9.87c1.6,0,2.35-.8,2.35-1.8s-.63-1.62-2.25-2.22c-2.18-.78-3.2-2-3.2-3.43,0-2,1.57-3.55,4.17-3.55a6.06,6.06,0,0,1,3,.75l-.55,1.6a4.73,4.73,0,0,0-2.48-.7c-1.3,0-2,.75-2,1.65s.72,1.45,2.3,2c2.1.8,3.17,1.85,3.17,3.65,0,2.13-1.65,3.63-4.52,3.63a6.89,6.89,0,0,1-3.4-.83Z"/><path class="cls-3" d="M520.37,609.78a3.88,3.88,0,0,0,4.15,4.2,7.91,7.91,0,0,0,3.35-.63l.38,1.58a9.83,9.83,0,0,1-4,.75c-3.72,0-5.94-2.45-5.94-6.1s2.14-6.53,5.67-6.53c3.95,0,5,3.48,5,5.7a7.4,7.4,0,0,1-.08,1Zm6.45-1.58c0-1.4-.57-3.57-3.05-3.57-2.22,0-3.2,2-3.37,3.57Z"/><path class="cls-3" d="M539.92,613.55h0a4.31,4.31,0,0,1-4,2.15c-2.82,0-5.12-2.45-5.12-6.12,0-4.53,2.92-6.53,5.47-6.53a4,4,0,0,1,3.73,2.1h0l.07-1.82h2.08c-.05,1-.08,2.07-.08,3.32v13.73h-2.2Zm0-5.32a3.59,3.59,0,0,0-.1-.93,3.21,3.21,0,0,0-3.15-2.5c-2.27,0-3.65,1.93-3.65,4.65,0,2.4,1.15,4.5,3.58,4.5a3.28,3.28,0,0,0,3.15-2.4,3.66,3.66,0,0,0,.17-1Z"/><path class="cls-3" d="M555.87,612.13c0,1.25,0,2.35.1,3.3h-2l-.12-2h0a4.55,4.55,0,0,1-4,2.25c-1.9,0-4.18-1.05-4.18-5.3v-7.07h2.2V610c0,2.3.7,3.85,2.7,3.85a3.1,3.1,0,0,0,3.1-3.13v-7.42h2.2Z"/><path class="cls-3" d="M566.22,615.43l-.17-1.53H566a4.49,4.49,0,0,1-3.7,1.8,3.44,3.44,0,0,1-3.7-3.47c0-2.93,2.6-4.53,7.28-4.5v-.25a2.5,2.5,0,0,0-2.75-2.8,6,6,0,0,0-3.15.9l-.5-1.45a7.51,7.51,0,0,1,4-1.08c3.7,0,4.6,2.53,4.6,5v4.53a17.07,17.07,0,0,0,.2,2.9Zm-.32-6.18c-2.4,0-5.13.38-5.13,2.73a2,2,0,0,0,2.08,2.1,3,3,0,0,0,2.92-2,2.11,2.11,0,0,0,.13-.7Z"/><path class="cls-3" d="M574.12,599.86v3.47h3.15V605h-3.15v6.53c0,1.5.43,2.35,1.65,2.35a5.17,5.17,0,0,0,1.28-.15l.1,1.65a5.52,5.52,0,0,1-1.95.3,3.06,3.06,0,0,1-2.38-.93,4.5,4.5,0,0,1-.85-3.15V605H570.1v-1.67H572v-2.9Z"/><path class="cls-3" d="M579.15,614.13a1.48,1.48,0,0,1,1.5-1.58,1.58,1.58,0,1,1-1.5,1.58Z"/><path class="cls-3" d="M590.22,598.81a31.23,31.23,0,0,1,4.63-.35c3.12,0,5.35.72,6.82,2.1a7.74,7.74,0,0,1,2.37,6,8.89,8.89,0,0,1-2.42,6.55c-1.57,1.58-4.17,2.43-7.45,2.43a36.33,36.33,0,0,1-3.95-.2Zm2.18,14.89a13.66,13.66,0,0,0,2.2.13c4.65,0,7.17-2.6,7.17-7.15,0-4-2.22-6.5-6.82-6.5a11.88,11.88,0,0,0-2.55.23Z"/><path class="cls-3" d="M617,612.13c0,1.25,0,2.35.09,3.3h-1.94l-.13-2h0a4.54,4.54,0,0,1-4,2.25c-1.9,0-4.17-1.05-4.17-5.3v-7.07H609V610c0,2.3.7,3.85,2.7,3.85a3.19,3.19,0,0,0,2.9-2,3.39,3.39,0,0,0,.2-1.13v-7.42H617Z"/><path class="cls-3" d="M623.1,599.93a1.37,1.37,0,0,1-2.73,0,1.34,1.34,0,0,1,1.38-1.37A1.31,1.31,0,0,1,623.1,599.93Zm-2.45,15.5v-12.1h2.2v12.1Z"/><path class="cls-3" d="M626.2,613.18a5.81,5.81,0,0,0,2.9.87c1.6,0,2.35-.8,2.35-1.8s-.63-1.62-2.25-2.22c-2.18-.78-3.2-2-3.2-3.43,0-2,1.57-3.55,4.17-3.55a6.06,6.06,0,0,1,3,.75l-.55,1.6a4.73,4.73,0,0,0-2.48-.7c-1.3,0-2,.75-2,1.65s.72,1.45,2.3,2c2.1.8,3.17,1.85,3.17,3.65,0,2.13-1.65,3.63-4.52,3.63a6.89,6.89,0,0,1-3.4-.83Z"/><path class="cls-3" d="M648.39,615.43l-.17-1.53h-.07a4.52,4.52,0,0,1-3.7,1.8,3.44,3.44,0,0,1-3.7-3.47c0-2.93,2.6-4.53,7.27-4.5v-.25a2.49,2.49,0,0,0-2.75-2.8,6,6,0,0,0-3.15.9l-.5-1.45a7.52,7.52,0,0,1,4-1.08c3.69,0,4.59,2.53,4.59,5v4.53a17.07,17.07,0,0,0,.2,2.9Zm-.32-6.18c-2.4,0-5.12.38-5.12,2.73a2,2,0,0,0,2.07,2.1,3,3,0,0,0,2.93-2,2.39,2.39,0,0,0,.12-.7Z"/><path class="cls-3" d="M663.87,612.13c0,1.25,0,2.35.1,3.3h-2l-.12-2h0a4.55,4.55,0,0,1-4,2.25c-1.9,0-4.18-1.05-4.18-5.3v-7.07h2.2V610c0,2.3.7,3.85,2.7,3.85a3.1,3.1,0,0,0,3.1-3.13v-7.42h2.2Z"/><path class="cls-3" d="M670.17,599.86v3.47h3.15V605h-3.15v6.53c0,1.5.43,2.35,1.65,2.35a5.17,5.17,0,0,0,1.28-.15l.1,1.65a5.52,5.52,0,0,1-2,.3,3.06,3.06,0,0,1-2.38-.93,4.5,4.5,0,0,1-.85-3.15V605h-1.87v-1.67H668v-2.9Z"/><path class="cls-3" d="M676.87,609.78A3.88,3.88,0,0,0,681,614a8,8,0,0,0,3.35-.63l.37,1.58a9.73,9.73,0,0,1-4,.75c-3.72,0-6-2.45-6-6.1s2.15-6.53,5.68-6.53c3.94,0,5,3.48,5,5.7a9.94,9.94,0,0,1-.07,1Zm6.45-1.58c0-1.4-.57-3.57-3.05-3.57-2.22,0-3.2,2-3.37,3.57Z"/><path class="cls-3" d="M688.17,606.6c0-1.25,0-2.27-.1-3.27H690l.1,1.95h.07a4.18,4.18,0,0,1,3.8-2.23,3.56,3.56,0,0,1,3.42,2.43h.05a5.07,5.07,0,0,1,1.35-1.58,4.15,4.15,0,0,1,2.68-.85c1.6,0,4,1.05,4,5.25v7.13h-2.15v-6.85c0-2.33-.85-3.73-2.62-3.73a2.85,2.85,0,0,0-2.6,2,3.62,3.62,0,0,0-.18,1.1v7.48h-2.15v-7.25c0-1.93-.85-3.33-2.52-3.33a3,3,0,0,0-2.72,2.2,3,3,0,0,0-.18,1.08v7.3h-2.15Z"/><rect class="cls-2" x="396.86" y="306.84" width="156.43" height="121.87" rx="2.63"/><rect class="cls-2" x="574.5" y="306.84" width="156.43" height="121.87" rx="2.63"/><rect class="cls-1" x="803.22" y="263.25" width="130.08" height="97.32" rx="2.63"/><rect class="cls-1" x="803.22" y="395.04" width="130.08" height="97.32" rx="2.63"/><rect class="cls-1" x="803.22" y="526.83" width="130.08" height="97.32" rx="2.63"/><rect class="cls-1" x="747.95" y="26.54" width="85.45" height="38.21" rx="2.63"/><rect class="cls-1" x="428.74" y="708.52" width="85.45" height="38.21" rx="2.63"/><rect class="cls-1" x="530.82" y="708.52" width="85.45" height="38.21" rx="2.63"/><rect class="cls-1" x="326.66" y="708.52" width="85.45" height="38.21" rx="2.63"/><rect class="cls-1" x="531.05" y="139.07" width="199.88" height="122.54" rx="2.63"/><rect class="cls-2" width="956.93" height="93.26" rx="11.6"/><rect class="cls-2" y="106.78" width="178.27" height="556.99" rx="12.11"/><rect class="cls-2" x="201.22" y="106.78" width="556.99" height="556.99" rx="13.88"/><rect class="cls-2" x="779.59" y="106.78" width="177.34" height="556.99" rx="11.85"/><rect class="cls-2" y="679.6" width="956.93" height="88.61" rx="14.84"/><path class="cls-3" d="M228.23,140h2.18v15h7.2v1.83h-9.38Z"/><path class="cls-3" d="M250.56,150.67c0,4.47-3.1,6.42-6,6.42-3.27,0-5.8-2.4-5.8-6.22,0-4.05,2.65-6.42,6-6.42S250.56,147,250.56,150.67Zm-9.6.12c0,2.65,1.52,4.65,3.67,4.65s3.68-2,3.68-4.7c0-2.05-1-4.64-3.63-4.64S241,148.49,241,150.79Z"/><path class="cls-3" d="M253.33,148.49c0-1.42,0-2.64-.1-3.77h1.93l.07,2.37h.1a3.63,3.63,0,0,1,3.35-2.64,2.43,2.43,0,0,1,.63.07v2.07a3.36,3.36,0,0,0-.75-.07,3.08,3.08,0,0,0-2.95,2.82,6.2,6.2,0,0,0-.1,1v6.45h-2.18Z"/><path class="cls-3" d="M262.48,151.17a3.88,3.88,0,0,0,4.15,4.2,7.91,7.91,0,0,0,3.35-.63l.38,1.58a9.83,9.83,0,0,1-4,.75c-3.72,0-5.95-2.45-5.95-6.1s2.15-6.52,5.68-6.52c3.95,0,5,3.47,5,5.69a7.4,7.4,0,0,1-.08,1Zm6.45-1.58c0-1.4-.57-3.57-3.05-3.57-2.22,0-3.2,2-3.37,3.57Z"/><path class="cls-3" d="M273.78,148c0-1.25,0-2.27-.1-3.27h1.93l.1,1.95h.07a4.17,4.17,0,0,1,3.8-2.22,3.59,3.59,0,0,1,3.43,2.42h.05a4.8,4.8,0,0,1,1.35-1.57,4.11,4.11,0,0,1,2.67-.85c1.6,0,4,1.05,4,5.24v7.13h-2.14V150c0-2.33-.86-3.72-2.63-3.72a2.85,2.85,0,0,0-2.6,2,3.63,3.63,0,0,0-.17,1.1v7.48h-2.15v-7.25c0-1.93-.85-3.32-2.53-3.32a3,3,0,0,0-2.72,2.19,3,3,0,0,0-.18,1.08v7.3h-2.15Z"/><path class="cls-3" d="M302.38,141.32a1.29,1.29,0,0,1-1.4,1.35,1.31,1.31,0,0,1-1.32-1.35A1.34,1.34,0,0,1,301,140,1.3,1.3,0,0,1,302.38,141.32Zm-2.45,15.5v-12.1h2.2v12.1Z"/><path class="cls-3" d="M305.78,148.67c0-1.55,0-2.8-.1-3.95h2l.1,2.07h.05a4.75,4.75,0,0,1,4.3-2.34c2.92,0,5.12,2.47,5.12,6.14,0,4.35-2.65,6.5-5.5,6.5a4.23,4.23,0,0,1-3.72-1.9H308v6.58h-2.18Zm2.18,3.22a4.85,4.85,0,0,0,.1.9,3.39,3.39,0,0,0,3.3,2.58c2.32,0,3.67-1.9,3.67-4.68,0-2.42-1.27-4.5-3.6-4.5a3.51,3.51,0,0,0-3.32,2.73,3.32,3.32,0,0,0-.15.9Z"/><path class="cls-3" d="M319.71,154.57a5.81,5.81,0,0,0,2.9.87c1.6,0,2.35-.8,2.35-1.8s-.63-1.62-2.25-2.22c-2.18-.78-3.2-2-3.2-3.43,0-2,1.57-3.54,4.17-3.54a6.06,6.06,0,0,1,3,.75l-.55,1.59a4.83,4.83,0,0,0-2.48-.69c-1.3,0-2,.74-2,1.64s.72,1.45,2.3,2c2.1.8,3.17,1.85,3.17,3.65,0,2.13-1.65,3.63-4.52,3.63a6.89,6.89,0,0,1-3.4-.83Z"/><path class="cls-3" d="M340,153.52c0,1.25,0,2.35.1,3.3h-1.95l-.12-2H338a4.55,4.55,0,0,1-4,2.25c-1.9,0-4.18-1.05-4.18-5.3v-7.07H332v6.7c0,2.3.7,3.85,2.7,3.85a3.1,3.1,0,0,0,3.1-3.13v-7.42H340Z"/><path class="cls-3" d="M343.68,148c0-1.25,0-2.27-.1-3.27h1.93l.1,1.95h.07a4.17,4.17,0,0,1,3.8-2.22,3.57,3.57,0,0,1,3.42,2.42H353a4.77,4.77,0,0,1,1.34-1.57,4.15,4.15,0,0,1,2.68-.85c1.6,0,4,1.05,4,5.24v7.13H358.8V150c0-2.33-.85-3.72-2.62-3.72a2.84,2.84,0,0,0-2.6,2,3.62,3.62,0,0,0-.18,1.1v7.48h-2.15v-7.25c0-1.93-.84-3.32-2.52-3.32a3,3,0,0,0-2.72,2.19,3,3,0,0,0-.18,1.08v7.3h-2.15Z"/><path class="cls-3" d="M380.28,139.07v14.62c0,1.08,0,2.3.1,3.13h-2l-.1-2.1h-.05a4.46,4.46,0,0,1-4.12,2.37c-2.92,0-5.17-2.47-5.17-6.15,0-4,2.47-6.49,5.42-6.49a4.05,4.05,0,0,1,3.65,1.84h.05v-7.22Zm-2.2,10.57a4.12,4.12,0,0,0-.1-.92,3.24,3.24,0,0,0-3.18-2.55c-2.27,0-3.62,2-3.62,4.67,0,2.45,1.2,4.48,3.57,4.48a3.31,3.31,0,0,0,3.23-2.63,4.07,4.07,0,0,0,.1-.95Z"/><path class="cls-3" d="M394.88,150.67c0,4.47-3.1,6.42-6,6.42-3.28,0-5.8-2.4-5.8-6.22,0-4.05,2.65-6.42,6-6.42S394.88,147,394.88,150.67Zm-9.6.12c0,2.65,1.53,4.65,3.68,4.65s3.67-2,3.67-4.7c0-2.05-1-4.64-3.62-4.64S385.28,148.49,385.28,150.79Z"/><path class="cls-3" d="M397.66,139.07h2.2v17.75h-2.2Z"/><path class="cls-3" d="M414.5,150.67c0,4.47-3.1,6.42-6,6.42-3.27,0-5.8-2.4-5.8-6.22,0-4.05,2.65-6.42,6-6.42S414.5,147,414.5,150.67Zm-9.59.12c0,2.65,1.52,4.65,3.67,4.65s3.67-2,3.67-4.7c0-2.05-1-4.64-3.62-4.64S404.91,148.49,404.91,150.79Z"/><path class="cls-3" d="M417.28,148.49c0-1.42,0-2.64-.1-3.77h1.93l.07,2.37h.1a3.63,3.63,0,0,1,3.35-2.64,2.35,2.35,0,0,1,.62.07v2.07a3.24,3.24,0,0,0-.75-.07,3.08,3.08,0,0,0-2.94,2.82,6.2,6.2,0,0,0-.1,1v6.45h-2.18Z"/><path class="cls-3" d="M430.46,154.57a5.81,5.81,0,0,0,2.9.87c1.6,0,2.35-.8,2.35-1.8s-.63-1.62-2.25-2.22c-2.18-.78-3.2-2-3.2-3.43,0-2,1.57-3.54,4.17-3.54a6,6,0,0,1,3,.75l-.55,1.59a4.79,4.79,0,0,0-2.47-.69c-1.3,0-2,.74-2,1.64s.72,1.45,2.3,2c2.09.8,3.17,1.85,3.17,3.65,0,2.13-1.65,3.63-4.52,3.63a6.89,6.89,0,0,1-3.4-.83Z"/><path class="cls-3" d="M443.11,141.32a1.37,1.37,0,0,1-2.73,0,1.34,1.34,0,0,1,1.37-1.37A1.31,1.31,0,0,1,443.11,141.32Zm-2.45,15.5v-12.1h2.2v12.1Z"/><path class="cls-3" d="M449.16,141.25v3.47h3.14v1.67h-3.14v6.53c0,1.5.42,2.35,1.64,2.35a5.17,5.17,0,0,0,1.28-.15l.1,1.65a5.52,5.52,0,0,1-1.95.3,3,3,0,0,1-2.37-.93A4.45,4.45,0,0,1,447,153v-6.6h-1.88v-1.67H447v-2.9Z"/><path class="cls-3" d="M234.71,186.82l-.17-1.53h-.08a4.49,4.49,0,0,1-3.69,1.8,3.44,3.44,0,0,1-3.7-3.47c0-2.93,2.6-4.53,7.27-4.5v-.25a2.5,2.5,0,0,0-2.75-2.8,6,6,0,0,0-3.15.9l-.5-1.45a7.5,7.5,0,0,1,4-1.07c3.7,0,4.6,2.52,4.6,4.94v4.53a17.07,17.07,0,0,0,.2,2.9Zm-.32-6.18c-2.4,0-5.12.38-5.12,2.73a2,2,0,0,0,2.07,2.1,3,3,0,0,0,2.92-2,2.11,2.11,0,0,0,.13-.7Z"/><path class="cls-3" d="M240.07,178c0-1.25,0-2.27-.1-3.27h1.92l.1,1.95h.08a4.16,4.16,0,0,1,3.79-2.22,3.59,3.59,0,0,1,3.43,2.42h.05a4.8,4.8,0,0,1,1.35-1.57,4.11,4.11,0,0,1,2.67-.85c1.6,0,4,1.05,4,5.24v7.13h-2.15V180c0-2.33-.85-3.72-2.63-3.72a2.85,2.85,0,0,0-2.6,2,3.63,3.63,0,0,0-.17,1.1v7.48h-2.15v-7.25c0-1.93-.85-3.32-2.53-3.32a3,3,0,0,0-2.72,2.19,3.18,3.18,0,0,0-.18,1.08v7.3h-2.14Z"/><path class="cls-3" d="M262.14,181.17a3.88,3.88,0,0,0,4.15,4.2,8,8,0,0,0,3.35-.63l.37,1.58a9.77,9.77,0,0,1-4,.75c-3.73,0-5.95-2.45-5.95-6.1s2.15-6.52,5.67-6.52c4,0,5,3.47,5,5.69a9.94,9.94,0,0,1-.07,1Zm6.45-1.58c0-1.4-.58-3.57-3-3.57-2.23,0-3.2,2-3.38,3.57Z"/><path class="cls-3" d="M276.09,171.25v3.47h3.15v1.67h-3.15v6.53c0,1.5.42,2.35,1.65,2.35a5.08,5.08,0,0,0,1.27-.15l.1,1.65a5.48,5.48,0,0,1-1.95.3,3.05,3.05,0,0,1-2.37-.93,4.5,4.5,0,0,1-.85-3.15v-6.6h-1.87v-1.67h1.87v-2.9Z"/><path class="cls-3" d="M280.22,189.89a36.41,36.41,0,0,0,1.5-6l2.44-.25a30.14,30.14,0,0,1-2.37,6.07Z"/><path class="cls-3" d="M299.55,186.37a8.13,8.13,0,0,1-3.48.7c-3.65,0-6-2.48-6-6.18a6.15,6.15,0,0,1,6.5-6.42,7.34,7.34,0,0,1,3.05.63l-.5,1.69a5.24,5.24,0,0,0-2.55-.57c-2.78,0-4.28,2.05-4.28,4.57,0,2.8,1.8,4.53,4.2,4.53a6.3,6.3,0,0,0,2.7-.6Z"/><path class="cls-3" d="M312.92,180.67c0,4.47-3.1,6.42-6,6.42-3.28,0-5.8-2.4-5.8-6.22,0-4.05,2.65-6.42,6-6.42S312.92,177,312.92,180.67Zm-9.6.12c0,2.65,1.53,4.65,3.68,4.65s3.67-2,3.67-4.7c0-2.05-1-4.64-3.62-4.64S303.32,178.49,303.32,180.79Z"/><path class="cls-3" d="M315.7,178c0-1.25,0-2.27-.1-3.27h1.95l.12,2h.05a4.45,4.45,0,0,1,4-2.27c1.68,0,4.28,1,4.28,5.14v7.23h-2.2v-7c0-2-.73-3.57-2.8-3.57a3.23,3.23,0,0,0-3.1,3.27v7.28h-2.2Z"/><path class="cls-3" d="M329.27,184.57a5.81,5.81,0,0,0,2.9.87c1.6,0,2.35-.8,2.35-1.8s-.62-1.62-2.25-2.22c-2.17-.78-3.2-2-3.2-3.43,0-2,1.58-3.54,4.18-3.54a6,6,0,0,1,3,.75l-.55,1.59a4.79,4.79,0,0,0-2.47-.69c-1.3,0-2,.74-2,1.64s.73,1.45,2.3,2c2.1.8,3.18,1.85,3.18,3.65,0,2.13-1.65,3.63-4.53,3.63a6.91,6.91,0,0,1-3.4-.83Z"/><path class="cls-3" d="M340.7,181.17a3.88,3.88,0,0,0,4.15,4.2,8,8,0,0,0,3.35-.63l.37,1.58a9.77,9.77,0,0,1-4,.75c-3.73,0-5.95-2.45-5.95-6.1s2.15-6.52,5.67-6.52c4,0,5,3.47,5,5.69a9.94,9.94,0,0,1-.07,1Zm6.45-1.58c0-1.4-.58-3.57-3-3.57-2.23,0-3.2,2-3.38,3.57Z"/><path class="cls-3" d="M360.62,186.37a8.08,8.08,0,0,1-3.47.7c-3.65,0-6-2.48-6-6.18a6.15,6.15,0,0,1,6.5-6.42,7.34,7.34,0,0,1,3.05.63l-.5,1.69a5.21,5.21,0,0,0-2.55-.57c-2.77,0-4.27,2.05-4.27,4.57,0,2.8,1.8,4.53,4.2,4.53a6.34,6.34,0,0,0,2.7-.6Z"/><path class="cls-3" d="M366.17,171.25v3.47h3.15v1.67h-3.15v6.53c0,1.5.43,2.35,1.65,2.35a5.17,5.17,0,0,0,1.28-.15l.1,1.65a5.52,5.52,0,0,1-1.95.3,3.06,3.06,0,0,1-2.38-.93A4.5,4.5,0,0,1,364,183v-6.6h-1.87v-1.67H364v-2.9Z"/><path class="cls-3" d="M372.87,181.17a3.88,3.88,0,0,0,4.15,4.2,8,8,0,0,0,3.35-.63l.37,1.58a9.73,9.73,0,0,1-4,.75c-3.72,0-6-2.45-6-6.1s2.15-6.52,5.68-6.52c3.94,0,5,3.47,5,5.69a9.94,9.94,0,0,1-.07,1Zm6.45-1.58c0-1.4-.57-3.57-3.05-3.57-2.22,0-3.2,2-3.37,3.57Z"/><path class="cls-3" d="M386.82,171.25v3.47H390v1.67h-3.15v6.53c0,1.5.43,2.35,1.65,2.35a5.17,5.17,0,0,0,1.28-.15l.1,1.65a5.52,5.52,0,0,1-2,.3,3.06,3.06,0,0,1-2.38-.93,4.5,4.5,0,0,1-.85-3.15v-6.6H382.8v-1.67h1.87v-2.9Z"/><path class="cls-3" d="M402.57,183.52c0,1.25,0,2.35.1,3.3h-1.95l-.13-2h0a4.52,4.52,0,0,1-4,2.25c-1.9,0-4.18-1.05-4.18-5.3v-7.07h2.2v6.7c0,2.3.7,3.85,2.7,3.85a3.18,3.18,0,0,0,2.9-2,3.39,3.39,0,0,0,.2-1.13v-7.42h2.2Z"/><path class="cls-3" d="M407.45,181.17a3.88,3.88,0,0,0,4.14,4.2,7.91,7.91,0,0,0,3.35-.63l.38,1.58a9.83,9.83,0,0,1-4,.75c-3.72,0-5.94-2.45-5.94-6.1s2.15-6.52,5.67-6.52c4,0,5,3.47,5,5.69a7.4,7.4,0,0,1-.08,1Zm6.44-1.58c0-1.4-.57-3.57-3.05-3.57-2.22,0-3.19,2-3.37,3.57Z"/><path class="cls-3" d="M418.75,178.49c0-1.42,0-2.64-.1-3.77h1.92l.08,2.37h.1a3.62,3.62,0,0,1,3.34-2.64,2.43,2.43,0,0,1,.63.07v2.07a3.3,3.3,0,0,0-.75-.07,3.08,3.08,0,0,0-3,2.82,6.2,6.2,0,0,0-.1,1v6.45h-2.17Z"/><path class="cls-3" d="M437.73,186.82l-.18-1.53h-.07a4.52,4.52,0,0,1-3.7,1.8,3.44,3.44,0,0,1-3.7-3.47c0-2.93,2.6-4.53,7.27-4.5v-.25a2.49,2.49,0,0,0-2.75-2.8,6,6,0,0,0-3.15.9l-.5-1.45a7.51,7.51,0,0,1,4-1.07c3.7,0,4.6,2.52,4.6,4.94v4.53a17.07,17.07,0,0,0,.2,2.9Zm-.33-6.18c-2.4,0-5.12.38-5.12,2.73a2,2,0,0,0,2.07,2.1,3,3,0,0,0,2.93-2,2.39,2.39,0,0,0,.12-.7Z"/><path class="cls-3" d="M453.53,169.07v14.62c0,1.08,0,2.3.1,3.13h-2l-.1-2.1h-.05a4.46,4.46,0,0,1-4.12,2.37c-2.93,0-5.18-2.47-5.18-6.15,0-4,2.48-6.49,5.43-6.49a4.05,4.05,0,0,1,3.65,1.84h.05v-7.22Zm-2.2,10.57a4.12,4.12,0,0,0-.1-.92,3.25,3.25,0,0,0-3.18-2.55c-2.27,0-3.62,2-3.62,4.67,0,2.45,1.2,4.48,3.57,4.48a3.31,3.31,0,0,0,3.23-2.63,4.07,4.07,0,0,0,.1-.95Z"/><path class="cls-3" d="M459.63,171.32a1.37,1.37,0,0,1-2.73,0,1.34,1.34,0,0,1,1.38-1.37A1.31,1.31,0,0,1,459.63,171.32Zm-2.45,15.5v-12.1h2.2v12.1Z"/><path class="cls-3" d="M463,178.67c0-1.55,0-2.8-.1-3.95h2l.1,2.07h.05a4.76,4.76,0,0,1,4.3-2.34c2.93,0,5.13,2.47,5.13,6.14,0,4.35-2.65,6.5-5.5,6.5a4.26,4.26,0,0,1-3.73-1.9h-.05v6.58H463Zm2.17,3.22a4.85,4.85,0,0,0,.1.9,3.4,3.4,0,0,0,3.3,2.58c2.33,0,3.68-1.9,3.68-4.68,0-2.42-1.28-4.5-3.6-4.5a3.53,3.53,0,0,0-3.33,2.73,3.76,3.76,0,0,0-.15.9Z"/><path class="cls-3" d="M479.7,171.32a1.29,1.29,0,0,1-1.4,1.35,1.31,1.31,0,0,1-1.32-1.35,1.34,1.34,0,0,1,1.37-1.37A1.3,1.3,0,0,1,479.7,171.32Zm-2.45,15.5v-12.1h2.2v12.1Z"/><path class="cls-3" d="M482.8,184.57a5.81,5.81,0,0,0,2.9.87c1.6,0,2.35-.8,2.35-1.8s-.62-1.62-2.25-2.22c-2.17-.78-3.2-2-3.2-3.43,0-2,1.58-3.54,4.18-3.54a6,6,0,0,1,3,.75l-.55,1.59a4.79,4.79,0,0,0-2.47-.69c-1.3,0-2,.74-2,1.64s.73,1.45,2.3,2c2.1.8,3.18,1.85,3.18,3.65,0,2.13-1.65,3.63-4.53,3.63a6.91,6.91,0,0,1-3.4-.83Z"/><path class="cls-3" d="M501.62,186.37a8,8,0,0,1-3.47.7c-3.65,0-6-2.48-6-6.18a6.15,6.15,0,0,1,6.5-6.42,7.25,7.25,0,0,1,3,.63l-.49,1.69a5.24,5.24,0,0,0-2.55-.57c-2.78,0-4.28,2.05-4.28,4.57,0,2.8,1.8,4.53,4.2,4.53a6.34,6.34,0,0,0,2.7-.6Z"/><path class="cls-3" d="M509.43,179.24v1.63h-6.18v-1.63Z"/><path class="cls-3" d="M230.47,201.32a1.37,1.37,0,0,1-2.73,0,1.34,1.34,0,0,1,1.38-1.37A1.31,1.31,0,0,1,230.47,201.32ZM228,216.82v-12.1h2.2v12.1Z"/><path class="cls-3" d="M233.87,208c0-1.25,0-2.27-.1-3.27h1.94l.13,2h0a4.45,4.45,0,0,1,4-2.27c1.67,0,4.27,1,4.27,5.14v7.23H242v-7c0-2-.72-3.57-2.8-3.57a3.12,3.12,0,0,0-2.95,2.25,3.44,3.44,0,0,0-.14,1v7.28h-2.2Z"/><path class="cls-3" d="M258.16,204.72c-.05.88-.1,1.85-.1,3.32v7c0,2.77-.55,4.47-1.72,5.52a6.43,6.43,0,0,1-4.4,1.45,7.78,7.78,0,0,1-4-1l.55-1.67a6.78,6.78,0,0,0,3.54.95c2.25,0,3.9-1.18,3.9-4.23v-1.35h0a4.3,4.3,0,0,1-3.85,2c-3,0-5.14-2.55-5.14-5.9,0-4.1,2.67-6.42,5.44-6.42a4,4,0,0,1,3.78,2.09h.05l.1-1.82Zm-2.27,4.77a3.23,3.23,0,0,0-3.2-3.32c-2.1,0-3.6,1.77-3.6,4.57,0,2.38,1.2,4.35,3.57,4.35a3.21,3.21,0,0,0,3.05-2.25,3.66,3.66,0,0,0,.18-1.17Z"/><path class="cls-3" d="M268.24,211.17a3.88,3.88,0,0,0,4.15,4.2,8,8,0,0,0,3.35-.63l.37,1.58a9.77,9.77,0,0,1-4,.75c-3.73,0-5.95-2.45-5.95-6.1s2.15-6.52,5.67-6.52c3.95,0,5,3.47,5,5.69a9.94,9.94,0,0,1-.07,1Zm6.45-1.58c0-1.4-.58-3.57-3.05-3.57-2.23,0-3.2,2-3.38,3.57Z"/><path class="cls-3" d="M279.54,199.07h2.2v17.75h-2.2Z"/><path class="cls-3" d="M287.89,201.32a1.37,1.37,0,0,1-2.73,0,1.34,1.34,0,0,1,1.38-1.37A1.31,1.31,0,0,1,287.89,201.32Zm-2.45,15.5v-12.1h2.2v12.1Z"/><path class="cls-3" d="M293.94,201.25v3.47h3.15v1.67h-3.15v6.53c0,1.5.42,2.35,1.65,2.35a5.08,5.08,0,0,0,1.27-.15l.1,1.65a5.48,5.48,0,0,1-1.95.3,3,3,0,0,1-2.37-.93,4.45,4.45,0,0,1-.85-3.15v-6.6h-1.88v-1.67h1.88v-2.9Z"/><path class="cls-3" d="M298.06,219.89a34.49,34.49,0,0,0,1.5-6l2.45-.25a30.14,30.14,0,0,1-2.37,6.07Z"/><path class="cls-3" d="M309.66,214.57a5.81,5.81,0,0,0,2.9.87c1.6,0,2.35-.8,2.35-1.8s-.62-1.62-2.25-2.22c-2.17-.78-3.2-2-3.2-3.43,0-2,1.58-3.54,4.18-3.54a6,6,0,0,1,3,.75l-.55,1.59a4.79,4.79,0,0,0-2.47-.69c-1.3,0-2,.74-2,1.64s.73,1.45,2.3,2c2.1.8,3.18,1.85,3.18,3.65,0,2.13-1.65,3.63-4.53,3.63a6.91,6.91,0,0,1-3.4-.83Z"/><path class="cls-3" d="M321.09,211.17a3.88,3.88,0,0,0,4.15,4.2,8,8,0,0,0,3.35-.63l.37,1.58a9.77,9.77,0,0,1-4,.75c-3.73,0-5.95-2.45-5.95-6.1s2.15-6.52,5.67-6.52c3.95,0,5,3.47,5,5.69a9.94,9.94,0,0,1-.07,1Zm6.45-1.58c0-1.4-.58-3.57-3.05-3.57-2.23,0-3.2,2-3.38,3.57Z"/><path class="cls-3" d="M342.84,199.07v14.62c0,1.08,0,2.3.1,3.13h-2l-.1-2.1h-.05a4.46,4.46,0,0,1-4.12,2.37c-2.93,0-5.18-2.47-5.18-6.15,0-4,2.48-6.49,5.43-6.49a4.05,4.05,0,0,1,3.65,1.84h.05v-7.22Zm-2.2,10.57a4.12,4.12,0,0,0-.1-.92,3.25,3.25,0,0,0-3.18-2.55c-2.27,0-3.62,2-3.62,4.67,0,2.45,1.2,4.48,3.57,4.48a3.31,3.31,0,0,0,3.23-2.63,4.07,4.07,0,0,0,.1-.95Z"/><path class="cls-3" d="M362.24,199.07v14.62c0,1.08,0,2.3.1,3.13h-2l-.1-2.1h-.05a4.46,4.46,0,0,1-4.12,2.37c-2.93,0-5.18-2.47-5.18-6.15,0-4,2.48-6.49,5.43-6.49a4.05,4.05,0,0,1,3.65,1.84H360v-7.22ZM360,209.64a4.12,4.12,0,0,0-.1-.92,3.25,3.25,0,0,0-3.18-2.55c-2.27,0-3.62,2-3.62,4.67,0,2.45,1.2,4.48,3.57,4.48a3.31,3.31,0,0,0,3.23-2.63,4.07,4.07,0,0,0,.1-.95Z"/><path class="cls-3" d="M368.34,201.32a1.37,1.37,0,0,1-2.73,0A1.34,1.34,0,0,1,367,200,1.31,1.31,0,0,1,368.34,201.32Zm-2.45,15.5v-12.1h2.2v12.1Z"/><path class="cls-3" d="M378.44,216.82l-.18-1.53h-.07a4.52,4.52,0,0,1-3.7,1.8,3.44,3.44,0,0,1-3.7-3.47c0-2.93,2.6-4.53,7.27-4.5v-.25a2.49,2.49,0,0,0-2.75-2.8,6,6,0,0,0-3.15.9l-.5-1.45a7.51,7.51,0,0,1,4-1.07c3.7,0,4.6,2.52,4.6,4.94v4.53a17.07,17.07,0,0,0,.2,2.9Zm-.33-6.18c-2.4,0-5.12.38-5.12,2.73a2,2,0,0,0,2.07,2.1,3,3,0,0,0,2.93-2,2.39,2.39,0,0,0,.12-.7Z"/><path class="cls-3" d="M383.79,208c0-1.25,0-2.27-.1-3.27h1.92l.1,1.95h.08a4.16,4.16,0,0,1,3.8-2.22,3.57,3.57,0,0,1,3.42,2.42h.05a4.92,4.92,0,0,1,1.35-1.57,4.14,4.14,0,0,1,2.67-.85c1.6,0,4,1.05,4,5.24v7.13h-2.15V210c0-2.33-.85-3.72-2.62-3.72a2.84,2.84,0,0,0-2.6,2,3.62,3.62,0,0,0-.18,1.1v7.48h-2.15v-7.25c0-1.93-.85-3.32-2.52-3.32a3,3,0,0,0-2.73,2.19,3.18,3.18,0,0,0-.17,1.08v7.3h-2.15Z"/><path class="cls-3" d="M409.94,208c0-1.25,0-2.27-.1-3.27h2l.12,2h0a4.45,4.45,0,0,1,4-2.27c1.68,0,4.28,1,4.28,5.14v7.23H418v-7c0-2-.73-3.57-2.8-3.57a3.23,3.23,0,0,0-3.1,3.27v7.28h-2.2Z"/><path class="cls-3" d="M434.76,210.67c0,4.47-3.1,6.42-6,6.42-3.28,0-5.8-2.4-5.8-6.22,0-4.05,2.65-6.42,6-6.42S434.76,207,434.76,210.67Zm-9.6.12c0,2.65,1.53,4.65,3.68,4.65s3.67-2,3.67-4.7c0-2.05-1-4.64-3.62-4.64S425.16,208.49,425.16,210.79Z"/><path class="cls-3" d="M437.54,208c0-1.25,0-2.27-.1-3.27h1.95l.12,2h.05a4.45,4.45,0,0,1,4-2.27c1.68,0,4.27,1,4.27,5.14v7.23h-2.19v-7c0-2-.73-3.57-2.8-3.57a3.23,3.23,0,0,0-3.1,3.27v7.28h-2.2Z"/><path class="cls-3" d="M461.54,213.52c0,1.25,0,2.35.09,3.3h-1.94l-.13-2h-.05a4.54,4.54,0,0,1-4,2.25c-1.9,0-4.17-1.05-4.17-5.3v-7.07h2.2v6.7c0,2.3.7,3.85,2.7,3.85a3.19,3.19,0,0,0,2.9-2,3.39,3.39,0,0,0,.2-1.13v-7.42h2.2Z"/><path class="cls-3" d="M465.19,208c0-1.25,0-2.27-.1-3.27H467l.1,1.95h.08a4.16,4.16,0,0,1,3.8-2.22,3.59,3.59,0,0,1,3.42,2.42h0a4.8,4.8,0,0,1,1.35-1.57,4.11,4.11,0,0,1,2.67-.85c1.6,0,4,1.05,4,5.24v7.13h-2.15V210c0-2.33-.85-3.72-2.63-3.72a2.85,2.85,0,0,0-2.6,2,3.63,3.63,0,0,0-.17,1.1v7.48h-2.15v-7.25c0-1.93-.85-3.32-2.52-3.32a3,3,0,0,0-2.73,2.19,3.18,3.18,0,0,0-.17,1.08v7.3h-2.15Z"/><path class="cls-3" d="M491.14,209.24v1.63H485v-1.63Z"/><path class="cls-3" d="M228,238c0-1.25,0-2.27-.1-3.27h1.92l.1,1.95H230a4.16,4.16,0,0,1,3.79-2.22,3.59,3.59,0,0,1,3.43,2.42h0a4.8,4.8,0,0,1,1.35-1.57,4.11,4.11,0,0,1,2.67-.85c1.6,0,4,1.05,4,5.24v7.13h-2.15V240c0-2.33-.85-3.72-2.63-3.72a2.85,2.85,0,0,0-2.6,2,3.63,3.63,0,0,0-.17,1.1v7.48h-2.15v-7.25c0-1.93-.85-3.32-2.53-3.32a3,3,0,0,0-2.72,2.19,3.18,3.18,0,0,0-.18,1.08v7.3H228Z"/><path class="cls-3" d="M249.34,234.72l2.65,7.15c.28.8.58,1.75.78,2.47h0c.22-.72.47-1.65.77-2.52l2.4-7.1h2.32l-3.3,8.62c-1.57,4.15-2.64,6.28-4.14,7.58a6,6,0,0,1-2.7,1.42l-.55-1.85a5.69,5.69,0,0,0,1.92-1.07,6.76,6.76,0,0,0,1.85-2.45,1.63,1.63,0,0,0,.18-.53,1.9,1.9,0,0,0-.15-.57l-4.48-11.15Z"/><path class="cls-3" d="M265.62,238c0-1.25,0-2.27-.1-3.27h1.94l.13,2h.05a4.45,4.45,0,0,1,4-2.27c1.67,0,4.27,1,4.27,5.14v7.23h-2.2v-7c0-2-.72-3.57-2.8-3.57a3.12,3.12,0,0,0-3,2.25,3.44,3.44,0,0,0-.14,1v7.28h-2.2Z"/><path class="cls-3" d="M281.94,231.32a1.36,1.36,0,0,1-2.72,0,1.34,1.34,0,0,1,1.37-1.37A1.31,1.31,0,0,1,281.94,231.32Zm-2.45,15.5v-12.1h2.2v12.1Z"/><path class="cls-3" d="M285.24,246.82c.05-.83.1-2,.1-3.13V229.07h2.17v7.6h.05a4.52,4.52,0,0,1,4.13-2.22c3,0,5.12,2.49,5.1,6.17,0,4.32-2.73,6.47-5.43,6.47a4.31,4.31,0,0,1-4.05-2.27h-.07l-.1,2Zm2.27-4.85a4.17,4.17,0,0,0,.1.8,3.4,3.4,0,0,0,3.3,2.57c2.3,0,3.68-1.87,3.68-4.65,0-2.42-1.25-4.5-3.6-4.5a3.51,3.51,0,0,0-3.35,2.7,4.31,4.31,0,0,0-.13.9Z"/><path class="cls-3" d="M299.56,229.07h2.2v7.55h.05a4.13,4.13,0,0,1,1.58-1.55,4.56,4.56,0,0,1,2.25-.62c1.62,0,4.22,1,4.22,5.17v7.2h-2.2v-6.95c0-2-.72-3.6-2.8-3.6a3.17,3.17,0,0,0-2.95,2.2,2.74,2.74,0,0,0-.15,1.05v7.3h-2.2Z"/><path class="cls-3" d="M320,241.17a3.88,3.88,0,0,0,4.15,4.2,7.91,7.91,0,0,0,3.35-.63l.38,1.58a9.83,9.83,0,0,1-4,.75c-3.72,0-5.94-2.45-5.94-6.1s2.14-6.52,5.67-6.52c3.95,0,5,3.47,5,5.69a7.4,7.4,0,0,1-.08,1Zm6.45-1.58c0-1.4-.57-3.57-3.05-3.57-2.22,0-3.2,2-3.37,3.57Z"/><path class="cls-3" d="M341.39,243.52c0,1.25,0,2.35.1,3.3h-1.95l-.13-2h-.05a4.54,4.54,0,0,1-4,2.25c-1.9,0-4.17-1.05-4.17-5.3v-7.07h2.2v6.7c0,2.3.7,3.85,2.7,3.85a3.19,3.19,0,0,0,2.9-2,3.39,3.39,0,0,0,.2-1.13v-7.42h2.2Z"/><path class="cls-3" d="M347.49,231.32a1.37,1.37,0,0,1-2.73,0,1.34,1.34,0,0,1,1.38-1.37A1.31,1.31,0,0,1,347.49,231.32ZM345,246.82v-12.1h2.2v12.1Z"/><path class="cls-3" d="M350.59,244.57a5.81,5.81,0,0,0,2.9.87c1.6,0,2.35-.8,2.35-1.8s-.63-1.62-2.25-2.22c-2.18-.78-3.2-2-3.2-3.43,0-2,1.57-3.54,4.17-3.54a6.06,6.06,0,0,1,3,.75l-.55,1.59a4.83,4.83,0,0,0-2.48-.69c-1.3,0-2,.74-2,1.64s.72,1.45,2.3,2c2.1.8,3.17,1.85,3.17,3.65,0,2.13-1.65,3.63-4.52,3.63a6.89,6.89,0,0,1-3.4-.83Z"/><path class="cls-3" d="M360.79,238c0-1.25,0-2.27-.1-3.27h1.92l.1,1.95h.08a4.16,4.16,0,0,1,3.8-2.22,3.57,3.57,0,0,1,3.42,2.42h.05a4.92,4.92,0,0,1,1.35-1.57,4.15,4.15,0,0,1,2.68-.85c1.6,0,4,1.05,4,5.24v7.13h-2.15V240c0-2.33-.85-3.72-2.62-3.72a2.84,2.84,0,0,0-2.6,2,3.62,3.62,0,0,0-.18,1.1v7.48h-2.15v-7.25c0-1.93-.85-3.32-2.52-3.32a3,3,0,0,0-2.73,2.19,3.18,3.18,0,0,0-.17,1.08v7.3h-2.15Z"/><path class="cls-3" d="M392.59,240.67c0,4.47-3.1,6.42-6,6.42-3.27,0-5.8-2.4-5.8-6.22,0-4.05,2.65-6.42,6-6.42S392.59,237,392.59,240.67Zm-9.6.12c0,2.65,1.52,4.65,3.67,4.65s3.68-2,3.68-4.7c0-2.05-1-4.64-3.63-4.64S383,238.49,383,240.79Z"/><path class="cls-3" d="M405.81,229.07v14.62c0,1.08,0,2.3.1,3.13h-2l-.1-2.1h0a4.48,4.48,0,0,1-4.13,2.37c-2.92,0-5.17-2.47-5.17-6.15,0-4,2.47-6.49,5.42-6.49a4.05,4.05,0,0,1,3.65,1.84h.05v-7.22Zm-2.2,10.57a3.6,3.6,0,0,0-.1-.92,3.23,3.23,0,0,0-3.17-2.55c-2.28,0-3.63,2-3.63,4.67,0,2.45,1.2,4.48,3.58,4.48a3.31,3.31,0,0,0,3.22-2.63,3.6,3.6,0,0,0,.1-.95Z"/><path class="cls-3" d="M417.41,231.25v3.47h3.15v1.67h-3.15v6.53c0,1.5.43,2.35,1.65,2.35a5.17,5.17,0,0,0,1.28-.15l.1,1.65a5.52,5.52,0,0,1-1.95.3,3.06,3.06,0,0,1-2.38-.93,4.5,4.5,0,0,1-.85-3.15v-6.6h-1.87v-1.67h1.87v-2.9Z"/><path class="cls-3" d="M425.49,231.32a1.37,1.37,0,0,1-2.73,0,1.34,1.34,0,0,1,1.38-1.37A1.31,1.31,0,0,1,425.49,231.32ZM423,246.82v-12.1h2.2v12.1Z"/><path class="cls-3" d="M428.89,238c0-1.25,0-2.27-.1-3.27h1.95l.12,2h.05a4.45,4.45,0,0,1,4-2.27c1.68,0,4.28,1,4.28,5.14v7.23H437v-7c0-2-.73-3.57-2.8-3.57a3.23,3.23,0,0,0-3.1,3.27v7.28h-2.2Z"/><path class="cls-3" d="M451.39,246.37a8.13,8.13,0,0,1-3.48.7c-3.65,0-6-2.48-6-6.18a6.15,6.15,0,0,1,6.5-6.42,7.34,7.34,0,0,1,3.05.63l-.5,1.69a5.24,5.24,0,0,0-2.55-.57c-2.78,0-4.28,2.05-4.28,4.57,0,2.8,1.8,4.53,4.2,4.53a6.3,6.3,0,0,0,2.7-.6Z"/><path class="cls-3" d="M456.41,231.32a1.29,1.29,0,0,1-1.4,1.35,1.31,1.31,0,0,1-1.32-1.35,1.34,1.34,0,0,1,1.37-1.37A1.3,1.3,0,0,1,456.41,231.32ZM454,246.82v-12.1h2.2v12.1Z"/><path class="cls-3" d="M470.26,229.07v14.62c0,1.08,0,2.3.1,3.13h-2l-.1-2.1h-.05a4.48,4.48,0,0,1-4.13,2.37c-2.92,0-5.17-2.47-5.17-6.15,0-4,2.47-6.49,5.42-6.49a4.05,4.05,0,0,1,3.65,1.84h.05v-7.22Zm-2.2,10.57a3.6,3.6,0,0,0-.1-.92,3.23,3.23,0,0,0-3.17-2.55c-2.28,0-3.63,2-3.63,4.67,0,2.45,1.2,4.48,3.58,4.48a3.31,3.31,0,0,0,3.22-2.63,3.6,3.6,0,0,0,.1-.95Z"/><path class="cls-3" d="M484,243.52c0,1.25,0,2.35.09,3.3h-1.94l-.13-2H482a4.54,4.54,0,0,1-4,2.25c-1.9,0-4.17-1.05-4.17-5.3v-7.07H476v6.7c0,2.3.7,3.85,2.7,3.85a3.19,3.19,0,0,0,2.9-2,3.39,3.39,0,0,0,.2-1.13v-7.42H484Z"/><path class="cls-3" d="M487.69,238c0-1.25,0-2.27-.1-3.27h2l.12,2h0a4.45,4.45,0,0,1,4-2.27c1.68,0,4.28,1,4.28,5.14v7.23h-2.2v-7c0-2-.73-3.57-2.8-3.57a3.23,3.23,0,0,0-3.1,3.27v7.28h-2.2Z"/><path class="cls-3" d="M504.11,231.25v3.47h3.15v1.67h-3.15v6.53c0,1.5.43,2.35,1.65,2.35a5.17,5.17,0,0,0,1.28-.15l.1,1.65a5.52,5.52,0,0,1-1.95.3,3.06,3.06,0,0,1-2.38-.93A4.5,4.5,0,0,1,502,243v-6.6h-1.87v-1.67H502v-2.9Z"/></g></g></svg>