<svg xmlns="http://www.w3.org/2000/svg" viewBox="0 0 1115.62 920.72"><defs><style>.cls-1{fill:none;stroke:#909090;stroke-linecap:round;stroke-miterlimit:10;stroke-width:0.75px;stroke-dasharray:10 4 0 0 0 0;}.cls-2{font-size:25px;fill:#505150;font-family:Co-Text-Light, Co Text ;font-weight:300;}.cls-3{fill:#231f20;opacity:0.07;}.cls-4,.cls-5{font-size:22.47px;fill:#909090;}.cls-4{font-family:CourierNewPS-BoldMT, Courier New;font-weight:700;}.cls-5{font-family:CourierNewPSMT, Courier New;}</style></defs><g id="Layer_2" data-name="Layer 2"><g id="Layer_1-2" data-name="Layer 1"><line class="cls-1" x1="823" y1="883.95" x2="823" y2="23.29"/><line class="cls-1" x1="237.79" y1="883.95" x2="237.79" y2="25.61"/><line class="cls-1" x1="27.52" y1="163.57" x2="1041.42" y2="163.57"/><line class="cls-1" x1="27.52" y1="56.53" x2="1044.87" y2="58.03"/><line class="cls-1" x1="27.52" y1="737.77" x2="1040.85" y2="737.77"/><line class="cls-1" x1="26.39" y1="838.39" x2="1040.38" y2="838.39"/><text class="cls-2" transform="translate(3.27 75.69)">1</text><text class="cls-2" transform="translate(0 174.56)">2</text><text class="cls-2" transform="translate(3.27 737.77)">3</text><text class="cls-2" transform="translate(3.27 844.9)">4</text><text class="cls-2" transform="translate(230.43 906.95)">2</text><line class="cls-1" x1="43.2" y1="881.63" x2="43.2" y2="23.29"/><text class="cls-2" transform="translate(35.84 904.5)">1</text><text class="cls-2" transform="translate(814.76 909.13)">3</text><line class="cls-1" x1="1018.26" y1="884.65" x2="1018.26" y2="23.41"/><text class="cls-2" transform="translate(1010.02 909.85)">4</text><rect class="cls-3" x="51.64" width="178.27" height="860.98"/><text class="cls-4" transform="translate(118.98 27.42) scale(1.08 1)">1fr</text><rect class="cls-3" x="246.53" width="178.27" height="860.98"/><text class="cls-4" transform="translate(313.88 27.42) scale(1.08 1)">1fr</text><rect class="cls-3" x="441.43" width="178.27" height="860.98"/><text class="cls-4" transform="translate(508.78 27.42) scale(1.08 1)">1fr</text><rect class="cls-3" x="831.23" width="178.27" height="860.98"/><text class="cls-4" transform="translate(898.57 27.42) scale(1.08 1)">1fr</text><rect class="cls-3" x="636.33" width="178.27" height="860.98"/><text class="cls-4" transform="translate(703.68 27.42) scale(1.08 1)">1fr</text><text class="cls-5" transform="translate(1052.06 110.26) scale(1.08 1)">10vh</text><text class="cls-5" transform="translate(1057.52 455.55) scale(1.08 1)">auto</text><text class="cls-5" transform="translate(1047.16 785.78) scale(1.08 1)">10vh</text></g></g></svg>