<svg xmlns="http://www.w3.org/2000/svg" viewBox="0 0 1098.48 923.34"><defs><style>.cls-1{fill:#231f20;opacity:0.07;}.cls-10,.cls-2{font-size:22.47px;fill:#909090;}.cls-2{font-family:CourierNewPS-BoldMT, Courier New;font-weight:700;}.cls-3{fill:none;stroke:#909090;stroke-linecap:round;stroke-miterlimit:10;stroke-width:0.75px;stroke-dasharray:10 4 0 0 0 0;}.cls-4{fill:#abced4;}.cls-4,.cls-5,.cls-6,.cls-7{opacity:0.33;}.cls-5{fill:#b4d3aa;}.cls-6{fill:#d3abbd;}.cls-7{fill:#b1abd3;}.cls-8{font-size:30px;}.cls-8,.cls-9{fill:#505150;font-family:Co-Text-Light, Co Text ;font-weight:300;}.cls-9{font-size:25px;}.cls-10{font-family:CourierNewPSMT, Courier New;}</style></defs><g id="Layer_2" data-name="Layer 2"><g id="Layer_1-2" data-name="Layer 1"><rect class="cls-1" x="52.16" width="178.27" height="860.98"/><text class="cls-2" transform="translate(119.51 27.42) scale(1.08 1)">1fr</text><rect class="cls-1" x="247.06" width="178.27" height="860.98"/><text class="cls-2" transform="translate(314.4 27.42) scale(1.08 1)">1fr</text><rect class="cls-1" x="441.95" width="178.27" height="860.98"/><text class="cls-2" transform="translate(509.3 27.42) scale(1.08 1)">1fr</text><rect class="cls-1" x="831.75" width="178.27" height="860.98"/><text class="cls-2" transform="translate(899.1 27.42) scale(1.08 1)">1fr</text><rect class="cls-1" x="636.85" width="178.27" height="860.98"/><text class="cls-2" transform="translate(704.2 27.42) scale(1.08 1)">1fr</text><line class="cls-3" x1="823" y1="886.58" x2="823" y2="40.42"/><line class="cls-3" x1="237.79" y1="886.58" x2="237.79" y2="42.58"/><rect class="cls-4" x="52.16" y="66.79" width="956.93" height="93.26"/><rect class="cls-5" x="52.16" y="173.57" width="178.27" height="556.99"/><rect class="cls-6" x="253.38" y="173.57" width="556.99" height="556.99"/><rect class="cls-7" x="831.75" y="173.57" width="177.34" height="556.99"/><rect class="cls-4" x="52.16" y="746.39" width="956.93" height="88.61"/><text class="cls-8" transform="translate(875.84 468.82)">sidebar</text><line class="cls-3" x1="27.52" y1="166.18" x2="1041.42" y2="166.18"/><line class="cls-3" x1="27.52" y1="59.15" x2="1044.87" y2="60.65"/><line class="cls-3" x1="27.52" y1="740.39" x2="1040.85" y2="740.39"/><line class="cls-3" x1="26.39" y1="841.01" x2="1040.38" y2="841.01"/><text class="cls-8" transform="translate(105.99 468.31)">nav</text><text class="cls-8" transform="translate(481.03 122.37)">header</text><text class="cls-9" transform="translate(3.27 78.3)">1</text><text class="cls-9" transform="translate(0 177.18)">2</text><text class="cls-9" transform="translate(3.27 740.39)">3</text><text class="cls-9" transform="translate(3.27 847.52)">4</text><text class="cls-9" transform="translate(230.43 909.57)">2</text><line class="cls-3" x1="43.2" y1="884.3" x2="43.2" y2="40.3"/><text class="cls-9" transform="translate(35.84 907.12)">1</text><text class="cls-9" transform="translate(814.76 911.75)">3</text><line class="cls-3" x1="1018.26" y1="887.27" x2="1018.26" y2="40.42"/><text class="cls-9" transform="translate(1010.02 912.46)">4</text><text class="cls-8" transform="translate(493.48 461.49)">main</text><text class="cls-8" transform="translate(486.36 807.02)">footer</text><text class="cls-10" transform="translate(1034.92 114.3) scale(1.08 1)">10vh</text><text class="cls-10" transform="translate(1040.38 459.6) scale(1.08 1)">auto</text><text class="cls-10" transform="translate(1030.02 789.83) scale(1.08 1)">10vh</text></g></g></svg>