<?xml version="1.0" encoding="utf-8"?>
<!-- Generator: Adobe Illustrator 24.2.3, SVG Export Plug-In . SVG Version: 6.00 Build 0)  -->
<svg version="1.1" id="Layer_1" xmlns="http://www.w3.org/2000/svg" xmlns:xlink="http://www.w3.org/1999/xlink" x="0px" y="0px"
	 viewBox="0 0 512 512" style="enable-background:new 0 0 512 512;" xml:space="preserve">
<style type="text/css">
	.st0{fill:#505050;}
</style>
<g id="Change_password">
	<path class="st0" d="M464.4,147.5c-2.6-4.8-8.5-6.7-13.4-4.1c-4.8,2.5-6.7,8.4-4.2,13.3c43.6,83.2,27.9,185.2-38.8,251.4
		c-83.9,83.8-220.3,83.9-304.2,0c-3.9-3.9-10.1-3.9-14,0c-1.9,1.9-2.9,4.4-2.9,7V472c0,5.5,4.4,9.9,9.9,9.9s9.9-4.4,9.9-9.9v-34.5
		c100.2,82.4,248.3,67.9,330.7-32.3C497.3,332.4,507.9,231,464.4,147.5z"/>
	<path class="st0" d="M103.9,103.9c83.9-83.9,220.3-83.9,304.2,0c3.9,3.9,10.1,3.9,14,0c1.9-1.9,2.9-4.4,2.9-7V40
		c0-5.5-4.4-9.9-9.9-9.9c-5.5,0-9.9,4.4-9.9,9.9v34.6C313-1.4,176.1,3.8,89.9,89.9c-72.8,72.3-90,183.7-42.3,274.6
		c2.6,4.8,8.5,6.7,13.4,4.1c4.8-2.5,6.7-8.4,4.2-13.3C21.5,272.1,37.2,170.1,103.9,103.9z"/>
	<path class="st0" d="M126.4,254.6V364c0,14.9,12.1,27,27,27h205.2c14.9,0,27-12.1,27-27V254.6c0-14.9-12.1-27-27-27H153.4
		C138.5,227.6,126.4,239.7,126.4,254.6z M328,288.1c11.7,0,21.1,9.5,21.1,21.1s-9.5,21.1-21.1,21.1s-21.1-9.5-21.1-21.1c0,0,0,0,0,0
		C306.9,297.6,316.3,288.1,328,288.1z M256,288.1c11.7,0,21.1,9.5,21.1,21.1c0,11.7-9.5,21.1-21.1,21.1s-21.1-9.5-21.1-21.1
		c0,0,0,0,0,0C234.9,297.6,244.3,288.1,256,288.1z M184,288.1c11.7,0,21.1,9.5,21.1,21.1c0,11.7-9.5,21.1-21.1,21.1
		s-21.1-9.5-21.1-21.1c0,0,0,0,0,0C162.9,297.6,172.3,288.1,184,288.1z"/>
	<path class="st0" d="M343.7,207.8v-36c0-48.4-39.2-87.7-87.7-87.6c-48.4,0-87.6,39.2-87.6,87.6v36h19.8v-36
		c0-37.5,30.4-67.9,67.9-67.9s67.9,30.4,67.9,67.9v36H343.7z"/>
</g>
</svg>
