<?xml version="1.0" encoding="utf-8"?>
<!-- Generator: Adobe Illustrator 24.2.3, SVG Export Plug-In . SVG Version: 6.00 Build 0)  -->
<svg version="1.1" id="Layer_1_1_" xmlns="http://www.w3.org/2000/svg" xmlns:xlink="http://www.w3.org/1999/xlink" x="0px" y="0px"
	 viewBox="0 0 64 64" style="enable-background:new 0 0 64 64;" xml:space="preserve">
<style type="text/css">
	.st0{fill:#505050;}
</style>
<path class="st0" d="M63,47.8v-7.6l-3.7-1c-0.3-0.9-0.7-1.9-1.1-2.7l2-3.3l-5.3-5.3l-3.3,2c-0.9-0.5-1.8-0.8-2.7-1.1l-1-3.7h-7.6
	l-1,3.7c-0.9,0.3-1.9,0.7-2.7,1.1l-3.3-2L33,28.1V25h-3c-0.8,0-1.7-0.4-2.2-1c-0.6-0.6-0.8-1.5-0.8-2.3c0.1-1.5,1.5-2.7,3.2-2.7H33
	v-9c0-1.7-1.3-3-3-3h-8V6.2c0-2.6-2-4.9-4.5-5.1c-1.4-0.1-2.8,0.3-3.9,1.3C12.6,3.2,12,4.6,12,6v1H4c-1.7,0-3,1.3-3,3v9h2.8
	c1.6,0,3,1.2,3.2,2.7c0.1,0.9-0.2,1.7-0.8,2.3c-0.6,0.6-1.4,1-2.2,1H1v9c0,1.7,1.3,3,3,3h10v-2.8c0-1.6,1.2-3,2.7-3.2
	c0.9-0.1,1.7,0.2,2.3,0.8c0.6,0.6,1,1.4,1,2.2v3h9.6c-0.4,0.7-0.7,1.5-0.9,2.3l-3.7,1v7.6l3.7,1c0.3,0.9,0.7,1.9,1.1,2.7l-2,3.3
	l5.3,5.3l3.3-2c0.9,0.5,1.8,0.8,2.7,1.1l1,3.7h7.6l1-3.7c0.9-0.3,1.9-0.7,2.7-1.1l3.3,2l5.3-5.3l-2-3.3c0.5-0.9,0.8-1.8,1.1-2.7
	L63,47.8z M20.4,30.3c-1-0.9-2.4-1.4-3.9-1.3C14,29.3,12,31.5,12,34.2V35H4c-0.6,0-1-0.4-1-1v-7h1c1.4,0,2.8-0.6,3.7-1.6
	S9.1,23,9,21.5C8.7,19,6.5,17,3.8,17H3v-7c0-0.6,0.4-1,1-1h10V6c0-0.8,0.4-1.7,1-2.2C15.6,3.2,16.5,3,17.3,3C18.8,3.2,20,4.5,20,6.2
	V9h10c0.6,0,1,0.4,1,1v7h-0.8c-2.6,0-4.9,2-5.1,4.5c-0.1,1.4,0.3,2.8,1.3,3.9c0.9,1,2.3,1.6,3.7,1.6h1v3.1L28,33.2l1,1.8h-7v-1
	C22,32.6,21.4,31.2,20.4,30.3z M57.7,47.1l-0.2,0.6c-0.3,1.2-0.8,2.3-1.4,3.3l-0.3,0.5l1.8,3l-3.1,3.1l-3-1.8L51,56.1
	c-1,0.6-2.2,1.1-3.3,1.4l-0.6,0.2L46.2,61h-4.4l-0.9-3.3l-0.6-0.2c-1.2-0.3-2.3-0.8-3.3-1.4l-0.5-0.3l-3,1.8l-3.1-3.1l1.8-3L31.9,51
	c-0.6-1-1.1-2.2-1.4-3.3l-0.2-0.6L27,46.2v-4.4l3.3-0.9l0.2-0.6c0.3-1.2,0.8-2.3,1.4-3.3l0.3-0.5l-1.8-3l3.1-3.1l3,1.8l0.5-0.3
	c1-0.6,2.2-1.1,3.3-1.4l0.6-0.2l0.9-3.3h4.4l0.9,3.3l0.6,0.2c1.2,0.3,2.3,0.8,3.3,1.4l0.5,0.3l3-1.8l3.1,3.1l-1.8,3l0.3,0.5
	c0.6,1,1.1,2.2,1.4,3.3l0.2,0.6l3.3,0.9v4.4L57.7,47.1z"/>
<path class="st0" d="M44,36c-4.4,0-8,3.6-8,8s3.6,8,8,8c1.7,0,3.4-0.6,4.8-1.6l-1.2-1.6C46.5,49.6,45.3,50,44,50c-3.3,0-6-2.7-6-6
	s2.7-6,6-6s6,2.7,6,6c0,1.3-0.4,2.5-1.2,3.6l1.6,1.2c1.1-1.4,1.6-3.1,1.6-4.8C52,39.6,48.4,36,44,36z"/>
<path class="st0" d="M44,32c-6.6,0-12,5.4-12,12s5.4,12,12,12s12-5.4,12-12S50.6,32,44,32z M44,54c-5.5,0-10-4.5-10-10s4.5-10,10-10
	s10,4.5,10,10S49.5,54,44,54z"/>
</svg>
