<?xml version="1.0" encoding="utf-8"?>
<!-- Generator: Adobe Illustrator 24.2.3, SVG Export Plug-In . SVG Version: 6.00 Build 0)  -->
<svg version="1.1" id="Layer_1" xmlns="http://www.w3.org/2000/svg" xmlns:xlink="http://www.w3.org/1999/xlink" x="0px" y="0px"
	 viewBox="0 0 48 48" style="enable-background:new 0 0 48 48;" xml:space="preserve">
<style type="text/css">
	.st0{fill:#707070;}
</style>
<g id="_45-Area">
	<path class="st0" d="M46,10c1.1,0,2-0.9,2-2V2c0-1.1-0.9-2-2-2h-6c-1.1,0-2,0.9-2,2v2H10V2c0-1.1-0.9-2-2-2H2C0.9,0,0,0.9,0,2v6
		c0,1.1,0.9,2,2,2h2v28H2c-1.1,0-2,0.9-2,2v6c0,1.1,0.9,2,2,2h6c1.1,0,2-0.9,2-2v-2h28v2c0,1.1,0.9,2,2,2h6c1.1,0,2-0.9,2-2v-6
		c0-1.1-0.9-2-2-2h-2V10H46z M2,8V2h6v6H2z M8,46H2v-6h6V46z M38,40v2H10v-2c0-1.1-0.9-2-2-2H6V10h2c1.1,0,2-0.9,2-2V6h28v2
		c0,1.1,0.9,2,2,2h2v28h-2C38.9,38,38,38.9,38,40z M46,40v6h-6v-6H46z M40,8V2h6v6H40z"/>
</g>
</svg>
