<?xml version="1.0" encoding="utf-8"?>
<!-- Generator: Adobe Illustrator 24.2.3, SVG Export Plug-In . SVG Version: 6.00 Build 0)  -->
<svg version="1.1" id="Layer_1" xmlns="http://www.w3.org/2000/svg" xmlns:xlink="http://www.w3.org/1999/xlink" x="0px" y="0px"
	 viewBox="0 0 48 48" style="enable-background:new 0 0 48 48;" xml:space="preserve">
<style type="text/css">
	.st0{fill:#707070;}
</style>
<g id="_11-Folder">
	<path class="st0" d="M45,10h-1V9c0.1-1.6-1.2-2.9-2.8-3c-0.1,0-0.1,0-0.2,0H24V5c0-1.7-1.3-3-3-3H3C1.3,2,0,3.3,0,5v40
		c0,1.7,1.3,3,3,3h42c1.7,0,3-1.3,3-3V13C48,11.3,46.7,10,45,10z M24,8h17c0.5-0.1,0.9,0.3,1,0.8c0,0.1,0,0.1,0,0.2v1H24V8z M46,45
		c0,0.6-0.4,1-1,1H3c-0.6,0-1-0.4-1-1V5c0-0.6,0.4-1,1-1h18c0.6,0,1,0.4,1,1v5H12v2h33c0.6,0,1,0.4,1,1V45z"/>
</g>
</svg>
