<?xml version="1.0" encoding="utf-8"?>
<!-- Generator: Adobe Illustrator 24.2.3, SVG Export Plug-In . SVG Version: 6.00 Build 0)  -->
<svg version="1.1" id="Layer_1" xmlns="http://www.w3.org/2000/svg" xmlns:xlink="http://www.w3.org/1999/xlink" x="0px" y="0px"
	 viewBox="0 0 640 1280" style="enable-background:new 0 0 640 1280;" xml:space="preserve">
<style type="text/css">
	.st0{fill:#388E3C;}
</style>
<path class="st0" d="M289.8,200.4c-0.4,1-1.1,31-1.6,66.8c-1,83.8-1,84.1-7.4,99.1c-1.9,4.5-3.5,8.6-3.5,9.3c0,1.5,6.2,1.4,24.5-0.4
	c8.3-0.8,20.6-1.5,27.3-1.5h12.4l-0.6-54.3c-0.4-29.8-0.9-62.5-1.2-72.6l-0.6-18.3l-13.2-8.6c-15.7-10.3-33.6-21.2-34.6-21.2
	C290.9,198.7,290.2,199.5,289.8,200.4z"/>
<path class="st0" d="M292,385.8c-5.5,1.3-7.5,2.6-9.4,6.2c-1.6,2.8-1.8,5.8-1.6,22.7c0.1,19.6,2.9,62.9,5.9,91.1
	c2,19.7,4.3,28.3,9.2,35.6c6.8,10.1,8.3,13.9,9.2,23.6c0.6,5.6,1.4,9.6,2.3,10.5c3.3,3.2,28.5,2.3,36.1-1.3c5.5-2.6,6.1-5.4,6-28
	c-0.2-19-1.1-36.2-6.9-122.9c-1.4-20.3-2.5-37.2-2.5-37.7C340.3,384.4,297,384.6,292,385.8z"/>
<path class="st0" d="M443,388.9c-2,1.5-5.3,17.1-15.7,73.3c-11.8,64.1-15.3,85-22.5,136.5c-4.9,34.2-5,35.7-3.5,41.2
	c1.2,4.2,2.1,4.6,17.3,7.2c7.2,1.3,11.1,1.4,21.9,0.5c7.3-0.6,14.6-1.6,16.3-2.3c3-1.3,3.2-1.6,5.3-13.7
	c2.8-15.6,7.4-44.4,15.2-94.4c3.6-22.9,9-52.4,13.1-71.5c11-51.2,12.8-60.1,13.1-66.9c0.3-6.2,0.2-6.4-2.4-7.2
	c-2.6-0.7-20.6-2-45.3-3.4C447.4,387.7,444.4,387.9,443,388.9z"/>
<path class="st0" d="M279.5,540.9c4.7,5.1,11.2,12.8,14.6,17.1c5.6,7.1,6.2,7.6,6.2,5c-0.1-7.4-8-17.6-20.5-26.2
	c-4-2.8-7.6-5.1-8-5.1C271.4,531.7,274.9,535.9,279.5,540.9z"/>
<path class="st0" d="M234.8,557.2c-0.5,0.2-4.1,0.7-8,1.1l-7,0.7l4.5,1.4c14.4,4.3,62.3,13.3,63.7,11.9c0.9-0.9-16.6-9.6-25.3-12.5
	c-7.6-2.6-10.7-3.1-18-3C239.8,556.8,235.4,557,234.8,557.2z"/>
<path class="st0" d="M288.3,559.9c0,3.3,3,8.6,6.5,11.2c2,1.6,3.8,2.6,4.1,2.4c0.2-0.2-1.7-3.3-4.2-6.9
	C288.8,558.4,288.3,557.9,288.3,559.9z"/>
<path class="st0" d="M260.1,580.2c-9.4,2.6-14,5.7-24.5,16.4c-5.6,5.8-10,10.7-9.8,10.9c1.5,1.5,63.5-25.8,63.5-28
	C289.3,578.2,265.3,578.7,260.1,580.2z"/>
<path class="st0" d="M291.6,586.6c-7.7,6.1-15.2,14.6-17.8,20.3c-2.2,4.7-2.5,6.6-2.5,17.8l0.1,12.5l2.9-3.5
	c4.5-5.5,14.7-22.8,18.5-31.6c3.3-7.6,6-19.4,4.4-19.4C296.8,582.7,294.3,584.4,291.6,586.6z"/>
<path class="st0" d="M301.1,593c-0.9,3.6-3.8,10.9-6.3,16.4l-4.7,9.8l0.6,10.5c0.8,13.6,8.2,107.9,10.1,127.9
	c2,21.1,0,19.6,25.8,19.6h20.2l8.3-4.8c6.2-3.7,8.2-5.4,8.2-7c0-1.8-3.2-46-10.9-151.5c-1-13.9-2.2-25.6-2.5-26
	c-0.4-0.4-11.2-0.8-23.9-1l-23.2-0.4L301.1,593z"/>
<path class="st0" d="M501.3,635.8c-4.1,1.1-7.9,2.5-8.5,3.1c-0.7,0.8-0.5,0.9,0.8,0.4c1-0.3,12.5-0.6,25.5-0.6
	c13.8,0,23.1-0.4,22.2-0.9c-2.5-1.5-19.9-4.1-26.4-4C511.5,633.8,505.4,634.7,501.3,635.8z"/>
<path class="st0" d="M488.3,655.6c0,1,13.6,13.4,24,21.7c15.2,12.2,28,21.4,28,20.2c0-0.7-2.3-5.9-5.1-11.5
	c-5.8-11.7-9.9-15.9-20.7-21.6C504.3,659.1,488.3,653.7,488.3,655.6z"/>
<path class="st0" d="M400.8,656.7c-1.2,0.4-2.6,1.5-3.3,2.3c-1.7,2-14.1,93.1-12.9,94.3c0.3,0.3,2.5,0,4.8-0.7
	c3.1-1,11.8-1.3,30.2-1.2c14.1,0.1,25.7-0.2,25.8-0.5c0-0.4,1.5-12.4,3.3-26.7c1.8-14.3,3.2-26.1,3.1-26.3c-0.1-0.1-4,2.1-8.6,4.9
	c-8.4,5.3-33.5,18.1-37.6,19.4c-1.3,0.3-2.3,0.2-2.3-0.3c0-1.2,10.1-17.2,17.7-27.9c3.4-4.9,11.2-14.4,17.2-21.3
	c8-8.9,10.7-12.6,9.7-13.2C443.2,656.9,405.8,654.6,400.8,656.7z"/>
<path class="st0" d="M461.8,658.9c-8.2,6.4-21.9,20.6-29.4,30.3c-8.1,10.4-14.1,18.9-14.1,19.9c0,2.3,27-14.4,32.4-20.1
	c4.7-4.9,11.6-17,14.6-25.9C468.3,654.3,468,653.9,461.8,658.9z"/>
<path class="st0" d="M478,659.6c-0.9,4.3-0.9,50.9-0.1,59c0.4,3.3,1,6.1,1.4,6.1c0.4,0,3.8-6,7.5-13.4c6-11.8,6.8-14.3,7.3-20.5
	c0.3-4.3,0-8.9-0.8-11.7c-1.3-4.7-6.5-13.3-11.7-19.3l-3-3.5L478,659.6z"/>
<path class="st0" d="M394.3,757.2c-3.6,0.7-7.6,1.8-9,2.4c-2.4,0.9-2.4,1-0.3,1c2.3,0.1,33.6-3.6,36.3-4.3
	C425.7,755.2,399.8,756.1,394.3,757.2z"/>
<path class="st0" d="M421.3,761.9c-13.8,1.4-37.1,4.7-38.1,5.3c-2.3,1.5-0.2,2.4,8.9,4c20.7,3.7,29.4,7.6,39.8,17.9l7.3,7.1l0.6-3.5
	c1.7-10.3,4.1-31.1,3.7-31.5C442.7,760.5,431.2,760.8,421.3,761.9z"/>
<path class="st0" d="M377.3,775.3c0,1.8,55.5,26.2,56.8,24.9c1-0.9-12-13.5-16.3-15.7c-6.6-3.4-14.4-5.7-26.3-7.8
	C379.3,774.6,377.3,774.4,377.3,775.3z"/>
<path class="st0" d="M349.1,783.1c-3.6,3-9.7,9.3-13.6,14c-7.5,9.1-18.7,25.4-18,26.1c0.7,0.7,16.9-9.2,23.2-14.2
	c6.2-4.8,10.5-10.9,13.5-18.8c2.5-6.5,3.6-12.5,2.4-12.5C356.1,777.7,352.7,780.1,349.1,783.1z"/>
<path class="st0" d="M367.8,782.9c1.2,9.4,4.5,25,7.7,36.1c2.6,8.8,3.4,10.6,4.4,9.5c1.6-1.6,8-18.1,8.9-22.9c0.9-5-1-11.3-4.8-15.6
	c-3.4-3.9-14.3-12.3-15.9-12.3C367.5,777.7,367.4,779.7,367.8,782.9z"/>
<path class="st0" d="M323.3,784.9c-8,0.4-15.8,1.1-17.5,1.6l-3,0.8l-0.3,12c-0.4,11.8,0.5,44.2,3.3,120.2l1.5,39.3l3.3,3.2
	c1.8,1.8,4,4.3,4.9,5.7l1.6,2.5l21.6-0.2c19-0.2,22.3-0.5,26.1-2.2c3.2-1.4,4.3-2.4,4-3.8c-0.4-1.9-1.6-33.8-4-110.3
	c-1.6-49.9-2.4-65-3.4-65c-0.4,0-1.3,1.7-2,3.7c-3.8,10.5-13.5,20.8-27.4,29.1c-7.7,4.7-26,14.2-27.2,14.2c-0.7,0,3.3-7.9,9-17.5
	c4.4-7.5,14.5-21.3,21.6-29.8c1.7-2.1,3-3.9,2.8-4C338,784.3,331.3,784.5,323.3,784.9z"/>
<path class="st0" d="M392.8,793.8c3.2,9,1,18.7-9.6,41.6l-4.1,8.8l-2.3-4.5c-2.7-5.1-3.1-4.7-4.4,4.9c-0.8,6.3-0.7,6.6,3,13.5
	c6.6,12.5,8.7,27,5.4,38c-0.8,2.7-1.4,5.1-1.2,5.3c1,0.9,31,2.5,35.9,1.9c9.1-1.2,10.3-2.7,12.2-15.3c2.2-14.8,9.6-74.5,9.6-77.6
	c0-2.2-0.8-2.9-5.7-4.7c-3.2-1.2-13.3-5.3-22.5-9.1c-9.2-3.8-16.9-6.9-17.2-6.9C391.6,789.7,392,791.6,392.8,793.8z"/>
<path class="st0" d="M224.1,808.8c-0.3,1.3-3.1,13.6-6.1,27.4c-3.1,13.7-5.9,27-6.2,29.5l-0.7,4.5l2.1-2.5
	c3.3-4.1,10.7-20,12.6-27.3c1.5-5.5,1.7-8.8,1.1-18.9C226.2,809.2,225.1,804.2,224.1,808.8z"/>
<path class="st0" d="M169.7,856.7c2.2,2.5,9.6,10.3,16.5,17.5c10.9,11.4,12.1,12.4,9.6,8c-4.3-7.6-8.9-12.9-17.8-20.3
	C166.4,852.3,165.3,851.6,169.7,856.7z"/>
<path class="st0" d="M370.6,868.9c0.3,3.5,1.7,9.3,3.1,12.9l2.5,6.4v-5.6c0.1-6-3.1-18.3-5.1-19.5
	C370.3,862.6,370.1,864.2,370.6,868.9z"/>
<path class="st0" d="M296.3,869.7c1.9,1.3,3,1.3,3,0c0-0.6-1-1-2.2-1C295.2,868.7,295.1,868.9,296.3,869.7z"/>
<path class="st0" d="M371.4,895.3c-0.1,1.7,0.6,3.7,1.4,4.4c1.5,1.3,1.5,0.9-0.8-6C371.7,892.9,371.4,893.6,371.4,895.3z"/>
<path class="st0" d="M122.8,902.3c-5.4,0.9-23.4,5.5-27.2,6.9l-3.8,1.5l4-0.5c11.5-1.4,58.6-5.2,69.5-5.6l3.5-0.1l-4-0.9
	C160.3,902.6,127.4,901.6,122.8,902.3z"/>
<path class="st0" d="M220.6,912.4c-2.2,1.5,51.2,8.4,63.5,8.2l5.7-0.1l-7-1.9c-14.7-4-29-6.1-45-6.5
	C229,911.8,221.2,912,220.6,912.4z"/>
<path class="st0" d="M375.5,915.4c-2.1,4.2-2.5,9-2.3,30.9c0.2,18.2,0,23.4-1.1,24c-0.7,0.5-3.1,1.7-5.3,2.6c-4,1.7-4,1.7-1,1.8
	c6.1,0.1,5.9-0.6,6.7,29.7c0.3,15.3,1.1,51.4,1.7,80.3s1.4,56.4,1.7,61.2c0.6,8.5,0.8,8.8,3.1,8.8c2.8,0,8.8-2.4,9.7-3.8
	c1.4-2.3,4.6-25,19.6-136.8c3.3-24.8,7.3-52.9,9-62.5c3.8-22.3,5-34,3.6-34.5c-1-0.3-40-3.4-43.3-3.4
	C376.9,913.7,376,914.5,375.5,915.4z"/>
<path class="st0" d="M165.8,920.4c-1.1,0.3-10.1,3.4-20,7c-20.8,7.5-43.4,18.2-52.6,24.9c-9.6,7.1-27.1,21.6-26.6,22.1
	c1,1,69.3-34,90.2-46.3C169.7,920.5,171.5,919,165.8,920.4z"/>
<path class="st0" d="M200.4,922.1c0.2,0.2,14.1,6.4,30.9,13.6c38.2,16.6,61.5,27.4,70.9,32.8l7.2,4.2l-0.3-2.8
	c-0.3-2.3-1.5-3.3-8.8-6.9c-22.4-11.1-57.1-25.8-85.8-36.4C202.1,922,199.4,921.1,200.4,922.1z"/>
<path class="st0" d="M179.7,925.6c-11.1,4-18,9.4-21.9,17.1c-3.5,6.8-8.9,23.7-12.5,39c-1.7,7.4-3.6,14.7-4,16.2
	c-0.5,1.6-0.5,2.8-0.1,2.8c1.3,0,21.5-21.2,25-26.3c6.5-9.5,18.9-37,21.6-48C188.7,923.1,187.2,922.9,179.7,925.6z"/>
<path class="st0" d="M297.4,930.1c-1.7,1.8-2,2.6-1,2.6c2.4,0,4.1-1.6,3.7-3.5C299.9,927.8,299.4,927.9,297.4,930.1z"/>
<path class="st0" d="M306.7,1041c0.9,76.2,2.1,113.4,3.6,115.2c2.3,2.8,11.1,3.7,33.5,3.3c16.2-0.2,22.6-0.7,24.4-1.7l2.4-1.3
	l-0.6-25.7c-0.3-14.1-1.1-53.1-1.7-86.6c-0.7-33.6-1.3-61.6-1.6-62.3c-0.3-1-6.8-1.2-30.5-1.2l-30.2,0.1L306.7,1041z"/>
<path class="st0" d="M480,156c-3.7,11-25.2,149.6-27.1,174.8c-0.9,11.4-1.3,13.2-4.9,21.4c-4.5,10.6-5.6,18.1-3.1,23.1
	c2.8,5.6,5,6.2,30.4,7.9c12.6,0.9,23.1,1.4,23.3,1.3c0.5-0.5,3.1-10.4,4.8-18.4c0.8-4,3.1-21.9,5-39.7c3.8-35.1,5.7-49.6,12.4-94.5
	l4.5-29.4l-8.2-11.5c-10-14.1-20.8-26.5-28.2-32.5C482.4,153.3,481.1,152.9,480,156z"/>
<path class="st0" d="M399.7,350.5c13.1,7.5,30.6,19,38.1,24.8c3,2.3,5.7,4.1,5.9,4c0.2-0.2-0.7-2.3-2.2-4.6
	c-2.9-4.8-8.7-10.5-15.1-14.9c-4.6-3.1-32.4-15.1-35.5-15.4C390,344.3,394,347,399.7,350.5z"/>
<path class="st0" d="M400.1,372.2c-1.6,0.5-7.2,2.5-12.4,4.4l-9.3,3.7l12.9,1.7c12.4,1.7,38,2.3,47,1.3l4-0.5l-2.9-1.4
	C428.9,375.9,406.4,370.7,400.1,372.2z"/>
<path class="st0" d="M434.7,385c-6.2,0.7-10,1.9-14.3,4.6c-5.4,3.4-6.7,6.9-7.7,20.9l-0.8,12.3l5.4-5.1c9.6-9,26.2-29.3,26.5-32.3
	C443.8,384.4,440.8,384.2,434.7,385z"/>
<path class="st0" d="M443.5,388.7c-2.4,6.1-2.9,17.9-1.1,23.1c1.5,4.2,9.6,17.5,14.9,24.5l2.4,3.2l-0.1-6c-0.3-8.2-3-24.2-5.4-32
	c-2-6.2-7.3-16.6-8.5-16.7C445.4,384.7,444.4,386.4,443.5,388.7z"/>
</svg>
