<?xml version="1.0" encoding="utf-8"?>
<!-- Generator: Adobe Illustrator 24.2.3, SVG Export Plug-In . SVG Version: 6.00 Build 0)  -->
<svg version="1.1" id="Glyph" xmlns="http://www.w3.org/2000/svg" xmlns:xlink="http://www.w3.org/1999/xlink" x="0px" y="0px"
	 viewBox="0 0 32 32" style="enable-background:new 0 0 32 32;" xml:space="preserve">
<style type="text/css">
	.st0{fill:#505050;}
</style>
<path id="XMLID_223_" class="st0" d="M30.5,27.2l-6.4-6.7c1.2-2.1,2.1-4.5,2.1-7c0-7-5.7-12.7-12.7-12.7S1.1,7,1.1,13.9
	s5.4,12.4,12.4,12.4c2.4,0,4.8-0.6,7-2.1l6.4,6.4c0.9,0.9,2.4,0.9,3.6,0C31.7,29.7,31.7,28.1,30.5,27.2z M4.8,13.9
	c0-4.8,3.9-8.8,8.8-8.8s8.8,3.9,8.8,8.8s-3.6,8.8-8.8,8.8S4.8,18.8,4.8,13.9z"/>
</svg>
