<?xml version="1.0" encoding="utf-8"?>
<!-- Generator: Adobe Illustrator 24.2.3, SVG Export Plug-In . SVG Version: 6.00 Build 0)  -->
<svg version="1.1" id="Layer_1" xmlns="http://www.w3.org/2000/svg" xmlns:xlink="http://www.w3.org/1999/xlink" x="0px" y="0px"
	 viewBox="0 0 256 256" style="enable-background:new 0 0 256 256;" xml:space="preserve">
<style type="text/css">
	.st0{fill-rule:evenodd;clip-rule:evenodd;fill:#B2215A;}
	.st1{fill:none;}
</style>
<path class="st0" d="M128,255.8C57.4,255.8,0,198.5,0,128C0,57.5,57.4,0.2,128,0.2s128,57.3,128,127.8
	C256,198.4,198.6,255.8,128,255.8L128,255.8L128,255.8z M235.9,145.4c-3.7-1.2-33.8-10.1-68.1-4.7c14.3,39.2,20.1,71.2,21.2,77.8
	C213.6,202,231.1,175.8,235.9,145.4L235.9,145.4L235.9,145.4z M170.7,228.6c-1.6-9.6-8-43-23.3-82.8c-0.2,0.1-0.5,0.2-0.7,0.2
	c-61.7,21.5-83.8,64.2-85.8,68.2c18.5,14.4,41.8,23,67.1,23C143.1,237.3,157.6,234.2,170.7,228.6L170.7,228.6L170.7,228.6z
	 M46.8,201.1c2.5-4.2,32.5-53.8,88.9-72.1c1.4-0.5,2.9-0.9,4.3-1.3c-2.7-6.2-5.7-12.4-8.9-18.5c-54.6,16.3-107.6,15.6-112.4,15.5
	c0,1.1-0.1,2.2-0.1,3.3C18.7,156.1,29.3,181.7,46.8,201.1L46.8,201.1L46.8,201.1z M21,105.7c4.9,0.1,49.9,0.3,101.1-13.3
	C104,60.3,84.4,33.2,81.6,29.4C50.9,43.8,28.1,71.9,21,105.7L21,105.7L21,105.7z M102.4,21.9c3,4,22.9,31,40.8,63.9
	c38.9-14.6,55.3-36.6,57.3-39.4c-19.3-17.1-44.7-27.5-72.5-27.5C119.2,18.9,110.6,20.1,102.4,21.9L102.4,21.9L102.4,21.9z
	 M212.6,59.1c-2.3,3.1-20.6,26.6-61,43.1c2.5,5.2,5,10.5,7.3,15.8c0.8,1.9,1.6,3.8,2.4,5.6c36.4-4.6,72.5,2.8,76.1,3.5
	C237.1,101.4,227.9,77.6,212.6,59.1L212.6,59.1L212.6,59.1z"/>
<rect x="0" y="0" class="st1" width="256" height="256"/>
</svg>
