<?xml version="1.0" ?><svg data-name="Layer 45" height="24" id="Layer_45" viewBox="0 0 24 24" width="24" xmlns="http://www.w3.org/2000/svg"><title/><path d="M15.25694,3.625H8.74306A5.11805,5.11805,0,0,0,3.625,8.74306v6.51389A5.11805,5.11805,0,0,0,8.74306,20.375h6.51389A5.118,5.118,0,0,0,20.375,15.25694V8.74306A5.118,5.118,0,0,0,15.25694,3.625Z" style="fill:#fff"/><path d="M15.5,4.5a4.00453,4.00453,0,0,1,4,4v7a4.00453,4.00453,0,0,1-4,4h-7a4.00453,4.00453,0,0,1-4-4v-7a4.00453,4.00453,0,0,1,4-4h7m0-1.5h-7A5.5,5.5,0,0,0,3,8.5v7A5.5,5.5,0,0,0,8.5,21h7A5.5,5.5,0,0,0,21,15.5v-7A5.5,5.5,0,0,0,15.5,3Z" style="fill:#ff78b2"/><path d="M12,9a3,3,0,1,1-3,3,3.00339,3.00339,0,0,1,3-3m0-1.5A4.5,4.5,0,1,0,16.5,12,4.5,4.5,0,0,0,12,7.5Z" style="fill:#ff78b2"/><circle cx="16.7" cy="7.3" r="1" style="fill:#ff78b2"/></svg>