<?xml version="1.0" encoding="utf-8"?>
<!-- Generator: Adobe Illustrator 24.2.3, SVG Export Plug-In . SVG Version: 6.00 Build 0)  -->
<svg version="1.1" id="Layer_45" xmlns="http://www.w3.org/2000/svg" xmlns:xlink="http://www.w3.org/1999/xlink" x="0px" y="0px"
	 viewBox="0 0 24 24" style="enable-background:new 0 0 24 24;" xml:space="preserve">
<style type="text/css">
	.st0{fill:#505050;}
</style>
<path class="st0" d="M16.5,2.4c2.8,0,5.1,2.3,5.1,5.1v8.9c0,2.8-2.3,5.1-5.1,5.1H7.5c-2.8,0-5.1-2.3-5.1-5.1V7.5
	c0-2.8,2.3-5.1,5.1-5.1H16.5 M16.5,0.5H7.5c-3.9,0-7,3.1-7,7v8.9c0,3.9,3.1,7,7,7h8.9c3.9,0,7-3.1,7-7V7.5
	C23.5,3.7,20.3,0.5,16.5,0.5z"/>
<path class="st0" d="M12,8.2c2.1,0,3.8,1.7,3.8,3.8s-1.7,3.8-3.8,3.8S8.2,14.1,8.2,12C8.2,9.9,9.9,8.2,12,8.2 M12,6.3
	c-3.2,0-5.7,2.6-5.7,5.7s2.6,5.7,5.7,5.7s5.7-2.6,5.7-5.7S15.2,6.3,12,6.3z"/>
<circle class="st0" cx="18" cy="6" r="1.3"/>
</svg>
