<?xml version="1.0" encoding="utf-8"?>
<!-- Generator: Adobe Illustrator 24.2.3, SVG Export Plug-In . SVG Version: 6.00 Build 0)  -->
<svg version="1.1" id="twitter" xmlns="http://www.w3.org/2000/svg" xmlns:xlink="http://www.w3.org/1999/xlink" x="0px" y="0px"
	 viewBox="0 0 203.4 167" style="enable-background:new 0 0 203.4 167;" xml:space="preserve">
<style type="text/css">
	.st0{fill:#50CCD3;}
</style>
<path class="st0" d="M203.4,19.8c-6.5,5-22.9,6.3-22.9,6.3c17.5-13.8,16.9-22.6,16.9-22.6c-11.2,8.1-22.4,9.1-27.8,9
	C162.1,4.8,151.8,0,140.4,0c-22.6,0-40.9,18.6-40.9,41.5c0,3.6,0.4,7,1.3,10.3C53.1,54.6,14.6,8.5,14.6,8.5
	C-3.2,39.3,25.5,64.1,25.5,64.1c-7.7,1.2-16.4-5.2-16.4-5.2c-0.6,35.2,31.3,41.9,31.3,41.9c-6.3,2.9-16.9,0.6-16.9,0.6
	c8.9,29.1,37,28.8,37,28.8C38.7,154.7,0,147.7,0,147.7c37,28.2,88.1,17.2,88.1,17.2C188.8,141,182.2,43.5,182.2,43.5
	C201.8,25.5,203.4,19.8,203.4,19.8z M171.2,34c0.2,1.8,0.5,3.6,0.7,5.4l0.3,4.8c0,0.2,1.3,23-8.9,48c-13.3,32.7-39.4,53.8-77.4,62.9
	c-0.8,0.2-9.6,1.9-21.9,1.9c0,0,0,0,0,0c-7,0-15.3-0.6-24-2.4c9.9-3.2,19.9-8.6,28-17.8l15-16.9l-22.6,0.2c-1.5,0-12-0.4-20.1-8.9
	c1.5-0.4,3-0.9,4.3-1.5l27.4-12.6L42.5,91c-1.8-0.4-14.7-3.8-20.5-16.8c0.5,0,1,0,1.6,0c1.2,0,2.3-0.1,3.4-0.3l21.5-3.2L32.1,56.5
	C31.4,55.9,17.8,43.8,19,27.2C34.3,41.2,62.8,62,96.6,62c1.6,0,3.1,0,4.7-0.1l12.1-0.7l-2.9-11.7c-0.6-2.6-1-5.2-1-7.9
	c0-17.4,13.9-31.5,30.9-31.5c8.3,0,16.1,3.3,22,9.4l2.9,3c1.1,1.6,2.2,3.3,3.3,4.9"/>
</svg>
