<?xml version="1.0" encoding="utf-8"?>
<!-- Generator: Adobe Illustrator 24.2.3, SVG Export Plug-In . SVG Version: 6.00 Build 0)  -->
<svg version="1.1" id="twitter" xmlns="http://www.w3.org/2000/svg" xmlns:xlink="http://www.w3.org/1999/xlink" x="0px" y="0px"
	 viewBox="0 0 203.4 167" style="enable-background:new 0 0 203.4 167;" xml:space="preserve">
<style type="text/css">
	.st0{fill:#505050;}
</style>
<path class="st0" d="M64.1,168.5c-17.9,0-43.8-3.4-65.1-19.6l1.2-2.7c0.1,0,5.1,0.9,12.4,0.9c23.1,0,36.8-8.1,44.5-15.7
	c-7.9-0.9-27.8-5.7-35.2-29.6l-0.7-2.4l2.5,0.5c0,0,3.9,0.8,8.2,0.8c1.1,0,2.1,0,3-0.1C25.8,96.9,7.1,86.1,7.6,58.9l0-2.9l2.3,1.7
	c0.1,0,5.9,4.3,12,5c-6.8-7.3-23.5-29.2-8.6-54.9l1.1-1.9l1.4,1.6C16.1,8,52.1,50.4,96.6,50.4c0,0,0,0,0,0c0.8,0,1.5,0,2.3,0
	c-0.6-2.8-0.9-5.7-0.9-8.9c0-23.7,19-43,42.4-43c11.2,0,21.8,4.4,29.8,12.5c0,0,0,0,0.1,0c5.3,0,15.7-1.1,26.2-8.7l2.2-1.6l0.2,2.7
	c0,0.4,0.4,8.3-13.5,20.6c5.2-0.8,13.2-2.4,17.1-5.4l3.6-2.7l-1.2,4.3c-0.2,0.6-2.2,6.5-21.1,23.9c0.2,4.3,0.5,26.9-9.4,51.7
	c-10.1,25.3-33.2,58.1-85.9,70.6C88,166.5,78.3,168.5,64.1,168.5C64.1,168.5,64.1,168.5,64.1,168.5z M45.7,154.1
	c5.9,0.9,12.1,1.4,18.3,1.4c12.8,0,21.5-1.8,21.5-1.9c37.6-9,63.3-29.9,76.4-62c9.5-23.4,8.9-44.9,8.8-47.3l0-0.1l-0.3-4.7
	c-0.1-0.8-0.2-1.7-0.3-2.6c-0.1-0.8-0.2-1.7-0.3-2.5l-2.5-6.3c-0.5-0.8-1-1.5-1.6-2.3c-0.5-0.8-1.1-1.6-1.6-2.3l-2.8-2.9
	c-5.6-5.8-13-8.9-20.9-8.9c-16.2,0-29.4,13.5-29.4,30c0,2.3,0.3,4.7,1,7.6l3.3,13.4l-13.9,0.8c-1.6,0.1-3.2,0.1-4.8,0.1
	c-33,0-61.1-19.7-76.1-33c0.7,14.4,12.5,24.7,12.6,24.9l18.9,16.3l-24.7,3.7c-0.9,0.2-1.8,0.3-2.8,0.3c6,10.8,17.1,13.6,18.4,13.9
	l33.9,7l-31.5,14.5c-0.6,0.3-1.3,0.6-2,0.8c7.5,6.5,16.2,6.7,17.2,6.7l26-0.2l-17.2,19.4C62.9,144.8,55.1,150.3,45.7,154.1z"/>
<path class="st0" d="M203.4,19.8c-6.5,5-22.9,6.3-22.9,6.3C198,12.3,197.4,3.5,197.4,3.5c-11.2,8.1-22.4,9.1-27.8,9
	C162.1,4.8,151.8,0,140.4,0c-22.6,0-40.9,18.6-40.9,41.5c0,3.6,0.4,7,1.3,10.3C53.1,54.6,14.6,8.5,14.6,8.5
	C-3.2,39.3,25.5,64.1,25.5,64.1c-7.7,1.2-16.4-5.2-16.4-5.2c-0.6,35.2,31.3,41.9,31.3,41.9c-6.3,2.9-16.9,0.6-16.9,0.6
	c8.9,29.1,37,28.8,37,28.8C38.7,154.7,0,147.7,0,147.7c37,28.2,88.1,17.2,88.1,17.2C188.8,141,182.2,43.5,182.2,43.5
	C201.8,25.5,203.4,19.8,203.4,19.8z M171.2,34c0.2,1.8,0.5,3.6,0.7,5.4l0.3,4.8c0,0.2,1.3,23-8.9,48c-13.3,32.7-39.4,53.8-77.4,62.9
	c-0.8,0.2-9.6,1.9-21.9,1.9l0,0c-7,0-15.3-0.6-24-2.4c9.9-3.2,19.9-8.6,28-17.8l15-16.9l-22.6,0.2c-1.5,0-12-0.4-20.1-8.9
	c1.5-0.4,3-0.9,4.3-1.5L72,97.1L42.5,91c-1.8-0.4-14.7-3.8-20.5-16.8c0.5,0,1,0,1.6,0c1.2,0,2.3-0.1,3.4-0.3l21.5-3.2L32.1,56.5
	C31.4,55.9,17.8,43.8,19,27.2C34.3,41.2,62.8,62,96.6,62c1.6,0,3.1,0,4.7-0.1l12.1-0.7l-2.9-11.7c-0.6-2.6-1-5.2-1-7.9
	c0-17.4,13.9-31.5,30.9-31.5c8.3,0,16.1,3.3,22,9.4l2.9,3c1.1,1.6,2.2,3.3,3.3,4.9"/>
</svg>
