<?xml version="1.0" encoding="utf-8"?>
<!-- Generator: Adobe Illustrator 24.2.3, SVG Export Plug-In . SVG Version: 6.00 Build 0)  -->
<svg version="1.1" id="Layer_1" xmlns="http://www.w3.org/2000/svg" xmlns:xlink="http://www.w3.org/1999/xlink" x="0px" y="0px"
	 viewBox="0 0 128 128" style="enable-background:new 0 0 128 128;" xml:space="preserve">
<style type="text/css">
	.st0{fill:#505050;}
</style>
<g>
	<path class="st0" d="M64,126c34.2,0,62-27.8,62-62S98.2,2,64,2S2,29.8,2,64S29.8,126,64,126z M16,88.7l25.2-0.2
		c2.8,10.1,7.5,19.9,13.9,28.7C38,114.4,23.7,103.5,16,88.7z M47.6,47H79c2.3,11,2.3,22.3,0.2,33.3l-31.6,0.2
		C45.3,69.4,45.3,58,47.6,47z M63.3,114.9c-6.3-8.1-10.9-17-13.7-26.4l27.5-0.2C74.2,97.7,69.6,106.7,63.3,114.9z M71.3,117.5
		c6.6-9,11.3-18.9,14.1-29.3l26.9-0.2C104.5,103.7,89.3,115,71.3,117.5z M118,64c0,5.6-0.9,11-2.4,16l-28.3,0.2
		c2-11,1.9-22.2-0.2-33.2h28.1C117,52.3,118,58.1,118,64z M111.8,39H85.2c-2.9-10-7.5-19.7-13.9-28.5C89,12.9,103.9,23.8,111.8,39z
		 M76.9,39H49.7c2.9-9.2,7.4-17.9,13.6-25.9C69.5,21.1,74,29.8,76.9,39z M55.1,10.8C48.8,19.5,44.2,29,41.4,39H16.2
		C23.9,24.3,38.1,13.6,55.1,10.8z M39.5,47c-2.1,11.1-2.1,22.4-0.1,33.5l-26.7,0.2C10.9,75.4,10,69.8,10,64c0-5.9,1-11.7,2.8-17
		H39.5z"/>
</g>
</svg>
