<svg xmlns="http://www.w3.org/2000/svg" viewBox="0 0 866.34 641.23"><defs><style>.cls-1,.cls-4,.cls-5{fill:#abced4;}.cls-1{opacity:0.33;}.cls-11,.cls-2,.cls-3,.cls-7,.cls-9{fill:none;stroke-miterlimit:10;}.cls-11,.cls-2,.cls-3{stroke:#abced4;}.cls-11,.cls-2,.cls-7,.cls-9{stroke-width:3px;}.cls-3{stroke-width:2px;}.cls-5,.cls-8{font-size:19px;font-family:Co-ext-Bold, Co Text ;font-weight:700;}.cls-6{font-size:20px;fill:#505150;font-family:Co-Text-Light, Co Text ;font-weight:300;}.cls-7,.cls-9{stroke:#d3abd0;}.cls-10,.cls-8{fill:#d3abd0;}.cls-11,.cls-9{stroke-linecap:round;}</style></defs><g id="Layer_2" data-name="Layer 2"><g id="Layer_1-2" data-name="Layer 1"><rect class="cls-1" x="668.89" y="113.43" width="166.11" height="202.79" rx="11.85"/><rect class="cls-1" x="202.18" y="113.43" width="419.26" height="101.4" rx="13.88"/><rect class="cls-1" x="200.15" y="228.45" width="419.26" height="154.27" rx="13.88"/><rect class="cls-1" x="200.15" y="398.42" width="419.26" height="213.93" rx="13.88"/><rect class="cls-2" x="658.17" y="19.25" width="191.54" height="606.04"/><line class="cls-3" x1="664.29" y1="93.49" x2="843.03" y2="93.49"/><polygon class="cls-4" points="668.27 96.88 664.88 93.49 668.27 90.1 665.4 90.1 662 93.49 665.4 96.88 668.27 96.88"/><polygon class="cls-4" points="839.04 96.88 842.43 93.49 839.04 90.1 841.92 90.1 845.31 93.49 841.92 96.88 839.04 96.88"/><text class="cls-5" transform="translate(677.85 43.86)">flex-item-aside</text><text class="cls-6" transform="translate(675.24 83.22)">flex-basis: 30%;</text><line class="cls-3" x1="196.21" y1="92.15" x2="624.28" y2="92.15"/><polygon class="cls-4" points="200.19 95.54 196.8 92.15 200.19 88.76 197.32 88.76 193.93 92.15 197.32 95.54 200.19 95.54"/><polygon class="cls-4" points="620.29 95.54 623.69 92.15 620.29 88.76 623.17 88.76 626.56 92.15 623.17 95.54 620.29 95.54"/><text class="cls-5" transform="translate(344.96 42.52)">flex-item-aside</text><text class="cls-6" transform="translate(359.7 81.87)">flex-grow: 1;</text><rect class="cls-1" x="672.87" y="333.8" width="166.11" height="278.54" rx="11.85"/><rect class="cls-7" x="172.14" y="1.5" width="692.7" height="638.23"/><text class="cls-6" transform="translate(0 57.33)">flex-direction:<tspan x="0" y="24">row;</tspan></text><text class="cls-8" transform="translate(0 32.09)">flex-container</text><path class="cls-9" d="M165.89,35.72A134.47,134.47,0,0,0,149.44,32a136,136,0,0,0-13.78-1.56"/><polygon class="cls-10" points="159.54 21.34 156.98 22.91 164.75 35.5 151.63 42.33 153.02 44.99 169 36.67 159.54 21.34"/><text class="cls-6" transform="translate(9.22 269.11)">flex-direction:<tspan x="0" y="24">row;</tspan></text><text class="cls-5" transform="translate(9.22 243.87)">flex-container</text><path class="cls-11" d="M204.73,255.75a180.26,180.26,0,0,0-46.81-4.42c-2.94.11-5.82.3-8.63.54"/><polygon class="cls-4" points="197.54 241.75 195.08 243.47 203.58 255.57 190.89 263.17 192.43 265.75 207.89 256.49 197.54 241.75"/><rect class="cls-2" x="186.98" y="19.25" width="449.12" height="606.04"/><rect class="cls-4" x="221.22" y="250.74" width="101.48" height="112.46" rx="13.88"/><rect class="cls-4" x="494.62" y="250.74" width="101.48" height="112.46" rx="13.88"/><rect class="cls-4" x="357.92" y="250.74" width="101.48" height="112.46" rx="13.88"/></g></g></svg>