<svg xmlns="http://www.w3.org/2000/svg" viewBox="0 0 557.14 1778.37"><defs><style>.cls-1,.cls-10,.cls-2{fill:#abced4;}.cls-1{opacity:0.33;}.cls-2,.cls-6{font-size:19px;font-family:Co-ext-Bold, Co Text ;font-weight:700;}.cls-3,.cls-4,.cls-7,.cls-9{fill:none;stroke-miterlimit:10;stroke-width:3px;}.cls-3,.cls-9{stroke:#abced4;}.cls-4,.cls-7{stroke:#d3abd0;}.cls-5{font-size:20px;fill:#505150;font-family:Co-Text-Light, Co Text ;font-weight:300;}.cls-6,.cls-8{fill:#d3abd0;}.cls-7,.cls-9{stroke-linecap:round;}</style></defs><g id="Layer_2" data-name="Layer 2"><g id="Layer_1-2" data-name="Layer 1"><rect class="cls-1" x="240.09" y="101.73" width="269.84" height="252.34" rx="12.11"/><text class="cls-2" transform="translate(299.11 1105.84)">flex-item-aside</text><text class="cls-2" transform="translate(299.11 61.24)">flex-item-main</text><rect class="cls-3" x="220.5" y="25.3" width="308.78" height="1012.77"/><rect class="cls-4" x="194.13" y="1.5" width="361.51" height="1775.37"/><rect class="cls-1" x="240.09" y="368.92" width="269.84" height="315.25" rx="12.11"/><rect class="cls-1" x="240.09" y="699.03" width="269.84" height="315.25" rx="12.11"/><rect class="cls-1" x="240.09" y="1153.42" width="269.84" height="241.39" rx="12.11"/><rect class="cls-3" x="220.17" y="1066.04" width="308.78" height="681.99"/><rect class="cls-1" x="239.76" y="1409.66" width="269.84" height="315.25" rx="12.11"/><text class="cls-5" transform="translate(15.34 101.73)">flex-direction:<tspan x="0" y="24">column;</tspan></text><text class="cls-6" transform="translate(15.34 76.49)">flex-container</text><path class="cls-7" d="M184.94,84.74A49.78,49.78,0,0,0,158,74.79"/><polygon class="cls-8" points="183.42 69.21 180.49 69.88 183.84 84.29 169.22 86.58 169.69 89.54 187.49 86.76 183.42 69.21"/><text class="cls-5" transform="translate(0 500.26)">flex-direction:<tspan x="0" y="24">column;</tspan></text><text class="cls-2" transform="translate(0 475.02)">flex-container</text><path class="cls-9" d="M246,491.54A201.34,201.34,0,0,0,140.3,470.43"/><polygon class="cls-10" points="242.36 476.22 239.56 477.3 244.88 491.1 230.73 495.41 231.61 498.28 248.84 493.03 242.36 476.22"/><rect class="cls-10" x="266.82" y="387.94" width="218.18" height="82.93" rx="13.88"/><rect class="cls-10" x="266.82" y="486.39" width="218.18" height="82.93" rx="13.88"/><rect class="cls-10" x="266.82" y="584.84" width="218.18" height="82.93" rx="13.88"/></g></g></svg>