<svg xmlns="http://www.w3.org/2000/svg" viewBox="0 0 1031.28 464.48"><defs><style>.cls-1,.cls-11,.cls-8{fill:#d3abd0;}.cls-1{opacity:0.13;}.cls-2,.cls-3,.cls-4,.cls-6{fill:#abced4;}.cls-2{opacity:0.15;}.cls-3{opacity:0.33;}.cls-10,.cls-12,.cls-13,.cls-14,.cls-15,.cls-16,.cls-18,.cls-19,.cls-5,.cls-7{fill:none;stroke-miterlimit:10;}.cls-12,.cls-13,.cls-14,.cls-5{stroke:#abced4;}.cls-5{stroke-width:2.96px;}.cls-6,.cls-8{font-size:19px;font-family:Co-ext-Bold, Co Text ;font-weight:700;}.cls-10,.cls-7{stroke:#d3abd0;}.cls-7{stroke-width:2.55px;}.cls-9{font-size:20px;font-family:Co-Text-Light, Co Text ;font-weight:300;}.cls-17,.cls-9{fill:#505150;}.cls-10,.cls-12,.cls-13{stroke-linecap:round;}.cls-10,.cls-12{stroke-width:3px;}.cls-13{stroke-width:3px;}.cls-14{stroke-width:1.9px;}.cls-15,.cls-16,.cls-18,.cls-19{stroke:#505150;}.cls-16{stroke-dasharray:5.26 2.1;}.cls-18{stroke-dasharray:4.8 1.92;}.cls-19{stroke-dasharray:4.55 1.82;}</style></defs><g id="Layer_2" data-name="Layer 2"><g id="Layer_1-2" data-name="Layer 1"><rect class="cls-1" x="180.44" y="1.28" width="692.7" height="461.93" rx="5.67"/><rect class="cls-2" x="551.25" y="30.17" width="271.53" height="417.53" rx="5.67"/><rect class="cls-2" x="230.08" y="138.02" width="266.05" height="175.16" rx="5.67"/><rect class="cls-3" x="240.7" y="212.84" width="244.81" height="71.63" rx="7.23"/><rect class="cls-3" x="564.61" y="76.38" width="244.81" height="44.03" rx="5.67"/><rect class="cls-3" x="564.61" y="140.44" width="244.81" height="44.03" rx="5.67"/><rect class="cls-4" x="564.61" y="204.5" width="244.81" height="44.03" rx="5.67"/><rect class="cls-4" x="564.61" y="366.25" width="244.81" height="44.03" rx="5.67"/><rect class="cls-5" x="551.25" y="30.17" width="271.53" height="417.53" rx="5.67"/><text class="cls-6" transform="translate(611.26 22.63)">fex-item (#right)</text><text class="cls-6" transform="translate(299.45 126.71)"><tspan xml:space="preserve"> fex-item (#left)</tspan></text><rect class="cls-7" x="180.44" y="1.28" width="692.7" height="461.93" rx="5.67"/><text/><text class="cls-8" transform="translate(8.3 31.87)">fex-container<tspan class="cls-9"><tspan x="0" y="24">justify-content:</tspan><tspan x="0" y="48">space-around;</tspan></tspan></text><path class="cls-10" d="M174.19,35.49a138.74,138.74,0,0,0-16.45-3.77A135.77,135.77,0,0,0,144,30.17"/><polygon class="cls-11" points="167.84 21.12 165.28 22.69 173.05 35.28 159.93 42.11 161.31 44.77 177.3 36.45 167.84 21.12"/><text class="cls-9" transform="translate(0 191.14)">align-self: center;<tspan x="0" y="24" xml:space="preserve"> text-align: left;</tspan></text><text/><text class="cls-9" transform="translate(895.98 203.7)">fex-direction:<tspan x="0" y="24">column;</tspan></text><text class="cls-6" transform="translate(895.98 178.46)">fex-container</text><path class="cls-12" d="M226.16,190.33a180.16,180.16,0,0,0-46.8-4.41q-4.41.17-8.64.54"/><polygon class="cls-4" points="218.97 176.33 216.52 178.06 225.02 190.16 212.33 197.76 213.87 200.33 229.33 191.08 218.97 176.33"/><path class="cls-13" d="M825.94,187.69a180.26,180.26,0,0,1,46.81-4.42c2.94.11,5.82.3,8.63.54"/><polygon class="cls-4" points="838.24 197.69 839.78 195.11 827.09 187.52 835.59 175.41 833.13 173.69 822.78 188.44 838.24 197.69"/><rect class="cls-14" x="230.08" y="138.02" width="266.05" height="175.16" rx="5.67"/><rect class="cls-4" x="240.14" y="161.43" width="159.61" height="44.22" rx="10.92"/><line class="cls-15" x1="501.67" y1="218.56" x2="504.17" y2="218.56"/><line class="cls-16" x1="506.27" y1="218.56" x2="542.05" y2="218.56"/><line class="cls-15" x1="543.11" y1="218.56" x2="545.61" y2="218.56"/><polygon class="cls-17" points="504.98 222.65 505.66 221.92 502.05 218.56 505.66 215.2 504.98 214.47 500.58 218.56 504.98 222.65"/><polygon class="cls-17" points="542.29 222.65 541.61 221.92 545.22 218.56 541.61 215.2 542.29 214.47 546.69 218.56 542.29 222.65"/><line class="cls-15" x1="826.87" y1="218.56" x2="829.37" y2="218.56"/><line class="cls-18" x1="831.29" y1="218.56" x2="863.93" y2="218.56"/><line class="cls-15" x1="864.89" y1="218.56" x2="867.39" y2="218.56"/><polygon class="cls-17" points="830.18 222.65 830.86 221.92 827.25 218.56 830.86 215.2 830.18 214.47 825.78 218.56 830.18 222.65"/><polygon class="cls-17" points="864.07 222.65 863.39 221.92 867 218.56 863.39 215.2 864.07 214.47 868.47 218.56 864.07 222.65"/><line class="cls-15" x1="185.53" y1="218.56" x2="188.03" y2="218.56"/><line class="cls-19" x1="189.85" y1="218.56" x2="220.76" y2="218.56"/><line class="cls-15" x1="221.67" y1="218.56" x2="224.17" y2="218.56"/><polygon class="cls-17" points="188.84 222.65 189.53 221.92 185.91 218.56 189.53 215.2 188.84 214.47 184.44 218.56 188.84 222.65"/><polygon class="cls-17" points="220.85 222.65 220.17 221.92 223.78 218.56 220.17 215.2 220.85 214.47 225.25 218.56 220.85 222.65"/></g></g></svg>