<svg xmlns="http://www.w3.org/2000/svg" viewBox="0 0 573.92 773.69"><defs><style>.cls-1,.cls-7,.cls-9{fill:#d3abd0;}.cls-1{opacity:0.13;}.cls-11,.cls-12,.cls-2,.cls-3{fill:#abced4;}.cls-2{opacity:0.15;}.cls-3,.cls-7{font-size:19px;font-family:Co-ext-Bold, Co Text ;font-weight:700;}.cls-10,.cls-4,.cls-5,.cls-8{fill:none;stroke-miterlimit:10;}.cls-10,.cls-4{stroke:#abced4;}.cls-4{stroke-width:3.16px;}.cls-5,.cls-8{stroke:#d3abd0;}.cls-5{stroke-width:1.98px;}.cls-6{font-size:20px;fill:#505150;font-family:Co-Text-Light, Co Text ;font-weight:300;}.cls-10,.cls-8{stroke-linecap:round;stroke-width:3px;}.cls-12{opacity:0.33;}</style></defs><g id="Layer_2" data-name="Layer 2"><g id="Layer_1-2" data-name="Layer 1"><rect class="cls-1" x="211.42" y="0.99" width="361.51" height="771.72" rx="5.67"/><rect class="cls-2" x="237.79" y="48.93" width="308.78" height="221.34" rx="5.67"/><rect class="cls-2" x="237.79" y="336.04" width="308.78" height="417.53" rx="5.67"/><text class="cls-3" transform="translate(316.4 37.57)"><tspan xml:space="preserve"> flex-item (#left)</tspan></text><rect class="cls-4" x="237.79" y="48.93" width="308.78" height="221.34" rx="5.67"/><rect class="cls-5" x="211.42" y="0.99" width="361.51" height="771.72" rx="5.67"/><text class="cls-6" transform="translate(37.64 74.2)">flex-direction:<tspan x="0" y="24">column;</tspan></text><text class="cls-7" transform="translate(37.64 48.96)">flex-container</text><path class="cls-8" d="M207.23,57.21a49.74,49.74,0,0,0-26.93-10"/><polygon class="cls-9" points="205.71 41.68 202.78 42.36 206.13 56.77 191.51 59.05 191.98 62.02 209.78 59.23 205.71 41.68"/><text class="cls-6" transform="translate(0 210.19)"><tspan xml:space="preserve"> text-align: center;</tspan></text><text/><path class="cls-10" d="M236.17,209.38a180.21,180.21,0,0,0-46.8-4.41q-4.43.17-8.64.54"/><polygon class="cls-11" points="228.98 195.38 226.52 197.11 235.03 209.21 222.33 216.81 223.88 219.38 239.34 210.13 228.98 195.38"/><rect class="cls-12" x="251.58" y="141.02" width="274.23" height="71.63" rx="7.65"/><rect class="cls-11" x="299.29" y="89.61" width="178.8" height="44.22" rx="11.56"/><rect class="cls-12" x="266.29" y="377.86" width="244.81" height="44.03" rx="5.67"/><rect class="cls-12" x="266.29" y="441.92" width="244.81" height="44.03" rx="5.67"/><rect class="cls-11" x="266.29" y="505.97" width="244.81" height="44.03" rx="5.67"/><rect class="cls-11" x="266.29" y="667.72" width="244.81" height="44.03" rx="5.67"/><rect class="cls-4" x="237.79" y="336.04" width="308.78" height="417.53" rx="5.67"/><text class="cls-3" transform="translate(322.25 328.5)">flex-item (#right)</text></g></g></svg>