<svg xmlns="http://www.w3.org/2000/svg" viewBox="0 0 352.14 282.14"><defs><style>.cls-1{fill:#dcdbdb;opacity:0.4;}.cls-2,.cls-6{fill:none;stroke-linecap:round;stroke-miterlimit:10;stroke-width:0.75px;}.cls-2{stroke:#909090;stroke-dasharray:5 2 0 0 0 0;}.cls-3,.cls-4{fill:#abced4;}.cls-3{opacity:0.33;}.cls-5{font-size:12px;font-family:Co-Text-Light, Co Text ;font-weight:300;}.cls-5,.cls-7{fill:#505150;}.cls-6{stroke:#505150;}</style></defs><g id="Layer_2" data-name="Layer 2"><g id="Layer_6" data-name="Layer 6"><rect class="cls-1" y="36.7" width="338.19" height="236.27" rx="8.96"/><line class="cls-2" x1="205.43" y1="280.48" x2="205.43" y2="26.81"/><line class="cls-2" x1="276.76" y1="280.48" x2="276.76" y2="26.81"/><line class="cls-2" x1="133.43" y1="280.48" x2="133.43" y2="26.81"/><line class="cls-2" x1="61.42" y1="281.76" x2="61.42" y2="28.09"/><line class="cls-2" x1="43.03" y1="118.35" x2="289.81" y2="118.35"/><line class="cls-2" x1="43.03" y1="190.64" x2="289.81" y2="190.64"/><line class="cls-2" x1="42.75" y1="262.92" x2="289.54" y2="262.92"/><line class="cls-2" x1="43.03" y1="46.07" x2="289.81" y2="46.07"/><rect class="cls-3" x="65.19" y="49.83" width="64.76" height="64.76"/><rect class="cls-3" x="137.05" y="49.83" width="64.76" height="64.76"/><rect class="cls-4" x="90.52" y="75.37" width="35.83" height="35.83" rx="2.63"/><rect class="cls-4" x="162.1" y="75.37" width="35.83" height="35.83" rx="2.63"/><rect class="cls-3" x="208.45" y="49.83" width="64.76" height="64.76"/><rect class="cls-4" x="233.78" y="75.37" width="35.83" height="35.83" rx="2.63"/><rect class="cls-3" x="65.13" y="122.55" width="64.76" height="64.76"/><rect class="cls-3" x="136.99" y="122.55" width="64.76" height="64.76"/><rect class="cls-4" x="90.46" y="148.09" width="35.83" height="35.83" rx="2.63"/><rect class="cls-4" x="162.05" y="148.09" width="35.83" height="35.83" rx="2.63"/><rect class="cls-3" x="208.4" y="122.55" width="64.76" height="64.76"/><rect class="cls-4" x="233.73" y="148.09" width="35.83" height="35.83" rx="2.63"/><rect class="cls-3" x="64.77" y="194.4" width="64.76" height="64.76"/><rect class="cls-3" x="136.63" y="194.4" width="64.76" height="64.76"/><rect class="cls-4" x="90.09" y="219.94" width="35.83" height="35.83" rx="2.63"/><rect class="cls-4" x="161.68" y="219.94" width="35.83" height="35.83" rx="2.63"/><rect class="cls-3" x="208.03" y="194.4" width="64.76" height="64.76"/><rect class="cls-4" x="233.36" y="219.94" width="35.83" height="35.83" rx="2.63"/><text class="cls-5" transform="translate(269.75 10.12)">grid-container</text><line class="cls-6" x1="311.41" y1="37.35" x2="311.41" y2="11.12"/><polygon class="cls-7" points="314.48 34.86 313.93 34.35 311.41 37.06 308.89 34.35 308.34 34.86 311.41 38.16 314.48 34.86"/></g></g></svg>