<svg xmlns="http://www.w3.org/2000/svg" viewBox="0 0 315.33 282.96"><defs><style>.cls-1{fill:#dcdbdb;opacity:0.4;}.cls-2,.cls-5{fill:none;stroke-linecap:round;stroke-miterlimit:10;stroke-width:0.75px;}.cls-2{stroke:#909090;stroke-dasharray:5 2 0 0 0 0;}.cls-3,.cls-4{fill:#abced4;}.cls-3{opacity:0.33;}.cls-5{stroke:#505150;}.cls-6,.cls-7{fill:#505150;}.cls-7{font-size:12px;font-family:Co-Text-Light, Co Text ;font-weight:300;}</style></defs><g id="Layer_2" data-name="Layer 2"><g id="Layer_6" data-name="Layer 6"><rect class="cls-1" x="9.5" y="36.74" width="305.83" height="236.27" rx="8.96"/><line class="cls-2" x1="163.06" y1="281.31" x2="163.06" y2="27.63"/><line class="cls-2" x1="234.39" y1="281.31" x2="234.39" y2="27.63"/><line class="cls-2" x1="91.06" y1="281.31" x2="91.06" y2="27.63"/><line class="cls-2" x1="19.05" y1="282.59" x2="19.05" y2="28.91"/><line class="cls-2" x1="0.65" y1="119.17" x2="247.44" y2="119.17"/><line class="cls-2" x1="0.65" y1="191.46" x2="247.44" y2="191.46"/><line class="cls-2" x1="0.38" y1="263.75" x2="247.16" y2="263.75"/><line class="cls-2" x1="0.65" y1="46.89" x2="247.44" y2="46.89"/><rect class="cls-3" x="22.81" y="50.65" width="64.76" height="64.76"/><rect class="cls-3" x="94.67" y="50.65" width="64.76" height="64.76"/><rect class="cls-4" x="48.14" y="76.19" width="35.83" height="35.83" rx="2.63"/><rect class="cls-4" x="119.73" y="76.19" width="35.83" height="35.83" rx="2.63"/><rect class="cls-3" x="166.08" y="50.65" width="64.76" height="64.76"/><rect class="cls-4" x="191.41" y="76.19" width="35.83" height="35.83" rx="2.63"/><rect class="cls-3" x="22.76" y="123.37" width="64.76" height="64.76"/><rect class="cls-3" x="94.62" y="123.37" width="64.76" height="64.76"/><rect class="cls-4" x="48.09" y="148.91" width="35.83" height="35.83" rx="2.63"/><rect class="cls-4" x="119.68" y="148.91" width="35.83" height="35.83" rx="2.63"/><rect class="cls-3" x="166.03" y="123.37" width="64.76" height="64.76"/><rect class="cls-4" x="191.36" y="148.91" width="35.83" height="35.83" rx="2.63"/><rect class="cls-3" x="22.39" y="195.22" width="64.76" height="64.76"/><rect class="cls-3" x="94.25" y="195.22" width="64.76" height="64.76"/><rect class="cls-4" x="47.72" y="220.76" width="35.83" height="35.83" rx="2.63"/><rect class="cls-4" x="119.31" y="220.76" width="35.83" height="35.83" rx="2.63"/><rect class="cls-3" x="165.66" y="195.22" width="64.76" height="64.76"/><rect class="cls-4" x="190.99" y="220.76" width="35.83" height="35.83" rx="2.63"/><path class="cls-5" d="M219.61,131a50.23,50.23,0,0,1,31-1.34,47.26,47.26,0,0,1,14.18,6.89"/><polygon class="cls-6" points="222.94 133.17 223.25 132.49 219.9 130.94 221.69 127.7 221.03 127.34 218.85 131.28 222.94 133.17"/><path class="cls-5" d="M219.2,177.94A76.65,76.65,0,0,0,252,176.42a74.29,74.29,0,0,0,13.35-5.06"/><polygon class="cls-6" points="221.26 181.29 221.84 180.81 219.49 177.95 222.51 175.82 222.08 175.21 218.4 177.8 221.26 181.29"/><text class="cls-7" transform="translate(156.8 10.12)">grid-container</text><text class="cls-7" transform="translate(248.54 170.04)">grid-item</text><text class="cls-7" transform="translate(257.11 146.12)">grid-cell</text><line class="cls-5" x1="198.46" y1="37.35" x2="198.46" y2="11.12"/><polygon class="cls-6" points="201.53 34.86 200.98 34.35 198.46 37.06 195.94 34.35 195.4 34.86 198.46 38.16 201.53 34.86"/></g></g></svg>