<svg xmlns="http://www.w3.org/2000/svg" viewBox="0 0 363.8 283.02"><defs><style>.cls-1{fill:#dcdbdb;opacity:0.4;}.cls-2,.cls-6{fill:none;stroke-linecap:round;stroke-miterlimit:10;stroke-width:0.75px;}.cls-2{stroke:#909090;stroke-dasharray:5 2 0 0 0 0;}.cls-3,.cls-4{fill:#abced4;}.cls-3{opacity:0.33;}.cls-5{font-size:12px;font-family:Co-Text-Light, Co Text ;font-weight:300;}.cls-5,.cls-7{fill:#505150;}.cls-6{stroke:#505150;}</style></defs><g id="Layer_2" data-name="Layer 2"><g id="Layer_6" data-name="Layer 6"><rect class="cls-1" x="11.66" y="36.7" width="338.19" height="236.27" rx="8.96"/><line class="cls-2" x1="231.45" y1="282.65" x2="231.45" y2="28.97"/><line class="cls-2" x1="338.14" y1="282.65" x2="338.14" y2="28.97"/><line class="cls-2" x1="125.51" y1="280.64" x2="125.51" y2="26.97"/><line class="cls-2" x1="19.05" y1="281.76" x2="19.05" y2="28.09"/><line class="cls-2" x1="0.78" y1="118.35" x2="359.63" y2="118.35"/><line class="cls-2" x1="0.78" y1="190.64" x2="359.63" y2="190.64"/><line class="cls-2" x1="0.38" y1="262.92" x2="359.22" y2="262.92"/><line class="cls-2" x1="0.78" y1="46.07" x2="359.63" y2="46.07"/><rect class="cls-3" x="22.81" y="49.83" width="64.76" height="64.76"/><rect class="cls-3" x="146.42" y="50.02" width="64.76" height="64.76"/><rect class="cls-4" x="48.14" y="75.37" width="35.83" height="35.83" rx="2.63"/><rect class="cls-4" x="171.48" y="75.56" width="35.83" height="35.83" rx="2.63"/><rect class="cls-3" x="269.77" y="50.13" width="64.76" height="64.76"/><rect class="cls-4" x="295.1" y="75.67" width="35.83" height="35.83" rx="2.63"/><rect class="cls-3" x="22.76" y="122.55" width="64.76" height="64.76"/><rect class="cls-3" x="146.37" y="122.74" width="64.76" height="64.76"/><rect class="cls-4" x="48.09" y="148.09" width="35.83" height="35.83" rx="2.63"/><rect class="cls-4" x="171.42" y="148.28" width="35.83" height="35.83" rx="2.63"/><rect class="cls-3" x="269.72" y="122.85" width="64.76" height="64.76"/><rect class="cls-4" x="295.05" y="148.39" width="35.83" height="35.83" rx="2.63"/><rect class="cls-3" x="22.39" y="194.4" width="64.76" height="64.76"/><rect class="cls-3" x="146" y="194.59" width="64.76" height="64.76"/><rect class="cls-4" x="47.72" y="219.94" width="35.83" height="35.83" rx="2.63"/><rect class="cls-4" x="171.06" y="220.14" width="35.83" height="35.83" rx="2.63"/><rect class="cls-3" x="269.35" y="194.7" width="64.76" height="64.76"/><rect class="cls-4" x="294.68" y="220.24" width="35.83" height="35.83" rx="2.63"/><text class="cls-5" transform="translate(281.41 10.12)">grid-container</text><line class="cls-6" x1="323.07" y1="37.35" x2="323.07" y2="11.12"/><polygon class="cls-7" points="326.14 34.86 325.59 34.35 323.07 37.06 320.55 34.35 320 34.86 323.07 38.16 326.14 34.86"/></g></g></svg>