<svg xmlns="http://www.w3.org/2000/svg" viewBox="0 0 325.04 257.09"><defs><style>.cls-1{fill:#dcdbdb;opacity:0.4;}.cls-2{fill:none;stroke:#909090;stroke-linecap:round;stroke-miterlimit:10;stroke-width:0.75px;stroke-dasharray:5 2 0 0 0 0;}.cls-3,.cls-4{fill:#abced4;}.cls-3{opacity:0.35;}.cls-5{font-size:12px;fill:#505150;font-family:Co-Text-Light, Co Text ;font-weight:300;}</style></defs><g id="Layer_2" data-name="Layer 2"><g id="Layer_9" data-name="Layer 9"><rect class="cls-1" x="9.5" y="9.65" width="305.83" height="236.27" rx="8.96"/><text/><line class="cls-2" x1="305.73" y1="254.05" x2="305.73" y2="0.38"/><line class="cls-2" x1="56.79" y1="256.71" x2="56.79" y2="3.04"/><line class="cls-2" x1="19.05" y1="255.49" x2="19.05" y2="1.82"/><line class="cls-2" x1="0.74" y1="49.91" x2="324.67" y2="49.91"/><line class="cls-2" x1="0.74" y1="199.97" x2="324.67" y2="199.97"/><line class="cls-2" x1="0.38" y1="236.65" x2="324.3" y2="236.65"/><line class="cls-2" x1="0.74" y1="19.79" x2="324.67" y2="19.79"/><rect class="cls-3" x="23.59" y="23.03" width="277.59" height="23.64"/><rect class="cls-3" x="23.59" y="54.71" width="28.54" height="177.15"/><rect class="cls-3" x="247.2" y="54.71" width="53.99" height="139.76"/><rect class="cls-3" x="62.2" y="54.71" width="174.38" height="139.76"/><rect class="cls-3" x="62.2" y="203.83" width="176.25" height="28.03"/><line class="cls-2" x1="242.66" y1="254.21" x2="242.66" y2="0.53"/><rect class="cls-4" x="104.19" y="59.78" width="127.02" height="96.29" rx="2.63"/><text class="cls-5" transform="translate(140.99 112.68)">grid-item</text></g></g></svg>