<svg xmlns="http://www.w3.org/2000/svg" viewBox="0 0 503.38 312.49"><defs><style>.cls-1{fill:#dcdbdb;opacity:0.25;}.cls-2,.cls-4,.cls-9{fill:none;}.cls-2{stroke:#909090;stroke-width:0.75px;stroke-dasharray:5 2 0 0 0 0;}.cls-2,.cls-9{stroke-linecap:round;}.cls-2,.cls-4,.cls-5,.cls-9{stroke-miterlimit:10;}.cls-3,.cls-4,.cls-5{font-size:12px;}.cls-3,.cls-7,.cls-8{fill:#505150;}.cls-3,.cls-4,.cls-5,.cls-7,.cls-8{font-family:Co-Text-Light, Co Text ;font-weight:300;}.cls-4,.cls-5,.cls-9{stroke:#abced4;}.cls-5{fill:#abced4;}.cls-6{font-size:21px;}.cls-7{font-size:10.9px;}.cls-8{font-size:10px;}.cls-9{stroke-width:2px;}</style></defs><g id="Layer_2" data-name="Layer 2"><g id="Layer_2-2" data-name="Layer 2"><rect class="cls-1" x="39.44" y="21.05" width="305.83" height="236.27" rx="8.96"/><line class="cls-2" x1="192.64" y1="266.81" x2="192.64" y2="13.13"/><line class="cls-2" x1="47.17" y1="270.45" x2="47.17" y2="16.78"/><line class="cls-2" x1="25.64" y1="90.51" x2="261.68" y2="90.51"/><line class="cls-2" x1="28.77" y1="209.14" x2="264.8" y2="209.14"/><line class="cls-2" x1="29.23" y1="248.06" x2="265.26" y2="248.06"/><line class="cls-2" x1="29.49" y1="31.2" x2="265.53" y2="31.2"/><text class="cls-3" transform="translate(0 231.42)">100px</text><text class="cls-3" transform="translate(16.85 157.21)">2fr</text><text class="cls-3" transform="translate(17.52 66.23)">1fr</text><text class="cls-3" transform="translate(106.61 11.37)">50%</text><text class="cls-4" transform="translate(204.31 306.77)">50% * (grid-container-width)</text><text class="cls-4" transform="translate(22.85 306.77)">50% * (grid-container-width)</text><text class="cls-5" transform="translate(287.7 59.78)">1/3 * (grid-container-height <tspan class="cls-6" x="163.43" y="0">-</tspan><tspan x="170.75" y="0" xml:space="preserve"> 100px)</tspan></text><text class="cls-7" transform="translate(192.35 9.19)">100px</text><text class="cls-8" transform="translate(234.51 9.37)">50px</text><polyline class="cls-9" points="48.17 281.15 48.17 288.39 189.11 288.39 189.11 281.15"/><polyline class="cls-9" points="196.04 281.15 196.04 288.39 336.99 288.39 336.99 281.15"/><polyline class="cls-9" points="273.77 85.94 281.01 85.94 281.01 33.63 273.77 33.63"/><text class="cls-5" transform="translate(287.7 148.98)">2/3 * (grid-container-height <tspan class="cls-6" x="163.43" y="0">-</tspan><tspan x="170.75" y="0" xml:space="preserve"> 100px)</tspan></text><polyline class="cls-9" points="273.77 204.9 281.01 204.9 281.01 94.7 273.77 94.7"/><line class="cls-2" x1="250.73" y1="266.04" x2="250.73" y2="12.37"/><line class="cls-2" x1="231.27" y1="266.3" x2="231.27" y2="12.62"/></g></g></svg>