<svg xmlns="http://www.w3.org/2000/svg" viewBox="0 0 346.68 256.72"><defs><style>.cls-1{fill:#dcdbdb;opacity:0.4;}.cls-2,.cls-4,.cls-5{fill:none;stroke-miterlimit:10;}.cls-2{stroke:#909090;stroke-width:0.75px;stroke-dasharray:5 2 0 0 0 0;}.cls-2,.cls-5{stroke-linecap:round;}.cls-3{fill:#abced4;opacity:0.33;}.cls-4{font-size:12px;font-family:Co-Text-Light, Co Text ;font-weight:300;}.cls-4,.cls-5{stroke:#abced4;}.cls-5{stroke-width:2px;}</style></defs><g id="Layer_2" data-name="Layer 2"><g id="Layer_4" data-name="Layer 4"><rect class="cls-1" x="40.86" y="20.45" width="305.83" height="236.27" rx="8.96"/><line class="cls-2" x1="265.75" y1="246.07" x2="265.75" y2="30.73"/><line class="cls-2" x1="337.08" y1="245.94" x2="337.08" y2="30.59"/><line class="cls-2" x1="122.41" y1="246.07" x2="122.41" y2="30.73"/><line class="cls-2" x1="50.41" y1="247.16" x2="50.41" y2="31.82"/><line class="cls-2" x1="50.62" y1="139.08" x2="337.08" y2="139.08"/><line class="cls-2" x1="50.29" y1="247.45" x2="336.76" y2="247.45"/><line class="cls-2" x1="50.62" y1="30.59" x2="337.08" y2="30.59"/><rect class="cls-3" x="50.41" y="30.59" width="63.37" height="89.09"/><rect class="cls-3" x="274.37" y="30.59" width="62.71" height="89.09"/><rect class="cls-3" x="273.98" y="157.96" width="62.71" height="89.09"/><rect class="cls-3" x="131.19" y="30.59" width="125.92" height="89.09"/><rect class="cls-3" x="131.19" y="158.07" width="125.92" height="89.09"/><rect class="cls-3" x="50.29" y="158.07" width="64.56" height="89.09"/><text class="cls-4" transform="translate(108.79 10.62)">20px</text><polyline class="cls-5" points="130.19 25.16 130.19 17.91 113.85 17.91 113.85 25.16"/><text class="cls-4" transform="translate(0.5 141.87)">40px</text><polyline class="cls-5" points="44.01 120.84 36.76 120.84 36.76 157.49 44.01 157.49"/><text class="cls-4" transform="translate(252.04 10.64)">20px</text><polyline class="cls-5" points="273.45 25.19 273.45 17.94 257.1 17.94 257.1 25.19"/></g></g></svg>