<svg xmlns="http://www.w3.org/2000/svg" viewBox="0 0 336.97 277.3"><defs><style>.cls-1{fill:#dcdbdb;opacity:0.4;}.cls-2{fill:none;stroke:#909090;stroke-linecap:round;stroke-miterlimit:10;stroke-width:0.75px;stroke-dasharray:5 2 0 0 0 0;}.cls-3{fill:#abced4;opacity:0.35;}.cls-4{font-size:12px;fill:#505150;font-family:Co-Text-Light, Co Text ;font-weight:300;}</style></defs><g id="Layer_2" data-name="Layer 2"><g id="Layer_3" data-name="Layer 3"><rect class="cls-1" x="21.43" y="9.65" width="305.83" height="236.27" rx="8.96"/><text/><line class="cls-2" x1="317.65" y1="254.05" x2="317.65" y2="0.38"/><line class="cls-2" x1="68.72" y1="256.71" x2="68.72" y2="3.04"/><line class="cls-2" x1="30.98" y1="255.49" x2="30.98" y2="1.82"/><line class="cls-2" x1="12.67" y1="49.91" x2="336.6" y2="49.91"/><line class="cls-2" x1="12.67" y1="199.97" x2="336.6" y2="199.97"/><line class="cls-2" x1="12.3" y1="236.65" x2="336.23" y2="236.65"/><line class="cls-2" x1="12.67" y1="19.79" x2="336.6" y2="19.79"/><rect class="cls-3" x="35.52" y="23.03" width="277.59" height="23.64"/><rect class="cls-3" x="35.52" y="54.71" width="28.54" height="177.15"/><rect class="cls-3" x="259.13" y="54.71" width="53.99" height="139.76"/><rect class="cls-3" x="74.13" y="54.71" width="174.38" height="139.76"/><rect class="cls-3" x="74.13" y="203.83" width="176.25" height="28.03"/><text class="cls-4" transform="translate(145.1 37.76)">header</text><text class="cls-4" transform="translate(148.81 126.6)">main</text><text class="cls-4" transform="translate(270.53 127.06)">aside</text><text class="cls-4" transform="translate(144.75 221.33)">footer</text><text class="cls-4" transform="translate(39.19 128.57)">nav</text><text class="cls-4" transform="translate(26.55 269.58)">1</text><text class="cls-4" transform="translate(0 240.4)">4</text><text class="cls-4" transform="translate(0 201.95)">3</text><text class="cls-4" transform="translate(0 52.01)">2</text><text class="cls-4" transform="translate(0 21.21)">1</text><text class="cls-4" transform="translate(65.24 272.08)">2</text><text class="cls-4" transform="translate(249.99 269.58)">3</text><line class="cls-2" x1="254.59" y1="254.21" x2="254.59" y2="0.53"/><text/><text class="cls-4" transform="translate(313.11 269.58)">4</text></g></g></svg>