<svg xmlns="http://www.w3.org/2000/svg" viewBox="0 0 390.96 303.4"><defs><style>.cls-1{fill:#dcdbdb;opacity:0.25;}.cls-2,.cls-5{fill:none;stroke-linecap:round;stroke-miterlimit:10;stroke-width:0.75px;}.cls-2{stroke:#909090;stroke-dasharray:5 2 0 0 0 0;}.cls-3,.cls-4{fill:#abced4;}.cls-3{opacity:0.33;}.cls-5{stroke:#505150;}.cls-6,.cls-7{fill:#505150;}.cls-7{font-size:12px;font-family:Co-Text-Light, Co Text ;font-weight:300;}</style></defs><g id="Layer_2" data-name="Layer 2"><g id="Layer_1-2" data-name="Layer 1"><rect class="cls-1" x="21.43" y="38.24" width="305.83" height="236.27" rx="8.96"/><line class="cls-2" x1="174.98" y1="282.8" x2="174.98" y2="29.13"/><line class="cls-2" x1="246.32" y1="282.8" x2="246.32" y2="29.13"/><line class="cls-2" x1="317.65" y1="282.64" x2="317.65" y2="28.97"/><line class="cls-2" x1="102.98" y1="282.8" x2="102.98" y2="29.13"/><line class="cls-2" x1="30.98" y1="284.09" x2="30.98" y2="30.41"/><line class="cls-2" x1="12.67" y1="120.67" x2="336.6" y2="120.67"/><line class="cls-2" x1="12.67" y1="192.96" x2="336.6" y2="192.96"/><line class="cls-2" x1="12.3" y1="265.25" x2="336.23" y2="265.25"/><line class="cls-2" x1="12.67" y1="48.39" x2="336.6" y2="48.39"/><rect class="cls-3" x="246.32" y="120.67" width="72.29" height="72.29"/><rect class="cls-4" x="252.26" y="154.58" width="35.83" height="31.51" rx="2.63"/><rect class="cls-3" x="102.98" y="120.67" width="72.29" height="72.29"/><rect class="cls-4" x="119.49" y="134.29" width="35.83" height="44.86" rx="2.63"/><path class="cls-5" d="M307.17,139.4a50,50,0,0,1,26.07-5,46.13,46.13,0,0,1,7.22,1.23"/><polygon class="cls-6" points="310.69 141.24 310.94 140.53 307.45 139.31 308.92 135.91 308.23 135.62 306.44 139.75 310.69 141.24"/><path class="cls-5" d="M279.71,178.56a80.45,80.45,0,0,0,56.89,1"/><polygon class="cls-6" points="281 182.27 281.67 181.93 280 178.63 283.4 177.2 283.11 176.51 278.96 178.25 281 182.27"/><path class="cls-5" d="M126.83,141.26A50.22,50.22,0,0,0,98,129.8a47.67,47.67,0,0,0-15.66,1.85"/><polygon class="cls-6" points="126.69 137.34 125.95 137.47 126.58 141.11 122.9 141.47 122.97 142.22 127.46 141.78 126.69 137.34"/><path class="cls-5" d="M113.32,185.67a76.65,76.65,0,0,1-32.82-1.52,74.68,74.68,0,0,1-13.36-5.07"/><polygon class="cls-6" points="110.44 182.93 110 183.55 113.03 185.68 110.68 188.54 111.26 189.01 114.12 185.53 110.44 182.93"/><text class="cls-7" transform="translate(332.76 146.16)">grid-cell</text><text class="cls-7" transform="translate(337.76 179.34)">grid-item</text><text class="cls-7" transform="translate(36.32 10.12)">grid-line</text><text class="cls-7" transform="translate(171.85 10.44)">grid-container</text><text class="cls-7" transform="translate(36.32 143.1)">grid-item</text><text class="cls-7" transform="translate(33.32 175.28)">grid-cell</text><text class="cls-7" transform="translate(26.55 298.18)">1</text><text class="cls-7" transform="translate(0 268.99)">4</text><text class="cls-7" transform="translate(0 194.94)">3</text><text class="cls-7" transform="translate(0 122.77)">2</text><text class="cls-7" transform="translate(0 49.81)">1</text><text class="cls-7" transform="translate(99.5 298.18)">2</text><text class="cls-7" transform="translate(171.09 298.18)">3</text><text class="cls-7" transform="translate(242.99 298.18)">4</text><text class="cls-7" transform="translate(313.11 298.18)">5</text><path class="cls-5" d="M102.32,26.21A37.19,37.19,0,0,0,99.65,22a39.42,39.42,0,0,0-14-11.85"/><polygon class="cls-6" points="103.76 22.55 103.03 22.37 102.16 25.96 98.64 24.83 98.41 25.54 102.69 26.92 103.76 22.55"/><line class="cls-5" x1="213.51" y1="37.68" x2="213.51" y2="11.45"/><polygon class="cls-6" points="216.58 35.19 216.03 34.68 213.51 37.39 211 34.68 210.44 35.19 213.51 38.49 216.58 35.19"/></g></g></svg>