<svg xmlns="http://www.w3.org/2000/svg" viewBox="0 0 336.97 274.8"><defs><style>.cls-1{fill:#dcdbdb;opacity:0.4;}.cls-2,.cls-6{fill:none;stroke-linecap:round;stroke-miterlimit:10;stroke-width:0.75px;}.cls-2{stroke:#909090;stroke-dasharray:5 2 0 0 0 0;}.cls-3,.cls-4{fill:#abced4;}.cls-3{opacity:0.33;}.cls-5{font-size:12px;font-family:Co-Text-Light, Co Text ;font-weight:300;}.cls-5,.cls-7{fill:#505150;}.cls-6{stroke:#505150;}</style></defs><g id="Layer_2" data-name="Layer 2"><g id="Layer_7" data-name="Layer 7"><rect class="cls-1" x="21.43" y="9.65" width="305.83" height="236.27" rx="8.96"/><line class="cls-2" x1="174.98" y1="254.21" x2="174.98" y2="0.53"/><line class="cls-2" x1="246.32" y1="254.21" x2="246.32" y2="0.53"/><line class="cls-2" x1="317.65" y1="254.05" x2="317.65" y2="0.38"/><line class="cls-2" x1="102.98" y1="254.21" x2="102.98" y2="0.53"/><line class="cls-2" x1="30.98" y1="255.49" x2="30.98" y2="1.82"/><line class="cls-2" x1="12.67" y1="92.08" x2="336.6" y2="92.08"/><line class="cls-2" x1="12.67" y1="164.36" x2="336.6" y2="164.36"/><line class="cls-2" x1="12.3" y1="236.65" x2="336.23" y2="236.65"/><line class="cls-2" x1="12.67" y1="19.79" x2="336.6" y2="19.79"/><rect class="cls-3" x="31.25" y="19.75" width="72.29" height="72.29"/><rect class="cls-4" x="41.67" y="30.21" width="51.45" height="51.45" rx="2.63"/><text class="cls-5" transform="translate(26.55 269.58)">1</text><text class="cls-5" transform="translate(0 240.4)">4</text><text class="cls-5" transform="translate(0 166.34)">3</text><text class="cls-5" transform="translate(0 94.18)">2</text><text class="cls-5" transform="translate(0 21.21)">1</text><text class="cls-5" transform="translate(99.5 269.58)">2</text><text class="cls-5" transform="translate(171.09 269.58)">3</text><text class="cls-5" transform="translate(242.99 269.58)">4</text><text class="cls-5" transform="translate(313.11 269.58)">5</text><path class="cls-6" d="M95.61,27.26a50.27,50.27,0,0,1,26,5.26,47,47,0,0,1,6.21,3.88"/><polygon class="cls-7" points="98.17 30.3 98.67 29.74 95.9 27.29 98.55 24.7 98.02 24.17 94.8 27.31 98.17 30.3"/><path class="cls-6" d="M84.35,77.34a81,81,0,0,0,30.75,5.73,80.85,80.85,0,0,0,26.14-4.69"/><polygon class="cls-7" points="85.64 81.05 86.31 80.71 84.64 77.42 88.05 75.98 87.75 75.29 83.6 77.04 85.64 81.05"/><text class="cls-5" transform="translate(116.9 45.72)">grid-cell</text><text class="cls-5" transform="translate(118.26 76.15)">grid-item</text></g></g></svg>