<svg xmlns="http://www.w3.org/2000/svg" viewBox="0 0 325.04 257.09"><defs><style>.cls-1{fill:#dcdbdb;opacity:0.4;}.cls-2{fill:none;stroke:#909090;stroke-linecap:round;stroke-miterlimit:10;stroke-width:0.75px;stroke-dasharray:5 2 0 0 0 0;}.cls-3,.cls-4{fill:#abced4;}.cls-3{opacity:0.35;}.cls-5{font-size:12px;fill:#505150;font-family:Co-Text-Light, Co Text ;font-weight:300;}</style></defs><g id="Layer_2" data-name="Layer 2"><g id="Layer_8" data-name="Layer 8"><rect class="cls-1" x="9.5" y="9.65" width="305.83" height="236.27" rx="8.96"/><text/><line class="cls-2" x1="305.73" y1="254.05" x2="305.73" y2="0.38"/><line class="cls-2" x1="56.79" y1="256.71" x2="56.79" y2="3.04"/><line class="cls-2" x1="19.05" y1="255.49" x2="19.05" y2="1.82"/><line class="cls-2" x1="0.74" y1="49.91" x2="324.67" y2="49.91"/><line class="cls-2" x1="0.74" y1="199.97" x2="324.67" y2="199.97"/><line class="cls-2" x1="0.38" y1="236.65" x2="324.3" y2="236.65"/><line class="cls-2" x1="0.74" y1="19.79" x2="324.67" y2="19.79"/><rect class="cls-3" x="23.59" y="23.03" width="277.59" height="23.64"/><rect class="cls-3" x="23.59" y="54.71" width="28.54" height="177.15"/><rect class="cls-3" x="247.2" y="54.71" width="53.99" height="139.76"/><rect class="cls-3" x="62.2" y="54.71" width="174.38" height="139.76"/><rect class="cls-3" x="62.2" y="203.83" width="176.25" height="28.03"/><line class="cls-2" x1="242.66" y1="254.21" x2="242.66" y2="0.53"/><rect class="cls-4" x="70.53" y="209.23" width="157.74" height="16.1" rx="2.63"/><rect class="cls-4" x="253.94" y="60.68" width="42" height="128.4" rx="2.63"/><rect class="cls-4" x="73.02" y="66.23" width="152.74" height="115.79" rx="2.63"/><rect class="cls-4" x="26.61" y="62.88" width="22.43" height="162.45" rx="2.63"/><rect class="cls-4" x="29.27" y="26.4" width="264.67" height="15.75" rx="2.63"/><text class="cls-5" transform="translate(133.18 37.76)">grid-item-1</text><text class="cls-5" transform="translate(122.68 128.88)">grid-item-3</text><text class="cls-5" transform="translate(261.06 127.06)">grid-<tspan x="-5.51" y="14.4">item-4</tspan></text><text class="cls-5" transform="translate(117.81 221.33)">grid-item-5</text><text class="cls-5" transform="translate(25.72 128.57)">grid-<tspan x="-1.6" y="14.4">item-</tspan><tspan x="9.64" y="28.8">2</tspan></text></g></g></svg>