<svg xmlns="http://www.w3.org/2000/svg" viewBox="0 0 336.97 274.8"><defs><style>.cls-1{fill:#dcdbdb;opacity:0.4;}.cls-2,.cls-6{fill:none;stroke-linecap:round;stroke-miterlimit:10;stroke-width:0.75px;}.cls-2{stroke:#909090;stroke-dasharray:5 2 0 0 0 0;}.cls-3,.cls-4{fill:#abced4;}.cls-3{opacity:0.33;}.cls-5{font-size:12px;font-family:Co-Text-Light, Co Text ;font-weight:300;}.cls-5,.cls-7{fill:#505150;}.cls-6{stroke:#505150;}</style></defs><g id="Layer_2" data-name="Layer 2"><g id="Layer_7" data-name="Layer 7"><rect class="cls-1" x="21.43" y="9.65" width="305.83" height="236.27" rx="8.96"/><line class="cls-2" x1="174.98" y1="254.21" x2="174.98" y2="0.53"/><line class="cls-2" x1="246.32" y1="254.21" x2="246.32" y2="0.53"/><line class="cls-2" x1="317.65" y1="254.05" x2="317.65" y2="0.38"/><line class="cls-2" x1="102.98" y1="254.21" x2="102.98" y2="0.53"/><line class="cls-2" x1="30.98" y1="255.49" x2="30.98" y2="1.82"/><line class="cls-2" x1="12.67" y1="92.08" x2="336.6" y2="92.08"/><line class="cls-2" x1="12.67" y1="164.36" x2="336.6" y2="164.36"/><line class="cls-2" x1="12.3" y1="236.65" x2="336.23" y2="236.65"/><line class="cls-2" x1="12.67" y1="19.79" x2="336.6" y2="19.79"/><rect class="cls-3" x="31.7" y="92.15" width="214.62" height="72.29"/><rect class="cls-4" x="62.64" y="102.62" width="152.74" height="51.45" rx="2.63"/><text class="cls-5" transform="translate(26.55 269.58)">1</text><text class="cls-5" transform="translate(0 240.4)">4</text><text class="cls-5" transform="translate(0 166.34)">3</text><text class="cls-5" transform="translate(0 94.18)">2</text><text class="cls-5" transform="translate(0 21.21)">1</text><text class="cls-5" transform="translate(99.5 269.58)">2</text><text class="cls-5" transform="translate(171.09 269.58)">3</text><text class="cls-5" transform="translate(242.99 269.58)">4</text><text class="cls-5" transform="translate(313.11 269.58)">5</text><path class="cls-6" d="M230.18,100a50.27,50.27,0,0,1,26,5.26,47,47,0,0,1,6.21,3.88"/><polygon class="cls-7" points="232.74 102.99 233.24 102.43 230.47 99.98 233.12 97.39 232.59 96.86 229.37 100 232.74 102.99"/><path class="cls-6" d="M202.91,150a80.36,80.36,0,0,0,56.88,1"/><polygon class="cls-7" points="204.2 153.74 204.87 153.4 203.19 150.1 206.6 148.67 206.31 147.98 202.16 149.73 204.2 153.74"/><text class="cls-5" transform="translate(251.47 118.41)">grid-cell</text><text class="cls-5" transform="translate(247.83 148.85)">grid-item</text></g></g></svg>