<?xml version="1.0" encoding="utf-8"?>
<!-- Generator: Adobe Illustrator 24.2.3, SVG Export Plug-In . SVG Version: 6.00 Build 0)  -->
<svg version="1.1" id="Layer_1" xmlns="http://www.w3.org/2000/svg" xmlns:xlink="http://www.w3.org/1999/xlink" x="0px" y="0px"
	 viewBox="0 0 32 32" style="enable-background:new 0 0 32 32;" xml:space="preserve">
<style type="text/css">
	.st0{fill:#845EC2;}
</style>
<path class="st0" d="M14,2c-0.8,0-1.3,0.4-2,1L6,8H2c-1.1,0-2,0.9-2,2v12c0,1.1,0.9,2,2,2h4l6,5c0.7,0.6,1.2,1,2,1c1.2,0,2-1,2-2V4
	C16,3,15.2,2,14,2z M12,23.8L7.4,20H4v-8h3.4L12,8.2V23.8z M20,6c-1.2,0-2,1-2,2c0,1.4,2,2.8,2,8s-2,6.6-2,8c0,1,0.8,2,2,2
	c1,0,1.6-0.5,2.3-2c1.2-2.7,1.7-5.3,1.7-8s-0.5-5.3-1.7-8C21.6,6.5,21,6,20,6z M29.1,4c-0.8-1.8-1.6-2-2.3-2c-1.2,0-2,1-2,2
	c0,1.7,3.2,4.5,3.2,12s-3.2,10.3-3.2,12c0,1,0.8,2,2,2c0.7,0,1.5-0.2,2.3-2c0.9-1.9,2.9-5.8,2.9-12S30.1,5.9,29.1,4z"/>
</svg>
