<?xml version="1.0" encoding="utf-8"?>
<!-- Generator: Adobe Illustrator 24.2.3, SVG Export Plug-In . SVG Version: 6.00 Build 0)  -->
<svg version="1.1" id="Layer_1" xmlns="http://www.w3.org/2000/svg" xmlns:xlink="http://www.w3.org/1999/xlink" x="0px" y="0px"
	 viewBox="0 0 32 32" style="enable-background:new 0 0 32 32;" xml:space="preserve">
<style type="text/css">
	.st0{fill:#845EC2;}
</style>
<g id="Layer_17">
	<path class="st0" d="M8,32.2c-2.3,0-4.2-1.9-4.2-4.2V9c0-1.2,1-2.2,2.2-2.2s2.2,1,2.2,2.2v18.8h15.6V9c0-1.2,1-2.2,2.2-2.2
		s2.2,1,2.2,2.2v19c0,2.3-1.9,4.2-4.2,4.2H8z"/>
	<path class="st0" d="M24,31H8c-1.7,0-3-1.3-3-3V9c0-0.6,0.4-1,1-1s1,0.4,1,1v19c0,0.6,0.4,1,1,1h16c0.6,0,1-0.4,1-1V9
		c0-0.6,0.4-1,1-1s1,0.4,1,1v19C27,29.7,25.7,31,24,31z"/>
	<path class="st0" d="M4,8.2c-1.2,0-2.2-1-2.2-2.2s1-2.2,2.2-2.2h24c1.2,0,2.2,1,2.2,2.2s-1,2.2-2.2,2.2H4z"/>
	<path class="st0" d="M28,7H4C3.4,7,3,6.6,3,6s0.4-1,1-1h24c0.6,0,1,0.4,1,1S28.6,7,28,7z"/>
	<path class="st0" d="M20,8.2c-1.2,0-2.2-1-2.2-2.2V4.2h-3.6V6c0,1.2-1,2.2-2.2,2.2S9.8,7.2,9.8,6V2c0-1.2,1-2.2,2.2-2.2h8
		c1.2,0,2.2,1,2.2,2.2v4C22.2,7.2,21.2,8.2,20,8.2z"/>
	<path class="st0" d="M20,7c-0.6,0-1-0.4-1-1V3h-6v3c0,0.6-0.4,1-1,1s-1-0.4-1-1V2c0-0.6,0.4-1,1-1h8c0.6,0,1,0.4,1,1v4
		C21,6.6,20.6,7,20,7z"/>
</g>
</svg>
