<?xml version="1.0" ?><!DOCTYPE svg  PUBLIC '-//W3C//DTD SVG 1.1//EN'  'http://www.w3.org/Graphics/SVG/1.1/DTD/svg11.dtd'><svg height="1704px" style="enable-background:new 0 0 1414 1704;" version="1.1" viewBox="0 0 1414 1704" width="1414px" xml:space="preserve" xmlns="http://www.w3.org/2000/svg" xmlns:xlink="http://www.w3.org/1999/xlink"><g id="paper"><path d="M1253.479,0H161.702C72.889,0,0,71.166,0,159.98v1382.484C0,1631.279,72.889,1704,161.702,1704h641.69   c17.524,0,34.329-7.191,46.719-19.584l544.811-545.201c12.389-12.389,19.078-29.312,19.078-46.834v-932.4   C1414,71.166,1342.292,0,1253.479,0z M132,1542.465V159.98c0-15.953,13.752-27.98,29.702-27.98h1091.776   c15.95,0,28.521,12.027,28.521,27.98V994H865.354C776.542,994,704,1065.529,704,1154.344V1572H161.702   C145.752,1572,132,1558.416,132,1542.465z M836,1510.99v-356.646c0-15.951,13.403-28.344,29.354-28.344h356.649L836,1510.99z"/></g><g id="Layer_1"/></svg>