<?xml version="1.0" encoding="utf-8"?>
<!-- Generator: Adobe Illustrator 24.2.3, SVG Export Plug-In . SVG Version: 6.00 Build 0)  -->
<svg version="1.1" id="Layer_1" xmlns="http://www.w3.org/2000/svg" xmlns:xlink="http://www.w3.org/1999/xlink" x="0px" y="0px"
	 viewBox="0 0 32 32" style="enable-background:new 0 0 32 32;" xml:space="preserve">
<style type="text/css">
	.st0{fill:#845EC2;}
</style>
<path class="st0" d="M27,30H4.9C2.2,30.1,0,28,0,25.3c0-0.1,0-0.2,0-0.2V9c0.1-3.1,2-5,5-5h5.3c1.9-0.2,3.8,0.8,4.8,2.4L16.3,8h10.8
	c3,0.1,4.7,1.9,4.9,4.9c0,0,0,0.1,0,0.1v12c0.1,2.7-2,4.9-4.7,5c-0.1,0-0.1,0-0.2,0H27z M5.1,26h21.9c0.9-0.1,1-0.3,1.1-1.1V13.1
	c-0.1-0.9-0.2-1-1-1.1H15.3c-0.6,0-1.2-0.3-1.6-0.8l-1.8-2.4C11.3,8.1,11.2,8,10.3,8H5C4.3,8,4,8,4,9.1V25C4,25.7,4.1,25.9,5.1,26z"
	/>
</svg>
