<?xml version="1.0" encoding="utf-8"?>
<!-- Generator: Adobe Illustrator 24.2.3, SVG Export Plug-In . SVG Version: 6.00 Build 0)  -->
<svg version="1.1" id="Layer_1" xmlns="http://www.w3.org/2000/svg" xmlns:xlink="http://www.w3.org/1999/xlink" x="0px" y="0px"
	 viewBox="0 0 56.7 56.7" style="enable-background:new 0 0 56.7 56.7;" xml:space="preserve">
<style type="text/css">
	.st0{fill:#FFFFFF;}
</style>
<g>
	<polygon class="st0" points="20.8,39.5 20.5,39.5 20.4,39.7 13.6,51.6 13.2,52.3 14,52.3 45.6,52.3 45.9,52.3 46,52 52.7,40.2 
		53.2,39.5 52.3,39.5 	"/>
	<polygon class="st0" points="38.3,36.5 38.4,36.7 38.7,36.7 52.3,36.7 53.2,36.7 52.7,36 37,8.7 36.8,8.4 36.6,8.4 23,8.5 
		22.1,8.5 22.5,9.2 	"/>
	<polygon class="st0" points="27,22.6 26.8,22.4 20,10.6 19.6,9.9 19.2,10.6 3.4,37.9 3.3,38.2 3.4,38.4 10.2,50.2 10.7,50.9 
		11.1,50.2 26.8,22.9 	"/>
</g>
</svg>
