<?xml version="1.0" encoding="utf-8"?>
<!-- Generator: Adobe Illustrator 24.2.3, SVG Export Plug-In . SVG Version: 6.00 Build 0)  -->
<svg version="1.1" id="Layer_1" xmlns="http://www.w3.org/2000/svg" xmlns:xlink="http://www.w3.org/1999/xlink" x="0px" y="0px"
	 viewBox="0 0 24 24" style="enable-background:new 0 0 24 24;" xml:space="preserve">
<style type="text/css">
	.st0{fill:#845EC2;}
</style>
<path class="st0" d="M4.8,22.6c-1.9,0-3.4-1.5-3.4-3.4V4.7c0-1.9,1.5-3.4,3.4-3.4h14.4c1.8,0,3.3,1.5,3.5,3.4l0,14.4
	c0,1.9-1.5,3.4-3.4,3.4H4.8z M3.4,19.2c0,0.8,0.6,1.4,1.4,1.4h14.4c0.8,0,1.4-0.6,1.4-1.4l0.1-2l-1.6-1.3c-0.3-0.2-0.7-0.4-1.1-0.4
	c-0.4,0-0.8,0.1-1,0.4l-2.6,2.2l-5.2-4.8c-0.3-0.3-0.7-0.5-1.2-0.5c-0.5,0-0.9,0.2-1.2,0.6l-3.4,3.8V19.2z M7.9,10.3
	c0.6,0,1.1,0.2,1.5,0.6l5.1,4.7l2.1-1.7c0.5-0.3,1-0.5,1.6-0.5c0.6,0,1.1,0.2,1.5,0.5l1.1,0.9l0.1-9.9c0-0.8-0.6-1.4-1.4-1.4H4.8
	C4,3.4,3.3,4,3.3,4.8l0,9.4l3-3.3C6.7,10.5,7.3,10.3,7.9,10.3z"/>
<path class="st0" d="M4.8,22.8c-2,0-3.6-1.6-3.6-3.6V4.7c0-2,1.6-3.6,3.6-3.6h14.4c2,0,3.6,1.6,3.7,3.7l0,14.4c0,2-1.6,3.6-3.6,3.6
	H4.8z M3.6,19.2c0,0.6,0.5,1.2,1.2,1.2h14.4c0.6,0,1.2-0.5,1.2-1.2l0.1-1.9L19,16.1c-0.3-0.2-0.6-0.3-0.9-0.3
	c-0.3,0-0.6,0.1-0.8,0.3l-2.8,2.4l-5.4-5c-0.3-0.3-0.6-0.4-1-0.4c-0.4,0-0.7,0.2-1,0.5l-3.3,3.7V19.2z M7.9,10
	c0.6,0,1.2,0.2,1.7,0.7l4.9,4.5l1.9-1.5c0.5-0.4,1.1-0.6,1.7-0.6c0.6,0,1.2,0.2,1.7,0.6l0.6,0.5l0.1-9.3c0-0.6-0.5-1.1-1.2-1.1H4.8
	c-0.6,0-1.2,0.5-1.3,1.2l0,8.7L6,10.8C6.5,10.3,7.2,10,7.9,10z"/>
<path class="st0" d="M19.2,1.7H4.8c-1.7,0-3,1.3-3,3v14.5c0,1.7,1.3,3,3,3h14.5c1.7,0,3-1.3,3-3V4.8C22.2,3.1,20.9,1.7,19.2,1.7z
	 M21,19.2c0,1-0.8,1.8-1.8,1.8H4.8c-1,0-1.8-0.8-1.8-1.8V17l3.5-3.9c0.8-0.9,2.1-0.9,2.9-0.1l5,4.6l2.4-2c0.7-0.6,1.8-0.6,2.6,0
	l1.7,1.4L21,19.2L21,19.2z M21,15.5l-1.7-1.4c-0.7-0.6-1.8-0.6-2.6,0L14.4,16l-5.3-4.9c-0.7-0.7-1.9-0.6-2.6,0.1l-3.6,4V4.8
	C3,3.8,3.8,3,4.8,3h14.5c1,0,1.8,0.8,1.8,1.8L21,15.5L21,15.5z"/>
<path class="st0" d="M16.2,11.2c-1.8,0-3.4-1.6-3.4-3.4c0-1.9,1.5-3.4,3.4-3.4c1.8,0,3.4,1.6,3.4,3.4C19.6,9.7,18.1,11.2,16.2,11.2z
	 M16.2,6.4c-0.8,0-1.4,0.6-1.4,1.4c0,0.8,0.6,1.4,1.4,1.4s1.4-0.6,1.4-1.4C17.6,7,17,6.4,16.2,6.4z"/>
<path class="st0" d="M16.2,10.8c1.7,0,3-1.4,3-3s-1.4-3-3-3c-1.7,0-3,1.4-3,3S14.6,10.8,16.2,10.8z M16.2,6c1,0,1.8,0.8,1.8,1.8
	s-0.8,1.8-1.8,1.8s-1.8-0.8-1.8-1.8S15.2,6,16.2,6z"/>
</svg>
