<?xml version="1.0" encoding="utf-8"?>
<!-- Generator: Adobe Illustrator 24.2.3, SVG Export Plug-In . SVG Version: 6.00 Build 0)  -->
<svg version="1.1" id="Layer_1" xmlns="http://www.w3.org/2000/svg" xmlns:xlink="http://www.w3.org/1999/xlink" x="0px" y="0px"
	 viewBox="0 0 50 50" style="enable-background:new 0 0 50 50;" xml:space="preserve">
<style type="text/css">
	.st0{fill:#845EC2;}
</style>
<g id="Layer_1_1_">
	<path class="st0" d="M9.1,49C7.4,49,6,47.6,6,45.8V1h30.2C40.5,1,44,4.6,44,9v10.2c0,4.4-3.5,8-7.8,8h-24v18.6
		C12.2,47.6,10.8,49,9.1,49z M34.4,20.9c1.9,0,3.4-1.6,3.4-3.5v-6.6c0-1.9-1.5-3.5-3.4-3.5H12.2v13.6H34.4z"/>
	<path class="st0" d="M9.1,47.8c-1,0-1.9-0.9-1.9-1.9V2.2h29c3.7,0,6.6,3.1,6.6,6.8v10.2c0,3.7-3,6.8-6.6,6.8H11v19.8
		C11,46.9,10.1,47.8,9.1,47.8z M34.4,22.2c2.6,0,4.6-2.1,4.6-4.8v-6.6c0-2.6-2.1-4.8-4.6-4.8H11v16.1H34.4z"/>
	<path class="st0" d="M9.1,48C7.9,48,7,47,7,45.8V2h29.2C39.9,2,43,5.2,43,9v10.2c0,3.9-3.1,7-6.8,7h-25v19.6
		C11.2,47,10.2,48,9.1,48z M34.4,22c2.4,0,4.4-2,4.4-4.5v-6.6c0-2.5-2-4.5-4.4-4.5H11.2V22H34.4z"/>
	<path class="st0" d="M36.2,3.3h-28v20.8V25v20.8c0,0.5,0.4,0.9,0.9,0.9h0c0.5,0,0.9-0.4,0.9-0.9V25h26.2c3.1,0,5.6-2.6,5.6-5.8V9
		C41.8,5.8,39.3,3.3,36.2,3.3z M34.4,23.2H10V5.1h24.4c3.1,0,5.6,2.6,5.6,5.8v6.6C40,20.6,37.5,23.2,34.4,23.2z"/>
</g>
</svg>
