<?xml version="1.0" encoding="utf-8"?>
<!-- Generator: Adobe Illustrator 24.2.3, SVG Export Plug-In . SVG Version: 6.00 Build 0)  -->
<svg version="1.1" id="OneDrive" xmlns="http://www.w3.org/2000/svg" xmlns:xlink="http://www.w3.org/1999/xlink" x="0px" y="0px"
	 viewBox="0 0 512 512" style="enable-background:new 0 0 512 512;" xml:space="preserve">
<style type="text/css">
	.st0{fill:#FFFFFF;}
</style>
<path class="st0" d="M466,336.3c0,24.7-20.1,44.8-44.8,44.8H194.6c-30.1,0-54.4-24.4-54.4-54.4c0-30.1,24.4-54.4,54.4-54.4
	c2.1,0,4.2,0.1,6.3,0.4c0.9-40.4,33.9-73,74.6-73c25.8,0,48.5,13.1,62,33c8.2-4,17.3-6.3,27-6.3c33.9,0,61.4,27.5,61.4,61.4
	c0,1.4-0.1,2.7-0.2,4.1C448.3,294,466,313.1,466,336.3z M187.1,257.2c8.1-41.4,45-73,88.4-73c25.8,0,50,11,67,29.9
	c7.1-2.1,14.5-3.2,22-3.2c0,0,0.1,0,0.1,0c-5-45-43.1-79.9-89.4-79.9c-35.1,0-65.4,20.1-80.3,49.4c-9.4-5.4-20.3-8.5-31.9-8.5
	c-35.7,0-64.7,29-64.7,64.7c0,5.4,0.7,10.7,2,15.7C70.1,253.7,46,278.5,46,309c0,31.4,25.5,56.9,56.9,56.9h34
	c-7.6-11.2-12.1-24.7-12.1-39.2C124.8,290.7,152.1,260.9,187.1,257.2z"/>
</svg>
