<?xml version="1.0" encoding="utf-8"?>
<!-- Generator: Adobe Illustrator 24.2.3, SVG Export Plug-In . SVG Version: 6.00 Build 0)  -->
<svg version="1.1" id="Layer_1" xmlns="http://www.w3.org/2000/svg" xmlns:xlink="http://www.w3.org/1999/xlink" x="0px" y="0px"
	 viewBox="0 0 1414 1704" style="enable-background:new 0 0 1414 1704;" xml:space="preserve">
<style type="text/css">
	.st0{fill:#FF6F91;stroke:#FF6F91;stroke-width:76;stroke-miterlimit:10;}
</style>
<g id="paper">
	<path class="st0" d="M1202.2,87.5H212.9c-80.5,0-146.5,63.9-146.5,143.5v1240.4c0,79.7,66,144.9,146.5,144.9h581.5
		c15.9,0,31.1-6.5,42.3-17.6l493.7-489.2c11.2-11.1,17.3-26.3,17.3-42V231.1C1347.6,151.4,1282.7,87.5,1202.2,87.5z M186,1471.5
		V231.1c0-14.3,12.5-25.1,26.9-25.1h989.3c14.5,0,25.8,10.8,25.8,25.1v748.3H850.5c-80.5,0-146.2,64.2-146.2,143.9V1498H212.9
		C198.4,1498,186,1485.8,186,1471.5z M823.9,1443.3v-320c0-14.3,12.1-25.4,26.6-25.4h323.2L823.9,1443.3z"/>
</g>
<g id="Layer_1_1_">
</g>
</svg>
