<?xml version="1.0" encoding="utf-8"?>
<!-- Generator: Adobe Illustrator 24.2.3, SVG Export Plug-In . SVG Version: 6.00 Build 0)  -->
<svg version="1.1" id="Layer_1" xmlns="http://www.w3.org/2000/svg" xmlns:xlink="http://www.w3.org/1999/xlink" x="0px" y="0px"
	 viewBox="0 0 24 24" style="enable-background:new 0 0 24 24;" xml:space="preserve">
<style type="text/css">
	.st0{fill:#845EC2;}
</style>
<path class="st0" d="M1.8,23.3c-1,0-1.2-0.6-1.2-1V8.4l7.5-7.7h12.1c0.7,0,1.2,0.7,1.2,1.4v20.2c0,0.4-0.2,1-1.2,1H1.8z M19,20.9
	V3.1h-6.8v0.4h0.9v1.4h-0.9v0.4h0.9v1.4h-0.9v0.4h0.9v1.4h-0.9V9h0.9v1.4h-0.9v0.4h0.7c0.7,0,1.2,0.7,1.2,1.4v4.6c0,0.4-0.2,1-1.2,1
	h-2.8c-1,0-1.2-0.6-1.2-1v-4.6c0-0.7,0.5-1.4,1.2-1.4h0.7v-0.4H9.8V9h0.9V8.6H9.8V7.1h0.9V6.7H9.8V5.3h0.9V4.9H9.8V3.5h0.9V3.1H9.4
	v5.4c0,0.4-0.2,1-1.2,1H3v11.4H19z M12.6,16.3v-0.4h-2.2v0.4H12.6z M12.6,14.5v-2.2h-2.2v2.2H12.6z M8,8.1v-4l-4.1,4H8z"/>
<path class="st0" d="M20.4,0.7H9.1H8.2L0.7,8.4v14.1c0,0.6,0.4,0.8,0.9,0.8h18.8c0.6,0,0.9-0.2,0.9-0.8V1.8
	C21.3,1.3,21,0.7,20.4,0.7z M8.2,3.3v5H3L8.2,3.3z M19.5,21.4H2.5V9.2h5.6c0.6,0,0.9-0.2,0.9-0.8V2.6H11v0.9h-0.9v0.9H11v0.9h-0.9
	v0.9H11v0.9h-0.9v0.9H11v0.9h-0.9v0.9H11v0.9h-0.9c-0.6,0-0.9,0.6-0.9,1.1v4.7c0,0.6,0.4,0.8,0.9,0.8h2.8c0.6,0,0.9-0.2,0.9-0.8
	v-4.7c0-0.6-0.4-1.1-0.9-1.1h-0.9v-0.9h0.9V9.2h-0.9V8.2h0.9V7.3h-0.9V6.4h0.9V5.4h-0.9V4.5h0.9V3.5h-0.9V2.6h7.5V21.4z M10.1,14.8
	V12h2.8v2.8H10.1z M12.9,15.8v0.9h-2.8v-0.9H12.9z"/>
</svg>
