<?xml version="1.0" ?><!DOCTYPE svg  PUBLIC '-//W3C//DTD SVG 1.1//EN'  'http://www.w3.org/Graphics/SVG/1.1/DTD/svg11.dtd'><svg enable-background="new 0 0 24 24" height="24px" id="Layer_1" version="1.1" viewBox="0 0 24 24" width="24px" xml:space="preserve" xmlns="http://www.w3.org/2000/svg" xmlns:xlink="http://www.w3.org/1999/xlink"><path d="M21,0H9H8L0,8.2v15C0,23.8,0.4,24,1,24h20c0.6,0,1-0.2,1-0.8v-22C22,0.6,21.6,0,21,0z M8,2.7V8H2.5L8,2.7z M20,22H2V9h6  c0.6,0,1-0.2,1-0.8V2h2v1h-1v1h1v1h-1v1h1v1h-1v1h1v1h-1v1h1v1h-1c-0.6,0-1,0.6-1,1.2v5c0,0.6,0.4,0.8,1,0.8h3c0.6,0,1-0.2,1-0.8v-5  c0-0.6-0.4-1.2-1-1.2h-1v-1h1V9h-1V8h1V7h-1V6h1V5h-1V4h1V3h-1V2h8V22z M10,15v-3h3v3H10z M13,16v1h-3v-1H13z"/></svg>