<svg id="Layer_1" data-name="Layer 1" xmlns="http://www.w3.org/2000/svg" viewBox="0 0 851.29 539.51"><defs><style>.cls-1,.cls-4,.cls-6{fill:#abced4;}.cls-1{opacity:0.33;}.cls-2,.cls-3,.cls-8{fill:none;stroke-miterlimit:10;}.cls-2,.cls-3{stroke:#abced4;}.cls-2{stroke-width:3px;}.cls-3,.cls-8{stroke-width:2px;}.cls-5{font-size:20px;}.cls-5,.cls-7,.cls-9{fill:#505150;}.cls-5,.cls-7{font-family:Co-Text-Light, Co Text ;font-weight:300;}.cls-6{font-size:19px;font-family:Co-ext-Bold, Co Text ;font-weight:700;}.cls-7{font-size:16px;}.cls-8{stroke:#505150;stroke-linecap:round;}</style></defs><rect class="cls-1" x="194.98" y="432.72" width="502.89" height="77.95" rx="14.84"/><rect class="cls-1" x="712.05" y="24.87" width="117.62" height="369.43" rx="11.85"/><rect class="cls-1" x="713.09" y="432.72" width="117.62" height="79.89" rx="11.85"/><rect class="cls-1" x="328.44" y="24.87" width="369.43" height="369.43" rx="13.88"/><rect class="cls-2" x="179.77" y="11.36" width="660.73" height="394.66"/><rect class="cls-2" x="179.77" y="420.32" width="660.73" height="106.82"/><rect class="cls-1" x="194.98" y="24.87" width="118.24" height="369.43" rx="12.11"/><line class="cls-3" x1="203.27" y1="208.69" x2="301.13" y2="208.69"/><polygon class="cls-4" points="207.25 212.08 203.86 208.69 207.25 205.3 204.37 205.3 200.98 208.69 204.37 212.08 207.25 212.08"/><polygon class="cls-4" points="297.14 212.08 300.54 208.69 297.14 205.3 300.02 205.3 303.41 208.69 300.02 212.08 297.14 212.08"/><line class="cls-3" x1="723.52" y1="209.59" x2="821.38" y2="209.59"/><polygon class="cls-4" points="727.51 212.98 724.12 209.59 727.51 206.2 724.63 206.2 721.24 209.59 724.63 212.98 727.51 212.98"/><polygon class="cls-4" points="817.4 212.98 820.79 209.59 817.4 206.2 820.28 206.2 823.67 209.59 820.28 212.98 817.4 212.98"/><line class="cls-3" x1="723.52" y1="471.7" x2="821.38" y2="471.7"/><polygon class="cls-4" points="727.51 475.09 724.12 471.7 727.51 468.31 724.63 468.31 721.24 471.7 724.63 475.09 727.51 475.09"/><polygon class="cls-4" points="817.4 475.09 820.79 471.7 817.4 468.31 820.28 468.31 823.67 471.7 820.28 475.09 817.4 475.09"/><line class="cls-3" x1="345.17" y1="209.59" x2="675.23" y2="209.59"/><polygon class="cls-4" points="349.16 212.98 345.76 209.59 349.16 206.2 346.28 206.2 342.89 209.59 346.28 212.98 349.16 212.98"/><polygon class="cls-4" points="671.25 212.98 674.64 209.59 671.25 206.2 674.13 206.2 677.51 209.59 674.13 212.98 671.25 212.98"/><line class="cls-3" x1="213.4" y1="471.7" x2="675.23" y2="471.7"/><polygon class="cls-4" points="217.39 475.09 213.99 471.7 217.39 468.31 214.51 468.31 211.12 471.7 214.51 475.09 217.39 475.09"/><polygon class="cls-4" points="671.25 475.09 674.64 471.7 671.25 468.31 674.13 468.31 677.51 471.7 674.13 475.09 671.25 475.09"/><text class="cls-5" transform="translate(455.07 196.64)">flex-grow: 1;</text><text class="cls-6" transform="translate(200.98 54.76)">flex-item-1</text><text class="cls-6" transform="translate(455.07 49.13)">flex-item-2</text><text class="cls-6" transform="translate(719.24 49.13)">flex-item-3</text><text class="cls-6" transform="translate(407.08 453.79)">flex-item-4</text><text class="cls-6" transform="translate(718.99 453.79)">flex-item-5</text><text class="cls-5" transform="translate(723.46 170.82)">flex-basis:<tspan x="24.09" y="24" xml:space="preserve"> 20%</tspan></text><text class="cls-5" transform="translate(205.11 168.29)">flex-basis:<tspan x="24.09" y="24" xml:space="preserve"> 20%</tspan></text><text class="cls-7" transform="translate(715.32 498.46)">flex-basis:20%</text><text class="cls-5" transform="translate(399.17 494.66)">flex-grow: 1;</text><text class="cls-6" transform="translate(1.97 77.48)">flex-container</text><path class="cls-8" d="M172.43,86.39a49.81,49.81,0,0,0-27.79-10.61"/><polygon class="cls-9" points="171.8 75.96 169.84 76.35 171.74 86.02 161.95 87.22 162.2 89.2 174.12 87.75 171.8 75.96"/><text class="cls-6" transform="translate(0 454.02)">flex-container</text><path class="cls-8" d="M170.46,462.93a49.85,49.85,0,0,0-27.79-10.61"/><polygon class="cls-9" points="169.83 452.5 167.87 452.89 169.77 462.56 159.98 463.76 160.22 465.74 172.15 464.29 169.83 452.5"/></svg>