<svg id="Layer_1" data-name="Layer 1" xmlns="http://www.w3.org/2000/svg" viewBox="0 0 504.16 1757.52"><defs><style>.cls-1,.cls-2,.cls-5{fill:#abced4;}.cls-1{opacity:0.33;}.cls-2{font-size:19px;font-family:Co-ext-Bold, Co Text ;font-weight:700;}.cls-3,.cls-4,.cls-7{fill:none;stroke-miterlimit:10;}.cls-3,.cls-4{stroke:#abced4;}.cls-3{stroke-width:3px;}.cls-4,.cls-7{stroke-width:2px;}.cls-6{font-size:20px;font-family:Co-Text-Light, Co Text ;font-weight:300;}.cls-6,.cls-8{fill:#505150;}.cls-7{stroke:#505150;stroke-linecap:round;}</style></defs><rect class="cls-1" x="205.22" y="24.87" width="269.84" height="315.25" rx="12.11"/><text class="cls-2" transform="translate(280.79 49.13)">flex-item-3</text><rect class="cls-3" x="185.63" y="11.36" width="308.78" height="1012.77"/><line class="cls-4" x1="214.48" y1="197.9" x2="463.56" y2="197.9"/><polygon class="cls-5" points="218.46 201.29 215.07 197.91 218.46 194.51 215.58 194.51 212.19 197.91 215.58 201.29 218.46 201.29"/><polygon class="cls-5" points="459.58 201.29 462.97 197.91 459.58 194.51 462.45 194.51 465.85 197.91 462.45 201.29 459.58 201.29"/><text class="cls-6" transform="translate(280.14 180.59)">flex-grow: 1;</text><text class="cls-6" transform="translate(8.34 81.76)">flex-direction:<tspan x="0" y="24">column-reverse;</tspan></text><rect class="cls-1" x="205.22" y="354.98" width="269.84" height="315.25" rx="12.11"/><text class="cls-2" transform="translate(280.79 379.24)">flex-item-2</text><line class="cls-4" x1="214.48" y1="528.01" x2="463.56" y2="528.01"/><polygon class="cls-5" points="218.46 531.4 215.07 528.01 218.46 524.62 215.58 524.62 212.19 528.01 215.58 531.4 218.46 531.4"/><polygon class="cls-5" points="459.58 531.4 462.97 528.01 459.58 524.62 462.45 524.62 465.85 528.01 462.45 531.4 459.58 531.4"/><text class="cls-6" transform="translate(280.14 510.7)">flex-grow: 1;</text><rect class="cls-1" x="205.22" y="685.09" width="269.84" height="315.25" rx="12.11"/><text class="cls-2" transform="translate(280.79 709.35)">flex-item-1</text><line class="cls-4" x1="214.48" y1="858.12" x2="463.56" y2="858.12"/><polygon class="cls-5" points="218.46 861.51 215.07 858.12 218.46 854.73 215.58 854.73 212.19 858.12 215.58 861.51 218.46 861.51"/><polygon class="cls-5" points="459.58 861.51 462.97 858.12 459.58 854.73 462.45 854.73 465.85 858.12 462.45 861.51 459.58 861.51"/><text class="cls-6" transform="translate(280.14 840.81)">flex-grow: 1;</text><rect class="cls-1" x="205.22" y="1074.62" width="269.84" height="315.25" rx="12.11"/><text class="cls-2" transform="translate(280.46 1098.88)">flex-item-1</text><rect class="cls-3" x="185.3" y="1061.11" width="308.78" height="681.99"/><line class="cls-4" x1="214.15" y1="1247.65" x2="463.23" y2="1247.65"/><polygon class="cls-5" points="218.13 1251.04 214.74 1247.65 218.13 1244.26 215.25 1244.26 211.86 1247.65 215.25 1251.04 218.13 1251.04"/><polygon class="cls-5" points="459.25 1251.04 462.64 1247.65 459.25 1244.26 462.13 1244.26 465.51 1247.65 462.13 1251.04 459.25 1251.04"/><text class="cls-6" transform="translate(279.81 1230.34)">flex-grow: 1;</text><rect class="cls-1" x="204.89" y="1404.73" width="269.84" height="315.25" rx="12.11"/><text class="cls-2" transform="translate(280.46 1428.99)">flex-item-2</text><line class="cls-4" x1="214.15" y1="1577.76" x2="463.23" y2="1577.76"/><polygon class="cls-5" points="218.13 1581.15 214.74 1577.76 218.13 1574.37 215.25 1574.37 211.86 1577.76 215.25 1581.15 218.13 1581.15"/><polygon class="cls-5" points="459.25 1581.15 462.64 1577.76 459.25 1574.37 462.13 1574.37 465.51 1577.76 462.13 1581.15 459.25 1581.15"/><text class="cls-6" transform="translate(279.81 1560.44)">flex-grow: 1;</text><text class="cls-2" transform="translate(8.34 56.52)">flex-container</text><path class="cls-7" d="M178.8,65.44A49.92,49.92,0,0,0,151,54.82"/><polygon class="cls-8" points="178.17 55.01 176.21 55.4 178.11 65.07 168.32 66.26 168.56 68.25 180.49 66.8 178.17 55.01"/><text class="cls-6" transform="translate(8.34 1162.47)">flex-direction:<tspan x="0" y="24">column;</tspan></text><text class="cls-2" transform="translate(8.34 1137.24)">flex-container</text><path class="cls-7" d="M178.8,1146.15A49.92,49.92,0,0,0,151,1135.53"/><polygon class="cls-8" points="178.17 1135.72 176.21 1136.11 178.11 1145.78 168.32 1146.97 168.56 1148.96 180.49 1147.51 178.17 1135.72"/></svg>