<svg xmlns="http://www.w3.org/2000/svg" viewBox="0 0 480.98 167.98"><defs><style>.cls-1{fill:#d3d5d7;}.cls-2{fill:#d6dadd;}.cls-3{fill:#d5d9da;}.cls-4{fill:#dbdddb;}.cls-5{fill:#d2d6d6;}.cls-6{fill:#d5dadd;}.cls-7{fill:#d5dadc;}.cls-8{fill:#d2d7d6;}.cls-9{fill:#d6d8d9;}.cls-10{fill:#dbdddc;}.cls-11{fill:#d0d5d8;}.cls-12{fill:#d4d7d8;}.cls-13{fill:#cfd5da;}.cls-14{fill:#d6dedc;}.cls-15{fill:#d2d6d9;}.cls-16{fill:#d1d5d8;}.cls-17{fill:#ced2d5;}.cls-18{fill:#d0d2d0;}.cls-19{fill:#d8dbdc;}.cls-20{fill:#cfd2d0;}.cls-21{fill:#d0d1d3;}.cls-22{fill:#cfd1d0;}.cls-23{fill:#ced4d7;}.cls-24{fill:#cdd4d4;}.cls-25{fill:#ccd4d4;}.cls-26{fill:#ced2d6;}.cls-27{fill:#d0d4d7;}.cls-28{fill:#dadddb;}.cls-29{fill:#f8f9fa;}.cls-30{fill:#f3f7f6;}.cls-31{fill:#f7faf9;}.cls-32{fill:#f8fafc;}.cls-33{fill:#f8fafa;}.cls-34{fill:#f8fbfa;}.cls-35{fill:#f6faf9;}.cls-36{fill:#f8f9f7;}.cls-37{fill:#f9fafb;}.cls-38{fill:#f3f7fa;}.cls-39{fill:#f9fbfc;}.cls-40{fill:#f8f9fb;}.cls-41{fill:#f0f4f6;}.cls-42{fill:#f8fafd;}.cls-43{fill:#dde0de;}.cls-44{fill:#f7fafc;}.cls-45{fill:#d0d5d9;}.cls-46{fill:#f8f9fc;}.cls-47{fill:#f8fafb;}.cls-48{fill:#f5fafb;}.cls-49{fill:#ccd8d7;}.cls-50{fill:#e0e1e3;}.cls-51{fill:#f8faf8;}.cls-52{fill:#dadbdd;}.cls-53{fill:#f9fafa;}.cls-54{fill:#d7dddf;}.cls-55{fill:#d4dcdc;}.cls-56{fill:#94a1a5;}.cls-57{fill:#d4d4d6;}.cls-58{fill:#8b999d;}.cls-59{fill:#d3d7d8;}.cls-60{fill:#d5d6d8;}.cls-61{fill:#d1d2d4;}.cls-62{fill:#d0d3d4;}.cls-63{fill:#d1d9d9;}.cls-64{fill:#e0e1e2;}.cls-65{fill:#f5f9f8;}.cls-66{fill:#d9dde0;}.cls-67{fill:#d3d4d6;}.cls-68{fill:#cfd1d1;}.cls-69{fill:#d0d1d2;}.cls-70{fill:#dbddde;}.cls-71{fill:#d3d6d7;}.cls-72{fill:#d6dadb;}.cls-73{fill:#d2d3d4;}.cls-74{fill:#f5f9fa;}.cls-75{fill:#d8dcdd;}.cls-76{fill:#d1d4d5;}.cls-77{fill:#d6d7d9;}.cls-78{fill:#dcdddf;}.cls-79{fill:#dbdcde;}.cls-80{fill:#ced5d5;}.cls-81{fill:#d8d9db;}.cls-82{fill:#cdd5d4;}.cls-83{fill:#d9dddf;}.cls-84{fill:#dadcdd;}.cls-85{fill:#d2d3d5;}.cls-86{fill:#d1d6da;}.cls-87{fill:#cfd4d7;}.cls-88{fill:#d1d5d9;}.cls-89{fill:#939a9e;}.cls-90{fill:#cfd1d3;}.cls-91{fill:#d5d8d9;}.cls-92{fill:#d3d8d9;}.cls-93{fill:#d7dce1;}.cls-94{fill:#d8d9dd;}.cls-95{fill:#99a2a5;}.cls-96{fill:#d0d6d7;}.cls-97{fill:#e2e2e2;}.cls-98{fill:#faf9f8;}.cls-99{fill:#d8dadb;}.cls-100{fill:#d6d8d8;}.cls-101{fill:#d9dcdd;}.cls-102{fill:#d2dbda;}.cls-103{fill:#d9dcde;}.cls-104{fill:#d5d7d7;}.cls-105{fill:#d4d7d9;}.cls-106{fill:#dcdcde;}.cls-107{fill:#d9dedf;}.cls-108{fill:#d4d5d6;}.cls-109{fill:#d3d3d3;}.cls-110{fill:#cecfd1;}.cls-111{fill:#d4d4d4;}.cls-112{fill:#e7e8e9;}.cls-113{fill:#919697;}.cls-114{fill:#d0d2d2;}.cls-115{fill:#f3f7f8;}.cls-116{fill:#d9dbdc;}.cls-117{fill:#d8ddde;}.cls-118{fill:#cfd6d6;}.cls-119{fill:#d6dbd9;}.cls-120{fill:#cfd3d4;}.cls-121{fill:#cdd7d6;}.cls-122{fill:#9ea3a7;}.cls-123{fill:#d4d8dc;}.cls-124{fill:#d8dbd9;}.cls-125{fill:#d1d3d4;}.cls-126{fill:#d9dadb;}.cls-127{fill:#d6d7d8;}.cls-128{fill:#f9f9f7;}.cls-129{fill:#f5fbf9;}.cls-130{fill:#f4f7f8;}.cls-131{fill:#dbdbdd;}.cls-132{fill:#d7dadc;}.cls-133{fill:#d4d9d9;}.cls-134{fill:#daddde;}.cls-135{fill:#edf2f2;}.cls-136{fill:#d2d4d4;}.cls-137{fill:#d0d2d4;}.cls-138{fill:#e7e9e8;}.cls-139{fill:#d2d4d5;}.cls-140{fill:#d1d7db;}.cls-141{fill:#dbdedd;}.cls-142{fill:#e2e3e5;}.cls-143{fill:#d3d4d5;}.cls-144{fill:#cfd2d3;}.cls-145{fill:#d5d9db;}.cls-146{fill:#939496;}.cls-147{fill:#cfd0d3;}.cls-148{fill:#d8dadc;}.cls-149{fill:#d9dadc;}.cls-150{fill:#d2d5d7;}.cls-151{fill:#d7d9db;}.cls-152{fill:#d1d6d6;}.cls-153{fill:#d0d2d3;}.cls-154{fill:#cdcfd0;}.cls-155{fill:#cfd4d5;}.cls-156{fill:#cfd3d6;}.cls-157{fill:#d0d5d6;}.cls-158{fill:#d0d4d6;}.cls-159{fill:#d5d7d9;}.cls-160{fill:#9fa3a6;}.cls-161{fill:#d2d7da;}.cls-162{fill:#fff;}.cls-163{fill:#fbfdfe;}.cls-164{fill:#fbfbfc;}.cls-165{fill:#ced2d3;}.cls-166{fill:#e3e5e5;}.cls-167{fill:#fefefe;}.cls-168{fill:#feffff;}.cls-169{fill:#fbfcfc;}.cls-170{fill:#e5e7e7;}.cls-171{fill:#9cabb0;}.cls-172{fill:#fcfcfd;}.cls-173{fill:#fdfefd;}.cls-174{fill:#fcfdfd;}.cls-175{fill:#d0d5d5;}.cls-176{fill:#fdfeff;}.cls-177{fill:#fcfdfe;}.cls-178{fill:#fdfefe;}.cls-179{fill:#fafcfc;}.cls-180{fill:#e2e3e4;}.cls-181{fill:#eaebed;}.cls-182{fill:#dedfe1;}.cls-183{fill:#f5fafa;}.cls-184{fill:#d9ddde;}.cls-185{fill:#cfd5d9;}.cls-186{fill:#d7d7d6;}.cls-187{fill:#ced0d4;}.cls-188{fill:#989d9e;}.cls-189{fill:#cfd4d3;}.cls-190{fill:#cececd;}.cls-191{fill:#fefeff;}.cls-192{fill:#d1d3d5;}.cls-193{fill:#fbfcfd;}.cls-194{fill:#fdfdfd;}.cls-195{fill:#d3dcdd;}.cls-196{fill:#9a9da0;}.cls-197{fill:#d8dcdf;}.cls-198{fill:#dfe1e2;}.cls-199{fill:#d4d6d7;}.cls-200{fill:#cdd4d2;}.cls-201{fill:#d5d9dc;}.cls-202{fill:#dddee0;}.cls-203{fill:#d6d8d7;}.cls-204{fill:#d6d6d5;}.cls-205{fill:#d6d6d6;}.cls-206{fill:#d3d7d9;}.cls-207{fill:#ced1cf;}.cls-208{fill:#d1d6d5;}.cls-209{fill:#95999d;}.cls-210{fill:#e2e2e4;}.cls-211{fill:#e9ebeb;}.cls-212{fill:#f7fafb;}.cls-213{fill:#dfe2e3;}.cls-214{fill:#e4e7e8;}.cls-215{fill:#fdfdfe;}.cls-216{fill:#fafdfe;}.cls-217{fill:#eaeded;}.cls-218{fill:#dee1e1;}.cls-219{fill:#eaebec;}.cls-220{fill:#ced3d4;}.cls-221{fill:#e6e6e6;}.cls-222{fill:#f1f7f9;}.cls-223{fill:#fafbfb;}.cls-224{fill:#f8fbfd;}.cls-225{fill:#d3dee0;}.cls-226{fill:#d2d6d7;}.cls-227{fill:#fcfefe;}</style></defs><g id="Layer_2" data-name="Layer 2"><g id="Layer_1-2" data-name="Layer 1"><path class="cls-1" d="M.08,93c2.62-3.22,6.46-1.74,9.47-1.79,21.64-.36,43.28-.23,64.92-.15A79.51,79.51,0,0,1,83,92c.14,1.25-.75,1.65-1.67,2a17.08,17.08,0,0,1-5.42.51c-22.74,0-45.48.07-68.22,0-.57,0-1.15-.06-1.73,0a4,4,0,0,0-1.56.59c-1,1.07-.95,2.43-.95,3.74,0,20.37,0,40.73-.06,61.09,0,2.68.87,4.43,3.31,5.44A1.17,1.17,0,0,1,7,166.93c-2.58.23-5.49,1.59-6.93-2.05A3.68,3.68,0,0,0,.54,163q0-34,0-68.08A3.62,3.62,0,0,0,.08,93Z"/><path class="cls-2" d="M.06,3.08C.14.66,1.67.07,3.74.07q38.55,0,77.11,0c.73,0,1.46.6,2.19.91A3,3,0,0,1,81.1,3c-2.1.67-4.27.41-6.41.41-21.36,0-42.71,0-64.07,0-2.09,0-4.34-.58-6.15,1.06-1.95,2.91-.8,6.11-.9,9.19C3.25,32,3.5,50.35,3.46,68.65c0,1.83.19,3.67-.58,5.41-.69,1-1.44,1.9-2.18.08C.3,73.15.8,72,.06,71V70a4,4,0,0,0,.48-2.39V5.46A4,4,0,0,0,.06,3.08Z"/><path class="cls-3" d="M102,166.94c-4.45,1.17-2.9-2.43-2.91-4.09C99,144.77,99,126.68,99,108.59c0-4,0-8,0-11.94,0-1.85-.15-3.73,1.95-4.69,1.06-.69,2.25-.46,3.39-.46q37.11,0,74.22,0c1.14,0,2.34-.24,3.39.48a8.18,8.18,0,0,1,0,1c-.23.21-.46.42-.68.64-5.17,1.49-10.46.38-15.68.81q-15.6.3-31.19,0c-8.71.1-17.42-.05-26.14.09-2.18,0-4.81-.52-5.69,2.56a32.77,32.77,0,0,0-.2,5.24c0,4.6,0,9.2,0,13.79.3,16.35,0,32.7.15,49.05A3.35,3.35,0,0,1,102,166.94Z"/><path class="cls-4" d="M479.85,92c1.57,1.28,1,3.07,1,4.66,0,21.78-.09,43.57.12,65.35,0,4.63-1.42,6-6,6-24.12-.2-48.24-.08-72.37-.12-1.59,0-3.37.57-4.68-1,2.08-2,4.7-1.37,7.13-1.37,21.47-.06,42.93,0,64.4,0,2.15,0,4.33.26,6.43-.39A2.93,2.93,0,0,0,477.1,163c.46-17.91,0-35.8.19-53.69,0-2.48-.09-5,.1-7.45.13-2.67-.23-5.39.58-8A3.85,3.85,0,0,1,479.85,92Z"/><path class="cls-5" d="M199,92a79,79,0,0,1,15.12-1q29.6,0,59.18,0c8.73,0,8.73,0,8.71,8.46l0,2.49a1.13,1.13,0,0,1-1.57-.43c-1.93-7-1.93-7-9.75-7q-31.91,0-63.8,0c-1.81,0-4.1-.93-5.26,1.56-.35,1.7-.16,3.6-1.77,4.83C197.08,98.2,198.72,95.05,199,92Z"/><path class="cls-2" d="M298,1.1c1.11-1.48,2.72-1,4.16-1,24.8,0,49.61,0,74.42-.07,3.7,0,5.87.88,5.27,5a1.71,1.71,0,0,1-1.88.42,16,16,0,0,0-2.43-1.35,11.48,11.48,0,0,0-3.81-.66c-22.26,0-44.51,0-66.75,0-2.32,0-4.66.22-6.94-.39A3.65,3.65,0,0,1,298,1.1Z"/><path class="cls-5" d="M479.85,92l-1,1a5.74,5.74,0,0,1-1.66,1c-8.45.86-16.94.55-25.41.54-15.8,0-31.6.24-47.39-.16a14.62,14.62,0,0,0-3.85.29c-2.33,1.07-.85,3.84-2.34,5.27a1,1,0,0,1-1.26,0c0-1.5.05-3-.06-4.49-.22-3.15,1.08-4.5,4.34-4.5,24.6.07,49.2,0,73.8.08A26.11,26.11,0,0,1,479.85,92Z"/><path class="cls-6" d="M99.08,4.05c-.4-4.08,2.36-4,5.17-4q32.06,0,64.12,0h9.94c1.84,0,3.73-.17,4.63,2a5.9,5.9,0,0,1-1.64,1c-12.13.86-24.28.19-36.42.37-6.32.09-12.65,0-19,0l-4.51,0h-1.72c-6.07.42-12.24-.9-18.22,1A2.42,2.42,0,0,1,99.08,4.05Z"/><path class="cls-7" d="M396.91,2.06c.79-1.9,2.42-2,4.15-2h76.12a3.13,3.13,0,0,1,2.7.94c.93,1.77-.08,2.29-1.6,2.48-24.25-.1-48.51,0-72.77,0a28.4,28.4,0,0,1-6.95-.37A6,6,0,0,1,396.91,2.06Z"/><path class="cls-6" d="M199,1.07c1.3-1.52,3.07-1,4.66-1Q240,0,276.27.1c1.6,0,3.36-.53,4.68.94a3,3,0,0,1-2,2,11.81,11.81,0,0,1-3.92.55c-23.21.1-46.42,0-69.63-.09A12.58,12.58,0,0,1,201,3.08,3.83,3.83,0,0,1,199.36,2Z"/><path class="cls-8" d="M298,93a13.94,13.94,0,0,1,8-2q36.38.07,72.74.24c.4,0,.81.43,1.22.67a1.2,1.2,0,0,1-.52,1.64c-2.49,1.29-5.2,1-7.84,1-22.63-.06-45.26.22-67.88-.18a23.57,23.57,0,0,1-2.66-.07A4.53,4.53,0,0,1,298,93Z"/><path class="cls-9" d="M82,2.07,83,1c1.49,1.33.94,3.1.94,4.7q.06,32.7,0,65.4c0,2.1,1,5.08-3,4.87a2.51,2.51,0,0,1-.52-1.56c.09-.86,0-1.73,0-2.61,0-18.13-.23-36.25.11-54.37.22-4.6-.37-9.23.41-13.82A6.41,6.41,0,0,1,82,2.07Z"/><path class="cls-10" d="M478.89,3.06a2.17,2.17,0,0,0,1-2c1.5,1.31,1,3.09,1,4.68q.06,32.91,0,65.82c0,1.9,1.24,5.15-3,4.51a1.94,1.94,0,0,1-.5-1.3c.06-.73.15-1.46.18-2.19.06-2.58,0-5.14,0-7.72,0-1.11,0-2.22,0-3.33-.15-3-.08-5.94-.05-8.91-.1-15.68-.37-31.36.13-47a6.32,6.32,0,0,1,.66-1.79Z"/><path class="cls-11" d="M281,102h1c0,20.09,0,40.19.08,60.29,0,3.44-.67,5.06-4.64,5-25.55-.36-51.11-.87-76.65.21-.25,0-.52-.37-.77-.57-.12-1.23.76-1.65,1.68-2,6.27-.79,12.57-.32,18.86-.35,17.23-.07,34.46,0,51.69,0,2.12,0,4.36.42,6.11-1.3s1.21-4.08,1.21-6.21c0-16.13,0-32.27,0-48.41C279.56,106.31,279,103.86,281,102Z"/><path class="cls-12" d="M82,93l1-1c1.43,1.12,1,2.71,1,4.15q0,33.3,0,66.6c0,1.44.44,3-1,4.15a4,4,0,0,1-1.92-1.9,7.34,7.34,0,0,1-.38-1.85c-.48-21.35-.12-42.71-.25-64.06C80.43,96.92,80.42,94.74,82,93Z"/><path class="cls-3" d="M99.08,4.05H101c1.89,1.85,1.59,4.27,1.6,6.55q.06,31.77,0,63.56A3.53,3.53,0,0,1,102,76c-1.69,1.55-2.43.19-2.76-1.12a15.77,15.77,0,0,1-.21-4Q99,37.47,99.08,4.05Z"/><path class="cls-11" d="M396.92,100h1c1.88,1.9,1.38,4.34,1.38,6.61.06,17.43,0,34.86,0,52.3,0,5.34.27,5.6,5.66,5.61,21.93,0,43.85,0,65.78,0,2.42,0,5-.6,7.11,1.39-1.66,1.71-3.78.94-5.68,1q-37.14.07-74.28,0c-1.57-1.28-1-3.07-1-4.66Q396.87,131.11,396.92,100Z"/><path class="cls-13" d="M201,165.91l-1,1c-2.14-.26-2-1.88-2-3.38V94.72A2.92,2.92,0,0,1,199,92c.42,3-1,6.13.95,8.94.22.24.44.47.67.7.85,1.53.76,3.22.76,4.88.06,19,0,37.95,0,56.92A5.2,5.2,0,0,1,201,165.91Z"/><path class="cls-14" d="M381.86,101q0,30.81,0,61.62c0,1.63.85,3.87-2,4.31a4.13,4.13,0,0,1-1-1.64c-.81-15.86-.25-31.74-.3-47.61,0-5.41-.87-10.9.75-16.26A1.69,1.69,0,0,1,381.86,101Z"/><path class="cls-14" d="M379.94,5.05h1.91V69a1.68,1.68,0,0,1-2.57-.46c-1-1.84-.77-3.86-.77-5.82q0-25.56,0-51.1C378.52,9.36,378,6.92,379.94,5.05Z"/><path class="cls-15" d="M205,76c-7,0-7,0-7-6.7q0-31.51,0-63c0-1.74-.67-3.68.94-5.16l0,0c1.34,2.05,1.38,4.36,1.38,6.69q0,14.38,0,28.76c.24,5.47-.65,11,.62,16.41.69,5.53.22,11.1.35,16.64a17.32,17.32,0,0,0,.14,2.88c.55,1.76,2.58,1.23,3.58,2.3A.93.93,0,0,1,205,76Z"/><path class="cls-16" d="M379.89,165.88c0,.34,0,.68,0,1-2.23,1.6-4.49,0-6.73,0q-35.54.31-71.08.36c-1.7,0-3.83.33-4.12-2.34a3.54,3.54,0,0,1,1.7-.72l.94,0,.93.17c23.73.31,47.47,0,71.2.15C375.18,164.54,377.77,164.06,379.89,165.88Z"/><path class="cls-17" d="M298,1.1l.95,1c1.84,2.11,1.35,4.69,1.36,7.13,0,18.7,0,37.4,0,56.11,0,7.5,0,7.5,7.22,8.42a5.43,5.43,0,0,1,1.88.63,1.16,1.16,0,0,1,.49,1.61c-12,.12-12,.12-12-11.79Q297.94,32.66,298,1.1Z"/><path class="cls-18" d="M205,76V75c1.73-1.8,4-1.36,6.11-1.4,20.45-.39,40.9-.09,61.35-.18,3,0,6.09.15,7.84-3.08a1.31,1.31,0,0,1,1.67-.36c.88,4.74-.92,6.2-5.83,6.15C252.39,75.87,228.68,76,205,76Z"/><path class="cls-19" d="M182,92l-81,0c1.16-1.34,2.74-.95,4.19-.95q36.32,0,72.64,0C179.22,91,180.82,90.58,182,92Z"/><path class="cls-16" d="M102,166.94v-1c2.2-2.08,5-1.63,7.58-1.59,18.3.31,36.59.1,54.87.16,5.63.11,11.29-.64,16.9.4a6,6,0,0,1,1.59,1c-1.61,1.8-3.75,1-5.64,1Q139.64,167,102,166.94Z"/><path class="cls-20" d="M102,76c0-.32,0-.64,0-1,3.47-2.65,7.51-1.24,11.3-1.53a37.29,37.29,0,0,1,6.34,0c.63,0,1.27,0,1.91,0,18.32-.25,36.65-.08,55-.09a10,10,0,0,1,4.87.88A1.21,1.21,0,0,1,182,76Z"/><path class="cls-21" d="M477.86,75c0,.34,0,.69,0,1l-80,0a1.2,1.2,0,0,1,.59-1.65,9.06,9.06,0,0,1,4.39-.72c23.12,0,46.24-.56,69.36,0C474.2,73.65,476.28,73.34,477.86,75Z"/><path class="cls-22" d="M81,75c0,.32,0,.65,0,1H3a1.19,1.19,0,0,1,.55-1.65c2-1.1,4.23-.76,6.37-.76q32,0,63.94,0C76.3,73.62,78.93,73,81,75Z"/><path class="cls-16" d="M82,165.9l1,1c-3.08,1.36-6.18,0-9.27,0-22.23.11-44.46,0-66.7,0,0-.33,0-.66,0-1,1.72-1.79,4-1.41,6.09-1.41q31.35-.06,62.71,0C78,164.52,80.19,164.28,82,165.9Z"/><path class="cls-23" d="M397.91,74.94c0,.34,0,.69,0,1-1.56-1.29-1-3.07-1-4.66q0-34.63,0-69.26l1,0c1.92,2.46,1.45,5.37,1.48,8.15.16,17.1-.24,34.21.24,51.31a10.83,10.83,0,0,1,.05,1.8c0,.29-.06.59-.08.88C398.49,67.69,400.39,71.67,397.91,74.94Z"/><path class="cls-24" d="M182,76c0-.32,0-.65,0-1-1.49-1.61-1.43-3.6-1.42-5.61,0-20.22,0-40.43,0-60.65,0-2.29-.35-4.69,1.34-6.65h1q0,34.88,0,69.74C183,73.24,183.42,74.84,182,76Z"/><path class="cls-25" d="M182.93,165.91h-1c-1.7-1.92-1.61-4.3-1.57-6.61.29-20.23.13-40.45.19-60.68,0-2-.09-4,1.4-5.64h0c1.47,1.1,1,2.71,1,4.15Q183,131.51,182.93,165.91Z"/><path class="cls-8" d="M.08,93c1.36,1.16.93,2.75.93,4.18q0,31.75,0,63.52c0,1.44.43,3-.92,4.18Q.09,128.94.08,93Z"/><path class="cls-26" d="M298.91,164.92H298V93l1,0c1.59,1.8,1.34,4,1.34,6.15q0,29.82,0,59.64C300.32,160.92,300.54,163.14,298.91,164.92Z"/><path class="cls-27" d="M281.93,70h-1a4.31,4.31,0,0,1-1.35-2.56c-.58-21-.08-42-.28-63A5.1,5.1,0,0,1,279.94,2l1-1c1.56,1.29,1,3.07,1,4.66Q282,37.85,281.93,70Z"/><path class="cls-18" d="M309.92,76V75c1.4-1.57,3.3-1.42,5.11-1.43q28.47-.08,56.92,0a9,9,0,0,1,4.39.73A1.21,1.21,0,0,1,376.9,76Z"/><path class="cls-8" d="M.06,3.08C1.44,4.22,1,5.81,1,7.24Q1,36.52,1,65.8c0,1.44.43,3-.95,4.17Z"/><path class="cls-28" d="M376.9,76c0-.33,0-.66,0-1,.49-.86,1.46-1.39,1.65-2.46.33-1.24.21-2.66,1.4-3.56h1.91c0,1.14,0,2.29.06,3.42C382.24,76.42,380.38,77.33,376.9,76Z"/><path class="cls-4" d="M381.86,101h-1.93c-2.05-2.64-1.87-5.29,0-8l0-1.08C383.83,94.25,381.05,98,381.86,101Z"/><path class="cls-8" d="M3,75c0,.33,0,.66,0,1C-1.1,76.2.27,73.14.06,71c1.59.86.33,3.15,2,4A.59.59,0,0,1,3,75Z"/><path class="cls-29" d="M82,93q0,36,0,71.93c-2,0-1.42-1.48-1.44-2.49-.07-3.87,0-7.76-.14-11.63-.23-.66-1,.38-.51,0,.21-.15.33,0,.39.33.44,3.12-.11,6.29.25,9.39.52,4.4-1.31,5.75-5.38,4.73-.94-5.48-1.69-10.86-.93-16.55.94-7,.19-14.22.35-21.24-1.17,8.45,2.21,17.28-2.38,25.54a1.28,1.28,0,0,1-1.64-.36c-1.18-1.79-1-3.83-.93-5.79.14-9.44-.39-18.89.29-28.31.37-.9.74-2,1.72-2.27,3.89-.88,6.41-1.93,6.42-7.18,0-5-2.83-5.85-6-7.89a12.49,12.49,0,0,0-7.17-2.31c1.83.9,4,.46,5.68,1.71a29.26,29.26,0,0,1-.28,16.33A3.55,3.55,0,0,1,68,118.14c-2.67.3-5.35.11-8,.21-.6,0-1.21,0-1.82,0-10.46,0-20.92,0-31.37,0-12.5-.12-12.51-.12-12.42,12.5,0,.49,0,1,0,1.47-.14,6.84.22,13.67-.2,20.49a8,8,0,0,1-.44,1.68c-.73,1.23-1.21,3.18-3.09,2.55s-1.06-2.48-.65-3.83c1-3.35-.78-6.46-.61-9.8.37-7.41.08-14.85.13-21.41-.29,10.72.2,22.32,0,33.86-2.46.07-2.08-1.88-3.18-2.25-.37,3.73,1.08,7.68-1.49,11.09-2.36-.8-1.84-2.71-1.84-4.23Q3,128.88,3,97.28c0-1.49-.11-3,1-4.25q.5,0,1,0c1.1,7.93.25,15.9.47,23.85.14,5.15-.06,10.31,0,14C5.91,119.24,4.9,106.12,6,93Z"/><path class="cls-30" d="M4,93v70.58l1.16,0q0-6.32,0-12.63c0-.09.22-.23.35-.24a1.47,1.47,0,0,1,.47.14c1.56,2,1.35,4.53,1.36,6.71,0,4.8,2.45,5.92,6.62,5.74s8.65,0,13,0c13.64,0,27.28,0,40.92,0,2.44,0,5-.43,7.09,1.54,3.75.54,5.48-.75,5.07-4.83A52.21,52.21,0,0,1,80.31,150c1.73,4.88-.75,10.12,1.67,14.89v1L7,165.94c-3.76.5-5.17-.81-5.13-4.9.21-21.08.07-42.17.15-63.25C2.06,96.08.85,93.55,4,93Z"/><path class="cls-30" d="M6,93v38.7H5V93Z"/><path class="cls-31" d="M3,75l-1,0L2,13a20.12,20.12,0,0,0,0-10c1.47-1.65,3.42-1,5.16-1Q44.6,2,82,2.07q0,.5,0,1c-1.34,3.8.21,7.85-1,12.28-2.28-1.29-2.12-3.31-2.46-5.07-.92-4.9-2.16-5.82-7-5.8-19.77.07-39.54,0-59.31.06-1.25,0-3.4-1.15-3.65,1.1s-2.09,4.91.92,6.78c1.18.75,3.3.95,2.79,2.91-.56,2.21-2.85,1.86-4.57,2.22a4.69,4.69,0,0,0-3.75,2.79,2.12,2.12,0,0,0-.42,1.5q0,21.71-.07,43.4c-.08.66,1.05,0,.39.09-.48-15-.42-30,0-45a1,1,0,0,1,1.55-.19c1.3,1.73,1.1,3.75,1.1,5.74q0,17.43,0,34.87c0,2-.45,4,1,5.71,5.68,2.23,11.51.94,17.28.85.73-.28,1.39-.71,2.13-1a5.37,5.37,0,0,1,3-.1c2.19.89,4.37,2,6.68.3,4.09-1.41,8.24-1.06,12.39-.49,1.94,2.39,6.58,2.63,10.62.52a17.53,17.53,0,0,1,10.65-.34,1.69,1.69,0,0,1,1,1.33c-.32,4.07-2.47,5.07-6.5,5-18.09-.27-36.18-.1-54.26-.1,18.92,0,37.84,0,56.76.05,2.68,0,5.14-1.34,7.86-1,2.49.34,5,.57,6.92,2.42-.33.34-.65.68-1,1Z"/><path class="cls-32" d="M2,3.05A11.25,11.25,0,0,1,2,13Z"/><path class="cls-32" d="M134,93h32a9.32,9.32,0,0,0,2.77,2.06,3.52,3.52,0,0,0,.86.21c-1.48-2,.4-1.73,1.29-1.77,2.81-.14,5.62.13,8.43.1,3.15,0,2.07,2.47,2.08,4,.08,12.93,0,25.85,0,38.78v5c0,9.39-.6,9.88-10.36,8.5a3.53,3.53,0,0,1-1.26-.79c-.69-1.37-.16-2.76,0-4.13.16-1.21-.28-1.77-1.5-1.74-4.33.29-8.68-.46-13,.51-2.09,3.72-.78,7.73-1,11.59-.1,2.05,1.65,2.13,3.19,2.19a35.35,35.35,0,0,1,6.42.33c2.62.59,3.14,2.61,3.31,4.88s-1.09,2.86-3.07,2.65q-21.65,0-43.29,0c-2,0-4.74.69-4.67-2.73.06-2.84,1.6-4.5,4.53-5,8.06-1.38,8-1.43,7.73-9.72a7.05,7.05,0,0,0-.61-3.37c-4.48-2.62-9.36-.67-14-1.23-2.62.36-1.1,2.26-1.22,3.49-.21,2.07-1.27,2.64-3,1.73-4.2-2.23-3.21-6.24-2.73-9.68.39-2.85.87-6.51,5.5-5.64.95,3.75,3.93,3.39,6.78,3.35,9.37-.13,8.25,1.07,8.32-8.18,0-5.27.8-6.38-6-6.14a6.71,6.71,0,0,1-3.4-.68c-1.56-1.75-3.77-3.36-1.41-6,2.11-1.09,4.41-.31,6.29-.61-1.91-.32-4.32.72-6.39-.87a2.29,2.29,0,0,1-.11-2c2.25-2,5-.6,7.17-1.07-1.78-.07-3.87.1-6-.12A16.91,16.91,0,0,1,112,107a9,9,0,0,1-.92-1c-1.31-2.42-3.09-4-6.07-4-1.3,0-2.61-.5-2.39-2.33,1.89-2.79,4.62-1.88,7.18-1.61,6.72.71,13.44,1.27,20.07-.6C132.24,96.92,132.67,94.56,134,93Z"/><path class="cls-33" d="M131,98c-6.87,3.57-14.09,1.87-21.24,1.43-2.36-.15-5.24-2.13-6.75,1.57,2.2,2.79,1.06,6.08,1.38,9.16.17,1.58-.5,4.1,1.35,4.31,2.24.26,1.63-2.36,1.93-3.84.51-2.47.6-5.22,4.33-4.64h0a22.42,22.42,0,0,0,2.85,5.94,12,12,0,0,1,.81,4.27c-.55,2-.83,4-1.86,5.83-1.36,3.52.87,7.63-1.81,10.93-5.62,4.81-5.85,12.78-.43,15.11,1.87-1.72-4.06-5.22,1.39-6.13,2.37,2.89,1.41,6.34,1.35,9.52-.09,3.87,1.32,5.5,5.2,5.12,2.28-.22,4.61.22,6.87-.35,2.74-3.7.35-8.12,1.69-12a2.78,2.78,0,0,1,1-1.28c2,4.6.62,9.42.85,14.13.07,1.45-1.2,1.81-2.46,1.83a49.54,49.54,0,0,1-6,0c-3-.35-3.89,1.68-4.13,3.81-.35,3.12,2.31,2.17,3.87,2.18,14.6.07,29.2,0,43.8,0,.33.21.44.41.33.62s-.22.3-.33.3l-63,.1c-1.52-1.3-1-3.07-1-4.67,0-15.11,0-30.22,0-45.32a41.41,41.41,0,0,0,0-14V97c9-1.62,18.15-1.46,27.26-1.13C129.48,95.89,131.12,96,131,98Z"/><path class="cls-34" d="M165,165.83v-.92c2-3.29,1.27-5.61-1.93-6-3.39-.4-8,1.67-9.86-1.15-1.57-2.42-.33-6.71-.17-10.16.08-1.91-.73-4,.92-5.69,2.44,3.06,1.32,6.67,1.35,10s1.32,4.91,4.72,4.6a14.74,14.74,0,0,1,3,0c3.81.43,6.09-.76,5.8-5.06a3,3,0,0,1,1.27-2.57c10.93,0,10.93,0,10.93-11,0-13.12-.16-26.25.1-39.37.07-3.6-1.29-4.73-4.38-4.3-2.27.31-4.53-1.08-7.17.25l3.93.85C171,94.46,166.73,98.62,166,93l16,0q0,36.46,0,72.93Z"/><path class="cls-35" d="M131,98c-6.72-2.08-13.58-.75-20.38-.72-3.19,0-6.41,1-9.57-.27-.43-2.93.66-4.11,3.79-4,9.72.17,19.44.09,29.16.11C133.73,95.13,135.05,98.19,131,98Z"/><path class="cls-36" d="M101,102a21.54,21.54,0,0,1,0,14Z"/><path class="cls-37" d="M398.89,93h4c1,1.33.33,2.81.41,3.86,0-.29.12.54.13.29.08-2.55-.24-5.66,3.41-2.11,1.42,1.39,3,1.28,4.6,1.28,17.31.06,34.61-.07,51.92.06,2,0,3.95,0,5.52-1.71,2.54-2.69,6.15-.15,9-1.67q.5,0,1,0,0,4,0,8c-6.34.93-11.87,4.8-18.68,4.43-9.06-.49-18.18.25-27.22-1.38-1.29-.24-.21,1.63-.63,2.43-.1,14.09.14,28.17-.14,42.25-.06,3.21,1.06,3.93,4,3.88,8.45-.16,16.9-.06,25.35-.06,2.2.09,4.43-.19,6.55.62,3.71,3.91,4.17,7.44,1.6,12.11-21.8.34-43.61,0-65.42.21-3,0-3.43-1.09-3.41-3.74.1-18.63.08-37.26,0-55.89,0,19.59,0,39.17,0,58.93-2.81-.35-2.42-1.58-2.42-2.43q-.06-33.69,0-67.39A3.41,3.41,0,0,1,398.89,93Z"/><path class="cls-31" d="M469.87,164.91c-.15-3.77.73-7.72-2-11-1.72-2-1.31-4.37-1.33-6.66-.07-12-.19-23.89,0-35.84.07-3.94-1.34-5.6-5.25-5-8.11,0-16.22,0-24.32,0-2.14,0-4.35.21-6.11-1.45l1.57-3.42c1.16-.22.6,5.16,2.79.71.29-.59.7-.67,1.14-.36,6.18,4.38,13.17,1.22,19.73,2.09a32.39,32.39,0,0,0,7,0c2.3-.19,4.52.78,6.71-2,1.8-2.32,6-.62,9.08-.9q0,32,0,63.94A17.63,17.63,0,0,1,469.87,164.91Z"/><path class="cls-38" d="M469.87,164.91h8.95l-1,1c-24.91,0-49.82-.1-74.73.07-4.13,0-5.35-1.11-5.31-5.27.2-20.25.08-40.5.07-60.75.45-2.29-.92-4.85,1-6.93v70.73H400V102.35c2.54.88,1.85,2.45,1.85,3.57,0,18.46.18,36.92-.1,55.38-.05,3.37.91,3.68,3.73,3.67C426.94,164.87,448.4,164.91,469.87,164.91Z"/><path class="cls-35" d="M281,102q0,28.91-.07,57.8c0,1.75.67,3.7-.94,5.18l-.65-.7c-1.2-2.33-.91-4.85-.92-7.32q-.09-26.86.16-53.7c.68-4.59-2.35-4.63-5.59-4.65-17.48-.07-35,.1-52.43,0-2.49,0-5,.24-7.42-.68-2.74-.9-5.53-.17-8.29-.31-1.73-.08-3.71.47-4.8-1.58-.31-2.54,1.1-3,3.3-3q37.09.08,74.21,0c2.63,0,3.57,1,3.42,3.54C280.83,98.31,280.94,100.14,281,102Z"/><path class="cls-39" d="M200,96c4.21,1.7,8.76-1,12.94,1,3.85,3.42,3.82,3.9-.47,6.92-1.36,1-2.72,1.92-4.5,1.11-1-.42-2-.45-2.31.91a19.11,19.11,0,0,0-.23,4.47c0,16,0,32,0,48,0,2.41.57,5.07-1.75,7C199.93,164.93,201,162,201,160c-.1-17.58,0-35.15-.08-52.73,0-2.12.5-4.35-.93-6.27l-.1,0C199.94,99.32,200,97.65,200,96Z"/><path class="cls-40" d="M375.89,2.09l3,1q0,29.9,0,59.78a10.82,10.82,0,0,1-.17,2.48c-.42,1.7-1.18,3.36-3,3.54-2.1.2-2.64-1.67-3.12-3.28a16.28,16.28,0,0,1-.43-5.94c.16-2.26,0-4.38-2.37-5.53a4.64,4.64,0,0,1-2.11-3.74c-.2-1.56-.81-2.5-2.56-2.19a51.57,51.57,0,0,1-7.56,0c-3.19-.65-4.76.69-4.28,3.89.5,3.42-1.52,7,.9,10.27,2.54.6,5.12,1.26,4.63,4.68s-3.34,3.2-5.79,3.36a48.47,48.47,0,0,1-6.49,0c-2.31-.16-4.9-.1-5.43-3.2-.58-3.38,1.93-4.17,4.38-4.94a2.62,2.62,0,0,0,1-1.87c.5-12.16.5-12.16-12.14-12.09-2.56.18-2,2.17-2.1,3.7-.29,3.24.6,6.57-.8,9.72-1.79,1.4-2.66.7-2.84-1.32-.16-1.73.28-3.52-.22-5.46-2.84,2,.58,7.74-5,7.52-2.85-.24-5.7-.12-8.55-.35,3.07.18,6.15.32,9.24.4,2.21-.11,2.85,1.29,2.89,3.13a4.09,4.09,0,0,1-2,3.73,6.32,6.32,0,0,1-3.79.92c-4.67-.34-9,.18-12.17,4.16-9.51,0-9.54,0-9.54-9.23,0-19.15.11-38.29-.1-57.43-.05-4.06.94-5.38,5.18-5.34,22,.21,44,.11,66,.07C372.29,2.54,374.15,3,375.89,2.09Z"/><path class="cls-34" d="M309.92,74c-.41-4.63,2.05-5.6,6.09-5a40.52,40.52,0,0,0,6.88,0c2-.07,2.88-1.19,3-3.15.15-2.22-1-2.92-3-2.8-.35-.23-.46-.45-.34-.68s.24-.33.36-.33c4.13,0,2.55-3.34,2.88-5.32s.12-3.87,2.61-3.81c2.88.08.89,2.5,1.47,3.73.81,1.71-1.68,4,1,5.41,5.69-.19,11.45-1.6,17,1-1.09,1.48-2.73.87-4.15,1.07s-1.81,1.24-1.8,2.51.5,2.34,2,2.36c4,0,8,0,12,0,1.47,0,2-1,2-2.34s-.24-2.3-1.76-2.52-3.06.38-4.19-1c1.07-1.26,2.56-1.3,4-1.39,3.05-.06,6.11.05,9.16-.09,2.38-.05,2.37-1.76,2.46-3.47s-.22-3.67,1.32-5.08c4.4-.75,5.64,1.48,5,5.37a14.6,14.6,0,0,0,0,6.8c.36,1.2-.15,3.09,1.65,3.06,1.48,0,1.83-1.84,2.12-3.06a19.38,19.38,0,0,0,.28-4.45c0-16.61,0-33.21,0-49.82a25.77,25.77,0,0,1,1-7.83c.84.39,1,1.16,1,2V69l-.09,5a4.51,4.51,0,0,1-2.88.49q-32.09,0-64.16,0A4.53,4.53,0,0,1,309.92,74Z"/><path class="cls-41" d="M309.92,74h69.93c-.69,1.21-1.89.93-3,1l-67,0c-11-.17-11-.17-11-11.37q0-30.78,0-61.58h76.94c-1.67,1.67-3.79.92-5.69.93-21.76,0-43.53.12-65.29,0-3.92,0-5.11,1.06-5.07,5q.29,28.65,0,57.29c0,2.47,1.75,4.73.43,7.39-.47,1,1.19,1.28,2.19,1.29C304.94,74,307.43,74,309.92,74Z"/><path class="cls-35" d="M477.84,93c-8.17,2.86-16.26,5-25.24,4.59-14.31-.7-28.69-.21-43-.05-2.45,0-4-.41-4.1-3.55-2.44,1.79-.95,4.09-2.57,6.91V93Z"/><path class="cls-34" d="M181.91,2.07q0,36.45.05,72.91l-60.91,0c-1.43-1.44-1.45-3.28-1.45-5.11.06-21.2-.23-42.4.13-63.58.29-1.38.78-2.55,2.55-2.4,5.44.43,11.16-.42,15.84,3.4-.51,2.07-3,1.83-3.5,3.57-.53,3.44-.13,6.9-.26,10.34-.1,2.54,1.09,3.5,3.56,3.51,3.94,0,7.89-.22,11.83.18.9.33,2.08.46,2.08,1.7,0,1-1,1.17-1.71,1.45-2.49.94-4.85-.54-7.37-.38,1.77.15,3.65.19,2.18,2.76-2.77,1.75-5.91.63-8.83,1.19-2.17.69-1.72,2.55-1.75,4.11-.08,3.12-.06,6.24,0,9.36l.09,1.53a13,13,0,0,1,0,5.35c.19,4.39-.84,8.85.64,13.17,2.54,1.2,5.27.24,7.85.68,4.27.73,5.68-1.23,5.32-5.15.81-2.46-.08-5.21,1.29-7.57,2.65-2.26,4.22-1.41,4.62,1.81a24.23,24.23,0,0,1-.05,8.41c-.81,3.58.8,4,3.64,3.65a49.51,49.51,0,0,1,13.37.43c8.39-.37,8.39-.37,8.39-8.88,0-15.81,0-31.63,0-47.44,0-6.1-.42-6.45-6.61-6.48-14.47-.07-29,.21-43.42-.35-1.64-.06-3.82.4-4.41-2.11Z"/><path class="cls-33" d="M120,75,102,75c-1.71-1.65-1-3.77-1-5.68q-.09-32.64-.07-65.3c.37-2.36,2.22-2,3.8-2,5.07,0,10.14,0,15.2,0a3.45,3.45,0,0,1,.55,2.36c-.06,22.55,0,45.11,0,67.66C120.46,73.07,120.63,74.1,120,75Z"/><path class="cls-42" d="M125,2.09c1.49,1.59,3.44.93,5.18.93,15.44,0,30.88.16,46.32-.07,3.38-.05,4.42,1.28,4.42,4.14q0,29.61,0,59.23c0,2.15-.53,3.78-3.18,2.72S172.57,68.9,170,69a9.69,9.69,0,0,1-1.12-2.34c-.55-4.48-.07-9-.3-13.46-.67-2.7-2.9-1.6-4.54-1.8-2.4-.3-5,.52-7.32-1.81,2.73-2.18,5.95-.34,8.27-1.09-2.77-.79-6.29,1.65-9.16-1.36a2.92,2.92,0,0,1,1.27-1c3.23-.92,6.56-.16,9.8-.65,2.86-1.33,1.58-3.93,1.69-6,.13-2.37.44-4.82-.43-7.16-4.33-1.63-8.68-1.32-13-.18-1.55,3.64-.34,7.46-.81,11.16-.32,2.57-.6,5.17-4.36,4-2.3-3.11-1.31-6.72-1.23-10.07S147.87,31.56,145,30c0-2.62-2.37-1.33-3.51-3h9.12c.1,0,.21-.18.31-.27l-1-.71c-2.21-2.95-1.22-6.37-1.27-9.57-.07-3.93-1.13-6.11-5.67-6-3,.06-6.31.94-9-1.37.62-1.27,2.09-.69,3.27-1.57C132.17,5.72,127.26,4.55,122,5c-.3,0-.67-.64-1-1a1.27,1.27,0,0,1,0-2Z"/><path class="cls-43" d="M121,2.08v2l0,70.89L120,75V2.07Z"/><path class="cls-38" d="M398.89,63c-1.38-1.15-1-2.74-1-4.18q0-28.38,0-56.75,38.13,0,76.25,0c1.6,0,3.37-.54,4.68,1l-.08,0c-1.93,1.77-4.33,1.35-6.62,1.41-21.85.53-43.7,0-65.54,0-1.86.14-4-.61-3.75,2.89,1.05,15.74.06,31.52.4,47.27.05,1.91-.66,4.06,1.29,5.54,5.91.76,11.85,0,17.76.39,17-.34,33.91-.11,50.85-.13,2,0,4,.08,5.62,1.57l0,3a4.35,4.35,0,0,1-2.76-.18c-2.11-.65-4.28-.4-6.42-.4q-31.83,0-63.65,0C403.58,64.38,401,64.85,398.89,63Z"/><path class="cls-44" d="M279.94,2a9.88,9.88,0,0,1,1,5.3q0,30.35-.06,60.69c-.54,1.71-1.38,3-3.5,2.63-2.75-.49-5.66.16-8.29-1.17a3.52,3.52,0,0,1-1.23-2.17,14.8,14.8,0,0,1-.05-4.15,9.72,9.72,0,0,1,.3-1.61c1-2.76-.15-5.87,1.36-8.56,4.36-4.13,4.52-11.74.3-15.63-1.61-1.56-.33-4.29-2.3-5.71-4.27-.19-8.55-1.07-12.72.56a16.16,16.16,0,0,0-1,3.55c-.93,5.93-.21,11.89-.42,17.84-.06,1.81,0,3.64,0,5.46-.19,6.58-.2,6.58,6.06,7.71,1.14.21,2.31.4,2.77,1.73A2.39,2.39,0,0,1,260.26,70a75.75,75.75,0,0,1-20.73-.08,2.48,2.48,0,0,1-1.6-1.31c1.58-2.6,4.29-1.72,6.58-2,2,0,3.08-1,3.05-3.06-.06-3.64.5-7.31-.66-10.88,0-.66-.27.14-.09-.48.79-2.73.21-4.15-3-3.68a16,16,0,0,1-2.42.24c.73.21,2.72-.72,4.43.39-3.44,3.5-12.79,2.55-15.78-1.53-1.51-4.48-1.17-9.14-1.23-13.74,0-1.51-.34-3.48,2.07-3.81,3.71,2.35,1.89,6.13,2.45,9.31.39,2.16-1.33,5.07,2.09,6.21,1.33.13,2.66.12,4,.13,8.2.05,8.2.05,8.18-7.48,0-6.76,0-6.76-6.91-6.78-1.16,0-2.32,0-3.48,0-1.91,0-3.84.05-5.58-.93-3.61-3.33-3.61-5.83,0-7.83a3.25,3.25,0,0,1,1.21,1c.88,1,1.85,1.88,3.35,1.66C245,24,253.9,25,262.77,24.66c1.83-.08,4.19.7,4.7-2.25-.11-3.7.73-7.44-.58-11.07a3.78,3.78,0,0,0-2.78-.87c-10.28.09-20.56-.38-30.82.26-1.41.43-2.67,1-4-.54-5-5.59-9.37-5.49-14.37.12-.44.5,0-.2-.41.29A9.57,9.57,0,0,1,211,11.87a3.32,3.32,0,0,1-2.09-.49,7.41,7.41,0,0,0-4.34-5.29c-1-.41-.91.43-1.11,1-.31,9.45-.1,18.87-.12,28.3a18.21,18.21,0,0,0,1.11,6.32,7.15,7.15,0,0,1,.45,4.86c-2.18,5.93-1.37,12.09-1.64,18.17-.11,2.51.3,5.49-3.29,6.25q0-9-.08-18c-1-5.35-.18-10.75-.44-16.12,0-10,0-19.94,0-29.9,0-1.62-.47-3.33.5-4.87Z"/><path class="cls-45" d="M200,2.1,199.91,37c-.31.45-.62.45-.94,0q0-18,0-35.92Z"/><path class="cls-39" d="M299.93,93.08l2-.06c1.81.94,3.76.32,5.64.45,1.51.1,3,0,2.7,2.24-6.31,1.38-7.09,6-7.12,11.45,0,4.75.26,8.69,6.2,9.2.64.06,1.09.71,1.53,1.23,1.72,2.53,1.45,5.41,1.31,8.2-.39,7.8.38,15.59.05,23.38-.07,1.76,0,3.38,2.45,3.39,9.79,0,19.58-.1,29.36.17a3.33,3.33,0,0,0,1.84-.68,6.67,6.67,0,0,0,.86-1.19,4.49,4.49,0,0,1,1-1.09c1.42-.39,2.18.48,2.84,1.51a7.45,7.45,0,0,0,2.16,3.09c1.16,1,2.2.42,3.22-.26a12.18,12.18,0,0,1,1.81-.72,3.75,3.75,0,0,1,1.94,0,6.16,6.16,0,0,1,1.18.58c4.54.91,9.5.06,13.48,3.29,1,2.87,1.84,5.69-.92,8.12-23.38.11-46.75,0-70.13,0-1.14,0-2.33.23-3.39-.47h0c-.71-1.05-.47-2.24-.47-3.38q0-32.55,0-65.1C299.45,95.32,299.2,94.12,299.93,93.08Z"/><path class="cls-35" d="M299.91,164.92h74c2.71-1.59,2.84-4.15,2.83-6.93-.06-17,0-33.91,0-50.86,0-5.94-1.88-8-7.89-8.45-5.14-.39-10.31,0-15.46,0-13.3,0-26.6-.09-39.91,0-1.51,0-4.6,1.22-3.52-2.63-.22-2.14-1.82-1.91-3.32-2s-3.35.57-4.65-.94h77.94c0,2.65,0,5.3,0,8q0,32.46,0,64.91-37.39,0-74.8,0C303.35,165.87,301.39,166.55,299.91,164.92Z"/><path class="cls-29" d="M299.93,93.08q0,35.92,0,71.85h-1Q299,129,299,93A6.09,6.09,0,0,1,299.93,93.08Z"/><path class="cls-46" d="M5,20H4V19a4.14,4.14,0,0,1,2.6-1.09c12.8-.69,25.61-.18,38.41-.29,10.82-.09,21.64,0,32.44,0a6,6,0,0,0,3.07-.79A1.28,1.28,0,0,1,82,17q0,28.47,0,57C57,71.65,32,73.86,7.07,71.84H69.41c0-2.4-2.47-1.5-2.59-3.23,1-1.41,3.29.16,4.18-1.62-1.84-2.07-1.16-4.62-1.38-7s.74-4.91-1-7.07c-4-1.05-8-.53-12-.3-1.81,4.79-2.71,9.52.66,14.05A3.53,3.53,0,0,1,59,68c-2.95,3.82-6.61-.2-9.88.77-.36.11.8-1,.89-1.69-2.34-3-1-6.57-1.36-9.88-.2-2,.37-4.45-2.79-4.71-2.36-.12-4.72-.06-7.08-.08a10.65,10.65,0,0,0-3.51.31c-1.85,4.45-.8,9.12-1.08,13.68A4.31,4.31,0,0,1,36,68c-2.43,2-4.24.6-6-1-1.93-2-2-4.25-1.65-6.85s1.25-5.18-.87-7.42a42.38,42.38,0,0,0-12,.09c-2.11,4.18-.93,8.54-.72,12.83,3.29,2.4,7.38,0,10.75,1.81l.55.54c-4.72,2.24-9.72.53-14.57,1-1.8.18-3.63,0-5.45,0-1-10.41-.25-20.83-.48-31.24A12.75,12.75,0,0,0,8,31c.1-.79.41-1.75,1.34-1.85,1.3-.15,1.43,1.05,1.73,1.93.62,1.78,0,4,2,5.28,1.21,1.15.8,3.22,2.36,4.17,4.22,1.38,8.55-.75,12.83.59.16-2.06.31-4,.41-5.93.36-7,.34-7-6.27-8.67-.9-4.08-3.7-4.66-7.31-4.2-2.24.29-4.39,1.07-6.67,1.09C8.21,21.39,5.5,21.82,5,20Z"/><path class="cls-32" d="M82,17H81c-1.41,1.18-3.12,1-4.77,1q-32.75,0-65.47,0c-1.62,0-3.37.34-4.73-1,1.37-1.88,3.9-.19,5.51-1.74-1-2.54-5.43.32-5.7-4C5.67,8.53,8.26,6.7,7.18,3.84,6.72,2.6,8.6,3.09,9.37,3.09c21.74,0,43.48-.15,65.21.1A5.26,5.26,0,0,1,80,8.69c0,1.77-.47,3.62.48,5.49C82,10.5,79.7,6.46,82,3.06Q82,10.05,82,17Z"/><path class="cls-44" d="M478.82,62H421.88c-.45-2.71-1.75-5.52.95-7.85a11.89,11.89,0,0,1,3.85-.46c7.6-.2,8.39-1.4,5.95-9a11,11,0,0,0-4.41-1.21c-2.5-.52-6.71,1-6.66-3s4.2-2.61,6.73-2.79c5.24-.38,10.52.4,15.74-.47,6.19-1.11,6.73-2.19,4.6-9.16-6.17-1.37-12.4-.28-18.58-.63-2.42-.14-4.95.42-7.18-1a3.58,3.58,0,0,1-.43-4.23c1.38-1.44,3-1.43,4.77-.92,1.8,1.79,4,2.38,6.52,2.71,3.13.42,4-3.47,6.92-3a59.26,59.26,0,0,1,11.91-.07c2.53.63,5,1.74,7.66.33a6.74,6.74,0,0,1,3.7-.06,3.76,3.76,0,0,1,1.22.75c.59,1.9.87,3.31-2.09,3.34a10.08,10.08,0,0,0-6.61,2.17c-.1,3-1.18,6.13.82,9,2.29.63,4.67.09,7,.55,1.63.75,3.08-.39,4.64-.44,2.37.75,2.05,2.82,2,4.51-.32,6.06.48,11.23,8,12C478.83,56,478.83,59,478.82,62Z"/><path class="cls-33" d="M478.84,53h-2c-7.89,0-6.6.5-7.16-6.88-.22-3,1.74-6.71-1.82-9.11A4.33,4.33,0,0,1,466.56,33c.69-4.91-1.86-6-6.06-5.58-1.95.18-4,.17-5.62-1.31A13.86,13.86,0,0,1,463,24.37c2.66.33,1.53-1.33,1.86-2.3.62-1,1.8-1.44,2.5-2.38,2.06-3.57,1.17-7.39.86-11.11s.61-5.77,4.8-5c1.91.34,3.93-.51,5.79.5Q478.84,28.53,478.84,53Z"/><path class="cls-47" d="M477.86,64l1,1c0,3,0,6,0,9-3.9-.32-8.3,1.42-11.28-2.73a13.41,13.41,0,0,1-.8-1.17c-2.53-2.33-5-.88-7.46.14-.62.54-1.52,1.49-2.06,1.12-3.29-2.22-6.82-2.94-10.78-3.28-1.82-.16-.94-2.21.46-2.47-3.75-.6-6.92,2.15-10.47,3.82-.37.25-.74.51-1.1.78-2,2.36-4.12.57-6.21.17-2.21.05-4.67-.83-6.21,1.71-1.69,2.37-4.26,2.34-6.73,2.39-4,.08-7.95,0-11.93-.2-5.68-.23-5.87-.27-5.81-5.87,0-1.45-.42-3,.47-4.36l0,0c1.07-.67,2.26-.45,3.4-.45q36.11,0,72.21,0C475.62,63.53,476.81,63.29,477.86,64Z"/><path class="cls-48" d="M429.94,69c1.64.12,3.28,3,4.92,0,1.93,1.19,4.12,0,5.12.38-1-.2-3.17.64-5.11-.39a18.37,18.37,0,0,1,16-3.66c-1.07,1.56-3.24-.17-5,2.34,4.65-1,8.79-1.43,11.16,2.91L458.87,69h.77c2.72.43,5.66-1,8.21,1,2.41,4.74,7.6,1.88,11,4l-.95,1-79.95-.06c.55-3.62-1.15-7.45,1-10.92,0,8.81,0,8.91,8.48,9.85a44.18,44.18,0,0,0,9.41,0c2.26-.24,5.29-.2,5.11-3.92C424.47,68.72,427.39,70.36,429.94,69Z"/><path class="cls-44" d="M478.82,4.05c-9.05,0-9,0-9,9.22,0,2.74.56,5.66-2,7.77-2.67-2.74-.16-6.65-2.18-9.52-7.68-2.09-15.44-1-23.17-.75-2.58.34-2.26,2.3-2.35,4.09-.13,2.42.49,4.95-1,7.16-2.86.39-3.61-1.68-4.25-3.75a14.89,14.89,0,0,1-.3-3.95c-.19-6.3-.76-7-7.11-5.77a8.08,8.08,0,0,1-6-1.09c-4.22-2.36-8.89-2.22-13.55-1.91-1.63.1-4.07.52-2-2.5h72.92C478.81,3.38,478.82,3.71,478.82,4.05Z"/><path class="cls-35" d="M200,101c3,.7,1.9,3.15,1.9,4.9.08,18.07,0,36.15.09,54.22,0,1.75-1.1,4.21,2,4.84a5.08,5.08,0,0,1,2.65-1.26c22.89-.72,45.79-.22,68.69-.26a6.46,6.46,0,0,1,4.62,1.51l0,0c-1.67,1.68-3.78.92-5.69.93q-36.64.07-73.3,0c-1-1.62-1-3.44-1-5.28Q200,130.8,200,101Z"/><path class="cls-33" d="M268.94,69c2.9.14,5.87,0,8.7.52,1.79.35,2.23-.85,3.23-1.49l.09,2c.52,3.77-.85,5.11-4.9,5.08-23.7-.19-47.4-.08-71.1-.07-1.64-.34-3.57.69-4.93-1,1.58-1.6,3.82-1.11,5.69-1.78,3.74-.16,7.22-.82,9-4.65,0,.68-.14-.77.34-.3,0,0,.24-.15.37-.23-1.35-.46-3.75.67-3.48-2.27a18.63,18.63,0,0,1,5.25-.18c-1.67-.66-3.9.87-5.49-1,.32-1.88,2.79-2,3.12-3.9-.43-5.67-3.31-11-2.16-16.89.27-1.39-1.09-2.29-2.42-2.77-1.84-.66-3.14-1.78-3.23-3.9a2.72,2.72,0,0,1,1.25-2.38,14.81,14.81,0,0,1,5.29-.7c.66,0-.18.06.48,0a5.41,5.41,0,0,0-.59,0c-2-.76-6,1.95-5.49-3.1,1.74-1.58,3.73-.36,5.6-.44.66,0,.17-.5-.1-.31-1,.76-2.12-.25-3.23-.27-3.11-2.74.37-2.66,1.52-3.59a10.06,10.06,0,0,1,3.08-.22A10.21,10.21,0,0,0,209,26c-2.15.73-4-.87-3.35-2.21,1.8-3.8.23-7.82,1.49-11.54.28-.8.73-1.49,1.79-1.22h2a2.87,2.87,0,0,1,.43,1.4c.11,1.35.19,3,2.1,2.6s1.35-1.88.73-3.14a2,2,0,0,1-.28-1.86c1-6.42,6-4.93,10.09-5,3.11,0,6.08.11,6,4.52,0,1.3,1.17.59,1.89.47a14,14,0,0,1,0,13c-4,1.84-.72,4.67-1,7h0c-2,4.13-.34,8.45-.5,12.67-.07,1.66.42,3.52.47,5.3.69,1.71,1.3,3.45,1.93,5.19.64,2.9.32,5.85.42,8.78.06,1.68,0,3.4,2.35,3.57,3.31.42,6.75-.59,9.95.93A1.11,1.11,0,0,1,246,68h-6.8c4.81,1.49,19.36,1.26,22.75,0C264.59,66.09,267,66.23,268.94,69Z"/><path class="cls-46" d="M206,73c-1.73,1.81-4,.68-5.93,1l0-3c2-1.71,1.8-4.06,2-6.38.54-6.14-1.6-12.49,1.8-18.43,1.21-2.11-1.6-3.95-1.64-5.89-.21-11.28-.11-22.57,0-33.85,0-.91,1-1.23,1.84-1.37,1.48,2,1.42,4.32,1.46,6.63.1,6.09-.4,12.17,0,18.25.15,2.38.33,4.63,2.55,6.09.12,2,1.25,3.2,3.18,2.94,3.25-.45,3.35,3.35,3.21,3.73-2.35,5.92,1.32,10.86,2.28,16.21.05.32-.49.75-.75,1.13-1.57.66-3.66.63-3.93,3,2.4,2.41,6.06-.41,8.69,2h-8.72a2.11,2.11,0,0,1-1.22.64c-2.71-.24-2.33-2.36-2.4-4.1-.06-1.48.51-3,.15-4.45-.21-.88-.69-1.54-1.68-1.5a1.27,1.27,0,0,0-1.3,1.26c.22,5.17-1.58,10.37.19,15.52Z"/><path class="cls-49" d="M199,37h.95V53C197.89,47.77,199.47,42.34,199,37Z"/><path class="cls-50" d="M477.86,64l-79,0c0-.32,0-.64,0-1q36.9,0,73.81,0C474.44,63,476.4,62.35,477.86,64Z"/><path class="cls-39" d="M75,164.91c-21,0-42.08-.15-63.12.12-4.91.06-6.49-1.48-5.91-6.16a65.84,65.84,0,0,0,.06-8c.69.09,1.19-2.17,1.94-.28.52,1.29-.47,2.91,1,4.75V118.24h1c0,7.39-.1,14.79.05,22.19.07,3.19-.9,6.51,1.57,9.51,1.78,2.16-2.31,3.9-1.2,6.36,2.12.49,1.27-2.09,2.57-2.35,12.87-.11,25.74-.54,38.61-.36,6.41.08,12.8.4,19.18.59.48-.06,1,.6,1.45-.14a3.48,3.48,0,0,1-.25-1.11c3.29-8.67,1.49-17.79,3-26.72,0,3.9-.11,7.81,0,11.71.25,7.07-.8,14.2.89,21.24A7.48,7.48,0,0,1,75,164.91Z"/><path class="cls-51" d="M63,98.94c3-2.65,6-1.7,8.58.49,1.58,1.37,2.72,2.68,5.06,1.87,1.78-.62,2.32.61,2.34,2.15,0,1.32,0,2.64,0,4,0,8.4,0,8.4-8,9.55a.59.59,0,0,1-1,0c.09-4.8.11-9.6.31-14.4,0-1.17-.47-1.4-1.34-1.56C67.55,98.58,64.74,100.35,63,98.94Z"/><path class="cls-52" d="M70,116.91c.33,0,.66,0,1,0q0,18,0,36c.16,1.13-.37,1.38-1.35,1.08a3.15,3.15,0,0,1-1.57-1.81c-.78-3.28-.39-6.61-.47-9.92,0-.55,0-1.11,0-1.66.11-3.32-.39-6.66.57-9.92.73-.7,1-1.43.09-2.21a2.25,2.25,0,0,1-.3-.93c.37-5.11-1.44-8.12-7.12-7.57a2.68,2.68,0,0,1-1.76-.81A1.58,1.58,0,0,1,59,117h1A14,14,0,0,0,68,117Z"/><path class="cls-53" d="M70,153.92l1-1h1l1,1a1.19,1.19,0,0,1-1,1c-15.27,0-30.55.08-45.82,0-4.06,0-8,2.15-12.15.47a1.45,1.45,0,0,1-1-1.4l0,0a6.26,6.26,0,0,1,1.68-1c17-.82,34.05-.23,51.08-.32A8.64,8.64,0,0,1,70,153.92Z"/><path class="cls-54" d="M59,117v1.93l-.65.62a5.51,5.51,0,0,1-1.67.62c-9.67.34-19.34.5-29-.06a4.51,4.51,0,0,1-1.58-.75A1.68,1.68,0,0,1,26,117Z"/><path class="cls-52" d="M26,117l0,1.92a2.87,2.87,0,0,1-1.22.93,4,4,0,0,1-1,.25c-7.45.73-7.45.72-7.43,8.5,0,.53,0,1.05,0,1.58,0,1.9.13,3.84-1,5.54-3.69.56-.72-3-2.35-3.76,0-3.8,0-7.6,0-11.4,0-2.15-.09-3.76,3.22-3.21C19.39,117.88,22.75,117.17,26,117Z"/><path class="cls-55" d="M13.05,132c1.59.87.37,3.09,1.91,4,1.45,1.28,1.32,3,1.41,4.7,0,.55,0,1.11,0,1.67-.11,3.31.39,6.65-.54,9.92-.34.85-1.13,1.21-1.82,1.68H13Q13,142.93,13.05,132Z"/><path class="cls-56" d="M40.1,111.49c-1.8-1.67-1.58-3.48,0-5a2.73,2.73,0,0,1,3.68-.15c1.63,1.31,2.12,2.93.23,4.53a4.05,4.05,0,0,1-1-.66c-.61-.51-1.21-.69-1.79.06A4.36,4.36,0,0,1,40.1,111.49Z"/><path class="cls-57" d="M45.47,99.65c-2.24,1.13-4.5,1.89-7.27.49C40.72,98.12,43.13,99.14,45.47,99.65Z"/><path class="cls-58" d="M40.1,111.49,40,110a2.74,2.74,0,0,1,4,0q0,.41,0,.81C42.92,112.46,41.85,114,40.1,111.49Z"/><path class="cls-59" d="M63,98.94c1.74,0,3.47,0,5.2,0s1.06,1.1.77,2c-2.06-.38-4.13-.76-6.19-1.16-.06,0-.11-.32-.07-.46S62.9,99.07,63,98.94Z"/><path class="cls-60" d="M21.06,99.56a10.48,10.48,0,0,1-7.42.31A10.09,10.09,0,0,1,21.06,99.56Z"/><path class="cls-61" d="M27,99.88a5.57,5.57,0,0,1,6.14.3Z"/><path class="cls-62" d="M57,99.82l-6,.48-.12-.83h6Z"/><path class="cls-63" d="M68,117A7.64,7.64,0,0,1,60,117Z"/><path class="cls-64" d="M6,17l75,0a2.05,2.05,0,0,1-1,2c-1-.76-2.24-.5-3.38-.5q-33.63,0-67.26,0C8.24,18.53,7,18.27,6,19H4C2.62,16.31,5.05,17.38,6,17Z"/><path class="cls-65" d="M6,37V69c-1.64-1.47-1-3.42-1-5.16C5,49.24,5,34.64,5,20c.69,1.31,4.23-.24,3,3A29.57,29.57,0,0,1,6,37Z"/><path class="cls-61" d="M34,51l4,0a1.39,1.39,0,0,1,.11,1.38c-1.76,2.24-1.74,4.87-1.84,7.55-.13,3.36,1.08,4.78,4.6,4.77,6.11,0,7-.78,6.83-6.76a10,10,0,0,0-1.84-5.57A1.33,1.33,0,0,1,46,51.05c2.89-.43,4.22.6,4.07,3.73C49.88,58.85,50,63,50,67c-4.66.39-9.45-1-14,1a2.28,2.28,0,0,1-2.09-1A59.05,59.05,0,0,1,34,51Z"/><path class="cls-65" d="M4,20V68c-1.61-1.09-1-2.4-1-3.47Q3,44.59,3.05,24.7c0-1.59-.55-3.37,1-4.66Z"/><path class="cls-66" d="M70,51c2.16,5.2.47,10.65,1,16H70c-.61-.46-1.36-.77-1.72-1.51-1.33-3.84.23-8.06-1.53-11.85a2.89,2.89,0,0,1-.07-1.46C67.51,51,69.1,52,70,51Z"/><path class="cls-67" d="M29,51.07c1.93,2.34,1.17,5.17.83,7.61A27.25,27.25,0,0,0,30,67L27,67a2.36,2.36,0,0,1-.53-1.44c.35-3.84,0-7.7.34-11.55a5.27,5.27,0,0,1,.42-1.49A4.18,4.18,0,0,1,29,51.07Z"/><path class="cls-68" d="M68.94,66,70,67c-3.67.35-7.46-.77-11,1H57a1.64,1.64,0,0,1,.27-2.45C61.23,64.17,65.14,63.74,68.94,66Z"/><path class="cls-69" d="M27,66c0,.33,0,.66,0,1l-1,.93v0c-3.94-1.31-8.08.23-12-.83-.38-1.18.43-1.62,1.25-2.06C19.25,64.48,23.27,63.53,27,66Z"/><path class="cls-36" d="M112,106c-3.47,1-3.07,3.79-3,6.44.06,2.29-.13,4.41-3.2,4.51-3.59.12-2.73-2.56-2.77-4.54-.09-3.8,0-7.6,0-11.4C107.12,100.6,111,100.65,112,106Z"/><path class="cls-70" d="M112,132.94c.56-4-1.07-8.15,1-12,1.66-1.07,3.33-1.39,5,0,11,.11,10.83.12,11.11,11.31.11,4.56-1.18,6.38-5.79,5.75a24.79,24.79,0,0,0-6.44,0C112.8,138.52,111.46,136.7,112,132.94Z"/><path class="cls-71" d="M161.81,117c-1.5,0-3-.09-4.49,0-2.69.21-3.61-1.1-3.37-3.58a8.34,8.34,0,0,0,0-1c-.26-13,.41-14,13-11.57,6.4,1.25,1.91,7.54,3,11.41.55,2,.77,5-3.06,4.73C165.15,116.87,163.48,117,161.81,117Z"/><path class="cls-72" d="M133,143.93l0-2c4.86-2.49,9.94-1.51,15-.94,1.63,2,2.89,14.26,1.61,16-.81,1.11-2,.94-3.18.94-4.14,0-8.29,0-12.43,0a1.42,1.42,0,0,1,.61-2.38,53.09,53.09,0,0,1,5.91.16c5.84,0,7.81-2.77,6.08-8.42-.61-2-2.09-2.35-3.77-2.58-2.63-.35-5.27.15-7.91,0A2.58,2.58,0,0,1,133,143.93Z"/><path class="cls-73" d="M170,148.92c-.16,9-.16,9-9.34,9-6.73,0-6.73,0-6.75-6.61q0-4.71,0-9.42H170a8.72,8.72,0,0,1,0,6Z"/><path class="cls-74" d="M148,141c-4.9,2-10,.42-15,.94-.67-2.58,1.82-2.79,3-4,3.87-2.6,8.24-.81,12.34-1.43a3.45,3.45,0,0,1,1.63.37C151.6,139.36,148.67,139.63,148,141Z"/><path class="cls-75" d="M149,137c-4.21,2.12-8.71.39-13,1-6.63-2.69-1.56-8.23-2.87-12.26-.59-1.83-1.08-5,2.87-4.7a3.16,3.16,0,0,1,.74,2.23c-.05.66.05-.18,0,.48-1,10.08-1,10.08,8.84,11a7.07,7.07,0,0,1,1.92.45A3.44,3.44,0,0,1,149,137Z"/><path class="cls-76" d="M128,157.92c-4.73-.2-10.72,2-13.87-.83s-.71-9-1.14-13.69c0-.49,0-1,0-1.48,5.35.55,10.83-1.13,16.07,1,0,.33,0,.66,0,1a3.24,3.24,0,0,1-2.23.76c-1.64-.11-3.28-.34-5-.36-6-.07-6.45.51-6.45,6.44,0,3.33,1.09,5,4.59,4.8a18.75,18.75,0,0,1,6.91.5C127.59,156.45,128.22,156.92,128,157.92Z"/><path class="cls-36" d="M118,120.92l-5,0,2-5c0-1.41,1.34-3.17-1-4-2.08-1.53-3-3.44-2-6,1.65,1.34,3.89,1.94,5,4a1.38,1.38,0,0,1,0,2v2a1.37,1.37,0,0,1,0,2C115.77,117.93,118.82,119,118,120.92Z"/><path class="cls-77" d="M136,116.91c-1.34,0-3,.09-2.91-1.81.24-4.72-1.18-9.55.89-14.15.58.48,1.34.76,1.7,1.49,1.43,4.18-.6,9,2.53,12.89C138.21,116.88,136.54,116.1,136,116.91Z"/><path class="cls-78" d="M154,121.94a26.79,26.79,0,0,1,16,0,5.9,5.9,0,0,1-2.64,1.93,29.66,29.66,0,0,1-10.71,0A5.92,5.92,0,0,1,154,121.94Z"/><path class="cls-79" d="M170,136.94a27,27,0,0,1-16,0,6,6,0,0,1,2.64-1.93,29.71,29.71,0,0,1,10.72,0A5.94,5.94,0,0,1,170,136.94Z"/><path class="cls-80" d="M149,137l-1.07-1.08c-2.41-4-1.44-8.29-.95-12.52.4-.87.85-1.67,2-1.47,2.19,4.88-.23,10,.94,15Z"/><path class="cls-81" d="M133,143.93h1.92a11,11,0,0,1,0,12,2.12,2.12,0,0,0-.94,2C131.88,153.38,133.46,148.59,133,143.93Z"/><path class="cls-82" d="M148,101c2.48,5.32,3.11,10.64,0,16a6.72,6.72,0,0,1-.95-1.47,39,39,0,0,1,0-13A7.54,7.54,0,0,1,148,101Z"/><path class="cls-79" d="M149,121.9,147.93,123c-4,2.1-8,2.28-12-.1V121C140.31,121.45,144.79,119.84,149,121.9Z"/><path class="cls-83" d="M117,112c0-.68,0-1.36,0-2h11.36l0,1.45C124.63,112.56,120.75,111.67,117,112Z"/><path class="cls-84" d="M117,116v-2c3.78.29,7.65-.6,12.7,1C124.63,116.56,120.75,115.66,117,116Z"/><path class="cls-67" d="M170,136.94a2,2,0,0,1-2-1c-.74-4.34-.26-8.68,0-13a2,2,0,0,1,2-1Q170,129.45,170,136.94Z"/><path class="cls-85" d="M156,136a2.05,2.05,0,0,1-2,1q0-7.5,0-15a2.08,2.08,0,0,1,2,1A44.59,44.59,0,0,1,156,136Z"/><path class="cls-86" d="M147.92,115.84l.06,1.08H136a2.15,2.15,0,0,1,2-1C141.28,112.83,144.6,114,147.92,115.84Z"/><path class="cls-87" d="M117.26,106.36h10.93l0,.62h-11Z"/><path class="cls-88" d="M148,101l0,1.08A13.49,13.49,0,0,1,135,102c-.35-.35-.7-.69-1-1Z"/><path class="cls-89" d="M127.76,102.88H117.69A14.14,14.14,0,0,1,127.76,102.88Z"/><path class="cls-34" d="M170,147.89c0-2,0-4,0-6C172.68,143.89,170.69,145.9,170,147.89Z"/><path class="cls-78" d="M127,143.92H129c-.45,4.66,1.14,9.46-1,14l-1-1A13.21,13.21,0,0,1,127,143.92Z"/><path class="cls-32" d="M114,112c.66.2,1.51-2.59,1.94,0,.21,1.31.49,2.91-.94,4A6.72,6.72,0,0,1,114,112Z"/><path class="cls-90" d="M430.86,104.9l31,.06a1,1,0,0,1-.27,1.46c-1.81,1-3.8.85-5.76.91l-1.66,0c-4.09.08-8.19,0-12.29,0-8.45,0-8.45,0-8.61,8.2v2.54c.06,3.45.06,6.89,0,10.34,0,.57,0,1.15,0,1.72,0,3.41,0,6.83,0,10.24,0,.54,0,1.08,0,1.63,0,.32,0,.64,0,1-.06,9.83-.77,8.44,8.58,8.51.85,0,1.7,0,2.55-.06,5.68.3,11.43-.91,17,.87a1.11,1.11,0,0,1,.43,1.56c-9.31,0-18.62,0-27.93.05-2.35,0-3.26-.23-3.21-3.19C431,135.49,430.86,120.19,430.86,104.9Z"/><path class="cls-91" d="M461.86,105.94c0-.32,0-.65,0-1,5-1,6.1,1.43,6,5.9-.18,14.35-.08,28.7-.08,43h-6c0-.33,0-.66,0-1,3.83-2.92,2.4-7.11,2.63-10.91,0-.54,0-1.07,0-1.61,0-3.35-.05-6.7,0-10.05,0-.56,0-1.12,0-1.69-.05-3.36,0-6.73,0-10.09,0-.53,0-1.06,0-1.59C464.28,113.15,465.66,108.94,461.86,105.94Z"/><path class="cls-92" d="M418.87,108.43c-.06,2.17-.87,3.31-2.61,3.43-2.38.15-3.13-1.58-3.2-3.47s1.44-2.63,2.92-2.74C418.08,105.49,418.46,107.3,418.87,108.43Z"/><path class="cls-93" d="M421.2,121.76c-3.55,1.58-7.09,1.21-10.64.35C414.07,120.38,417.64,121.11,421.2,121.76Z"/><path class="cls-94" d="M410.55,126c3.51-1.51,7.07-1.16,10.65-.1A14.87,14.87,0,0,1,410.55,126Z"/><path class="cls-95" d="M410.48,118c3.58-1.41,7.24-1,10.94-.16C417.87,119.2,414.2,118.88,410.48,118Z"/><path class="cls-96" d="M421.75,130.49H410.52C414.13,128.13,417.51,129.35,421.75,130.49Z"/><path class="cls-97" d="M417.8,151.77c.05,1.14-.4,1.94-1.61,2-1.37.12-2.22-.48-2.18-2a1.9,1.9,0,0,1,3.79-.08Z"/><path class="cls-20" d="M410.92,134.39a24.67,24.67,0,0,1,10,.07A24.67,24.67,0,0,1,410.92,134.39Z"/><path class="cls-39" d="M279.92,164.9H206c.59-4.49.21-9.08,1.38-13.52,1.38-2.06,1.22-4.4,1.22-6.71,0-10.9-.05-21.81.05-32.71,0-2.18-.65-4.74,2-6.15,2.07.62,4.74-1.07,6.17.41,1.89,1.94-1.4,3.63-1.42,5.74a20.25,20.25,0,0,1-.32,3.46,4.85,4.85,0,0,1-.5,1.41,5.81,5.81,0,0,1-1,1.14,4.08,4.08,0,0,0-.93,1.18c-.65,10.27-.1,20.55-.28,30.81-.06,2.94,1.49,3.62,4,3.6,7,0,13.93.12,20.89-.06,6.47-.16,12.84,1.09,19.27,1.05A45,45,0,0,0,267.45,153a23.63,23.63,0,0,0,.12-4.37c-.22-3.12.53-6.3-.56-9.35-3.89-2-8.09-.43-12.09-1.08-3.54-.57-3.88-1.44-1.78-4.62,4.72-1.67,9.74-.84,14.55-1.78,1.7-3.31.67-6.84.84-10.25.16-3.16.9-5.56,4.49-6,2.73-.37,3.36-2.3,3.43-4.66a44.75,44.75,0,0,1,.26-7c.31-1.68.41-3.87,3.22-2.92Q279.93,132.94,279.92,164.9Z"/><path class="cls-29" d="M279.93,101c-2.09.24-2,1.8-2,3.31,0,2.64-.11,5.28,0,7.9.18,3.25-.93,5.13-4.47,4.77-2.92-.3-3.71,1.18-3.59,3.82.15,3.12.06,6.25,0,9.38,0,1.57.45,3.47-2,3.78-.85-3.38-.05-6.82-.34-10.22-.14-1.72.57-3.65-1.15-5-4.19-.8-8.4-.23-12.6-.34-1.88-.12-3.52,1.5-5.48.77-4-1.56-8.21-.52-12.31-.8-2.14-.15-4.33.24-6.39-.61-2.27-4.81-1.81-7.74,1.74-11.34-.58-3.41-3.36-1-4.79-2,1.47.84,4.25-1,4.65,2.31-.65,1.15-1.89,1.23-3,1.58C223,110,217.34,110.81,214,116c-.08-3.26-.35-6.57,2.84-8.85-1.94-1-3.33,1.9-4.84-.14.06-.21.11-.43.15-.64.46-.91,1.22-1.81.13-2.8-.1-.18-.19-.37-.29-.56,3.68-1.43,3.2-3.57,1-6,7.5,1.13,15,.41,22.55.52,12.92.19,25.85-.09,38.77,0C276.63,97.5,280,96.62,279.93,101Z"/><path class="cls-98" d="M208,151.92c-.76,4.32,1.85,9.15-2,13h-2q0-29.35,0-58.72c0-1.59-.67-3.87,1.22-4.44,2.18-.66,2.94,1.6,3.76,3.21-.22,12.59.7,25.17.48,37.76C209.38,145.85,209.43,149,208,151.92Z"/><path class="cls-29" d="M208,151.92c2.23-13.93,0-27.87,0-41.8,0-1.74-.67-3.69,1-5.16l3-2,.05,0a3,3,0,0,1,0,3.85L212,107c-3.49-.88-1.91,2-1.92,3-.12,12.1-.06,24.2-.09,36.3C209.94,148.36,210.53,150.72,208,151.92Z"/><path class="cls-99" d="M339.76,26c8.16,0,8.16,0,8.16,9.71,0,7.27,0,7.38-9.95,7.19-2.83-.05-7.1,1.87-6.92-4.11C331.42,26,331.29,26,339.76,26Z"/><path class="cls-77" d="M352.91,26c3.49,0,7,0,10.46,0,1,0,2.23-.32,2.95.15,5.26,3.43,1.56,8.71,2.47,13.08.56,2.71-1.28,3.83-3.93,3.74s-5.32,0-8-.07c-.68-.73-3.29-.3-1.52-2.52a8.7,8.7,0,0,1,4.86-.75c3.77.27,5.38-1.12,5.37-5.13s-1.63-5.36-5.4-5.13a14.74,14.74,0,0,1-6.42-.59C352.69,28.13,352.07,27.31,352.91,26Z"/><path class="cls-100" d="M347.9,63c-5.65-.51-11.42,1.24-17-1,0-4.08,0-8.16,0-12.24,0-1.86,0-3.94,3-2.75a2.5,2.5,0,0,1,.55,1.44c0,2-.18,3.93-.19,5.9,0,3.31,0,6.34,4.69,6.3,4.47,0,5.3-.8,5.6-5.94.12-2.06-.43-4.33,1.58-5.91,2.51,1.49.86,3.87,1.22,5.82s-.45,4.29.5,6.35C347.87,61.64,347.89,62.32,347.9,63Z"/><path class="cls-101" d="M355.91,63l-4,.06c0-4.66-.25-9.34.12-14,.24-3,2.67-2.73,4.89-2a1.18,1.18,0,0,1,.05,1.32c-3.07,4.28-2,8.78-.71,13.29A1.6,1.6,0,0,1,355.91,63Z"/><path class="cls-102" d="M317.26,17c-2.23-.05-3.19-1.1-3.33-3.06-.16-2.29,1.06-3.54,3.14-3.49,1.8,0,2.94,1.23,2.86,3.28S319,16.79,317.26,17Z"/><path class="cls-103" d="M354.91,41l2,1.9c-3.47.49-5.41-.77-5-4.52.48-4.11-1.15-8.4,1-12.37a2,2,0,0,0,1,2C356.32,32.2,355.41,36.63,354.91,41Z"/><path class="cls-104" d="M368.89,53c0,2.42-.08,4.84,0,7.26.06,2.16-1,2.87-3,2.71a2.64,2.64,0,0,1-.66-1.4,75.53,75.53,0,0,0,.12-13.11A2.37,2.37,0,0,1,365.9,47C370.52,47.21,368.2,50.86,368.89,53Z"/><path class="cls-105" d="M347.86,61c-1.82-2.1-.61-4.63-.94-6.94-.25-1.69.57-3.57-.95-5-4.08.46-8.21,1.4-12.06-1V47c3.13-.14,6.25-.25,9.37-.44s5,.86,4.68,4.49C347.71,54.35,347.88,57.67,347.86,61Z"/><path class="cls-60" d="M323,62c0,.34,0,.68,0,1H311.78C315.44,60.83,319.21,61.63,323,62Z"/><path class="cls-106" d="M322.31,26.92c-2.19,1.64-4.46.91-7.91,1C317.61,25.17,320,26.11,322.31,26.92Z"/><path class="cls-107" d="M315.6,35.22c2.22-1.61,4.45-1.13,8.13-.87C320.16,36.76,317.85,35.75,315.6,35.22Z"/><path class="cls-101" d="M315.54,31c2.25-1.17,4.5-1.3,7.67-.1C320.1,32.49,317.84,32.23,315.54,31Z"/><path class="cls-85" d="M316.77,58.71c-1.07-.28-1.72-1-1.46-2.07a1.52,1.52,0,0,1,1.77-1.26,1.59,1.59,0,0,1,1.47,2A1.69,1.69,0,0,1,316.77,58.71Z"/><path class="cls-60" d="M314.22,47h7.53C319.68,47.57,317.63,49.1,314.22,47Z"/><path class="cls-108" d="M314.55,43.8c3.36-2.4,5.27.16,7.34,0Z"/><path class="cls-109" d="M367.67,13.88H361v-.52h6.71Z"/><path class="cls-110" d="M365.9,47v1a7.24,7.24,0,0,1-9,0c0-.32,0-.64,0-1Z"/><path class="cls-111" d="M345.89,13.64a15.58,15.58,0,0,1,8-.17A15.8,15.8,0,0,1,345.89,13.64Z"/><path class="cls-85" d="M317,39.18l5-.5C320.54,40.62,318.71,39.66,317,39.18Z"/><path class="cls-112" d="M311.13,46.61c.92,0,1.37.46,1.44,1.1,0,.29-.63.95-.71.92a4.31,4.31,0,0,1-1.36-1.06C310.42,47.47,310.94,46.89,311.13,46.61Z"/><path class="cls-113" d="M332.2,13.64a5.66,5.66,0,0,1,5.29-.14C335.71,14.56,334.07,14.33,332.2,13.64Z"/><path class="cls-114" d="M365.9,62v1h-10V62A8.73,8.73,0,0,1,365.9,62Z"/><path class="cls-115" d="M149.92,47c3,.3,2.92-1.64,3.11-3.81.37-4.38-1.24-8.91.93-13.16a8,8,0,0,1,.93,1.39C156,36.55,154.54,41.88,156,47c3.4,2.33,7.41,0,10.95,2H158l0,1c3.42,0,6.85-.06,10.27,0,1,0,3.17-.46,1.76,2-3,.7-6,.31-8.94.37-5.61.1-5.67.12-5.73,5.47-.1,7.73-.1,7.69,7.48,7.79,2.44,0,5-.53,7.14,1.38,0,.66,0,1.32,0,2-4-1.79-8.18-1-12.27-.72-3.62.27-6.37.57-4.87-4.73.79-2.77.06-5.95.17-8.94s-1.79-1.53-3-1.59c-5.11-1.43-10.42,0-15.56-1.06A6.47,6.47,0,0,1,133,51,3.45,3.45,0,0,0,133,47,23,23,0,0,1,149.92,47Z"/><path class="cls-116" d="M134,9.05c3.47.15,7.06.94,10.38.3,4.91-.95,5.36,2,5.54,5.23.2,3.8,0,7.62,0,11.44-4.31,0-8.63-.12-12.93.06-2.95.13-4.44-.82-4-3.93C133.55,17.8,131.77,13.28,134,9.05Z"/><path class="cls-117" d="M149.92,47H133c0-.32,0-.64,0-1,3.92-2.58,8.35-.81,12.49-1.47,3.8-3.16,2.4-6.77.88-10.37-3.62-1.81-7.88.38-11.42-1.85a1.67,1.67,0,0,1,0-2.27L145,30c3.61-.42,5.44.69,5.06,4.8S149.93,42.92,149.92,47Z"/><path class="cls-101" d="M135,30.05v2c1.72,1.94,1.49,4.35,1.38,6.62-.16,3.64,1.42,5.15,5,5a8.86,8.86,0,0,1,5.31.93A1,1,0,0,1,147,46H133c0-4.07-.05-8.15,0-12.22C133,32.23,132.53,30.34,135,30.05Z"/><path class="cls-118" d="M134,51c4.07,0,8.14,0,12.21,0,1.57,0,3.44-.44,3.75,2-.45,2.65.91,5.52-.94,8a1,1,0,0,1-1.41-.16c-2.22-7-2.22-7-11.63-7.72C135,52.77,133.76,52.58,134,51Z"/><path class="cls-119" d="M134,51a2.18,2.18,0,0,0,2,1,39.48,39.48,0,0,1-.23,13.28c-.34.86-1.17,1.19-1.83,1.7-2.09-5.22-.47-10.66-1-16Z"/><path class="cls-120" d="M134,67,135,66c1.62-1.46,3.66-1.5,5.59-1.32A7.29,7.29,0,0,0,148,61l1,0c1.37,4.75,0,6.84-5.28,6.08C140.54,66.64,137.23,67,134,67Z"/><path class="cls-121" d="M113,13.12c0,2-.34,3.68-2.47,3.71a2.93,2.93,0,0,1-3.17-3,3.5,3.5,0,0,1,3.15-3.31C112.56,10.17,112.85,11.76,113,13.12Z"/><path class="cls-122" d="M114.88,25.56a18.87,18.87,0,0,1-8.81,0C109.24,23.61,111.66,23.62,114.88,25.56Z"/><path class="cls-123" d="M114.13,29.73h-8.26C109.13,27.35,111.66,29.12,114.13,29.73Z"/><path class="cls-124" d="M111.84,46.86c-.23,1-.76,1.87-1.92,1.77a1.55,1.55,0,0,1-1.52-2,1.91,1.91,0,0,1,2.18-1.49A1.37,1.37,0,0,1,111.84,46.86Z"/><path class="cls-123" d="M106.89,32.71h7.21C111.74,34.47,109.31,34.07,106.89,32.71Z"/><path class="cls-85" d="M113.82,37.86h-6.63l0-.52h6.63Z"/><path class="cls-77" d="M170,17.72c-.13,9.5,1.21,8.28-8.07,8.29s-7.89,1.19-8-8.39c-.06-8.57,0-8.57,8.31-8.54C170,9.1,170,9.1,170,17.72Z"/><path class="cls-125" d="M170,67c-4.13,0-8.25-.14-12.37,0-2.84.11-3.93-1.06-3.66-3.78,0-.32,0-.66,0-1,.54-3.65-1.9-9.25,1.25-10.57A20,20,0,0,1,170,52Q170,59.51,170,67Z"/><path class="cls-126" d="M154,31c0-.34,0-.67,0-1,5.32.55,10.78-1.12,16,1-.48.7-.84,1.5-1.71,1.82a30.94,30.94,0,0,1-12.57,0C154.82,32.52,154.46,31.71,154,31Z"/><path class="cls-127" d="M168,46.9H156.93c-1.1-.75-1.81-1.55-.3-2.61,3.73-1,7.45-1.22,11.13.26A1.61,1.61,0,0,1,168,46.9Z"/><path class="cls-61" d="M156,45.09l1,1.82a7.79,7.79,0,0,1-1,.09c-2.4-.32-2-2.17-2-3.75,0-4.07,0-8.15,0-12.22l1,1C157.41,36.24,156.46,40.68,156,45.09Z"/><path class="cls-61" d="M168,46.9V45.07c-.49-4.39-1.42-8.8,1-13,.34-.35.69-.7,1-1.06,0,4.07,0,8.13,0,12.19C169.94,44.73,170.51,46.68,168,46.9Z"/><path class="cls-37" d="M405.89,3.05c-.21.88-1,1.86,1,1.58,5.94-.82,11.82-1.45,17,3,1.92,1.67,4.38-.63,7-.19,3.91.67,4.83.18,5,4.26.14,3.68-1,7.75,3,10.29a.59.59,0,0,1,1,0c-2.67,2.16-5.52,3.49-9.15,3.06-2.11-.26-3-1-2.85-3,6.36-3,6.36-3,5.18-10.65-3.14-.88-6.28-1.88-9.33.2a26.11,26.11,0,0,0-.32,7.84,10.54,10.54,0,0,1-.53,2.6v4a3.79,3.79,0,0,1-1,3.48,5.51,5.51,0,0,0-2.88,4.2c-.53,3.26-2.27,4.53-5.48,2.87-2.21-2.05-5.49-.47-7.76-2.29a2.21,2.21,0,0,1-.26-2.08c.88-1.24,2.18-1.15,3.68-1.09-1.34-.21-2.61,0-3.53-1a2.18,2.18,0,0,1-.15-2c1.05-1.44,2.56-1,3.68-1.11-.65-.21-1.66,0-2.63-.17-3.29-1.29-1.84,1.29-2.05,2.53-.07.54-.13,1.06-.16,1.6-.14,8.29,0,16.57-.07,24.84,0,2.13.24,4.35-1.38,6.13-1.64-1.47-1-3.42-1-5.17q-.07-22.66,0-45.33c0-2.83.32-5.7-2.19-8.45Z"/><path class="cls-33" d="M402.89,62c0-9.27,0-18.55,0-27.82,0-1.74-.67-3.69,1-5.15,1.1,9.83.15,19.67.56,29.51-.46-9.84.64-19.68-.56-29.51-.56-1.3-1.73-2.77-.61-4,.91-1,1.94.16,2.63,1.05a1.1,1.1,0,0,1,.1,1.66L405.89,30a1.32,1.32,0,0,1,0,2v2c2.29,2.15,5.69-.16,8,2,3,1,4.37-.1,4-3.22s1.15-4.12,4-3.77c2.58,1.84-.2,5.85,3,7.42,4.82.4,9.63,0,14.43.2,1.95.06,4.05-.3,5.55,1.48-5.3,1.93-10.79.41-16.17.87-1.32.12-2.66,0-4,0-1.12.05-2.63-.12-2.51,1.58S423.84,42,425,42c1.65.06,3.31,0,5,0,0,2.13-1.74,1.85-3,2.17s-2.58-.06-3.39,1.24c-.75,2.71.13,5.56-.76,8.24a6.39,6.39,0,0,1-.88,1.29,11,11,0,0,1,0,7Z"/><path class="cls-128" d="M208,36c-3.12,1.06-4.08-.23-4-3.3.11-9.22,0-18.45,0-27.67,2.37,1.41,7.11.85,5,6-1.88,2-.35,4.55-1.09,6.64-.63,1.76,2.44,4.67-1.61,5.32.27,1.6.65,3,2.81,2,1.09.08,2.29-.07,2.89,1.21l-2.2,1.34,1.23.47c.55,1.87-1.51,1.1-2,2-1.07,1-.77,1.79.57,1.92,1.78.18,3.6.09,5.4.12-1.18,3.08-4.28.42-6,2A2,2,0,0,0,208,36Z"/><path class="cls-77" d="M269,23c.26,3-1.69,3-3.85,3-7.63,0-15.26,0-22.89,0a45.14,45.14,0,0,0-6.36.69c-1.39.2-4.13.35-3.92-2.7a5.29,5.29,0,0,1,2.46-1.22c10.94-.6,21.9-.09,32.84-.33A3.13,3.13,0,0,1,269,23Z"/><path class="cls-78" d="M234,24h-2c0-.33,0-.66,0-1q0-6.5,0-13c.82-1.07,2-1,3.16-1h30.68c1.15,0,2.34-.1,3.15,1a4.41,4.41,0,0,1-2.7,1.63,5.33,5.33,0,0,1-1.64-.12c-7.92-.28-15.84-.06-23.76-.12a6.12,6.12,0,0,0-3.79.83c-1.82,1.37-1.61,3.39-1.7,5.31C235.24,19.8,235.64,22.14,234,24Z"/><path class="cls-81" d="M237,30.06c13.83.11,11.68-2,12,12.2.09,3.79-1.54,5-5.08,4.78-3-.19-6-.07-9-.09a1.67,1.67,0,0,1,0-2.22c1.24-.95,2.71-1,4.18-1.08,6.54-.45,6.69-.63,6.39-7.2a6.89,6.89,0,0,0-.56-2.84c-1.11-1.7-2.91-1-4.43-1.32S237.09,32.51,237,30.06Z"/><path class="cls-129" d="M269.94,37c2.92-.36,4.28.74,4,3.86a67.33,67.33,0,0,0,0,7.91c.11,2.87-1,4.42-4,4.22A20.07,20.07,0,0,1,269.94,37Z"/><path class="cls-130" d="M268.94,69c-2.19-1.38-4.63-.93-7-1h-4.48c-6.5,0-6.09,0-5.65-6.4.49-7.1.08-14.25.16-21.38,0-1.75-.63-3.68.89-5.2,1.88,1.69,1.43,4,1.45,6.08.08,6.49.12,13,0,19.47-.07,3.59,1.29,5.12,5,5.1,3.23,0,6.71-1,9.65,1.36C268.94,67.68,268.94,68.34,268.94,69Z"/><path class="cls-61" d="M269,67c-4,0-7.94-.2-11.89,0-3.36.2-4.22-1.19-4.18-4.32.14-9.24,0-18.49,0-27.73,0-1.33.06-2.65.1-4,1.12-.24,1.52.54,1.91,1.33,1.11,7.76.37,15.57.49,23.36.14,9.45,3,11.27,11.93,7.26a1.49,1.49,0,0,1,1.6,0Z"/><path class="cls-131" d="M235,45.07V47c-3,.36-2.91-1.63-3-3.75-.27-4.39,1-8.89-.94-13.16h6c2.93,2.55,7-.67,9.94,2-1.78,1.54-4,1.28-6.07,1.36-5.15.22-5.39.47-5.46,5.78C235.35,41.18,235.56,43.15,235,45.07Z"/><path class="cls-130" d="M231.92,53c-1.62-1.41-.73-3.31-1-5a23.42,23.42,0,0,0,14,1.26l-7-.5,0-.54h12.57c-.93,1.54-4.41,1.13-2.61,3.8-.95.6-2,.37-3,.35q-5.2-.12-10.39,0A13.33,13.33,0,0,0,231.92,53Z"/><path class="cls-132" d="M214,10.05c1.16,1.58,3.86,2.6,2.13,5.24a3,3,0,0,1-4.27,1.16C209,15,210,13,211,11.05Z"/><path class="cls-133" d="M245.94,51l2,1c1.93,4.27.71,8.77.9,13.17C248.91,67,247.7,67.83,246,68c0-.32,0-.65-.05-1a2.31,2.31,0,0,1-.53-1.43,75.64,75.64,0,0,0-.14-13.12A2.74,2.74,0,0,1,245.94,51Z"/><path class="cls-134" d="M254,32.11c-.35-.36-.7-.71-1-1.07,5.2-2.14,10.65-.49,16-1a1.15,1.15,0,0,1,.21,1.38c-.54,1.31.36,3.29-1.8,3.83a14.3,14.3,0,0,0-8.12-1.89C257.39,33.45,255.51,33.44,254,32.11Z"/><path class="cls-135" d="M268.91,31.05c0-.34,0-.68,0-1,2,2.09.61,4.66,1,7V53c-.43,3,.94,6.17-.94,9-2.37-2.7-1.11-6-1.47-9,.09-5.24-.11-10.48.12-15.72C268.52,35.29,268.15,33.05,268.91,31.05Z"/><path class="cls-136" d="M266.94,11a2,2,0,0,1,2-1q0,6.5,0,13h-1C265.57,19.2,266.48,15.1,266.94,11Z"/><path class="cls-137" d="M268.9,53q0,4.5.1,9c0,.33-.07.65-.11,1h-.95c-2.18-3.06-1.64-6.28-.58-9.54A1.1,1.1,0,0,1,268.9,53Z"/><path class="cls-29" d="M309.92,96c0,2.75,2.16,1.51,3.29,1.52q27,.11,54.09,0a13.44,13.44,0,0,1,5.36.55c3.31,1.38,5.48,3,5.39,7.5-.37,18.31-.2,36.62-.1,54.94,0,3-.52,4.93-4.05,4.41-.44-2.65,1-5.53-1-8a3.55,3.55,0,0,1-.81-3.23c.49-3.2-1.57-3.32-3.78-3.38a73.76,73.76,0,0,0-8.14-.33,21.22,21.22,0,0,1-4,.34c-1-.29-1.89-.86-3-.57-1.45.2-1.43,2.66-3.32,2.17l-1.92-2c-2.08-2-1.38-4.6-1.44-7-.11-4.43,0-8.86-.05-13.29,0-.59,0-1.19,0-1.79,0-10.82,1-9.41-9.54-9.51-4.3,0-8.6,0-12.9,0-4.71-.27-9.44.47-14.13-.39-8.13-3-8-3-8.08-12.72,0-2.52,1.32-4.77.78-7.35-.33-1.55,1.12-1.82,2.31-1.88C306.59,95.93,308.26,96,309.92,96Z"/><path class="cls-12" d="M309.92,118c4.55-2,9.33-.59,14-1a1.57,1.57,0,0,1,0,2.11,3.43,3.43,0,0,1-1.28.77c-2.74.81-5.7-.23-8.37,1-2,2.26-1,4.87-.82,7.37,0,.24.06.47.1.71a8,8,0,0,1-.05,1.47,16.38,16.38,0,0,0-.2,2.32c.06,5.31-.18,10.61.19,15.9.56,2.57,2.58,2.74,4.63,2.75,9.11,0,18.22.42,27.33-.17a2.94,2.94,0,0,1,2.42.67c-.52,3.15-3.64,2.69-5.11,2.51-9.42-1.15-18.84-.29-28.25-.4-3.36,0-3.83-1-3.72-4.14.32-9.05.1-18.11.14-27.16A9,9,0,0,0,309.92,118Z"/><path class="cls-65" d="M368.84,149c6.06.26,4.3,4.5,4.06,8-3.95.14-7.72-2-11.78-1-.23.06-.79-1.31-1.2-2,1.29-.86,2.73-.27,4.09-.5-1.35.21-2.81-.44-4.07.51l-2,0a3.34,3.34,0,0,1-1.17-1.33c-.38-.86-1.36-1.53-.86-2.68a6.7,6.7,0,0,1,4-1C362.92,149.49,365.88,149.93,368.84,149Z"/><path class="cls-132" d="M347.9,128.94l.09,21q-.06.49-.09,1c-4.16-1.8-1.41-5.68-2.54-8.39a6.8,6.8,0,0,1-.06-1.56,53.59,53.59,0,0,0,.18-10.52,3,3,0,0,1,.4-1.45A1.4,1.4,0,0,1,347.9,128.94Z"/><path class="cls-65" d="M349.91,151.92c1.93-.07-.43-4.42,3-3a2.59,2.59,0,0,1,1.62,3.06c-.58,1.24-.34,3.22-2.62,2.93A3,3,0,0,1,349.91,151.92Z"/><path class="cls-29" d="M351.91,154.92c.66-1,1.33-2,2-3a3.53,3.53,0,0,1,1.7.66c.63.67,2,.92,1.29,2.34C355.24,155.76,353.57,157.63,351.91,154.92Z"/><path class="cls-84" d="M345.93,141.92c2.46,2.61-.51,6.4,2,9l0,1H346l-.59-.58a12.36,12.36,0,0,1,0-8.84C345.54,142.31,345.74,142.12,345.93,141.92Z"/><path class="cls-138" d="M356.9,154.92l-2-2c.28-2.51,1.77-1.37,3-1,0,.67,0,1.33,0,2Z"/><path class="cls-31" d="M6,37c0-4.75-.54-9.59,2-14a21.54,21.54,0,0,1,10.44-2c3.19.22,5,1.36,3.54,4.89-.17.18-.33.37-.5.56-1.95,1.25-4.39.28-6.37,1.39-1.9,2.76.51,6.53-2.15,9.1-5.51-.17-1.44-5.09-3.46-6.92C7.53,32,11.58,36.88,6,37Z"/><path class="cls-31" d="M6,19c1.15-1.38,2.73-1,4.18-1q32.84,0,65.66,0c1.45,0,3-.4,4.18,1Z"/><path class="cls-139" d="M22,26c8.16.17,8.17.17,8,8.43,0,1.14-.49,2.32-.33,3.42.62,4.08-1.59,4.61-4.86,4.27-3.58-.38-7.18,1-10.77-.06-.25-1,.37-1.44,1.1-1.83,2.06-.75,4.22-.42,6.34-.56s4.78.54,5-2.55c.2-2.88,1.56-6.47-2.76-7.89A5.47,5.47,0,0,1,22,28.27,1.68,1.68,0,0,1,22,26.08Z"/><path class="cls-85" d="M50,27c0,3.82-.06,7.64,0,11.46.08,2.47-.76,3.45-3.4,3.62C34,42.93,34,43,34,30.53c0-1.17,0-2.33,0-3.49,1-.22,1.46.42,1.85,1.17.79,2.4.58,4.89.51,7.33-.13,4.3,2.73,4.08,5.65,4.11s5.69-.1,5.59-4.25c-.06-2.46-.23-4.92-.1-7.39C48,26.7,48.72,26.21,50,27Z"/><path class="cls-79" d="M70,26.07c2.24,4.87.54,10,.91,15A1.67,1.67,0,0,1,69,42.9C64.68,42.6,60.2,44.1,56,42c3.78-2.63,8-.87,12-1.31.66-.08,1-.2.35-.17-.05,0-.11-.29-.19-.48a28.34,28.34,0,0,1-.12-11.31A6.07,6.07,0,0,1,70,26.07Z"/><path class="cls-140" d="M57,66c0,.66,0,1.31,0,2-1.47,0-2.85-.66-2.8-2.13.16-4.93-1.35-10,.82-14.77.66.69,2,.24,2.4,1.36a5,5,0,0,1,.13,1.49C57,57.92,57.81,62,57,66Z"/><path class="cls-126" d="M15.07,66,14,67a.62.62,0,0,1-1,0c.55-5.3-1.15-10.74,1-15.94.88,1,2.56-.1,3.31,1.26a3.18,3.18,0,0,1-.12,1.53C15.37,57.67,17.68,62.26,15.07,66Z"/><path class="cls-60" d="M50,27A2.08,2.08,0,0,0,48,28c-4.3,2.41-8.63,2.26-13,.13L34,27A26.38,26.38,0,0,1,50,27Z"/><path class="cls-141" d="M15.07,41,14,42c-1.66-1.4-.73-3.33-1-5,.62-3.62-1.16-7.48,1.06-11a5.83,5.83,0,0,1,2,2.83C16.4,33,17.41,37.12,15.07,41Z"/><path class="cls-31" d="M34,51l-.09,16-1.88-.35C34.6,61.68,31.36,56,34,51Z"/><path class="cls-142" d="M54.05,41.05c.52-5-1.27-10.12,1-15a4.33,4.33,0,0,1,1.47,2.35,5.62,5.62,0,0,1,0,1.42,42.54,42.54,0,0,0,.06,10,2.78,2.78,0,0,1-.41,1.4A1.84,1.84,0,0,1,54.05,41.05Z"/><path class="cls-143" d="M56,28.05a2,2,0,0,1-1-2H70A2,2,0,0,1,69,28l-.72.12a108.72,108.72,0,0,1-11.56,0Z"/><path class="cls-85" d="M54.05,41.05l2-.1A13.53,13.53,0,0,1,69,41c-4.16,2.43-8.68.31-13,1.06A1.88,1.88,0,0,1,54.05,41.05Z"/><path class="cls-144" d="M17.05,52c-1.09-.08-2.28.18-3-1l14.94,0-1,1A10.66,10.66,0,0,1,17.05,52Z"/><path class="cls-69" d="M57,52a2.12,2.12,0,0,1-2-1L70,51c-.72,1.18-1.93.92-3,1A9.1,9.1,0,0,1,57,52Z"/><path class="cls-31" d="M13,67c.33,0,.67,0,1,0,4,.51,8.15-1,12,1C21.72,67.44,17.22,69.2,13,67Z"/><path class="cls-21" d="M38,52c0-.32,0-.63,0-1h8v1A6.2,6.2,0,0,1,38,52Z"/><path class="cls-145" d="M20,9.21c0,1.94-.41,3.64-2.56,3.63a3.25,3.25,0,0,1-3.27-3.11A3.18,3.18,0,0,1,17.12,6.3C19.27,5.94,19.93,7.5,20,9.21Z"/><path class="cls-77" d="M50.8,9.29,57,8.45l.2,1.22L51,10.44Z"/><path class="cls-146" d="M26.8,9.41c2.19-.44,4.32-.87,7,.16A9.48,9.48,0,0,1,26.8,9.41Z"/><ellipse class="cls-147" cx="42.01" cy="9.54" rx="4.24" ry="0.34"/><path class="cls-61" d="M68.9,9.68c-2.13.28-4.07.8-6.23-.21C65,8.84,67.06,8.75,68.9,9.68Z"/><path class="cls-52" d="M439.88,22.05c-.33,0-.66,0-1,0,0-3.42,0-6.84,0-10.26-.05-2.52,1.09-2.75,3-1.74a2.36,2.36,0,0,1,.46,1.38c-1.07,6.73-.64,7.27,6,7.31,3.15,0,6.3,0,9.45,0,6.3,0,6.3,0,7.29-6.32A5,5,0,0,1,466.88,10c2.1,3.51.45,7.36,1,11-.72,1.16-1.91,1-3,1l-1-.07c-1.95-1-3.75-.55-5.49.55-1.49-.16-3,.34-4.46-.47Z"/><path class="cls-148" d="M442.89,55c-2.89.38-4.81-.74-3.93-3.75.81-2.76-3.06-7.32,2.92-8.22a2.67,2.67,0,0,1,.55,1.46c-.17,6.94,0,7.13,6.64,7.11,5,0,9.94.22,14.89-.16,2.87-1.3,1.33-3.69,1.41-5.68a3.83,3.83,0,0,1,0-1.35c.23-.72.95-.92,1.45-1.36,2,3.21.85,6.73.84,10.09,0,2.46-2.31,1.7-3.84,1.86A89.15,89.15,0,0,0,442.89,55Z"/><path class="cls-149" d="M422.88,38c-2-2.81-.5-6-1-9,.05-1.1-.14-2.29,1-3,7.79,0,15.57,0,23.35,0,1.59,0,3.36-.57,4.65,1-.49.73-.9,1.52-1.79,1.86-5.55,1.2-11.17.33-16.75.6-2.29.11-4.64-.32-6.78.84C423,32.32,425.25,36,422.88,38Z"/><path class="cls-75" d="M454.88,26.06l2,0c11-.05,11,0,11,11-.58,1.59-1.62,1.81-3,1a2.31,2.31,0,0,1-.53-1.3c0-1.31.23-2.61.22-3.92,0-2.17-.92-3.41-3.23-3.42-2,0-3.06.88-3.17,2.9a13.12,13.12,0,0,1-.48,3.41,6.09,6.09,0,0,1-1.8,2.31C453.8,34.17,455.39,30,454.88,26.06Z"/><path class="cls-150" d="M449.82,28.11,450.88,27a30.4,30.4,0,0,0,.05,4.87c.78,4.89-1.09,7-6.05,6.23l-22-.11c.43-3-.95-6.15.94-9a3.46,3.46,0,0,1,1.32,2.59c.24,3.29,2.29,4,5.15,3.95,4-.07,8-.2,12,0s6.47-.85,6.45-5.31A3.68,3.68,0,0,1,449.82,28.11Z"/><path class="cls-84" d="M422.88,22.06c-1-.67-1-1.36-.05-2.08.91,0,1.5-.8,2.37-.91,5.69-.6,5.69-.6,7-7.71a2.4,2.4,0,0,1,1.7-1.32c2,3.22,1.32,6.88.74,10.08-.67,3.71-4.46,1.21-6.74,1.95Z"/><path class="cls-151" d="M421.89,55c0-.32,0-.64,0-1,2.43-2.4,5.93-.41,8.52-2.1,2-2.15.61-5.09,1.74-7.44.36-.71,1.07-1,1.69-1.42,2.05,3.2.75,6.71.87,10.08.07,1.77-1.55,1.85-2.92,1.86C428.51,55,425.2,55,421.89,55Z"/><path class="cls-81" d="M466.86,43l-1.07,1c-5.57,3.05-11.6,1-17.4,1.49-2.24.18-4.66.3-6.51-1.53V43l3,0a18.81,18.81,0,0,1,9.07,0Z"/><path class="cls-81" d="M442.89,55a46.69,46.69,0,0,1,21,0Z"/><path class="cls-152" d="M433.86,43.06l-1,1c-2.31,1.87-5,1.31-7.68,1.32A5.14,5.14,0,0,1,421.93,44c2.24-2.39,5.73.35,8-2A6.76,6.76,0,0,0,433.86,43.06Z"/><path class="cls-153" d="M455.88,38a2,2,0,0,1,.95-2c2.78-.46,5.57-1,8,1,0,.32,0,.64,0,1Z"/><path class="cls-148" d="M453.91,43h-9.07A9.54,9.54,0,0,1,453.91,43Z"/><path class="cls-33" d="M453.89,22.08l5-.08a.54.54,0,0,1,1,.08C457.88,24.88,455.88,22.81,453.89,22.08Z"/><path class="cls-60" d="M459.87,22.08l-1-.08a3.38,3.38,0,0,1,4.95,0Z"/><path class="cls-48" d="M458.87,69c3-.56,6-3.36,9,0a18.86,18.86,0,0,1-8.93,0Z"/><path class="cls-154" d="M411.49,68.78c-.11,1.2-.61,1.78-1.52,1.86a1.49,1.49,0,0,1-1.64-1.43c-.1-.76.56-1.1,1.24-1.17A1.84,1.84,0,0,1,411.49,68.78Z"/><path class="cls-155" d="M458.93,69h8.93c0,.31,0,.61,0,.92C464.88,69.61,461.73,71,458.93,69Z"/><path class="cls-156" d="M429.94,69c-2.47,2-5.37.59-8,1C424.38,68,427.27,69.41,429.94,69Z"/><path class="cls-157" d="M453.84,69.79h-5.71l-.07-.44h5.57Z"/><path class="cls-158" d="M434.87,69h6.82c-2.3.72-4.63,1.87-6.83,0Z"/><path class="cls-60" d="M466.88,10a2.13,2.13,0,0,1-1,2c-6.95,1.1-13.93.44-20.9.34A4,4,0,0,1,441.88,11c0-.32,0-.65,0-1,7.05-2,14.21-.68,21.33-.69A19.82,19.82,0,0,1,466.88,10Z"/><path class="cls-46" d="M216,68c-1.88,4.56-5.35,6-10,5-3.44-2.17-3.17-3.09,1.93-6.6a5.2,5.2,0,0,1,1.42,0,39,39,0,0,0,5.49.76A3.35,3.35,0,0,1,216,68Z"/><path class="cls-52" d="M231.92,53a2,2,0,0,1,1-2,5.85,5.85,0,0,1,1.88,2.56c.84,3.94.23,8,.67,11.93a2.49,2.49,0,0,1-.57,1.48c-2.42.24-3.07-1-3-3.24C232,60.18,231.93,56.59,231.92,53Z"/><path class="cls-159" d="M212,63c-1.29-1.07-1.17-2.21,0-3.26,1.38-1.3,2.69-.36,4,.27C215.83,62.67,214.06,63.07,212,63Z"/><path class="cls-160" d="M212,26.24c-1-.28-2.23-.09-2.89-1.21a8.55,8.55,0,0,1,8.48.23C215.55,26.64,213.64,25.7,212,26.24Z"/><path class="cls-161" d="M209,30l2-2c1.67,2.17,4.57-1.53,6.65,2Z"/><path class="cls-15" d="M209,34c1.5-2.14,4.44.06,6-2,.83.09,1.93.13,2.06,1,.19,1.29-1,.92-1.72.94C213.23,34.07,211.12,34,209,34Z"/><path class="cls-159" d="M216,68l-1,0c-1.85-1.28-4.18.28-6-1h0c-.58-1.92,1.52-1.12,2-2a7.21,7.21,0,0,0,.93,0c1.08,1.38,2.65.71,4,1C218.52,66.55,215.84,67.3,216,68Z"/><path class="cls-90" d="M234.94,67V66a9.88,9.88,0,0,1,11,0v1Z"/><path class="cls-125" d="M216.87,37.31c-2.08.82-4,1-7.3,0Z"/><path class="cls-33" d="M211,65l-2,2c-1.37,1.82-6.56,1.72-3,6-2,.08-3.54-.58-2.81-2.8,1.38-4.22.5-8.52.83-12.76.12-1.63-.65-3.92,2.47-3.7,2.64.18,3.48,1.36,3.64,4.06C210.22,60.17,207.06,63.12,211,65Z"/><path class="cls-29" d="M72,154.92l1-1c.9.71,1.44,1.77.35,2.41S72.15,155.71,72,154.92Z"/><path class="cls-162" d="M69,129.94q0,5.48,0,11a4.43,4.43,0,0,1-3.11,1.29c-7.66-.26-15.39,1.25-23-.94a13,13,0,0,1-.12-11.56C51.54,127.92,60.29,127.59,69,129.94Z"/><path class="cls-163" d="M69,142q0,5.44,0,10.88a19.94,19.94,0,0,1-10.26,0C55.32,142.92,58,140,69,142Z"/><path class="cls-164" d="M59,118.93c9.94,0,9.94,0,10,10-1.22.78-2.59.45-3.89.46-7.86.1-9.56-2.81-6.15-10.45Z"/><path class="cls-50" d="M59,119c0,10,0,10,10,10a4.4,4.4,0,0,1,.36.72s-.24.18-.37.27l-26,0a5.42,5.42,0,0,1-2.57,1.24c-6.94.6-13.89.22-20.83.23a6.47,6.47,0,0,1-4.61-1.5v-1a20.1,20.1,0,0,0,10-10c.32,0,.65,0,1,0l0,0a5.51,5.51,0,0,1,1.16,2.17c1.53,6.31,1.53,6.32,7.87,6.33,5.14,0,10.28-.16,15.41.05,4,.17,6.45-.89,6.24-5.4A4.53,4.53,0,0,1,58,119Z"/><path class="cls-165" d="M59.08,152.83l9.85,0L70,153.92H14l1.06-1c3-2.2,6.44-1.2,9.73-1.38l1.84,0c10.26.08,20.54-.63,30.79.4A8.07,8.07,0,0,1,59.08,152.83Z"/><path class="cls-166" d="M59.08,152.83H58a5.58,5.58,0,0,1-1.26-3.18c-.86-6.21-.87-6.25-7.29-6.29-6,0-11.95-.11-17.92.07-2,.06-4,.36-5.58-1.37a1.36,1.36,0,0,1,.4-1.58c4.68-1.83,9.51-.92,14.3-.79A5.19,5.19,0,0,1,43,140.92H69c0,.35,0,.71,0,1.06C58.85,141.86,58.85,141.86,59.08,152.83Z"/><path class="cls-167" d="M58,119c0,10,0,10-9.8,10-5.45,0-10.93-.33-16.35.1-4.92.38-6.57-1.47-5.87-6.12a27.52,27.52,0,0,0,0-4Z"/><path class="cls-168" d="M41,140.92l-15,0a7.67,7.67,0,0,1-1.51,1c-3.23.39-6.5,1.17-9.46-1l-.09-5,.06-6,26,0A13.34,13.34,0,0,1,41,140.92Z"/><path class="cls-169" d="M25,119c0,10,0,10-10,10C15,118.91,15,118.91,25,119Z"/><path class="cls-53" d="M25,152.87H15.09l0-10.91a22.17,22.17,0,0,1,10.15-.08C26.88,145.59,27.16,149.26,25,152.87Z"/><path class="cls-170" d="M25,142H15.06c0-.36,0-.71,0-1.06l10,0c.29.24.38.47.28.69S25.09,142,25,142Z"/><path class="cls-171" d="M44,110H40c.1-1.08.48-1.9,1.74-2A1.86,1.86,0,0,1,44,110Z"/><path class="cls-172" d="M38,52h8c5.69,2.49,2.44,7.41,2.76,11.18.28,3.38-3,2.75-5.2,2.79-8.24.14-10.91-3.61-8.45-11.72A3,3,0,0,1,38,52Z"/><path class="cls-173" d="M57,66a18.23,18.23,0,0,1,0-13A22.19,22.19,0,0,1,67,53c2.41.32,2,2.19,2,3.73,0,3.07,0,6.15,0,9.22Z"/><path class="cls-46" d="M67,53H57c0-.32,0-.64.07-1H67C67,52.35,67,52.67,67,53Z"/><path class="cls-174" d="M15.07,66c0-3.08-.07-6.16-.05-9.24,0-1.55-.45-3.42,2-3.73a26.72,26.72,0,0,1,11,0c-.46,4.33,1.22,8.81-.95,13Z"/><path class="cls-46" d="M28,53H17l.06-1H28A6.55,6.55,0,0,1,28,53Z"/><path class="cls-168" d="M114,124c3.57-2.11,7.43-.65,11.15-.89,1.46-.1,1.67,1.2,1.87,2.44,1.51,9.23.49,10.45-9,10.42-1.33,0-2.66,0-4,0A29.06,29.06,0,0,1,114,124Z"/><path class="cls-175" d="M114,124q0,6,.07,11.93A15.21,15.21,0,0,1,114,124Z"/><path class="cls-174" d="M161.67,101.82c2.39.76,6-1.3,6.8,1.5,1,3.34.31,7.19.15,10.81a1.66,1.66,0,0,1-2.23,1.4,21.24,21.24,0,0,0-8.87-.28c-1.86.26-2.43-.7-2.47-2.21a60.94,60.94,0,0,1,0-8.44C155.64,99.87,159.59,103,161.67,101.82Z"/><path class="cls-163" d="M134.92,155.92q0-6,0-12c1.25-.18,2.49-.43,3.74-.52,8.77-.66,9.13-.08,9.41,8.41.14,4.36-1.5,5.68-5.46,5.08C140.06,156.5,137.29,157.82,134.92,155.92Z"/><path class="cls-172" d="M161.82,156.91c-6.82,0-6.82,0-6.83-6,0-7.94,0-7.94,7.49-7.94,6.46,0,6.5,0,6.45,6.72C168.87,157.55,169.92,156.86,161.82,156.91Z"/><path class="cls-176" d="M136,122.91l12,.09q0,6.45,0,12.89c-1.32,0-2.65,0-4,0C134.47,136,132.44,132.64,136,122.91Z"/><path class="cls-177" d="M127,143.92l-.09,13-3,0c-11.06,0-11,0-10-10.89.14-1.35.1-3,1.88-2.92C119.58,143.26,123.43,141.93,127,143.92Z"/><path class="cls-169" d="M135,102,148,102l0,13.82c-3.3.42-6.62-1.42-9.91.09-2.74-1-3.27-3.05-3.08-5.7S135,104.74,135,102Z"/><path class="cls-178" d="M156,136a18.67,18.67,0,0,1,0-13.05l12,0c1.76,4.34,1.22,8.68,0,13Z"/><path class="cls-162" d="M431.92,140.89V130c7.08-2.85,14.45-1.77,21.56-.78,4,.56,2.58,5.13,2.69,8.13.09,2.62-1,4.51-3.92,4.83-2.16.24-4.32.15-6.48.19-.64,0-1.29,0-1.93,0C439.88,141.84,435.64,143.48,431.92,140.89Z"/><path class="cls-179" d="M443.89,140.93h1a24.62,24.62,0,0,0,10.77,0c3.5-.63,6.94-.76,10.2,1,0,2.25-.13,4.52.07,6.76.27,3.08-.79,4.62-4,4.18l-18,0C441.28,148.89,442.17,144.91,443.89,140.93Z"/><path class="cls-178" d="M431.93,115.93c-.14-10-.14-10,9.9-10,4.33,0,8.65,0,13,0,2.16,3.38,1.95,6.8.19,10.26C447.29,117.82,439.59,118.42,431.93,115.93Z"/><path class="cls-176" d="M431.93,128.9V118c3.35-1.63,6.75-1.35,10.17-.24a13.09,13.09,0,0,1,.06,11.19A21.24,21.24,0,0,1,431.93,128.9Z"/><path class="cls-178" d="M461.86,105.94c3.24-.42,4.32,1.12,4.05,4.2-.2,2.24-.08,4.5-.1,6.76-3.5.53-7,1.27-10.24-1.08-.1-3.27-.71-6.57.36-9.8Z"/><path class="cls-180" d="M431.93,128.9l9.93,0a5.41,5.41,0,0,1,2.54-1.24c5.6-.57,11.21-.22,16.82-.23a6.5,6.5,0,0,1,4.61,1.44V130c-1.32,1.22-3,1.32-4.64,1.33-2.62,0-3.89,1.15-3.93,3.89s.95,4.37,4,4.35c1.65,0,3.32.11,4.63,1.35,0,.36,0,.71,0,1.07-7-.51-14.07,1.13-21-1a28.71,28.71,0,0,1,4.45,0c4.78.78,5.71-1.49,5.69-5.82,0-4.06-1.12-5.53-5.29-5.29-5.92.34-11.87.11-17.8.12C431.92,129.62,431.93,129.26,431.93,128.9Z"/><path class="cls-181" d="M455.9,115.93c3.3.32,6.74-.71,9.91,1,0,.36,0,.72,0,1.08-3.07,2.34-6.66,1.39-10.05,1.47a70.78,70.78,0,0,1-11.37-.23,5.2,5.2,0,0,1-2.53-1.27l-9.94,0c0-.68,0-1.37,0-2h22.9A1.86,1.86,0,0,0,455.9,115.93Z"/><path class="cls-179" d="M441.83,152.87c-10.07.12-10.07.12-9.9-10.89,3.51-.48,7.08-1.72,10.36.78-.33,2.71-2.37,1.63-3.84,1.66s-3.12-.41-3.9,1.35a3.44,3.44,0,0,0,.32,3.77c1.19,1.37,2.36.23,3.55-.29,2.35-1.05,2.64,1.21,3.62,2.36A1,1,0,0,1,441.83,152.87Z"/><path class="cls-180" d="M441.83,152.87c0-.32,0-.63,0-1-1.39-2.66-2.06-5.33,0-8-2.61-4.24-6.7-1-9.95-2,0-.36,0-.72,0-1.09l12,0c0,4,0,8,0,11.94Z"/><path class="cls-182" d="M455.9,115.93c-.36.74-.72.7-1.07,0,0-3.3,0-6.6,0-9.9h1.12Z"/><path class="cls-168" d="M443.88,118l21.95,0V128.9l-21.93,0A13.43,13.43,0,0,1,443.88,118Z"/><path class="cls-168" d="M465.85,140.91c-2.13,0-4.27-.1-6.4.05-2.86.21-3.57-1.13-3.63-3.79-.18-7.25-.29-7.25,7.06-7.22,1,0,2,0,2.95,0C465.84,133.63,465.84,137.27,465.85,140.91Z"/><path class="cls-183" d="M249,119c1.38-.56,2.26-2.16,4-2a6.68,6.68,0,0,1,.9,1.4c.93,4.64.06,9.35.61,14a2.51,2.51,0,0,1-.52,1.54c-1.3,1.47-3,2.85.87,3.08,4.71.28,9.53-1.1,14.13.92-2.09,1.94-4.7,1.36-7.13,1.39-7.6.1-7.63.06-7.48,7.8,0,1.75-.56,3.73,1.33,5,2.72.84,5.5.29,8.24.43,1.79.09,3.59.05,5,1.39.12.71.74,2.11-.46,1.81a18.16,18.16,0,0,0-10.5.56,15.14,15.14,0,0,1-8-.09c-6.87-2.63-13.74-.67-20.55-1.21-4.95-.4-9.95-.08-14.93-.08-1.73,0-3.48,0-3.46-2.44q.12-17.39.31-34.78c0-.26.4-.51.61-.76,1.64,1.76,1.41,4,1.42,6.09,0,7.91,0,15.83,0,23.74,0,1.93-.39,4,1.73,5.29a181.63,181.63,0,0,0,31.29-.16c1.55-1.45,1.12-3.37,1.13-5.13.06-7.25,0-14.51,0-21.76C247.59,122.92,247.17,120.67,249,119Z"/><path class="cls-184" d="M249,119c0,9.94,0,19.88,0,29.81,0,1.74.69,3.69-1,5.15a5.86,5.86,0,0,1-1.91-2.62c-.67-2.72-.39-5.49-.5-8.24,0-.84,0-1.69,0-2.53q-.09-5.16,0-10.32c0-.58,0-1.15,0-1.72s-.07-1-.08-1.49c-.11-6.23-.35-6.45-6.4-6.56-8.11-.16-16.23.35-24.34-.29a4.35,4.35,0,0,1-1.6-.75A1.73,1.73,0,0,1,213,117l1,0c5-2.12,10-2.42,15,0,5.4,0,10.8,0,16.2,0C246.75,117,248.61,116.55,249,119Z"/><path class="cls-36" d="M229,116.91H214v-1c1.31-8.25,9.14-6.32,14.06-8.9.92-.48,2.3,0,3-1.24l.32-.35.45.14C229,108.91,230.62,113.32,229,116.91Z"/><path class="cls-85" d="M254,153.9c-2.16-4.58-.71-9.4-.88-14.1-.07-2.08,2-1.85,3.42-1.87,4.15,0,8.31,0,12.46,0l0,11a1,1,0,0,1-1.36-.17,7.41,7.41,0,0,1-1-4.31c-.07-2.92-1.58-4-4.42-4.19-6.2-.36-6.93.25-6.88,6.47,0,1.83.31,3.65.16,5.49C255.33,153.12,254.61,153.48,254,153.9Z"/><path class="cls-1" d="M254,133.9q0-.47-.06-.93a2.56,2.56,0,0,1,1.58-1.83c.65-.12-.17,0,.45-.18,3.23-1.15,7.5,1.18,9.8-1.71,2.14-2.69.34-6.7,1-10.07a4.85,4.85,0,0,1,1.19-2.16,29.59,29.59,0,0,1,0,16.91C263.26,132.51,258.6,134.54,254,133.9Z"/><path class="cls-185" d="M213,117c0,.67,0,1.33,0,2,2.12,2.6,1.27,5.7,1.36,8.61.12,4.14,0,8.28,0,12.41,0,.87,0,1.74,0,2.61a84.77,84.77,0,0,0,.29,9.82,2.93,2.93,0,0,1-.68,1.47c-2.88-.35-2-2.63-2-4.23-.07-10.9,0-21.81,0-32.71Z"/><path class="cls-22" d="M267.94,148.93h1c0,1.67,0,3.33,0,5l-15,0,1-1c1.56-1.54,3.58-1.4,5.47-1.3A9.88,9.88,0,0,0,267.94,148.93Z"/><path class="cls-12" d="M267.94,117l0,2c-4.22,2.37-8.67,1.42-13.08.85A3.78,3.78,0,0,1,253,118c0-.33,0-.67,0-1Z"/><path class="cls-186" d="M249.55,105.05c2.12-1.46,4.33-1,6.55-.55C254,106.12,251.76,105.14,249.55,105.05Z"/><path class="cls-187" d="M212,106.85c0-1.28,0-2.57,0-3.85,1,.08,2.47-.33,2.74,1.15C215.1,106.13,213.15,106.15,212,106.85Z"/><path class="cls-188" d="M231.76,105.6c-.25.08-.51.15-.77.21l-6.21-1C228.82,103.4,229.65,103.5,231.76,105.6Z"/><path class="cls-189" d="M243.09,104.31c-2,2-4,.18-6,0Z"/><path class="cls-190" d="M267.5,103.32c.29.36.9.8,1,1.35.16.74-.48,1.19-1.21,1.16a1.24,1.24,0,0,1-1.25-1.26C266,103.84,266.44,103.36,267.5,103.32Z"/><path class="cls-191" d="M345.93,34.43c0,6.58,0,6.58-6.8,6.57-6.2,0-6.2,0-6.2-6.66,0-6.34,0-6.34,6.54-6.34S345.93,28,345.93,34.43Z"/><path class="cls-168" d="M354.91,41c-2.19-4.19-.46-8.68-1-13,1.32,0,2.64-.05,3.95,0,10.19.24,8.83-2,9.09,9.21.07,3.19-1.29,4-4.13,3.82C360.19,40.88,357.55,41,354.91,41Z"/><path class="cls-174" d="M333.91,48c4,.54,8.18-1,12.06,1a57.21,57.21,0,0,0,0,6.93c.58,4.89-1.53,6.33-6.23,6.11-6.81-.32-6.92-.07-6.78-6.91C333,52.76,332,50.17,333.91,48Z"/><path class="cls-178" d="M365.9,62l-10,0c-3.42-4.08-2.81-12.59,1-14h9A20.81,20.81,0,0,1,365.9,62Z"/><path class="cls-176" d="M135,17.47C135,11,135,11,142,11.06c5.95,0,6,0,5.93,7s.49,5.43-8.39,6.17C133.4,24.72,135.08,21,135,17.47Z"/><path class="cls-176" d="M147,45.07c-12.05-.23-12.05-.23-12-13,4.32.54,8.82-1.23,13,1,.94,3.5.26,7.05.41,10.58C148.46,44.55,148,45.16,147,45.07Z"/><path class="cls-192" d="M147,45.07c2.08-3.86.45-8,1-12,1,4.43,2.79,8.91-1,13C147,45.69,147,45.38,147,45.07Z"/><path class="cls-193" d="M148,61c.59,4.09-1.22,5.51-5.21,5A69.54,69.54,0,0,0,135,66c.35-4.64-1.11-9.42,1-13.93H139C149.42,52,147.79,51.71,148,61Z"/><path class="cls-178" d="M160.93,24.06c-3.59.69-6.46.15-6.05-5.67.51-7.18.24-7.34,7.28-7.33,6.49,0,6.79.31,6.77,6.72S168.91,24.06,160.93,24.06Z"/><path class="cls-174" d="M161.57,66C155,66,155,66,155,59.24c0-7.19,0-7.19,7-7.19s7,0,7,7.15C168.93,66,168.93,66,161.57,66Z"/><path class="cls-194" d="M168.93,32.09c-.53,4.31,1.15,8.78-1,13l-12,0c-2.13-4.2-.41-8.7-1-13Z"/><path class="cls-195" d="M412.89,13.51c-.08,2.19-.93,3.44-3,3.44-2.36,0-3.08-1.5-3-3.6a2.76,2.76,0,0,1,3.2-2.92A2.69,2.69,0,0,1,412.89,13.51Z"/><path class="cls-67" d="M433.88,10l-1,1c-2.66,2-5.6,1.46-8.54,1a4,4,0,0,1-1.47-1c-.7-.72-.86-1.73.25-1.76C426.69,9.21,430.34,9,433.88,10Z"/><path class="cls-196" d="M406,27.76c0-.56-.07-1.11-.1-1.66h7.5C411.06,28.3,408.5,27.73,406,27.76Z"/><path class="cls-197" d="M405.89,32V30c2.47.19,5.05-.52,8.44,1C410.94,32.53,408.36,31.82,405.89,32Z"/><path class="cls-57" d="M422.83,11.06h1.09a7.5,7.5,0,0,1,0,9c-.38.77-.73.62-1.06,0C421.36,17,422.13,14,422.83,11.06Z"/><path class="cls-66" d="M413.87,36c-2.61-.85-6.15,2-8-2C408.51,34.89,412.05,32,413.87,36Z"/><path class="cls-37" d="M403.89,29c1.72,1.63.94,3.75,1,5.64a194.74,194.74,0,0,1-1,25.19V29Z"/><path class="cls-198" d="M421.93,44l3,0a2.06,2.06,0,0,1-.2,1.91c-.48,2-1.73,4.12,1,5.53,2.07.53,4.48-.3,6.19,1.58-3.18,1.93-6.67.51-10,1C421.91,50.68,421.92,47.33,421.93,44Z"/><path class="cls-109" d="M412.77,39.31a6.83,6.83,0,0,1-5.81,0Z"/><path class="cls-167" d="M266.94,11c2,3.86.45,8,1,12-1.28,1.56-3.06,1-4.64,1-9.78,0-19.55,0-29.33,0,0-3.09,0-6.17,0-9.26,0-1.57-.39-3.42,2-3.74a193.32,193.32,0,0,1,30,0Z"/><path class="cls-136" d="M265.92,11H236c3.35-2.09,7.06-1,10.54-.87C253,10.34,259.54,8.85,265.92,11Z"/><path class="cls-168" d="M235,45.07c-2.1-3.56-.68-7.42-.88-11.13-.1-1.8,1.52-1.9,2.89-1.9,3.32,0,6.64,0,9.95,0,0,.17,0,.34,0,.5C247,44.85,247,44.85,235,45.07Z"/><path class="cls-178" d="M267.94,53V63c0,1.61-.32,2.67-2.36,3-10,1.69-11.62.4-11.61-9.67q0-12.12,0-24.24a80,80,0,0,0,8.49-.16c2.76-.32,4.33.84,5.43,3.11.66.77.46,1.71.5,2.6C268.16,42.78,269,47.92,267.94,53Z"/><path class="cls-165" d="M233.92,53a2,2,0,0,1-1-2h13v1C242.09,54.38,238,53.47,233.92,53Z"/><path class="cls-178" d="M233.92,53c3.88-2,8-.48,12-1a20.77,20.77,0,0,1,0,14l-11,0C232.74,61.81,234.54,57.31,233.92,53Z"/><path class="cls-199" d="M267.94,37c0-.65,0-1.31,0-2,.19-1.37-.46-3,1-4v6C268.58,37.48,268.26,37.47,267.94,37Z"/><path class="cls-200" d="M267.94,37h1q0,8,0,16h-1Z"/><path class="cls-132" d="M323.9,118.9c0-.64,0-1.27,0-1.91,6.41,0,12.83.15,19.24-.11,3.57-.15,5.26.83,4.81,4.65a56.89,56.89,0,0,0-.07,6.4c-2.49,0-2-2.07-2.23-3.49s0-3-1.7-3.64c-4.56-.83-9.15-.18-13.71-.39-1.95-.08-3.94.12-5.74-.88Z"/><path class="cls-201" d="M314.84,107.9c-1.94-.09-2.81-1.21-2.92-3.14-.12-2.29,1.17-3.49,3.19-3.43a3.1,3.1,0,0,1,3.19,3.13A3.26,3.26,0,0,1,314.84,107.9Z"/><path class="cls-202" d="M368.25,140.75c-2.55,1.61-5.11,1.14-7.68.46C363.06,139.3,365.66,140.12,368.25,140.75Z"/><path class="cls-78" d="M368.19,137a11.85,11.85,0,0,1-8.45.21C363,135.29,365.62,135.8,368.19,137Z"/><path class="cls-78" d="M360.82,145.3c2.35-2,4.86-1.37,8.19-.91C366,146.78,363.34,145.72,360.82,145.3Z"/><path class="cls-203" d="M360.8,132.25h7.27C365.66,133.35,363.29,134.65,360.8,132.25Z"/><path class="cls-204" d="M355.23,104.53c-2.14,1.73-4.26,1.52-6.41,0Z"/><path class="cls-205" d="M367.87,104.3a8.53,8.53,0,0,1-8,.76C363,103.21,365.5,104.46,367.87,104.3Z"/><path class="cls-39" d="M357.9,151.93c-1.1,0-2.28-.18-3,1l-1-1c-.34-1-.67-2-1-3,1.29-.55,2.76-1.62,3,1Z"/><path class="cls-206" d="M336.77,104.25h6.33C341,105.08,338.91,105.87,336.77,104.25Z"/><path class="cls-84" d="M345.91,119c2.5,2.59-.49,6.39,2,9,0,.34,0,.68,0,1L346,129l-.63-.64C344.23,125.12,343.87,122,345.91,119Z"/><path class="cls-207" d="M363.77,119.39c-.13,1-.65,1.5-1.67,1.33A1.25,1.25,0,0,1,361,119.3c0-.93.51-1.74,1.41-1.7S363.76,118.47,363.77,119.39Z"/><path class="cls-208" d="M368.84,149a8.89,8.89,0,0,1-8.88,0Z"/><path class="cls-209" d="M331.15,104.58a13.77,13.77,0,0,1-8.39-.15C326,103.76,328.18,103.63,331.15,104.58Z"/><path class="cls-210" d="M357.82,132.61c-.21.24-.47.77-.81.85-.57.11-.84-.4-.72-.93a1.32,1.32,0,0,1,.56-.78C357.5,131.42,357.7,131.89,357.82,132.61Z"/><path class="cls-168" d="M312,130.92l.95-1c6.68-2.63,13.58-1.12,20.39-.93a2.8,2.8,0,0,1,2.62,2.59c.37,3.37,1.35,6.86-1.3,9.85-3.65,1.65-7.52.62-11.28.93-1.84.06-3.68.17-5.52,0-4.09.23-5.92-1.5-5.44-5.76C312.57,134.77,312.92,132.76,312,130.92Z"/><path class="cls-211" d="M317.91,141l5,0c2.6,2.38-.08,6.43,2.78,8.71,4.32,1.58,8.79.49,13.16.79,2.42.17,5-.3,7,1.49H346c-1.66,1.68-3.78.94-5.69,1-8.15.08-16.3-.08-24.45.09-3.11.07-4.29-1.07-3.88-4.06a1.79,1.79,0,0,0,.47-1.36C311.41,143,313.33,140.87,317.91,141Z"/><path class="cls-212" d="M312.86,119.92c3.19-2,6.71-.56,10.05-1,1.22,1.32,1.34,3,1.38,4.64.12,5-.63,5.84-5.51,5.8-1.95,0-4,.47-5.87-.43v0A19.1,19.1,0,0,1,312.86,119.92Z"/><path class="cls-213" d="M312.91,129c10-.07,10-.07,10-10q.49,0,1-.06l0,0a5.71,5.71,0,0,1,1.15,2.16c1.58,6.32,1.59,6.17,8.33,6.4,4.18.14,8.6-1.2,12.51,1.43l0,0c0,.33,0,.66,0,1l-.5.52a8,8,0,0,1-4.34.79c-3.1,0-3.91,1.66-3.88,4.43s1.21,3.93,3.88,3.92a8.25,8.25,0,0,1,4.34.79c.17.17.34.35.5.53,0,.33,0,.66,0,1h0c-3.74,2.24-7.62,1.76-11.53.57a1.11,1.11,0,0,1-.45-1.56c1.95-2.88.84-6.09.84-9.15,0-2.14-2-1.83-3.42-1.84-6.15-.05-12.3-.05-18.44-.07C312.91,129.58,312.91,129.27,312.91,129Z"/><path class="cls-214" d="M317.91,141c-5.12.32-4.79,4.71-6,8q0-9,0-18c1.59,1.48,1.11,3.46.9,5.15C312.34,140.16,314.15,141.47,317.91,141Z"/><path class="cls-211" d="M312.86,119.92l.06,9A9.38,9.38,0,0,1,312.86,119.92Z"/><path class="cls-208" d="M359.94,153.91c2.15-1.95,4.9-.47,7.29-1-2.24,1.48-4.83.93-7.31,1Z"/><path class="cls-84" d="M345.94,130a13.39,13.39,0,0,1,0,11h0a10.11,10.11,0,0,1,0-11Z"/><path class="cls-177" d="M333.91,141.94h12c0,3.33,0,6.65,0,10-5.78,0-11.56,0-17.35,0-1.58,0-3.35.55-4.63-1C323,140.42,321.69,140.81,333.91,141.94Z"/><path class="cls-136" d="M15,28a2,2,0,0,1-1-2h8c0,.61,0,1.23,0,1.84C19.71,29.91,17.38,29.71,15,28Z"/><path class="cls-191" d="M15,28l7-.11c1.92.57,5-1.13,5.65,1.48a21.36,21.36,0,0,1-.13,10.71c-.33,1.2-2,.88-3.1.89-3.12,0-6.25,0-9.37,0Q15,34.51,15,28Z"/><path class="cls-215" d="M35.05,28.1,48,28c2,3.58.59,7.43.85,11.15.08,1.15-.8,1.73-1.93,1.83-.49,0-1,0-1.49.06C35,41.68,35,41.68,35.05,28.1Z"/><path class="cls-168" d="M69,41,56.07,41c0-.31,0-.63-.07-.94a27.15,27.15,0,0,1,0-11c0-.33,0-.67,0-1h0a35.62,35.62,0,0,1,13,0h0Q69,34.5,69,41Z"/><path class="cls-85" d="M56,29.05c0,3.66,0,7.31,0,11A13.11,13.11,0,0,1,56,29.05Z"/><path class="cls-142" d="M69,28l-13,0A17.59,17.59,0,0,1,69,28Z"/><path class="cls-169" d="M441.88,11c6.45,0,12.91,0,19.36.08,1.58,0,3.35-.56,4.65,1a12,12,0,0,0,0,2c.81,4.73-1,6.56-5.9,6.1-4.28-.41-8.62-.08-12.94-.09C440,20,438.66,17.68,441.88,11Z"/><path class="cls-167" d="M441.88,44l23.91,0c0,.33.08.65.1,1a13.9,13.9,0,0,1,0,8L447.4,53C440.21,53,439.14,51.28,441.88,44Z"/><path class="cls-81" d="M465.85,53c0-2.66,0-5.32,0-8A7.47,7.47,0,0,1,465.85,53Z"/><path class="cls-174" d="M449.82,28.11c.06,8.91.06,8.91-9,8.9a112.85,112.85,0,0,0-11.49.07c-4.48.46-6.17-1.18-5.47-5.55a13.84,13.84,0,0,0,0-2.49c3.36-2.16,7.08-.79,10.61-1C439.55,27.85,444.69,28.08,449.82,28.11Z"/><path class="cls-216" d="M464.86,37.06c-2.65-.55-5.56,1-8-1a22.21,22.21,0,0,0,0-2.94c-.39-3.53.49-5.2,4.69-5.25,4.7-.05,4.46,2.53,4.31,5.61C465.8,34.74,466.1,36.11,464.86,37.06Z"/><path class="cls-176" d="M423.89,20l0-9h8.92C432.79,21.69,434.2,19.86,423.89,20Z"/><path class="cls-216" d="M423.87,45l1-1h7.92c-.31,3,1,6.17-.92,9l-8-.05A13.76,13.76,0,0,1,423.87,45Z"/><path class="cls-33" d="M209,67c2,.37,4.25-.71,6,1C213,67.67,210.72,68.84,209,67Z"/><path class="cls-217" d="M41,140.92V130h2v11Z"/><path class="cls-163" d="M26,142l23.15,0c8.86,0,8.86,0,8.81,8.93,0,.65,0,1.31,0,2l-31.88,0A24.31,24.31,0,0,1,26,142Z"/><path class="cls-218" d="M26,142l0,10.9H25c0-3.64,0-7.27,0-10.91l0-1c.33,0,.66,0,1,0C26,141.29,26,141.63,26,142Z"/><path class="cls-219" d="M443.88,118q0,5.49,0,11h-2q0-5.49,0-11Z"/><path class="cls-177" d="M441.88,143.93c0,2.66,0,5.33,0,8-1.46.05-2.67-3.12-4.5-.18-.41.65-2.84.65-3.68-.36-1.6-1.95-.72-4.44-.66-6.7,0-1.5,1.33-1.59,2.53-1.75C437.78,142.63,439.78,143.53,441.88,143.93Z"/><path class="cls-220" d="M214,153.88c0-.31,0-.63,0-.95a3.49,3.49,0,0,1,2.62-1.29c10.13-.26,20.27-.82,30.39.29a2.06,2.06,0,0,1,1,2Z"/><path class="cls-165" d="M253,118l1,1c2.4,4.18,1.46,8.6,1,13l-1,1C251.8,128.08,253.44,123,253,118Z"/><path class="cls-178" d="M247,151.93c-1.49,1.58-3.43.93-5.18.94-9.27.07-18.55,0-27.83.06-1.76-3.19-.71-6.65-1-10,1.19-2.33,3.39-2.37,5.56-2.38q11.4-.09,22.81,0c2.17,0,4.36.07,5.57,2.38Z"/><path class="cls-168" d="M246.92,130c0,3.64,0,7.27,0,10.91-11,1.07-21.91.49-32.87.29a26.66,26.66,0,0,1-.09-11.49c1.53-1.28,3.39-1.12,5.18-1.13,7.41-.05,14.81,0,22.22,0C243.31,128.56,245.33,128.46,246.92,130Z"/><path class="cls-191" d="M214,119c9,0,18,.27,27-.12,4.81-.21,6.78,1.23,6,6.06a27.91,27.91,0,0,0-.06,4c-10.92,1.12-21.86.45-32.79.37C213,125.83,213.31,122.39,214,119Z"/><path class="cls-221" d="M214,140.93l32.94,0,0,2.05c-6.31-2.16-12.81-.78-19.21-.89-4.9-.09-9.94-1.13-14.73.9,0-.68,0-1.36,0-2C213.32,140.45,213.64,140.45,214,140.93Z"/><path class="cls-213" d="M214,128.92l33,0c0,.37,0,.74,0,1.1l-33,0a.66.66,0,0,1-.25-.7C213.79,129,213.87,128.92,214,128.92Z"/><path class="cls-222" d="M214,128.92v1q0,5.47,0,11h-.49l-.49,0q0-11,0-22c.33,0,.66,0,1,0C214,122.28,214,125.6,214,128.92Z"/><path class="cls-223" d="M267.94,148.93c.18,2.95-1.28,4.11-4.15,4s-5.87,0-8.81,0c-1.93-3.78-.7-7.83-.95-11.75-.08-1.39.79-2.13,2.16-2.14,3,0,6-.08,9,0,2.1.07,2.75,1.54,2.75,3.42C267.91,144.61,267.93,146.77,267.94,148.93Z"/><path class="cls-224" d="M254.93,132c-2.12-4.19-.43-8.67-1-13l14,0C267.9,131.81,267.9,131.81,254.93,132Z"/><path class="cls-225" d="M410.88,13.22c-.27.54-.38,1.16-.67,1.27-.74.28-1.18-.27-1.14-1a1.34,1.34,0,0,1,.72-1C410,12.49,410.45,13,410.88,13.22Z"/><path class="cls-226" d="M423.87,45l0,8A7.43,7.43,0,0,1,423.87,45Z"/><path class="cls-174" d="M345.91,128.94c-5.58,0-11.18-.22-16.75.08-4,.22-5.87-.92-5.28-5.15a36.68,36.68,0,0,0,0-4.92h22Z"/><path class="cls-214" d="M333.91,141.94h-1c-9,0-9,0-9,9-2-3.16-.54-6.67-1-10l11,0C333.92,141.28,333.91,141.61,333.91,141.94Z"/><path class="cls-227" d="M345.91,129.94v11c-2.13,0-4.27-.09-6.41,0-2.38.12-3.49-.62-3.64-3.29-.44-7.72-.57-7.71,7.09-7.72Z"/></g></g></svg>