<?xml version="1.0" encoding="utf-8"?>
<!-- Generator: Adobe Illustrator 24.2.3, SVG Export Plug-In . SVG Version: 6.00 Build 0)  -->
<svg version="1.1" id="Layer_1" xmlns:serif="http://www.serif.com/"
	 xmlns="http://www.w3.org/2000/svg" xmlns:xlink="http://www.w3.org/1999/xlink" x="0px" y="0px" viewBox="0 0 560 288"
	 style="enable-background:new 0 0 560 288;" xml:space="preserve">
<style type="text/css">
	.st0{fill:#909090;}
</style>
<path class="st0" d="M226.6,261c108.7,0,168.1-90,168.1-168.1c0-2.6,0-5.1-0.2-7.6c11.6-8.4,21.5-18.7,29.5-30.6
	c-10.8,4.8-22.2,7.9-33.9,9.3c12.3-7.4,21.6-19,26-32.7c-11.6,6.9-24.3,11.7-37.5,14.3C367.3,33.7,351.7,27,335.4,27
	c-32.4,0-59.1,26.7-59.1,59.1c0,4.5,0.5,9,1.5,13.4C230.3,97.1,186,74.7,156,37.8c-15.6,26.8-7.5,61.6,18.3,78.9
	c-9.4-0.3-18.6-2.8-26.8-7.4v0.7c0,28,19.9,52.4,47.4,57.9c-8.7,2.4-17.8,2.7-26.7,1c7.7,24,30,40.6,55.2,41
	c-20.9,16.4-46.8,25.4-73.4,25.3c-4.7,0-9.4-0.3-14.1-0.9C163,251.8,194.5,261,226.6,261"/>
</svg>
