<svg xmlns="http://www.w3.org/2000/svg" viewBox="0 0 561.34 289.65"><defs><style>.cls-1{fill:#fdfdfd;}.cls-2{fill:#fed9de;}.cls-3{fill:#98b3b0;}.cls-4{fill:#b9cdcb;}.cls-5{fill:#70948f;}.cls-6{fill:#e9e9e9;}.cls-7{fill:#25130e;}.cls-8{fill:#ebaa96;}.cls-9{fill:#dd9581;}.cls-10{fill:#efe3d8;}.cls-11{fill:#f3f3f3;}.cls-12{fill:#e4d5cb;}.cls-13{fill:#a1632f;}.cls-14{fill:#24120d;}.cls-15{fill:#e4b1b3;}.cls-16{fill:#b26b36;}.cls-17{fill:none;stroke:#b9cdcb;stroke-miterlimit:10;stroke-width:2px;}</style></defs><g id="Layer_2" data-name="Layer 2"><g id="group"><g id="msg-right"><path class="cls-1" d="M428.9,47.87c-.6,3.84.81,8.43-1.37,13-4,8.35-11.58,11-19.44,13a212.29,212.29,0,0,1-38.51,6.91c-5.12.37-10.5.93-15.4-.19s-7.9.82-11,3.66c-2.82,2.55-5,5.79-8.63,7.46-4.22,1.95-6.24.82-6.58-3.79-.45-6.23,1.74-12.1,2.75-18.1a36.62,36.62,0,0,0,0-12.66c-1.09-6.44-1.9-13,1-19.47,4-9,12.11-11.94,20.46-14.15a150.67,150.67,0,0,1,40.68-5.42,160,160,0,0,1,21.7,2.08c7,1.06,14.15,10.61,14.37,18.43C429,41.51,428.9,44.34,428.9,47.87Z"/></g><g id="msg-middle"><path class="cls-1" d="M258,17.31c0-13,5.66-18.45,18.19-17.11,10.19,1.09,20.26,3.25,29.57,7.94,6.36,3.2,8.16,7.12,6.64,14.2-1.3,6-2.32,12.06-.73,18.2a3.62,3.62,0,0,1-1.37,4,2.48,2.48,0,0,1-3.61-.44c-5.7-9.3-15.84-6.76-24.09-8.83a82.73,82.73,0,0,1-19.75-7.63C258.17,25.1,257.59,21.14,258,17.31Z"/></g><g id="msg-left"><path class="cls-1" d="M187.86,34.06c10.75-.54,21.67,2.35,32.5,5.37a15.54,15.54,0,0,1,10.75,17.38c-1.65,8.38-.42,16.4,1.44,24.48.51,2.24,1.41,5-1.2,6.26-2.21,1.1-4-.86-5.62-2.28a9.39,9.39,0,0,1-.71-.7c-4-4.48-8.14-6.93-15.08-5.85-11.05,1.71-22-1.43-32.79-4.17A55.32,55.32,0,0,1,169.63,72C162.5,69.11,160,65.27,160,57.59c0-4.82-.29-9.67,1.45-14.28,3.35-8.87,11.56-8.12,18.76-9.2C182.47,33.77,184.84,34.06,187.86,34.06Z"/></g><g id="plant"><path class="cls-2" d="M515.31,288.65c-.25-9.7-2.2-19.18-3.77-28.71-1-6.05-.48-7,4.82-7.29l8-.13,4.88.12,5.21-.15c2.64.41,5.26.65,7.76-.65,2.37.81,3.87,1.43,3.25,5-1.83,10.54-2.86,21.21-4.21,31.83Z"/><path class="cls-3" d="M529.29,252.64l-4.88-.12a5.48,5.48,0,0,0-.75-1.81c-6.4-6.45-10-14.24-11.62-23.11a14.32,14.32,0,0,0-3.77-8,51.61,51.61,0,0,1-.95-13.81c.81-5.19,2.54-10,6.23-13.86,4.37-4.5,8.42-4.2,12.09.76a76.27,76.27,0,0,1,7.68,14c-4.6,1.25-6.6,5-7.78,9-3.45,11.5-3.77,22.88,2.59,33.7A18.14,18.14,0,0,1,529.29,252.64Z"/><path class="cls-4" d="M529.29,252.64a18.14,18.14,0,0,0-1.16-3.25c-6.36-10.82-6-22.2-2.59-33.7,1.18-4,3.18-7.74,7.78-9l3.89.93a16.45,16.45,0,0,1,6,8.27c1.47,4,.4,7.82,0,11.72-5.45,7.4-11.1,14.73-8.75,24.87Z"/><path class="cls-3" d="M543.25,227.62c.4-3.9,1.47-7.74,0-11.72a16.45,16.45,0,0,0-6-8.27,27.75,27.75,0,0,1,6.94-11.35c5.79-5.42,12.43-3.85,15.07,3.7,3.67,10.48,2.95,20.22-5,28.67C550.34,224.14,548.91,224,543.25,227.62Z"/><path class="cls-5" d="M507.32,205.82a51.61,51.61,0,0,0,.95,13.81c-4.06,1-4.61,4.41-4.87,7.7s-.07,6.92-.08,10.38c-4.11-.55-6.19-3.74-8.08-6.76a83,83,0,0,1-9.33-21.41c-1.1-3.85-.39-7.26,2.93-9.83s6.64-1.46,9.75.39S504.42,203.9,507.32,205.82Z"/><path class="cls-5" d="M543.25,227.62c5.66-3.62,7.09-3.48,10.93,1,.09,9.82-4.91,17-11.92,23.19-2.5,1.3-5.12,1.06-7.76.65C532.15,242.35,537.8,235,543.25,227.62Z"/><path class="cls-4" d="M503.32,237.71c0-3.46-.19-6.94.08-10.38s.81-6.68,4.87-7.7a14.32,14.32,0,0,1,3.77,8c1.66,8.87,5.22,16.66,11.62,23.11a5.48,5.48,0,0,1,.75,1.81l-8,.13Z"/></g><g id="cup"><path class="cls-4" d="M34.41,287.31c0-9.46.15-18.92,0-28.37,0-3.34.8-4.8,4.43-4.64,6,.26,12,.12,17.92,0,2.32,0,4,.43,3.76,3.23-.14,1.86.94,2.34,2.58,2.92,5.84,2.06,8.41,5.61,8.39,10.93,0,5.66-2.18,8.83-8.29,10.83-3,1-2.59,3-2.77,5.06Zm26.07-16.05a14.41,14.41,0,0,0,0,2.46c.33,1.8-1.13,4.64,1.29,5.16s4.53-1.48,5.7-3.88,1.41-4.71,0-7.05c-1.31-2.14-2.84-4.75-5.53-4.17-2.85.62-1,3.62-1.45,5.51A9.25,9.25,0,0,0,60.48,271.26Z"/><path class="cls-6" d="M62.38,221.44a17.36,17.36,0,0,1-7.74,11.73c-4.65,3.11-6,7.17-4.65,12.44.44,1.71,1.36,4.12-.44,5s-2.91-1.66-4.14-2.86a13.17,13.17,0,0,1-3.72-10c.21-5-1.8-8.73-4.06-12.73-2.36-4.16-1.44-10.38,1.65-14,3.73-4.32,8.43-4.68,12.53-.75a17.82,17.82,0,0,0,6.6,4.27C60.94,215.46,62.4,218.26,62.38,221.44Z"/></g><g id="boy"><path class="cls-3" d="M355.43,239.72h-158c7.86-35.72,15.8-61.89,20.07-72.21,3.39-8.22,7.39-13.52,12.54-17.34a55.23,55.23,0,0,1,5.57-3.35A66.37,66.37,0,0,1,262.93,138a1.31,1.31,0,0,0,.59.64c1.62,3.93,4.64,7,6.58,10.71,2.1,4,3.78,3.29,6.43.5,5.7-6,5.94-6,10.77.56,1.86,2.52,2.71,1.69,3.84-.3l6-10.55a1.37,1.37,0,0,0,.42-.59c12.57,1.11,23,7.07,32.91,14.34,4.56,3.34,8.31,7.5,12.16,11.58C342.63,164.88,359.05,192.09,355.43,239.72Z"/><path class="cls-3" d="M283.69,239.73l25.86-.07a118.39,118.39,0,0,1,14.27-23.24c-1.79-7.59-2-15.31-1.83-23,0-1,.29-1.9,1.44-2.1,1.84-.31,3,.77,3.77,2.19,2.36,4.39,4.49,8.88,5.37,13.85,3.36-2.2,6.79-4.32,9.4-7.45"/><path class="cls-7" d="M270.36,114.52c-2.74-1.3-4.21-3.69-5.1-6.41a76.85,76.85,0,0,1-4.1-23.4c-.06-8.22,3.47-11.44,11.51-10.83a7.43,7.43,0,0,0,5.49-1.75,18.48,18.48,0,0,1,17.71-2.92,37.54,37.54,0,0,1,15.05,9.17c6.32,6.26,4.31,16.57-3.76,20.48-1.37.66-1.88-.89-3-.65-1-1.37-2.56-.71-3.87-.91-.47-.86-.82-2.2.19-2.38,5.28-1,2.6-4.12,1.77-6.45-1.43-4-4.5-6.06-8.81-6.43-8-.69-14,3.58-18.45,13.42h0c-2.5-.4-4.93-3.34-7.51,0s-2.54,8.37.78,10.93C271.38,108.74,271.39,111.38,270.36,114.52Z"/><path class="cls-8" d="M270.36,114.52c1-3.14,1-5.78-2-8.15-3.32-2.56-3.35-7.64-.78-10.93s5-.39,7.51,0c.85,2.73,4.39,1.88,5.59,4.29,3.71,7.44,6.17,8.06,12.28,3.29a12.71,12.71,0,0,1-.51,2.72c-.74,1.73-1.89,3.32.27,4.93s3.38-.44,5-1.13h3.71c.7,6.43-3.89,14.28-10.39,17.79-4.61-1.76-9.68-2.52-13.44-6.18-.49-.47-1.41-1-2.06-.36s-.28,1.75,0,2.64c2,5.5,12.13,12.26,18.45,12.27l3.61,3.23a1.27,1.27,0,0,1-.42.6c-11.36,5.22-22.56,4.95-33.61-.92a1.21,1.21,0,0,1-.6-.64C269,131.3,271.18,123.39,270.36,114.52ZM294.49,116c-1.71-1.52-4.1-1.64-6.16-2.44-.84-.32-1.69.14-1.48,1.1.51,2.32,2.29,3.18,4.48,3.28A2.79,2.79,0,0,0,294.49,116Z"/><path class="cls-9" d="M294,135.72c-6.32,0-16.49-6.77-18.45-12.27-.32-.89-.75-1.88,0-2.64s1.57-.11,2.06.36c3.76,3.66,8.83,4.42,13.44,6.18C291.19,130.42,292.54,133.08,294,135.72Z"/><path class="cls-10" d="M292.92,103c-6.11,4.77-8.57,4.15-12.28-3.29-1.2-2.41-4.74-1.56-5.59-4.29h0c3-.28,7.06,4.22,8.62-2l6.36,1a4.42,4.42,0,0,1,2.58,2.5c1.25,3.52,3,3.87,5.66,1.27a6.69,6.69,0,0,1,2.08-.91c1.31.2,2.82-.46,3.87.91l0,.12c-3.06.09-6.26.45-7.15,3.91-.85,3.29,1.45,5.11,4.28,6.25l.06,1.07h-3.71a15.36,15.36,0,0,1-2.12-5.9C295.35,101.76,294.44,100.53,292.92,103Zm-1-3.17c-.55-2.73-1.79-4.6-4.95-4.42-2.83.15-4.34,1.59-4.3,4.38a4.37,4.37,0,0,0,4.8,4.58A4.52,4.52,0,0,0,291.9,99.86Z"/><path class="cls-8" d="M301.29,108.49c-2.83-1.14-5.13-3-4.28-6.25.89-3.46,4.09-3.82,7.15-3.91C303.51,101.81,304.52,105.75,301.29,108.49Z"/><path class="cls-5" d="M219.82,239.72c7.19-24.65,12.6-42.69,13.65-45.81.25-.76,1.07-2.93,2.6-3.38a2.71,2.71,0,0,1,1.7.07c2.32.76,1.78,3,1.3,4.84-.88,3.29,0,5-.58,11.61-.49,5.36-2.4,17.29-6.63,32.67Z"/><path class="cls-11" d="M263.53,138.63c11.05,5.87,22.25,6.14,33.61.92l-6,10.54c-1.13,2-2,2.84-3.84.31-4.83-6.54-5.07-6.55-10.77-.55-2.65,2.78-4.33,3.48-6.43-.51C268.16,145.64,265.14,142.57,263.53,138.63Z"/><path class="cls-8" d="M283.66,93.42c-1.56,6.26-5.65,1.76-8.62,2,4.49-9.84,10.45-14.11,18.45-13.42,4.31.37,7.38,2.42,8.81,6.43.83,2.33,3.51,5.5-1.77,6.45-1,.18-.66,1.52-.19,2.38a6.69,6.69,0,0,0-2.08.91c-2.62,2.6-4.41,2.25-5.66-1.27a4.42,4.42,0,0,0-2.58-2.5c.59-2.81-1.31-3.29-3.37-3.63S283.39,91.11,283.66,93.42Z"/><path class="cls-9" d="M292.92,103c1.52-2.5,2.43-1.27,2.6.62a15.36,15.36,0,0,0,2.12,5.9c-1.58.69-2.77,2.77-5,1.13s-1-3.2-.27-4.93A12.71,12.71,0,0,0,292.92,103Z"/><path class="cls-11" d="M294.49,116a2.79,2.79,0,0,1-3.16,1.94c-2.19-.1-4-1-4.48-3.28-.21-1,.64-1.42,1.48-1.1C290.39,114.37,292.78,114.49,294.49,116Z"/><path class="cls-8" d="M291.9,99.86a4.52,4.52,0,0,1-4.45,4.54,4.37,4.37,0,0,1-4.8-4.58c0-2.79,1.47-4.23,4.3-4.38C290.11,95.26,291.35,97.13,291.9,99.86Z"/><path class="cls-7" d="M283.66,93.42c-.27-2.31.93-3,3-2.61s4,.82,3.37,3.63Z"/><circle class="cls-7" cx="286.95" cy="98.78" r="1.29"/><circle class="cls-7" cx="302.43" cy="101.89" r="1.29"/><path class="cls-5" d="M337.63,239.72H327.26l-3.44-23.3c-1.8-7.59-2-15.31-1.83-23,0-1,.29-1.9,1.44-2.1a3.17,3.17,0,0,1,1.55.09,4.34,4.34,0,0,1,2.22,2.1,115.42,115.42,0,0,1,5.63,14,77.95,77.95,0,0,1,4.8,32.3Z"/></g><g id="girl-right"><path class="cls-10" d="M300.92,288.26q6.22-26.4,12.47-52.8a82.71,82.71,0,0,1,8.66-21.38,81.8,81.8,0,0,1,7.81-11.2l8.76-9.11c3.35-2.21,6.78-4.32,9.39-7.46,3.45-.23,5.6-3.5,9-3.84,1.24,6.56,4.58,12,8.51,17.32,2.74,3.68,5.14,3.3,7.92.33a205.86,205.86,0,0,0,17.52-21c11.94.74,23.07,4.38,33.88,9.24,1.3.58,2.81,2.52,4.2,0,.44,2.15,1.82,3.23,3.72,4.38,11.81,7.14,21.11,16.11,27.44,27.13A69.59,69.59,0,0,1,468.68,244c1.2,7.14,3.73,23.55-4.75,39.4a48.47,48.47,0,0,1-3.64,5.79H379.75Zm75-21.6c-.16,4.59,2,4,4.08,2.57,5-3.5,10.51-6,16-8.43,10.37-4.57,20.76-9.11,31.2-13.53,1.93-.82,2.28-1.65,1.46-3.5-2.28-5.13-4.63-10.27-8.37-14.48-4.41-5-9.47-5.73-13.16.68-2.76,4.8-5.45,9.7-9,14.06-4,4.88-9.69,7.18-14.76,10.4C378.56,257.5,377.26,262.4,375.9,266.66Z"/><path class="cls-8" d="M348.59,289c0-1.9,0-3.8,1.08-5.49,7.39-.48,14.94.09,21.81-3.57,1.8-1,2.5-.29,2.61,1.64.16,2.62.5,5.23.76,7.84Z"/><path class="cls-7" d="M429,188.35c-1.39,2.51-2.9.57-4.2,0-10.81-4.86-21.94-8.5-33.88-9.24a13,13,0,0,1-4.65-3.8c-4.28-6.26-5.41-13.52-6.63-20.76-.31-1.87,1.08-2.27,2.3-3,4.07-2.41,5.5-6.06,4.08-10.28-.73-2.17-2.29-3.91-4.54-2.72-2.94,1.55-3.2,0-3.82-2.17-1.77-6.29-5-11.49-11.63-13.62s-12.8.93-15,7.46c-.27.82-1.12,1.83.2,2.33,4.76,1.79,3.21,3-.38,3.7-1.65.33-1.44,1.88-2.36,2.62a23.13,23.13,0,0,1-7.88-12.41c-1.66-6.54-.3-12.34,4.77-17a28.78,28.78,0,0,1,37-1.85,8.6,8.6,0,0,0,5,2.2c7.05.34,11.95,4.15,15.14,10.18a36.19,36.19,0,0,1,3.68,9c2.53,11.77,8.76,21.5,16,30.76,4.87,6.22,9,12.77,8,21.24C429.87,183.44,429.42,185.89,429,188.35Z"/><path class="cls-8" d="M349.21,134.58c.5-1.4,1-2.81,1.51-4.21a12.32,12.32,0,0,1,5.83-7,12.52,12.52,0,0,1,9.52-.65c6.66,2.13,9.86,7.33,11.63,13.62.62,2.2.88,3.72,3.82,2.17,2.25-1.19,3.81.55,4.54,2.72,1.42,4.22,0,7.87-4.08,10.28-1.22.72-2.61,1.12-2.3,3,1.22,7.24,2.35,14.5,6.63,20.76a13,13,0,0,0,4.65,3.8,205.86,205.86,0,0,1-17.52,21c-2.78,3-5.18,3.35-7.92-.33-3.93-5.28-7.27-10.76-8.51-17.32a17,17,0,0,0,7.73-7.67c6.86-1.36,9.66-5.39,9.85-14.33l-9.6,6.19a14,14,0,0,1-11.27-.93,61.29,61.29,0,0,1-5.05-14.4l-.1-13.05m9.82,20.6c1.47-.14,3.5-.37,4.33-2.69.36-1,1.3-2.25.52-3.06-1.65-1.73-3.4.43-5.16.33a3,3,0,0,0-1.31.43c-1.34.67-3.89.24-3.44,2.63C353.73,158.67,355.84,159,358.39,158.88Zm8.75-26.75c-1,.33-3-.19-3,1.79s1.87,1.61,3.19,1.57,3.14.44,3-1.81C370.15,131.89,368.58,132.25,367.14,132.13Zm-9.52,11.67c-.91,1.79-3.29,2.85-2.61,5.25.2.71,1.67,1.47,2.3.76C358.84,148.05,357.86,145.9,357.62,143.8Z"/><path class="cls-12" d="M375.9,266.66c1.36-4.26,2.66-9.16,7.48-12.23,5.07-3.22,10.77-5.52,14.76-10.4,3.56-4.36,6.25-9.26,9-14.06,3.69-6.41,8.75-5.66,13.16-.68,3.74,4.21,6.09,9.35,8.37,14.48.82,1.85.47,2.68-1.46,3.5-10.44,4.42-20.83,9-31.2,13.53-5.53,2.44-11,4.93-16,8.43C377.91,270.69,375.74,271.25,375.9,266.66Z"/><path class="cls-7" d="M353.72,165.73a14,14,0,0,0,11.27.93c1,2.75-.14,5.43-.25,8.14a17,17,0,0,1-7.73,7.67c-3.4.34-5.55,3.61-9,3.84C348.54,179.07,351.51,172.51,353.72,165.73Z"/><path class="cls-9" d="M364.74,174.8c.11-2.71,1.28-5.39.25-8.14l9.6-6.19C374.4,169.41,371.6,173.44,364.74,174.8Z"/><path class="cls-8" d="M358.39,158.88c-2.55.1-4.66-.21-5.06-2.36-.45-2.39,2.1-2,3.44-2.63a3,3,0,0,1,1.31-.43c1.76.1,3.51-2.06,5.16-.33.78.81-.16,2.06-.52,3.06C361.89,158.51,359.86,158.74,358.39,158.88Z"/><path class="cls-7" d="M367.14,132.13c1.44.12,3-.24,3.13,1.55.16,2.25-1.68,1.77-3,1.81s-3.22.53-3.19-1.57S366.11,132.46,367.14,132.13Z"/><path class="cls-9" d="M357.62,143.8c.24,2.1,1.22,4.25-.31,6-.63.71-2.1-.05-2.3-.76C354.33,146.65,356.71,145.59,357.62,143.8Z"/><circle class="cls-7" cx="365.99" cy="138.71" r="1.29"/><circle class="cls-7" cx="349.85" cy="138.87" r="1.29"/><path class="cls-7" d="M350.13,132.43c1.44.11,3-.24,3.13,1.54.16,2.25-1.68,1.78-3,1.81s-3.22.53-3.19-1.57S349.1,132.76,350.13,132.43Z"/><path class="cls-11" d="M362.78,152.17a32.9,32.9,0,0,1-9.51,2.67s.49,4.27,6,3.95C364.13,157.12,362.78,152.17,362.78,152.17Z"/></g><g id="girl-left"><path class="cls-1" d="M293.92,226.49c12.28.08,24.56.12,36.83.24,5.71.05,7.4,1.81,7.5,7.51-5.88,2.73-10.53,7.15-15.41,11.24-3.37,2.82-6.4,6.11-8,10.27-2.92,7.84-9.05,12.27-15.8,16.48s-13.6,8.95-16.18,17.34H239.75c.26-3-.12-5.63-4.05-4.56-3.53,1-7.15.23-10.56.95-3.65.76-8.17-.53-10.72,3.61h-4.69l-1.31-3.36c.65-2.75,2.53-3.49,5.16-3.6,4.3-.17,8.65.77,12.89-.56,3.27,0,6.55-.16,9.81.1,3.53.29,4.83-1.2,5.55-4.59,3.19-15,6.86-29.89,9.93-44.91.88-4.32,3.16-5.75,7-5.92,3.11-.13,6.23-.12,9.34-.17Zm-.67,28.38c-5,0-8.16,2.61-8.32,6.85-.13,3.6,3.19,7.23,6.55,7.15,4.14-.11,8.17-4,8.3-8C299.91,257,297.6,254.89,293.25,254.87Z"/><path class="cls-2" d="M93.62,289.41c-1.38-3.53-5.32-4.8-6.85-8.5-4.27-10.3-2.86-20.83-1.77-31.24,1-9.45,5.39-17.95,9.54-26.41,4.13-4.85,7.4-10.38,12-14.81a117.73,117.73,0,0,1,58.53-30.38c1.79.53,2.54,2.15,3.59,3.46a23.53,23.53,0,0,0,14.74,8.87c4.08.72,6.56-1,8.12-4.46.62-1.4,1-2.92,1.47-4.39,7.61,2.51,14.28,6.91,21.32,10.57l7.69,6.43c4.34,4.62,8.87,9.1,12.11,14.61,1.53,2.6,2.29,1.72,3.25-.35,1.8-3.93,3.74-7.8,5.57-11.72,1.22-2.6,2.79-4.46,6-3.41a26.79,26.79,0,0,0,8.53,3.33,20.31,20.31,0,0,0,4.32,1.73c4.69.76,5.55,3.62,5.45,7.9-.13,5.24-.68,10.59.95,15.76-3.12,0-6.23,0-9.34.17-3.81.17-6.08,1.6-7,5.92-3.08,15-6.74,29.92-9.93,44.91-.72,3.39-2,4.88-5.56,4.59-3.25-.26-6.54-.08-9.81-.1-1.37-3.91-4.55-4.8-8.2-4.91,2.27-18.5,7.57-36.2,14.22-53.53,2.71-7,1.86-8.56-5.75-10-8.17-1.57-11.57,1.8-9.39,9.75a43.75,43.75,0,0,1-1.34,28.37c-3.27,8.34-4.84,17-3.23,26a29.38,29.38,0,0,1-13.24,1.78c-8.65-.53-8.65-.45-9.94,7.82-.12.77-.33,1.51-.5,2.27ZM188,265.05a7.92,7.92,0,0,0-3.64-6.14c-3.43-2.15-6.94-4.18-10.44-6.23-9.15-5.35-18.7-10.19-22.32-21.42a13.63,13.63,0,0,0-4.78-6.27c-1.89-1.45-4.1-2.77-6.39-1.13-6.1,4.39-11.83,9.21-15.12,16.23-2.41,5.16-2,5.68,3.61,7.25,18.77,5.24,37.46,10.72,54.56,20.42C186.81,269.63,187.61,267.86,188,265.05Z"/><path class="cls-6" d="M283.11,289.41c2.58-8.39,9.32-13.07,16.18-17.35s12.87-8.63,15.8-16.47c1.55-4.16,4.59-7.45,8-10.27,4.87-4.09,9.53-8.51,15.4-11.24.75,4.64-1.39,8.87-2.23,13.23-2.21,11.35-5.26,22.54-7.92,33.81a14.29,14.29,0,0,0-.11,2.79c-1.07,1.7-1,3.6-1,5.5Z"/><path class="cls-13" d="M226.67,281.89c-4.24,1.33-8.59.38-12.88.56-2.64.11-4.52.85-5.16,3.6-4.86,1.2-10,1.27-14.64,3.36H189.3c.17-.76.38-1.5.5-2.27,1.29-8.27,1.29-8.35,9.94-7.82A29.38,29.38,0,0,0,213,277.54l5.49-.56C222.12,277.09,225.3,278,226.67,281.89Z"/><path class="cls-6" d="M214.63,289.41c2.55-4.15,7.07-2.85,10.72-3.61,3.41-.72,7,0,10.55-.95,3.93-1.07,4.31,1.6,4.06,4.56Z"/><path class="cls-2" d="M194,289.41c4.66-2.09,9.78-2.16,14.64-3.36.43,1.12.87,2.24,1.31,3.36Z"/><path class="cls-14" d="M165.12,178.07a117.73,117.73,0,0,0-58.53,30.38c-4.65,4.43-7.92,10-12,14.81-14.69-8.73-18.63-22.71-18.29-38.47.29-13.58,5.58-25,15.74-34.28,11-10,22.29-19.12,37.43-21.83a64,64,0,0,1,21.44,0c7.28,1.16,16.38-3.92,19.37-10.5.91-2-.53-2.44-1.42-3.35-5.1-5.21-6-9.95-3-15.62,2.72-5.12,8.29-7.35,14.89-6,6.91,1.46,10.23,6.73,8.71,15.06-.69,3.79-.34,5.11,3.88,5.67,11.53,1.53,16.79,8.62,16.37,21a4.65,4.65,0,0,1-1.24.62c-1.36.2-3.16.67-3.83-.75-1-2.11,1.08-2,2.32-2.35s1-1.36.69-2.27c-1.62-4.42-3.91-8-9.08-9-7.47-1.43-14.39,2.92-18.32,11.88-1.07,2.46-1.35,5.71-5.52,3.51-1.26-.67-2.64.34-3.51,1.64-2.35,3.49-1.7,7.63,1.75,10.66a3.21,3.21,0,0,0,3.18,2.84,46.59,46.59,0,0,1-5.8,22.14C169.2,176.05,167.7,177.76,165.12,178.07Z"/><path class="cls-13" d="M165.12,178.07c2.58-.31,4.08-2,5.19-4.13a46.59,46.59,0,0,0,5.8-22.14c2.08-1,3-2.62,1.2-4.31s-3.38-.43-4.38,1.47c-3.45-3-4.1-7.17-1.75-10.66.87-1.3,2.25-2.31,3.51-1.64,4.17,2.2,4.45-1,5.52-3.51,3.93-9,10.85-13.31,18.32-11.88,5.17,1,7.46,4.59,9.08,9,.33.91.57,1.87-.69,2.27s-3.32.24-2.32,2.35c.67,1.42,2.47.95,3.83.75a4.65,4.65,0,0,0,1.24-.62l-.57,5.23a61.36,61.36,0,0,1-2.16,17.54c-2.36,8.28-5.65,10.56-14,9.83-1.93-.16-2.52.53-2.57,2.26A20.83,20.83,0,0,0,193,181.55c-.49,1.47-.85,3-1.47,4.39-1.56,3.5-4,5.18-8.12,4.46a23.53,23.53,0,0,1-14.74-8.87C167.66,180.22,166.91,178.6,165.12,178.07ZM197.61,154c-1.64-.11-3-.22-2.67,1.75a4.46,4.46,0,0,0,4.46,4c2.58.09,4.76-1.87,4.22-3.89C202.85,152.88,199.28,155.17,197.61,154Zm-7-21.18c-1,.27-2.88-.43-3,1.68-.1,1.67,1.3,1.94,2.62,1.92,1.52,0,3.47.2,3.5-2C193.78,132.58,192.1,132.89,190.65,132.77Z"/><path class="cls-15" d="M188,265.05c-.43,2.81-1.23,4.58-4.52,2.71-17.1-9.7-35.79-15.18-54.56-20.42-5.62-1.57-6-2.09-3.61-7.25,3.29-7,9-11.84,15.12-16.23,2.29-1.64,4.5-.32,6.39,1.13a13.63,13.63,0,0,1,4.78,6.27c3.62,11.23,13.17,16.07,22.32,21.42,3.5,2,7,4.08,10.44,6.23A7.92,7.92,0,0,1,188,265.05Z"/><path class="cls-15" d="M218.47,277l-5.49.56c-1.61-9,0-17.65,3.23-26a43.75,43.75,0,0,0,1.34-28.37c-2.18-8,1.22-11.32,9.39-9.75,7.61,1.46,8.46,3,5.75,10C226,240.78,220.74,258.48,218.47,277Z"/><path class="cls-13" d="M249,197.68c1-2.79,2.36-5.51,2.92-8.38,1.37-7.1,6.68-10.57,12.12-14,.39-.25,1.06-.65,1.26-.5,3.8,2.66,6.06-.82,8.85-2.14.88-.41,1.86-.7,2.6.1,1,1,.16,2.12-.37,3-2.92,4.71-7.19,8.2-11.28,11.77A21.75,21.75,0,0,0,257.55,201,26.79,26.79,0,0,1,249,197.68Z"/><path class="cls-6" d="M293.46,254.71c4.35,0,6.66,2.14,6.53,6-.14,4-4.17,7.91-8.31,8-3.35.08-6.68-3.55-6.54-7.15C285.29,257.32,288.48,254.69,293.46,254.71Z"/><path class="cls-11" d="M172.93,149c1-1.9,2.54-3.18,4.38-1.47s.88,3.33-1.2,4.31A3.21,3.21,0,0,1,172.93,149Z"/><path class="cls-7" d="M190.65,132.77c1.45.12,3.13-.19,3.11,1.58,0,2.22-2,2-3.5,2-1.32,0-2.72-.25-2.62-1.92C187.77,132.34,189.65,133,190.65,132.77Z"/><circle class="cls-7" cx="207.7" cy="138.77" r="1.29"/><circle class="cls-7" cx="191.99" cy="138.75" r="1.29"/><path class="cls-13" d="M193,152s-.34,8.39,6.13,8.8,6-8.12,6-8.12S196.62,151.36,193,152Z"/><path class="cls-11" d="M194.88,154.15s-.24,5.28,4.52,5.53,4.43-5.1,4.43-5.1S197.58,153.74,194.88,154.15Z"/><path class="cls-16" d="M199.32,142.64s-.06,7.32.78,6.84,2.77-1.82,1.89-3.08S199.32,142.64,199.32,142.64Z"/></g><g id="baseline"><line class="cls-17" x1="558.19" y1="288.65" y2="288.65"/></g></g></g></svg>