<svg xmlns="http://www.w3.org/2000/svg" viewBox="0 0 529.47 244.26"><defs><style>.cls-1{fill:#99b4b1;}.cls-2{fill:#efe3d8;}.cls-3{fill:#e4d5cb;}.cls-4{fill:#ecab97;}.cls-5{fill:#281610;}.cls-6{fill:#dd9481;}.cls-7{fill:#25130e;}.cls-8{fill:#f3f3f3;}.cls-9{fill:#fed9de;}.cls-10{fill:#a2632f;}.cls-11{fill:#24120d;}.cls-12{fill:#e3b1b3;}.cls-13{fill:#b26b36;}</style></defs><g id="Layer_2" data-name="Layer 2"><g id="clap"><g id="msg-right"><path class="cls-1" d="M255.35,40.62c3.86,5.84,10.37,7.18,22.61,9.78,7.39,1.56,17.38,3.86,30.44,2.84,9.06-.71,12.88-2.46,16.83.41,4.51,3.3,5.8,10.17,10.93,10.76a6.81,6.81,0,0,0,2.43-.19,11,11,0,0,0,1.28-3.47c1-5.65-2.91-10.25-3.66-11.09,1.33-3.53,9.07-24.93-1.53-36.69-3-3.29-6.39-5.43-11.94-6.63A322.61,322.61,0,0,0,276.87,0s-23.21-1.69-23.61,16.23C253,26.36,251.39,34.61,255.35,40.62Zm55.53-13a3.66,3.66,0,1,1,3.68,3.64A3.67,3.67,0,0,1,310.88,27.58Zm-18.28-1.7a3.65,3.65,0,1,1,3.67,3.65A3.65,3.65,0,0,1,292.6,25.88Zm-18.29-1.7A3.66,3.66,0,1,1,278,27.82,3.65,3.65,0,0,1,274.31,24.18Z"/></g><g id="msg-left"><path class="cls-1" d="M223.64,51.25C223.32,37.1,205,38.44,205,38.44a254.38,254.38,0,0,0-36.22,5,16.36,16.36,0,0,0-9.43,5.24c-8.37,9.28-2.26,26.18-1.21,29-.59.66-3.71,4.29-2.89,8.75a8.8,8.8,0,0,0,1,2.74,5.17,5.17,0,0,0,1.92.15c4-.46,5.07-5.89,8.63-8.49,3.12-2.27,6.14-.89,13.29-.33,10.31.81,18.2-1,24-2.24,9.66-2,14.8-3.11,17.85-7.72S223.82,59.22,223.64,51.25Zm-48.4,11.81a2.89,2.89,0,1,1,2.9-2.88A2.9,2.9,0,0,1,175.24,63.06Zm14.44-1.34a2.89,2.89,0,1,1,2.9-2.88A2.89,2.89,0,0,1,189.68,61.72Zm14.44-1.35A2.89,2.89,0,1,1,207,57.5,2.88,2.88,0,0,1,204.12,60.37Z"/></g><g id="boy"><path class="cls-2" d="M208.71,147.83c3.54-4.06,7.77-7.56,10.9-11.94,2.43-3.41,4.33-4,7.35-1.22.44.4,1.22.41,1.84.6,1.77,3.28,4.93,4.7,8.13,6.06,1.43,2.95,6.34,3,5.27,8.42-3.13,15.71-8.22,30.67-17,43.95-5.6,8.45-12.3,16.47-22.25,20.58-1.44-3.36-4.4-4.76-7.54-6-8-3.24-16.66-2.67-24.79-5a12.46,12.46,0,0,1-7.25-4.68c-4.69-6.26-5.82-13.56-7.43-20.8-1.35-6.12-2.33-12.39-6.55-17.44-1.27-1.52-2.75-2.6-4.75-1.7s-1.21,2.57-1,4.28c1.86,17.76,3.59,35.54,5.35,53.31,0,9.36,1.7,18.65,1,28H70a21.32,21.32,0,0,0,.9-10.34c-1-6.7-1.38-13.51-3.54-20a35.09,35.09,0,0,1-.19-22.39c1.17-3.61.79-7.25.77-10.88,0-2-.54-4.55-2.72-4.78-2.49-.26-2.66,2.45-3.17,4.31-.31,1.11-.4,2.28-.66,3.4C56.58,204.09,50,224.09,44,244.26H0c.3-2.36.83-6.5,1.59-11.63,0,0,3.21-21.61,8.39-44.44.21-.93,1.35-5.93,2.92-12.92.58-2.59.91-4.07,1-4.28,7.85-34.92,27.78-50.75,27.78-50.75a64.35,64.35,0,0,1,6.61-4.58,69.67,69.67,0,0,1,26.58-9.38c9.74,7.16,20.53,7.31,31.66,4.56,1.72-.43,4.05-.88,4.38-3.45,12.42,3.64,22.74,10.3,30.62,20.72,6.17,8.17,11,17.32,18.19,24.72,5.52,5.66,11.47,10.45,19.46,12.06a8.76,8.76,0,0,0,3,0,22.66,22.66,0,0,0,10.92-4A66.77,66.77,0,0,0,208.71,147.83Z"/><path class="cls-3" d="M44,244.26c6-20.17,12.59-40.17,17.38-60.69.26-1.12.35-2.29.66-3.4.51-1.86.68-4.57,3.17-4.31,2.18.23,2.7,2.77,2.72,4.78,0,3.63.4,7.27-.77,10.88a35.09,35.09,0,0,0,.19,22.39c2.16,6.5,2.58,13.31,3.54,20a21.32,21.32,0,0,1-.9,10.34Z"/><path class="cls-4" d="M117.73,61.12c0,6.47.72,12.93-.66,19.39-1.78,8.35-4.23,10.85-12.8,12.09L88.58,84.36c1.08,8.2,8.5,15,16.77,15.9,1.65,2.52,2.82,5.42,5.52,7.13-.33,2.57-2.66,3-4.38,3.45-11.13,2.75-21.92,2.6-31.66-4.56,6.69-4.49,7.24-11.68,8.16-18.67a42.71,42.71,0,0,0,.07-5.43c.1-.12.26-.24.31-.38,1-3.06.16-5-2.71-7-3.73-2.49-3.42-6.61-2.22-10.41.75-2.36,3-2.82,4.93-1.84,3.14,1.57,2.77-1,3.13-2.43,1.11-4.6,2.82-8.88,6.34-12.19,7.24-6.79,17.37-5.34,21.34,3,.42.87,1,2.59.81,2.7-8.1,4.59,0,3.83,1.65,5.25C117.21,59.44,117.38,60.38,117.73,61.12Zm-9.68,3.12c-1.68,2.71-.91,4.9-1.07,7s.45,3.44,2.8,2.91a2.62,2.62,0,0,0,1.91-3.88A50.42,50.42,0,0,0,108.05,64.24Zm3.53,14.88c-1.8-1.5-4-.69-6-.87-.9-.08-2.41-.09-2,1.37.64,2.15,2.85,2.19,4.57,2.2A3.33,3.33,0,0,0,111.58,79.12ZM97.74,58.41c1.33-.19,3.32.41,3.19-1.9-.11-2.07-2-1.85-3.42-1.81s-3.37,0-3.26,2S96.32,58.29,97.74,58.41Z"/><path class="cls-3" d="M182.91,221.3a82,82,0,0,1-24.11-2.38c-3.3-.79-6.58-1.71-9.85-2.68-1.76-17.77-3.49-35.55-5.35-53.31-.18-1.71-1-3.37,1-4.28s3.48.18,4.75,1.7c4.22,5.05,5.2,11.32,6.55,17.44,1.61,7.24,2.74,14.54,7.43,20.8a12.46,12.46,0,0,0,7.25,4.68c8.13,2.31,16.83,1.74,24.79,5,3.14,1.27,6.1,2.67,7.54,6-.29.32-.72.79-1.28,1.31C199.43,217.65,195,220.69,182.91,221.3Z"/><path class="cls-5" d="M117.73,61.12c-.35-.74-.52-1.68-1.09-2.17-1.67-1.42-9.75-.66-1.65-5.25.19-.11-.39-1.83-.81-2.7-4-8.37-14.1-9.82-21.34-3-3.52,3.31-5.23,7.59-6.34,12.19-.36,1.48,0,4-3.13,2.43-2-1-4.18-.52-4.93,1.84-1.2,3.8-1.51,7.92,2.22,10.41,2.87,1.91,3.71,3.9,2.71,7-.05.14-.21.26-.31.38-8.53-8.79-12.73-19.7-14.65-31.47-.83-5.16,2.3-8.51,8-9.58a12,12,0,0,0,7.76-4.43c3.77-4.61,9-6.67,15-6.67a39.24,39.24,0,0,1,19.45,5.47c6.8,3.85,8.55,9.46,5.07,16.46C122.07,55.2,119.74,58.07,117.73,61.12Z"/><path class="cls-6" d="M105.35,100.26c-8.27-.88-15.69-7.7-16.77-15.9l15.69,8.24Z"/><path class="cls-6" d="M108.05,64.24a50.42,50.42,0,0,1,3.64,6,2.62,2.62,0,0,1-1.91,3.88c-2.35.53-2.94-1-2.8-2.91S106.37,67,108.05,64.24Z"/><path class="cls-4" d="M111.58,79.12a3.33,3.33,0,0,1-3.44,2.7c-1.72,0-3.93,0-4.57-2.2-.44-1.46,1.07-1.45,2-1.37C107.55,78.43,109.78,77.62,111.58,79.12Z"/><path class="cls-5" d="M97.74,58.41c-1.42-.12-3.39.5-3.49-1.66s1.87-2,3.26-2,3.31-.26,3.42,1.81C101.06,58.82,99.07,58.22,97.74,58.41Z"/><path class="cls-4" d="M244,132a55.72,55.72,0,0,1-7.05,9.31c-3.2-1.36-6.37-2.77-8.14-6.05,6.43-5.82,8-13.59,9.25-21.69.34-2.22.64-10.4,4.23-12.1a2.06,2.06,0,0,1,1.07-.23c2.58.2,4.43,6,5,10C248.31,111.3,249,116.49,244,132Z"/><circle class="cls-7" cx="98.13" cy="60.92" r="1.37"/><circle class="cls-7" cx="113.99" cy="60.92" r="1.37"/><path class="cls-8" d="M111.58,78.09s-6.72.59-8.09-.11a3.5,3.5,0,0,0,3.69,3.82C111.58,81.71,111.58,78.09,111.58,78.09Z"/></g><g id="girl"><path class="cls-9" d="M258.51,134.09c7.45-3.67,11.12,2.63,15.6,6.19A99,99,0,0,0,286.53,149c6.29,5.59,14.12,6.94,22.06,8a7.45,7.45,0,0,0,5.45-1.81c9.68-7.13,16.2-17.42,25.56-25,14.59-11.79,30.45-19.66,49.48-20.21,2,4.8,4.59,9,10.51,9.07,6.43,0,11.55-2.37,14.12-8.74a99.44,99.44,0,0,1,34.65,9.37,102,102,0,0,1,42.34,38.55l11.81,18.14q7.83,16.25,15.68,32.49c3,8.09,5.81,16.58,8.49,25.46q1.47,4.88,2.79,9.65h-36c-3.26-8.29-8.94-15.19-13.15-22.94,1-3,.26-6.06-.37-9-2.69-12.62-11.21-22.39-16.77-33.62-.95-1.91-3.29-3.18-5.12-4.6-.83-.65-1.7-2-3-1.14-.93.59-.69,1.83-.56,2.76,1.17,7.81,1.15,15.82,4,23.34-.73,9.25,2.09,18.23,2.1,27.43.3,1.28.6,2.56.91,3.84,0,1.11.06,2.23.1,3.35.61,3.5,1.27,7,.87,10.58h-123a88.64,88.64,0,0,1,.24-8.94c1.13-9.15,2.51-18.27,3.67-27.42.2-1.56.58-3.35-.93-4.66a11.1,11.1,0,0,0,1.49-3.14c1.24-9.67,2.38-19.35,3.48-29,.3-2.68-1.3-2.57-3.16-1.88-3.84,1.44-5.86,4.74-8,7.88-8.9,13-19.88,21.92-36.88,21.48-5.19-.14-11.47-.05-14.93,5.74-7.39-3.77-14-8.35-19.14-15.15-8.81-11.62-14.45-24.79-19.71-38.16-3.08-7.86-2.89-7.93,3.14-13.1C252.61,138,255.6,136.17,258.51,134.09Z"/><path class="cls-10" d="M248.79,137.63c-1.39-2.24-2.86-4.43-5.18-5.86-3.91-5.33-4.65-11.42-4.19-17.78.09-1.23-.44-3.29,1.15-3.36,2.87-.12,2-1.88,2-3.34,0-2.14-.14-4.28-.21-6.41,2.55-2.13,3.1.49,3.88,1.81,2.74,4.64,3.52,10,4.06,15.13.68,6.61,3.21,12,8.2,16.27C255.6,136.17,252.61,138,248.79,137.63Z"/><path class="cls-11" d="M369.44,66.22c-2.05-13.42,4.62-22.55,17.92-24.17,3.21-.39,4.4-.71,3.55-4.63C388.42,26,395.1,18.19,405.61,19.5,411,20.17,415,22.76,417,28s1.18,10.35-3.05,14.14c-2.88,2.59-2.26,3.85.42,5.87,5.35,4.06,11.33,5.65,17.93,6.55,17.72,2.4,34.14,7.84,48.92,16.88a102.39,102.39,0,0,1,17.61,13.22,78.61,78.61,0,0,1,15.67,22.53,41.34,41.34,0,0,1,2.34,14.77,41.94,41.94,0,0,1-6.38,21,37,37,0,0,1-14.08,11.36,35.64,35.64,0,0,1-6.81,2.29c-11.43-14.82-23.92-28.48-41.16-36.78-11-5.27-22.21-9.53-34.65-9.37-5.17-7-7.08-15.26-8.66-23.65-.5-2.7-.17-4.18,2.35-5.65A9.12,9.12,0,0,0,411,69.31c-.79-1.81-2.41-3.81-4-2.83-4.74,2.84-4.89-.77-6.16-3.54a31.91,31.91,0,0,0-4.36-7.23c-7.64-9-20.88-7.44-24.72,2.84-.64,1.74-1.73,3.56,1.56,3.69a1.74,1.74,0,0,1,1.78,2c-.11,1.18-1,1.61-2.11,1.73S370.6,66.13,369.44,66.22Z"/><path class="cls-10" d="M369.44,66.22c1.16-.09,2.33-.15,3.48-.27s2-.55,2.11-1.73a1.74,1.74,0,0,0-1.78-2c-3.29-.13-2.2-2-1.56-3.69,3.84-10.28,17.08-11.88,24.72-2.84a31.91,31.91,0,0,1,4.36,7.23c1.27,2.77,1.42,6.38,6.16,3.54,1.63-1,3.25,1,4,2.83a9.12,9.12,0,0,1-3.57,11.75c-2.52,1.47-2.85,3-2.35,5.65,1.58,8.39,3.49,16.6,8.66,23.65-2.57,6.37-7.69,8.78-14.12,8.74-5.92,0-8.53-4.27-10.51-9.07a28.2,28.2,0,0,0,.21-10.32c-10.89,1.57-14.91-1.12-17.72-11.89C369.73,80.74,369.58,73.48,369.44,66.22ZM381.88,85c-1.54,1.82-5.67-1.33-6.3,2.62-.31,2,1.85,3.69,4.4,3.65,3,0,4.46-1.81,5-4.5C385.4,84.33,383.43,85.42,381.88,85Zm7.5-22.78c-1.45.09-3.34,0-3.3,2,.05,2.36,2.2,1.87,3.74,1.93s3.27,0,3-2.09S390.83,62.28,389.38,62.22Z"/><path class="cls-12" d="M308.65,211.24a55.66,55.66,0,0,1-7.64-1,58.09,58.09,0,0,1-9.43-2.71L284.5,204c3.46-5.79,9.74-5.88,14.93-5.74,17,.44,28-8.5,36.88-21.48,2.15-3.14,4.17-6.44,8-7.88,1.86-.69,3.46-.8,3.16,1.88-1.1,9.69-2.24,19.37-3.48,29a11.1,11.1,0,0,1-1.49,3.14C331.83,208.21,320.75,211.82,308.65,211.24Z"/><path class="cls-12" d="M480.33,221.08c-.62-.36-1.24-.72-1.85-1.09-.54-.87-1.4-2.22-2.51-3.84-3.49-5.07-7.14-10.3-13.23-14.68a40.64,40.64,0,0,0-4.23-2.65c-2.83-7.52-2.81-15.53-4-23.34-.13-.93-.37-2.17.56-2.76,1.28-.81,2.15.49,3,1.14,1.83,1.42,4.17,2.69,5.12,4.6,5.56,11.23,14.08,21,16.77,33.62C480.59,215,481.29,218,480.33,221.08Z"/><path class="cls-10" d="M381.88,85c1.55.42,3.52-.67,3.06,1.77-.5,2.69-2,4.45-5,4.5-2.55,0-4.71-1.68-4.4-3.65C376.21,83.67,380.34,86.82,381.88,85Z"/><path class="cls-5" d="M389.38,62.22c1.45.06,3.27-.15,3.48,1.79s-1.55,2.15-3,2.09-3.69.43-3.74-1.93C386,62.19,387.93,62.31,389.38,62.22Z"/><circle class="cls-7" cx="371.01" cy="69.6" r="1.37"/><circle class="cls-7" cx="388.68" cy="68.82" r="1.37"/><path class="cls-8" d="M385,85.74s-6.35,1.11-9.41,0c0,0-1.12,4.54,3.5,5.46C384.13,91.2,385,85.74,385,85.74Z"/><path class="cls-13" d="M379.71,73.2s.07,7.8-.83,7.28-2.94-1.93-2-3.28S379.71,73.2,379.71,73.2Z"/></g></g></g></svg>