<?xml version="1.0" ?><!DOCTYPE svg  PUBLIC '-//W3C//DTD SVG 1.1//EN'  'http://www.w3.org/Graphics/SVG/1.1/DTD/svg11.dtd'><svg enable-background="new 0 0 48 48" height="48px" id="Layer_1" version="1.1" viewBox="0 0 48 48" width="48px" xml:space="preserve" xmlns="http://www.w3.org/2000/svg" xmlns:xlink="http://www.w3.org/1999/xlink"><path d="M2.5,21.719h2.048v21c0,0.275,0.224,0.5,0.5,0.5c0.276,0,0.5-0.225,0.5-0.5v-21h7.189v4.312c0,0.277,0.224,0.5,0.5,0.5  h21.524c0.275,0,0.5-0.223,0.5-0.5v-4.312h7.189v21c0,0.275,0.223,0.5,0.5,0.5c0.275,0,0.5-0.225,0.5-0.5v-21H45.5  c0.275,0,0.5-0.224,0.5-0.5c0-0.276-0.225-0.5-0.5-0.5H34.764h-6.727c-0.848-0.631-1.479-1.492-1.844-2.476h3.766  c1.93,0,3.5-1.57,3.5-3.5V8.281c0-1.93-1.57-3.5-3.5-3.5H18.042c-1.93,0-3.5,1.57-3.5,3.5v6.461c0,1.93,1.57,3.5,3.5,3.5h3.766  c-0.364,0.984-0.996,1.845-1.843,2.476h-6.726H2.5c-0.276,0-0.5,0.224-0.5,0.5C2,21.494,2.225,21.719,2.5,21.719z M15.542,14.743  V8.281c0-1.378,1.122-2.5,2.5-2.5h11.917c1.379,0,2.5,1.122,2.5,2.5v6.461c0,1.378-1.121,2.5-2.5,2.5H18.042  C16.664,17.243,15.542,16.121,15.542,14.743z M22.858,18.243h2.284c0.283,0.925,0.76,1.771,1.412,2.476h-5.108  C22.098,20.013,22.575,19.168,22.858,18.243z M34.264,21.719v3.812H13.739v-3.812H34.264z"/><path d="M18.417,25.152h11.167c0.275,0,0.5-0.225,0.5-0.5c0-0.277-0.225-0.5-0.5-0.5H18.417c-0.276,0-0.5,0.224-0.5,0.5  C17.917,24.928,18.141,25.152,18.417,25.152z"/></svg>