<?xml version="1.0" encoding="utf-8"?>
<!-- Generator: Adobe Illustrator 24.2.3, SVG Export Plug-In . SVG Version: 6.00 Build 0)  -->
<svg version="1.1"
	 id="svg1630" xmlns:cc="http://creativecommons.org/ns#" xmlns:dc="http://purl.org/dc/elements/1.1/" xmlns:inkscape="http://www.inkscape.org/namespaces/inkscape" xmlns:rdf="http://www.w3.org/1999/02/22-rdf-syntax-ns#" xmlns:sodipodi="http://sodipodi.sourceforge.net/DTD/sodipodi-0.dtd" xmlns:svg="http://www.w3.org/2000/svg"
	 xmlns="http://www.w3.org/2000/svg" xmlns:xlink="http://www.w3.org/1999/xlink" x="0px" y="0px" viewBox="0 0 24 24"
	 style="enable-background:new 0 0 24 24;" xml:space="preserve">
<style type="text/css">
	.st0{fill:none;stroke:#FFFFFF;stroke-width:1.5;stroke-miterlimit:10;}
</style>
<path id="path2010_1_" class="st0" d="M15.9,18h4.8c1.6,0,2.3-0.8,2.3-2v-1c0-3-2.6-4-5-4h-4c-0.7,0-1.4,0.1-2,0.2"/>
<path id="path2002" class="st0" d="M15.9,4C14.3,4,13,5.4,13,7s1.4,3,3,3s3-1.4,3-3S17.6,4,15.9,4C16,4,16,4,15.9,4L15.9,4z"/>
<path id="path1991" class="st0" d="M7,15c-2.6,0-5,1.3-5,4v1c0,1.3,0.7,2,2.3,2h9.3c1.6,0,2.3-0.7,2.3-2v-1c0-1.2-0.5-2.4-1.4-3
	c-0.9-0.7-2.1-1-3.6-1H7z"/>
<path id="path1981" class="st0" d="M8.9,8C7.3,8,6,9.4,6,11s1.4,3,3,3s3-1.4,3-3S10.6,8,8.9,8C9,8,9,8,8.9,8L8.9,8L8.9,8z"/>
</svg>
