<?xml version="1.0" encoding="utf-8"?>
<!-- Generator: Adobe Illustrator 24.2.3, SVG Export Plug-In . SVG Version: 6.00 Build 0)  -->
<svg version="1.1" id="icons" xmlns="http://www.w3.org/2000/svg" xmlns:xlink="http://www.w3.org/1999/xlink" x="0px" y="0px"
	 viewBox="0 0 64 64" style="enable-background:new 0 0 64 64;" xml:space="preserve">
<style type="text/css">
	.st0{fill:#FFFFFF;}
</style>
<path class="st0" d="M52,7H12c-3.3,0-6,2.7-6,6v38c0,3.3,2.7,6,6,6h40c3.3,0,6-2.7,6-6V13C58,9.7,55.3,7,52,7z M54,51
	c0,1.1-0.9,2-2,2H12c-1.1,0-2-0.9-2-2V13c0-1.1,0.9-2,2-2h40c1.1,0,2,0.9,2,2V51z"/>
<path class="st0" d="M45,29c1.1,0,2-0.9,2-2s-0.9-2-2-2H22.8l2.6-2.6c0.7-0.8,0.6-2.1-0.2-2.8c-0.7-0.6-1.9-0.6-2.6,0l-6,6
	c-0.6,0.6-0.7,1.4-0.4,2.2c0.3,0.7,1,1.2,1.9,1.2H45z"/>
<path class="st0" d="M47,36H20c-1.1,0-2,0.9-2,2s0.9,2,2,2h22.2l-2.6,2.6c-0.8,0.7-0.9,2-0.2,2.8c0.7,0.8,2,0.9,2.8,0.2
	c0.1-0.1,0.2-0.1,0.2-0.2l6-6c0.6-0.6,0.7-1.4,0.4-2.2C48.5,36.5,47.8,36,47,36z"/>
</svg>
