<?xml version="1.0" encoding="utf-8"?>
<!-- Generator: Adobe Illustrator 24.2.3, SVG Export Plug-In . SVG Version: 6.00 Build 0)  -->
<svg version="1.1"
	 id="svg8" xmlns:cc="http://creativecommons.org/ns#" xmlns:dc="http://purl.org/dc/elements/1.1/" xmlns:inkscape="http://www.inkscape.org/namespaces/inkscape" xmlns:rdf="http://www.w3.org/1999/02/22-rdf-syntax-ns#" xmlns:sodipodi="http://sodipodi.sourceforge.net/DTD/sodipodi-0.dtd" xmlns:svg="http://www.w3.org/2000/svg"
	 xmlns="http://www.w3.org/2000/svg" xmlns:xlink="http://www.w3.org/1999/xlink" x="0px" y="0px" viewBox="0 0 32 32"
	 style="enable-background:new 0 0 32 32;" xml:space="preserve">
<style type="text/css">
	.st0{fill:#FFFFFF;}
</style>
<g id="layer1" transform="translate(0,-288.53332)">
	<path id="path879" class="st0" d="M16,289.5c-8.3,0-15,6.7-15,15c0,8.3,6.7,15,15,15s15-6.7,15-15C31,296.3,24.3,289.5,16,289.5z
		 M16,291.5c7.2,0,13,5.8,13,13c0,7.2-5.8,13-13,13s-13-5.8-13-13C3,297.3,8.8,291.5,16,291.5z"/>
	<path id="path883" class="st0" d="M16,293.5c-0.6,0-1,0.5-1,1c0,0,0,0,0,0v10c0,0.5,0.4,1,1,1h8c0.6,0,1-0.4,1-1c0-0.6-0.4-1-1-1
		c0,0,0,0,0,0h-7v-9C17,294,16.6,293.5,16,293.5C16,293.5,16,293.5,16,293.5z"/>
</g>
</svg>
