<svg xmlns="http://www.w3.org/2000/svg" viewBox="0 0 527.4 3038.67"><defs><style>.cls-1,.cls-2{fill:#abced4;}.cls-1{opacity:0.33;}.cls-3{fill:#7dadb2;opacity:0.33;}</style></defs><g id="Layer_2" data-name="Layer 2"><g id="Mobile"><rect class="cls-1" x="7.93" width="519.47" height="84.27" rx="17.01"/><rect class="cls-1" x="7.93" y="98.39" width="519.47" height="232.55" rx="17.01"/><rect class="cls-1" x="1.6" y="346.41" width="519.47" height="1503.89" rx="17.01"/><rect class="cls-1" y="2868.78" width="519.47" height="169.89" rx="17.01"/><rect class="cls-1" x="1.73" y="1869.45" width="519.47" height="983.22" rx="17.01"/><rect class="cls-2" x="33.22" y="23.63" width="128.69" height="38.21" rx="2.63"/><rect class="cls-1" x="102.68" y="118.61" width="328.87" height="38.21" rx="2.63"/><rect class="cls-1" x="102.68" y="272.73" width="328.87" height="38.21" rx="2.63"/><rect class="cls-1" x="102.68" y="170.22" width="328.87" height="38.21" rx="2.63"/><rect class="cls-1" x="102.68" y="222.12" width="328.87" height="38.21" rx="2.63"/><rect class="cls-2" x="411.19" y="25.21" width="85.45" height="38.21" rx="2.63"/><rect class="cls-1" x="119.73" y="795.61" width="280" height="218.14" rx="2.63"/><rect class="cls-1" x="119.73" y="1031.39" width="280" height="218.14" rx="2.63"/><rect class="cls-1" x="119.73" y="1267.17" width="280" height="218.14" rx="2.63"/><path class="cls-3" d="M116.27,1531.67h2.18v15h7.2v1.83h-9.38Z"/><path class="cls-3" d="M138.6,1542.37c0,4.47-3.1,6.42-6,6.42-3.27,0-5.79-2.4-5.79-6.22,0-4,2.64-6.42,6-6.42S138.6,1538.67,138.6,1542.37Zm-9.6.12c0,2.65,1.52,4.65,3.67,4.65s3.68-2,3.68-4.7c0-2-1-4.65-3.63-4.65S129,1540.19,129,1542.49Z"/><path class="cls-3" d="M141.37,1540.19c0-1.42,0-2.65-.1-3.77h1.93l.07,2.37h.1a3.63,3.63,0,0,1,3.35-2.64,2.43,2.43,0,0,1,.63.07v2.07a4.07,4.07,0,0,0-.75-.07,3.08,3.08,0,0,0-2.95,2.82,6.2,6.2,0,0,0-.1,1v6.45h-2.18Z"/><path class="cls-3" d="M150.52,1542.87a3.88,3.88,0,0,0,4.15,4.2,7.91,7.91,0,0,0,3.35-.63l.38,1.58a9.83,9.83,0,0,1-4,.75c-3.72,0-6-2.45-6-6.1s2.15-6.52,5.68-6.52c4,0,5,3.47,5,5.69a7.4,7.4,0,0,1-.08,1Zm6.45-1.58c0-1.4-.57-3.57-3.05-3.57-2.22,0-3.2,2-3.37,3.57Z"/><path class="cls-3" d="M161.82,1539.69c0-1.24,0-2.27-.1-3.27h1.93l.1,1.95h.07a4.17,4.17,0,0,1,3.8-2.22,3.59,3.59,0,0,1,3.43,2.42h0a4.9,4.9,0,0,1,1.35-1.57,4.11,4.11,0,0,1,2.67-.85c1.6,0,4,1,4,5.24v7.13H177v-6.85c0-2.33-.85-3.72-2.63-3.72a2.85,2.85,0,0,0-2.6,2,3.63,3.63,0,0,0-.17,1.1v7.48H169.4v-7.25c0-1.93-.85-3.32-2.53-3.32a3,3,0,0,0-2.72,2.19,3,3,0,0,0-.18,1.08v7.3h-2.15Z"/><path class="cls-3" d="M190.42,1533a1.29,1.29,0,0,1-1.4,1.35,1.31,1.31,0,0,1-1.32-1.35,1.34,1.34,0,0,1,1.37-1.37A1.3,1.3,0,0,1,190.42,1533Zm-2.45,15.5v-12.1h2.2v12.1Z"/><path class="cls-3" d="M193.82,1540.37c0-1.55,0-2.8-.1-3.95h2l.1,2.08h0a4.74,4.74,0,0,1,4.3-2.35c2.92,0,5.12,2.47,5.12,6.14,0,4.35-2.65,6.5-5.5,6.5a4.23,4.23,0,0,1-3.72-1.9H196v6.58h-2.18Zm2.18,3.22a4.85,4.85,0,0,0,.1.9,3.39,3.39,0,0,0,3.3,2.58c2.32,0,3.67-1.9,3.67-4.68,0-2.42-1.27-4.49-3.6-4.49a3.5,3.5,0,0,0-3.32,2.72,3.32,3.32,0,0,0-.15.9Z"/><path class="cls-3" d="M207.75,1546.27a5.81,5.81,0,0,0,2.9.87c1.6,0,2.35-.8,2.35-1.8s-.63-1.62-2.25-2.22c-2.18-.78-3.2-2-3.2-3.43,0-1.94,1.57-3.54,4.17-3.54a6.06,6.06,0,0,1,3,.75l-.55,1.6a4.72,4.72,0,0,0-2.48-.71c-1.3,0-2,.75-2,1.65s.72,1.45,2.3,2c2.1.8,3.17,1.85,3.17,3.65,0,2.13-1.65,3.63-4.52,3.63a6.89,6.89,0,0,1-3.4-.83Z"/><path class="cls-3" d="M228.07,1545.22c0,1.25,0,2.35.1,3.3h-1.95l-.12-2h0a4.55,4.55,0,0,1-4,2.25c-1.9,0-4.18-1-4.18-5.3v-7.07h2.2v6.7c0,2.3.7,3.85,2.7,3.85a3.1,3.1,0,0,0,3.1-3.13v-7.42h2.2Z"/><path class="cls-3" d="M231.72,1539.69c0-1.24,0-2.27-.1-3.27h1.93l.1,1.95h.07a4.17,4.17,0,0,1,3.8-2.22,3.59,3.59,0,0,1,3.43,2.42H241a4.9,4.9,0,0,1,1.35-1.57,4.11,4.11,0,0,1,2.67-.85c1.6,0,4,1,4,5.24v7.13h-2.15v-6.85c0-2.33-.85-3.72-2.62-3.72a2.85,2.85,0,0,0-2.6,2,3.63,3.63,0,0,0-.17,1.1v7.48H239.3v-7.25c0-1.93-.85-3.32-2.53-3.32a3,3,0,0,0-2.72,2.19,3,3,0,0,0-.18,1.08v7.3h-2.15Z"/><path class="cls-3" d="M268.32,1530.77v14.62c0,1.08,0,2.3.1,3.13h-2l-.1-2.1h-.06a4.45,4.45,0,0,1-4.12,2.37c-2.92,0-5.17-2.47-5.17-6.15,0-4,2.47-6.49,5.42-6.49a4,4,0,0,1,3.65,1.85h.05v-7.23Zm-2.2,10.57a3.6,3.6,0,0,0-.1-.92,3.23,3.23,0,0,0-3.17-2.55c-2.28,0-3.63,2-3.63,4.67,0,2.45,1.2,4.48,3.58,4.48a3.31,3.31,0,0,0,3.22-2.63,3.6,3.6,0,0,0,.1-1Z"/><path class="cls-3" d="M282.92,1542.37c0,4.47-3.1,6.42-6,6.42-3.28,0-5.8-2.4-5.8-6.22,0-4,2.65-6.42,6-6.42S282.92,1538.67,282.92,1542.37Zm-9.6.12c0,2.65,1.53,4.65,3.68,4.65s3.67-2,3.67-4.7c0-2-1-4.65-3.62-4.65S273.32,1540.19,273.32,1542.49Z"/><path class="cls-3" d="M285.7,1530.77h2.2v17.75h-2.2Z"/><path class="cls-3" d="M302.54,1542.37c0,4.47-3.09,6.42-6,6.42-3.27,0-5.8-2.4-5.8-6.22,0-4,2.65-6.42,6-6.42S302.54,1538.67,302.54,1542.37Zm-9.59.12c0,2.65,1.52,4.65,3.67,4.65s3.67-2,3.67-4.7c0-2-1-4.65-3.62-4.65S293,1540.19,293,1542.49Z"/><path class="cls-3" d="M305.32,1540.19c0-1.42,0-2.65-.1-3.77h1.93l.07,2.37h.1a3.63,3.63,0,0,1,3.35-2.64,2.43,2.43,0,0,1,.63.07v2.07a4.07,4.07,0,0,0-.75-.07,3.08,3.08,0,0,0-2.95,2.82,6.2,6.2,0,0,0-.1,1v6.45h-2.18Z"/><path class="cls-3" d="M318.5,1546.27a5.81,5.81,0,0,0,2.9.87c1.6,0,2.35-.8,2.35-1.8s-.63-1.62-2.25-2.22c-2.18-.78-3.2-2-3.2-3.43,0-1.94,1.57-3.54,4.17-3.54a6.06,6.06,0,0,1,3,.75l-.55,1.6a4.72,4.72,0,0,0-2.48-.71c-1.3,0-2,.75-2,1.65s.72,1.45,2.3,2c2.1.8,3.17,1.85,3.17,3.65,0,2.13-1.65,3.63-4.52,3.63a6.89,6.89,0,0,1-3.4-.83Z"/><path class="cls-3" d="M331.15,1533a1.37,1.37,0,0,1-2.73,0,1.34,1.34,0,0,1,1.38-1.37A1.31,1.31,0,0,1,331.15,1533Zm-2.45,15.5v-12.1h2.2v12.1Z"/><path class="cls-3" d="M337.2,1533v3.47h3.14v1.67H337.2v6.53c0,1.5.42,2.35,1.64,2.35a5.17,5.17,0,0,0,1.28-.15l.1,1.65a5.52,5.52,0,0,1-2,.3,3,3,0,0,1-2.37-.93,4.45,4.45,0,0,1-.85-3.15v-6.6h-1.88v-1.67h1.88v-2.9Z"/><path class="cls-3" d="M354.82,1548.52l-.18-1.53h-.07a4.49,4.49,0,0,1-3.7,1.8,3.44,3.44,0,0,1-3.7-3.47c0-2.93,2.6-4.53,7.28-4.5v-.25a2.5,2.5,0,0,0-2.75-2.8,6,6,0,0,0-3.15.9l-.5-1.45a7.5,7.5,0,0,1,4-1.07c3.7,0,4.6,2.52,4.6,4.94v4.53a17.07,17.07,0,0,0,.2,2.9Zm-.32-6.18c-2.4,0-5.13.38-5.13,2.73a2,2,0,0,0,2.08,2.1,3,3,0,0,0,2.92-2,2.11,2.11,0,0,0,.13-.7Z"/><path class="cls-3" d="M360.17,1539.69c0-1.24,0-2.27-.1-3.27H362l.1,1.95h.07a4.17,4.17,0,0,1,3.8-2.22,3.57,3.57,0,0,1,3.42,2.42h.05a5,5,0,0,1,1.35-1.57,4.15,4.15,0,0,1,2.68-.85c1.6,0,4,1,4,5.24v7.13h-2.15v-6.85c0-2.33-.85-3.72-2.62-3.72a2.84,2.84,0,0,0-2.6,2,3.62,3.62,0,0,0-.18,1.1v7.48h-2.15v-7.25c0-1.93-.85-3.32-2.52-3.32a3,3,0,0,0-2.72,2.19,3,3,0,0,0-.18,1.08v7.3h-2.15Z"/><path class="cls-3" d="M382.25,1542.87a3.88,3.88,0,0,0,4.14,4.2,7.91,7.91,0,0,0,3.35-.63l.38,1.58a9.83,9.83,0,0,1-4,.75c-3.72,0-5.94-2.45-5.94-6.1s2.15-6.52,5.67-6.52c3.95,0,5,3.47,5,5.69a7.4,7.4,0,0,1-.08,1Zm6.44-1.58c0-1.4-.57-3.57-3.05-3.57-2.22,0-3.19,2-3.37,3.57Z"/><path class="cls-3" d="M396.2,1533v3.47h3.14v1.67H396.2v6.53c0,1.5.42,2.35,1.64,2.35a5.17,5.17,0,0,0,1.28-.15l.1,1.65a5.52,5.52,0,0,1-2,.3,3,3,0,0,1-2.37-.93,4.45,4.45,0,0,1-.85-3.15v-6.6h-1.88v-1.67h1.88v-2.9Z"/><path class="cls-3" d="M400.32,1551.59a35.42,35.42,0,0,0,1.5-6l2.45-.25a30.14,30.14,0,0,1-2.37,6.07Z"/><path class="cls-3" d="M124.62,1578.07a8.08,8.08,0,0,1-3.47.7c-3.65,0-6-2.48-6-6.18a6.14,6.14,0,0,1,6.49-6.42,7.34,7.34,0,0,1,3,.63l-.5,1.7a5.08,5.08,0,0,0-2.55-.58c-2.77,0-4.27,2-4.27,4.57,0,2.8,1.8,4.53,4.2,4.53a6.34,6.34,0,0,0,2.7-.6Z"/><path class="cls-3" d="M138,1572.37c0,4.47-3.1,6.42-6,6.42-3.27,0-5.79-2.4-5.79-6.22,0-4,2.65-6.42,6-6.42S138,1568.67,138,1572.37Zm-9.6.12c0,2.65,1.52,4.65,3.67,4.65s3.68-2,3.68-4.7c0-2-1-4.65-3.63-4.65S128.4,1570.19,128.4,1572.49Z"/><path class="cls-3" d="M140.78,1569.69c0-1.24,0-2.27-.1-3.27h1.94l.13,2h.05a4.45,4.45,0,0,1,4-2.27c1.67,0,4.27,1,4.27,5.14v7.23h-2.2v-7c0-2-.72-3.57-2.8-3.57a3.14,3.14,0,0,0-2.95,2.25,3.44,3.44,0,0,0-.14,1v7.28h-2.2Z"/><path class="cls-3" d="M154.35,1576.27a5.81,5.81,0,0,0,2.9.87c1.6,0,2.35-.8,2.35-1.8s-.63-1.62-2.25-2.22c-2.18-.78-3.2-2-3.2-3.43,0-1.94,1.57-3.54,4.17-3.54a6.06,6.06,0,0,1,3,.75l-.55,1.6a4.72,4.72,0,0,0-2.48-.71c-1.3,0-2,.75-2,1.65s.72,1.45,2.3,2c2.1.8,3.17,1.85,3.17,3.65,0,2.13-1.65,3.63-4.52,3.63a6.89,6.89,0,0,1-3.4-.83Z"/><path class="cls-3" d="M165.77,1572.87c.06,3,1.95,4.2,4.15,4.2a7.91,7.91,0,0,0,3.35-.63l.38,1.58a9.83,9.83,0,0,1-4,.75c-3.72,0-5.94-2.45-5.94-6.1s2.15-6.52,5.67-6.52c4,0,5,3.47,5,5.69a7.4,7.4,0,0,1-.08,1Zm6.45-1.58c0-1.4-.57-3.57-3.05-3.57-2.22,0-3.2,2-3.37,3.57Z"/><path class="cls-3" d="M185.7,1578.07a8.13,8.13,0,0,1-3.48.7c-3.65,0-6-2.48-6-6.18a6.15,6.15,0,0,1,6.5-6.42,7.34,7.34,0,0,1,3.05.63l-.5,1.7a5.11,5.11,0,0,0-2.55-.58c-2.78,0-4.28,2-4.28,4.57,0,2.8,1.8,4.53,4.2,4.53a6.3,6.3,0,0,0,2.7-.6Z"/><path class="cls-3" d="M191.25,1563v3.47h3.15v1.67h-3.15v6.53c0,1.5.42,2.35,1.65,2.35a5.08,5.08,0,0,0,1.27-.15l.1,1.65a5.48,5.48,0,0,1-2,.3,3,3,0,0,1-2.37-.93,4.45,4.45,0,0,1-.85-3.15v-6.6h-1.88v-1.67h1.88v-2.9Z"/><path class="cls-3" d="M198,1572.87a3.88,3.88,0,0,0,4.15,4.2,8,8,0,0,0,3.35-.63l.37,1.58a9.77,9.77,0,0,1-4,.75c-3.73,0-6-2.45-6-6.1s2.15-6.52,5.67-6.52c3.95,0,5,3.47,5,5.69a9.94,9.94,0,0,1-.07,1Zm6.45-1.58c0-1.4-.58-3.57-3.05-3.57-2.23,0-3.2,2-3.38,3.57Z"/><path class="cls-3" d="M211.9,1563v3.47h3.15v1.67H211.9v6.53c0,1.5.42,2.35,1.65,2.35a5.08,5.08,0,0,0,1.27-.15l.1,1.65a5.48,5.48,0,0,1-1.95.3,3,3,0,0,1-2.37-.93,4.45,4.45,0,0,1-.85-3.15v-6.6h-1.88v-1.67h1.88v-2.9Z"/><path class="cls-3" d="M227.65,1575.22c0,1.25,0,2.35.1,3.3H225.8l-.13-2h0a4.54,4.54,0,0,1-4,2.25c-1.9,0-4.17-1-4.17-5.3v-7.07h2.2v6.7c0,2.3.7,3.85,2.7,3.85a3.19,3.19,0,0,0,2.9-2,3.39,3.39,0,0,0,.2-1.13v-7.42h2.2Z"/><path class="cls-3" d="M232.52,1572.87a3.88,3.88,0,0,0,4.15,4.2,7.91,7.91,0,0,0,3.35-.63l.38,1.58a9.83,9.83,0,0,1-4,.75c-3.72,0-6-2.45-6-6.1s2.15-6.52,5.68-6.52c4,0,5,3.47,5,5.69a7.4,7.4,0,0,1-.08,1Zm6.45-1.58c0-1.4-.57-3.57-3.05-3.57-2.22,0-3.2,2-3.37,3.57Z"/><path class="cls-3" d="M243.82,1570.19c0-1.42,0-2.65-.1-3.77h1.93l.07,2.37h.1a3.63,3.63,0,0,1,3.35-2.64,2.43,2.43,0,0,1,.63.07v2.07a4.07,4.07,0,0,0-.75-.07,3.08,3.08,0,0,0-3,2.82,6.2,6.2,0,0,0-.1,1v6.45h-2.18Z"/><path class="cls-3" d="M264,1578.52l-.18-1.53h-.07a4.52,4.52,0,0,1-3.7,1.8,3.44,3.44,0,0,1-3.7-3.47c0-2.93,2.6-4.53,7.27-4.5v-.25a2.49,2.49,0,0,0-2.75-2.8,6,6,0,0,0-3.15.9l-.5-1.45a7.51,7.51,0,0,1,4-1.07c3.7,0,4.6,2.52,4.6,4.94v4.53a17.07,17.07,0,0,0,.2,2.9Zm-.33-6.18c-2.4,0-5.12.38-5.12,2.73a2,2,0,0,0,2.07,2.1,3,3,0,0,0,2.93-2,2.39,2.39,0,0,0,.12-.7Z"/><path class="cls-3" d="M279.8,1560.77v14.62c0,1.08,0,2.3.1,3.13h-2l-.1-2.1h-.05a4.46,4.46,0,0,1-4.12,2.37c-2.93,0-5.18-2.47-5.18-6.15,0-4,2.48-6.49,5.43-6.49a4,4,0,0,1,3.65,1.85h.05v-7.23Zm-2.2,10.57a4.12,4.12,0,0,0-.1-.92,3.25,3.25,0,0,0-3.18-2.55c-2.27,0-3.62,2-3.62,4.67,0,2.45,1.2,4.48,3.57,4.48a3.31,3.31,0,0,0,3.23-2.63,4.07,4.07,0,0,0,.1-1Z"/><path class="cls-3" d="M285.9,1563a1.37,1.37,0,0,1-2.73,0,1.34,1.34,0,0,1,1.38-1.37A1.31,1.31,0,0,1,285.9,1563Zm-2.45,15.5v-12.1h2.2v12.1Z"/><path class="cls-3" d="M289.3,1570.37c0-1.55-.05-2.8-.1-3.95h2l.1,2.08h.05a4.75,4.75,0,0,1,4.3-2.35c2.93,0,5.13,2.47,5.13,6.14,0,4.35-2.65,6.5-5.5,6.5a4.26,4.26,0,0,1-3.73-1.9h0v6.58H289.3Zm2.17,3.22a4.85,4.85,0,0,0,.1.9,3.4,3.4,0,0,0,3.3,2.58c2.33,0,3.68-1.9,3.68-4.68,0-2.42-1.28-4.49-3.6-4.49a3.52,3.52,0,0,0-3.33,2.72,3.76,3.76,0,0,0-.15.9Z"/><path class="cls-3" d="M306,1563a1.29,1.29,0,0,1-1.4,1.35,1.31,1.31,0,0,1-1.32-1.35,1.34,1.34,0,0,1,1.37-1.37A1.3,1.3,0,0,1,306,1563Zm-2.45,15.5v-12.1h2.2v12.1Z"/><path class="cls-3" d="M309.07,1576.27a5.81,5.81,0,0,0,2.9.87c1.6,0,2.35-.8,2.35-1.8s-.62-1.62-2.25-2.22c-2.17-.78-3.2-2-3.2-3.43,0-1.94,1.58-3.54,4.18-3.54a6,6,0,0,1,3,.75l-.55,1.6a4.68,4.68,0,0,0-2.47-.71c-1.3,0-2,.75-2,1.65s.73,1.45,2.3,2c2.1.8,3.18,1.85,3.18,3.65,0,2.13-1.65,3.63-4.53,3.63a6.91,6.91,0,0,1-3.4-.83Z"/><path class="cls-3" d="M327.89,1578.07a8.08,8.08,0,0,1-3.47.7c-3.65,0-6-2.48-6-6.18a6.15,6.15,0,0,1,6.5-6.42,7.29,7.29,0,0,1,3,.63l-.5,1.7a5.07,5.07,0,0,0-2.54-.58c-2.78,0-4.28,2-4.28,4.57,0,2.8,1.8,4.53,4.2,4.53a6.34,6.34,0,0,0,2.7-.6Z"/><path class="cls-3" d="M332.92,1563a1.29,1.29,0,0,1-1.4,1.35,1.31,1.31,0,0,1-1.32-1.35,1.34,1.34,0,0,1,1.37-1.37A1.3,1.3,0,0,1,332.92,1563Zm-2.45,15.5v-12.1h2.2v12.1Z"/><path class="cls-3" d="M336.32,1569.69c0-1.24,0-2.27-.1-3.27h1.95l.13,2h.05a4.44,4.44,0,0,1,4-2.27c1.68,0,4.28,1,4.28,5.14v7.23h-2.2v-7c0-2-.73-3.57-2.8-3.57a3.23,3.23,0,0,0-3.1,3.27v7.28h-2.2Z"/><path class="cls-3" d="M360.62,1566.42c-.05.87-.1,1.85-.1,3.33v7c0,2.77-.55,4.47-1.73,5.52a6.39,6.39,0,0,1-4.39,1.45,7.84,7.84,0,0,1-4-1l.55-1.67a6.82,6.82,0,0,0,3.55,1c2.25,0,3.9-1.18,3.9-4.23v-1.35h-.05a4.32,4.32,0,0,1-3.85,2c-3,0-5.15-2.55-5.15-5.9,0-4.1,2.68-6.42,5.45-6.42a4,4,0,0,1,3.77,2.1h0l.1-1.83Zm-2.28,4.77a3.2,3.2,0,0,0-3.19-3.32c-2.1,0-3.6,1.77-3.6,4.57,0,2.38,1.2,4.35,3.57,4.35a3.22,3.22,0,0,0,3.05-2.25,4,4,0,0,0,.17-1.17Z"/><path class="cls-3" d="M370.7,1572.87a3.88,3.88,0,0,0,4.14,4.2,7.91,7.91,0,0,0,3.35-.63l.38,1.58a9.83,9.83,0,0,1-4,.75c-3.72,0-5.94-2.45-5.94-6.1s2.15-6.52,5.67-6.52c4,0,5,3.47,5,5.69a7.4,7.4,0,0,1-.08,1Zm6.44-1.58c0-1.4-.57-3.57-3.05-3.57-2.22,0-3.19,2-3.37,3.57Z"/><path class="cls-3" d="M382,1560.77h2.2v17.75H382Z"/><path class="cls-3" d="M390.35,1563a1.37,1.37,0,0,1-2.73,0,1.34,1.34,0,0,1,1.38-1.37A1.31,1.31,0,0,1,390.35,1563Zm-2.45,15.5v-12.1h2.2v12.1Z"/><path class="cls-3" d="M396.39,1563v3.47h3.15v1.67h-3.15v6.53c0,1.5.43,2.35,1.65,2.35a5.17,5.17,0,0,0,1.28-.15l.1,1.65a5.52,5.52,0,0,1-1.95.3,3.06,3.06,0,0,1-2.38-.93,4.5,4.5,0,0,1-.84-3.15v-6.6h-1.88v-1.67h1.88v-2.9Z"/><path class="cls-3" d="M400.52,1581.59a35.42,35.42,0,0,0,1.5-6l2.45-.25a30.14,30.14,0,0,1-2.37,6.07Z"/><path class="cls-3" d="M103,1606.27a5.81,5.81,0,0,0,2.9.87c1.6,0,2.35-.8,2.35-1.8s-.63-1.62-2.25-2.22c-2.17-.78-3.2-2-3.2-3.43,0-1.94,1.57-3.54,4.17-3.54a6.06,6.06,0,0,1,3,.75l-.55,1.6a4.72,4.72,0,0,0-2.48-.71c-1.3,0-2,.75-2,1.65s.72,1.45,2.3,2c2.1.8,3.17,1.85,3.17,3.65,0,2.13-1.65,3.63-4.52,3.63a6.89,6.89,0,0,1-3.4-.83Z"/><path class="cls-3" d="M114.42,1602.87c.06,3,2,4.2,4.15,4.2a7.91,7.91,0,0,0,3.35-.63l.38,1.58a9.83,9.83,0,0,1-4,.75c-3.72,0-5.94-2.45-5.94-6.1s2.15-6.52,5.67-6.52c4,0,5,3.47,5,5.69a7.4,7.4,0,0,1-.08,1Zm6.45-1.58c0-1.4-.57-3.57-3.05-3.57-2.22,0-3.2,2-3.37,3.57Z"/><path class="cls-3" d="M136.17,1590.77v14.62c0,1.08,0,2.3.1,3.13h-2l-.1-2.1h0a4.48,4.48,0,0,1-4.13,2.37c-2.92,0-5.17-2.47-5.17-6.15,0-4,2.47-6.49,5.42-6.49a4,4,0,0,1,3.65,1.85H134v-7.23Zm-2.2,10.57a3.6,3.6,0,0,0-.1-.92,3.23,3.23,0,0,0-3.17-2.55c-2.28,0-3.63,2-3.63,4.67,0,2.45,1.2,4.48,3.58,4.48a3.31,3.31,0,0,0,3.22-2.63,3.6,3.6,0,0,0,.1-1Z"/><path class="cls-3" d="M155.57,1590.77v14.62c0,1.08,0,2.3.1,3.13h-2l-.1-2.1h0a4.48,4.48,0,0,1-4.13,2.37c-2.92,0-5.17-2.47-5.17-6.15,0-4,2.47-6.49,5.42-6.49a4,4,0,0,1,3.65,1.85h.05v-7.23Zm-2.2,10.57a3.6,3.6,0,0,0-.1-.92,3.23,3.23,0,0,0-3.17-2.55c-2.28,0-3.63,2-3.63,4.67,0,2.45,1.2,4.48,3.58,4.48a3.31,3.31,0,0,0,3.22-2.63,3.6,3.6,0,0,0,.1-1Z"/><path class="cls-3" d="M161.67,1593a1.29,1.29,0,0,1-1.4,1.35A1.31,1.31,0,0,1,159,1593a1.34,1.34,0,0,1,1.37-1.37A1.3,1.3,0,0,1,161.67,1593Zm-2.45,15.5v-12.1h2.2v12.1Z"/><path class="cls-3" d="M171.77,1608.52l-.17-1.53h-.08a4.49,4.49,0,0,1-3.7,1.8,3.44,3.44,0,0,1-3.7-3.47c0-2.93,2.6-4.53,7.28-4.5v-.25a2.5,2.5,0,0,0-2.75-2.8,6,6,0,0,0-3.15.9l-.5-1.45a7.5,7.5,0,0,1,4-1.07c3.7,0,4.6,2.52,4.6,4.94v4.53a17.07,17.07,0,0,0,.2,2.9Zm-.32-6.18c-2.4,0-5.13.38-5.13,2.73a2,2,0,0,0,2.08,2.1,3,3,0,0,0,2.92-2,2.11,2.11,0,0,0,.13-.7Z"/><path class="cls-3" d="M177.12,1599.69c0-1.24,0-2.27-.1-3.27H179l.1,1.95h.07a4.17,4.17,0,0,1,3.8-2.22,3.59,3.59,0,0,1,3.43,2.42h.05a4.9,4.9,0,0,1,1.35-1.57,4.11,4.11,0,0,1,2.67-.85c1.6,0,4,1,4,5.24v7.13h-2.15v-6.85c0-2.33-.85-3.72-2.63-3.72a2.85,2.85,0,0,0-2.6,2,3.63,3.63,0,0,0-.17,1.1v7.48H184.7v-7.25c0-1.93-.85-3.32-2.53-3.32a3,3,0,0,0-2.72,2.19,3,3,0,0,0-.18,1.08v7.3h-2.15Z"/><path class="cls-3" d="M203.27,1599.69c0-1.24,0-2.27-.1-3.27h2l.13,2h.05a4.45,4.45,0,0,1,4-2.27c1.67,0,4.27,1,4.27,5.14v7.23h-2.2v-7c0-2-.72-3.57-2.8-3.57a3.23,3.23,0,0,0-3.1,3.27v7.28h-2.2Z"/><path class="cls-3" d="M228.1,1602.37c0,4.47-3.1,6.42-6,6.42-3.27,0-5.8-2.4-5.8-6.22,0-4,2.65-6.42,6-6.42S228.1,1598.67,228.1,1602.37Zm-9.6.12c0,2.65,1.52,4.65,3.67,4.65s3.68-2,3.68-4.7c0-2-1-4.65-3.63-4.65S218.5,1600.19,218.5,1602.49Z"/><path class="cls-3" d="M230.87,1599.69c0-1.24,0-2.27-.1-3.27h1.95l.13,2h.05a4.45,4.45,0,0,1,4-2.27c1.67,0,4.27,1,4.27,5.14v7.23H239v-7c0-2-.72-3.57-2.8-3.57a3.23,3.23,0,0,0-3.1,3.27v7.28h-2.2Z"/><path class="cls-3" d="M254.87,1605.22c0,1.25,0,2.35.1,3.3H253l-.12-2h-.05a4.55,4.55,0,0,1-4,2.25c-1.9,0-4.18-1-4.18-5.3v-7.07h2.2v6.7c0,2.3.7,3.85,2.7,3.85a3.1,3.1,0,0,0,3.1-3.13v-7.42h2.2Z"/><path class="cls-3" d="M258.52,1599.69c0-1.24,0-2.27-.1-3.27h1.93l.1,1.95h.07a4.17,4.17,0,0,1,3.8-2.22,3.59,3.59,0,0,1,3.43,2.42h.05a4.9,4.9,0,0,1,1.35-1.57,4.11,4.11,0,0,1,2.67-.85c1.6,0,4,1,4,5.24v7.13h-2.15v-6.85c0-2.33-.85-3.72-2.62-3.72a2.84,2.84,0,0,0-2.6,2,3.63,3.63,0,0,0-.17,1.1v7.48H266.1v-7.25c0-1.93-.85-3.32-2.53-3.32a3,3,0,0,0-2.72,2.19,3,3,0,0,0-.18,1.08v7.3h-2.15Z"/><path class="cls-3" d="M279.37,1599.69c0-1.24,0-2.27-.1-3.27h1.93l.1,1.95h.07a4.17,4.17,0,0,1,3.8-2.22,3.59,3.59,0,0,1,3.43,2.42h0A4.9,4.9,0,0,1,290,1597a4.11,4.11,0,0,1,2.67-.85c1.6,0,4,1,4,5.24v7.13H294.5v-6.85c0-2.33-.86-3.72-2.63-3.72a2.85,2.85,0,0,0-2.6,2,3.63,3.63,0,0,0-.17,1.1v7.48H287v-7.25c0-1.93-.85-3.32-2.53-3.32a3,3,0,0,0-2.72,2.19,3,3,0,0,0-.18,1.08v7.3h-2.15Z"/><path class="cls-3" d="M300.7,1596.42l2.65,7.15c.27.8.57,1.75.77,2.47h.05c.23-.72.48-1.65.78-2.52l2.4-7.1h2.32l-3.3,8.62c-1.57,4.15-2.65,6.28-4.15,7.58a5.91,5.91,0,0,1-2.7,1.42l-.55-1.85a5.72,5.72,0,0,0,1.93-1.07,6.76,6.76,0,0,0,1.85-2.45,1.56,1.56,0,0,0,.17-.53,1.9,1.9,0,0,0-.15-.57l-4.47-11.15Z"/><path class="cls-3" d="M317,1599.69c0-1.24,0-2.27-.1-3.27h1.95l.13,2H319a4.45,4.45,0,0,1,4-2.27c1.67,0,4.27,1,4.27,5.14v7.23h-2.2v-7c0-2-.72-3.57-2.8-3.57a3.23,3.23,0,0,0-3.1,3.27v7.28H317Z"/><path class="cls-3" d="M333.3,1593a1.37,1.37,0,0,1-2.73,0,1.34,1.34,0,0,1,1.38-1.37A1.31,1.31,0,0,1,333.3,1593Zm-2.45,15.5v-12.1h2.2v12.1Z"/><path class="cls-3" d="M336.6,1608.52c0-.83.1-2,.1-3.13v-14.62h2.17v7.6h.05a4.52,4.52,0,0,1,4.13-2.22c3,0,5.12,2.49,5.09,6.17,0,4.32-2.72,6.47-5.42,6.47a4.31,4.31,0,0,1-4.05-2.27h-.07l-.1,2Zm2.27-4.85a4.17,4.17,0,0,0,.1.8,3.4,3.4,0,0,0,3.3,2.57c2.3,0,3.68-1.87,3.68-4.65,0-2.42-1.25-4.49-3.6-4.49a3.5,3.5,0,0,0-3.35,2.69,4.31,4.31,0,0,0-.13.9Z"/><path class="cls-3" d="M350.92,1590.77h2.2v7.55h.05a4.13,4.13,0,0,1,1.58-1.55,4.56,4.56,0,0,1,2.25-.62c1.62,0,4.22,1,4.22,5.17v7.2H359v-7c0-2-.72-3.6-2.8-3.6a3.17,3.17,0,0,0-3,2.2,2.74,2.74,0,0,0-.15,1v7.3h-2.2Z"/><path class="cls-3" d="M371.32,1602.87a3.88,3.88,0,0,0,4.15,4.2,7.94,7.94,0,0,0,3.35-.63l.37,1.58a9.73,9.73,0,0,1-4,.75c-3.72,0-5.95-2.45-5.95-6.1s2.15-6.52,5.68-6.52c3.94,0,5,3.47,5,5.69a9.94,9.94,0,0,1-.07,1Zm6.45-1.58c0-1.4-.57-3.57-3-3.57-2.22,0-3.2,2-3.37,3.57Z"/><path class="cls-3" d="M392.74,1605.22c0,1.25,0,2.35.1,3.3h-1.95l-.12-2h0a4.55,4.55,0,0,1-4,2.25c-1.9,0-4.17-1-4.17-5.3v-7.07h2.2v6.7c0,2.3.7,3.85,2.7,3.85a3.1,3.1,0,0,0,3.09-3.13v-7.42h2.2Z"/><path class="cls-3" d="M398.85,1593a1.37,1.37,0,0,1-2.73,0,1.34,1.34,0,0,1,1.38-1.37A1.31,1.31,0,0,1,398.85,1593Zm-2.45,15.5v-12.1h2.2v12.1Z"/><path class="cls-3" d="M402,1606.27a5.81,5.81,0,0,0,2.9.87c1.6,0,2.35-.8,2.35-1.8s-.63-1.62-2.25-2.22c-2.18-.78-3.2-2-3.2-3.43,0-1.94,1.57-3.54,4.17-3.54a6,6,0,0,1,3,.75l-.55,1.6a4.65,4.65,0,0,0-2.47-.71c-1.3,0-2,.75-2,1.65s.72,1.45,2.3,2c2.1.8,3.17,1.85,3.17,3.65,0,2.13-1.65,3.63-4.52,3.63a6.89,6.89,0,0,1-3.4-.83Z"/><path class="cls-3" d="M417.25,1600.94v1.63h-6.18v-1.63Z"/><path class="cls-3" d="M97.7,1629.69c0-1.24,0-2.27-.1-3.27h1.93l.09,1.95h.08a4.16,4.16,0,0,1,3.8-2.22,3.57,3.57,0,0,1,3.42,2.42h0a5,5,0,0,1,1.35-1.57,4.15,4.15,0,0,1,2.68-.85c1.6,0,4,1,4,5.24v7.13h-2.15v-6.85c0-2.33-.85-3.72-2.62-3.72a2.84,2.84,0,0,0-2.6,2,3.62,3.62,0,0,0-.18,1.1v7.48h-2.15v-7.25c0-1.93-.85-3.32-2.52-3.32a3.29,3.29,0,0,0-2.9,3.27v7.3H97.7Z"/><path class="cls-3" d="M129.5,1632.37c0,4.47-3.1,6.42-6,6.42-3.27,0-5.79-2.4-5.79-6.22,0-4,2.65-6.42,6-6.42S129.5,1628.67,129.5,1632.37Zm-9.6.12c0,2.65,1.52,4.65,3.67,4.65s3.68-2,3.68-4.7c0-2-1-4.65-3.63-4.65S119.9,1630.19,119.9,1632.49Z"/><path class="cls-3" d="M142.72,1620.77v14.62c0,1.08,0,2.3.1,3.13h-2l-.1-2.1h-.05a4.48,4.48,0,0,1-4.13,2.37c-2.92,0-5.17-2.47-5.17-6.15,0-4,2.47-6.49,5.42-6.49a4,4,0,0,1,3.65,1.85h.05v-7.23Zm-2.2,10.57a3.6,3.6,0,0,0-.1-.92,3.23,3.23,0,0,0-3.17-2.55c-2.28,0-3.63,2-3.63,4.67,0,2.45,1.21,4.48,3.58,4.48a3.31,3.31,0,0,0,3.22-2.63,3.6,3.6,0,0,0,.1-1Z"/><path class="cls-3" d="M154.32,1623v3.47h3.15v1.67h-3.15v6.53c0,1.5.43,2.35,1.65,2.35a5.17,5.17,0,0,0,1.28-.15l.1,1.65a5.52,5.52,0,0,1-1.95.3,3.06,3.06,0,0,1-2.38-.93,4.5,4.5,0,0,1-.85-3.15v-6.6H150.3v-1.67h1.87v-2.9Z"/><path class="cls-3" d="M162.4,1623a1.37,1.37,0,0,1-2.73,0,1.34,1.34,0,0,1,1.38-1.37A1.31,1.31,0,0,1,162.4,1623Zm-2.45,15.5v-12.1h2.2v12.1Z"/><path class="cls-3" d="M165.8,1629.69c0-1.24,0-2.27-.1-3.27h2l.12,2h0a4.45,4.45,0,0,1,4-2.27c1.68,0,4.28,1,4.28,5.14v7.23h-2.2v-7c0-2-.73-3.57-2.8-3.57a3.23,3.23,0,0,0-3.1,3.27v7.28h-2.2Z"/><path class="cls-3" d="M188.3,1638.07a8.13,8.13,0,0,1-3.48.7c-3.65,0-6-2.48-6-6.18a6.15,6.15,0,0,1,6.5-6.42,7.34,7.34,0,0,1,3,.63l-.5,1.7a5.11,5.11,0,0,0-2.55-.58c-2.78,0-4.28,2-4.28,4.57,0,2.8,1.8,4.53,4.2,4.53a6.3,6.3,0,0,0,2.7-.6Z"/><path class="cls-3" d="M193.32,1623a1.29,1.29,0,0,1-1.4,1.35,1.31,1.31,0,0,1-1.32-1.35,1.34,1.34,0,0,1,1.37-1.37A1.3,1.3,0,0,1,193.32,1623Zm-2.45,15.5v-12.1h2.2v12.1Z"/><path class="cls-3" d="M207.17,1620.77v14.62c0,1.08,0,2.3.1,3.13h-2l-.1-2.1h0a4.48,4.48,0,0,1-4.13,2.37c-2.92,0-5.17-2.47-5.17-6.15,0-4,2.47-6.49,5.42-6.49a4,4,0,0,1,3.65,1.85H205v-7.23Zm-2.2,10.57a3.6,3.6,0,0,0-.1-.92,3.23,3.23,0,0,0-3.17-2.55c-2.28,0-3.63,2-3.63,4.67,0,2.45,1.2,4.48,3.58,4.48a3.31,3.31,0,0,0,3.22-2.63,3.6,3.6,0,0,0,.1-1Z"/><path class="cls-3" d="M221,1635.22c0,1.25,0,2.35.1,3.3h-2l-.13-2h-.05a4.54,4.54,0,0,1-4,2.25c-1.9,0-4.17-1-4.17-5.3v-7.07H213v6.7c0,2.3.7,3.85,2.7,3.85a3.19,3.19,0,0,0,2.9-2,3.39,3.39,0,0,0,.2-1.13v-7.42H221Z"/><path class="cls-3" d="M224.6,1629.69c0-1.24,0-2.27-.1-3.27h1.95l.12,2h.05a4.45,4.45,0,0,1,4-2.27c1.68,0,4.28,1,4.28,5.14v7.23h-2.2v-7c0-2-.73-3.57-2.8-3.57a3.23,3.23,0,0,0-3.1,3.27v7.28h-2.2Z"/><path class="cls-3" d="M241,1623v3.47h3.15v1.67H241v6.53c0,1.5.43,2.35,1.65,2.35a5.17,5.17,0,0,0,1.28-.15l.1,1.65a5.52,5.52,0,0,1-2,.3,3.06,3.06,0,0,1-2.38-.93,4.5,4.5,0,0,1-.85-3.15v-6.6H237v-1.67h1.87v-2.9Z"/><path class="cls-3" d="M262.07,1635.22c0,1.25,0,2.35.1,3.3h-1.95l-.12-2h-.05a4.55,4.55,0,0,1-4,2.25c-1.9,0-4.18-1-4.18-5.3v-7.07h2.2v6.7c0,2.3.7,3.85,2.7,3.85a3.1,3.1,0,0,0,3.1-3.13v-7.42h2.2Z"/><path class="cls-3" d="M268.37,1623v3.47h3.15v1.67h-3.15v6.53c0,1.5.43,2.35,1.65,2.35a5.17,5.17,0,0,0,1.28-.15l.1,1.65a5.52,5.52,0,0,1-1.95.3,3.06,3.06,0,0,1-2.38-.93,4.5,4.5,0,0,1-.85-3.15v-6.6h-1.87v-1.67h1.87v-2.9Z"/><path class="cls-3" d="M279.3,1620.77h2.2v17.75h-2.2Z"/><path class="cls-3" d="M291.9,1638.52l-.18-1.53h-.07a4.52,4.52,0,0,1-3.7,1.8,3.44,3.44,0,0,1-3.7-3.47c0-2.93,2.6-4.53,7.27-4.5v-.25a2.49,2.49,0,0,0-2.75-2.8,6,6,0,0,0-3.15.9l-.5-1.45a7.51,7.51,0,0,1,4-1.07c3.7,0,4.6,2.52,4.6,4.94v4.53a17.07,17.07,0,0,0,.2,2.9Zm-.33-6.18c-2.4,0-5.12.38-5.12,2.73a2,2,0,0,0,2.07,2.1,3,3,0,0,0,2.93-2,2.39,2.39,0,0,0,.12-.7Z"/><path class="cls-3" d="M308.19,1632.37c0,4.47-3.09,6.42-6,6.42-3.27,0-5.8-2.4-5.8-6.22,0-4,2.65-6.42,6-6.42S308.19,1628.67,308.19,1632.37Zm-9.59.12c0,2.65,1.52,4.65,3.67,4.65s3.68-2,3.68-4.7c0-2-1-4.65-3.63-4.65S298.6,1630.19,298.6,1632.49Z"/><path class="cls-3" d="M311,1630.19c0-1.42,0-2.65-.1-3.77h1.93l.07,2.37h.1a3.63,3.63,0,0,1,3.35-2.64,2.43,2.43,0,0,1,.63.07v2.07a4.07,4.07,0,0,0-.75-.07,3.08,3.08,0,0,0-2.95,2.82,6.2,6.2,0,0,0-.1,1v6.45H311Z"/><path class="cls-3" d="M320.12,1632.87a3.88,3.88,0,0,0,4.15,4.2,7.91,7.91,0,0,0,3.35-.63L328,1638a9.83,9.83,0,0,1-4,.75c-3.72,0-6-2.45-6-6.1s2.15-6.52,5.68-6.52c3.95,0,5,3.47,5,5.69a7.4,7.4,0,0,1-.08,1Zm6.45-1.58c0-1.4-.57-3.57-3.05-3.57-2.22,0-3.2,2-3.37,3.57Z"/><path class="cls-3" d="M332.65,1632.87a3.88,3.88,0,0,0,4.15,4.2,8,8,0,0,0,3.35-.63l.37,1.58a9.77,9.77,0,0,1-4,.75c-3.73,0-5.95-2.45-5.95-6.1s2.15-6.52,5.67-6.52c3.95,0,5,3.47,5,5.69a7.4,7.4,0,0,1-.08,1Zm6.45-1.58c0-1.4-.58-3.57-3.05-3.57-2.23,0-3.2,2-3.38,3.57Z"/><path class="cls-3" d="M346.6,1623v3.47h3.15v1.67H346.6v6.53c0,1.5.42,2.35,1.65,2.35a5.08,5.08,0,0,0,1.27-.15l.1,1.65a5.48,5.48,0,0,1-1.95.3,3,3,0,0,1-2.37-.93,4.45,4.45,0,0,1-.85-3.15v-6.6h-1.88v-1.67h1.88v-2.9Z"/><path class="cls-3" d="M368,1620.77v14.62c0,1.08,0,2.3.1,3.13h-2l-.09-2.1h-.06a4.46,4.46,0,0,1-4.12,2.37c-2.92,0-5.17-2.47-5.17-6.15,0-4,2.47-6.49,5.42-6.49a4,4,0,0,1,3.65,1.85h0v-7.23Zm-2.2,10.57a3.6,3.6,0,0,0-.1-.92,3.23,3.23,0,0,0-3.17-2.55c-2.28,0-3.63,2-3.63,4.67,0,2.45,1.2,4.48,3.58,4.48a3.31,3.31,0,0,0,3.22-2.63,3.6,3.6,0,0,0,.1-1Z"/><path class="cls-3" d="M382.57,1632.37c0,4.47-3.1,6.42-6,6.42-3.27,0-5.79-2.4-5.79-6.22,0-4,2.65-6.42,6-6.42S382.57,1628.67,382.57,1632.37Zm-9.6.12c0,2.65,1.53,4.65,3.68,4.65s3.67-2,3.67-4.7c0-2-1-4.65-3.62-4.65S373,1630.19,373,1632.49Z"/><path class="cls-3" d="M385.35,1620.77h2.2v17.75h-2.2Z"/><path class="cls-3" d="M402.19,1632.37c0,4.47-3.1,6.42-6,6.42-3.27,0-5.8-2.4-5.8-6.22,0-4,2.65-6.42,6-6.42S402.19,1628.67,402.19,1632.37Zm-9.59.12c0,2.65,1.52,4.65,3.67,4.65s3.67-2,3.67-4.7c0-2-1-4.65-3.62-4.65S392.6,1630.19,392.6,1632.49Z"/><path class="cls-3" d="M405,1630.19c0-1.42,0-2.65-.1-3.77h1.93l.07,2.37h.1a3.62,3.62,0,0,1,3.35-2.64,2.3,2.3,0,0,1,.62.07v2.07a3.91,3.91,0,0,0-.75-.07,3.08,3.08,0,0,0-2.94,2.82,6.2,6.2,0,0,0-.1,1v6.45H405Z"/><path class="cls-3" d="M414.12,1632.87a3.88,3.88,0,0,0,4.15,4.2,8,8,0,0,0,3.35-.63L422,1638a9.77,9.77,0,0,1-4,.75c-3.72,0-6-2.45-6-6.1s2.15-6.52,5.67-6.52c3.95,0,5,3.47,5,5.69a9.94,9.94,0,0,1-.07,1Zm6.45-1.58c0-1.4-.58-3.57-3.05-3.57-2.23,0-3.2,2-3.37,3.57Z"/><path class="cls-3" d="M108.11,1659.69c0-1.24,0-2.27-.1-3.27h1.93l.1,1.95h.07a4.17,4.17,0,0,1,3.8-2.22,3.57,3.57,0,0,1,3.42,2.42h.06a4.9,4.9,0,0,1,1.35-1.57,4.11,4.11,0,0,1,2.67-.85c1.6,0,4,1,4,5.24v7.13h-2.15v-6.85c0-2.33-.85-3.72-2.62-3.72a2.84,2.84,0,0,0-2.6,2,3.62,3.62,0,0,0-.18,1.1v7.48h-2.14v-7.25c0-1.93-.85-3.32-2.53-3.32a3,3,0,0,0-2.72,2.19,3,3,0,0,0-.18,1.08v7.3h-2.15Z"/><path class="cls-3" d="M135.66,1668.52l-.17-1.53h-.08a4.49,4.49,0,0,1-3.7,1.8,3.44,3.44,0,0,1-3.7-3.47c0-2.93,2.6-4.53,7.28-4.5v-.25a2.5,2.5,0,0,0-2.75-2.8,6,6,0,0,0-3.15.9l-.5-1.45a7.5,7.5,0,0,1,4-1.07c3.7,0,4.6,2.52,4.6,4.94v4.53a17.07,17.07,0,0,0,.2,2.9Zm-.32-6.18c-2.4,0-5.13.38-5.13,2.73a2,2,0,0,0,2.08,2.1,3,3,0,0,0,2.92-2,2.11,2.11,0,0,0,.13-.7Z"/><path class="cls-3" d="M151.43,1656.42c-.05.87-.1,1.85-.1,3.33v7c0,2.77-.55,4.47-1.72,5.52a6.4,6.4,0,0,1-4.4,1.45,7.78,7.78,0,0,1-4-1l.55-1.67a6.82,6.82,0,0,0,3.55,1c2.25,0,3.89-1.18,3.89-4.23v-1.35h-.05a4.29,4.29,0,0,1-3.84,2c-3,0-5.15-2.55-5.15-5.9,0-4.1,2.67-6.42,5.45-6.42a4,4,0,0,1,3.77,2.1h0l.1-1.83Zm-2.27,4.77a3.47,3.47,0,0,0-.12-1,3.19,3.19,0,0,0-3.08-2.32c-2.1,0-3.6,1.77-3.6,4.57,0,2.38,1.2,4.35,3.58,4.35a3.22,3.22,0,0,0,3.05-2.25,4,4,0,0,0,.17-1.17Z"/><path class="cls-3" d="M154.84,1659.69c0-1.24,0-2.27-.1-3.27h1.95l.12,2h.05a4.45,4.45,0,0,1,4-2.27c1.68,0,4.27,1,4.27,5.14v7.23h-2.19v-7c0-2-.73-3.57-2.8-3.57a3.23,3.23,0,0,0-3.1,3.27v7.28h-2.2Z"/><path class="cls-3" d="M175.41,1668.52l-.17-1.53h-.08a4.49,4.49,0,0,1-3.7,1.8,3.44,3.44,0,0,1-3.7-3.47c0-2.93,2.6-4.53,7.28-4.5v-.25a2.5,2.5,0,0,0-2.75-2.8,6,6,0,0,0-3.15.9l-.5-1.45a7.5,7.5,0,0,1,4-1.07c3.7,0,4.6,2.52,4.6,4.94v4.53a17.07,17.07,0,0,0,.2,2.9Zm-.32-6.18c-2.4,0-5.13.38-5.13,2.73a2,2,0,0,0,2.08,2.1,3,3,0,0,0,2.92-2,2.11,2.11,0,0,0,.13-.7Z"/><path class="cls-3" d="M192.76,1668.52l-.18-1.53h-.07a4.51,4.51,0,0,1-3.7,1.8,3.44,3.44,0,0,1-3.7-3.47c0-2.93,2.6-4.53,7.28-4.5v-.25a2.5,2.5,0,0,0-2.75-2.8,6,6,0,0,0-3.15.9l-.5-1.45a7.5,7.5,0,0,1,4-1.07c3.7,0,4.6,2.52,4.6,4.94v4.53a17.07,17.07,0,0,0,.2,2.9Zm-.32-6.18c-2.4,0-5.13.38-5.13,2.73a2,2,0,0,0,2.08,2.1,3,3,0,0,0,2.92-2,2.11,2.11,0,0,0,.13-.7Z"/><path class="cls-3" d="M198.11,1650.77h2.2v17.75h-2.2Z"/><path class="cls-3" d="M206.46,1653a1.29,1.29,0,0,1-1.4,1.35,1.31,1.31,0,0,1-1.32-1.35,1.34,1.34,0,0,1,1.37-1.37A1.3,1.3,0,0,1,206.46,1653Zm-2.45,15.5v-12.1h2.2v12.1Z"/><path class="cls-3" d="M218.11,1666.64h-.05a4.31,4.31,0,0,1-3.95,2.15c-2.82,0-5.12-2.45-5.12-6.12,0-4.52,2.92-6.52,5.47-6.52a4,4,0,0,1,3.72,2.1h0l.08-1.83h2.07c0,1-.07,2.08-.07,3.33v13.72h-2.2Zm0-5.32a4.08,4.08,0,0,0-.1-.93,3.21,3.21,0,0,0-3.15-2.49c-2.27,0-3.65,1.92-3.65,4.64,0,2.4,1.15,4.5,3.58,4.5a3.26,3.26,0,0,0,3.14-2.4,3.67,3.67,0,0,0,.18-1.05Z"/><path class="cls-3" d="M234.06,1665.22c0,1.25,0,2.35.1,3.3h-1.95l-.13-2H232a4.53,4.53,0,0,1-4,2.25c-1.9,0-4.18-1-4.18-5.3v-7.07h2.2v6.7c0,2.3.7,3.85,2.7,3.85a3.19,3.19,0,0,0,2.9-2,3.39,3.39,0,0,0,.2-1.13v-7.42h2.2Z"/><path class="cls-3" d="M244.41,1668.52l-.18-1.53h-.07a4.49,4.49,0,0,1-3.7,1.8,3.44,3.44,0,0,1-3.7-3.47c0-2.93,2.6-4.53,7.28-4.5v-.25a2.5,2.5,0,0,0-2.75-2.8,6,6,0,0,0-3.15.9l-.5-1.45a7.5,7.5,0,0,1,4-1.07c3.7,0,4.6,2.52,4.6,4.94v4.53a17.07,17.07,0,0,0,.2,2.9Zm-.33-6.18c-2.39,0-5.12.38-5.12,2.73a2,2,0,0,0,2.08,2.1,3,3,0,0,0,2.92-2,2.1,2.1,0,0,0,.12-.7Z"/><path class="cls-3" d="M249.76,1659.69c0-1.24,0-2.27-.1-3.27h1.93l.1,1.95h.07a4.17,4.17,0,0,1,3.8-2.22,3.57,3.57,0,0,1,3.42,2.42h0a5,5,0,0,1,1.35-1.57,4.15,4.15,0,0,1,2.68-.85c1.6,0,4,1,4,5.24v7.13h-2.15v-6.85c0-2.33-.85-3.72-2.62-3.72a2.84,2.84,0,0,0-2.6,2,3.62,3.62,0,0,0-.18,1.1v7.48h-2.15v-7.25c0-1.93-.85-3.32-2.52-3.32a3,3,0,0,0-2.72,2.19,3,3,0,0,0-.18,1.08v7.3h-2.15Z"/><path class="cls-3" d="M277.13,1662.87c.06,3,1.95,4.2,4.15,4.2a7.91,7.91,0,0,0,3.35-.63L285,1668a9.83,9.83,0,0,1-4,.75c-3.72,0-5.94-2.45-5.94-6.1s2.15-6.52,5.67-6.52c4,0,5,3.47,5,5.69a7.4,7.4,0,0,1-.08,1Zm6.45-1.58c0-1.4-.57-3.57-3.05-3.57-2.22,0-3.2,2-3.37,3.57Z"/><path class="cls-3" d="M288.43,1660.19c0-1.42,0-2.65-.1-3.77h1.93l.07,2.37h.1a3.63,3.63,0,0,1,3.35-2.64,2.43,2.43,0,0,1,.63.07v2.07a4.07,4.07,0,0,0-.75-.07,3.08,3.08,0,0,0-3,2.82,6.2,6.2,0,0,0-.1,1v6.45h-2.18Z"/><path class="cls-3" d="M303.18,1668.52,303,1667h-.08a4.49,4.49,0,0,1-3.69,1.8,3.44,3.44,0,0,1-3.7-3.47c0-2.93,2.6-4.53,7.27-4.5v-.25a2.5,2.5,0,0,0-2.75-2.8,6,6,0,0,0-3.15.9l-.5-1.45a7.5,7.5,0,0,1,4-1.07c3.7,0,4.6,2.52,4.6,4.94v4.53a17.07,17.07,0,0,0,.2,2.9Zm-.32-6.18c-2.4,0-5.12.38-5.12,2.73a2,2,0,0,0,2.07,2.1,3,3,0,0,0,2.92-2,2.11,2.11,0,0,0,.13-.7Z"/><path class="cls-3" d="M311.08,1653v3.47h3.15v1.67h-3.15v6.53c0,1.5.43,2.35,1.65,2.35a5.17,5.17,0,0,0,1.28-.15l.1,1.65a5.52,5.52,0,0,1-1.95.3,3.06,3.06,0,0,1-2.38-.93,4.5,4.5,0,0,1-.85-3.15v-6.6h-1.87v-1.67h1.87v-2.9Z"/><path class="cls-3" d="M322.86,1656.42l2.37,6.8a31.2,31.2,0,0,1,1,3.1h.07c.28-1,.63-2,1-3.1l2.35-6.8H332l-4.75,12.1h-2.1l-4.6-12.1Z"/><path class="cls-3" d="M344.73,1662.37c0,4.47-3.1,6.42-6,6.42-3.28,0-5.8-2.4-5.8-6.22,0-4,2.65-6.42,6-6.42S344.73,1658.67,344.73,1662.37Zm-9.6.12c0,2.65,1.53,4.65,3.68,4.65s3.67-2,3.67-4.7c0-2-1-4.65-3.62-4.65S335.13,1660.19,335.13,1662.49Z"/><path class="cls-3" d="M347.51,1650.77h2.2v17.75h-2.2Z"/><path class="cls-3" d="M363.53,1665.22c0,1.25,0,2.35.1,3.3h-1.95l-.12-2h-.05a4.55,4.55,0,0,1-4,2.25c-1.9,0-4.18-1-4.18-5.3v-7.07h2.2v6.7c0,2.3.7,3.85,2.7,3.85a3.1,3.1,0,0,0,3.1-3.13v-7.42h2.2Z"/><path class="cls-3" d="M369.83,1653v3.47H373v1.67h-3.15v6.53c0,1.5.43,2.35,1.65,2.35a5.17,5.17,0,0,0,1.28-.15l.1,1.65a5.52,5.52,0,0,1-1.95.3,3.06,3.06,0,0,1-2.38-.93,4.5,4.5,0,0,1-.85-3.15v-6.6h-1.87v-1.67h1.87v-2.9Z"/><path class="cls-3" d="M375.46,1660.37c0-1.55,0-2.8-.1-3.95h2l.1,2.08h.05a4.75,4.75,0,0,1,4.3-2.35c2.93,0,5.13,2.47,5.13,6.14,0,4.35-2.65,6.5-5.5,6.5a4.26,4.26,0,0,1-3.73-1.9h-.05v6.58h-2.17Zm2.17,3.22a4.85,4.85,0,0,0,.1.9,3.4,3.4,0,0,0,3.3,2.58c2.33,0,3.68-1.9,3.68-4.68,0-2.42-1.28-4.49-3.6-4.49a3.52,3.52,0,0,0-3.33,2.72,3.76,3.76,0,0,0-.15.9Z"/><path class="cls-3" d="M396.38,1668.52l-.17-1.53h-.08a4.49,4.49,0,0,1-3.7,1.8,3.44,3.44,0,0,1-3.7-3.47c0-2.93,2.6-4.53,7.28-4.5v-.25a2.5,2.5,0,0,0-2.75-2.8,6,6,0,0,0-3.15.9l-.5-1.45a7.5,7.5,0,0,1,4-1.07c3.7,0,4.6,2.52,4.6,4.94v4.53a17.07,17.07,0,0,0,.2,2.9Zm-.32-6.18c-2.4,0-5.13.38-5.13,2.73a2,2,0,0,0,2.08,2.1,3,3,0,0,0,2.92-2,2.11,2.11,0,0,0,.13-.7Z"/><path class="cls-3" d="M404.28,1653v3.47h3.15v1.67h-3.15v6.53c0,1.5.43,2.35,1.65,2.35a5.17,5.17,0,0,0,1.28-.15l.1,1.65a5.52,5.52,0,0,1-1.95.3,3.06,3.06,0,0,1-2.38-.93,4.5,4.5,0,0,1-.85-3.15v-6.6h-1.87v-1.67h1.87v-2.9Z"/><path class="cls-3" d="M409.31,1667.22a1.48,1.48,0,0,1,1.5-1.58,1.58,1.58,0,1,1-1.5,1.58Z"/><path class="cls-3" d="M104,1681.67v10c0,3.78,1.68,5.38,3.93,5.38,2.5,0,4.1-1.65,4.1-5.38v-10h2.2v9.82c0,5.18-2.73,7.3-6.38,7.3-3.45,0-6-2-6-7.2v-9.92Z"/><path class="cls-3" d="M120.65,1683v3.47h3.15v1.67h-3.15v6.53c0,1.5.42,2.35,1.65,2.35a5.08,5.08,0,0,0,1.27-.15l.1,1.65a5.48,5.48,0,0,1-2,.3,3,3,0,0,1-2.37-.93,4.45,4.45,0,0,1-.85-3.15v-6.6h-1.88v-1.67h1.88v-2.9Z"/><path class="cls-3" d="M132.45,1686.42l1.6,6.15c.35,1.35.67,2.6.9,3.85H135c.28-1.23.68-2.53,1.08-3.83l2-6.17h1.85l1.88,6c.45,1.45.8,2.72,1.07,4H143a36.37,36.37,0,0,1,.92-3.93l1.73-6.07h2.17l-3.9,12.1h-2l-1.85-5.78c-.42-1.35-.77-2.55-1.07-4h0a36.91,36.91,0,0,1-1.1,4l-2,5.75h-2l-3.65-12.1Z"/><path class="cls-3" d="M152.42,1683a1.29,1.29,0,0,1-1.4,1.35,1.31,1.31,0,0,1-1.32-1.35,1.34,1.34,0,0,1,1.37-1.37A1.3,1.3,0,0,1,152.42,1683Zm-2.45,15.5v-12.1h2.2v12.1Z"/><path class="cls-3" d="M155.52,1696.27a5.81,5.81,0,0,0,2.9.87c1.6,0,2.35-.8,2.35-1.8s-.62-1.62-2.25-2.22c-2.17-.78-3.2-2-3.2-3.43,0-1.94,1.58-3.54,4.18-3.54a6,6,0,0,1,3,.75l-.55,1.6a4.68,4.68,0,0,0-2.47-.71c-1.3,0-2,.75-2,1.65s.73,1.45,2.3,2c2.1.8,3.18,1.85,3.18,3.65,0,2.13-1.65,3.63-4.53,3.63a6.91,6.91,0,0,1-3.4-.83Z"/><path class="cls-3" d="M168.17,1683a1.29,1.29,0,0,1-1.4,1.35,1.31,1.31,0,0,1-1.32-1.35,1.34,1.34,0,0,1,1.37-1.37A1.3,1.3,0,0,1,168.17,1683Zm-2.45,15.5v-12.1h2.2v12.1Z"/><path class="cls-3" d="M178.1,1692.87a3.88,3.88,0,0,0,4.15,4.2,8,8,0,0,0,3.35-.63L186,1698a9.77,9.77,0,0,1-4,.75c-3.73,0-5.95-2.45-5.95-6.1s2.15-6.52,5.67-6.52c4,0,5,3.47,5,5.69a9.94,9.94,0,0,1-.07,1Zm6.45-1.58c0-1.4-.58-3.57-3.05-3.57-2.23,0-3.2,2-3.38,3.57Z"/><path class="cls-3" d="M189.4,1689.69c0-1.24,0-2.27-.1-3.27h1.95l.12,2h0a4.45,4.45,0,0,1,4-2.27c1.68,0,4.28,1,4.28,5.14v7.23h-2.2v-7c0-2-.73-3.57-2.8-3.57a3.23,3.23,0,0,0-3.1,3.27v7.28h-2.2Z"/><path class="cls-3" d="M205.72,1683a1.29,1.29,0,0,1-1.4,1.35A1.31,1.31,0,0,1,203,1683a1.34,1.34,0,0,1,1.37-1.37A1.3,1.3,0,0,1,205.72,1683Zm-2.45,15.5v-12.1h2.2v12.1Z"/><path class="cls-3" d="M209.12,1689.69c0-1.24,0-2.27-.1-3.27H211l.1,1.95h.07a4.17,4.17,0,0,1,3.8-2.22,3.57,3.57,0,0,1,3.42,2.42h.06a4.9,4.9,0,0,1,1.35-1.57,4.11,4.11,0,0,1,2.67-.85c1.6,0,4,1,4,5.24v7.13h-2.15v-6.85c0-2.33-.85-3.72-2.62-3.72a2.84,2.84,0,0,0-2.6,2,3.62,3.62,0,0,0-.18,1.1v7.48H216.7v-7.25c0-1.93-.85-3.32-2.53-3.32a3,3,0,0,0-2.72,2.19,3,3,0,0,0-.18,1.08v7.3h-2.15Z"/><path class="cls-3" d="M242,1698.52l-.17-1.53h-.08a4.49,4.49,0,0,1-3.7,1.8,3.44,3.44,0,0,1-3.7-3.47c0-2.93,2.6-4.53,7.28-4.5v-.25a2.5,2.5,0,0,0-2.75-2.8,6,6,0,0,0-3.15.9l-.5-1.45a7.5,7.5,0,0,1,4-1.07c3.7,0,4.6,2.52,4.6,4.94v4.53a17.07,17.07,0,0,0,.2,2.9Zm-.32-6.18c-2.4,0-5.13.38-5.13,2.73a2,2,0,0,0,2.08,2.1,3,3,0,0,0,2.92-2,2.11,2.11,0,0,0,.13-.7Z"/><path class="cls-3" d="M257.77,1680.77v14.62c0,1.08,0,2.3.1,3.13h-2l-.1-2.1h-.05a4.48,4.48,0,0,1-4.13,2.37c-2.92,0-5.17-2.47-5.17-6.15,0-4,2.47-6.49,5.42-6.49a4,4,0,0,1,3.65,1.85h0v-7.23Zm-2.2,10.57a3.6,3.6,0,0,0-.1-.92,3.23,3.23,0,0,0-3.17-2.55c-2.28,0-3.63,2-3.63,4.67,0,2.45,1.2,4.48,3.58,4.48a3.31,3.31,0,0,0,3.22-2.63,3.6,3.6,0,0,0,.1-1Z"/><path class="cls-3" d="M266.72,1689.69c0-1.24,0-2.27-.1-3.27h1.93l.1,1.95h.07a4.17,4.17,0,0,1,3.8-2.22,3.57,3.57,0,0,1,3.42,2.42H276a4.88,4.88,0,0,1,1.34-1.57,4.15,4.15,0,0,1,2.68-.85c1.6,0,4,1,4,5.24v7.13h-2.15v-6.85c0-2.33-.85-3.72-2.62-3.72a2.84,2.84,0,0,0-2.6,2,3.62,3.62,0,0,0-.18,1.1v7.48h-2.15v-7.25c0-1.93-.84-3.32-2.52-3.32a3,3,0,0,0-2.72,2.19,3,3,0,0,0-.18,1.08v7.3h-2.15Z"/><path class="cls-3" d="M290,1683a1.29,1.29,0,0,1-1.4,1.35,1.31,1.31,0,0,1-1.32-1.35,1.34,1.34,0,0,1,1.37-1.37A1.3,1.3,0,0,1,290,1683Zm-2.45,15.5v-12.1h2.2v12.1Z"/><path class="cls-3" d="M293.42,1689.69c0-1.24,0-2.27-.1-3.27h1.95l.13,2h.05a4.45,4.45,0,0,1,4-2.27c1.67,0,4.27,1,4.27,5.14v7.23h-2.2v-7c0-2-.72-3.57-2.8-3.57a3.23,3.23,0,0,0-3.1,3.27v7.28h-2.2Z"/><path class="cls-3" d="M309.75,1683a1.37,1.37,0,0,1-2.73,0,1.34,1.34,0,0,1,1.38-1.37A1.31,1.31,0,0,1,309.75,1683Zm-2.45,15.5v-12.1h2.2v12.1Z"/><path class="cls-3" d="M313.15,1689.69c0-1.24,0-2.27-.1-3.27H315l.1,1.95h.08a4.16,4.16,0,0,1,3.8-2.22,3.59,3.59,0,0,1,3.42,2.42h.05a4.9,4.9,0,0,1,1.35-1.57,4.11,4.11,0,0,1,2.67-.85c1.6,0,4,1,4,5.24v7.13h-2.15v-6.85c0-2.33-.85-3.72-2.63-3.72a2.85,2.85,0,0,0-2.6,2,3.63,3.63,0,0,0-.17,1.1v7.48h-2.15v-7.25c0-1.93-.85-3.32-2.52-3.32a3,3,0,0,0-2.73,2.19,3.18,3.18,0,0,0-.17,1.08v7.3h-2.15Z"/><path class="cls-3" d="M340.15,1686.42l2.37,6.8a31.2,31.2,0,0,1,1,3.1h.07c.27-1,.63-2,1-3.1l2.35-6.8h2.3l-4.74,12.1h-2.1l-4.6-12.1Z"/><path class="cls-3" d="M352.29,1692.87a3.89,3.89,0,0,0,4.15,4.2,7.91,7.91,0,0,0,3.35-.63l.38,1.58a9.83,9.83,0,0,1-4,.75c-3.72,0-5.94-2.45-5.94-6.1s2.15-6.52,5.67-6.52c3.95,0,5,3.47,5,5.69a7.4,7.4,0,0,1-.08,1Zm6.45-1.58c0-1.4-.57-3.57-3.05-3.57-2.22,0-3.19,2-3.37,3.57Z"/><path class="cls-3" d="M363.6,1689.69c0-1.24,0-2.27-.1-3.27h1.95l.12,2h.05a4.45,4.45,0,0,1,4-2.27c1.67,0,4.27,1,4.27,5.14v7.23h-2.2v-7c0-2-.72-3.57-2.8-3.57a3.23,3.23,0,0,0-3.09,3.27v7.28h-2.2Z"/><path class="cls-3" d="M379.92,1683a1.29,1.29,0,0,1-1.4,1.35,1.31,1.31,0,0,1-1.32-1.35,1.34,1.34,0,0,1,1.37-1.37A1.3,1.3,0,0,1,379.92,1683Zm-2.45,15.5v-12.1h2.2v12.1Z"/><path class="cls-3" d="M390,1698.52l-.18-1.53h-.07a4.52,4.52,0,0,1-3.7,1.8,3.44,3.44,0,0,1-3.7-3.47c0-2.93,2.6-4.53,7.27-4.5v-.25a2.49,2.49,0,0,0-2.75-2.8,6,6,0,0,0-3.14.9l-.5-1.45a7.5,7.5,0,0,1,4-1.07c3.7,0,4.6,2.52,4.6,4.94v4.53a17.07,17.07,0,0,0,.2,2.9Zm-.33-6.18c-2.4,0-5.12.38-5.12,2.73a2,2,0,0,0,2.07,2.1,3,3,0,0,0,2.93-2,2.39,2.39,0,0,0,.12-.7Z"/><path class="cls-3" d="M395.37,1689.69c0-1.24,0-2.27-.1-3.27h1.93l.09,1.95h.08a4.16,4.16,0,0,1,3.8-2.22,3.57,3.57,0,0,1,3.42,2.42h.05A5,5,0,0,1,406,1687a4.15,4.15,0,0,1,2.68-.85c1.6,0,4,1,4,5.24v7.13h-2.15v-6.85c0-2.33-.85-3.72-2.62-3.72a2.84,2.84,0,0,0-2.6,2,3.62,3.62,0,0,0-.18,1.1v7.48h-2.15v-7.25c0-1.93-.85-3.32-2.52-3.32a3.29,3.29,0,0,0-2.9,3.27v7.3h-2.15Z"/><path class="cls-3" d="M414.8,1701.59a35.44,35.44,0,0,0,1.49-6l2.45-.25a30.14,30.14,0,0,1-2.37,6.07Z"/><path class="cls-3" d="M103.85,1726.64h0a4.28,4.28,0,0,1-3.94,2.15c-2.83,0-5.13-2.45-5.13-6.12,0-4.52,2.93-6.52,5.48-6.52a4,4,0,0,1,3.72,2.1h0l.07-1.83h2.08c0,1-.08,2.08-.08,3.33v13.72h-2.2Zm0-5.32a3.59,3.59,0,0,0-.1-.93,3.2,3.2,0,0,0-3.14-2.49c-2.28,0-3.65,1.92-3.65,4.64,0,2.4,1.15,4.5,3.57,4.5a3.28,3.28,0,0,0,3.15-2.4,3.66,3.66,0,0,0,.17-1.05Z"/><path class="cls-3" d="M119.8,1725.22c0,1.25,0,2.35.1,3.3h-2l-.12-2h0a4.55,4.55,0,0,1-4,2.25c-1.9,0-4.17-1-4.17-5.3v-7.07h2.2v6.7c0,2.3.69,3.85,2.69,3.85a3.1,3.1,0,0,0,3.1-3.13v-7.42h2.2Z"/><path class="cls-3" d="M125.91,1713a1.37,1.37,0,0,1-2.73,0,1.34,1.34,0,0,1,1.38-1.37A1.31,1.31,0,0,1,125.91,1713Zm-2.45,15.5v-12.1h2.2v12.1Z"/><path class="cls-3" d="M129,1726.27a5.81,5.81,0,0,0,2.9.87c1.59,0,2.34-.8,2.34-1.8s-.62-1.62-2.25-2.22c-2.17-.78-3.19-2-3.19-3.43,0-1.94,1.57-3.54,4.17-3.54a6,6,0,0,1,3,.75l-.55,1.6a4.68,4.68,0,0,0-2.47-.71c-1.3,0-2,.75-2,1.65s.72,1.45,2.29,2c2.1.8,3.18,1.85,3.18,3.65,0,2.13-1.65,3.63-4.52,3.63a6.89,6.89,0,0,1-3.4-.83Z"/><path class="cls-3" d="M143.51,1719.69c0-1.24,0-2.27-.1-3.27h2l.13,2h0a4.45,4.45,0,0,1,4-2.27c1.67,0,4.27,1,4.27,5.14v7.23h-2.2v-7c0-2-.72-3.57-2.8-3.57a3.23,3.23,0,0,0-3.1,3.27v7.28h-2.2Z"/><path class="cls-3" d="M168.34,1722.37c0,4.47-3.1,6.42-6,6.42-3.27,0-5.79-2.4-5.79-6.22,0-4,2.64-6.42,6-6.42S168.34,1718.67,168.34,1722.37Zm-9.6.12c0,2.65,1.52,4.65,3.67,4.65s3.68-2,3.68-4.7c0-2-1-4.65-3.63-4.65S158.74,1720.19,158.74,1722.49Z"/><path class="cls-3" d="M170.81,1726.27a5.81,5.81,0,0,0,2.9.87c1.6,0,2.35-.8,2.35-1.8s-.62-1.62-2.25-2.22c-2.17-.78-3.2-2-3.2-3.43,0-1.94,1.58-3.54,4.18-3.54a6,6,0,0,1,3,.75l-.55,1.6a4.68,4.68,0,0,0-2.47-.71c-1.3,0-2,.75-2,1.65s.73,1.45,2.3,2c2.1.8,3.18,1.85,3.18,3.65,0,2.13-1.65,3.63-4.53,3.63a6.91,6.91,0,0,1-3.4-.83Z"/><path class="cls-3" d="M183.66,1713v3.47h3.15v1.67h-3.15v6.53c0,1.5.43,2.35,1.65,2.35a5.17,5.17,0,0,0,1.28-.15l.1,1.65a5.52,5.52,0,0,1-1.95.3,3.06,3.06,0,0,1-2.38-.93,4.5,4.5,0,0,1-.85-3.15v-6.6h-1.87v-1.67h1.87v-2.9Z"/><path class="cls-3" d="M189.29,1720.19c0-1.42,0-2.65-.1-3.77h1.92l.08,2.37h.1a3.62,3.62,0,0,1,3.35-2.64,2.35,2.35,0,0,1,.62.07v2.07a4,4,0,0,0-.75-.07,3.08,3.08,0,0,0-2.95,2.82,6.2,6.2,0,0,0-.1,1v6.45h-2.17Z"/><path class="cls-3" d="M207.59,1725.22c0,1.25,0,2.35.1,3.3h-1.95l-.13-2h-.05a4.54,4.54,0,0,1-4,2.25c-1.9,0-4.17-1-4.17-5.3v-7.07h2.2v6.7c0,2.3.7,3.85,2.7,3.85a3.19,3.19,0,0,0,2.9-2,3.39,3.39,0,0,0,.2-1.13v-7.42h2.2Z"/><path class="cls-3" d="M221.69,1710.77v14.62c0,1.08,0,2.3.1,3.13h-2l-.1-2.1h-.05a4.46,4.46,0,0,1-4.12,2.37c-2.93,0-5.17-2.47-5.17-6.15,0-4,2.47-6.49,5.42-6.49a4,4,0,0,1,3.65,1.85h.05v-7.23Zm-2.2,10.57a4.12,4.12,0,0,0-.1-.92,3.25,3.25,0,0,0-3.18-2.55c-2.27,0-3.62,2-3.62,4.67,0,2.45,1.2,4.48,3.57,4.48a3.31,3.31,0,0,0,3.23-2.63,4.07,4.07,0,0,0,.1-1Z"/><path class="cls-3" d="M230.87,1722.87a3.88,3.88,0,0,0,4.15,4.2,7.91,7.91,0,0,0,3.35-.63l.38,1.58a9.83,9.83,0,0,1-4,.75c-3.72,0-5.95-2.45-5.95-6.1s2.15-6.52,5.68-6.52c4,0,5,3.47,5,5.69a7.4,7.4,0,0,1-.08,1Zm6.45-1.58c0-1.4-.57-3.57-3-3.57-2.22,0-3.2,2-3.37,3.57Z"/><path class="cls-3" d="M243.12,1716.42l1.73,2.6c.45.67.82,1.3,1.22,2h.08c.4-.72.8-1.35,1.2-2l1.7-2.58h2.37l-4.12,5.85,4.25,6.25h-2.5l-1.78-2.73c-.47-.7-.87-1.37-1.3-2.1h-.05c-.4.73-.82,1.38-1.27,2.1l-1.75,2.73h-2.43l4.3-6.18-4.1-5.92Z"/><path class="cls-3" d="M254.52,1722.87a3.88,3.88,0,0,0,4.15,4.2,7.91,7.91,0,0,0,3.35-.63l.38,1.58a9.83,9.83,0,0,1-4,.75c-3.72,0-6-2.45-6-6.1s2.15-6.52,5.68-6.52c3.95,0,5,3.47,5,5.69a7.4,7.4,0,0,1-.08,1Zm6.45-1.58c0-1.4-.57-3.57-3.05-3.57-2.22,0-3.2,2-3.37,3.57Z"/><path class="cls-3" d="M265.82,1720.19c0-1.42,0-2.65-.1-3.77h1.93l.07,2.37h.1a3.63,3.63,0,0,1,3.35-2.64,2.43,2.43,0,0,1,.63.07v2.07a4.07,4.07,0,0,0-.75-.07,3.08,3.08,0,0,0-2.95,2.82,6.2,6.2,0,0,0-.1,1v6.45h-2.18Z"/><path class="cls-3" d="M282.37,1728.07a8.08,8.08,0,0,1-3.47.7c-3.65,0-6-2.48-6-6.18a6.15,6.15,0,0,1,6.5-6.42,7.34,7.34,0,0,1,3.05.63l-.5,1.7a5.08,5.08,0,0,0-2.55-.58c-2.77,0-4.27,2-4.27,4.57,0,2.8,1.8,4.53,4.2,4.53a6.34,6.34,0,0,0,2.7-.6Z"/><path class="cls-3" d="M287.4,1713a1.37,1.37,0,0,1-2.73,0,1.34,1.34,0,0,1,1.38-1.37A1.31,1.31,0,0,1,287.4,1713Zm-2.45,15.5v-12.1h2.2v12.1Z"/><path class="cls-3" d="M297.76,1713v3.47h3.15v1.67h-3.15v6.53c0,1.5.42,2.35,1.65,2.35a5.08,5.08,0,0,0,1.27-.15l.1,1.65a5.48,5.48,0,0,1-1.95.3,3,3,0,0,1-2.37-.93,4.45,4.45,0,0,1-.85-3.15v-6.6h-1.88v-1.67h1.88v-2.9Z"/><path class="cls-3" d="M310.08,1728.52l-.18-1.53h-.07a4.49,4.49,0,0,1-3.7,1.8,3.44,3.44,0,0,1-3.7-3.47c0-2.93,2.6-4.53,7.27-4.5v-.25a2.49,2.49,0,0,0-2.75-2.8,6,6,0,0,0-3.14.9l-.5-1.45a7.5,7.5,0,0,1,4-1.07c3.7,0,4.6,2.52,4.6,4.94v4.53a17.07,17.07,0,0,0,.2,2.9Zm-.33-6.18c-2.39,0-5.12.38-5.12,2.73a2,2,0,0,0,2.07,2.1,3,3,0,0,0,2.93-2,2.39,2.39,0,0,0,.12-.7Z"/><path class="cls-3" d="M318,1713v3.47h3.15v1.67H318v6.53c0,1.5.43,2.35,1.65,2.35a5.24,5.24,0,0,0,1.28-.15l.09,1.65a5.41,5.41,0,0,1-1.94.3,3.06,3.06,0,0,1-2.38-.93,4.5,4.5,0,0,1-.85-3.15v-6.6H314v-1.67h1.87v-2.9Z"/><path class="cls-3" d="M326.06,1713a1.37,1.37,0,0,1-2.73,0,1.34,1.34,0,0,1,1.38-1.37A1.31,1.31,0,0,1,326.06,1713Zm-2.45,15.5v-12.1h2.2v12.1Z"/><path class="cls-3" d="M340.4,1722.37c0,4.47-3.1,6.42-6,6.42-3.27,0-5.8-2.4-5.8-6.22,0-4,2.65-6.42,6-6.42S340.4,1718.67,340.4,1722.37Zm-9.59.12c0,2.65,1.52,4.65,3.67,4.65s3.67-2,3.67-4.7c0-2-1-4.65-3.62-4.65S330.81,1720.19,330.81,1722.49Z"/><path class="cls-3" d="M343.18,1719.69c0-1.24,0-2.27-.1-3.27H345l.13,2h0a4.46,4.46,0,0,1,4-2.27c1.68,0,4.28,1,4.28,5.14v7.23h-2.2v-7c0-2-.73-3.57-2.8-3.57a3.23,3.23,0,0,0-3.1,3.27v7.28h-2.2Z"/><path class="cls-3" d="M371.49,1725.22c0,1.25,0,2.35.1,3.3h-1.95l-.13-2h-.05a4.54,4.54,0,0,1-4,2.25c-1.9,0-4.17-1-4.17-5.3v-7.07h2.2v6.7c0,2.3.7,3.85,2.7,3.85a3.19,3.19,0,0,0,2.9-2,3.39,3.39,0,0,0,.2-1.13v-7.42h2.2Z"/><path class="cls-3" d="M375.14,1710.77h2.2v17.75h-2.2Z"/><path class="cls-3" d="M381,1710.77h2.2v17.75H381Z"/><path class="cls-3" d="M393.64,1728.52l-.18-1.53h-.07a4.52,4.52,0,0,1-3.7,1.8,3.44,3.44,0,0,1-3.7-3.47c0-2.93,2.6-4.53,7.27-4.5v-.25a2.49,2.49,0,0,0-2.75-2.8,6,6,0,0,0-3.15.9l-.49-1.45a7.45,7.45,0,0,1,4-1.07c3.7,0,4.6,2.52,4.6,4.94v4.53a17.07,17.07,0,0,0,.2,2.9Zm-.33-6.18c-2.4,0-5.12.38-5.12,2.73a2,2,0,0,0,2.07,2.1,3,3,0,0,0,2.93-2,2.39,2.39,0,0,0,.12-.7Z"/><path class="cls-3" d="M399,1719.69c0-1.24,0-2.27-.1-3.27h1.92l.1,1.95H401a4.16,4.16,0,0,1,3.8-2.22,3.57,3.57,0,0,1,3.42,2.42h.05a5,5,0,0,1,1.35-1.57,4.15,4.15,0,0,1,2.68-.85c1.6,0,4,1,4,5.24v7.13h-2.15v-6.85c0-2.33-.85-3.72-2.62-3.72a2.84,2.84,0,0,0-2.6,2,3.62,3.62,0,0,0-.18,1.1v7.48h-2.15v-7.25c0-1.93-.85-3.32-2.52-3.32a3,3,0,0,0-2.73,2.19,3.18,3.18,0,0,0-.17,1.08v7.3H399Z"/><path class="cls-3" d="M424.94,1720.94v1.63h-6.18v-1.63Z"/><path class="cls-3" d="M117.14,1758.07a8.13,8.13,0,0,1-3.48.7c-3.65,0-6-2.48-6-6.18a6.15,6.15,0,0,1,6.5-6.42,7.34,7.34,0,0,1,3,.63l-.5,1.7a5.11,5.11,0,0,0-2.55-.58c-2.78,0-4.28,2-4.28,4.57,0,2.8,1.8,4.53,4.2,4.53a6.3,6.3,0,0,0,2.7-.6Z"/><path class="cls-3" d="M130.51,1752.37c0,4.47-3.1,6.42-6,6.42-3.28,0-5.8-2.4-5.8-6.22,0-4,2.65-6.42,6-6.42S130.51,1748.67,130.51,1752.37Zm-9.6.12c0,2.65,1.53,4.65,3.68,4.65s3.67-2,3.67-4.7c0-2-1-4.65-3.62-4.65S120.91,1750.19,120.91,1752.49Z"/><path class="cls-3" d="M133.29,1750.19c0-1.42,0-2.65-.1-3.77h1.92l.08,2.37h.1a3.62,3.62,0,0,1,3.35-2.64,2.35,2.35,0,0,1,.62.07v2.07a4,4,0,0,0-.75-.07,3.08,3.08,0,0,0-2.95,2.82,6.2,6.2,0,0,0-.1,1v6.45h-2.17Z"/><path class="cls-3" d="M141.56,1750.37c0-1.55-.05-2.8-.1-3.95h2l.1,2.08h.05a4.74,4.74,0,0,1,4.3-2.35c2.92,0,5.12,2.47,5.12,6.14,0,4.35-2.65,6.5-5.5,6.5a4.23,4.23,0,0,1-3.72-1.9h0v6.58h-2.18Zm2.18,3.22a4.85,4.85,0,0,0,.1.9,3.39,3.39,0,0,0,3.3,2.58c2.32,0,3.67-1.9,3.67-4.68,0-2.42-1.27-4.49-3.6-4.49a3.5,3.5,0,0,0-3.32,2.72,3.32,3.32,0,0,0-.15.9Z"/><path class="cls-3" d="M157,1752.87a3.88,3.88,0,0,0,4.15,4.2,7.91,7.91,0,0,0,3.35-.63l.37,1.58a9.73,9.73,0,0,1-4,.75c-3.72,0-6-2.45-6-6.1s2.15-6.52,5.68-6.52c3.95,0,5,3.47,5,5.69a7.73,7.73,0,0,1-.07,1Zm6.45-1.58c0-1.4-.57-3.57-3.05-3.57-2.22,0-3.2,2-3.37,3.57Z"/><path class="cls-3" d="M168.31,1750.19c0-1.42,0-2.65-.1-3.77h1.93l.07,2.37h.1a3.63,3.63,0,0,1,3.35-2.64,2.48,2.48,0,0,1,.63.07v2.07a4.07,4.07,0,0,0-.75-.07,3.08,3.08,0,0,0-2.95,2.82,6.2,6.2,0,0,0-.1,1v6.45h-2.18Z"/><path class="cls-3" d="M181.49,1756.27a5.81,5.81,0,0,0,2.9.87c1.6,0,2.35-.8,2.35-1.8s-.63-1.62-2.25-2.22c-2.18-.78-3.2-2-3.2-3.43,0-1.94,1.57-3.54,4.17-3.54a6,6,0,0,1,3,.75l-.55,1.6a4.65,4.65,0,0,0-2.47-.71c-1.3,0-2,.75-2,1.65s.72,1.45,2.3,2c2.1.8,3.17,1.85,3.17,3.65,0,2.13-1.65,3.63-4.52,3.63a6.89,6.89,0,0,1-3.4-.83Z"/><path class="cls-3" d="M201.81,1755.22c0,1.25,0,2.35.1,3.3H200l-.13-2h0a4.55,4.55,0,0,1-4,2.25c-1.9,0-4.18-1-4.18-5.3v-7.07h2.2v6.7c0,2.3.7,3.85,2.7,3.85a3.1,3.1,0,0,0,3.1-3.13v-7.42h2.2Z"/><path class="cls-3" d="M205.16,1756.27a5.81,5.81,0,0,0,2.9.87c1.6,0,2.35-.8,2.35-1.8s-.62-1.62-2.25-2.22c-2.17-.78-3.2-2-3.2-3.43,0-1.94,1.58-3.54,4.18-3.54a6,6,0,0,1,3,.75l-.55,1.6a4.72,4.72,0,0,0-2.48-.71c-1.29,0-2,.75-2,1.65s.73,1.45,2.3,2c2.1.8,3.17,1.85,3.17,3.65,0,2.13-1.65,3.63-4.52,3.63a6.91,6.91,0,0,1-3.4-.83Z"/><path class="cls-3" d="M224,1758.07a8.08,8.08,0,0,1-3.47.7c-3.65,0-6-2.48-6-6.18a6.15,6.15,0,0,1,6.5-6.42,7.29,7.29,0,0,1,3,.63l-.5,1.7a5.07,5.07,0,0,0-2.54-.58c-2.78,0-4.28,2-4.28,4.57,0,2.8,1.8,4.53,4.2,4.53a6.34,6.34,0,0,0,2.7-.6Z"/><path class="cls-3" d="M229,1743a1.29,1.29,0,0,1-1.4,1.35,1.31,1.31,0,0,1-1.32-1.35,1.34,1.34,0,0,1,1.37-1.37A1.3,1.3,0,0,1,229,1743Zm-2.45,15.5v-12.1h2.2v12.1Z"/><path class="cls-3" d="M232.41,1750.37c0-1.55,0-2.8-.1-3.95h2l.1,2.08h.05a4.74,4.74,0,0,1,4.3-2.35c2.92,0,5.12,2.47,5.12,6.14,0,4.35-2.65,6.5-5.5,6.5a4.23,4.23,0,0,1-3.72-1.9h0v6.58h-2.18Zm2.18,3.22a4.85,4.85,0,0,0,.1.9,3.39,3.39,0,0,0,3.3,2.58c2.32,0,3.67-1.9,3.67-4.68,0-2.42-1.28-4.49-3.6-4.49a3.5,3.5,0,0,0-3.32,2.72,3.32,3.32,0,0,0-.15.9Z"/><path class="cls-3" d="M249.09,1743a1.37,1.37,0,0,1-2.73,0,1.34,1.34,0,0,1,1.38-1.37A1.31,1.31,0,0,1,249.09,1743Zm-2.45,15.5v-12.1h2.2v12.1Z"/><path class="cls-3" d="M255.13,1743v3.47h3.15v1.67h-3.15v6.53c0,1.5.43,2.35,1.65,2.35a5.17,5.17,0,0,0,1.28-.15l.1,1.65a5.52,5.52,0,0,1-2,.3,3.06,3.06,0,0,1-2.38-.93,4.5,4.5,0,0,1-.84-3.15v-6.6h-1.88v-1.67H253v-2.9Z"/><path class="cls-3" d="M266.06,1740.77h2.2v17.75h-2.2Z"/><path class="cls-3" d="M282.91,1752.37c0,4.47-3.1,6.42-6,6.42-3.27,0-5.79-2.4-5.79-6.22,0-4,2.65-6.42,6-6.42S282.91,1748.67,282.91,1752.37Zm-9.6.12c0,2.65,1.52,4.65,3.67,4.65s3.68-2,3.68-4.7c0-2-1-4.65-3.63-4.65S273.31,1750.19,273.31,1752.49Z"/><path class="cls-3" d="M285.58,1758.52c.05-.83.1-2,.1-3.13v-14.62h2.18v7.6h.05a4.49,4.49,0,0,1,4.12-2.22c3,0,5.13,2.49,5.1,6.17,0,4.32-2.72,6.47-5.42,6.47a4.31,4.31,0,0,1-4-2.27h-.08l-.1,2Zm2.28-4.85a4.17,4.17,0,0,0,.1.8,3.39,3.39,0,0,0,3.3,2.57c2.3,0,3.67-1.87,3.67-4.65,0-2.42-1.25-4.49-3.6-4.49a3.5,3.5,0,0,0-3.35,2.69,4.36,4.36,0,0,0-.12.9Z"/><path class="cls-3" d="M310.86,1752.37c0,4.47-3.1,6.42-6,6.42-3.27,0-5.79-2.4-5.79-6.22,0-4,2.64-6.42,6-6.42S310.86,1748.67,310.86,1752.37Zm-9.6.12c0,2.65,1.52,4.65,3.67,4.65s3.68-2,3.68-4.7c0-2-1-4.65-3.63-4.65S301.26,1750.19,301.26,1752.49Z"/><path class="cls-3" d="M313.63,1750.19c0-1.42,0-2.65-.09-3.77h1.92l.07,2.37h.1a3.63,3.63,0,0,1,3.35-2.64,2.43,2.43,0,0,1,.63.07v2.07a4.07,4.07,0,0,0-.75-.07,3.08,3.08,0,0,0-2.95,2.82,6.2,6.2,0,0,0-.1,1v6.45h-2.18Z"/><path class="cls-3" d="M325.06,1743v3.47h3.15v1.67h-3.15v6.53c0,1.5.42,2.35,1.65,2.35a5.08,5.08,0,0,0,1.27-.15l.1,1.65a5.48,5.48,0,0,1-1.95.3,3,3,0,0,1-2.37-.93,4.45,4.45,0,0,1-.85-3.15v-6.6H321v-1.67h1.87v-2.9Z"/><path class="cls-3" d="M333.13,1743a1.29,1.29,0,0,1-1.4,1.35,1.31,1.31,0,0,1-1.32-1.35,1.34,1.34,0,0,1,1.37-1.37A1.3,1.3,0,0,1,333.13,1743Zm-2.45,15.5v-12.1h2.2v12.1Z"/><path class="cls-3" d="M336.23,1756.27a5.81,5.81,0,0,0,2.9.87c1.6,0,2.35-.8,2.35-1.8s-.62-1.62-2.25-2.22c-2.17-.78-3.2-2-3.2-3.43,0-1.94,1.58-3.54,4.18-3.54a6,6,0,0,1,3,.75l-.55,1.6a4.68,4.68,0,0,0-2.47-.71c-1.3,0-2,.75-2,1.65s.73,1.45,2.3,2c2.1.8,3.18,1.85,3.18,3.65,0,2.13-1.65,3.63-4.53,3.63a6.91,6.91,0,0,1-3.4-.83Z"/><path class="cls-3" d="M351.73,1749.69c0-1.24,0-2.27-.1-3.27h1.95l.13,2h.05a4.45,4.45,0,0,1,4-2.27c1.67,0,4.27,1,4.27,5.14v7.23h-2.2v-7c0-2-.72-3.57-2.8-3.57a3.23,3.23,0,0,0-3.1,3.27v7.28h-2.2Z"/><path class="cls-3" d="M368.06,1743a1.37,1.37,0,0,1-2.73,0,1.34,1.34,0,0,1,1.38-1.37A1.31,1.31,0,0,1,368.06,1743Zm-2.45,15.5v-12.1h2.2v12.1Z"/><path class="cls-3" d="M371.16,1756.27a5.81,5.81,0,0,0,2.9.87c1.6,0,2.35-.8,2.35-1.8s-.63-1.62-2.25-2.22c-2.18-.78-3.2-2-3.2-3.43,0-1.94,1.57-3.54,4.17-3.54a6.06,6.06,0,0,1,3,.75l-.55,1.6a4.72,4.72,0,0,0-2.48-.71c-1.3,0-2,.75-2,1.65s.72,1.45,2.3,2c2.1.8,3.17,1.85,3.17,3.65,0,2.13-1.65,3.63-4.52,3.63a6.89,6.89,0,0,1-3.4-.83Z"/><path class="cls-3" d="M381.36,1740.77h2.2v17.75h-2.2Z"/><path class="cls-3" d="M402.68,1755.22c0,1.25,0,2.35.1,3.3h-1.95l-.12-2h0a4.55,4.55,0,0,1-4,2.25c-1.9,0-4.18-1-4.18-5.3v-7.07h2.2v6.7c0,2.3.7,3.85,2.7,3.85a3.1,3.1,0,0,0,3.1-3.13v-7.42h2.2Z"/><path class="cls-3" d="M409,1743v3.47h3.15v1.67H409v6.53c0,1.5.43,2.35,1.65,2.35a5.17,5.17,0,0,0,1.28-.15l.1,1.65a5.52,5.52,0,0,1-1.95.3,3.06,3.06,0,0,1-2.38-.93,4.5,4.5,0,0,1-.85-3.15v-6.6H405v-1.67h1.87v-2.9Z"/><path class="cls-3" d="M108.76,1788.52l-.17-1.53h-.08a4.49,4.49,0,0,1-3.7,1.8,3.44,3.44,0,0,1-3.7-3.47c0-2.93,2.6-4.53,7.28-4.5v-.25a2.5,2.5,0,0,0-2.75-2.8,6,6,0,0,0-3.15.9l-.5-1.45a7.5,7.5,0,0,1,4-1.07c3.7,0,4.6,2.52,4.6,4.94v4.53a17.07,17.07,0,0,0,.2,2.9Zm-.32-6.18c-2.4,0-5.13.38-5.13,2.73a2,2,0,0,0,2.08,2.1,3,3,0,0,0,2.92-2,2.11,2.11,0,0,0,.13-.7Z"/><path class="cls-3" d="M114.11,1770.77h2.2v17.75h-2.2Z"/><path class="cls-3" d="M122.46,1773a1.29,1.29,0,0,1-1.4,1.35,1.31,1.31,0,0,1-1.32-1.35,1.34,1.34,0,0,1,1.37-1.37A1.3,1.3,0,0,1,122.46,1773Zm-2.45,15.5v-12.1h2.2v12.1Z"/><path class="cls-3" d="M134.11,1786.64h-.05a4.31,4.31,0,0,1-3.95,2.15c-2.82,0-5.12-2.45-5.12-6.12,0-4.52,2.92-6.52,5.47-6.52a4,4,0,0,1,3.73,2.1h.05l.07-1.83h2.07c0,1-.07,2.08-.07,3.33v13.72h-2.2Zm0-5.32a3.59,3.59,0,0,0-.1-.93,3.2,3.2,0,0,0-3.15-2.49c-2.27,0-3.65,1.92-3.65,4.64,0,2.4,1.15,4.5,3.58,4.5a3.28,3.28,0,0,0,3.15-2.4,3.66,3.66,0,0,0,.17-1.05Z"/><path class="cls-3" d="M150.06,1785.22c0,1.25,0,2.35.1,3.3h-1.95l-.13-2h0a4.55,4.55,0,0,1-4,2.25c-1.9,0-4.18-1-4.18-5.3v-7.07h2.2v6.7c0,2.3.7,3.85,2.7,3.85a3.1,3.1,0,0,0,3.1-3.13v-7.42h2.2Z"/><path class="cls-3" d="M156.16,1773a1.29,1.29,0,0,1-1.4,1.35,1.31,1.31,0,0,1-1.32-1.35,1.34,1.34,0,0,1,1.37-1.37A1.3,1.3,0,0,1,156.16,1773Zm-2.45,15.5v-12.1h2.2v12.1Z"/><path class="cls-3" d="M159.56,1780.37c0-1.55-.05-2.8-.1-3.95h2l.1,2.08h.05a4.74,4.74,0,0,1,4.3-2.35c2.92,0,5.12,2.47,5.12,6.14,0,4.35-2.65,6.5-5.5,6.5a4.23,4.23,0,0,1-3.72-1.9h0v6.58h-2.18Zm2.18,3.22a4.85,4.85,0,0,0,.1.9,3.39,3.39,0,0,0,3.3,2.58c2.32,0,3.67-1.9,3.67-4.68,0-2.42-1.27-4.49-3.6-4.49a3.5,3.5,0,0,0-3.32,2.72,3.32,3.32,0,0,0-.15.9Z"/><path class="cls-3" d="M180.31,1782.87a3.88,3.88,0,0,0,4.15,4.2,8,8,0,0,0,3.35-.63l.37,1.58a9.77,9.77,0,0,1-4,.75c-3.72,0-5.95-2.45-5.95-6.1s2.15-6.52,5.67-6.52c4,0,5,3.47,5,5.69a9.94,9.94,0,0,1-.07,1Zm6.45-1.58c0-1.4-.58-3.57-3-3.57-2.22,0-3.2,2-3.37,3.57Z"/><path class="cls-3" d="M192.56,1776.42l1.73,2.6c.45.67.82,1.3,1.22,2h.08c.4-.72.8-1.35,1.2-2l1.69-2.58h2.38l-4.12,5.85,4.24,6.25h-2.5l-1.77-2.73c-.47-.7-.88-1.37-1.3-2.1h0c-.4.73-.82,1.38-1.27,2.1l-1.75,2.73h-2.43l4.3-6.18-4.1-5.92Z"/><path class="cls-3" d="M209.63,1782.87c.06,3,2,4.2,4.15,4.2a7.91,7.91,0,0,0,3.35-.63l.38,1.58a9.83,9.83,0,0,1-4,.75c-3.72,0-5.94-2.45-5.94-6.1s2.15-6.52,5.67-6.52c3.95,0,5,3.47,5,5.69a7.4,7.4,0,0,1-.08,1Zm6.45-1.58c0-1.4-.57-3.57-3.05-3.57-2.22,0-3.2,2-3.37,3.57Z"/><path class="cls-3" d="M227.63,1788.52l-.17-1.53h-.08a4.49,4.49,0,0,1-3.69,1.8,3.44,3.44,0,0,1-3.7-3.47c0-2.93,2.6-4.53,7.27-4.5v-.25a2.5,2.5,0,0,0-2.75-2.8,6,6,0,0,0-3.15.9l-.5-1.45a7.5,7.5,0,0,1,4-1.07c3.7,0,4.6,2.52,4.6,4.94v4.53a17.07,17.07,0,0,0,.2,2.9Zm-.32-6.18c-2.4,0-5.12.38-5.12,2.73a2,2,0,0,0,2.07,2.1,3,3,0,0,0,2.92-2,2.11,2.11,0,0,0,.13-.7Z"/><path class="cls-3" d="M246.91,1788.07a8.13,8.13,0,0,1-3.48.7c-3.64,0-6-2.48-6-6.18a6.15,6.15,0,0,1,6.5-6.42,7.34,7.34,0,0,1,3.05.63l-.5,1.7a5.11,5.11,0,0,0-2.55-.58c-2.78,0-4.28,2-4.28,4.57,0,2.8,1.8,4.53,4.2,4.53a6.3,6.3,0,0,0,2.7-.6Z"/><path class="cls-3" d="M260.28,1782.37c0,4.47-3.1,6.42-6,6.42-3.27,0-5.8-2.4-5.8-6.22,0-4,2.65-6.42,6-6.42S260.28,1778.67,260.28,1782.37Zm-9.6.12c0,2.65,1.53,4.65,3.68,4.65s3.67-2,3.67-4.7c0-2-1-4.65-3.62-4.65S250.68,1780.19,250.68,1782.49Z"/><path class="cls-3" d="M263.06,1779.69c0-1.24,0-2.27-.1-3.27h1.92l.1,1.95h.08a4.16,4.16,0,0,1,3.8-2.22,3.57,3.57,0,0,1,3.42,2.42h.05a5,5,0,0,1,1.35-1.57,4.15,4.15,0,0,1,2.68-.85c1.6,0,4,1,4,5.24v7.13h-2.15v-6.85c0-2.33-.85-3.72-2.62-3.72a2.84,2.84,0,0,0-2.6,2,3.62,3.62,0,0,0-.18,1.1v7.48h-2.15v-7.25c0-1.93-.85-3.32-2.52-3.32a3,3,0,0,0-2.73,2.19,3.18,3.18,0,0,0-.17,1.08v7.3h-2.15Z"/><path class="cls-3" d="M283.91,1779.69c0-1.24,0-2.27-.1-3.27h1.93l.09,1.95h.08a4.16,4.16,0,0,1,3.8-2.22,3.57,3.57,0,0,1,3.42,2.42h.05a5,5,0,0,1,1.35-1.57,4.15,4.15,0,0,1,2.68-.85c1.6,0,4,1,4,5.24v7.13H299v-6.85c0-2.33-.85-3.72-2.62-3.72a2.84,2.84,0,0,0-2.6,2,3.62,3.62,0,0,0-.18,1.1v7.48h-2.15v-7.25c0-1.93-.85-3.32-2.52-3.32a3.29,3.29,0,0,0-2.9,3.27v7.3h-2.15Z"/><path class="cls-3" d="M315.71,1782.37c0,4.47-3.1,6.42-6,6.42-3.27,0-5.79-2.4-5.79-6.22,0-4,2.64-6.42,6-6.42S315.71,1778.67,315.71,1782.37Zm-9.6.12c0,2.65,1.52,4.65,3.67,4.65s3.68-2,3.68-4.7c0-2-1-4.65-3.63-4.65S306.11,1780.19,306.11,1782.49Z"/><path class="cls-3" d="M328.93,1770.77v14.62c0,1.08,0,2.3.1,3.13h-2l-.1-2.1h0a4.48,4.48,0,0,1-4.13,2.37c-2.92,0-5.17-2.47-5.17-6.15,0-4,2.47-6.49,5.42-6.49a4,4,0,0,1,3.65,1.85h.05v-7.23Zm-2.2,10.57a3.6,3.6,0,0,0-.1-.92,3.23,3.23,0,0,0-3.17-2.55c-2.28,0-3.63,2-3.63,4.67,0,2.45,1.2,4.48,3.58,4.48a3.31,3.31,0,0,0,3.22-2.63,3.6,3.6,0,0,0,.1-1Z"/><path class="cls-3" d="M343.53,1782.37c0,4.47-3.1,6.42-6,6.42-3.27,0-5.8-2.4-5.8-6.22,0-4,2.65-6.42,6-6.42S343.53,1778.67,343.53,1782.37Zm-9.6.12c0,2.65,1.53,4.65,3.68,4.65s3.67-2,3.67-4.7c0-2-1-4.65-3.62-4.65S333.93,1780.19,333.93,1782.49Z"/><path class="cls-3" d="M360.23,1788.07a8.08,8.08,0,0,1-3.47.7c-3.65,0-6-2.48-6-6.18a6.14,6.14,0,0,1,6.49-6.42,7.34,7.34,0,0,1,3,.63l-.5,1.7a5.08,5.08,0,0,0-2.55-.58c-2.77,0-4.27,2-4.27,4.57,0,2.8,1.8,4.53,4.2,4.53a6.34,6.34,0,0,0,2.7-.6Z"/><path class="cls-3" d="M373.61,1782.37c0,4.47-3.1,6.42-6,6.42-3.27,0-5.79-2.4-5.79-6.22,0-4,2.64-6.42,6-6.42S373.61,1778.67,373.61,1782.37Zm-9.6.12c0,2.65,1.52,4.65,3.67,4.65s3.68-2,3.68-4.7c0-2-1-4.65-3.63-4.65S364,1780.19,364,1782.49Z"/><path class="cls-3" d="M376.38,1779.69c0-1.24,0-2.27-.1-3.27h2l.13,2h.05a4.45,4.45,0,0,1,4-2.27c1.67,0,4.27,1,4.27,5.14v7.23h-2.2v-7c0-2-.72-3.57-2.8-3.57a3.23,3.23,0,0,0-3.1,3.27v7.28h-2.2Z"/><path class="cls-3" d="M390,1786.27a5.81,5.81,0,0,0,2.9.87c1.6,0,2.35-.8,2.35-1.8s-.63-1.62-2.25-2.22c-2.18-.78-3.2-2-3.2-3.43,0-1.94,1.57-3.54,4.17-3.54a6.06,6.06,0,0,1,3,.75l-.55,1.6a4.72,4.72,0,0,0-2.48-.71c-1.3,0-2,.75-2,1.65s.72,1.45,2.3,2c2.1.8,3.17,1.85,3.17,3.65,0,2.13-1.65,3.63-4.52,3.63a6.89,6.89,0,0,1-3.4-.83Z"/><path class="cls-3" d="M401.38,1782.87a3.88,3.88,0,0,0,4.15,4.2,7.91,7.91,0,0,0,3.35-.63l.38,1.58a9.83,9.83,0,0,1-4,.75c-3.72,0-5.94-2.45-5.94-6.1s2.14-6.52,5.67-6.52c4,0,5,3.47,5,5.69a7.4,7.4,0,0,1-.08,1Zm6.45-1.58c0-1.4-.57-3.57-3.05-3.57-2.22,0-3.2,2-3.37,3.57Z"/><path class="cls-3" d="M418.48,1780.94v1.63h-6.17v-1.63Z"/><rect class="cls-2" x="129.92" y="1892.05" width="250.27" height="212.06" rx="2.63"/><rect class="cls-2" x="129.92" y="2371.88" width="250.27" height="212.06" rx="2.63"/><rect class="cls-2" x="129.92" y="2131.97" width="250.27" height="212.06" rx="2.63"/><rect class="cls-2" x="129.92" y="2611.8" width="250.27" height="212.06" rx="2.63"/><rect class="cls-2" x="311.98" y="24.23" width="85.45" height="38.21" rx="2.63"/><rect class="cls-2" x="96.41" y="395.25" width="326.65" height="200.26" rx="2.63"/><path class="cls-3" d="M148.33,627.19h2.17v15h7.2V644h-9.37Z"/><path class="cls-3" d="M170.65,637.89c0,4.47-3.1,6.42-6,6.42-3.27,0-5.79-2.4-5.79-6.22,0-4.05,2.65-6.42,6-6.42S170.65,634.19,170.65,637.89Zm-9.6.12c0,2.65,1.53,4.65,3.67,4.65s3.68-2,3.68-4.7c0-2.05-1-4.64-3.63-4.64S161.05,635.71,161.05,638Z"/><path class="cls-3" d="M173.42,635.71c0-1.42,0-2.64-.09-3.77h1.92l.07,2.37h.1a3.63,3.63,0,0,1,3.35-2.64,2.43,2.43,0,0,1,.63.07v2.07a4.07,4.07,0,0,0-.75-.07,3.09,3.09,0,0,0-3,2.82,6.2,6.2,0,0,0-.1,1V644h-2.18Z"/><path class="cls-3" d="M182.57,638.39a3.88,3.88,0,0,0,4.15,4.2,7.91,7.91,0,0,0,3.35-.63l.38,1.58a9.83,9.83,0,0,1-4,.75c-3.72,0-5.94-2.45-5.94-6.1s2.14-6.52,5.67-6.52c3.95,0,5,3.47,5,5.69a7.4,7.4,0,0,1-.08,1Zm6.45-1.58c0-1.4-.57-3.57-3.05-3.57-2.22,0-3.2,2-3.37,3.57Z"/><path class="cls-3" d="M193.87,635.21c0-1.25,0-2.27-.09-3.27h1.92l.1,1.95h.07a4.17,4.17,0,0,1,3.8-2.22,3.59,3.59,0,0,1,3.43,2.42h.05a4.9,4.9,0,0,1,1.35-1.57,4.05,4.05,0,0,1,2.67-.85c1.6,0,4,1,4,5.24V644H209v-6.85c0-2.32-.85-3.73-2.63-3.73a2.86,2.86,0,0,0-2.6,2,3.63,3.63,0,0,0-.17,1.1V644h-2.15v-7.25c0-1.92-.85-3.33-2.53-3.33a3,3,0,0,0-2.72,2.2,3.18,3.18,0,0,0-.18,1.08V644h-2.15Z"/><path class="cls-3" d="M222.47,628.54a1.29,1.29,0,0,1-1.4,1.35,1.31,1.31,0,0,1-1.32-1.35,1.34,1.34,0,0,1,1.37-1.37A1.3,1.3,0,0,1,222.47,628.54ZM220,644v-12.1h2.2V644Z"/><path class="cls-3" d="M225.87,635.89c0-1.55-.05-2.8-.1-3.95h2l.1,2.08h.05a4.74,4.74,0,0,1,4.3-2.35c2.92,0,5.12,2.47,5.12,6.14,0,4.35-2.65,6.5-5.5,6.5a4.23,4.23,0,0,1-3.72-1.9h0V649h-2.18Zm2.18,3.22a4.85,4.85,0,0,0,.1.9,3.39,3.39,0,0,0,3.3,2.58c2.32,0,3.67-1.9,3.67-4.68,0-2.42-1.27-4.49-3.6-4.49a3.5,3.5,0,0,0-3.32,2.72,3.32,3.32,0,0,0-.15.9Z"/><path class="cls-3" d="M239.8,641.79a5.81,5.81,0,0,0,2.9.87c1.6,0,2.35-.8,2.35-1.8s-.63-1.62-2.25-2.22c-2.18-.78-3.2-2-3.2-3.43,0-1.94,1.57-3.54,4.17-3.54a6.06,6.06,0,0,1,3,.75l-.55,1.6a4.64,4.64,0,0,0-2.48-.7c-1.3,0-2,.74-2,1.64s.72,1.45,2.3,2c2.1.8,3.17,1.85,3.17,3.65,0,2.13-1.65,3.63-4.52,3.63a6.89,6.89,0,0,1-3.4-.83Z"/><path class="cls-3" d="M260.12,640.74c0,1.25,0,2.35.1,3.3h-2l-.12-2h0a4.55,4.55,0,0,1-4,2.25c-1.9,0-4.18-1-4.18-5.3v-7.07h2.2v6.7c0,2.3.7,3.85,2.7,3.85a3.1,3.1,0,0,0,3.1-3.13v-7.42h2.2Z"/><path class="cls-3" d="M263.77,635.21c0-1.25,0-2.27-.1-3.27h1.93l.1,1.95h.07a4.17,4.17,0,0,1,3.8-2.22,3.59,3.59,0,0,1,3.43,2.42h.05a4.9,4.9,0,0,1,1.35-1.57,4.05,4.05,0,0,1,2.67-.85c1.6,0,4,1,4,5.24V644H278.9v-6.85c0-2.32-.86-3.73-2.63-3.73a2.86,2.86,0,0,0-2.6,2,3.63,3.63,0,0,0-.17,1.1V644h-2.15v-7.25c0-1.92-.85-3.33-2.53-3.33a3,3,0,0,0-2.72,2.2,3,3,0,0,0-.18,1.08V644h-2.15Z"/><path class="cls-3" d="M300.37,626.29v14.62c0,1.08,0,2.3.1,3.13h-2l-.1-2.1h0a4.48,4.48,0,0,1-4.13,2.37c-2.92,0-5.17-2.47-5.17-6.15,0-4,2.47-6.49,5.42-6.49a4,4,0,0,1,3.65,1.85h.05v-7.23Zm-2.2,10.57a3.6,3.6,0,0,0-.1-.92,3.23,3.23,0,0,0-3.17-2.55c-2.28,0-3.63,2-3.63,4.67,0,2.45,1.2,4.48,3.58,4.48a3.31,3.31,0,0,0,3.22-2.63,3.6,3.6,0,0,0,.1-.95Z"/><path class="cls-3" d="M315,637.89c0,4.47-3.1,6.42-6,6.42-3.28,0-5.8-2.4-5.8-6.22,0-4.05,2.65-6.42,6-6.42S315,634.19,315,637.89Zm-9.6.12c0,2.65,1.53,4.65,3.68,4.65s3.67-2,3.67-4.7c0-2.05-1-4.64-3.62-4.64S305.37,635.71,305.37,638Z"/><path class="cls-3" d="M317.75,626.29H320V644h-2.2Z"/><path class="cls-3" d="M334.59,637.89c0,4.47-3.09,6.42-6,6.42-3.27,0-5.8-2.4-5.8-6.22,0-4.05,2.65-6.42,6-6.42S334.59,634.19,334.59,637.89ZM325,638c0,2.65,1.52,4.65,3.67,4.65s3.68-2,3.68-4.7c0-2.05-1-4.64-3.63-4.64S325,635.71,325,638Z"/><path class="cls-3" d="M337.37,635.71c0-1.42,0-2.64-.1-3.77h1.93l.07,2.37h.1a3.63,3.63,0,0,1,3.35-2.64,2.43,2.43,0,0,1,.63.07v2.07a4.07,4.07,0,0,0-.75-.07,3.09,3.09,0,0,0-3,2.82,6.2,6.2,0,0,0-.1,1V644h-2.18Z"/><path class="cls-3" d="M350.55,641.79a5.81,5.81,0,0,0,2.9.87c1.6,0,2.35-.8,2.35-1.8s-.63-1.62-2.25-2.22c-2.18-.78-3.2-2-3.2-3.43,0-1.94,1.57-3.54,4.17-3.54a6.06,6.06,0,0,1,3,.75L357,634a4.64,4.64,0,0,0-2.48-.7c-1.3,0-2,.74-2,1.64s.72,1.45,2.3,2c2.1.8,3.17,1.85,3.17,3.65,0,2.13-1.65,3.63-4.52,3.63a6.89,6.89,0,0,1-3.4-.83Z"/><path class="cls-3" d="M363.2,628.54a1.37,1.37,0,0,1-2.73,0,1.34,1.34,0,0,1,1.38-1.37A1.31,1.31,0,0,1,363.2,628.54ZM360.75,644v-12.1H363V644Z"/><path class="cls-3" d="M369.25,628.47v3.47h3.15v1.68h-3.15v6.52c0,1.5.42,2.35,1.65,2.35a5.08,5.08,0,0,0,1.27-.15l.1,1.65a5.48,5.48,0,0,1-1.95.3,3,3,0,0,1-2.37-.93,4.45,4.45,0,0,1-.85-3.15v-6.59h-1.88v-1.68h1.88V629Z"/><path class="cls-3" d="M126.27,674l-.18-1.53H126a4.52,4.52,0,0,1-3.7,1.8,3.44,3.44,0,0,1-3.7-3.47c0-2.93,2.6-4.53,7.27-4.5v-.25a2.49,2.49,0,0,0-2.75-2.8,6,6,0,0,0-3.15.9l-.5-1.45a7.51,7.51,0,0,1,4-1.07c3.7,0,4.6,2.52,4.6,4.94v4.53a17.07,17.07,0,0,0,.2,2.9Zm-.33-6.18c-2.4-.05-5.12.38-5.12,2.73a2,2,0,0,0,2.07,2.1,3,3,0,0,0,2.93-2,2.39,2.39,0,0,0,.12-.7Z"/><path class="cls-3" d="M131.62,665.21c0-1.25,0-2.27-.1-3.27h1.92l.1,1.95h.08a4.16,4.16,0,0,1,3.8-2.22,3.57,3.57,0,0,1,3.42,2.42h0a5,5,0,0,1,1.35-1.57,4.05,4.05,0,0,1,2.67-.85c1.6,0,4,1,4,5.24V674h-2.15v-6.85c0-2.32-.85-3.73-2.63-3.73a2.87,2.87,0,0,0-2.6,2,3.63,3.63,0,0,0-.17,1.1V674h-2.15v-7.25c0-1.92-.85-3.33-2.52-3.33a3,3,0,0,0-2.73,2.2,3.18,3.18,0,0,0-.17,1.08V674h-2.15Z"/><path class="cls-3" d="M153.69,668.39a3.88,3.88,0,0,0,4.15,4.2,7.94,7.94,0,0,0,3.35-.63l.37,1.58a9.73,9.73,0,0,1-4,.75c-3.72,0-5.95-2.45-5.95-6.1s2.15-6.52,5.68-6.52c3.94,0,5,3.47,5,5.69a9.94,9.94,0,0,1-.07,1Zm6.45-1.58c0-1.4-.57-3.57-3-3.57-2.22,0-3.2,2-3.37,3.57Z"/><path class="cls-3" d="M167.64,658.47v3.47h3.15v1.68h-3.15v6.52c0,1.5.43,2.35,1.65,2.35a5.17,5.17,0,0,0,1.28-.15l.1,1.65a5.52,5.52,0,0,1-1.95.3,3.06,3.06,0,0,1-2.38-.93,4.5,4.5,0,0,1-.85-3.15v-6.59h-1.87v-1.68h1.87V659Z"/><path class="cls-3" d="M171.77,677.11a36.41,36.41,0,0,0,1.5-6l2.45-.25a30.7,30.7,0,0,1-2.38,6.07Z"/><path class="cls-3" d="M191.1,673.59a8.13,8.13,0,0,1-3.48.7c-3.65,0-6-2.48-6-6.18a6.15,6.15,0,0,1,6.5-6.42,7.34,7.34,0,0,1,3.05.63l-.5,1.7a5,5,0,0,0-2.55-.58c-2.78,0-4.28,2-4.28,4.57,0,2.8,1.8,4.53,4.2,4.53a6.3,6.3,0,0,0,2.7-.6Z"/><path class="cls-3" d="M204.47,667.89c0,4.47-3.1,6.42-6,6.42-3.28,0-5.8-2.4-5.8-6.22,0-4.05,2.65-6.42,6-6.42S204.47,664.19,204.47,667.89Zm-9.6.12c0,2.65,1.53,4.65,3.68,4.65s3.67-2,3.67-4.7c0-2.05-1-4.64-3.62-4.64S194.87,665.71,194.87,668Z"/><path class="cls-3" d="M207.25,665.21c0-1.25,0-2.27-.1-3.27h1.95l.12,2h.05a4.45,4.45,0,0,1,4-2.27c1.68,0,4.28,1,4.28,5.14V674h-2.2v-7c0-1.94-.73-3.57-2.8-3.57a3.23,3.23,0,0,0-3.1,3.27V674h-2.2Z"/><path class="cls-3" d="M220.82,671.79a5.81,5.81,0,0,0,2.9.87c1.6,0,2.35-.8,2.35-1.8s-.62-1.62-2.25-2.22c-2.17-.78-3.2-2-3.2-3.43,0-1.94,1.58-3.54,4.18-3.54a6,6,0,0,1,3,.75l-.55,1.6a4.6,4.6,0,0,0-2.47-.7c-1.3,0-2,.74-2,1.64s.73,1.45,2.3,2c2.1.8,3.18,1.85,3.18,3.65,0,2.13-1.65,3.63-4.53,3.63a6.91,6.91,0,0,1-3.4-.83Z"/><path class="cls-3" d="M232.25,668.39a3.88,3.88,0,0,0,4.15,4.2,8,8,0,0,0,3.35-.63l.37,1.58a9.77,9.77,0,0,1-4,.75c-3.73,0-5.95-2.45-5.95-6.1s2.15-6.52,5.67-6.52c4,0,5,3.47,5,5.69a9.94,9.94,0,0,1-.07,1Zm6.45-1.58c0-1.4-.58-3.57-3-3.57-2.23,0-3.2,2-3.38,3.57Z"/><path class="cls-3" d="M252.17,673.59a8.08,8.08,0,0,1-3.47.7c-3.65,0-6-2.48-6-6.18a6.15,6.15,0,0,1,6.5-6.42,7.34,7.34,0,0,1,3.05.63l-.5,1.7a5,5,0,0,0-2.55-.58c-2.77,0-4.27,2-4.27,4.57,0,2.8,1.8,4.53,4.2,4.53a6.34,6.34,0,0,0,2.7-.6Z"/><path class="cls-3" d="M257.72,658.47v3.47h3.15v1.68h-3.15v6.52c0,1.5.43,2.35,1.65,2.35a5.17,5.17,0,0,0,1.28-.15l.1,1.65a5.52,5.52,0,0,1-1.95.3,3.06,3.06,0,0,1-2.38-.93,4.5,4.5,0,0,1-.85-3.15v-6.59H253.7v-1.68h1.87V659Z"/><path class="cls-3" d="M264.42,668.39a3.88,3.88,0,0,0,4.15,4.2,7.91,7.91,0,0,0,3.35-.63l.38,1.58a9.83,9.83,0,0,1-4,.75c-3.72,0-5.95-2.45-5.95-6.1s2.15-6.52,5.68-6.52c3.95,0,5,3.47,5,5.69a7.4,7.4,0,0,1-.08,1Zm6.45-1.58c0-1.4-.57-3.57-3.05-3.57-2.22,0-3.2,2-3.37,3.57Z"/><path class="cls-3" d="M278.37,658.47v3.47h3.15v1.68h-3.15v6.52c0,1.5.43,2.35,1.65,2.35a5.17,5.17,0,0,0,1.28-.15l.1,1.65a5.52,5.52,0,0,1-1.95.3,3.06,3.06,0,0,1-2.38-.93,4.5,4.5,0,0,1-.85-3.15v-6.59h-1.87v-1.68h1.87V659Z"/><path class="cls-3" d="M294.12,670.74c0,1.25,0,2.35.1,3.3h-2l-.12-2h0a4.55,4.55,0,0,1-4,2.25c-1.9,0-4.18-1-4.18-5.3v-7.07h2.2v6.7c0,2.3.7,3.85,2.7,3.85a3.1,3.1,0,0,0,3.1-3.13v-7.42h2.2Z"/><path class="cls-3" d="M299,668.39a3.88,3.88,0,0,0,4.15,4.2,8,8,0,0,0,3.35-.63l.37,1.58a9.77,9.77,0,0,1-4,.75c-3.73,0-6-2.45-6-6.1s2.15-6.52,5.67-6.52c3.95,0,5,3.47,5,5.69a9.94,9.94,0,0,1-.07,1Zm6.45-1.58c0-1.4-.58-3.57-3.05-3.57-2.23,0-3.2,2-3.38,3.57Z"/><path class="cls-3" d="M310.3,665.71c0-1.42,0-2.64-.1-3.77h1.92l.08,2.37h.1a3.62,3.62,0,0,1,3.35-2.64,2.35,2.35,0,0,1,.62.07v2.07a4,4,0,0,0-.75-.07,3.09,3.09,0,0,0-2.95,2.82,6.2,6.2,0,0,0-.1,1V674H310.3Z"/><path class="cls-3" d="M329.28,674l-.18-1.53H329a4.52,4.52,0,0,1-3.7,1.8,3.44,3.44,0,0,1-3.7-3.47c0-2.93,2.6-4.53,7.27-4.5v-.25a2.49,2.49,0,0,0-2.75-2.8,6.07,6.07,0,0,0-3.15.9l-.49-1.45a7.45,7.45,0,0,1,4-1.07c3.7,0,4.6,2.52,4.6,4.94v4.53a17.07,17.07,0,0,0,.2,2.9Zm-.33-6.18c-2.4-.05-5.12.38-5.12,2.73a2,2,0,0,0,2.07,2.1,3,3,0,0,0,2.93-2,2.39,2.39,0,0,0,.12-.7Z"/><path class="cls-3" d="M345.08,656.29v14.62c0,1.08,0,2.3.1,3.13h-2l-.1-2.1h-.05a4.46,4.46,0,0,1-4.12,2.37c-2.93,0-5.17-2.47-5.17-6.15,0-4,2.47-6.49,5.42-6.49a4,4,0,0,1,3.65,1.85h.05v-7.23Zm-2.2,10.57a4.12,4.12,0,0,0-.1-.92,3.25,3.25,0,0,0-3.18-2.55c-2.27,0-3.62,2-3.62,4.67,0,2.45,1.2,4.48,3.57,4.48a3.31,3.31,0,0,0,3.23-2.63,4.07,4.07,0,0,0,.1-.95Z"/><path class="cls-3" d="M351.18,658.54a1.36,1.36,0,0,1-2.72,0,1.34,1.34,0,0,1,1.37-1.37A1.3,1.3,0,0,1,351.18,658.54ZM348.73,674v-12.1h2.2V674Z"/><path class="cls-3" d="M354.58,665.89c0-1.55-.05-2.8-.1-3.95h2l.1,2.08h.05a4.75,4.75,0,0,1,4.3-2.35c2.93,0,5.13,2.47,5.13,6.14,0,4.35-2.65,6.5-5.5,6.5a4.26,4.26,0,0,1-3.73-1.9h-.05V679h-2.17Zm2.17,3.22a4.85,4.85,0,0,0,.1.9,3.4,3.4,0,0,0,3.3,2.58c2.33,0,3.68-1.9,3.68-4.68,0-2.42-1.28-4.49-3.6-4.49a3.5,3.5,0,0,0-3.32,2.72,3.33,3.33,0,0,0-.16.9Z"/><path class="cls-3" d="M371.25,658.54a1.29,1.29,0,0,1-1.4,1.35,1.31,1.31,0,0,1-1.32-1.35,1.34,1.34,0,0,1,1.37-1.37A1.3,1.3,0,0,1,371.25,658.54ZM368.8,674v-12.1H371V674Z"/><path class="cls-3" d="M374.35,671.79a5.81,5.81,0,0,0,2.9.87c1.6,0,2.35-.8,2.35-1.8s-.62-1.62-2.25-2.22c-2.17-.78-3.2-2-3.2-3.43,0-1.94,1.58-3.54,4.18-3.54a6,6,0,0,1,3,.75l-.55,1.6a4.6,4.6,0,0,0-2.47-.7c-1.3,0-2,.74-2,1.64s.73,1.45,2.3,2c2.1.8,3.18,1.85,3.18,3.65,0,2.13-1.65,3.63-4.53,3.63a6.91,6.91,0,0,1-3.4-.83Z"/><path class="cls-3" d="M393.18,673.59a8.13,8.13,0,0,1-3.48.7c-3.65,0-6-2.48-6-6.18a6.15,6.15,0,0,1,6.5-6.42,7.34,7.34,0,0,1,3.05.63l-.5,1.7a5,5,0,0,0-2.55-.58c-2.78,0-4.28,2-4.28,4.57,0,2.8,1.8,4.53,4.2,4.53a6.3,6.3,0,0,0,2.7-.6Z"/><path class="cls-3" d="M401,666.46v1.63H394.8v-1.63Z"/><path class="cls-3" d="M131.16,688.54a1.29,1.29,0,0,1-1.4,1.35,1.31,1.31,0,0,1-1.32-1.35,1.34,1.34,0,0,1,1.37-1.37A1.3,1.3,0,0,1,131.16,688.54ZM128.71,704v-12.1h2.2V704Z"/><path class="cls-3" d="M134.56,695.21c0-1.25,0-2.27-.1-3.27h1.95l.13,2h.05a4.45,4.45,0,0,1,4-2.27c1.67,0,4.27,1,4.27,5.14V704h-2.2v-7c0-1.94-.72-3.57-2.8-3.57a3.23,3.23,0,0,0-3.1,3.27V704h-2.2Z"/><path class="cls-3" d="M158.86,691.94c-.05.88-.1,1.85-.1,3.32v7c0,2.77-.55,4.47-1.72,5.52a6.43,6.43,0,0,1-4.4,1.45,7.84,7.84,0,0,1-4-1l.55-1.67a6.82,6.82,0,0,0,3.55.95c2.25,0,3.9-1.18,3.9-4.23V702h-.05a4.3,4.3,0,0,1-3.85,2c-3,0-5.15-2.55-5.15-5.9,0-4.1,2.68-6.42,5.45-6.42a4,4,0,0,1,3.78,2.1h.05l.1-1.83Zm-2.27,4.77a3.23,3.23,0,0,0-3.2-3.32c-2.1,0-3.6,1.77-3.6,4.57,0,2.38,1.2,4.35,3.57,4.35a3.21,3.21,0,0,0,3-2.25,3.66,3.66,0,0,0,.18-1.17Z"/><path class="cls-3" d="M168.94,698.39a3.88,3.88,0,0,0,4.15,4.2,8,8,0,0,0,3.35-.63l.37,1.58a9.77,9.77,0,0,1-4,.75c-3.73,0-5.95-2.45-5.95-6.1s2.15-6.52,5.67-6.52c4,0,5,3.47,5,5.69a7.4,7.4,0,0,1-.08,1Zm6.45-1.58c0-1.4-.58-3.57-3-3.57-2.23,0-3.2,2-3.38,3.57Z"/><path class="cls-3" d="M180.24,686.29h2.2V704h-2.2Z"/><path class="cls-3" d="M188.59,688.54a1.37,1.37,0,0,1-2.73,0,1.34,1.34,0,0,1,1.38-1.37A1.31,1.31,0,0,1,188.59,688.54ZM186.14,704v-12.1h2.2V704Z"/><path class="cls-3" d="M194.64,688.47v3.47h3.15v1.68h-3.15v6.52c0,1.5.42,2.35,1.65,2.35a5.08,5.08,0,0,0,1.27-.15l.1,1.65a5.48,5.48,0,0,1-1.95.3,3,3,0,0,1-2.37-.93,4.45,4.45,0,0,1-.85-3.15v-6.59h-1.88v-1.68h1.88V689Z"/><path class="cls-3" d="M198.76,707.11a35.42,35.42,0,0,0,1.5-6l2.45-.25a30.14,30.14,0,0,1-2.37,6.07Z"/><path class="cls-3" d="M210.36,701.79a5.81,5.81,0,0,0,2.9.87c1.6,0,2.35-.8,2.35-1.8s-.62-1.62-2.25-2.22c-2.17-.78-3.2-2-3.2-3.43,0-1.94,1.58-3.54,4.18-3.54a6,6,0,0,1,3,.75l-.55,1.6a4.6,4.6,0,0,0-2.47-.7c-1.3,0-2,.74-2,1.64s.73,1.45,2.3,2c2.1.8,3.17,1.85,3.17,3.65,0,2.13-1.65,3.63-4.52,3.63a6.91,6.91,0,0,1-3.4-.83Z"/><path class="cls-3" d="M221.79,698.39a3.88,3.88,0,0,0,4.14,4.2,7.91,7.91,0,0,0,3.35-.63l.38,1.58a9.83,9.83,0,0,1-4,.75c-3.72,0-5.94-2.45-5.94-6.1s2.15-6.52,5.67-6.52c3.95,0,5,3.47,5,5.69a7.4,7.4,0,0,1-.08,1Zm6.44-1.58c0-1.4-.57-3.57-3-3.57-2.22,0-3.19,2-3.37,3.57Z"/><path class="cls-3" d="M243.53,686.29v14.62c0,1.08,0,2.3.1,3.13h-2l-.1-2.1h-.05a4.48,4.48,0,0,1-4.13,2.37c-2.92,0-5.17-2.47-5.17-6.15,0-4,2.48-6.49,5.42-6.49a4,4,0,0,1,3.65,1.85h.05v-7.23Zm-2.2,10.57a3.6,3.6,0,0,0-.1-.92,3.23,3.23,0,0,0-3.17-2.55c-2.27,0-3.62,2-3.62,4.67,0,2.45,1.2,4.48,3.57,4.48a3.31,3.31,0,0,0,3.22-2.63,3.6,3.6,0,0,0,.1-.95Z"/><path class="cls-3" d="M262.93,686.29v14.62c0,1.08,0,2.3.1,3.13h-2l-.1-2.1h0a4.48,4.48,0,0,1-4.13,2.37c-2.92,0-5.17-2.47-5.17-6.15,0-4,2.47-6.49,5.42-6.49a4,4,0,0,1,3.65,1.85h.05v-7.23Zm-2.2,10.57a3.6,3.6,0,0,0-.1-.92,3.23,3.23,0,0,0-3.17-2.55c-2.28,0-3.63,2-3.63,4.67,0,2.45,1.21,4.48,3.58,4.48a3.31,3.31,0,0,0,3.22-2.63,3.6,3.6,0,0,0,.1-.95Z"/><path class="cls-3" d="M269,688.54a1.37,1.37,0,0,1-2.73,0,1.34,1.34,0,0,1,1.37-1.37A1.31,1.31,0,0,1,269,688.54ZM266.58,704v-12.1h2.21V704Z"/><path class="cls-3" d="M279.13,704l-.17-1.53h-.08a4.49,4.49,0,0,1-3.7,1.8,3.43,3.43,0,0,1-3.69-3.47c0-2.93,2.59-4.53,7.27-4.5v-.25a2.5,2.5,0,0,0-2.75-2.8,6,6,0,0,0-3.15.9l-.5-1.45a7.5,7.5,0,0,1,4-1.07c3.7,0,4.6,2.52,4.6,4.94v4.53a17.07,17.07,0,0,0,.2,2.9Zm-.32-6.18c-2.4-.05-5.13.38-5.13,2.73a2,2,0,0,0,2.08,2.1,3,3,0,0,0,2.92-2,2.11,2.11,0,0,0,.13-.7Z"/><path class="cls-3" d="M284.49,695.21c0-1.25,0-2.27-.1-3.27h1.92l.1,1.95h.08a4.16,4.16,0,0,1,3.79-2.22,3.59,3.59,0,0,1,3.43,2.42h.05a4.9,4.9,0,0,1,1.35-1.57,4.05,4.05,0,0,1,2.67-.85c1.6,0,4,1,4,5.24V704h-2.15v-6.85c0-2.32-.85-3.73-2.63-3.73a2.86,2.86,0,0,0-2.6,2,3.63,3.63,0,0,0-.17,1.1V704h-2.15v-7.25c0-1.92-.85-3.33-2.53-3.33a3,3,0,0,0-2.72,2.2,3.18,3.18,0,0,0-.18,1.08V704h-2.14Z"/><path class="cls-3" d="M310.63,695.21c0-1.25,0-2.27-.09-3.27h1.94l.13,2h.05a4.45,4.45,0,0,1,4-2.27c1.67,0,4.27,1,4.27,5.14V704h-2.2v-7c0-1.94-.72-3.57-2.8-3.57a3.23,3.23,0,0,0-3.1,3.27V704h-2.2Z"/><path class="cls-3" d="M335.46,697.89c0,4.47-3.1,6.42-6,6.42-3.27,0-5.79-2.4-5.79-6.22,0-4.05,2.64-6.42,6-6.42S335.46,694.19,335.46,697.89Zm-9.6.12c0,2.65,1.52,4.65,3.67,4.65s3.68-2,3.68-4.7c0-2.05-1-4.64-3.63-4.64S325.86,695.71,325.86,698Z"/><path class="cls-3" d="M338.23,695.21c0-1.25,0-2.27-.1-3.27h1.95l.13,2h.05a4.45,4.45,0,0,1,4-2.27c1.67,0,4.27,1,4.27,5.14V704h-2.2v-7c0-1.94-.72-3.57-2.8-3.57a3.23,3.23,0,0,0-3.1,3.27V704h-2.2Z"/><path class="cls-3" d="M362.23,700.74c0,1.25,0,2.35.1,3.3h-1.95l-.12-2h-.05a4.55,4.55,0,0,1-4,2.25c-1.9,0-4.17-1-4.17-5.3v-7.07h2.19v6.7c0,2.3.7,3.85,2.7,3.85a3.1,3.1,0,0,0,3.1-3.13v-7.42h2.2Z"/><path class="cls-3" d="M365.88,695.21c0-1.25,0-2.27-.1-3.27h1.93l.1,1.95h.07a4.17,4.17,0,0,1,3.8-2.22,3.59,3.59,0,0,1,3.43,2.42h.05a4.9,4.9,0,0,1,1.35-1.57,4.05,4.05,0,0,1,2.67-.85c1.6,0,4,1,4,5.24V704H381v-6.85c0-2.32-.85-3.73-2.63-3.73a2.86,2.86,0,0,0-2.6,2,3.63,3.63,0,0,0-.17,1.1V704h-2.15v-7.25c0-1.92-.85-3.33-2.53-3.33a3,3,0,0,0-2.72,2.2,3,3,0,0,0-.18,1.08V704h-2.15Z"/><path class="cls-3" d="M391.83,696.46v1.63h-6.17v-1.63Z"/><path class="cls-3" d="M120.7,725.21c0-1.25,0-2.27-.1-3.27h1.93l.09,1.95h.08a4.16,4.16,0,0,1,3.8-2.22,3.57,3.57,0,0,1,3.42,2.42H130a5,5,0,0,1,1.35-1.57,4.1,4.1,0,0,1,2.68-.85c1.6,0,4,1,4,5.24V734h-2.15v-6.85c0-2.32-.85-3.73-2.62-3.73a2.85,2.85,0,0,0-2.6,2,3.62,3.62,0,0,0-.18,1.1V734h-2.15v-7.25c0-1.92-.85-3.33-2.52-3.33a3,3,0,0,0-2.72,2.2,3,3,0,0,0-.18,1.08V734H120.7Z"/><path class="cls-3" d="M142,721.94l2.64,7.15c.28.8.58,1.75.78,2.47h.05c.22-.72.47-1.65.77-2.52l2.4-7.1H151l-3.3,8.62c-1.58,4.15-2.65,6.28-4.15,7.58a5.91,5.91,0,0,1-2.7,1.42l-.55-1.85a5.72,5.72,0,0,0,1.93-1.07,6.76,6.76,0,0,0,1.85-2.45,1.83,1.83,0,0,0,.17-.53,1.9,1.9,0,0,0-.15-.57l-4.47-11.15Z"/><path class="cls-3" d="M158.3,725.21c0-1.25,0-2.27-.1-3.27h2l.12,2h0a4.45,4.45,0,0,1,4-2.27c1.68,0,4.28,1,4.28,5.14V734h-2.2v-7c0-1.94-.73-3.57-2.8-3.57a3.23,3.23,0,0,0-3.1,3.27V734h-2.2Z"/><path class="cls-3" d="M174.62,718.54a1.29,1.29,0,0,1-1.4,1.35,1.31,1.31,0,0,1-1.32-1.35,1.34,1.34,0,0,1,1.37-1.37A1.3,1.3,0,0,1,174.62,718.54ZM172.17,734v-12.1h2.2V734Z"/><path class="cls-3" d="M177.92,734c.05-.83.1-2,.1-3.13V716.29h2.18v7.6h.05a4.49,4.49,0,0,1,4.12-2.22c3,0,5.13,2.5,5.1,6.17,0,4.32-2.72,6.47-5.42,6.47A4.31,4.31,0,0,1,180,732h-.08l-.1,2Zm2.28-4.85a4.17,4.17,0,0,0,.1.8,3.39,3.39,0,0,0,3.3,2.57c2.3,0,3.67-1.87,3.67-4.65,0-2.42-1.25-4.49-3.6-4.49a3.5,3.5,0,0,0-3.35,2.7,4.17,4.17,0,0,0-.12.89Z"/><path class="cls-3" d="M192.25,716.29h2.2v7.55h.05a4.1,4.1,0,0,1,1.57-1.55,4.59,4.59,0,0,1,2.25-.62c1.63,0,4.23,1,4.23,5.17V734h-2.2v-6.95c0-2-.73-3.6-2.8-3.6a3.16,3.16,0,0,0-3,2.2,2.56,2.56,0,0,0-.15,1V734h-2.2Z"/><path class="cls-3" d="M212.65,728.39a3.88,3.88,0,0,0,4.15,4.2,8,8,0,0,0,3.35-.63l.37,1.58a9.77,9.77,0,0,1-4,.75c-3.73,0-5.95-2.45-5.95-6.1s2.15-6.52,5.67-6.52c3.95,0,5,3.47,5,5.69a9.94,9.94,0,0,1-.07,1Zm6.45-1.58c0-1.4-.58-3.57-3-3.57-2.23,0-3.2,2-3.38,3.57Z"/><path class="cls-3" d="M234.07,730.74c0,1.25,0,2.35.1,3.3h-1.95l-.12-2h0a4.55,4.55,0,0,1-4,2.25c-1.9,0-4.18-1-4.18-5.3v-7.07h2.2v6.7c0,2.3.7,3.85,2.7,3.85a3.1,3.1,0,0,0,3.1-3.13v-7.42h2.2Z"/><path class="cls-3" d="M240.17,718.54a1.29,1.29,0,0,1-1.4,1.35,1.31,1.31,0,0,1-1.32-1.35,1.34,1.34,0,0,1,1.37-1.37A1.3,1.3,0,0,1,240.17,718.54ZM237.72,734v-12.1h2.2V734Z"/><path class="cls-3" d="M243.27,731.79a5.81,5.81,0,0,0,2.9.87c1.6,0,2.35-.8,2.35-1.8s-.62-1.62-2.25-2.22c-2.17-.78-3.2-2-3.2-3.43,0-1.94,1.58-3.54,4.18-3.54a6,6,0,0,1,3,.75l-.55,1.6a4.6,4.6,0,0,0-2.47-.7c-1.3,0-2,.74-2,1.64s.73,1.45,2.3,2c2.1.8,3.18,1.85,3.18,3.65,0,2.13-1.65,3.63-4.53,3.63a6.91,6.91,0,0,1-3.4-.83Z"/><path class="cls-3" d="M253.47,725.21c0-1.25,0-2.27-.1-3.27h1.93l.1,1.95h.07a4.17,4.17,0,0,1,3.8-2.22,3.59,3.59,0,0,1,3.43,2.42h.05a4.9,4.9,0,0,1,1.35-1.57,4.05,4.05,0,0,1,2.67-.85c1.6,0,4,1,4,5.24V734H268.6v-6.85c0-2.32-.85-3.73-2.63-3.73a2.86,2.86,0,0,0-2.6,2,3.63,3.63,0,0,0-.17,1.1V734h-2.15v-7.25c0-1.92-.85-3.33-2.53-3.33a3,3,0,0,0-2.72,2.2,3,3,0,0,0-.18,1.08V734h-2.15Z"/><path class="cls-3" d="M285.27,727.89c0,4.47-3.1,6.42-6,6.42-3.28,0-5.8-2.4-5.8-6.22,0-4.05,2.65-6.42,6-6.42S285.27,724.19,285.27,727.89Zm-9.6.12c0,2.65,1.53,4.65,3.68,4.65s3.67-2,3.67-4.7c0-2.05-1-4.64-3.62-4.64S275.67,725.71,275.67,728Z"/><path class="cls-3" d="M298.5,716.29v14.62c0,1.08,0,2.3.1,3.13h-2l-.1-2.1h0a4.46,4.46,0,0,1-4.12,2.37c-2.93,0-5.18-2.47-5.18-6.15,0-4,2.48-6.49,5.43-6.49a4,4,0,0,1,3.65,1.85h.05v-7.23Zm-2.2,10.57a4.12,4.12,0,0,0-.1-.92,3.25,3.25,0,0,0-3.18-2.55c-2.27,0-3.62,2-3.62,4.67,0,2.45,1.2,4.48,3.57,4.48a3.31,3.31,0,0,0,3.23-2.63,4.07,4.07,0,0,0,.1-.95Z"/><path class="cls-3" d="M310.1,718.47v3.47h3.15v1.68H310.1v6.52c0,1.5.42,2.35,1.65,2.35a5.08,5.08,0,0,0,1.27-.15l.1,1.65a5.48,5.48,0,0,1-1.95.3,3,3,0,0,1-2.37-.93,4.45,4.45,0,0,1-.85-3.15v-6.59h-1.88v-1.68H308V719Z"/><path class="cls-3" d="M318.17,718.54a1.29,1.29,0,0,1-1.4,1.35,1.31,1.31,0,0,1-1.32-1.35,1.34,1.34,0,0,1,1.37-1.37A1.3,1.3,0,0,1,318.17,718.54ZM315.72,734v-12.1h2.2V734Z"/><path class="cls-3" d="M321.57,725.21c0-1.25,0-2.27-.1-3.27h1.95l.13,2h.05a4.45,4.45,0,0,1,4-2.27c1.67,0,4.27,1,4.27,5.14V734h-2.2v-7c0-1.94-.72-3.57-2.8-3.57a3.23,3.23,0,0,0-3.1,3.27V734h-2.2Z"/><path class="cls-3" d="M344.07,733.59a8.08,8.08,0,0,1-3.47.7c-3.65,0-6-2.48-6-6.18a6.15,6.15,0,0,1,6.5-6.42,7.34,7.34,0,0,1,3.05.63l-.5,1.7a5,5,0,0,0-2.55-.58c-2.77,0-4.27,2-4.27,4.57,0,2.8,1.8,4.53,4.2,4.53a6.34,6.34,0,0,0,2.7-.6Z"/><path class="cls-3" d="M349.1,718.54a1.37,1.37,0,0,1-2.73,0,1.34,1.34,0,0,1,1.38-1.37A1.31,1.31,0,0,1,349.1,718.54ZM346.65,734v-12.1h2.2V734Z"/><path class="cls-3" d="M363,716.29v14.62c0,1.08,0,2.3.09,3.13h-2l-.1-2.1h-.05a4.46,4.46,0,0,1-4.12,2.37c-2.93,0-5.18-2.47-5.18-6.15,0-4,2.48-6.49,5.43-6.49a4,4,0,0,1,3.65,1.85h.05v-7.23Zm-2.2,10.57a4.12,4.12,0,0,0-.1-.92,3.25,3.25,0,0,0-3.18-2.55c-2.27,0-3.62,2-3.62,4.67,0,2.45,1.2,4.48,3.57,4.48a3.31,3.31,0,0,0,3.23-2.63,4.07,4.07,0,0,0,.1-.95Z"/><path class="cls-3" d="M376.72,730.74c0,1.25,0,2.35.1,3.3h-1.95l-.12-2h-.05a4.55,4.55,0,0,1-4,2.25c-1.9,0-4.18-1-4.18-5.3v-7.07h2.2v6.7c0,2.3.7,3.85,2.7,3.85a3.1,3.1,0,0,0,3.1-3.13v-7.42h2.2Z"/><path class="cls-3" d="M380.37,725.21c0-1.25,0-2.27-.1-3.27h2l.13,2h0a4.45,4.45,0,0,1,4-2.27c1.67,0,4.27,1,4.27,5.14V734h-2.2v-7c0-1.94-.72-3.57-2.8-3.57a3.23,3.23,0,0,0-3.1,3.27V734h-2.2Z"/><path class="cls-3" d="M396.8,718.47v3.47H400v1.68H396.8v6.52c0,1.5.42,2.35,1.65,2.35a5.08,5.08,0,0,0,1.27-.15l.1,1.65a5.48,5.48,0,0,1-1.95.3,3,3,0,0,1-2.37-.93,4.45,4.45,0,0,1-.85-3.15v-6.59h-1.88v-1.68h1.88V719Z"/><rect class="cls-2" x="207.42" y="2918.73" width="85.45" height="77.04" rx="2.63"/><rect class="cls-2" x="309.5" y="2918.73" width="85.45" height="77.04" rx="2.63"/><rect class="cls-2" x="105.33" y="2918.73" width="85.45" height="77.04" rx="2.63"/></g></g></svg>