<svg xmlns="http://www.w3.org/2000/svg" viewBox="0 0 908.48 922.41"><defs><style>.cls-1{fill:#231f20;opacity:0.07;}.cls-2{font-size:22.47px;fill:#909090;font-family:CourierNewPSMT, Courier New;}.cls-3{fill:none;stroke:#909090;stroke-linecap:round;stroke-miterlimit:10;stroke-width:0.75px;stroke-dasharray:10 4 0 0 0 0;}.cls-4{font-size:25px;}.cls-4,.cls-9{fill:#505150;font-family:Co-Text-Light, Co Text ;font-weight:300;}.cls-5{fill:#abced4;}.cls-5,.cls-6,.cls-7,.cls-8{opacity:0.33;}.cls-6{fill:#b4d3aa;}.cls-7{fill:#d3abbd;}.cls-8{fill:#b1abd3;}.cls-9{font-size:30px;}</style></defs><g id="Layer_2" data-name="Layer 2"><g id="tablet"><rect class="cls-1" x="52.16" width="178.27" height="860.98"/><text class="cls-2" transform="translate(119.51 27.42) scale(1.08 1)">1fr</text><rect class="cls-1" x="247.06" width="178.27" height="860.98"/><text class="cls-2" transform="translate(314.4 27.42) scale(1.08 1)">1fr</text><rect class="cls-1" x="441.96" width="178.27" height="860.98"/><text class="cls-2" transform="translate(509.3 27.42) scale(1.08 1)">1fr</text><rect class="cls-1" x="636.85" width="178.27" height="860.98"/><text class="cls-2" transform="translate(704.2 27.42) scale(1.08 1)">1fr</text><line class="cls-3" x1="627.96" y1="880.58" x2="627.96" y2="36.58"/><line class="cls-3" x1="27.31" y1="160.18" x2="849.28" y2="160.18"/><line class="cls-3" x1="27.31" y1="53.14" x2="852.08" y2="54.65"/><line class="cls-3" x1="27.31" y1="731.38" x2="848.82" y2="731.38"/><line class="cls-3" x1="26.39" y1="835" x2="848.44" y2="835"/><text class="cls-4" transform="translate(3.27 72.3)">1</text><text class="cls-4" transform="translate(0 171.18)">2</text><line class="cls-3" x1="28.41" y1="257.83" x2="850.38" y2="257.83"/><text class="cls-4" transform="translate(1.1 268.83)">3</text><text class="cls-4" transform="translate(3.27 731.38)">4 </text><text class="cls-4" transform="translate(3.27 841.52)">5</text><text class="cls-4" transform="translate(620.59 903.57)">2</text><line class="cls-3" x1="43.2" y1="878.3" x2="43.2" y2="34.29"/><text class="cls-4" transform="translate(35.84 901.11)">1</text><line class="cls-3" x1="824.64" y1="886.34" x2="824.64" y2="39.49"/><text class="cls-4" transform="translate(816.39 911.54)">3</text><rect class="cls-5" x="52.62" y="60.78" width="762.13" height="93.26"/><rect class="cls-5" x="52.62" y="736.48" width="762.13" height="93.26"/><rect class="cls-6" x="49.53" y="166.79" width="762.59" height="84.16"/><rect class="cls-7" x="52.16" y="264.57" width="568.43" height="454.12"/><rect class="cls-8" x="637.32" y="264.57" width="177.34" height="454.12"/><text class="cls-9" transform="translate(667.34 498.27)">sidebar</text><text class="cls-9" transform="translate(412.64 214.44)">nav</text><text class="cls-9" transform="translate(384.09 116.37)">header</text><text class="cls-9" transform="translate(299.28 490.95)">main</text><text class="cls-9" transform="translate(386.55 800.69)">footer</text><text class="cls-2" transform="translate(849.28 107.41) scale(1.08 1)">10vh</text><text class="cls-2" transform="translate(850.39 208.87) scale(1.08 1)">auto</text><text class="cls-2" transform="translate(849.82 522.79) scale(1.08 1)">auto</text><text class="cls-2" transform="translate(850.36 787.99) scale(1.08 1)">10vh</text></g></g></svg>