<svg xmlns="http://www.w3.org/2000/svg" viewBox="0 0 769.25 974.53"><defs><style>.cls-1,.cls-2{fill:#abced4;}.cls-1{opacity:0.33;}.cls-3,.cls-4{fill:#7dadb2;opacity:0.33;}.cls-4{font-size:25px;font-family:MyriadPro-Regular, Myriad Pro;}</style></defs><g id="Layer_2" data-name="Layer 2"><g id="tablet"><rect class="cls-1" x="7.12" width="762.13" height="93.26" rx="17.01"/><rect class="cls-1" y="881.27" width="762.13" height="93.26" rx="17.01"/><rect class="cls-1" x="4.03" y="106" width="762.59" height="150.48" rx="17.01"/><rect class="cls-1" x="1.32" y="276.52" width="568.43" height="583.91" rx="17.01"/><rect class="cls-1" x="586.47" y="277.33" width="177.34" height="583.1" rx="17.01"/><rect class="cls-2" x="39.47" y="26.18" width="128.69" height="38.21" rx="2.63"/><rect class="cls-1" x="174.46" y="130.31" width="160.95" height="38.21" rx="2.63"/><rect class="cls-1" x="406.13" y="191.64" width="160.95" height="38.21" rx="2.63"/><rect class="cls-1" x="175.5" y="191.64" width="160.95" height="38.21" rx="2.63"/><rect class="cls-1" x="405.09" y="130.31" width="160.95" height="38.21" rx="2.63"/><rect class="cls-2" x="651.88" y="26.18" width="85.45" height="38.21" rx="2.63"/><rect class="cls-2" x="609.48" y="307.71" width="130.08" height="97.32" rx="2.63"/><rect class="cls-1" x="29.68" y="529.64" width="156.43" height="121.87" rx="2.63"/><path class="cls-3" d="M31.72,671.38H33.9v15h7.2v1.83H31.72Z"/><path class="cls-3" d="M54.05,682.08c0,4.47-3.1,6.42-6,6.42-3.27,0-5.8-2.39-5.8-6.22,0-4,2.65-6.42,6-6.42S54.05,678.38,54.05,682.08Zm-9.6.12c0,2.66,1.52,4.65,3.67,4.65s3.68-2,3.68-4.69c0-2-1-4.65-3.63-4.65S44.45,679.91,44.45,682.2Z"/><path class="cls-3" d="M56.82,679.91c0-1.43,0-2.65-.1-3.78h1.93l.07,2.38h.1a3.63,3.63,0,0,1,3.35-2.65,2.43,2.43,0,0,1,.63.07V678a3.32,3.32,0,0,0-.75-.08,3.09,3.09,0,0,0-2.95,2.83,6.18,6.18,0,0,0-.1,1v6.45H56.82Z"/><path class="cls-3" d="M66,682.58a3.88,3.88,0,0,0,4.15,4.2,7.91,7.91,0,0,0,3.35-.63l.38,1.58a9.83,9.83,0,0,1-4,.75c-3.72,0-5.95-2.45-5.95-6.1s2.15-6.52,5.68-6.52c4,0,5,3.47,5,5.69a7.13,7.13,0,0,1-.08,1ZM72.42,681c0-1.4-.57-3.58-3-3.58-2.22,0-3.2,2.05-3.37,3.58Z"/><path class="cls-3" d="M77.27,679.41c0-1.25,0-2.28-.1-3.28H79.1l.1,2h.07a4.17,4.17,0,0,1,3.8-2.22,3.59,3.59,0,0,1,3.43,2.42h0a4.9,4.9,0,0,1,1.35-1.57,4.11,4.11,0,0,1,2.67-.85c1.6,0,4,1,4,5.25v7.12H92.4v-6.85c0-2.32-.85-3.72-2.63-3.72a2.85,2.85,0,0,0-2.6,2,3.58,3.58,0,0,0-.17,1.1v7.47H84.85V681c0-1.92-.85-3.32-2.53-3.32a3,3,0,0,0-2.72,2.2,2.9,2.9,0,0,0-.18,1.07v7.3H77.27Z"/><path class="cls-3" d="M104.73,672.73a1.37,1.37,0,0,1-2.73,0,1.34,1.34,0,0,1,1.38-1.37A1.31,1.31,0,0,1,104.73,672.73Zm-2.45,15.5v-12.1h2.2v12.1Z"/><path class="cls-3" d="M108.13,680.08c0-1.55,0-2.8-.1-4h2l.1,2.08h.05a4.75,4.75,0,0,1,4.3-2.35c2.92,0,5.12,2.47,5.12,6.15,0,4.34-2.65,6.49-5.49,6.49a4.26,4.26,0,0,1-3.73-1.9h0v6.58h-2.17Zm2.17,3.22a4.85,4.85,0,0,0,.1.9,3.4,3.4,0,0,0,3.3,2.58c2.32,0,3.67-1.9,3.67-4.67,0-2.43-1.27-4.5-3.59-4.5a3.52,3.52,0,0,0-3.33,2.72,3.85,3.85,0,0,0-.15.9Z"/><path class="cls-3" d="M122.05,686a5.81,5.81,0,0,0,2.9.87c1.6,0,2.35-.8,2.35-1.8s-.63-1.62-2.25-2.22c-2.17-.78-3.2-2-3.2-3.42,0-1.95,1.58-3.55,4.18-3.55a6,6,0,0,1,3,.75l-.55,1.6a4.73,4.73,0,0,0-2.48-.7c-1.29,0-2,.75-2,1.65s.73,1.45,2.3,2c2.1.81,3.17,1.85,3.17,3.66,0,2.12-1.65,3.62-4.52,3.62a6.91,6.91,0,0,1-3.4-.83Z"/><path class="cls-3" d="M142.37,684.93c0,1.25,0,2.35.1,3.3h-1.95l-.12-2h-.05a4.55,4.55,0,0,1-4,2.25c-1.9,0-4.17-1-4.17-5.3v-7.07h2.2v6.7c0,2.3.7,3.85,2.7,3.85a3.18,3.18,0,0,0,2.89-2,3.11,3.11,0,0,0,.2-1.13v-7.42h2.2Z"/><path class="cls-3" d="M146,679.41c0-1.25,0-2.28-.1-3.28h1.92l.1,2H148a4.16,4.16,0,0,1,3.79-2.22,3.59,3.59,0,0,1,3.43,2.42h.05a4.9,4.9,0,0,1,1.35-1.57,4.11,4.11,0,0,1,2.67-.85c1.6,0,4,1,4,5.25v7.12h-2.15v-6.85c0-2.32-.85-3.72-2.63-3.72a2.85,2.85,0,0,0-2.6,2,3.58,3.58,0,0,0-.17,1.1v7.47H153.6V681c0-1.92-.85-3.32-2.53-3.32a3,3,0,0,0-2.72,2.2,3.12,3.12,0,0,0-.18,1.07v7.3H146Z"/><path class="cls-3" d="M181.48,670.48v14.63c0,1.07,0,2.29.1,3.12h-2l-.1-2.1h-.05a4.46,4.46,0,0,1-4.12,2.37c-2.93,0-5.18-2.47-5.18-6.14,0-4,2.48-6.5,5.43-6.5a4,4,0,0,1,3.65,1.85h.05v-7.23Zm-2.2,10.58a4.2,4.2,0,0,0-.1-.93,3.25,3.25,0,0,0-3.18-2.55c-2.27,0-3.62,2-3.62,4.68,0,2.44,1.2,4.47,3.57,4.47a3.31,3.31,0,0,0,3.23-2.62,4.16,4.16,0,0,0,.1-1Z"/><path class="cls-3" d="M196.08,682.08c0,4.47-3.1,6.42-6,6.42-3.27,0-5.79-2.39-5.79-6.22,0-4,2.64-6.42,6-6.42S196.08,678.38,196.08,682.08Zm-9.6.12c0,2.66,1.52,4.65,3.67,4.65s3.68-2,3.68-4.69c0-2-1-4.65-3.63-4.65S186.48,679.91,186.48,682.2Z"/><path class="cls-3" d="M198.85,670.48h2.2v17.75h-2.2Z"/><path class="cls-3" d="M215.7,682.08c0,4.47-3.1,6.42-6,6.42-3.28,0-5.8-2.39-5.8-6.22,0-4,2.65-6.42,6-6.42S215.7,678.38,215.7,682.08Zm-9.6.12c0,2.66,1.53,4.65,3.68,4.65s3.67-2,3.67-4.69c0-2-1-4.65-3.62-4.65S206.1,679.91,206.1,682.2Z"/><path class="cls-3" d="M218.48,679.91c0-1.43,0-2.65-.1-3.78h1.92l.08,2.38h.1a3.62,3.62,0,0,1,3.35-2.65,2.35,2.35,0,0,1,.62.07V678a3.25,3.25,0,0,0-.75-.08,3.09,3.09,0,0,0-2.95,2.83,6.18,6.18,0,0,0-.1,1v6.45h-2.17Z"/><path class="cls-3" d="M230.51,686a5.81,5.81,0,0,0,2.9.87c1.6,0,2.35-.8,2.35-1.8s-.63-1.62-2.25-2.22c-2.18-.78-3.2-2-3.2-3.42,0-1.95,1.57-3.55,4.17-3.55a6.06,6.06,0,0,1,3,.75l-.55,1.6a4.73,4.73,0,0,0-2.48-.7c-1.3,0-2,.75-2,1.65s.72,1.45,2.3,2c2.1.81,3.17,1.85,3.17,3.66,0,2.12-1.65,3.62-4.52,3.62a6.89,6.89,0,0,1-3.4-.83Z"/><path class="cls-3" d="M243.16,672.73a1.37,1.37,0,0,1-2.73,0,1.34,1.34,0,0,1,1.38-1.37A1.31,1.31,0,0,1,243.16,672.73Zm-2.45,15.5v-12.1h2.2v12.1Z"/><path class="cls-3" d="M249.21,672.66v3.47h3.14v1.68h-3.14v6.52c0,1.5.42,2.35,1.64,2.35a5.17,5.17,0,0,0,1.28-.15l.1,1.65a5.52,5.52,0,0,1-1.95.3,3,3,0,0,1-2.37-.93,4.45,4.45,0,0,1-.85-3.15v-6.59h-1.88v-1.68h1.88v-2.9Z"/><path class="cls-3" d="M265.68,688.23l-.17-1.53h-.08a4.49,4.49,0,0,1-3.7,1.8A3.43,3.43,0,0,1,258,685c0-2.92,2.59-4.52,7.27-4.5v-.25a2.5,2.5,0,0,0-2.75-2.8,6,6,0,0,0-3.15.9l-.5-1.45a7.5,7.5,0,0,1,4-1.07c3.7,0,4.6,2.52,4.6,4.95v4.52a17.07,17.07,0,0,0,.2,2.9Zm-.32-6.18c-2.4,0-5.13.38-5.13,2.73a2,2,0,0,0,2.08,2.1,3,3,0,0,0,2.92-2,2.22,2.22,0,0,0,.13-.71Z"/><path class="cls-3" d="M271,679.41c0-1.25,0-2.28-.1-3.28h1.93l.1,2H273a4.17,4.17,0,0,1,3.8-2.22,3.59,3.59,0,0,1,3.43,2.42h.05a4.9,4.9,0,0,1,1.35-1.57,4.11,4.11,0,0,1,2.67-.85c1.6,0,4,1,4,5.25v7.12h-2.15v-6.85c0-2.32-.85-3.72-2.63-3.72a2.85,2.85,0,0,0-2.6,2,3.58,3.58,0,0,0-.17,1.1v7.47h-2.15V681c0-1.92-.85-3.32-2.53-3.32a3,3,0,0,0-2.72,2.2,2.9,2.9,0,0,0-.18,1.07v7.3H271Z"/><path class="cls-3" d="M293.11,682.58a3.88,3.88,0,0,0,4.15,4.2,8,8,0,0,0,3.35-.63l.37,1.58a9.77,9.77,0,0,1-4,.75c-3.73,0-5.95-2.45-5.95-6.1s2.15-6.52,5.67-6.52c3.95,0,5,3.47,5,5.69a9.52,9.52,0,0,1-.07,1Zm6.45-1.57c0-1.4-.58-3.58-3.05-3.58-2.23,0-3.2,2.05-3.38,3.58Z"/><path class="cls-3" d="M307.06,672.66v3.47h3.15v1.68h-3.15v6.52c0,1.5.42,2.35,1.65,2.35a5.08,5.08,0,0,0,1.27-.15l.1,1.65a5.48,5.48,0,0,1-1.95.3,3,3,0,0,1-2.37-.93,4.45,4.45,0,0,1-.85-3.15v-6.59H303v-1.68h1.87v-2.9Z"/><path class="cls-3" d="M311.18,691.3a35.42,35.42,0,0,0,1.5-6l2.45-.25a30.14,30.14,0,0,1-2.37,6.07Z"/><path class="cls-3" d="M330.56,687.78a8.08,8.08,0,0,1-3.47.7c-3.65,0-6-2.48-6-6.18a6.15,6.15,0,0,1,6.5-6.42,7.34,7.34,0,0,1,3.05.63l-.5,1.7a5.08,5.08,0,0,0-2.55-.58c-2.77,0-4.27,2-4.27,4.57,0,2.8,1.8,4.53,4.2,4.53a6.25,6.25,0,0,0,2.69-.6Z"/><path class="cls-3" d="M343.93,682.08c0,4.47-3.09,6.42-6,6.42-3.27,0-5.8-2.39-5.8-6.22,0-4,2.65-6.42,6-6.42S343.93,678.38,343.93,682.08Zm-9.59.12c0,2.66,1.52,4.65,3.67,4.65s3.67-2,3.67-4.69c0-2-1-4.65-3.62-4.65S334.34,679.91,334.34,682.2Z"/><path class="cls-3" d="M346.71,679.41c0-1.25,0-2.28-.1-3.28h1.95l.13,2h.05a4.45,4.45,0,0,1,4-2.27c1.67,0,4.27,1,4.27,5.15v7.22h-2.2v-7c0-2-.72-3.58-2.8-3.58a3.23,3.23,0,0,0-3.1,3.27v7.28h-2.2Z"/><path class="cls-3" d="M360.29,686a5.81,5.81,0,0,0,2.9.87c1.6,0,2.35-.8,2.35-1.8s-.63-1.62-2.25-2.22c-2.18-.78-3.2-2-3.2-3.42,0-1.95,1.57-3.55,4.17-3.55a6.06,6.06,0,0,1,3,.75l-.55,1.6a4.73,4.73,0,0,0-2.48-.7c-1.3,0-2,.75-2,1.65s.72,1.45,2.3,2c2.1.81,3.17,1.85,3.17,3.66,0,2.12-1.65,3.62-4.52,3.62a6.89,6.89,0,0,1-3.4-.83Z"/><path class="cls-3" d="M371.71,682.58a3.88,3.88,0,0,0,4.15,4.2,8,8,0,0,0,3.35-.63l.37,1.58a9.73,9.73,0,0,1-4,.75c-3.72,0-5.95-2.45-5.95-6.1s2.15-6.52,5.68-6.52c3.94,0,5,3.47,5,5.69a9.52,9.52,0,0,1-.07,1Zm6.45-1.57c0-1.4-.57-3.58-3.05-3.58-2.22,0-3.2,2.05-3.37,3.58Z"/><path class="cls-3" d="M391.63,687.78a8.08,8.08,0,0,1-3.47.7c-3.65,0-6-2.48-6-6.18a6.14,6.14,0,0,1,6.49-6.42,7.34,7.34,0,0,1,3.05.63l-.5,1.7a5.08,5.08,0,0,0-2.55-.58c-2.77,0-4.27,2-4.27,4.57,0,2.8,1.8,4.53,4.2,4.53a6.34,6.34,0,0,0,2.7-.6Z"/><path class="cls-3" d="M397.19,672.66v3.47h3.15v1.68h-3.15v6.52c0,1.5.42,2.35,1.65,2.35a5.08,5.08,0,0,0,1.27-.15l.1,1.65a5.48,5.48,0,0,1-1.95.3,3,3,0,0,1-2.37-.93,4.45,4.45,0,0,1-.85-3.15v-6.59h-1.88v-1.68H395v-2.9Z"/><path class="cls-3" d="M403.88,682.58a3.89,3.89,0,0,0,4.15,4.2,7.91,7.91,0,0,0,3.35-.63l.38,1.58a9.83,9.83,0,0,1-4,.75c-3.72,0-5.94-2.45-5.94-6.1s2.15-6.52,5.67-6.52c4,0,5,3.47,5,5.69a7.13,7.13,0,0,1-.08,1Zm6.45-1.57c0-1.4-.57-3.58-3.05-3.58-2.22,0-3.19,2.05-3.37,3.58Z"/><path class="cls-3" d="M417.84,672.66v3.47H421v1.68h-3.14v6.52c0,1.5.42,2.35,1.64,2.35a5.17,5.17,0,0,0,1.28-.15l.1,1.65a5.52,5.52,0,0,1-1.95.3,3,3,0,0,1-2.37-.93,4.45,4.45,0,0,1-.85-3.15v-6.59h-1.88v-1.68h1.88v-2.9Z"/><path class="cls-3" d="M433.58,684.93c0,1.25,0,2.35.1,3.3h-1.95l-.12-2h-.05a4.55,4.55,0,0,1-4,2.25c-1.9,0-4.17-1-4.17-5.3v-7.07h2.2v6.7c0,2.3.69,3.85,2.69,3.85a3.18,3.18,0,0,0,2.9-2,3.11,3.11,0,0,0,.2-1.13v-7.42h2.2Z"/><path class="cls-3" d="M438.46,682.58a3.88,3.88,0,0,0,4.15,4.2,8,8,0,0,0,3.35-.63l.37,1.58a9.77,9.77,0,0,1-4,.75c-3.72,0-5.95-2.45-5.95-6.1s2.15-6.52,5.67-6.52c4,0,5,3.47,5,5.69a9.52,9.52,0,0,1-.07,1Zm6.45-1.57c0-1.4-.58-3.58-3.05-3.58-2.23,0-3.2,2.05-3.37,3.58Z"/><path class="cls-3" d="M449.76,679.91c0-1.43,0-2.65-.1-3.78h1.93l.07,2.38h.1a3.62,3.62,0,0,1,3.35-2.65,2.35,2.35,0,0,1,.62.07V678a3.25,3.25,0,0,0-.75-.08,3.09,3.09,0,0,0-3,2.83,6.18,6.18,0,0,0-.1,1v6.45h-2.17Z"/><path class="cls-3" d="M468.79,688.23l-.18-1.53h-.07a4.52,4.52,0,0,1-3.7,1.8,3.44,3.44,0,0,1-3.7-3.47c0-2.92,2.6-4.52,7.27-4.5v-.25a2.49,2.49,0,0,0-2.75-2.8,6,6,0,0,0-3.15.9l-.5-1.45a7.51,7.51,0,0,1,4-1.07c3.7,0,4.6,2.52,4.6,4.95v4.52a17.07,17.07,0,0,0,.2,2.9Zm-.33-6.18c-2.4,0-5.12.38-5.12,2.73a2,2,0,0,0,2.07,2.1,3,3,0,0,0,2.93-2,2.52,2.52,0,0,0,.12-.71Z"/><path class="cls-3" d="M484.59,670.48v14.63c0,1.07,0,2.29.1,3.12h-2l-.1-2.1h-.05a4.46,4.46,0,0,1-4.12,2.37c-2.93,0-5.18-2.47-5.18-6.14,0-4,2.48-6.5,5.43-6.5a4,4,0,0,1,3.65,1.85h.05v-7.23Zm-2.2,10.58a4.2,4.2,0,0,0-.1-.93,3.25,3.25,0,0,0-3.18-2.55c-2.27,0-3.62,2-3.62,4.68,0,2.44,1.2,4.47,3.57,4.47a3.31,3.31,0,0,0,3.23-2.62,4.16,4.16,0,0,0,.1-1Z"/><path class="cls-3" d="M490.69,672.73a1.37,1.37,0,0,1-2.73,0,1.34,1.34,0,0,1,1.38-1.37A1.31,1.31,0,0,1,490.69,672.73Zm-2.45,15.5v-12.1h2.2v12.1Z"/><path class="cls-3" d="M494.09,680.08c0-1.55,0-2.8-.1-4h2l.1,2.08h.05a4.75,4.75,0,0,1,4.3-2.35c2.93,0,5.13,2.47,5.13,6.15,0,4.34-2.65,6.49-5.5,6.49a4.26,4.26,0,0,1-3.73-1.9h-.05v6.58h-2.17Zm2.17,3.22a4.85,4.85,0,0,0,.1.9,3.4,3.4,0,0,0,3.3,2.58c2.33,0,3.68-1.9,3.68-4.67,0-2.43-1.28-4.5-3.6-4.5a3.52,3.52,0,0,0-3.33,2.72,3.85,3.85,0,0,0-.15.9Z"/><path class="cls-3" d="M510.76,672.73a1.29,1.29,0,0,1-1.4,1.35,1.31,1.31,0,0,1-1.32-1.35,1.34,1.34,0,0,1,1.37-1.37A1.3,1.3,0,0,1,510.76,672.73Zm-2.45,15.5v-12.1h2.2v12.1Z"/><path class="cls-3" d="M513.86,686a5.81,5.81,0,0,0,2.9.87c1.6,0,2.35-.8,2.35-1.8s-.62-1.62-2.25-2.22c-2.17-.78-3.2-2-3.2-3.42,0-1.95,1.58-3.55,4.18-3.55a6,6,0,0,1,3,.75l-.55,1.6a4.69,4.69,0,0,0-2.47-.7c-1.3,0-2,.75-2,1.65s.73,1.45,2.3,2c2.1.81,3.18,1.85,3.18,3.66,0,2.12-1.65,3.62-4.53,3.62a6.91,6.91,0,0,1-3.4-.83Z"/><path class="cls-3" d="M532.69,687.78a8.13,8.13,0,0,1-3.48.7c-3.65,0-6-2.48-6-6.18a6.15,6.15,0,0,1,6.5-6.42,7.34,7.34,0,0,1,3,.63l-.5,1.7a5.11,5.11,0,0,0-2.55-.58c-2.78,0-4.28,2-4.28,4.57,0,2.8,1.8,4.53,4.2,4.53a6.3,6.3,0,0,0,2.7-.6Z"/><path class="cls-3" d="M540.49,680.66v1.62h-6.18v-1.62Z"/><path class="cls-3" d="M34,702.73a1.37,1.37,0,0,1-2.73,0,1.34,1.34,0,0,1,1.38-1.37A1.31,1.31,0,0,1,34,702.73Zm-2.45,15.5v-12.1h2.2v12.1Z"/><path class="cls-3" d="M37.36,709.41c0-1.25,0-2.28-.1-3.28h2l.12,2h.05a4.45,4.45,0,0,1,4-2.27c1.67,0,4.27,1,4.27,5.15v7.22h-2.2v-7c0-2-.72-3.58-2.8-3.58A3.23,3.23,0,0,0,39.56,711v7.28h-2.2Z"/><path class="cls-3" d="M61.65,706.13c0,.88-.1,1.85-.1,3.33v7c0,2.77-.55,4.47-1.72,5.52a6.43,6.43,0,0,1-4.4,1.45,7.78,7.78,0,0,1-4-1l.55-1.67a6.82,6.82,0,0,0,3.55,1c2.24,0,3.89-1.18,3.89-4.23v-1.35h0a4.29,4.29,0,0,1-3.84,2c-3,0-5.15-2.55-5.15-5.9,0-4.1,2.67-6.42,5.44-6.42a4,4,0,0,1,3.78,2.1h.05l.1-1.83Zm-2.27,4.78a3.07,3.07,0,0,0-.13-1,3.16,3.16,0,0,0-3.07-2.33c-2.1,0-3.6,1.78-3.6,4.58,0,2.37,1.2,4.34,3.57,4.34a3.21,3.21,0,0,0,3.05-2.24,3.76,3.76,0,0,0,.18-1.18Z"/><path class="cls-3" d="M71.73,712.58a3.88,3.88,0,0,0,4.15,4.2,8,8,0,0,0,3.35-.63l.37,1.58a9.77,9.77,0,0,1-4,.75c-3.73,0-6-2.45-6-6.1s2.15-6.52,5.67-6.52c4,0,5,3.47,5,5.69a9.52,9.52,0,0,1-.07,1ZM78.18,711c0-1.4-.58-3.58-3.05-3.58-2.23,0-3.2,2.05-3.37,3.58Z"/><path class="cls-3" d="M83,700.48h2.2v17.75H83Z"/><path class="cls-3" d="M91.38,702.73a1.36,1.36,0,0,1-2.72,0A1.34,1.34,0,0,1,90,701.36,1.31,1.31,0,0,1,91.38,702.73Zm-2.45,15.5v-12.1h2.2v12.1Z"/><path class="cls-3" d="M97.43,702.66v3.47h3.15v1.68H97.43v6.52c0,1.5.42,2.35,1.65,2.35a5.08,5.08,0,0,0,1.27-.15l.1,1.65a5.48,5.48,0,0,1-2,.3,3,3,0,0,1-2.37-.93,4.5,4.5,0,0,1-.85-3.15v-6.59H93.41v-1.68h1.87v-2.9Z"/><path class="cls-3" d="M101.55,721.3a34.49,34.49,0,0,0,1.5-6l2.45-.25a30.14,30.14,0,0,1-2.37,6.07Z"/><path class="cls-3" d="M113.15,716a5.81,5.81,0,0,0,2.9.87c1.6,0,2.35-.8,2.35-1.8s-.62-1.62-2.25-2.22c-2.17-.78-3.2-2-3.2-3.42,0-1.95,1.58-3.55,4.18-3.55a6,6,0,0,1,3,.75l-.55,1.6a4.69,4.69,0,0,0-2.47-.7c-1.3,0-2,.75-2,1.65s.73,1.45,2.3,2c2.1.81,3.18,1.85,3.18,3.66,0,2.12-1.65,3.62-4.53,3.62a6.91,6.91,0,0,1-3.4-.83Z"/><path class="cls-3" d="M124.58,712.58a3.88,3.88,0,0,0,4.15,4.2,8,8,0,0,0,3.35-.63l.37,1.58a9.77,9.77,0,0,1-4,.75c-3.73,0-6-2.45-6-6.1s2.15-6.52,5.67-6.52c3.95,0,5,3.47,5,5.69a9.52,9.52,0,0,1-.07,1ZM131,711c0-1.4-.58-3.58-3-3.58-2.23,0-3.2,2.05-3.38,3.58Z"/><path class="cls-3" d="M146.33,700.48v14.63c0,1.07,0,2.29.1,3.12h-2l-.1-2.1h0a4.46,4.46,0,0,1-4.12,2.37c-2.93,0-5.17-2.47-5.17-6.14,0-4,2.47-6.5,5.42-6.5a4,4,0,0,1,3.65,1.85h0v-7.23Zm-2.2,10.58a4.2,4.2,0,0,0-.1-.93,3.25,3.25,0,0,0-3.18-2.55c-2.27,0-3.62,2-3.62,4.68,0,2.44,1.2,4.47,3.57,4.47a3.31,3.31,0,0,0,3.23-2.62,4.16,4.16,0,0,0,.1-1Z"/><path class="cls-3" d="M165.73,700.48v14.63c0,1.07,0,2.29.1,3.12h-2l-.1-2.1h-.05a4.46,4.46,0,0,1-4.12,2.37c-2.93,0-5.18-2.47-5.18-6.14,0-4,2.48-6.5,5.43-6.5a4,4,0,0,1,3.65,1.85h.05v-7.23Zm-2.2,10.58a4.2,4.2,0,0,0-.1-.93,3.25,3.25,0,0,0-3.18-2.55c-2.27,0-3.62,2-3.62,4.68,0,2.44,1.2,4.47,3.57,4.47a3.31,3.31,0,0,0,3.23-2.62,4.16,4.16,0,0,0,.1-1Z"/><path class="cls-3" d="M171.83,702.73a1.37,1.37,0,0,1-2.73,0,1.34,1.34,0,0,1,1.38-1.37A1.31,1.31,0,0,1,171.83,702.73Zm-2.45,15.5v-12.1h2.2v12.1Z"/><path class="cls-3" d="M181.93,718.23l-.18-1.53h-.07a4.52,4.52,0,0,1-3.7,1.8,3.44,3.44,0,0,1-3.7-3.47c0-2.92,2.6-4.52,7.27-4.5v-.25a2.49,2.49,0,0,0-2.75-2.8,6,6,0,0,0-3.15.9l-.5-1.45a7.51,7.51,0,0,1,4-1.07c3.7,0,4.6,2.52,4.6,4.95v4.52a17.07,17.07,0,0,0,.2,2.9Zm-.33-6.18c-2.4,0-5.12.38-5.12,2.73a2,2,0,0,0,2.07,2.1,3,3,0,0,0,2.93-2,2.52,2.52,0,0,0,.12-.71Z"/><path class="cls-3" d="M187.28,709.41c0-1.25,0-2.28-.1-3.28h1.92l.1,2h.08a4.16,4.16,0,0,1,3.8-2.22,3.57,3.57,0,0,1,3.42,2.42h.05a5,5,0,0,1,1.35-1.57,4.15,4.15,0,0,1,2.68-.85c1.59,0,4,1,4,5.25v7.12H202.4v-6.85c0-2.32-.85-3.72-2.62-3.72a2.84,2.84,0,0,0-2.6,2,3.56,3.56,0,0,0-.18,1.1v7.47h-2.15V711c0-1.92-.85-3.32-2.52-3.32a3,3,0,0,0-2.73,2.2,3.12,3.12,0,0,0-.17,1.07v7.3h-2.15Z"/><path class="cls-3" d="M213.43,709.41c0-1.25,0-2.28-.1-3.28h1.95l.12,2h0a4.45,4.45,0,0,1,4-2.27c1.68,0,4.28,1,4.28,5.15v7.22h-2.2v-7c0-2-.73-3.58-2.8-3.58a3.23,3.23,0,0,0-3.1,3.27v7.28h-2.2Z"/><path class="cls-3" d="M238.25,712.08c0,4.47-3.1,6.42-6,6.42-3.28,0-5.8-2.39-5.8-6.22,0-4,2.65-6.42,6-6.42S238.25,708.38,238.25,712.08Zm-9.6.12c0,2.66,1.53,4.65,3.68,4.65s3.67-2,3.67-4.69c0-2-1-4.65-3.62-4.65S228.65,709.91,228.65,712.2Z"/><path class="cls-3" d="M241,709.41c0-1.25,0-2.28-.1-3.28h1.95l.12,2h.05a4.45,4.45,0,0,1,4-2.27c1.68,0,4.28,1,4.28,5.15v7.22h-2.2v-7c0-2-.73-3.58-2.8-3.58a3.23,3.23,0,0,0-3.1,3.27v7.28H241Z"/><path class="cls-3" d="M265,714.93c0,1.25,0,2.35.1,3.3h-1.95l-.13-2H263a4.54,4.54,0,0,1-4,2.25c-1.9,0-4.17-1-4.17-5.3v-7.07H257v6.7c0,2.3.7,3.85,2.7,3.85a3.19,3.19,0,0,0,2.9-2,3.34,3.34,0,0,0,.2-1.13v-7.42H265Z"/><path class="cls-3" d="M268.68,709.41c0-1.25,0-2.28-.1-3.28h1.92l.1,2h.08a4.16,4.16,0,0,1,3.8-2.22,3.57,3.57,0,0,1,3.42,2.42H278a5,5,0,0,1,1.35-1.57,4.11,4.11,0,0,1,2.67-.85c1.6,0,4,1,4,5.25v7.12H283.8v-6.85c0-2.32-.85-3.72-2.63-3.72a2.85,2.85,0,0,0-2.6,2,3.58,3.58,0,0,0-.17,1.1v7.47h-2.15V711c0-1.92-.85-3.32-2.52-3.32a3,3,0,0,0-2.73,2.2,3.12,3.12,0,0,0-.17,1.07v7.3h-2.15Z"/><path class="cls-3" d="M289.53,709.41c0-1.25,0-2.28-.1-3.28h1.92l.1,2h.08a4.16,4.16,0,0,1,3.8-2.22,3.57,3.57,0,0,1,3.42,2.42h.05a5,5,0,0,1,1.35-1.57,4.12,4.12,0,0,1,2.67-.85c1.6,0,4,1,4,5.25v7.12h-2.15v-6.85c0-2.32-.85-3.72-2.63-3.72a2.86,2.86,0,0,0-2.6,2,3.91,3.91,0,0,0-.17,1.1v7.47H297.1V711c0-1.92-.85-3.32-2.52-3.32a3,3,0,0,0-2.73,2.2,3.12,3.12,0,0,0-.17,1.07v7.3h-2.15Z"/><path class="cls-3" d="M310.85,706.13l2.65,7.15c.28.8.58,1.75.78,2.47h.05c.22-.72.47-1.64.77-2.52l2.4-7.1h2.33l-3.3,8.62c-1.58,4.15-2.65,6.28-4.15,7.58a6,6,0,0,1-2.7,1.42l-.55-1.85a5.69,5.69,0,0,0,1.92-1.07,6.76,6.76,0,0,0,1.85-2.45,1.63,1.63,0,0,0,.18-.53,1.9,1.9,0,0,0-.15-.57l-4.48-11.15Z"/><path class="cls-3" d="M327.13,709.41c0-1.25,0-2.28-.1-3.28h2l.12,2h0a4.45,4.45,0,0,1,4-2.27c1.68,0,4.27,1,4.27,5.15v7.22h-2.19v-7c0-2-.73-3.58-2.8-3.58a3.23,3.23,0,0,0-3.1,3.27v7.28h-2.2Z"/><path class="cls-3" d="M343.45,702.73a1.29,1.29,0,0,1-1.4,1.35,1.31,1.31,0,0,1-1.32-1.35,1.34,1.34,0,0,1,1.37-1.37A1.3,1.3,0,0,1,343.45,702.73ZM341,718.23v-12.1h2.2v12.1Z"/><path class="cls-3" d="M346.75,718.23c.05-.83.1-2.05.1-3.12V700.48H349v7.6h.05a4.49,4.49,0,0,1,4.12-2.22c3,0,5.12,2.5,5.1,6.17,0,4.32-2.72,6.47-5.42,6.47a4.31,4.31,0,0,1-4.05-2.27h-.08l-.1,2Zm2.28-4.85a4.17,4.17,0,0,0,.1.8,3.39,3.39,0,0,0,3.3,2.57c2.29,0,3.67-1.87,3.67-4.64,0-2.43-1.25-4.5-3.6-4.5a3.5,3.5,0,0,0-3.35,2.7,4.36,4.36,0,0,0-.12.89Z"/><path class="cls-3" d="M361.08,700.48h2.2V708h.05a4.17,4.17,0,0,1,1.57-1.55,4.59,4.59,0,0,1,2.25-.62c1.62,0,4.22,1,4.22,5.17v7.2h-2.2v-7c0-1.95-.72-3.6-2.79-3.6a3.16,3.16,0,0,0-2.95,2.2,2.59,2.59,0,0,0-.15,1v7.3h-2.2Z"/><path class="cls-3" d="M381.48,712.58a3.88,3.88,0,0,0,4.15,4.2,7.89,7.89,0,0,0,3.34-.63l.38,1.58a9.81,9.81,0,0,1-4,.75c-3.73,0-5.95-2.45-5.95-6.1s2.15-6.52,5.67-6.52c3.95,0,5,3.47,5,5.69a7.13,7.13,0,0,1-.08,1Zm6.44-1.57c0-1.4-.57-3.58-3-3.58-2.23,0-3.2,2.05-3.38,3.58Z"/><path class="cls-3" d="M402.9,714.93c0,1.25,0,2.35.1,3.3h-1.95l-.13-2h-.05a4.53,4.53,0,0,1-4,2.25c-1.9,0-4.18-1-4.18-5.3v-7.07h2.2v6.7c0,2.3.7,3.85,2.7,3.85a3.19,3.19,0,0,0,2.9-2,3.34,3.34,0,0,0,.2-1.13v-7.42h2.2Z"/><path class="cls-3" d="M409,702.73a1.29,1.29,0,0,1-1.4,1.35,1.31,1.31,0,0,1-1.32-1.35,1.34,1.34,0,0,1,1.37-1.37A1.3,1.3,0,0,1,409,702.73Zm-2.45,15.5v-12.1h2.2v12.1Z"/><path class="cls-3" d="M412.1,716a5.81,5.81,0,0,0,2.9.87c1.6,0,2.35-.8,2.35-1.8s-.63-1.62-2.25-2.22c-2.17-.78-3.2-2-3.2-3.42,0-1.95,1.58-3.55,4.18-3.55a6,6,0,0,1,3,.75l-.55,1.6a4.73,4.73,0,0,0-2.48-.7c-1.29,0-2,.75-2,1.65s.73,1.45,2.3,2c2.1.81,3.17,1.85,3.17,3.66,0,2.12-1.65,3.62-4.52,3.62a6.91,6.91,0,0,1-3.4-.83Z"/><path class="cls-3" d="M422.3,709.41c0-1.25,0-2.28-.1-3.28h1.93l.09,2h.08a4.16,4.16,0,0,1,3.8-2.22,3.57,3.57,0,0,1,3.42,2.42h.05a5,5,0,0,1,1.35-1.57,4.15,4.15,0,0,1,2.68-.85c1.6,0,4,1,4,5.25v7.12h-2.15v-6.85c0-2.32-.85-3.72-2.62-3.72a2.84,2.84,0,0,0-2.6,2,3.56,3.56,0,0,0-.18,1.1v7.47h-2.15V711c0-1.92-.85-3.32-2.52-3.32a3,3,0,0,0-2.72,2.2,2.9,2.9,0,0,0-.18,1.07v7.3H422.3Z"/><path class="cls-3" d="M454.1,712.08c0,4.47-3.1,6.42-6,6.42-3.27,0-5.79-2.39-5.79-6.22,0-4,2.65-6.42,6-6.42S454.1,708.38,454.1,712.08Zm-9.6.12c0,2.66,1.53,4.65,3.67,4.65s3.68-2,3.68-4.69c0-2-1-4.65-3.63-4.65S444.5,709.91,444.5,712.2Z"/><path class="cls-3" d="M467.32,700.48v14.63c0,1.07,0,2.29.1,3.12h-2l-.1-2.1h-.05a4.48,4.48,0,0,1-4.13,2.37c-2.92,0-5.17-2.47-5.17-6.14,0-4,2.47-6.5,5.42-6.5a4,4,0,0,1,3.65,1.85h.05v-7.23Zm-2.2,10.58a3.68,3.68,0,0,0-.1-.93,3.23,3.23,0,0,0-3.17-2.55c-2.28,0-3.63,2-3.63,4.68,0,2.44,1.2,4.47,3.58,4.47a3.31,3.31,0,0,0,3.22-2.62,3.68,3.68,0,0,0,.1-1Z"/><path class="cls-3" d="M478.92,702.66v3.47h3.15v1.68h-3.15v6.52c0,1.5.43,2.35,1.65,2.35a5.17,5.17,0,0,0,1.28-.15l.1,1.65a5.52,5.52,0,0,1-1.95.3,3.06,3.06,0,0,1-2.38-.93,4.5,4.5,0,0,1-.85-3.15v-6.59H474.9v-1.68h1.87v-2.9Z"/><path class="cls-3" d="M487,702.73a1.36,1.36,0,0,1-2.72,0,1.34,1.34,0,0,1,1.37-1.37A1.31,1.31,0,0,1,487,702.73Zm-2.45,15.5v-12.1h2.2v12.1Z"/><path class="cls-3" d="M490.4,709.41c0-1.25,0-2.28-.1-3.28h1.95l.12,2h.05a4.45,4.45,0,0,1,4-2.27c1.68,0,4.28,1,4.28,5.15v7.22h-2.2v-7c0-2-.73-3.58-2.8-3.58a3.23,3.23,0,0,0-3.1,3.27v7.28h-2.2Z"/><path class="cls-3" d="M512.9,717.78a8.13,8.13,0,0,1-3.48.7c-3.65,0-6-2.48-6-6.18a6.15,6.15,0,0,1,6.5-6.42,7.34,7.34,0,0,1,3.05.63l-.5,1.7a5.11,5.11,0,0,0-2.55-.58c-2.78,0-4.28,2-4.28,4.57,0,2.8,1.8,4.53,4.2,4.53a6.3,6.3,0,0,0,2.7-.6Z"/><path class="cls-3" d="M517.92,702.73a1.29,1.29,0,0,1-1.4,1.35,1.31,1.31,0,0,1-1.32-1.35,1.34,1.34,0,0,1,1.37-1.37A1.3,1.3,0,0,1,517.92,702.73Zm-2.45,15.5v-12.1h2.2v12.1Z"/><path class="cls-3" d="M531.77,700.48v14.63c0,1.07,0,2.29.1,3.12h-2l-.1-2.1h0a4.48,4.48,0,0,1-4.13,2.37c-2.92,0-5.17-2.47-5.17-6.14,0-4,2.47-6.5,5.42-6.5a4,4,0,0,1,3.65,1.85h.05v-7.23Zm-2.2,10.58a3.68,3.68,0,0,0-.1-.93,3.23,3.23,0,0,0-3.17-2.55c-2.28,0-3.63,2-3.63,4.68,0,2.44,1.2,4.47,3.58,4.47a3.31,3.31,0,0,0,3.22-2.62,3.68,3.68,0,0,0,.1-1Z"/><path class="cls-3" d="M540.52,710.66v1.62h-6.17v-1.62Z"/><path class="cls-3" d="M41.63,744.93c0,1.25,0,2.35.1,3.3H39.78l-.13-2h0a4.52,4.52,0,0,1-4,2.25c-1.9,0-4.18-1-4.18-5.3v-7.07h2.2v6.7c0,2.3.7,3.85,2.7,3.85a3.19,3.19,0,0,0,2.9-2,3.34,3.34,0,0,0,.2-1.13v-7.42h2.2Z"/><path class="cls-3" d="M45.28,739.41c0-1.25,0-2.28-.1-3.28h2l.13,2h0a4.46,4.46,0,0,1,4-2.27c1.68,0,4.28,1,4.28,5.15v7.22h-2.2v-7c0-2-.73-3.58-2.8-3.58a3.23,3.23,0,0,0-3.1,3.27v7.28h-2.2Z"/><path class="cls-3" d="M61.71,732.66v3.47h3.14v1.68H61.71v6.52c0,1.5.42,2.35,1.64,2.35a5.17,5.17,0,0,0,1.28-.15l.1,1.65a5.52,5.52,0,0,1-2,.3,3,3,0,0,1-2.37-.93,4.45,4.45,0,0,1-.85-3.15v-6.59H57.68v-1.68h1.88v-2.9Z"/><path class="cls-3" d="M82.75,744.93c0,1.25,0,2.35.1,3.3H80.9l-.12-2h0a4.55,4.55,0,0,1-4,2.25c-1.9,0-4.17-1-4.17-5.3v-7.07h2.2v6.7c0,2.3.69,3.85,2.69,3.85a3.18,3.18,0,0,0,2.9-2,3.11,3.11,0,0,0,.2-1.13v-7.42h2.2Z"/><path class="cls-3" d="M89.05,732.66v3.47H92.2v1.68H89.05v6.52c0,1.5.43,2.35,1.65,2.35a5.17,5.17,0,0,0,1.28-.15l.1,1.65a5.52,5.52,0,0,1-2,.3,3,3,0,0,1-2.37-.93,4.45,4.45,0,0,1-.85-3.15v-6.59H85v-1.68h1.88v-2.9Z"/><path class="cls-3" d="M100,730.48h2.2v17.75H100Z"/><path class="cls-3" d="M112.58,748.23l-.18-1.53h-.07a4.52,4.52,0,0,1-3.7,1.8,3.44,3.44,0,0,1-3.7-3.47c0-2.92,2.6-4.52,7.27-4.5v-.25a2.49,2.49,0,0,0-2.75-2.8,6.07,6.07,0,0,0-3.15.9l-.49-1.45a7.48,7.48,0,0,1,4-1.07c3.7,0,4.6,2.52,4.6,4.95v4.52a17.07,17.07,0,0,0,.2,2.9Zm-.33-6.18c-2.4,0-5.12.38-5.12,2.73a2,2,0,0,0,2.07,2.1,3,3,0,0,0,2.93-2,2.52,2.52,0,0,0,.12-.71Z"/><path class="cls-3" d="M128.88,742.08c0,4.47-3.1,6.42-6,6.42-3.27,0-5.79-2.39-5.79-6.22,0-4,2.65-6.42,6-6.42S128.88,738.38,128.88,742.08Zm-9.6.12c0,2.66,1.52,4.65,3.67,4.65s3.68-2,3.68-4.69c0-2-1-4.65-3.63-4.65S119.28,739.91,119.28,742.2Z"/><path class="cls-3" d="M131.65,739.91c0-1.43,0-2.65-.1-3.78h1.93l.07,2.38h.1a3.63,3.63,0,0,1,3.35-2.65,2.43,2.43,0,0,1,.63.07V738a3.32,3.32,0,0,0-.75-.08,3.09,3.09,0,0,0-2.95,2.83,6.18,6.18,0,0,0-.1,1v6.45h-2.18Z"/><path class="cls-3" d="M140.8,742.58a3.88,3.88,0,0,0,4.15,4.2,7.91,7.91,0,0,0,3.35-.63l.38,1.58a9.83,9.83,0,0,1-4,.75c-3.72,0-5.94-2.45-5.94-6.1s2.14-6.52,5.67-6.52c4,0,5,3.47,5,5.69a7.13,7.13,0,0,1-.08,1Zm6.45-1.57c0-1.4-.57-3.58-3.05-3.58-2.22,0-3.2,2.05-3.37,3.58Z"/><path class="cls-3" d="M153.33,742.58a3.88,3.88,0,0,0,4.15,4.2,8,8,0,0,0,3.35-.63l.37,1.58a9.77,9.77,0,0,1-4,.75c-3.73,0-6-2.45-6-6.1s2.15-6.52,5.67-6.52c3.95,0,5,3.47,5,5.69a9.52,9.52,0,0,1-.07,1Zm6.45-1.57c0-1.4-.58-3.58-3.05-3.58-2.23,0-3.2,2.05-3.38,3.58Z"/><path class="cls-3" d="M167.28,732.66v3.47h3.15v1.68h-3.15v6.52c0,1.5.42,2.35,1.65,2.35a5.08,5.08,0,0,0,1.27-.15l.1,1.65a5.48,5.48,0,0,1-2,.3,3,3,0,0,1-2.37-.93,4.45,4.45,0,0,1-.85-3.15v-6.59h-1.87v-1.68h1.87v-2.9Z"/><path class="cls-3" d="M188.65,730.48v14.63c0,1.07,0,2.29.1,3.12h-2l-.1-2.1h-.05a4.48,4.48,0,0,1-4.13,2.37c-2.92,0-5.17-2.47-5.17-6.14,0-4,2.47-6.5,5.42-6.5a4,4,0,0,1,3.65,1.85h0v-7.23Zm-2.2,10.58a3.68,3.68,0,0,0-.1-.93,3.23,3.23,0,0,0-3.17-2.55c-2.28,0-3.63,2-3.63,4.68,0,2.44,1.2,4.47,3.58,4.47a3.31,3.31,0,0,0,3.22-2.62,3.68,3.68,0,0,0,.1-1Z"/><path class="cls-3" d="M203.25,742.08c0,4.47-3.1,6.42-6,6.42-3.28,0-5.8-2.39-5.8-6.22,0-4,2.65-6.42,6-6.42S203.25,738.38,203.25,742.08Zm-9.6.12c0,2.66,1.53,4.65,3.68,4.65s3.67-2,3.67-4.69c0-2-1-4.65-3.62-4.65S193.65,739.91,193.65,742.2Z"/><path class="cls-3" d="M206,730.48h2.2v17.75H206Z"/><path class="cls-3" d="M222.88,742.08c0,4.47-3.1,6.42-6,6.42-3.27,0-5.8-2.39-5.8-6.22,0-4,2.65-6.42,6-6.42S222.88,738.38,222.88,742.08Zm-9.6.12c0,2.66,1.52,4.65,3.67,4.65s3.68-2,3.68-4.69c0-2-1-4.65-3.63-4.65S213.28,739.91,213.28,742.2Z"/><path class="cls-3" d="M225.65,739.91c0-1.43,0-2.65-.1-3.78h1.93l.07,2.38h.1a3.63,3.63,0,0,1,3.35-2.65,2.43,2.43,0,0,1,.63.07V738a3.32,3.32,0,0,0-.75-.08,3.09,3.09,0,0,0-2.95,2.83,6.18,6.18,0,0,0-.1,1v6.45h-2.18Z"/><path class="cls-3" d="M234.8,742.58a3.88,3.88,0,0,0,4.15,4.2,7.91,7.91,0,0,0,3.35-.63l.38,1.58a9.83,9.83,0,0,1-4,.75c-3.72,0-6-2.45-6-6.1s2.15-6.52,5.68-6.52c4,0,5,3.47,5,5.69a7.13,7.13,0,0,1-.08,1Zm6.45-1.57c0-1.4-.57-3.58-3.05-3.58-2.22,0-3.2,2.05-3.37,3.58Z"/><path class="cls-3" d="M251.4,739.41c0-1.25,0-2.28-.1-3.28h1.93l.1,2h.07a4.17,4.17,0,0,1,3.8-2.22,3.59,3.59,0,0,1,3.43,2.42h.05a4.9,4.9,0,0,1,1.35-1.57,4.11,4.11,0,0,1,2.67-.85c1.6,0,4,1,4,5.25v7.12h-2.15v-6.85c0-2.32-.85-3.72-2.62-3.72a2.84,2.84,0,0,0-2.6,2,3.58,3.58,0,0,0-.17,1.1v7.47H259V741c0-1.92-.85-3.32-2.53-3.32a3,3,0,0,0-2.72,2.2,2.9,2.9,0,0,0-.18,1.07v7.3H251.4Z"/><path class="cls-3" d="M279,748.23l-.17-1.53h-.08a4.49,4.49,0,0,1-3.7,1.8,3.44,3.44,0,0,1-3.7-3.47c0-2.92,2.6-4.52,7.28-4.5v-.25a2.5,2.5,0,0,0-2.75-2.8,6,6,0,0,0-3.15.9l-.5-1.45a7.5,7.5,0,0,1,4-1.07c3.7,0,4.6,2.52,4.6,4.95v4.52a17.07,17.07,0,0,0,.2,2.9Zm-.32-6.18c-2.4,0-5.13.38-5.13,2.73a2,2,0,0,0,2.08,2.1,3,3,0,0,0,2.92-2,2.22,2.22,0,0,0,.13-.71Z"/><path class="cls-3" d="M294.73,736.13c-.05.88-.1,1.85-.1,3.33v7c0,2.77-.55,4.47-1.73,5.52a6.4,6.4,0,0,1-4.4,1.45,7.78,7.78,0,0,1-4-1l.55-1.67a6.82,6.82,0,0,0,3.55,1c2.25,0,3.9-1.18,3.9-4.23v-1.35h-.05a4.32,4.32,0,0,1-3.85,2c-3,0-5.15-2.55-5.15-5.9,0-4.1,2.67-6.42,5.45-6.42a4,4,0,0,1,3.77,2.1h.05l.1-1.83Zm-2.28,4.78a3.08,3.08,0,0,0-.12-1,3.17,3.17,0,0,0-3.08-2.33c-2.1,0-3.6,1.78-3.6,4.58,0,2.37,1.2,4.34,3.58,4.34a3.22,3.22,0,0,0,3-2.24,4.06,4.06,0,0,0,.17-1.18Z"/><path class="cls-3" d="M298.13,739.41c0-1.25,0-2.28-.1-3.28h2l.12,2h0a4.45,4.45,0,0,1,4-2.27c1.68,0,4.27,1,4.27,5.15v7.22h-2.19v-7c0-2-.73-3.58-2.8-3.58a3.23,3.23,0,0,0-3.1,3.27v7.28h-2.2Z"/><path class="cls-3" d="M318.7,748.23l-.17-1.53h-.08a4.49,4.49,0,0,1-3.7,1.8,3.44,3.44,0,0,1-3.7-3.47c0-2.92,2.6-4.52,7.28-4.5v-.25a2.5,2.5,0,0,0-2.75-2.8,6,6,0,0,0-3.15.9l-.5-1.45a7.5,7.5,0,0,1,4-1.07c3.7,0,4.6,2.52,4.6,4.95v4.52a17.07,17.07,0,0,0,.2,2.9Zm-.32-6.18c-2.4,0-5.13.38-5.13,2.73a2,2,0,0,0,2.08,2.1,3,3,0,0,0,2.92-2,2.22,2.22,0,0,0,.13-.71Z"/><path class="cls-3" d="M336.05,748.23l-.17-1.53h-.08a4.49,4.49,0,0,1-3.7,1.8,3.44,3.44,0,0,1-3.7-3.47c0-2.92,2.6-4.52,7.28-4.5v-.25a2.5,2.5,0,0,0-2.75-2.8,6,6,0,0,0-3.15.9l-.5-1.45a7.5,7.5,0,0,1,4-1.07c3.7,0,4.6,2.52,4.6,4.95v4.52a17.07,17.07,0,0,0,.2,2.9Zm-.32-6.18c-2.4,0-5.13.38-5.13,2.73a2,2,0,0,0,2.08,2.1,3,3,0,0,0,2.92-2,2.22,2.22,0,0,0,.13-.71Z"/><path class="cls-3" d="M341.4,730.48h2.2v17.75h-2.2Z"/><path class="cls-3" d="M349.75,732.73a1.29,1.29,0,0,1-1.4,1.35,1.31,1.31,0,0,1-1.32-1.35,1.34,1.34,0,0,1,1.37-1.37A1.3,1.3,0,0,1,349.75,732.73Zm-2.45,15.5v-12.1h2.2v12.1Z"/><path class="cls-3" d="M361.4,746.35h0a4.31,4.31,0,0,1-4,2.15c-2.82,0-5.12-2.45-5.12-6.12,0-4.52,2.92-6.52,5.47-6.52a3.94,3.94,0,0,1,3.72,2.1h0l.08-1.83h2.07c-.05,1-.07,2.08-.07,3.33v13.72h-2.2Zm0-5.32a3.46,3.46,0,0,0-.1-.92,3.22,3.22,0,0,0-3.15-2.5c-2.27,0-3.65,1.92-3.65,4.65,0,2.39,1.15,4.49,3.58,4.49a3.27,3.27,0,0,0,3.14-2.39,3.8,3.8,0,0,0,.18-1.06Z"/><path class="cls-3" d="M377.35,744.93c0,1.25,0,2.35.1,3.3H375.5l-.13-2h-.05a4.53,4.53,0,0,1-4,2.25c-1.9,0-4.18-1-4.18-5.3v-7.07h2.2v6.7c0,2.3.7,3.85,2.7,3.85a3.19,3.19,0,0,0,2.9-2,3.34,3.34,0,0,0,.2-1.13v-7.42h2.2Z"/><path class="cls-3" d="M387.7,748.23l-.18-1.53h-.07a4.49,4.49,0,0,1-3.7,1.8,3.44,3.44,0,0,1-3.7-3.47c0-2.92,2.6-4.52,7.28-4.5v-.25a2.5,2.5,0,0,0-2.75-2.8,6,6,0,0,0-3.15.9l-.5-1.45a7.5,7.5,0,0,1,4-1.07c3.7,0,4.6,2.52,4.6,4.95v4.52a17.07,17.07,0,0,0,.2,2.9Zm-.32-6.18c-2.4,0-5.13.38-5.13,2.73a2,2,0,0,0,2.08,2.1,3,3,0,0,0,2.92-2,2.22,2.22,0,0,0,.13-.71Z"/><path class="cls-3" d="M393.05,739.41c0-1.25,0-2.28-.1-3.28h1.93l.1,2h.07a4.17,4.17,0,0,1,3.8-2.22,3.57,3.57,0,0,1,3.42,2.42h.05a5,5,0,0,1,1.35-1.57,4.15,4.15,0,0,1,2.68-.85c1.6,0,4,1,4,5.25v7.12h-2.15v-6.85c0-2.32-.85-3.72-2.62-3.72a2.84,2.84,0,0,0-2.6,2,3.56,3.56,0,0,0-.18,1.1v7.47h-2.15V741c0-1.92-.85-3.32-2.52-3.32a3,3,0,0,0-2.72,2.2,2.9,2.9,0,0,0-.18,1.07v7.3h-2.15Z"/><path class="cls-3" d="M420.42,742.58a3.89,3.89,0,0,0,4.15,4.2,7.91,7.91,0,0,0,3.35-.63l.38,1.58a9.83,9.83,0,0,1-4,.75c-3.72,0-5.94-2.45-5.94-6.1s2.15-6.52,5.67-6.52c3.95,0,5,3.47,5,5.69a7.13,7.13,0,0,1-.08,1Zm6.45-1.57c0-1.4-.57-3.58-3.05-3.58-2.22,0-3.19,2.05-3.37,3.58Z"/><path class="cls-3" d="M431.73,739.91c0-1.43,0-2.65-.1-3.78h1.92l.08,2.38h.1a3.62,3.62,0,0,1,3.34-2.65,2.43,2.43,0,0,1,.63.07V738a3.32,3.32,0,0,0-.75-.08,3.09,3.09,0,0,0-2.95,2.83,6.18,6.18,0,0,0-.1,1v6.45h-2.17Z"/><path class="cls-3" d="M446.47,748.23l-.17-1.53h-.08a4.49,4.49,0,0,1-3.69,1.8,3.44,3.44,0,0,1-3.7-3.47c0-2.92,2.6-4.52,7.27-4.5v-.25a2.5,2.5,0,0,0-2.75-2.8,6,6,0,0,0-3.15.9l-.5-1.45a7.5,7.5,0,0,1,4-1.07c3.7,0,4.6,2.52,4.6,4.95v4.52a17.07,17.07,0,0,0,.2,2.9Zm-.32-6.18c-2.4,0-5.12.38-5.12,2.73a2,2,0,0,0,2.07,2.1,3,3,0,0,0,2.92-2,2.22,2.22,0,0,0,.13-.71Z"/><path class="cls-3" d="M454.38,732.66v3.47h3.14v1.68h-3.14v6.52c0,1.5.42,2.35,1.64,2.35a5.17,5.17,0,0,0,1.28-.15l.1,1.65a5.52,5.52,0,0,1-1.95.3,3,3,0,0,1-2.37-.93,4.45,4.45,0,0,1-.85-3.15v-6.59h-1.88v-1.68h1.88v-2.9Z"/><path class="cls-3" d="M466.15,736.13l2.37,6.8a31.2,31.2,0,0,1,1,3.1h.07c.28-1,.63-2,1-3.1l2.35-6.8h2.3l-4.75,12.1h-2.1l-4.6-12.1Z"/><path class="cls-3" d="M488,742.08c0,4.47-3.1,6.42-6,6.42-3.28,0-5.8-2.39-5.8-6.22,0-4,2.65-6.42,6-6.42S488,738.38,488,742.08Zm-9.6.12c0,2.66,1.53,4.65,3.68,4.65s3.67-2,3.67-4.69c0-2-1-4.65-3.62-4.65S478.42,739.91,478.42,742.2Z"/><path class="cls-3" d="M490.8,730.48H493v17.75h-2.2Z"/><path class="cls-3" d="M506.82,744.93c0,1.25,0,2.35.1,3.3H505l-.12-2h-.05a4.55,4.55,0,0,1-4,2.25c-1.9,0-4.17-1-4.17-5.3v-7.07h2.19v6.7c0,2.3.7,3.85,2.7,3.85a3.18,3.18,0,0,0,2.9-2,3.11,3.11,0,0,0,.2-1.13v-7.42h2.2Z"/><path class="cls-3" d="M513.12,732.66v3.47h3.15v1.68h-3.15v6.52c0,1.5.43,2.35,1.65,2.35a5.17,5.17,0,0,0,1.28-.15l.1,1.65a5.52,5.52,0,0,1-1.95.3,3.06,3.06,0,0,1-2.38-.93,4.5,4.5,0,0,1-.85-3.15v-6.59H509.1v-1.68H511v-2.9Z"/><path class="cls-3" d="M523.72,740.66v1.62h-6.17v-1.62Z"/><path class="cls-3" d="M31.51,770.08c0-1.55-.05-2.8-.1-4h2l.1,2.08h.05a4.75,4.75,0,0,1,4.3-2.35c2.92,0,5.12,2.47,5.12,6.15,0,4.34-2.65,6.49-5.49,6.49a4.26,4.26,0,0,1-3.73-1.9h0v6.58H31.51Zm2.17,3.22a4.85,4.85,0,0,0,.1.9,3.4,3.4,0,0,0,3.3,2.58c2.32,0,3.67-1.9,3.67-4.67,0-2.43-1.27-4.5-3.59-4.5a3.52,3.52,0,0,0-3.33,2.72,3.85,3.85,0,0,0-.15.9Z"/><path class="cls-3" d="M52.43,778.23l-.18-1.53h-.07a4.51,4.51,0,0,1-3.7,1.8,3.44,3.44,0,0,1-3.7-3.47c0-2.92,2.6-4.52,7.27-4.5v-.25a2.49,2.49,0,0,0-2.75-2.8,6,6,0,0,0-3.14.9l-.5-1.45a7.5,7.5,0,0,1,4-1.07c3.7,0,4.6,2.52,4.6,4.95v4.52a17.07,17.07,0,0,0,.2,2.9Zm-.33-6.18c-2.39,0-5.12.38-5.12,2.73a2,2,0,0,0,2.07,2.1,3,3,0,0,0,2.93-2,2.52,2.52,0,0,0,.12-.71Z"/><path class="cls-3" d="M60.33,762.66v3.47h3.15v1.68H60.33v6.52c0,1.5.43,2.35,1.65,2.35a5.24,5.24,0,0,0,1.28-.15l.09,1.65a5.41,5.41,0,0,1-1.94.3,3.06,3.06,0,0,1-2.38-.93,4.5,4.5,0,0,1-.85-3.15v-6.59H56.31v-1.68h1.87v-2.9Z"/><path class="cls-3" d="M65.36,776.93a1.47,1.47,0,0,1,1.5-1.57,1.57,1.57,0,0,1,0,3.14A1.47,1.47,0,0,1,65.36,776.93Z"/><path class="cls-3" d="M78.6,761.38v10c0,3.77,1.68,5.37,3.93,5.37,2.5,0,4.1-1.65,4.1-5.37v-10h2.2v9.82c0,5.18-2.73,7.3-6.38,7.3-3.45,0-6-2-6-7.19v-9.93Z"/><path class="cls-3" d="M95.28,762.66v3.47h3.15v1.68H95.28v6.52c0,1.5.42,2.35,1.65,2.35a5.08,5.08,0,0,0,1.27-.15l.1,1.65a5.48,5.48,0,0,1-2,.3,3.05,3.05,0,0,1-2.37-.93,4.5,4.5,0,0,1-.85-3.15v-6.59H91.26v-1.68h1.87v-2.9Z"/><path class="cls-3" d="M107.08,766.13l1.6,6.15c.35,1.35.67,2.6.9,3.85h.07c.28-1.23.68-2.52,1.08-3.83l2-6.17h1.85l1.88,6c.45,1.45.8,2.72,1.07,4h.08a36.37,36.37,0,0,1,.92-3.93l1.73-6.07h2.17l-3.9,12.1h-2l-1.85-5.78a40.48,40.48,0,0,1-1.07-4h0a36.91,36.91,0,0,1-1.1,4l-2,5.75h-2l-3.65-12.1Z"/><path class="cls-3" d="M127.05,762.73a1.29,1.29,0,0,1-1.4,1.35,1.31,1.31,0,0,1-1.32-1.35,1.34,1.34,0,0,1,1.37-1.37A1.3,1.3,0,0,1,127.05,762.73Zm-2.45,15.5v-12.1h2.2v12.1Z"/><path class="cls-3" d="M130.15,776a5.81,5.81,0,0,0,2.9.87c1.6,0,2.35-.8,2.35-1.8s-.62-1.62-2.25-2.22c-2.17-.78-3.2-2-3.2-3.42,0-1.95,1.58-3.55,4.18-3.55a6,6,0,0,1,3,.75l-.55,1.6a4.69,4.69,0,0,0-2.47-.7c-1.3,0-2,.75-2,1.65s.73,1.45,2.3,2c2.1.81,3.18,1.85,3.18,3.66,0,2.12-1.65,3.62-4.53,3.62a6.91,6.91,0,0,1-3.4-.83Z"/><path class="cls-3" d="M142.8,762.73a1.29,1.29,0,0,1-1.4,1.35,1.31,1.31,0,0,1-1.32-1.35,1.34,1.34,0,0,1,1.37-1.37A1.3,1.3,0,0,1,142.8,762.73Zm-2.45,15.5v-12.1h2.2v12.1Z"/><path class="cls-3" d="M152.73,772.58a3.88,3.88,0,0,0,4.15,4.2,8,8,0,0,0,3.35-.63l.37,1.58a9.77,9.77,0,0,1-4,.75c-3.73,0-6-2.45-6-6.1s2.15-6.52,5.67-6.52c3.95,0,5,3.47,5,5.69a9.52,9.52,0,0,1-.07,1Zm6.45-1.57c0-1.4-.58-3.58-3.05-3.58-2.23,0-3.2,2.05-3.38,3.58Z"/><path class="cls-3" d="M164,769.41c0-1.25,0-2.28-.1-3.28h1.95l.12,2h.05a4.45,4.45,0,0,1,4-2.27c1.68,0,4.28,1,4.28,5.15v7.22h-2.2v-7c0-2-.73-3.58-2.8-3.58a3.23,3.23,0,0,0-3.1,3.27v7.28H164Z"/><path class="cls-3" d="M180.35,762.73a1.29,1.29,0,0,1-1.4,1.35,1.31,1.31,0,0,1-1.32-1.35,1.34,1.34,0,0,1,1.37-1.37A1.3,1.3,0,0,1,180.35,762.73Zm-2.45,15.5v-12.1h2.2v12.1Z"/><path class="cls-3" d="M183.75,769.41c0-1.25,0-2.28-.1-3.28h1.93l.1,2h.07a4.17,4.17,0,0,1,3.8-2.22,3.59,3.59,0,0,1,3.43,2.42H193a4.9,4.9,0,0,1,1.35-1.57,4.11,4.11,0,0,1,2.67-.85c1.6,0,4,1,4,5.25v7.12h-2.14v-6.85c0-2.32-.86-3.72-2.63-3.72a2.85,2.85,0,0,0-2.6,2,3.58,3.58,0,0,0-.17,1.1v7.47h-2.15V771c0-1.92-.85-3.32-2.53-3.32a3,3,0,0,0-2.72,2.2,2.9,2.9,0,0,0-.18,1.07v7.3h-2.15Z"/><path class="cls-3" d="M216.6,778.23l-.17-1.53h-.08a4.49,4.49,0,0,1-3.7,1.8A3.44,3.44,0,0,1,209,775c0-2.92,2.6-4.52,7.28-4.5v-.25a2.5,2.5,0,0,0-2.75-2.8,6,6,0,0,0-3.15.9l-.5-1.45a7.5,7.5,0,0,1,4-1.07c3.7,0,4.6,2.52,4.6,4.95v4.52a17.07,17.07,0,0,0,.2,2.9Zm-.32-6.18c-2.4,0-5.13.38-5.13,2.73a2,2,0,0,0,2.08,2.1,3,3,0,0,0,2.92-2,2.22,2.22,0,0,0,.13-.71Z"/><path class="cls-3" d="M232.4,760.48v14.63c0,1.07,0,2.29.1,3.12h-2l-.1-2.1h-.05a4.48,4.48,0,0,1-4.13,2.37c-2.92,0-5.17-2.47-5.17-6.14,0-4,2.47-6.5,5.42-6.5a4,4,0,0,1,3.65,1.85h0v-7.23Zm-2.2,10.58a3.68,3.68,0,0,0-.1-.93,3.23,3.23,0,0,0-3.17-2.55c-2.28,0-3.63,2-3.63,4.68,0,2.44,1.2,4.47,3.58,4.47a3.31,3.31,0,0,0,3.22-2.62,3.68,3.68,0,0,0,.1-1Z"/><path class="cls-3" d="M241.35,769.41c0-1.25,0-2.28-.1-3.28h1.93l.1,2h.07a4.17,4.17,0,0,1,3.8-2.22,3.57,3.57,0,0,1,3.42,2.42h.06a4.88,4.88,0,0,1,1.34-1.57,4.15,4.15,0,0,1,2.68-.85c1.6,0,4,1,4,5.25v7.12h-2.15v-6.85c0-2.32-.85-3.72-2.62-3.72a2.84,2.84,0,0,0-2.6,2,3.56,3.56,0,0,0-.18,1.1v7.47h-2.15V771c0-1.92-.84-3.32-2.52-3.32a3,3,0,0,0-2.72,2.2,2.9,2.9,0,0,0-.18,1.07v7.3h-2.15Z"/><path class="cls-3" d="M264.65,762.73a1.29,1.29,0,0,1-1.4,1.35,1.31,1.31,0,0,1-1.32-1.35,1.34,1.34,0,0,1,1.37-1.37A1.3,1.3,0,0,1,264.65,762.73Zm-2.45,15.5v-12.1h2.2v12.1Z"/><path class="cls-3" d="M268.05,769.41c0-1.25,0-2.28-.1-3.28h1.95l.13,2h.05a4.45,4.45,0,0,1,4-2.27c1.67,0,4.27,1,4.27,5.15v7.22h-2.2v-7c0-2-.72-3.58-2.8-3.58a3.23,3.23,0,0,0-3.1,3.27v7.28h-2.2Z"/><path class="cls-3" d="M284.38,762.73a1.37,1.37,0,0,1-2.73,0,1.34,1.34,0,0,1,1.38-1.37A1.31,1.31,0,0,1,284.38,762.73Zm-2.45,15.5v-12.1h2.2v12.1Z"/><path class="cls-3" d="M287.78,769.41c0-1.25,0-2.28-.1-3.28h1.92l.1,2h.08a4.16,4.16,0,0,1,3.8-2.22,3.59,3.59,0,0,1,3.42,2.42h.05a4.9,4.9,0,0,1,1.35-1.57,4.11,4.11,0,0,1,2.67-.85c1.6,0,4,1,4,5.25v7.12H302.9v-6.85c0-2.32-.85-3.72-2.63-3.72a2.85,2.85,0,0,0-2.6,2,3.58,3.58,0,0,0-.17,1.1v7.47h-2.15V771c0-1.92-.85-3.32-2.52-3.32a3,3,0,0,0-2.73,2.2,3.12,3.12,0,0,0-.17,1.07v7.3h-2.15Z"/><path class="cls-3" d="M314.78,766.13l2.37,6.8a31.2,31.2,0,0,1,1,3.1h.07c.27-1,.63-2,1-3.1l2.35-6.8h2.3l-4.74,12.1H317l-4.6-12.1Z"/><path class="cls-3" d="M326.93,772.58a3.88,3.88,0,0,0,4.15,4.2,7.89,7.89,0,0,0,3.34-.63l.38,1.58a9.81,9.81,0,0,1-4,.75c-3.73,0-5.95-2.45-5.95-6.1s2.15-6.52,5.67-6.52c3.95,0,5,3.47,5,5.69a7.13,7.13,0,0,1-.08,1Zm6.45-1.57c0-1.4-.58-3.58-3.05-3.58-2.23,0-3.2,2.05-3.38,3.58Z"/><path class="cls-3" d="M338.23,769.41c0-1.25,0-2.28-.1-3.28h1.95l.12,2h.05a4.45,4.45,0,0,1,4-2.27c1.67,0,4.27,1,4.27,5.15v7.22h-2.2v-7c0-2-.72-3.58-2.8-3.58a3.23,3.23,0,0,0-3.09,3.27v7.28h-2.2Z"/><path class="cls-3" d="M354.55,762.73a1.29,1.29,0,0,1-1.4,1.35,1.31,1.31,0,0,1-1.32-1.35,1.34,1.34,0,0,1,1.37-1.37A1.3,1.3,0,0,1,354.55,762.73Zm-2.45,15.5v-12.1h2.2v12.1Z"/><path class="cls-3" d="M364.65,778.23l-.18-1.53h-.07a4.52,4.52,0,0,1-3.7,1.8A3.44,3.44,0,0,1,357,775c0-2.92,2.6-4.52,7.27-4.5v-.25a2.49,2.49,0,0,0-2.75-2.8,6,6,0,0,0-3.14.9l-.5-1.45a7.5,7.5,0,0,1,4-1.07c3.7,0,4.6,2.52,4.6,4.95v4.52a17.07,17.07,0,0,0,.2,2.9Zm-.33-6.18c-2.4,0-5.12.38-5.12,2.73a2,2,0,0,0,2.07,2.1,3,3,0,0,0,2.93-2,2.52,2.52,0,0,0,.12-.71Z"/><path class="cls-3" d="M370,769.41c0-1.25,0-2.28-.1-3.28h1.93l.09,2H372a4.16,4.16,0,0,1,3.8-2.22,3.57,3.57,0,0,1,3.42,2.42h0a5,5,0,0,1,1.35-1.57,4.15,4.15,0,0,1,2.68-.85c1.6,0,4,1,4,5.25v7.12h-2.15v-6.85c0-2.32-.85-3.72-2.62-3.72a2.84,2.84,0,0,0-2.6,2,3.56,3.56,0,0,0-.18,1.1v7.47h-2.15V771c0-1.92-.85-3.32-2.52-3.32a3,3,0,0,0-2.72,2.2,2.9,2.9,0,0,0-.18,1.07v7.3H370Z"/><path class="cls-3" d="M389.43,781.3a36.41,36.41,0,0,0,1.5-6l2.45-.25a30.7,30.7,0,0,1-2.38,6.07Z"/><path class="cls-3" d="M409.57,776.35h-.05a4.31,4.31,0,0,1-3.95,2.15c-2.82,0-5.12-2.45-5.12-6.12,0-4.52,2.93-6.52,5.47-6.52a4,4,0,0,1,3.73,2.1h.05l.07-1.83h2.08c-.05,1-.08,2.08-.08,3.33v13.72h-2.2Zm0-5.32a3.46,3.46,0,0,0-.1-.92,3.21,3.21,0,0,0-3.15-2.5c-2.27,0-3.65,1.92-3.65,4.65,0,2.39,1.16,4.49,3.58,4.49a3.28,3.28,0,0,0,3.15-2.39,3.79,3.79,0,0,0,.17-1.06Z"/><path class="cls-3" d="M425.52,774.93c0,1.25,0,2.35.1,3.3h-1.95l-.12-2h-.05a4.55,4.55,0,0,1-4,2.25c-1.9,0-4.17-1-4.17-5.3v-7.07h2.19v6.7c0,2.3.7,3.85,2.7,3.85a3.18,3.18,0,0,0,2.9-2,3.11,3.11,0,0,0,.2-1.13v-7.42h2.2Z"/><path class="cls-3" d="M431.62,762.73a1.29,1.29,0,0,1-1.4,1.35,1.31,1.31,0,0,1-1.32-1.35,1.34,1.34,0,0,1,1.37-1.37A1.3,1.3,0,0,1,431.62,762.73Zm-2.45,15.5v-12.1h2.2v12.1Z"/><path class="cls-3" d="M434.72,776a5.85,5.85,0,0,0,2.9.87c1.6,0,2.35-.8,2.35-1.8s-.62-1.62-2.25-2.22c-2.17-.78-3.2-2-3.2-3.42,0-1.95,1.58-3.55,4.18-3.55a6,6,0,0,1,3,.75l-.55,1.6a4.69,4.69,0,0,0-2.47-.7c-1.3,0-2,.75-2,1.65s.73,1.45,2.3,2c2.1.81,3.18,1.85,3.18,3.66,0,2.12-1.65,3.62-4.53,3.62a6.91,6.91,0,0,1-3.4-.83Z"/><path class="cls-3" d="M450.22,769.41c0-1.25,0-2.28-.1-3.28h1.95l.13,2h.05a4.45,4.45,0,0,1,4-2.27c1.67,0,4.27,1,4.27,5.15v7.22h-2.2v-7c0-2-.72-3.58-2.8-3.58a3.23,3.23,0,0,0-3.1,3.27v7.28h-2.2Z"/><path class="cls-3" d="M475.05,772.08c0,4.47-3.1,6.42-6,6.42-3.27,0-5.8-2.39-5.8-6.22,0-4,2.65-6.42,6-6.42S475.05,768.38,475.05,772.08Zm-9.6.12c0,2.66,1.52,4.65,3.67,4.65s3.68-2,3.68-4.69c0-2-1-4.65-3.63-4.65S465.45,769.91,465.45,772.2Z"/><path class="cls-3" d="M477.52,776a5.81,5.81,0,0,0,2.9.87c1.6,0,2.35-.8,2.35-1.8s-.62-1.62-2.25-2.22c-2.17-.78-3.2-2-3.2-3.42,0-1.95,1.58-3.55,4.18-3.55a6,6,0,0,1,3,.75l-.55,1.6a4.69,4.69,0,0,0-2.47-.7c-1.3,0-2,.75-2,1.65s.73,1.45,2.3,2c2.1.81,3.18,1.85,3.18,3.66,0,2.12-1.65,3.62-4.53,3.62a6.91,6.91,0,0,1-3.4-.83Z"/><path class="cls-3" d="M490.37,762.66v3.47h3.15v1.68h-3.15v6.52c0,1.5.43,2.35,1.65,2.35a5.17,5.17,0,0,0,1.28-.15l.1,1.65a5.52,5.52,0,0,1-1.95.3,3.06,3.06,0,0,1-2.38-.93,4.5,4.5,0,0,1-.85-3.15v-6.59h-1.87v-1.68h1.87v-2.9Z"/><path class="cls-3" d="M496,769.91c0-1.43,0-2.65-.1-3.78h1.92l.08,2.38h.1a3.62,3.62,0,0,1,3.35-2.65,2.35,2.35,0,0,1,.62.07V768a3.25,3.25,0,0,0-.75-.08,3.09,3.09,0,0,0-3,2.83,6.18,6.18,0,0,0-.1,1v6.45H496Z"/><path class="cls-3" d="M514.3,774.93c0,1.25,0,2.35.1,3.3h-1.95l-.13-2h-.05a4.54,4.54,0,0,1-4,2.25c-1.9,0-4.17-1-4.17-5.3v-7.07h2.2v6.7c0,2.3.7,3.85,2.7,3.85a3.19,3.19,0,0,0,2.9-2,3.34,3.34,0,0,0,.2-1.13v-7.42h2.2Z"/><path class="cls-3" d="M528.4,760.48v14.63c0,1.07,0,2.29.1,3.12h-2l-.1-2.1h0a4.46,4.46,0,0,1-4.12,2.37c-2.93,0-5.18-2.47-5.18-6.14,0-4,2.48-6.5,5.43-6.5a4,4,0,0,1,3.65,1.85h.05v-7.23Zm-2.2,10.58a4.2,4.2,0,0,0-.1-.93,3.25,3.25,0,0,0-3.18-2.55c-2.27,0-3.62,2-3.62,4.68,0,2.44,1.2,4.47,3.57,4.47a3.31,3.31,0,0,0,3.23-2.62,4.16,4.16,0,0,0,.1-1Z"/><path class="cls-3" d="M32.73,802.58a3.88,3.88,0,0,0,4.15,4.2,8,8,0,0,0,3.35-.63l.37,1.58a9.73,9.73,0,0,1-4,.75c-3.72,0-5.95-2.45-5.95-6.1s2.15-6.52,5.67-6.52c4,0,5,3.47,5,5.69a9.52,9.52,0,0,1-.07,1ZM39.18,801c0-1.4-.58-3.58-3-3.58-2.22,0-3.2,2.05-3.37,3.58Z"/><path class="cls-3" d="M45,796.13l1.73,2.6c.45.68.82,1.3,1.22,2H48c.4-.72.8-1.34,1.2-2l1.69-2.58h2.38L49.16,802l4.24,6.25H50.9l-1.77-2.73c-.47-.7-.87-1.37-1.3-2.1h0c-.4.73-.82,1.38-1.27,2.1l-1.75,2.73H42.33l4.3-6.18-4.1-5.92Z"/><path class="cls-3" d="M56.38,802.58a3.88,3.88,0,0,0,4.15,4.2,8,8,0,0,0,3.35-.63l.37,1.58a9.73,9.73,0,0,1-4,.75c-3.72,0-5.95-2.45-5.95-6.1s2.15-6.52,5.68-6.52c3.94,0,5,3.47,5,5.69a9.52,9.52,0,0,1-.07,1ZM62.83,801c0-1.4-.57-3.58-3-3.58-2.22,0-3.2,2.05-3.37,3.58Z"/><path class="cls-3" d="M67.68,799.91c0-1.43,0-2.65-.1-3.78h1.93l.07,2.38h.1A3.62,3.62,0,0,1,73,795.86a2.3,2.3,0,0,1,.62.07V798a3.19,3.19,0,0,0-.75-.08A3.09,3.09,0,0,0,70,800.76a6.18,6.18,0,0,0-.1,1v6.45H67.68Z"/><path class="cls-3" d="M84.23,807.78a8.11,8.11,0,0,1-3.47.7c-3.65,0-6-2.48-6-6.18a6.15,6.15,0,0,1,6.5-6.42,7.34,7.34,0,0,1,3,.63l-.5,1.7a5.11,5.11,0,0,0-2.55-.58c-2.77,0-4.27,2-4.27,4.57,0,2.8,1.8,4.53,4.19,4.53a6.3,6.3,0,0,0,2.7-.6Z"/><path class="cls-3" d="M89.26,792.73a1.37,1.37,0,0,1-2.73,0,1.34,1.34,0,0,1,1.38-1.37A1.31,1.31,0,0,1,89.26,792.73Zm-2.45,15.5v-12.1H89v12.1Z"/><path class="cls-3" d="M100.6,792.66v3.47h3.15v1.68H100.6v6.52c0,1.5.43,2.35,1.65,2.35a5.17,5.17,0,0,0,1.28-.15l.1,1.65a5.52,5.52,0,0,1-1.95.3,3.06,3.06,0,0,1-2.38-.93,4.5,4.5,0,0,1-.84-3.15v-6.59H96.58v-1.68h1.88v-2.9Z"/><path class="cls-3" d="M112.93,808.23l-.18-1.53h-.07a4.51,4.51,0,0,1-3.7,1.8,3.44,3.44,0,0,1-3.7-3.47c0-2.92,2.6-4.52,7.27-4.5v-.25a2.49,2.49,0,0,0-2.75-2.8,6,6,0,0,0-3.14.9l-.5-1.45a7.5,7.5,0,0,1,4-1.07c3.7,0,4.6,2.52,4.6,4.95v4.52a17.07,17.07,0,0,0,.2,2.9Zm-.33-6.18c-2.39,0-5.12.38-5.12,2.73a2,2,0,0,0,2.07,2.1,3,3,0,0,0,2.93-2,2.52,2.52,0,0,0,.12-.71Z"/><path class="cls-3" d="M120.83,792.66v3.47H124v1.68h-3.15v6.52c0,1.5.42,2.35,1.65,2.35a5.08,5.08,0,0,0,1.27-.15l.1,1.65a5.48,5.48,0,0,1-1.95.3,3,3,0,0,1-2.37-.93,4.5,4.5,0,0,1-.85-3.15v-6.59h-1.87v-1.68h1.87v-2.9Z"/><path class="cls-3" d="M128.91,792.73a1.37,1.37,0,0,1-2.73,0,1.34,1.34,0,0,1,1.37-1.37A1.31,1.31,0,0,1,128.91,792.73Zm-2.45,15.5v-12.1h2.2v12.1Z"/><path class="cls-3" d="M143.25,802.08c0,4.47-3.1,6.42-6,6.42-3.27,0-5.8-2.39-5.8-6.22,0-4,2.65-6.42,6-6.42S143.25,798.38,143.25,802.08Zm-9.6.12c0,2.66,1.53,4.65,3.68,4.65s3.67-2,3.67-4.69c0-2-1-4.65-3.62-4.65S133.65,799.91,133.65,802.2Z"/><path class="cls-3" d="M146,799.41c0-1.25,0-2.28-.1-3.28h1.95l.12,2h.05a4.45,4.45,0,0,1,4-2.27c1.68,0,4.28,1,4.28,5.15v7.22h-2.2v-7c0-2-.73-3.58-2.8-3.58a3.23,3.23,0,0,0-3.1,3.27v7.28H146Z"/><path class="cls-3" d="M175.33,804.93c0,1.25,0,2.35.1,3.3h-2l-.13-2h0a4.54,4.54,0,0,1-4,2.25c-1.9,0-4.17-1-4.17-5.3v-7.07h2.2v6.7c0,2.3.7,3.85,2.7,3.85a3.19,3.19,0,0,0,2.9-2,3.34,3.34,0,0,0,.2-1.13v-7.42h2.2Z"/><path class="cls-3" d="M179,790.48h2.2v17.75H179Z"/><path class="cls-3" d="M184.88,790.48h2.2v17.75h-2.2Z"/><path class="cls-3" d="M197.48,808.23l-.18-1.53h-.07a4.52,4.52,0,0,1-3.7,1.8,3.44,3.44,0,0,1-3.7-3.47c0-2.92,2.6-4.52,7.27-4.5v-.25a2.49,2.49,0,0,0-2.75-2.8,6,6,0,0,0-3.15.9l-.5-1.45a7.51,7.51,0,0,1,4-1.07c3.7,0,4.6,2.52,4.6,4.95v4.52a17.07,17.07,0,0,0,.2,2.9Zm-.33-6.18c-2.4,0-5.12.38-5.12,2.73a2,2,0,0,0,2.07,2.1,3,3,0,0,0,2.93-2,2.52,2.52,0,0,0,.12-.71Z"/><path class="cls-3" d="M202.83,799.41c0-1.25,0-2.28-.1-3.28h1.92l.1,2h.08a4.16,4.16,0,0,1,3.8-2.22,3.57,3.57,0,0,1,3.42,2.42h0a5,5,0,0,1,1.35-1.57,4.15,4.15,0,0,1,2.68-.85c1.59,0,4,1,4,5.25v7.12H218v-6.85c0-2.32-.85-3.72-2.62-3.72a2.84,2.84,0,0,0-2.6,2,3.56,3.56,0,0,0-.18,1.1v7.47H210.4V801c0-1.92-.85-3.32-2.52-3.32a3,3,0,0,0-2.73,2.2,3.12,3.12,0,0,0-.17,1.07v7.3h-2.15Z"/><path class="cls-3" d="M232.3,807.78a8.08,8.08,0,0,1-3.47.7c-3.65,0-6-2.48-6-6.18a6.15,6.15,0,0,1,6.5-6.42,7.34,7.34,0,0,1,3,.63l-.5,1.7a5.08,5.08,0,0,0-2.55-.58c-2.77,0-4.27,2-4.27,4.57,0,2.8,1.8,4.53,4.2,4.53a6.34,6.34,0,0,0,2.7-.6Z"/><path class="cls-3" d="M245.68,802.08c0,4.47-3.1,6.42-6,6.42-3.27,0-5.8-2.39-5.8-6.22,0-4,2.65-6.42,6-6.42S245.68,798.38,245.68,802.08Zm-9.6.12c0,2.66,1.52,4.65,3.67,4.65s3.68-2,3.68-4.69c0-2-1-4.65-3.63-4.65S236.08,799.91,236.08,802.2Z"/><path class="cls-3" d="M248.45,799.91c0-1.43,0-2.65-.1-3.78h1.93l.07,2.38h.1a3.63,3.63,0,0,1,3.35-2.65,2.43,2.43,0,0,1,.63.07V798a3.32,3.32,0,0,0-.75-.08,3.09,3.09,0,0,0-3,2.83,6.18,6.18,0,0,0-.1,1v6.45h-2.18Z"/><path class="cls-3" d="M256.73,800.08c0-1.55-.05-2.8-.1-4h2l.1,2.08h.05a4.75,4.75,0,0,1,4.3-2.35c2.93,0,5.13,2.47,5.13,6.15,0,4.34-2.65,6.49-5.5,6.49a4.26,4.26,0,0,1-3.73-1.9h-.05v6.58h-2.17Zm2.17,3.22a4.85,4.85,0,0,0,.1.9,3.4,3.4,0,0,0,3.3,2.58c2.33,0,3.68-1.9,3.68-4.67,0-2.43-1.28-4.5-3.6-4.5a3.52,3.52,0,0,0-3.33,2.72,3.85,3.85,0,0,0-.15.9Z"/><path class="cls-3" d="M272.18,802.58a3.88,3.88,0,0,0,4.15,4.2,8,8,0,0,0,3.35-.63l.37,1.58a9.77,9.77,0,0,1-4,.75c-3.73,0-5.95-2.45-5.95-6.1s2.15-6.52,5.67-6.52c3.95,0,5,3.47,5,5.69a9.52,9.52,0,0,1-.07,1Zm6.45-1.57c0-1.4-.58-3.58-3.05-3.58-2.23,0-3.2,2.05-3.38,3.58Z"/><path class="cls-3" d="M283.48,799.91c0-1.43,0-2.65-.1-3.78h1.92l.08,2.38h.1a3.62,3.62,0,0,1,3.35-2.65,2.35,2.35,0,0,1,.62.07V798a3.25,3.25,0,0,0-.75-.08,3.09,3.09,0,0,0-2.95,2.83,6.18,6.18,0,0,0-.1,1v6.45h-2.17Z"/><path class="cls-3" d="M296.65,806a5.81,5.81,0,0,0,2.9.87c1.6,0,2.35-.8,2.35-1.8s-.62-1.62-2.25-2.22c-2.17-.78-3.2-2-3.2-3.42,0-1.95,1.58-3.55,4.18-3.55a6,6,0,0,1,3,.75l-.55,1.6a4.69,4.69,0,0,0-2.47-.7c-1.3,0-2,.75-2,1.65s.73,1.45,2.3,2c2.1.81,3.18,1.85,3.18,3.66,0,2.12-1.65,3.62-4.53,3.62a6.91,6.91,0,0,1-3.4-.83Z"/><path class="cls-3" d="M317,804.93c0,1.25,0,2.35.1,3.3h-1.95l-.13-2H315a4.54,4.54,0,0,1-4,2.25c-1.9,0-4.17-1-4.17-5.3v-7.07H309v6.7c0,2.3.7,3.85,2.7,3.85a3.19,3.19,0,0,0,2.9-2,3.34,3.34,0,0,0,.2-1.13v-7.42H317Z"/><path class="cls-3" d="M320.33,806a5.81,5.81,0,0,0,2.9.87c1.6,0,2.35-.8,2.35-1.8s-.63-1.62-2.25-2.22c-2.18-.78-3.2-2-3.2-3.42,0-1.95,1.57-3.55,4.17-3.55a6.06,6.06,0,0,1,3,.75l-.55,1.6a4.73,4.73,0,0,0-2.48-.7c-1.3,0-2,.75-2,1.65s.72,1.45,2.3,2c2.1.81,3.17,1.85,3.17,3.66,0,2.12-1.65,3.62-4.52,3.62a6.89,6.89,0,0,1-3.4-.83Z"/><path class="cls-3" d="M339.15,807.78a8.08,8.08,0,0,1-3.47.7c-3.65,0-6-2.48-6-6.18a6.15,6.15,0,0,1,6.5-6.42,7.34,7.34,0,0,1,3.05.63l-.5,1.7a5.08,5.08,0,0,0-2.55-.58c-2.77,0-4.27,2-4.27,4.57,0,2.8,1.8,4.53,4.2,4.53a6.34,6.34,0,0,0,2.7-.6Z"/><path class="cls-3" d="M344.18,792.73a1.37,1.37,0,0,1-2.73,0,1.34,1.34,0,0,1,1.38-1.37A1.31,1.31,0,0,1,344.18,792.73Zm-2.45,15.5v-12.1h2.2v12.1Z"/><path class="cls-3" d="M347.58,800.08c0-1.55-.05-2.8-.1-4h2l.1,2.08h.05a4.75,4.75,0,0,1,4.3-2.35c2.93,0,5.12,2.47,5.12,6.15,0,4.34-2.64,6.49-5.49,6.49a4.26,4.26,0,0,1-3.73-1.9h-.05v6.58h-2.17Zm2.17,3.22a4.85,4.85,0,0,0,.1.9,3.4,3.4,0,0,0,3.3,2.58c2.33,0,3.68-1.9,3.68-4.67,0-2.43-1.28-4.5-3.6-4.5a3.52,3.52,0,0,0-3.33,2.72,3.85,3.85,0,0,0-.15.9Z"/><path class="cls-3" d="M364.25,792.73a1.29,1.29,0,0,1-1.4,1.35,1.31,1.31,0,0,1-1.32-1.35,1.34,1.34,0,0,1,1.37-1.37A1.3,1.3,0,0,1,364.25,792.73Zm-2.45,15.5v-12.1H364v12.1Z"/><path class="cls-3" d="M370.3,792.66v3.47h3.15v1.68H370.3v6.52c0,1.5.43,2.35,1.65,2.35a5.17,5.17,0,0,0,1.28-.15l.1,1.65a5.52,5.52,0,0,1-1.95.3,3.06,3.06,0,0,1-2.38-.93,4.5,4.5,0,0,1-.85-3.15v-6.59h-1.87v-1.68h1.87v-2.9Z"/><path class="cls-3" d="M381.23,790.48h2.2v17.75h-2.2Z"/><path class="cls-3" d="M398.07,802.08c0,4.47-3.1,6.42-6,6.42-3.27,0-5.8-2.39-5.8-6.22,0-4,2.65-6.42,6-6.42S398.07,798.38,398.07,802.08Zm-9.59.12c0,2.66,1.52,4.65,3.67,4.65s3.67-2,3.67-4.69c0-2-1-4.65-3.62-4.65S388.48,799.91,388.48,802.2Z"/><path class="cls-3" d="M400.75,808.23c.05-.83.1-2.05.1-3.12V790.48H403v7.6h.05a4.49,4.49,0,0,1,4.12-2.22c3,0,5.12,2.5,5.1,6.17,0,4.32-2.73,6.47-5.43,6.47a4.3,4.3,0,0,1-4-2.27h-.08l-.1,2Zm2.28-4.85a4.17,4.17,0,0,0,.1.8,3.39,3.39,0,0,0,3.29,2.57c2.3,0,3.68-1.87,3.68-4.64,0-2.43-1.25-4.5-3.6-4.5a3.5,3.5,0,0,0-3.35,2.7,4.36,4.36,0,0,0-.12.89Z"/><path class="cls-3" d="M426,802.08c0,4.47-3.1,6.42-6,6.42-3.27,0-5.8-2.39-5.8-6.22,0-4,2.65-6.42,6-6.42S426,798.38,426,802.08Zm-9.6.12c0,2.66,1.53,4.65,3.68,4.65s3.67-2,3.67-4.69c0-2-1-4.65-3.62-4.65S416.42,799.91,416.42,802.2Z"/><path class="cls-3" d="M428.8,799.91c0-1.43,0-2.65-.1-3.78h1.93l.07,2.38h.1a3.62,3.62,0,0,1,3.35-2.65,2.35,2.35,0,0,1,.62.07V798a3.25,3.25,0,0,0-.75-.08,3.1,3.1,0,0,0-2.95,2.83,6.18,6.18,0,0,0-.1,1v6.45H428.8Z"/><path class="cls-3" d="M440.22,792.66v3.47h3.15v1.68h-3.15v6.52c0,1.5.43,2.35,1.65,2.35a5.17,5.17,0,0,0,1.28-.15l.1,1.65a5.52,5.52,0,0,1-1.95.3,3.06,3.06,0,0,1-2.38-.93,4.5,4.5,0,0,1-.85-3.15v-6.59H436.2v-1.68h1.87v-2.9Z"/><path class="cls-3" d="M448.3,792.73a1.36,1.36,0,0,1-2.72,0,1.34,1.34,0,0,1,1.37-1.37A1.31,1.31,0,0,1,448.3,792.73Zm-2.45,15.5v-12.1h2.2v12.1Z"/><path class="cls-3" d="M451.4,806a5.81,5.81,0,0,0,2.9.87c1.6,0,2.35-.8,2.35-1.8s-.63-1.62-2.25-2.22c-2.18-.78-3.2-2-3.2-3.42,0-1.95,1.57-3.55,4.17-3.55a6.06,6.06,0,0,1,3,.75l-.55,1.6a4.73,4.73,0,0,0-2.48-.7c-1.3,0-2,.75-2,1.65s.72,1.45,2.3,2c2.1.81,3.17,1.85,3.17,3.66,0,2.12-1.65,3.62-4.52,3.62a6.89,6.89,0,0,1-3.4-.83Z"/><path class="cls-3" d="M466.9,799.41c0-1.25,0-2.28-.1-3.28h1.95l.12,2h.05a4.45,4.45,0,0,1,4-2.27c1.68,0,4.28,1,4.28,5.15v7.22H475v-7c0-2-.73-3.58-2.8-3.58a3.23,3.23,0,0,0-3.1,3.27v7.28h-2.2Z"/><path class="cls-3" d="M483.22,792.73a1.29,1.29,0,0,1-1.4,1.35,1.31,1.31,0,0,1-1.32-1.35,1.34,1.34,0,0,1,1.37-1.37A1.3,1.3,0,0,1,483.22,792.73Zm-2.45,15.5v-12.1H483v12.1Z"/><path class="cls-3" d="M486.32,806a5.81,5.81,0,0,0,2.9.87c1.6,0,2.35-.8,2.35-1.8s-.62-1.62-2.25-2.22c-2.17-.78-3.2-2-3.2-3.42,0-1.95,1.58-3.55,4.18-3.55a6,6,0,0,1,3,.75l-.55,1.6a4.69,4.69,0,0,0-2.47-.7c-1.3,0-2,.75-2,1.65s.73,1.45,2.3,2c2.1.81,3.18,1.85,3.18,3.66,0,2.12-1.65,3.62-4.53,3.62a6.91,6.91,0,0,1-3.4-.83Z"/><path class="cls-3" d="M496.52,790.48h2.2v17.75h-2.2Z"/><path class="cls-3" d="M517.85,804.93c0,1.25,0,2.35.1,3.3h-2l-.13-2h0a4.54,4.54,0,0,1-4,2.25c-1.9,0-4.17-1-4.17-5.3v-7.07h2.2v6.7c0,2.3.7,3.85,2.7,3.85a3.19,3.19,0,0,0,2.9-2,3.34,3.34,0,0,0,.2-1.13v-7.42h2.2Z"/><path class="cls-3" d="M524.15,792.66v3.47h3.15v1.68h-3.15v6.52c0,1.5.42,2.35,1.65,2.35a5.08,5.08,0,0,0,1.27-.15l.1,1.65a5.48,5.48,0,0,1-1.95.3,3,3,0,0,1-2.37-.93,4.45,4.45,0,0,1-.85-3.15v-6.59h-1.88v-1.68H522v-2.9Z"/><path class="cls-3" d="M38.2,838.23,38,836.7H38a4.52,4.52,0,0,1-3.7,1.8,3.44,3.44,0,0,1-3.7-3.47c0-2.92,2.6-4.52,7.27-4.5v-.25a2.5,2.5,0,0,0-2.75-2.8,6,6,0,0,0-3.15.9l-.5-1.45a7.51,7.51,0,0,1,4-1.07c3.69,0,4.59,2.52,4.59,4.95v4.52a17.07,17.07,0,0,0,.2,2.9Zm-.32-6.18c-2.4,0-5.12.38-5.12,2.73a2,2,0,0,0,2.07,2.1,3,3,0,0,0,2.93-2,2.52,2.52,0,0,0,.12-.71Z"/><path class="cls-3" d="M43.56,820.48h2.2v17.75h-2.2Z"/><path class="cls-3" d="M51.91,822.73a1.37,1.37,0,0,1-2.73,0,1.34,1.34,0,0,1,1.37-1.37A1.31,1.31,0,0,1,51.91,822.73Zm-2.45,15.5v-12.1h2.2v12.1Z"/><path class="cls-3" d="M63.55,836.35h0a4.3,4.3,0,0,1-4,2.15c-2.82,0-5.12-2.45-5.12-6.12,0-4.52,2.93-6.52,5.48-6.52a4,4,0,0,1,3.72,2.1h0l.07-1.83h2.08c0,1-.08,2.08-.08,3.33v13.72h-2.2Zm0-5.32a3.46,3.46,0,0,0-.1-.92,3.21,3.21,0,0,0-3.15-2.5c-2.27,0-3.64,1.92-3.64,4.65,0,2.39,1.15,4.49,3.57,4.49a3.28,3.28,0,0,0,3.15-2.39,3.79,3.79,0,0,0,.17-1.06Z"/><path class="cls-3" d="M79.5,834.93c0,1.25,0,2.35.1,3.3H77.65l-.12-2h0a4.55,4.55,0,0,1-4,2.25c-1.9,0-4.17-1-4.17-5.3v-7.07h2.2v6.7c0,2.3.69,3.85,2.69,3.85a3.18,3.18,0,0,0,2.9-2,3.11,3.11,0,0,0,.2-1.13v-7.42h2.2Z"/><path class="cls-3" d="M85.61,822.73a1.37,1.37,0,0,1-2.73,0,1.34,1.34,0,0,1,1.38-1.37A1.31,1.31,0,0,1,85.61,822.73Zm-2.45,15.5v-12.1h2.2v12.1Z"/><path class="cls-3" d="M89,830.08c0-1.55-.05-2.8-.1-4h2l.1,2.08h0a4.74,4.74,0,0,1,4.3-2.35c2.92,0,5.12,2.47,5.12,6.15,0,4.34-2.65,6.49-5.5,6.49a4.23,4.23,0,0,1-3.72-1.9h0v6.58H89Zm2.17,3.22a4.85,4.85,0,0,0,.1.9,3.39,3.39,0,0,0,3.3,2.58c2.32,0,3.67-1.9,3.67-4.67,0-2.43-1.27-4.5-3.6-4.5a3.5,3.5,0,0,0-3.32,2.72,3.85,3.85,0,0,0-.15.9Z"/><path class="cls-3" d="M109.75,832.58a3.88,3.88,0,0,0,4.15,4.2,7.91,7.91,0,0,0,3.35-.63l.38,1.58a9.83,9.83,0,0,1-4,.75c-3.72,0-5.94-2.45-5.94-6.1s2.14-6.52,5.67-6.52c4,0,5,3.47,5,5.69a7.13,7.13,0,0,1-.08,1ZM116.2,831c0-1.4-.57-3.58-3-3.58-2.22,0-3.2,2.05-3.37,3.58Z"/><path class="cls-3" d="M122,826.13l1.72,2.6c.45.68.82,1.3,1.22,2H125c.4-.72.8-1.34,1.2-2l1.7-2.58h2.37L126.18,832l4.25,6.25h-2.5l-1.78-2.73c-.47-.7-.87-1.37-1.3-2.1h0c-.4.73-.82,1.38-1.27,2.1l-1.75,2.73h-2.42l4.29-6.18-4.1-5.92Z"/><path class="cls-3" d="M139.08,832.58a3.88,3.88,0,0,0,4.15,4.2,8,8,0,0,0,3.35-.63l.37,1.58a9.77,9.77,0,0,1-4,.75c-3.73,0-6-2.45-6-6.1s2.15-6.52,5.67-6.52c3.95,0,5,3.47,5,5.69a9.52,9.52,0,0,1-.07,1Zm6.45-1.57c0-1.4-.58-3.58-3.05-3.58-2.23,0-3.2,2.05-3.38,3.58Z"/><path class="cls-3" d="M157.08,838.23l-.18-1.53h-.07a4.52,4.52,0,0,1-3.7,1.8,3.44,3.44,0,0,1-3.7-3.47c0-2.92,2.6-4.52,7.27-4.5v-.25a2.49,2.49,0,0,0-2.75-2.8,6,6,0,0,0-3.15.9l-.5-1.45a7.51,7.51,0,0,1,4-1.07c3.7,0,4.6,2.52,4.6,4.95v4.52a17.07,17.07,0,0,0,.2,2.9Zm-.33-6.18c-2.4,0-5.12.38-5.12,2.73a2,2,0,0,0,2.07,2.1,3,3,0,0,0,2.93-2,2.52,2.52,0,0,0,.12-.71Z"/><path class="cls-3" d="M176.35,837.78a8.08,8.08,0,0,1-3.47.7c-3.65,0-6-2.48-6-6.18a6.15,6.15,0,0,1,6.5-6.42,7.34,7.34,0,0,1,3.05.63l-.5,1.7a5.08,5.08,0,0,0-2.55-.58c-2.77,0-4.27,2-4.27,4.57,0,2.8,1.8,4.53,4.2,4.53a6.34,6.34,0,0,0,2.7-.6Z"/><path class="cls-3" d="M189.73,832.08c0,4.47-3.1,6.42-6,6.42-3.27,0-5.8-2.39-5.8-6.22,0-4,2.65-6.42,6-6.42S189.73,828.38,189.73,832.08Zm-9.6.12c0,2.66,1.52,4.65,3.67,4.65s3.68-2,3.68-4.69c0-2-1-4.65-3.63-4.65S180.13,829.91,180.13,832.2Z"/><path class="cls-3" d="M192.5,829.41c0-1.25,0-2.28-.1-3.28h1.93l.1,2h.07a4.17,4.17,0,0,1,3.8-2.22,3.59,3.59,0,0,1,3.43,2.42h.05a4.9,4.9,0,0,1,1.35-1.57,4.11,4.11,0,0,1,2.67-.85c1.6,0,4,1,4,5.25v7.12h-2.14v-6.85c0-2.32-.86-3.72-2.63-3.72a2.85,2.85,0,0,0-2.6,2,3.58,3.58,0,0,0-.17,1.1v7.47h-2.15V831c0-1.92-.85-3.32-2.53-3.32a3,3,0,0,0-2.72,2.2,2.9,2.9,0,0,0-.18,1.07v7.3H192.5Z"/><path class="cls-3" d="M213.35,829.41c0-1.25,0-2.28-.1-3.28h1.93l.1,2h.07a4.17,4.17,0,0,1,3.8-2.22,3.59,3.59,0,0,1,3.43,2.42h0a4.9,4.9,0,0,1,1.35-1.57,4.11,4.11,0,0,1,2.67-.85c1.6,0,4,1,4,5.25v7.12h-2.15v-6.85c0-2.32-.85-3.72-2.63-3.72a2.85,2.85,0,0,0-2.6,2,3.58,3.58,0,0,0-.17,1.1v7.47h-2.15V831c0-1.92-.85-3.32-2.53-3.32a3,3,0,0,0-2.72,2.2,2.9,2.9,0,0,0-.18,1.07v7.3h-2.15Z"/><path class="cls-3" d="M245.15,832.08c0,4.47-3.1,6.42-6,6.42-3.28,0-5.8-2.39-5.8-6.22,0-4,2.65-6.42,6-6.42S245.15,828.38,245.15,832.08Zm-9.6.12c0,2.66,1.53,4.65,3.68,4.65s3.67-2,3.67-4.69c0-2-1-4.65-3.62-4.65S235.55,829.91,235.55,832.2Z"/><path class="cls-3" d="M258.38,820.48v14.63c0,1.07,0,2.29.1,3.12h-2l-.1-2.1h0a4.46,4.46,0,0,1-4.12,2.37c-2.93,0-5.18-2.47-5.18-6.14,0-4,2.48-6.5,5.43-6.5a4,4,0,0,1,3.65,1.85h.05v-7.23Zm-2.2,10.58a4.2,4.2,0,0,0-.1-.93,3.25,3.25,0,0,0-3.18-2.55c-2.27,0-3.62,2-3.62,4.68,0,2.44,1.2,4.47,3.57,4.47a3.31,3.31,0,0,0,3.23-2.62,4.16,4.16,0,0,0,.1-1Z"/><path class="cls-3" d="M273,832.08c0,4.47-3.1,6.42-6,6.42-3.27,0-5.8-2.39-5.8-6.22,0-4,2.65-6.42,6-6.42S273,828.38,273,832.08Zm-9.6.12c0,2.66,1.52,4.65,3.67,4.65s3.68-2,3.68-4.69c0-2-1-4.65-3.63-4.65S263.38,829.91,263.38,832.2Z"/><path class="cls-3" d="M289.68,837.78a8.13,8.13,0,0,1-3.48.7c-3.65,0-6-2.48-6-6.18a6.15,6.15,0,0,1,6.5-6.42,7.34,7.34,0,0,1,3.05.63l-.5,1.7a5.11,5.11,0,0,0-2.55-.58c-2.78,0-4.28,2-4.28,4.57,0,2.8,1.8,4.53,4.2,4.53a6.3,6.3,0,0,0,2.7-.6Z"/><path class="cls-3" d="M303.05,832.08c0,4.47-3.1,6.42-6,6.42-3.28,0-5.8-2.39-5.8-6.22,0-4,2.65-6.42,6-6.42S303.05,828.38,303.05,832.08Zm-9.6.12c0,2.66,1.53,4.65,3.68,4.65s3.67-2,3.67-4.69c0-2-1-4.65-3.62-4.65S293.45,829.91,293.45,832.2Z"/><path class="cls-3" d="M305.83,829.41c0-1.25,0-2.28-.1-3.28h1.95l.12,2h.05a4.45,4.45,0,0,1,4-2.27c1.68,0,4.28,1,4.28,5.15v7.22h-2.2v-7c0-2-.73-3.58-2.8-3.58A3.23,3.23,0,0,0,308,831v7.28h-2.2Z"/><path class="cls-3" d="M319.4,836a5.81,5.81,0,0,0,2.9.87c1.6,0,2.35-.8,2.35-1.8s-.62-1.62-2.25-2.22c-2.17-.78-3.2-2-3.2-3.42,0-1.95,1.58-3.55,4.18-3.55a6,6,0,0,1,3,.75l-.55,1.6a4.69,4.69,0,0,0-2.47-.7c-1.3,0-2,.75-2,1.65s.73,1.45,2.3,2c2.1.81,3.18,1.85,3.18,3.66,0,2.12-1.65,3.62-4.53,3.62a6.91,6.91,0,0,1-3.4-.83Z"/><path class="cls-3" d="M330.83,832.58a3.88,3.88,0,0,0,4.15,4.2,8,8,0,0,0,3.35-.63l.37,1.58a9.77,9.77,0,0,1-4,.75c-3.73,0-5.95-2.45-5.95-6.1s2.15-6.52,5.67-6.52c4,0,5,3.47,5,5.69a9.52,9.52,0,0,1-.07,1Zm6.45-1.57c0-1.4-.58-3.58-3-3.58-2.23,0-3.2,2.05-3.38,3.58Z"/><path class="cls-3" d="M350.38,836.35h-.05a4.31,4.31,0,0,1-3.95,2.15c-2.83,0-5.13-2.45-5.13-6.12,0-4.52,2.93-6.52,5.48-6.52a4,4,0,0,1,3.72,2.1h.05l.08-1.83h2.07c0,1-.07,2.08-.07,3.33v13.72h-2.2Zm0-5.32a3.93,3.93,0,0,0-.1-.92,3.22,3.22,0,0,0-3.15-2.5c-2.28,0-3.65,1.92-3.65,4.65,0,2.39,1.15,4.49,3.57,4.49a3.27,3.27,0,0,0,3.15-2.39,3.8,3.8,0,0,0,.18-1.06Z"/><path class="cls-3" d="M366.33,834.93c0,1.25,0,2.35.09,3.3h-1.94l-.13-2h-.05a4.54,4.54,0,0,1-4,2.25c-1.9,0-4.17-1-4.17-5.3v-7.07h2.2v6.7c0,2.3.7,3.85,2.7,3.85a3.19,3.19,0,0,0,2.9-2,3.34,3.34,0,0,0,.2-1.13v-7.42h2.2Z"/><path class="cls-3" d="M376.67,838.23l-.17-1.53h-.07a4.52,4.52,0,0,1-3.7,1.8A3.44,3.44,0,0,1,369,835c0-2.92,2.6-4.52,7.27-4.5v-.25a2.49,2.49,0,0,0-2.75-2.8,6,6,0,0,0-3.15.9l-.5-1.45a7.51,7.51,0,0,1,4-1.07c3.7,0,4.59,2.52,4.59,4.95v4.52a17.07,17.07,0,0,0,.2,2.9Zm-.32-6.18c-2.4,0-5.12.38-5.12,2.73a2,2,0,0,0,2.07,2.1,3,3,0,0,0,2.93-2,2.52,2.52,0,0,0,.12-.71Z"/><path class="cls-3" d="M384.58,822.66v3.47h3.15v1.68h-3.15v6.52c0,1.5.42,2.35,1.65,2.35a5.08,5.08,0,0,0,1.27-.15l.1,1.65a5.48,5.48,0,0,1-2,.3,3,3,0,0,1-2.37-.93,4.45,4.45,0,0,1-.85-3.15v-6.59h-1.88v-1.68h1.88v-2.9Z"/><path class="cls-3" d="M389.6,836.93a1.47,1.47,0,0,1,1.5-1.57,1.57,1.57,0,0,1,0,3.14A1.47,1.47,0,0,1,389.6,836.93Z"/><path class="cls-3" d="M400.68,821.61a31.08,31.08,0,0,1,4.62-.35c3.12,0,5.35.72,6.82,2.1a7.75,7.75,0,0,1,2.38,6,8.87,8.87,0,0,1-2.43,6.54c-1.57,1.58-4.17,2.43-7.44,2.43a36.33,36.33,0,0,1-3.95-.2Zm2.17,14.89a13.66,13.66,0,0,0,2.2.13c4.65,0,7.17-2.6,7.17-7.15,0-4-2.22-6.5-6.82-6.5a12,12,0,0,0-2.55.23Z"/><path class="cls-3" d="M427.45,834.93c0,1.25,0,2.35.1,3.3H425.6l-.13-2h-.05a4.54,4.54,0,0,1-4,2.25c-1.89,0-4.17-1-4.17-5.3v-7.07h2.2v6.7c0,2.3.7,3.85,2.7,3.85a3.19,3.19,0,0,0,2.9-2,3.34,3.34,0,0,0,.2-1.13v-7.42h2.2Z"/><path class="cls-3" d="M433.55,822.73a1.29,1.29,0,0,1-1.4,1.35,1.31,1.31,0,0,1-1.32-1.35,1.34,1.34,0,0,1,1.37-1.37A1.3,1.3,0,0,1,433.55,822.73Zm-2.45,15.5v-12.1h2.2v12.1Z"/><path class="cls-3" d="M436.65,836a5.81,5.81,0,0,0,2.9.87c1.6,0,2.35-.8,2.35-1.8s-.63-1.62-2.25-2.22c-2.17-.78-3.2-2-3.2-3.42,0-1.95,1.58-3.55,4.18-3.55a6,6,0,0,1,3,.75l-.55,1.6a4.73,4.73,0,0,0-2.48-.7c-1.29,0-2,.75-2,1.65s.73,1.45,2.3,2c2.1.81,3.17,1.85,3.17,3.66,0,2.12-1.65,3.62-4.52,3.62a6.89,6.89,0,0,1-3.4-.83Z"/><path class="cls-3" d="M458.85,838.23l-.18-1.53h-.07a4.52,4.52,0,0,1-3.7,1.8,3.44,3.44,0,0,1-3.7-3.47c0-2.92,2.6-4.52,7.27-4.5v-.25a2.49,2.49,0,0,0-2.75-2.8,6,6,0,0,0-3.15.9l-.49-1.45a7.45,7.45,0,0,1,4-1.07c3.7,0,4.6,2.52,4.6,4.95v4.52a17.07,17.07,0,0,0,.2,2.9Zm-.33-6.18c-2.4,0-5.12.38-5.12,2.73a2,2,0,0,0,2.07,2.1,3,3,0,0,0,2.93-2,2.52,2.52,0,0,0,.12-.71Z"/><path class="cls-3" d="M474.32,834.93c0,1.25,0,2.35.1,3.3h-1.95l-.12-2h-.05a4.55,4.55,0,0,1-4,2.25c-1.9,0-4.17-1-4.17-5.3v-7.07h2.2v6.7c0,2.3.69,3.85,2.69,3.85a3.18,3.18,0,0,0,2.9-2,3.11,3.11,0,0,0,.2-1.13v-7.42h2.2Z"/><path class="cls-3" d="M480.62,822.66v3.47h3.15v1.68h-3.15v6.52c0,1.5.43,2.35,1.65,2.35a5.17,5.17,0,0,0,1.28-.15l.1,1.65a5.52,5.52,0,0,1-1.95.3,3.06,3.06,0,0,1-2.38-.93,4.5,4.5,0,0,1-.85-3.15v-6.59H476.6v-1.68h1.87v-2.9Z"/><path class="cls-3" d="M487.32,832.58c.06,3,1.95,4.2,4.15,4.2a7.91,7.91,0,0,0,3.35-.63l.38,1.58a9.83,9.83,0,0,1-4,.75c-3.72,0-5.94-2.45-5.94-6.1s2.15-6.52,5.67-6.52c4,0,5,3.47,5,5.69a7.13,7.13,0,0,1-.08,1Zm6.45-1.57c0-1.4-.57-3.58-3-3.58-2.22,0-3.2,2.05-3.37,3.58Z"/><path class="cls-3" d="M498.62,829.41c0-1.25,0-2.28-.1-3.28h1.93l.1,2h.07a4.17,4.17,0,0,1,3.8-2.22,3.59,3.59,0,0,1,3.43,2.42h0a4.9,4.9,0,0,1,1.35-1.57,4.11,4.11,0,0,1,2.67-.85c1.6,0,4,1,4,5.25v7.12h-2.15v-6.85c0-2.32-.85-3.72-2.63-3.72a2.85,2.85,0,0,0-2.6,2,3.58,3.58,0,0,0-.17,1.1v7.47H506.2V831c0-1.92-.85-3.32-2.53-3.32a3,3,0,0,0-2.72,2.2,2.9,2.9,0,0,0-.18,1.07v7.3h-2.15Z"/><rect class="cls-1" x="207.32" y="529.64" width="156.43" height="121.87" rx="2.63"/><rect class="cls-1" x="384.95" y="529.64" width="156.43" height="121.87" rx="2.63"/><rect class="cls-2" x="609.48" y="439.5" width="130.08" height="97.32" rx="2.63"/><rect class="cls-2" x="609.48" y="571.28" width="130.08" height="97.32" rx="2.63"/><rect class="cls-2" x="609.48" y="703.07" width="130.08" height="97.32" rx="2.63"/><rect class="cls-2" x="552.67" y="25.2" width="85.45" height="38.21" rx="2.63"/><rect class="cls-2" x="337.25" y="908.79" width="85.45" height="38.21" rx="2.63"/><rect class="cls-2" x="439.34" y="908.79" width="85.45" height="38.21" rx="2.63"/><rect class="cls-2" x="235.17" y="908.79" width="85.45" height="38.21" rx="2.63"/><rect class="cls-2" x="39.47" y="295.1" width="199.88" height="122.54" rx="2.63"/><text class="cls-4" transform="translate(39.57 445.24)">Lorem ipsum dolor sit amet, consectetuer <tspan x="-0.14" y="30">adipiscing elit, sed diam nonummy nibh </tspan><tspan x="-0.14" y="60">euismod tincidunt </tspan></text></g></g></svg>