<svg xmlns="http://www.w3.org/2000/svg" viewBox="0 0 657.95 1087.4"><defs><style>.cls-1{fill:#231f20;opacity:0.07;}.cls-2{font-size:26.45px;}.cls-2,.cls-6,.cls-7{fill:#909090;font-family:CourierNewPSMT, Courier New;}.cls-3{fill:none;stroke:#909090;stroke-linecap:round;stroke-miterlimit:10;stroke-width:0.75px;stroke-dasharray:10 4 0 0 0 0;}.cls-4{font-size:25px;}.cls-4,.cls-5{fill:#505150;font-family:Co-Text-Light, Co Text ;font-weight:300;}.cls-5{font-size:29.64px;}.cls-6{font-size:22.47px;}.cls-7{font-size:26.65px;}</style></defs><g id="Layer_2" data-name="Layer 2"><g id="Mobile"><rect class="cls-1" x="50.1" width="520.49" height="1013.22"/><text class="cls-2" transform="translate(279.73 33.05) scale(0.92 1)">1fr</text><line class="cls-3" x1="22.13" y1="153.18" x2="605.57" y2="153.18"/><line class="cls-3" x1="22.13" y1="53.14" x2="607.55" y2="54.65"/><line class="cls-3" x1="22.13" y1="886.9" x2="605.24" y2="886.9"/><line class="cls-3" x1="21.48" y1="983.76" x2="604.97" y2="983.76"/><text class="cls-4" transform="translate(5.07 72.3) scale(0.71 1)">1</text><text class="cls-4" transform="translate(2.74 159.17) scale(0.71 1)">2</text><line class="cls-3" x1="22.91" y1="250.82" x2="606.35" y2="250.82"/><text class="cls-4" transform="translate(3.52 258.82) scale(0.71 1)">3</text><line class="cls-3" x1="19.38" y1="741.28" x2="602.83" y2="741.28"/><text class="cls-4" transform="translate(0 749.28) scale(0.71 1)">4</text><text class="cls-5" transform="translate(5.07 895.91) scale(0.6 1)">5</text><text class="cls-5" transform="translate(5.07 991.48) scale(0.6 1)">6</text><line class="cls-3" x1="33.41" y1="1035.09" x2="33.41" y2="34.29"/><text class="cls-5" transform="translate(28.18 1062.15) scale(0.6 1)">1</text><line class="cls-3" x1="580.11" y1="1044.63" x2="580.11" y2="40.46"/><text class="cls-5" transform="translate(571.87 1074.51) scale(0.84 1)">2</text><text class="cls-6" transform="translate(599.86 107.41) scale(1.08 1)">10vh</text><text class="cls-6" transform="translate(599.86 208.87) scale(1.08 1)">auto</text><text class="cls-6" transform="translate(599.86 940.77) scale(1.08 1)">10vh</text><text class="cls-6" transform="translate(599.86 505.68) scale(1.08 1)">auto</text><text class="cls-7" transform="translate(599.86 810.05) scale(0.91 1)">auto</text></g></g></svg>